
<!-- Generator: visioncortex VTracer 0.6.4 -->
<svg version="1.1" xmlns="http://www.w3.org/2000/svg" viewBox="0 0 133 133" preserveAspectRatio="xMidYMid meet">
<path d="M0 0 C2 2 2 2 2.562 4.688 C1.837 8.957 0.128 10.163 -2.984 13.004 C-7.561 17.537 -11.257 23.18 -14 29 C-13.043 29.122 -13.043 29.122 -12.066 29.246 C-6.929 30.509 -2.281 32.961 2.494 35.205 C3.271 35.562 4.047 35.918 4.848 36.285 C5.549 36.614 6.25 36.943 6.973 37.281 C9.27 38.223 9.27 38.223 13 38 C14.304 35.391 14.147 33.289 14.25 30.375 C14.816 23 17.196 18.664 22.5 13.625 C27.907 10.11 32.614 9.147 39 10 C44.772 11.817 48.751 14.839 52 20 C52.993 23.3 53.538 26.59 54 30 C54.111 30.726 54.222 31.451 54.336 32.199 C54.576 33.797 54.791 35.398 55 37 C59.008 38.124 61.056 37.917 64.793 36.129 C65.67 35.72 66.547 35.31 67.451 34.889 C68.806 34.232 68.806 34.232 70.188 33.562 C71.992 32.707 73.798 31.854 75.605 31.004 C76.401 30.62 77.197 30.237 78.016 29.842 C80 29 80 29 82 29 C79.315 22.696 75.819 18.272 71.121 13.297 C66.127 7.889 66.127 7.889 65.625 4.375 C65.811 3.199 65.811 3.199 66 2 C69.065 -0.043 70.391 -0.512 73.98 0.16 C83.936 4.3 90.324 17.138 94.539 26.371 C102.404 45.896 102.483 67.196 94.492 86.676 C89.945 96.352 83.081 110.044 72.438 113.938 C69.333 114.017 68.235 113.069 66 111 C66.497 106.403 68.242 104.129 71.25 100.688 C75.012 96.364 78.068 91.904 81 87 C77.066 85.492 73.127 83.995 69.188 82.5 C68.068 82.071 66.948 81.641 65.795 81.199 C64.722 80.793 63.649 80.387 62.543 79.969 C61.553 79.592 60.563 79.215 59.544 78.826 C56.97 77.846 56.97 77.846 54 78 C53.944 79.195 53.944 79.195 53.887 80.414 C53.396 88.318 52.691 93.711 46.688 99.25 C42.203 102.817 38.379 104.253 32.625 103.938 C26.113 102.993 21.573 100.016 17.562 94.875 C15.242 90.605 14.886 87.612 14.938 82.812 C14.947 81.726 14.956 80.639 14.965 79.52 C14.976 78.688 14.988 77.857 15 77 C1.398 81.727 1.398 81.727 -12 87 C-10.755 90.512 -9.41 92.963 -6.875 95.688 C-4 98.789 -4 98.789 -4 101 C-3.34 101 -2.68 101 -2 101 C0.768 104.321 2.075 105.984 1.75 110.375 C1.502 111.241 1.255 112.108 1 113 C-1.867 113.857 -3.383 114.292 -6.141 112.988 C-21.706 100.622 -29.61 83.395 -32 64 C-33.276 42.411 -27.337 23.133 -13.375 6.5 C-9.463 2.239 -6.087 -0.823 0 0 Z M27 24 C26.108 27.096 26.108 27.096 26 30 C26.784 29.835 27.568 29.67 28.375 29.5 C32.94 28.87 37.401 28.918 42 29 C41.674 25.982 41.389 24.403 39.25 22.188 C34.597 19.732 30.965 20.696 27 24 Z M18.383 48.062 C15.557 52.022 15.413 56.308 16 61 C17.894 67.206 21.338 70.939 27 74 C32.152 75.717 36.506 75.438 41.625 73.938 C46.577 71.095 50.177 67.469 52 62 C52.534 56.031 52.533 51.064 49 46 C44.397 41.499 40.451 39.367 34.062 38.688 C26.614 39.448 23.063 42.522 18.383 48.062 Z M-19 40 C-19.33 41.237 -19.66 42.475 -20 43.75 C-20.186 44.446 -20.371 45.142 -20.562 45.859 C-21.133 48.289 -21.133 48.289 -21 52 C-11.989 52.633 -3.04 53.172 6 53 C6 51.68 6 50.36 6 49 C2.399 47.491 -1.206 45.995 -4.812 44.5 C-6.349 43.856 -6.349 43.856 -7.916 43.199 C-8.899 42.793 -9.882 42.387 -10.895 41.969 C-11.801 41.592 -12.706 41.215 -13.64 40.826 C-16.055 39.835 -16.055 39.835 -19 40 Z M78.895 41.969 C77.42 42.578 77.42 42.578 75.916 43.199 C74.38 43.843 74.38 43.843 72.812 44.5 C71.259 45.144 71.259 45.144 69.674 45.801 C67.114 46.863 64.556 47.929 62 49 C62.33 50.32 62.66 51.64 63 53 C71.718 53.163 80.312 52.657 89 52 C89.086 47.44 89.008 44.142 87 40 C83.704 40 81.92 40.71 78.895 41.969 Z M-21 64 C-20.01 67.96 -19.02 71.92 -18 76 C-8.993 74.362 -0.574 71.13 8 68 C7.67 66.68 7.34 65.36 7 64 C-2.24 64 -11.48 64 -21 64 Z M62 64 C61.67 65.32 61.34 66.64 61 68 C66.406 70.248 71.853 72.366 77.375 74.312 C78.352 74.659 79.329 75.006 80.336 75.363 C83.058 76.014 84.409 75.952 87 75 C88.193 71.123 89 68.084 89 64 C80.09 64 71.18 64 62 64 Z M26 84 C26.639 88.61 26.639 88.61 28.062 90.812 C31.211 92.742 34.473 92.647 38 92 C41.494 89.492 41.934 88.263 43 84 C37.39 84 31.78 84 26 84 Z " fill="#F7F8F7" transform="translate(32,10)"/>
<path d="M0 0 C5.151 1.706 8.107 4.668 11 9.188 C13.41 14.123 14.08 18.599 13 24 C10.28 30.594 5.594 35.203 -0.75 38.375 C-6.476 39.476 -11.472 39.48 -16.609 36.473 C-22.707 31.88 -22.707 31.88 -24 28 C-21 29 -21 29 -18.625 31.438 C-14.82 35.152 -12.402 35.887 -7.125 36.312 C-2.293 36.158 1.913 34.974 5.512 31.57 C9.772 26.663 10.297 22.755 10.215 16.504 C9.81 11.781 8.025 8.997 4.688 5.75 C-0.654 2.272 -5.203 1.467 -11.465 2.27 C-16.663 3.767 -20.491 7.373 -23.16 12.02 C-24.107 14.098 -24.107 14.098 -25 17 C-25.688 15.312 -25.688 15.312 -26 13 C-20.172 1.857 -12.443 -2.172 0 0 Z " fill="#DFDFDF" transform="translate(73,48)"/>
<path d="M0 0 C5.04 0.521 8.899 1.642 13.438 3.875 C18.236 6.18 22.983 8.229 28 10 C28 11.98 28 13.96 28 16 C26.68 15.67 25.36 15.34 24 15 C24.66 15 25.32 15 26 15 C26 13.68 26 12.36 26 11 C24.845 10.629 23.69 10.258 22.5 9.875 C15.255 7.468 8.137 4.706 1 2 C0.34 5.96 -0.32 9.92 -1 14 C0.65 14 2.3 14 4 14 C2 16 2 16 -0.625 16.125 C-1.409 16.084 -2.193 16.043 -3 16 C-2.579 10.395 -2.084 5.279 0 0 Z " fill="#DDDEDE" transform="translate(12,48)"/>
<path d="M0 0 C3.04 1.3 5.508 2.833 8 5 C7.67 5.99 7.34 6.98 7 8 C6.299 7.381 5.597 6.763 4.875 6.125 C-0.408 2.22 -5.044 1.446 -11.465 2.27 C-16.663 3.767 -20.491 7.373 -23.16 12.02 C-24.107 14.098 -24.107 14.098 -25 17 C-25.688 15.312 -25.688 15.312 -26 13 C-20.208 1.927 -12.408 -2.284 0 0 Z " fill="#DBDBDB" transform="translate(73,48)"/>
<path d="M0 0 C0.99 1.485 0.99 1.485 2 3 C1.67 3.99 1.34 4.98 1 6 C0 5 0 5 -0.062 2.438 C-0.042 1.633 -0.021 0.829 0 0 Z M2 6 C7.128 8.981 9.753 12.034 13 17 C12.67 17.66 12.34 18.32 12 19 C10.515 17.401 9.037 15.796 7.562 14.188 C6.739 13.294 5.915 12.401 5.066 11.48 C3 9 3 9 2 6 Z M13 19 C13.99 19.495 13.99 19.495 15 20 C14.67 20.66 14.34 21.32 14 22 C13.67 21.01 13.34 20.02 13 19 Z M15 22 C15.99 22.66 16.98 23.32 18 24 C17.91 25.797 17.91 25.797 17 28 C14.059 29.703 14.059 29.703 10.438 31.25 C9.24 31.771 8.042 32.292 6.809 32.828 C5.418 33.408 5.418 33.408 4 34 C3.67 33.34 3.34 32.68 3 32 C4.79 31.162 6.582 30.33 8.375 29.5 C9.872 28.804 9.872 28.804 11.398 28.094 C14 27 14 27 16 27 C15.67 25.35 15.34 23.7 15 22 Z " fill="#DDDEDE" transform="translate(98,12)"/>
<path d="M0 0 C10.23 0 20.46 0 31 0 C30.67 1.32 30.34 2.64 30 4 C29.67 3.34 29.34 2.68 29 2 C19.43 2.33 9.86 2.66 0 3 C0 2.01 0 1.02 0 0 Z " fill="#E6E6E6" transform="translate(92,72)"/>
<path d="M0 0 C0 0.66 0 1.32 0 2 C-2.852 2.987 -5.706 3.965 -8.562 4.938 C-9.762 5.354 -9.762 5.354 -10.986 5.779 C-15.677 7.368 -20.072 8.477 -25 9 C-25.66 6.69 -26.32 4.38 -27 2 C-26.34 1.67 -25.68 1.34 -25 1 C-24.67 2.98 -24.34 4.96 -24 7 C-23.38 6.788 -22.759 6.576 -22.12 6.357 C-19.311 5.4 -16.499 4.45 -13.688 3.5 C-12.711 3.166 -11.735 2.832 -10.729 2.488 C-9.791 2.172 -8.853 1.857 -7.887 1.531 C-6.591 1.091 -6.591 1.091 -5.268 0.643 C-3 0 -3 0 0 0 Z " fill="#E3E3E3" transform="translate(38,79)"/>
<path d="M0 0 C2.825 1.195 4.671 2.561 7.062 4.562 C11.222 8.014 13.943 8.119 19.188 8.062 C20.274 8.053 21.361 8.044 22.48 8.035 C23.312 8.024 24.143 8.012 25 8 C24.67 8.66 24.34 9.32 24 10 C18.67 11.551 13.843 11.218 8.789 9.023 C4.882 6.788 2.457 3.686 0 0 Z " fill="#D7D7D7" transform="translate(49,103)"/>
<path d="M0 0 C2.97 0.495 2.97 0.495 6 1 C6 1.66 6 2.32 6 3 C4.68 2.67 3.36 2.34 2 2 C3.006 5.016 3.006 5.016 5 8 C8.569 9.45 8.569 9.45 12 10 C12 10.66 12 11.32 12 12 C8.043 12.46 6.454 12.333 3.188 9.938 C0.647 6.527 0.247 4.198 0 0 Z " fill="#DFE0E0" transform="translate(56,92)"/>
<path d="M0 0 C0.66 0.66 1.32 1.32 2 2 C1.01 2.495 1.01 2.495 0 3 C1.37 6.995 3.257 9.8 6 13 C5.67 13.66 5.34 14.32 5 15 C3.846 13.59 2.702 12.172 1.562 10.75 C0.924 9.961 0.286 9.172 -0.371 8.359 C-1.905 6.138 -2.571 4.633 -3 2 C-2.01 1.34 -1.02 0.68 0 0 Z " fill="#E0E1E1" transform="translate(20,94)"/>
<path d="M0 0 C0.66 0 1.32 0 2 0 C1.67 2.64 1.34 5.28 1 8 C2.65 8 4.3 8 6 8 C5.34 8.66 4.68 9.32 4 10 C2.35 10 0.7 10 -1 10 C-0.67 6.7 -0.34 3.4 0 0 Z " fill="#E3E4E4" transform="translate(10,54)"/>
<path d="M0 0 C3.63 0 7.26 0 11 0 C10.67 0.66 10.34 1.32 10 2 C7.715 2.414 7.715 2.414 4.938 2.625 C4.018 2.7 3.099 2.775 2.152 2.852 C1.442 2.901 0.732 2.95 0 3 C0 2.01 0 1.02 0 0 Z " fill="#E2E3E3" transform="translate(92,72)"/>
<path d="M0 0 C3.941 1.668 6.789 4.227 10 7 C9.67 7.66 9.34 8.32 9 9 C4.777 6.466 2.217 4.434 0 0 Z " fill="#E0E1E1" transform="translate(49,103)"/>
<path d="M0 0 C2.972 1.125 5.334 2.223 8 4 C7.67 4.99 7.34 5.98 7 7 C6.216 6.361 5.433 5.721 4.625 5.062 C2.205 3.019 2.205 3.019 0 2 C0 1.34 0 0.68 0 0 Z " fill="#DBDBDB" transform="translate(73,49)"/>
<path d="M0 0 C0.66 0 1.32 0 2 0 C2.124 0.969 2.248 1.939 2.375 2.938 C2.684 4.453 2.684 4.453 3 6 C3.66 6.33 4.32 6.66 5 7 C3.68 7 2.36 7 1 7 C0.67 4.69 0.34 2.38 0 0 Z " fill="#E0E0E0" transform="translate(11,80)"/>
<path d="M0 0 C2.97 0.495 2.97 0.495 6 1 C6 1.66 6 2.32 6 3 C4.68 2.67 3.36 2.34 2 2 C2 2.66 2 3.32 2 4 C1.34 4 0.68 4 0 4 C0 2.68 0 1.36 0 0 Z " fill="#D9DADA" transform="translate(56,92)"/>
<path d="M0 0 C1.65 0.33 3.3 0.66 5 1 C5 1.66 5 2.32 5 3 C3.02 3.33 1.04 3.66 -1 4 C-0.67 2.68 -0.34 1.36 0 0 Z " fill="#E1E2E2" transform="translate(57,38)"/>
<path d="M0 0 C0.66 0.66 1.32 1.32 2 2 C0.68 2.99 -0.64 3.98 -2 5 C-2 3.68 -2 2.36 -2 1 C-1.34 0.67 -0.68 0.34 0 0 Z " fill="#E2E2E2" transform="translate(20,94)"/>
<path d="M0 0 C0.66 0.66 1.32 1.32 2 2 C1.01 2.33 0.02 2.66 -1 3 C-0.67 2.01 -0.34 1.02 0 0 Z " fill="#DCDDDD" transform="translate(10,61)"/>
</svg>