<svg version="1.1" xmlns="http://www.w3.org/2000/svg" viewBox="0 0 251 201" preserveAspectRatio="xMidYMid meet" xmlns:xlink="http://www.w3.org/1999/xlink" xmlns:svgjs="http://svgjs.dev/svgjs">
<path d="M0 0 C5.203 4.571 8.663 9.086 10.898 15.668 C10.898 16.988 10.898 18.308 10.898 19.668 C12.132 19.616 12.132 19.616 13.391 19.562 C24.956 19.282 33.135 20.927 41.898 28.668 C42.517 29.194 43.136 29.72 43.773 30.262 C52.189 37.952 56.186 48.955 57.219 60.137 C57.675 74.609 54.891 87.96 44.934 98.809 C37.874 105.702 29.655 109.838 19.711 110.23 C12.573 109.894 7.327 107.787 1.961 103.105 C-2.663 97.641 -3.421 93.049 -3.316 86.074 C-2.81 80.4 -1.241 76.002 2.461 71.668 C6.084 68.695 7.899 68.552 12.523 68.605 C13.526 68.614 14.529 68.624 15.562 68.633 C16.333 68.644 17.104 68.656 17.898 68.668 C17.898 68.008 17.898 67.348 17.898 66.668 C12.256 65.101 6.453 64.524 1.086 67.23 C-3.089 69.952 -5.173 73.771 -6.688 78.496 C-8.208 86.469 -7.781 94.436 -4.102 101.668 C-0.69 106.596 2.674 109.005 7.898 111.668 C7.305 119.083 4.591 123.231 -0.664 128.293 C-8.739 135.027 -18.767 136.982 -29.102 136.668 C-39.023 135.22 -45.383 130.793 -52.102 123.668 C-52.612 124.176 -53.123 124.684 -53.648 125.207 C-62.495 133.583 -72.341 139.133 -84.715 138.867 C-93.945 138.097 -100.002 133.458 -106.102 126.668 C-111.125 119.013 -111.826 111.617 -111.102 102.668 C-110.152 98.761 -108.27 96.502 -104.961 94.141 C-99.181 90.86 -93.699 89.321 -87.102 90.668 C-81.965 92.838 -78.179 95.991 -75.102 100.668 C-74.772 101.658 -74.442 102.648 -74.102 103.668 C-74.416 101.332 -74.752 98.999 -75.102 96.668 C-75.205 95.905 -75.308 95.142 -75.414 94.355 C-76.394 91.95 -77.765 91.713 -80.102 90.668 C-88.987 87.087 -95.557 86.906 -104.574 90.395 C-109.368 92.81 -112.102 96.732 -114.102 101.668 C-114.39 104.076 -114.592 106.496 -114.727 108.918 C-114.801 110.181 -114.876 111.445 -114.953 112.746 C-115.002 113.71 -115.051 114.675 -115.102 115.668 C-122.358 118.087 -131.893 117.671 -139.02 114.828 C-152.087 107.547 -160.338 92.377 -165.102 78.668 C-165.102 77.348 -165.102 76.028 -165.102 74.668 C-164.195 74.908 -163.289 75.147 -162.355 75.395 C-152.077 78.072 -152.077 78.072 -142.102 75.668 C-136.854 72.262 -131.955 68.585 -127.602 64.082 C-122.337 58.999 -115.267 55.281 -107.852 55.293 C-105.995 55.479 -105.995 55.479 -104.102 55.668 C-104.163 54.595 -104.225 53.523 -104.289 52.418 C-104.267 40.205 -99.493 29.484 -91.316 20.652 C-84.096 14.183 -75.382 13.508 -66.102 13.668 C-65.102 16.668 -65.102 16.668 -66.102 19.668 C-66.878 27.313 -66.079 34.001 -62.102 40.668 C-56.603 47.12 -49.184 50.14 -40.852 50.863 C-34.704 51.144 -30.157 50.287 -25.102 46.668 C-20.699 42.04 -19.814 38.281 -19.875 32.094 C-20.238 28.204 -21.458 25.208 -23.102 21.668 C-23.762 21.338 -24.422 21.008 -25.102 20.668 C-24.946 21.297 -24.79 21.926 -24.629 22.574 C-23.05 29.518 -22.362 35.037 -25.539 41.668 C-26.055 42.328 -26.57 42.988 -27.102 43.668 C-27.762 43.668 -28.422 43.668 -29.102 43.668 C-29.102 44.328 -29.102 44.988 -29.102 45.668 C-36.066 47.989 -43.933 47.664 -50.602 44.605 C-56.026 41.51 -59.109 37.647 -61.102 31.668 C-61.712 21.771 -61.635 14.022 -56.039 5.543 C-50.337 -0.742 -42.144 -4.177 -34.102 -6.332 C-33.256 -6.559 -32.41 -6.786 -31.539 -7.02 C-20.685 -8.411 -8.877 -6.683 0 0 Z " fill="#b60607" transform="translate(182.1015625,39.33203125)" id="SvgjsPath1000"></path>
<path d="M0 0 C5.656 4.312 10.972 10.47 13.465 17.207 C14.549 19.241 14.549 19.241 17.348 19.625 C18.45 19.728 19.552 19.831 20.688 19.938 C32.508 21.425 41.878 26.876 49.625 35.938 C56.287 44.811 60.798 54.768 61.625 65.938 C61.677 66.625 61.728 67.312 61.781 68.02 C62.374 82.915 58.516 98.185 48.828 109.613 C40.017 118.909 29.318 124.365 16.438 125.055 C14.833 125.061 13.228 125.007 11.625 124.938 C11.377 125.804 11.13 126.67 10.875 127.562 C7.784 135.908 1.591 142.003 -6.188 146.188 C-17.608 151.322 -30.369 153.342 -42.438 149.188 C-46.448 147.51 -49.893 145.527 -53.375 142.938 C-54.035 142.607 -54.695 142.278 -55.375 141.938 C-57.491 143.124 -59.48 144.354 -61.5 145.688 C-72.112 152.405 -81.868 155.608 -94.562 152.875 C-105.238 149.781 -112.308 143.038 -118.375 133.938 C-118.375 132.947 -118.375 131.958 -118.375 130.938 C-119.34 131.081 -119.34 131.081 -120.324 131.227 C-132.644 132.738 -143.234 130.995 -153.375 123.812 C-166.731 111.789 -173.798 94.918 -178.375 77.938 C-178.693 76.801 -179.012 75.664 -179.34 74.492 C-180.037 71.978 -180.717 69.462 -181.375 66.938 C-177.377 66.938 -174.881 68.804 -171.562 70.812 C-165.037 74.754 -159.255 77.767 -151.375 76.938 C-146.61 74.87 -143.363 72.083 -139.562 68.562 C-133.443 62.9 -125.26 56.199 -116.562 55.812 C-115.841 55.854 -115.119 55.895 -114.375 55.938 C-114.361 55.355 -114.347 54.772 -114.332 54.172 C-113.626 42.032 -108.046 29.869 -99 21.625 C-91.522 15.656 -84.578 13.766 -75.125 13.875 C-74.007 13.882 -74.007 13.882 -72.867 13.889 C-71.036 13.9 -69.206 13.918 -67.375 13.938 C-67.102 13.356 -66.828 12.775 -66.547 12.176 C-61.525 2.584 -52.5 -2.443 -42.438 -5.687 C-28.443 -9.525 -12.299 -7.787 0 0 Z M-56.75 5.25 C-62.641 10.816 -62.641 10.816 -65.375 17.938 C-66.125 17.842 -66.875 17.747 -67.648 17.648 C-79.338 16.382 -87.816 17.801 -97.375 24.938 C-107.3 33.4 -110.296 46.533 -111.375 58.938 C-112.213 58.865 -113.051 58.793 -113.914 58.719 C-118.108 58.984 -121.127 60.478 -124.75 62.438 C-125.391 62.771 -126.031 63.105 -126.691 63.449 C-128.258 64.268 -129.818 65.101 -131.375 65.938 C-131.375 66.597 -131.375 67.257 -131.375 67.938 C-131.946 68.186 -132.517 68.435 -133.105 68.691 C-135.707 70.12 -137.542 71.829 -139.688 73.875 C-144.897 78.542 -148.808 81.277 -156.062 81 C-161.604 80.276 -166.075 77.819 -170.906 75.117 C-171.721 74.728 -172.536 74.339 -173.375 73.938 C-174.365 74.433 -174.365 74.433 -175.375 74.938 C-170.657 93.882 -162.982 112.669 -146.188 124.062 C-137.768 128.619 -127.277 129.396 -117.953 127.426 C-117.432 127.265 -116.912 127.104 -116.375 126.938 C-116.004 128.237 -116.004 128.237 -115.625 129.562 C-112.253 138.666 -105.794 144.061 -97.27 148.176 C-88.755 151.599 -79.476 150.668 -71.121 147.285 C-66.275 144.907 -61.821 141.987 -57.375 138.938 C-56.385 138.278 -55.395 137.618 -54.375 136.938 C-53.777 137.597 -53.179 138.257 -52.562 138.938 C-50.5 141.275 -50.5 141.275 -47.375 140.938 C-47.375 141.597 -47.375 142.257 -47.375 142.938 C-35.068 148.702 -25.448 149.018 -12.375 144.938 C-3.851 141.416 2.881 136.655 6.938 128.203 C7.915 125.801 8.813 123.4 9.625 120.938 C10.268 120.984 10.911 121.03 11.574 121.078 C22.784 121.526 34.129 118.621 42.625 110.938 C42.625 110.278 42.625 109.618 42.625 108.938 C43.507 108.582 43.507 108.582 44.406 108.219 C50.204 104.871 53.179 97.878 54.965 91.664 C58.875 76.221 59.373 60.811 52 46.25 C45.338 35.088 37.676 28.557 25.625 23.938 C21.952 23.138 18.503 22.818 14.75 22.875 C13.969 22.884 13.188 22.893 12.383 22.902 C11.803 22.914 11.223 22.926 10.625 22.938 C10.563 22.278 10.501 21.617 10.438 20.938 C8.045 12.104 1.477 5.63 -6.223 1.07 C-21.684 -7.067 -42.778 -5.548 -56.75 5.25 Z " fill="#fdfcfc" transform="translate(185.375,32.0625)" id="SvgjsPath1001" class=""></path>
<path d="M0 0 C0.33 0 0.66 0 1 0 C1.61 14 1.041 27.463 -8 39 C-8.553 39.737 -9.106 40.475 -9.676 41.234 C-17.833 51.3 -28.312 56.178 -41 58 C-43.405 58.174 -45.591 58.168 -48 58 C-48.371 59.299 -48.371 59.299 -48.75 60.625 C-51.841 68.97 -58.034 75.065 -65.812 79.25 C-77.233 84.385 -89.994 86.404 -102.062 82.25 C-106.073 80.573 -109.518 78.59 -113 76 C-113.66 75.67 -114.32 75.34 -115 75 C-117.116 76.187 -119.105 77.417 -121.125 78.75 C-131.737 85.468 -141.493 88.671 -154.188 85.938 C-164.863 82.844 -171.933 76.1 -178 67 C-178 66.01 -178 65.02 -178 64 C-178.643 64.095 -179.286 64.191 -179.949 64.289 C-190.06 65.53 -201.436 65.207 -210 59 C-212.5 56.25 -212.5 56.25 -214 54 C-213.01 53.505 -213.01 53.505 -212 53 C-209.862 53.881 -207.763 54.855 -205.688 55.875 C-198.319 59.488 -192.754 60.145 -184.688 60.062 C-183.852 60.058 -183.016 60.053 -182.154 60.049 C-180.103 60.037 -178.051 60.019 -176 60 C-175.648 60.724 -175.296 61.449 -174.934 62.195 C-170.134 71.594 -164.836 77.045 -155 81 C-145.804 83.85 -136.461 82.152 -128 78 C-124.226 75.813 -120.596 73.466 -117 71 C-116.01 70.34 -115.02 69.68 -114 69 C-113.402 69.639 -112.804 70.279 -112.188 70.938 C-110.092 73.203 -110.092 73.203 -107 74 C-107 74.66 -107 75.32 -107 76 C-93.576 80.65 -82.381 81.359 -68.93 75.711 C-58.446 70.369 -54.376 63.707 -50 53 C-49.357 53.046 -48.714 53.093 -48.051 53.141 C-37.064 53.579 -27.594 50.875 -19 44 C-18.34 44 -17.68 44 -17 44 C-17 43.34 -17 42.68 -17 42 C-16.278 41.299 -15.556 40.597 -14.812 39.875 C-8.355 33.576 -6.029 26.636 -4.312 17.938 C-3.914 16.03 -3.515 14.122 -3.113 12.215 C-2.836 10.877 -2.836 10.877 -2.553 9.511 C-1.843 6.29 -0.959 3.156 0 0 Z M-215 52 C-213 53 -213 53 -213 53 Z " fill="#e4dcdc" transform="translate(245,99)" id="SvgjsPath1002" class=""></path>
<path d="M0 0 C3.084 2.627 4.407 4.97 5.938 8.625 C7.104 11.08 7.104 11.08 9 13 C12.26 13.999 15.314 14.318 18.707 14.621 C28.823 15.785 37.54 22.444 44 30 C53.204 42.259 56.274 54.885 56 70 C55.67 70 55.34 70 55 70 C54.505 66.04 54.505 66.04 54 62 C53.67 63.98 53.34 65.96 53 68 C52.67 68 52.34 68 52 68 C51.797 66.186 51.797 66.186 51.59 64.336 C49.758 49.771 45.899 35.736 34 26 C26.645 21.171 20.709 18.826 12 18.312 C8.242 17.988 8.242 17.988 5 17 C1.954 13.322 0.449 9.514 -1 5 C-1.33 4.34 -1.66 3.68 -2 3 C-1.34 3 -0.68 3 0 3 C0 2.01 0 1.02 0 0 Z " fill="#e4dcdc" transform="translate(191,38)" id="SvgjsPath1003" class=""></path>
<path d="M0 0 C1.002 0.543 2.003 1.085 3.035 1.645 C4.378 2.367 5.72 3.09 7.062 3.812 C7.719 4.169 8.376 4.525 9.053 4.893 C17.517 9.714 17.517 9.714 26.938 11.188 C28.096 11.147 28.096 11.147 29.277 11.105 C29.846 11.071 30.414 11.036 31 11 C30.34 12.65 29.68 14.3 29 16 C20.307 15.961 13.65 12.921 6 9 C10.353 26.478 16.909 41.346 30 54 C28.68 54.66 27.36 55.32 26 56 C24.27 54.375 22.627 52.726 21 51 C20.481 50.45 19.961 49.899 19.426 49.332 C7.826 35.786 3.031 17.975 -1 1 C-0.67 0.67 -0.34 0.34 0 0 Z " fill="#ffffff" transform="translate(5,98)" id="SvgjsPath1004" class=""></path>
<path d="M0 0 C2 1 2 1 2 1 Z M2 1 C2.953 1.422 3.905 1.843 4.887 2.277 C6.154 2.831 7.42 3.384 8.688 3.938 C9.313 4.215 9.939 4.493 10.584 4.779 C17.397 7.74 23.003 8.138 30.312 8.062 C31.566 8.056 31.566 8.056 32.846 8.049 C34.897 8.037 36.949 8.019 39 8 C39.352 8.724 39.704 9.449 40.066 10.195 C45.084 20.022 51.116 26.111 61.754 29.57 C65.063 30.203 68.393 30.369 71.75 30.562 C72.447 30.606 73.145 30.649 73.863 30.693 C75.575 30.799 77.288 30.9 79 31 C79 31.99 79 32.98 79 34 C67.56 35.683 57.589 34.695 48.039 27.75 C43.692 24.019 40.169 19.754 37 15 C37 14.01 37 13.02 37 12 C36.357 12.095 35.714 12.191 35.051 12.289 C24.94 13.53 13.564 13.207 5 7 C2.5 4.25 2.5 4.25 1 2 C1.33 1.67 1.66 1.34 2 1 Z " fill="#e4dcdc" transform="translate(30,151)" id="SvgjsPath1005" class=""></path>
<path d="M0 0 C0.33 0 0.66 0 1 0 C1.61 14 1.041 27.463 -8 39 C-8.553 39.737 -9.106 40.475 -9.676 41.234 C-15.943 48.967 -25 55.448 -35 57 C-39.672 57.139 -44.328 57.117 -49 57 C-48.67 56.34 -48.34 55.68 -48 55 C-46.103 54.763 -44.206 54.532 -42.305 54.332 C-34.616 53.224 -27.802 49.559 -21 46 C-19.668 45.331 -18.335 44.663 -17 44 C-17 43.34 -17 42.68 -17 42 C-16.278 41.299 -15.556 40.597 -14.812 39.875 C-8.355 33.576 -6.029 26.636 -4.312 17.938 C-3.914 16.03 -3.515 14.122 -3.113 12.215 C-2.928 11.323 -2.744 10.43 -2.553 9.511 C-1.843 6.29 -0.959 3.156 0 0 Z " fill="#e4dcdc" transform="translate(245,99)" id="SvgjsPath1006" class=""></path>
<path d="M0 0 C3.3 0.33 6.6 0.66 10 1 C10 1.33 10 1.66 10 2 C7.36 2.33 4.72 2.66 2 3 C4.31 3.33 6.62 3.66 9 4 C9 4.33 9 4.66 9 5 C6.69 5 4.38 5 2 5 C1.752 5.866 1.505 6.732 1.25 7.625 C-1.887 16.095 -8.163 22.209 -16.125 26.312 C-25.718 30.668 -25.718 30.668 -31 29 C-32.34 28.347 -33.675 27.682 -35 27 C-34.189 26.853 -33.378 26.706 -32.543 26.555 C-22.535 24.527 -12.767 21.449 -6.281 13.078 C-3.728 8.938 -1.837 4.495 0 0 Z " fill="#e4dcdc" transform="translate(195,152)" id="SvgjsPath1007" class=""></path>
<path d="M0 0 C2.562 2.688 2.562 2.688 4 5 C3.429 4.704 2.858 4.407 2.27 4.102 C-5.926 0.124 -12.79 -1.198 -21.625 1.625 C-27.49 3.894 -29.786 6.451 -33.082 11.734 C-34.364 14.898 -34.436 17.852 -34.625 21.25 C-34.7 22.513 -34.775 23.777 -34.852 25.078 C-34.901 26.042 -34.95 27.007 -35 28 C-42.743 30.581 -51.852 29.624 -59.426 26.852 C-61 26 -61 26 -62 24 C-56 25 -56 25 -53.219 25.531 C-47.816 26.318 -42.453 26.056 -37 26 C-37 21.05 -37 16.1 -37 11 C-36.34 11 -35.68 11 -35 11 C-34.733 10.413 -34.466 9.827 -34.191 9.223 C-31.38 3.978 -27.164 0.098 -21.562 -1.938 C-14.023 -3.991 -7.06 -3.551 0 0 Z " fill="#b60607" transform="translate(102,127)" id="SvgjsPath1008"></path>
<path d="M0 0 C0.33 0 0.66 0 1 0 C1 2.64 1 5.28 1 8 C0.34 7.67 -0.32 7.34 -1 7 C-1.043 5 -1.041 3 -1 1 C-0.67 0.67 -0.34 0.34 0 0 Z M-1 6 C-4.039 9.377 -7.051 11.268 -11.125 13.25 C-12.179 13.771 -13.234 14.292 -14.32 14.828 C-17 16 -17 16 -19 16 C-19 16.66 -19 17.32 -19 18 C-23.81 23.085 -29.839 27.682 -36 31 C-36.99 31 -37.98 31 -39 31 C-37.473 27.112 -35.126 25.236 -31.875 22.688 C-28.452 19.98 -25.166 17.252 -22 14.25 C-15.964 8.922 -9.106 5.608 -1 6 Z " fill="#fdfcfc" transform="translate(73,82)" id="SvgjsPath1009" class=""></path>
<path d="M0 0 C10.876 0.183 20.907 2.674 28.998 10.317 C29.562 10.811 30.125 11.304 30.705 11.813 C31.998 13.317 31.998 13.317 31.998 16.317 C29.142 15.338 27.082 14.387 24.748 12.442 C15.931 5.629 5.585 4.84 -5.189 3.817 C-9.002 3.317 -9.002 3.317 -11.002 1.317 C-8.747 -0.938 -3.126 0.006 0 0 Z " fill="#e4dcdc" transform="translate(159.001708984375,24.68310546875)" id="SvgjsPath1010" class=""></path>
<path d="M0 0 C0.949 0.186 1.898 0.371 2.875 0.562 C3.576 0.707 4.278 0.851 5 1 C5 1.33 5 1.66 5 2 C4.018 2.13 4.018 2.13 3.016 2.262 C-7.32 3.853 -17.845 6.872 -24.801 15.141 C-25.549 16.185 -25.549 16.185 -26.312 17.25 C-26.824 17.956 -27.336 18.663 -27.863 19.391 C-28.238 19.922 -28.614 20.453 -29 21 C-29.99 20.01 -30.98 19.02 -32 18 C-25.153 7.781 -13.202 -3.117 0 0 Z M-36 19 C-34.68 19.33 -33.36 19.66 -32 20 C-32.99 20.495 -32.99 20.495 -34 21 C-34.66 20.34 -35.32 19.68 -36 19 Z M-30 21 C-30 21.66 -30 22.32 -30 23 C-32.31 23 -34.62 23 -37 23 C-34.353 21.539 -33.106 21 -30 21 Z " fill="#e4dcdc" transform="translate(150,27)" id="SvgjsPath1011" class=""></path>
<path d="M0 0 C2 1 2 1 2 1 Z M2 1 C2.953 1.422 3.905 1.843 4.887 2.277 C6.154 2.831 7.42 3.384 8.688 3.938 C9.313 4.215 9.939 4.493 10.584 4.779 C17.397 7.74 23.003 8.138 30.312 8.062 C31.566 8.056 31.566 8.056 32.846 8.049 C34.897 8.037 36.949 8.019 39 8 C39.495 10.97 39.495 10.97 40 14 C39.01 14.33 38.02 14.66 37 15 C37 14.01 37 13.02 37 12 C36.357 12.095 35.714 12.191 35.051 12.289 C24.94 13.53 13.564 13.207 5 7 C2.5 4.25 2.5 4.25 1 2 C1.33 1.67 1.66 1.34 2 1 Z " fill="#e4dcdc" transform="translate(30,151)" id="SvgjsPath1012" class=""></path>
<path d="M0 0 C1.002 0.543 2.003 1.085 3.035 1.645 C4.378 2.367 5.72 3.09 7.062 3.812 C7.719 4.169 8.376 4.525 9.053 4.893 C17.517 9.714 17.517 9.714 26.938 11.188 C28.096 11.147 28.096 11.147 29.277 11.105 C29.846 11.071 30.414 11.036 31 11 C30.34 12.65 29.68 14.3 29 16 C22.34 16.11 16.915 14.419 10.938 11.688 C10.27 11.392 9.603 11.096 8.916 10.791 C4.229 8.547 4.229 8.547 3.066 5.77 C3.044 5.186 3.023 4.602 3 4 C2.01 4.33 1.02 4.66 0 5 C-0.562 3.062 -0.562 3.062 -1 1 C-0.67 0.67 -0.34 0.34 0 0 Z M1 6 C1.99 6.495 1.99 6.495 3 7 C2.34 7.66 1.68 8.32 1 9 C1 8.01 1 7.02 1 6 Z " fill="#fdfcfc" transform="translate(5,98)" id="SvgjsPath1013" class=""></path>
<path d="M0 0 C1 3 1 3 0 6 C-0.618 13.248 0.217 19.292 3 26 C0 25 0 25 -2 22 C-3.006 18.25 -3.135 14.684 -3.125 10.812 C-3.129 9.244 -3.129 9.244 -3.133 7.645 C-3 5 -3 5 -2 3 C-9.967 2.71 -16.912 2.874 -23.25 8.188 C-26.709 11.481 -29.393 15.008 -32 19 C-32 13.323 -27.088 9.165 -23.375 5.188 C-17.022 0.239 -7.764 -0.448 0 0 Z " fill="#b60607" transform="translate(116,53)" id="SvgjsPath1014"></path>
<path d="M0 0 C1.65 0 3.3 0 5 0 C8.418 6.317 10.148 11.797 9 19 C7.28 24.345 4.775 27.93 0 31 C-1.299 31.897 -1.299 31.897 -2.625 32.812 C-7.534 34.54 -11.924 33.75 -17 33 C-17 32.67 -17 32.34 -17 32 C-16.131 31.902 -15.262 31.804 -14.367 31.703 C-6.575 30.692 -1.492 29.974 3.812 23.938 C6.533 19.498 6.471 15.04 6 10 C5.253 7.103 4.272 4.739 3 2 C2.34 1.67 1.68 1.34 1 1 C0.67 2.32 0.34 3.64 0 5 C0 3.35 0 1.7 0 0 Z " fill="#b60607" transform="translate(156,59)" id="SvgjsPath1015"></path>
<path d="M0 0 C0.99 0.495 0.99 0.495 2 1 C1.01 1.495 1.01 1.495 0 2 C0 1.34 0 0.68 0 0 Z M-4 1 C-2.145 2.523 -2.145 2.523 -1 4 C-2.051 4.11 -3.101 4.219 -4.184 4.332 C-11.818 5.177 -18.799 6.171 -26 9 C-26.33 8.34 -26.66 7.68 -27 7 C-21.111 0.609 -12.258 -0.248 -4 1 Z M-29 8 C-27 9 -27 9 -27 9 Z " fill="#e4dcdc" transform="translate(118,45)" id="SvgjsPath1016" class=""></path>
<path d="M0 0 C0.248 0.516 0.495 1.031 0.75 1.562 C1.162 2.367 1.575 3.171 2 4 C2.577 5.134 3.155 6.269 3.75 7.438 C6.597 12.389 10.711 15.762 16 18 C15.566 23.429 14.372 26.708 11 31 C10.34 31.33 9.68 31.66 9 32 C9.33 30.35 9.66 28.7 10 27 C10.66 27 11.32 27 12 27 C12.99 23.535 12.99 23.535 14 20 C13.004 19.49 13.004 19.49 11.988 18.969 C6.045 15.707 1.335 12.612 -1 6 C-0.812 2.5 -0.812 2.5 0 0 Z M7 32 C7.66 32.33 8.32 32.66 9 33 C7.736 34.009 6.464 35.007 5.188 36 C4.126 36.835 4.126 36.835 3.043 37.688 C1 39 1 39 -2 39 C-2 38.34 -2 37.68 -2 37 C-1.434 36.723 -0.868 36.446 -0.285 36.16 C0.448 35.798 1.182 35.436 1.938 35.062 C2.668 34.703 3.399 34.343 4.152 33.973 C5.962 33.136 5.962 33.136 7 32 Z " fill="#b60607" transform="translate(174,133)" id="SvgjsPath1017"></path>
<path d="M0 0 C2.475 0.495 2.475 0.495 5 1 C8.509 10.94 10.191 19.468 10 30 C9.67 30 9.34 30 9 30 C8.67 27.36 8.34 24.72 8 22 C7.67 23.98 7.34 25.96 7 28 C6.67 28 6.34 28 6 28 C5.818 26.733 5.636 25.466 5.449 24.16 C5.196 22.461 4.942 20.762 4.688 19.062 C4.57 18.232 4.452 17.401 4.33 16.545 C3.456 10.783 2.02 5.466 0 0 Z " fill="#e4dcdc" transform="translate(237,78)" id="SvgjsPath1018" class=""></path>
<path d="M0 0 C3.863 0.117 5.814 1.476 8.5 4.062 C11.832 7.606 15.111 11.475 17 16 C16.67 16.99 16.34 17.98 16 19 C12.405 17.802 12.134 16.972 10.25 13.812 C7.724 9.821 5.104 7.09 1.32 4.289 C0.885 3.864 0.449 3.438 0 3 C0 2.01 0 1.02 0 0 Z " fill="#e4dcdc" transform="translate(223,60)" id="SvgjsPath1019" class=""></path>
<path d="M0 0 C0.557 0.773 0.557 0.773 1.125 1.562 C1.744 2.367 2.362 3.171 3 4 C3.425 4.556 3.851 5.111 4.289 5.684 C7.775 10.017 11.025 12.512 16 15 C15.67 16.32 15.34 17.64 15 19 C10.824 17.598 8.077 15.626 4.812 12.688 C3.953 11.928 3.093 11.169 2.207 10.387 C-0.06 7.936 -1.223 6.241 -2 3 C-1.34 2.01 -0.68 1.02 0 0 Z " fill="#e4dcdc" transform="translate(70,163)" id="SvgjsPath1020" class=""></path>
<path d="M0 0 C5.015 3.002 8.817 6.39 10.707 12.059 C11.367 11.069 12.027 10.079 12.707 9.059 C12.707 10.379 12.707 11.699 12.707 13.059 C13.367 13.389 14.027 13.719 14.707 14.059 C12.332 14.684 12.332 14.684 9.707 15.059 C7.348 12.699 7.216 11.28 6.707 8.059 C6.047 8.059 5.387 8.059 4.707 8.059 C3.019 6.413 1.353 4.746 -0.293 3.059 C-3.358 1.526 -6.561 1.956 -9.918 1.996 C-10.978 2.003 -10.978 2.003 -12.059 2.01 C-13.803 2.022 -15.548 2.039 -17.293 2.059 C-12.973 -2.261 -5.46 -2.242 0 0 Z " fill="#b60607" transform="translate(97.29296875,130.94140625)" id="SvgjsPath1021"></path>
<path d="M0 0 C2 3 2 3 1.539 5.672 C1.237 6.688 0.936 7.703 0.625 8.75 C-0.778 13.805 -0.778 13.805 -1.062 19 C-1 22 -1 22 -3 26 C-7.95 26 -12.9 26 -18 26 C-15.655 23.655 -14.04 23.045 -10.738 22.902 C-9.938 22.914 -9.137 22.926 -8.312 22.938 C-7.1 22.951 -7.1 22.951 -5.863 22.965 C-5.248 22.976 -4.634 22.988 -4 23 C-4.062 21.927 -4.124 20.855 -4.188 19.75 C-4.212 12.973 -2.128 6.383 0 0 Z " fill="#b60607" transform="translate(82,72)" id="SvgjsPath1022"></path>
<path d="M0 0 C0.66 0.66 1.32 1.32 2 2 C2.99 1.67 3.98 1.34 5 1 C1.905 8.388 -6.011 12.354 -13.055 15.371 C-15 16 -15 16 -18 16 C-18 15.34 -18 14.68 -18 14 C-17.374 13.734 -16.747 13.469 -16.102 13.195 C-15.284 12.842 -14.467 12.489 -13.625 12.125 C-12.813 11.777 -12.001 11.429 -11.164 11.07 C-8.862 10.076 -8.862 10.076 -7 8 C-6.01 7.67 -5.02 7.34 -4 7 C-3.283 5.354 -2.617 3.686 -2 2 C-1.34 1.34 -0.68 0.68 0 0 Z " fill="#b60607" transform="translate(124,161)" id="SvgjsPath1023"></path>
<path d="M0 0 C-1 3 -1 3 -2.574 3.949 C-9.69 6.435 -16.527 6.287 -24 6 C-23.67 5.34 -23.34 4.68 -23 4 C-21.109 3.764 -19.217 3.535 -17.32 3.352 C-14.852 2.978 -12.719 2.288 -10.375 1.438 C-6.791 0.158 -3.842 -0.296 0 0 Z " fill="#e4dcdc" transform="translate(220,150)" id="SvgjsPath1024" class=""></path>
<path d="M0 0 C0.949 0.186 1.898 0.371 2.875 0.562 C3.576 0.707 4.278 0.851 5 1 C5 1.33 5 1.66 5 2 C4.322 2.11 3.644 2.219 2.945 2.332 C-3.546 3.438 -9.74 4.963 -16 7 C-16.66 6.01 -17.32 5.02 -18 4 C-16.134 3.127 -14.256 2.277 -12.375 1.438 C-11.331 0.962 -10.287 0.486 -9.211 -0.004 C-5.612 -1.12 -3.617 -0.894 0 0 Z " fill="#e4dcdc" transform="translate(150,27)" id="SvgjsPath1025" class=""></path>
<path d="M0 0 C0.99 0.33 1.98 0.66 3 1 C2.01 1 1.02 1 0 1 C0 0.67 0 0.34 0 0 Z M4 0 C13.615 9.231 13.615 9.231 16 14 C14.35 14.33 12.7 14.66 11 15 C8.03 11.37 5.06 7.74 2 4 C2.66 2.68 3.32 1.36 4 0 Z " fill="#e4dcdc" transform="translate(19,139)" id="SvgjsPath1026" class=""></path>
<path d="M0 0 C0.33 0 0.66 0 1 0 C1.11 0.748 1.219 1.495 1.332 2.266 C1.491 3.25 1.649 4.235 1.812 5.25 C1.963 6.225 2.114 7.199 2.27 8.203 C3.037 11.14 4.118 12.669 6 15 C6 15.66 6 16.32 6 17 C6.66 17 7.32 17 8 17 C8.33 17.99 8.66 18.98 9 20 C12.503 21.716 12.503 21.716 16 23 C16 23.66 16 24.32 16 25 C9.931 23.572 6.015 21.807 2.25 16.562 C-0.382 11.166 -0.115 5.881 0 0 Z M7 14 C7.99 14.33 8.98 14.66 10 15 C9.34 15.66 8.68 16.32 8 17 C7.67 16.01 7.34 15.02 7 14 Z " fill="#b60607" transform="translate(179,123)" id="SvgjsPath1027"></path>
<path d="M0 0 C0.33 1.98 0.66 3.96 1 6 C0.01 6.33 -0.98 6.66 -2 7 C-2 6.01 -2 5.02 -2 4 C-3.121 4.126 -3.121 4.126 -4.266 4.254 C-5.25 4.356 -6.235 4.458 -7.25 4.562 C-8.225 4.667 -9.199 4.771 -10.203 4.879 C-12.763 4.99 -14.581 4.777 -17 4 C-17 3.34 -17 2.68 -17 2 C-14.917 1.663 -12.834 1.33 -10.75 1 C-9.59 0.814 -8.43 0.629 -7.234 0.438 C-4 0 -4 0 0 0 Z " fill="#e4dcdc" transform="translate(69,159)" id="SvgjsPath1028" class=""></path>
<path d="M0 0 C0.33 0 0.66 0 1 0 C1 5.61 1 11.22 1 17 C0.34 17 -0.32 17 -1 17 C-1.33 18.32 -1.66 19.64 -2 21 C-3 20 -3 20 -3.188 16.062 C-3.062 3.062 -3.062 3.062 0 0 Z " fill="#e4dcdc" transform="translate(245,99)" id="SvgjsPath1029" class=""></path>
<path d="M0 0 C4.557 3.713 6.574 8.79 9 14 C7.35 14 5.7 14 4 14 C3.187 12.542 2.375 11.084 1.562 9.625 C0.884 8.407 0.884 8.407 0.191 7.164 C-0.565 5.79 -1.299 4.403 -2 3 C-1.34 3 -0.68 3 0 3 C0 2.01 0 1.02 0 0 Z " fill="#e4dcdc" transform="translate(191,38)" id="SvgjsPath1030" class=""></path>
<path d="M0 0 C6 1 6 1 8.75 1.531 C12.336 2.048 15.753 2.097 19.375 2.062 C20.62 2.053 21.865 2.044 23.148 2.035 C24.089 2.024 25.03 2.012 26 2 C26 2.66 26 3.32 26 4 C20.136 6.932 10.761 5.565 4.688 3.625 C1.169 2.337 1.169 2.337 0 0 Z " fill="#b60607" transform="translate(40,151)" id="SvgjsPath1031"></path>
<path d="M0 0 C0.66 0.66 1.32 1.32 2 2 C1.01 2.33 0.02 2.66 -1 3 C-0.67 2.01 -0.34 1.02 0 0 Z M1 3 C3.248 5.052 4.002 6.007 5 9 C5.067 10.561 5.085 12.125 5.062 13.688 C5.053 14.496 5.044 15.304 5.035 16.137 C5.024 16.752 5.012 17.366 5 18 C4.01 17.67 3.02 17.34 2 17 C0.615 12.628 -0.42 8.617 0 4 C0.33 3.67 0.66 3.34 1 3 Z " fill="#e4dcdc" transform="translate(7,101)" class="" id="SvgjsPath1032"></path>
<path d="M0 0 C0.33 0 0.66 0 1 0 C1 2.64 1 5.28 1 8 C0.34 7.67 -0.32 7.34 -1 7 C-1.043 5 -1.041 3 -1 1 C-0.67 0.67 -0.34 0.34 0 0 Z M-1 6 C-3.755 9.061 -5.996 10.899 -10 12 C-12.312 11.625 -12.312 11.625 -14 11 C-14 10.34 -14 9.68 -14 9 C-9.378 6.781 -6.232 5.617 -1 6 Z " fill="#e4dcdc" transform="translate(73,82)" id="SvgjsPath1033" class=""></path>
<path d="M0 0 C-1.793 3.587 -6.321 4.211 -9.922 5.586 C-15.096 7.963 -18.21 10.693 -20.812 15.75 C-21.231 16.549 -21.65 17.348 -22.082 18.172 C-22.385 18.775 -22.688 19.378 -23 20 C-23.66 20 -24.32 20 -25 20 C-23.039 12.513 -19.412 8.681 -13 4.75 C-4.828 0 -4.828 0 0 0 Z " fill="#b60607" transform="translate(147,34)" id="SvgjsPath1034"></path>
<path d="M0 0 C1.582 0.007 3.164 0.019 4.746 0.035 C5.552 0.04 6.359 0.044 7.189 0.049 C9.188 0.061 11.186 0.079 13.184 0.098 C13.514 1.088 13.844 2.078 14.184 3.098 C11.392 3.151 8.601 3.191 5.809 3.223 C5.015 3.239 4.22 3.256 3.402 3.273 C1.329 3.291 -0.745 3.201 -2.816 3.098 C-3.476 2.438 -4.136 1.778 -4.816 1.098 C-3.816 0.098 -3.816 0.098 0 0 Z " fill="#e4dcdc" transform="translate(152.81640625,24.90234375)" id="SvgjsPath1035" class=""></path>
<path d="M0 0 C1.488 0.007 2.977 0.019 4.465 0.035 C5.223 0.04 5.982 0.044 6.764 0.049 C8.643 0.061 10.523 0.079 12.402 0.098 C12.402 1.088 12.402 2.078 12.402 3.098 C9.944 3.151 7.486 3.191 5.027 3.223 C3.979 3.248 3.979 3.248 2.91 3.273 C1.073 3.291 -0.764 3.201 -2.598 3.098 C-3.258 2.438 -3.918 1.778 -4.598 1.098 C-3.598 0.098 -3.598 0.098 0 0 Z " fill="#e4dcdc" transform="translate(151.59765625,179.90234375)" id="SvgjsPath1036" class=""></path>
<path d="M0 0 C5.281 0.515 8.572 2.255 13 5 C12.01 5.33 11.02 5.66 10 6 C9.67 6.66 9.34 7.32 9 8 C5.37 6.35 1.74 4.7 -2 3 C-1.34 2.01 -0.68 1.02 0 0 Z " fill="#e4dcdc" transform="translate(213,54)" id="SvgjsPath1037" class=""></path>
<path d="M0 0 C-3.382 3.68 -6.425 5.979 -11 8 C-11.99 7.01 -12.98 6.02 -14 5 C-12.618 3.961 -11.218 2.944 -9.812 1.938 C-9.035 1.369 -8.258 0.801 -7.457 0.215 C-4.48 -1.257 -3.113 -0.967 0 0 Z " fill="#e4dcdc" transform="translate(231,144)" id="SvgjsPath1038" class=""></path>
<path d="M0 0 C-0.125 1.875 -0.125 1.875 -1 4 C-5.006 5.912 -7.773 6.335 -12 5 C-13.34 4.347 -14.675 3.682 -16 3 C-13.897 2.496 -11.792 1.997 -9.688 1.5 C-8.516 1.222 -7.344 0.943 -6.137 0.656 C-3 0 -3 0 0 0 Z " fill="#e4dcdc" transform="translate(176,176)" id="SvgjsPath1039" class=""></path>
<path d="M0 0 C0.66 0.33 1.32 0.66 2 1 C0.863 4.412 -0.043 5.119 -3 7 C-3.66 7 -4.32 7 -5 7 C-4.979 8.176 -4.959 9.351 -4.938 10.562 C-4.931 14.474 -5.357 18.145 -6 22 C-6.33 22 -6.66 22 -7 22 C-7.752 8.11 -7.752 8.11 -3 2 C-2.01 1.34 -1.02 0.68 0 0 Z " fill="#b60607" transform="translate(78,133)" id="SvgjsPath1040"></path>
<path d="M0 0 C0.66 0 1.32 0 2 0 C2.037 0.762 2.075 1.524 2.113 2.309 C2.538 8.987 3.504 14.783 6 21 C3 20 3 20 1 17 C-0.029 13.2 -0.106 9.611 -0.062 5.688 C-0.053 4.619 -0.044 3.55 -0.035 2.449 C-0.024 1.641 -0.012 0.833 0 0 Z " fill="#b60607" transform="translate(113,58)" id="SvgjsPath1041"></path>
<path d="M0 0 C-3.987 3.987 -11.129 3.869 -16.562 4.25 C-19 4 -19 4 -21 2 C-19.519 1.801 -19.519 1.801 -18.008 1.598 C-16.726 1.421 -15.445 1.244 -14.125 1.062 C-12.211 0.801 -12.211 0.801 -10.258 0.535 C-2.867 -0.679 -2.867 -0.679 0 0 Z " fill="#b60607" transform="translate(172,172)" id="SvgjsPath1042"></path>
<path d="M0 0 C3.998 3.665 6.602 7.111 9 12 C8.67 12.66 8.34 13.32 8 14 C4.394 9.532 1.42 5.679 0 0 Z M9 14 C11.31 15.98 13.62 17.96 16 20 C13 20 13 20 10.812 18.125 C9 16 9 16 9 14 Z " fill="#b60607" transform="translate(23,129)" id="SvgjsPath1043"></path>
<path d="M0 0 C-3.637 2.425 -6.362 2.298 -10.562 2.25 C-11.248 2.258 -11.933 2.265 -12.639 2.273 C-17.747 2.253 -17.747 2.253 -20 0 C-13.266 -1.683 -6.751 -1.125 0 0 Z " fill="#b60607" transform="translate(168,33)" id="SvgjsPath1044"></path>
<path d="M0 0 C2.31 0.66 4.62 1.32 7 2 C6.67 2.99 6.34 3.98 6 5 C5.34 5 4.68 5 4 5 C4.33 6.65 4.66 8.3 5 10 C5.66 10 6.32 10 7 10 C6.67 10.99 6.34 11.98 6 13 C5.34 13 4.68 13 4 13 C3.324 11.588 2.66 10.17 2 8.75 C1.443 7.567 1.443 7.567 0.875 6.359 C0 4 0 4 0 0 Z " fill="#b60607" transform="translate(17,114)" id="SvgjsPath1045"></path>
<path d="M0 0 C0.66 0.33 1.32 0.66 2 1 C1.67 4.63 1.34 8.26 1 12 C0.67 12 0.34 12 0 12 C-0.33 10.35 -0.66 8.7 -1 7 C-1 8.98 -1 10.96 -1 13 C-1.66 12.67 -2.32 12.34 -3 12 C-2.886 10.374 -2.758 8.749 -2.625 7.125 C-2.555 6.22 -2.486 5.315 -2.414 4.383 C-2 2 -2 2 0 0 Z M-4 13 C-2.68 13.66 -1.36 14.32 0 15 C-1.65 15 -3.3 15 -5 15 C-4.67 14.34 -4.34 13.68 -4 13 Z " fill="#e4dcdc" transform="translate(74,76)" id="SvgjsPath1046" class=""></path>
<path d="M0 0 C2.268 3.652 2.39 7.013 2.625 11.25 C2.7 12.513 2.775 13.777 2.852 15.078 C2.901 16.042 2.95 17.007 3 18 C3.66 18 4.32 18 5 18 C5 18.99 5 19.98 5 21 C2 20 2 20 0.82 17.926 C-0.194 14.308 -0.218 10.908 -0.125 7.188 C-0.116 6.495 -0.107 5.802 -0.098 5.088 C-0.074 3.392 -0.038 1.696 0 0 Z " fill="#b60607" transform="translate(121,56)" id="SvgjsPath1047"></path>
<path d="M0 0 C0.33 0.99 0.66 1.98 1 3 C-5.722 7.185 -10.264 7.308 -18 6 C-18 5.67 -18 5.34 -18 5 C-16.679 4.836 -16.679 4.836 -15.332 4.668 C-13.59 4.43 -13.59 4.43 -11.812 4.188 C-10.664 4.037 -9.515 3.886 -8.332 3.73 C-4.982 2.996 -2.807 1.93 0 0 Z " fill="#b60607" transform="translate(157,86)" id="SvgjsPath1048"></path>
<path d="M0 0 C3.285 3.856 4 6.993 4 12 C-0.875 6.375 -0.875 6.375 -2 3 C-1.34 2.01 -0.68 1.02 0 0 Z M4 7 C4.66 7.66 5.32 8.32 6 9 C5.34 9 4.68 9 4 9 C4 8.34 4 7.68 4 7 Z " fill="#e4dcdc" transform="translate(70,163)" id="SvgjsPath1049" class=""></path>
<path d="M0 0 C0 0.99 0 1.98 0 3 C-4.154 4.583 -7.548 5.484 -12 5 C-14.375 3.5 -14.375 3.5 -16 2 C-14.267 2.062 -14.267 2.062 -12.5 2.125 C-8.055 2.141 -4.263 1.218 0 0 Z " fill="#b60607" transform="translate(40,115)" id="SvgjsPath1050"></path>
<path d="M0 0 C3.3 1.65 6.6 3.3 10 5 C9.01 5.33 8.02 5.66 7 6 C7 6.66 7 7.32 7 8 C6.01 8 5.02 8 4 8 C3.67 6.68 3.34 5.36 3 4 C2.01 4.33 1.02 4.66 0 5 C-0.562 3.062 -0.562 3.062 -1 1 C-0.67 0.67 -0.34 0.34 0 0 Z M1 6 C1.99 6.495 1.99 6.495 3 7 C2.34 7.66 1.68 8.32 1 9 C1 8.01 1 7.02 1 6 Z " fill="#fdfcfc" transform="translate(5,98)" class="" id="SvgjsPath1051"></path>
<path d="M0 0 C3.186 0.354 4.791 0.83 7.312 2.875 C9 5 9 5 9 8 C5.082 6.694 2.674 5.169 0 2 C0 1.34 0 0.68 0 0 Z " fill="#e4dcdc" transform="translate(182,33)" id="SvgjsPath1052" class=""></path>
<path d="M0 0 C0 0.66 0 1.32 0 2 C-6.801 5.139 -12.566 5.335 -20 5 C-20 4.67 -20 4.34 -20 4 C-16.37 4 -12.74 4 -9 4 C-9 3.34 -9 2.68 -9 2 C-3.375 0 -3.375 0 0 0 Z " fill="#b60607" transform="translate(216,144)" id="SvgjsPath1053"></path>
<path d="M0 0 C0.33 0 0.66 0 1 0 C0.568 5.094 0.246 8.845 -3 13 C-3.66 13 -4.32 13 -5 13 C-5 13.66 -5 14.32 -5 15 C-6.32 14.67 -7.64 14.34 -9 14 C-8.216 13.443 -7.433 12.886 -6.625 12.312 C-3.833 9.853 -3.103 8.478 -2 5 C-1.333 3.333 -0.667 1.667 0 0 Z " fill="#b60607" transform="translate(158,70)" id="SvgjsPath1054"></path>
<path d="M0 0 C0.99 0.33 1.98 0.66 3 1 C2 4 2 4 0.039 5.168 C-0.758 5.504 -1.554 5.841 -2.375 6.188 C-3.562 6.704 -3.562 6.704 -4.773 7.23 C-7 8 -7 8 -10 8 C-10 7.34 -10 6.68 -10 6 C-9.362 5.734 -8.724 5.469 -8.066 5.195 C-7.24 4.842 -6.414 4.489 -5.562 4.125 C-4.739 3.777 -3.915 3.429 -3.066 3.07 C-0.843 2.176 -0.843 2.176 0 0 Z " fill="#b60607" transform="translate(116,169)" id="SvgjsPath1055"></path>
<path d="M0 0 C0.66 0.99 1.32 1.98 2 3 C2.66 2.01 3.32 1.02 4 0 C3.25 7.75 3.25 7.75 1 10 C0.01 10 -0.98 10 -2 10 C-1.34 6.7 -0.68 3.4 0 0 Z " fill="#e4dcdc" transform="translate(241,116)" id="SvgjsPath1056" class=""></path>
<path d="M0 0 C1.32 0.66 2.64 1.32 4 2 C-0.75 6 -0.75 6 -3 6 C-3.33 6.66 -3.66 7.32 -4 8 C-4.66 6.68 -5.32 5.36 -6 4 C-4.02 2.68 -2.04 1.36 0 0 Z " fill="#e4dcdc" transform="translate(57,92)" id="SvgjsPath1057" class=""></path>
<path d="M0 0 C2.475 0.495 2.475 0.495 5 1 C5.66 3.31 6.32 5.62 7 8 C5.68 8.33 4.36 8.66 3 9 C2.01 6.03 1.02 3.06 0 0 Z " fill="#e4dcdc" transform="translate(237,78)" id="SvgjsPath1058" class=""></path>
<path d="M0 0 C2.688 0.312 2.688 0.312 5 1 C2.826 3.5 1.27 4.436 -2 5 C-2.33 4.34 -2.66 3.68 -3 3 C-1.812 1.438 -1.812 1.438 0 0 Z M-5 4 C-3 5 -3 5 -3 5 Z " fill="#e4dcdc" transform="translate(94,49)" id="SvgjsPath1059" class=""></path>
<path d="M0 0 C0.33 0.99 0.66 1.98 1 3 C-4.94 2.01 -4.94 2.01 -11 1 C-6.468 -1.266 -4.822 -0.927 0 0 Z M1 3 C1.66 3.33 2.32 3.66 3 4 C2.67 5.32 2.34 6.64 2 8 C1.01 7.67 0.02 7.34 -1 7 C-0.34 5.68 0.32 4.36 1 3 Z " fill="#b60607" transform="translate(199,103)" id="SvgjsPath1060"></path>
<path d="M0 0 C1.525 2.94 2.952 5.855 4 9 C3.67 9.99 3.34 10.98 3 12 C-1.062 6.831 -1.062 6.831 -0.75 2.625 C-0.502 1.759 -0.255 0.893 0 0 Z M4 12 C4.99 12.99 5.98 13.98 7 15 C6.01 14.67 5.02 14.34 4 14 C4 13.34 4 12.68 4 12 Z " fill="#b60607" transform="translate(174,133)" id="SvgjsPath1061"></path>
<path d="M0 0 C4.743 3.557 7.458 6.612 10 12 C9.67 12.66 9.34 13.32 9 14 C7.494 12.046 5.995 10.087 4.5 8.125 C4.071 7.569 3.641 7.014 3.199 6.441 C0 2.227 0 2.227 0 0 Z " fill="#b60607" transform="translate(225,70)" id="SvgjsPath1062"></path>
<path d="M0 0 C0.66 0.33 1.32 0.66 2 1 C0.723 5.993 -1.173 8.576 -5 12 C-5 7.989 -3.239 6.257 -1 3 C-0.67 2.01 -0.34 1.02 0 0 Z " fill="#b60607" transform="translate(233,124)" id="SvgjsPath1063"></path>
<path d="M0 0 C-0.66 1.32 -1.32 2.64 -2 4 C-3.98 4 -5.96 4 -8 4 C-8.33 2.68 -8.66 1.36 -9 0 C-2.25 -1.125 -2.25 -1.125 0 0 Z " fill="#fdfcfc" transform="translate(36,110)" id="SvgjsPath1064" class=""></path>
<path d="M0 0 C0 0.66 0 1.32 0 2 C-1.072 2.516 -2.145 3.031 -3.25 3.562 C-7.47 5.934 -8.931 8.697 -11 13 C-11.707 11.262 -11.707 11.262 -12 9 C-10.637 6.895 -10.637 6.895 -8.688 4.812 C-8.052 4.118 -7.416 3.423 -6.762 2.707 C-4.318 0.339 -3.458 0 0 0 Z " fill="#b60607" transform="translate(187,103)" id="SvgjsPath1065"></path>
<path d="M0 0 C1.887 0.031 1.887 0.031 3.812 0.062 C4.142 1.053 4.472 2.042 4.812 3.062 C3.823 4.547 3.823 4.547 2.812 6.062 C2.483 5.072 2.153 4.082 1.812 3.062 C-1.157 3.062 -4.127 3.062 -7.188 3.062 C-7.188 2.403 -7.188 1.742 -7.188 1.062 C-4.437 0.146 -2.828 -0.046 0 0 Z " fill="#b60607" transform="translate(112.1875,52.9375)" id="SvgjsPath1066"></path>
<path d="M0 0 C2 1 2 1 2 1 Z M2 1 C5.465 2.485 5.465 2.485 9 4 C8.67 4.99 8.34 5.98 8 7 C5.114 6.602 4.178 6.21 2.25 3.938 C1.837 3.298 1.425 2.659 1 2 C1.33 1.67 1.66 1.34 2 1 Z " fill="#e4dcdc" transform="translate(30,151)" id="SvgjsPath1067" class=""></path>
<path d="M0 0 C0.99 0.495 0.99 0.495 2 1 C1.01 1.495 1.01 1.495 0 2 C0 1.34 0 0.68 0 0 Z M-10 1 C-9.34 1.33 -8.68 1.66 -8 2 C-8.99 2 -9.98 2 -11 2 C-10.67 1.67 -10.34 1.34 -10 1 Z M-7 1 C-4.562 1.375 -4.562 1.375 -2 2 C-1.67 2.66 -1.34 3.32 -1 4 C-3.64 4 -6.28 4 -9 4 C-8.34 3.01 -7.68 2.02 -7 1 Z " fill="#e4dcdc" transform="translate(118,45)" id="SvgjsPath1068" class=""></path>
<path d="M0 0 C3.63 0 7.26 0 11 0 C11 0.66 11 1.32 11 2 C3.571 3.286 3.571 3.286 0 2 C0 1.34 0 0.68 0 0 Z " fill="#e4dcdc" transform="translate(52,161)" id="SvgjsPath1069" class=""></path>
<path d="M0 0 C1.966 2.949 2.739 4.52 3 8 C1.562 9.812 1.562 9.812 0 11 C-2.126 6.372 -1.592 4.775 0 0 Z " fill="#e4dcdc" transform="translate(12,115)" id="SvgjsPath1070" class=""></path>
<path d="M0 0 C0.66 0 1.32 0 2 0 C1.885 1.438 1.758 2.876 1.625 4.312 C1.555 5.113 1.486 5.914 1.414 6.738 C1 9 1 9 -1 12 C-2.099 8.703 -1.871 7.595 -1.062 4.312 C-0.868 3.504 -0.673 2.696 -0.473 1.863 C-0.239 0.941 -0.239 0.941 0 0 Z " fill="#b60607" transform="translate(236,112)" id="SvgjsPath1071"></path>
<path d="M0 0 C0.33 0 0.66 0 1 0 C1 2.64 1 5.28 1 8 C0.34 7.67 -0.32 7.34 -1 7 C-1.043 5 -1.041 3 -1 1 C-0.67 0.67 -0.34 0.34 0 0 Z M-7 6 C-5.02 6 -3.04 6 -1 6 C-2.485 7.485 -2.485 7.485 -4 9 C-4.99 8.67 -5.98 8.34 -7 8 C-7 7.34 -7 6.68 -7 6 Z " fill="#e4dcdc" transform="translate(73,82)" id="SvgjsPath1072" class=""></path>
<path d="M0 0 C2.31 0.33 4.62 0.66 7 1 C7 1.99 7 2.98 7 4 C4.36 4 1.72 4 -1 4 C-0.67 2.68 -0.34 1.36 0 0 Z " fill="#e4dcdc" transform="translate(197,51)" id="SvgjsPath1073" class=""></path>
<path d="M0 0 C3.63 0.33 7.26 0.66 11 1 C7 3 7 3 4 4 C1.812 3.062 1.812 3.062 0 2 C0 1.34 0 0.68 0 0 Z " fill="#e4dcdc" transform="translate(141,178)" id="SvgjsPath1074" class=""></path>
<path d="M0 0 C4.892 2.258 8.018 5.527 11 10 C5.363 8.674 3.068 4.534 0 0 Z " fill="#b60607" transform="translate(130,161)" id="SvgjsPath1075"></path>
<path d="M0 0 C3.242 0.35 4.615 0.562 6.812 3.062 C7.204 3.702 7.596 4.341 8 5 C5 6 5 6 2.312 4.75 C1.549 4.172 0.786 3.595 0 3 C0 2.01 0 1.02 0 0 Z " fill="#e4dcdc" transform="translate(223,60)" id="SvgjsPath1076" class=""></path>
<path d="M0 0 C0.99 0 1.98 0 3 0 C4 1 5 2 6 3 C8.599 4.19 8.599 4.19 11 5 C11 5.66 11 6.32 11 7 C3.169 5.042 3.169 5.042 0 2 C0 1.34 0 0.68 0 0 Z " fill="#b60607" transform="translate(184,141)" id="SvgjsPath1077"></path>
<path d="M0 0 C0.99 0.33 1.98 0.66 3 1 C4.188 4.062 4.188 4.062 5 7 C2.525 6.01 2.525 6.01 0 5 C0 3.35 0 1.7 0 0 Z " fill="#e4dcdc" transform="translate(18,133)" id="SvgjsPath1078" class=""></path>
<path d="M0 0 C4.688 0.781 4.688 0.781 9.375 1.562 C10.674 1.779 10.674 1.779 12 2 C9 4 9 4 6 3.812 C2.992 2.998 1.882 2.404 0 0 Z " fill="#b60607" transform="translate(40,151)" id="SvgjsPath1079"></path>
<path d="M0 0 C0.124 0.639 0.248 1.279 0.375 1.938 C0.684 2.958 0.684 2.958 1 4 C1.66 4.33 2.32 4.66 3 5 C0.625 5.625 0.625 5.625 -2 6 C-2.66 5.34 -3.32 4.68 -4 4 C-3.67 3.01 -3.34 2.02 -3 1 C-2.34 1.66 -1.68 2.32 -1 3 C-0.67 2.01 -0.34 1.02 0 0 Z " fill="#b60607" transform="translate(109,140)" id="SvgjsPath1080"></path>
<path d="M0 0 C0.66 0 1.32 0 2 0 C1.67 0.99 1.34 1.98 1 3 C0.34 2.34 -0.32 1.68 -1 1 C-0.67 0.67 -0.34 0.34 0 0 Z M-3 3 C-3 3.99 -3 4.98 -3 6 C-3.66 5.34 -4.32 4.68 -5 4 C-4.34 3.67 -3.68 3.34 -3 3 Z M-9 7 C-8.01 7.495 -8.01 7.495 -7 8 C-7.99 8.495 -7.99 8.495 -9 9 C-9 8.34 -9 7.68 -9 7 Z " fill="#e4dcdc" transform="translate(237,134)" id="SvgjsPath1081" class=""></path>
<path d="M0 0 C0.99 0.33 1.98 0.66 3 1 C2.67 2.65 2.34 4.3 2 6 C1.34 5.34 0.68 4.68 0 4 C0 2.68 0 1.36 0 0 Z " fill="#b60607" transform="translate(107,132)" id="SvgjsPath1082"></path>
<path d="M0 0 C0.99 1.32 1.98 2.64 3 4 C2.34 5.32 1.68 6.64 1 8 C-2 4.25 -2 4.25 -2 2 C-1.34 2 -0.68 2 0 2 C0 1.34 0 0.68 0 0 Z " fill="#e4dcdc" transform="translate(17,128)" id="SvgjsPath1083" class=""></path>
<path d="M0 0 C3.625 0.188 3.625 0.188 6.625 2.188 C5.169 2.409 3.71 2.614 2.25 2.812 C1.438 2.929 0.626 3.045 -0.211 3.164 C-0.925 3.172 -1.639 3.18 -2.375 3.188 C-3.035 2.528 -3.695 1.868 -4.375 1.188 C-3.375 0.188 -3.375 0.188 0 0 Z " fill="#b60607" transform="translate(89.375,123.8125)" id="SvgjsPath1084"></path>
<path d="M0 0 C0.33 0.66 0.66 1.32 1 2 C0.34 1.67 -0.32 1.34 -1 1 C-0.67 0.67 -0.34 0.34 0 0 Z M-5 1 C-4.01 1 -3.02 1 -2 1 C-2 1.99 -2 2.98 -2 4 C-3.65 4.33 -5.3 4.66 -7 5 C-6.34 3.68 -5.68 2.36 -5 1 Z " fill="#fdfcfc" transform="translate(41,108)" id="SvgjsPath1085" class=""></path>
<path d="M0 0 C4.431 1.208 6.981 2.517 10 6 C5.569 4.792 3.019 3.483 0 0 Z " fill="#b60607" transform="translate(126,79)" id="SvgjsPath1086"></path>
<path d="M0 0 C2.31 0.66 4.62 1.32 7 2 C6.01 2.99 5.02 3.98 4 5 C1.525 4.01 1.525 4.01 -1 3 C-0.67 2.01 -0.34 1.02 0 0 Z " fill="#e4dcdc" transform="translate(178,30)" id="SvgjsPath1087" class=""></path>
<path d="M0 0 C0.99 0.495 0.99 0.495 2 1 C1.67 1.66 1.34 2.32 1 3 C0.67 2.01 0.34 1.02 0 0 Z M2 3 C4.475 3.99 4.475 3.99 7 5 C6.34 6.32 5.68 7.64 5 9 C4.01 7.02 3.02 5.04 2 3 Z " fill="#e4dcdc" transform="translate(72,169)" id="SvgjsPath1088" class=""></path>
<path d="M0 0 C2.152 3.228 2.201 4.284 2 8 C1.01 7.67 0.02 7.34 -1 7 C-1.043 5 -1.041 3 -1 1 C-0.67 0.67 -0.34 0.34 0 0 Z " fill="#ffffff" transform="translate(10,111)" id="SvgjsPath1089" class=""></path>
<path d="M0 0 C0.99 0.33 1.98 0.66 3 1 C3.688 3.062 3.688 3.062 4 5 C3.01 5.495 3.01 5.495 2 6 C1.01 5.01 0.02 4.02 -1 3 C-0.67 2.01 -0.34 1.02 0 0 Z " fill="#e4dcdc" transform="translate(236,73)" id="SvgjsPath1090" class=""></path>
<path d="M0 0 C0.99 0.495 0.99 0.495 2 1 C2.625 3.562 2.625 3.562 3 6 C3.66 6 4.32 6 5 6 C5 6.99 5 7.98 5 9 C4.01 8.67 3.02 8.34 2 8 C0.552 5.104 0 3.258 0 0 Z " fill="#b60607" transform="translate(121,68)" id="SvgjsPath1091"></path>
<path d="M0 0 C2.31 0.33 4.62 0.66 7 1 C5.515 2.485 5.515 2.485 4 4 C1.525 3.01 1.525 3.01 -1 2 C-0.67 1.34 -0.34 0.68 0 0 Z " fill="#e4dcdc" transform="translate(137,176)" id="SvgjsPath1092" class=""></path>
<path d="M0 0 C1.32 0.33 2.64 0.66 4 1 C3.625 2.938 3.625 2.938 3 5 C2.01 5.495 2.01 5.495 1 6 C0.67 4.02 0.34 2.04 0 0 Z " fill="#b60607" transform="translate(17,114)" id="SvgjsPath1093"></path>
<path d="M0 0 C2.188 0.312 2.188 0.312 4 1 C4 1.66 4 2.32 4 3 C1.69 3 -0.62 3 -3 3 C-1.75 1.438 -1.75 1.438 0 0 Z " fill="#b60607" transform="translate(158,56)" id="SvgjsPath1094"></path>
<path d="M0 0 C0 0.99 0 1.98 0 3 C-0.99 3 -1.98 3 -3 3 C-2.01 2.01 -1.02 1.02 0 0 Z M-6 3 C-5.34 3.66 -4.68 4.32 -4 5 C-4.99 4.67 -5.98 4.34 -7 4 C-6.67 3.67 -6.34 3.34 -6 3 Z " fill="#e4dcdc" transform="translate(125,40)" id="SvgjsPath1095" class=""></path>
<path d="M0 0 C0.33 0.66 0.66 1.32 1 2 C0.34 1.67 -0.32 1.34 -1 1 C-0.67 0.67 -0.34 0.34 0 0 Z M-4 2 C-3.34 2.66 -2.68 3.32 -2 4 C-3.65 4.66 -5.3 5.32 -7 6 C-7 5.34 -7 4.68 -7 4 C-6.01 3.34 -5.02 2.68 -4 2 Z " fill="#e4dcdc" transform="translate(234,139)" id="SvgjsPath1096" class=""></path>
<path d="M0 0 C1.32 1.32 2.64 2.64 4 4 C3.67 4.66 3.34 5.32 3 6 C1.68 5.01 0.36 4.02 -1 3 C-0.67 2.01 -0.34 1.02 0 0 Z " fill="#b60607" transform="translate(103,136)" id="SvgjsPath1097"></path>
<path d="M0 0 C0 0.99 0 1.98 0 3 C-2.606 3.931 -3.642 4.149 -6.25 3.062 C-6.828 2.712 -7.405 2.361 -8 2 C-5.36 1.34 -2.72 0.68 0 0 Z " fill="#b60607" transform="translate(40,115)" id="SvgjsPath1098"></path>
<path d="M0 0 C0.33 0.99 0.66 1.98 1 3 C0.01 3.33 -0.98 3.66 -2 4 C-2 4.66 -2 5.32 -2 6 C-3.32 5.67 -4.64 5.34 -6 5 C-5.196 4.361 -4.391 3.721 -3.562 3.062 C-1.725 1.594 -1.725 1.594 0 0 Z " fill="#b60607" transform="translate(155,79)" id="SvgjsPath1099"></path>
<path d="M0 0 C0.99 1.32 1.98 2.64 3 4 C0 5 0 5 -2 5 C-2.33 3.68 -2.66 2.36 -3 1 C-2.01 0.67 -1.02 0.34 0 0 Z " fill="#e4dcdc" transform="translate(197,47)" id="SvgjsPath1100" class=""></path>
<path d="M0 0 C2.475 0.99 2.475 0.99 5 2 C5 2.99 5 3.98 5 5 C3.062 4.188 3.062 4.188 1 3 C0.67 2.01 0.34 1.02 0 0 Z " fill="#e4dcdc" transform="translate(186,36)" id="SvgjsPath1101" class=""></path>
<path d="M0 0 C0.99 0.33 1.98 0.66 3 1 C3 1.99 3 2.98 3 4 C1.68 4.33 0.36 4.66 -1 5 C-1.33 3.68 -1.66 2.36 -2 1 C-1.34 0.67 -0.68 0.34 0 0 Z " fill="#e4dcdc" transform="translate(177,174)" id="SvgjsPath1102" class=""></path>
<path d="M0 0 C1.65 0 3.3 0 5 0 C5 1.32 5 2.64 5 4 C3.68 3.01 2.36 2.02 1 1 C0.67 2.32 0.34 3.64 0 5 C0 3.35 0 1.7 0 0 Z " fill="#b60607" transform="translate(156,59)" id="SvgjsPath1103"></path>
<path d="M0 0 C-0.33 0.99 -0.66 1.98 -1 3 C-2.98 3.33 -4.96 3.66 -7 4 C-6.67 3.01 -6.34 2.02 -6 1 C-3 0 -3 0 0 0 Z " fill="#b60607" transform="translate(105,54)" id="SvgjsPath1104"></path>
<path d="M0 0 C0.99 0.33 1.98 0.66 3 1 C2.67 1.99 2.34 2.98 2 4 C-0.062 4.688 -0.062 4.688 -2 5 C-1.34 3.35 -0.68 1.7 0 0 Z " fill="#b60607" transform="translate(116,169)" id="SvgjsPath1105"></path>
<path d="M0 0 C1.125 1.75 1.125 1.75 2 4 C1.125 6.25 1.125 6.25 0 8 C-1.125 2.25 -1.125 2.25 0 0 Z " fill="#b60607" transform="translate(73,153)" id="SvgjsPath1106"></path>
<path d="M0 0 C-2.639 1.414 -5.071 2.372 -8 3 C-8.33 2.34 -8.66 1.68 -9 1 C-6.043 -0.478 -3.258 -0.06 0 0 Z " fill="#b60607" transform="translate(196,108)" id="SvgjsPath1107"></path>
<path d="M0 0 C1.32 0.66 2.64 1.32 4 2 C3.67 2.66 3.34 3.32 3 4 C1.68 3.67 0.36 3.34 -1 3 C-0.67 2.01 -0.34 1.02 0 0 Z " fill="#e4dcdc" transform="translate(234,70)" id="SvgjsPath1108" class=""></path>
<path d="M0 0 C1.461 2.647 2 3.894 2 7 C1.01 6.67 0.02 6.34 -1 6 C-0.67 4.02 -0.34 2.04 0 0 Z " fill="#b60607" transform="translate(174,133)" id="SvgjsPath1109"></path>
<path d="M0 0 C1.32 0 2.64 0 4 0 C4 1.32 4 2.64 4 4 C2.68 3.67 1.36 3.34 0 3 C0 2.01 0 1.02 0 0 Z " fill="#fdfcfc" transform="translate(12,104)" id="SvgjsPath1110" class=""></path>
<path d="M0 0 C2.475 0.495 2.475 0.495 5 1 C4.67 1.66 4.34 2.32 4 3 C3.01 3.33 2.02 3.66 1 4 C0.67 2.68 0.34 1.36 0 0 Z " fill="#e4dcdc" transform="translate(237,78)" id="SvgjsPath1111" class=""></path>
<path d="M0 0 C1.32 0.66 2.64 1.32 4 2 C3.01 2 2.02 2 1 2 C0.67 2.66 0.34 3.32 0 4 C-0.66 3.34 -1.32 2.68 -2 2 C-1.34 1.34 -0.68 0.68 0 0 Z " fill="#e4dcdc" transform="translate(222,58)" id="SvgjsPath1112" class=""></path>
<path d="M0 0 C0.99 0.33 1.98 0.66 3 1 C2.67 1.99 2.34 2.98 2 4 C0.68 3.34 -0.64 2.68 -2 2 C-1.34 1.34 -0.68 0.68 0 0 Z " fill="#e4dcdc" transform="translate(83,178)" id="SvgjsPath1113" class=""></path>
<path d="M0 0 C1.32 0.33 2.64 0.66 4 1 C4 2.65 4 4.3 4 6 C0 1.125 0 1.125 0 0 Z " fill="#b60607" transform="translate(186,150)" id="SvgjsPath1114"></path>
<path d="M0 0 C0.66 0.66 1.32 1.32 2 2 C1.01 2.33 0.02 2.66 -1 3 C-0.67 2.01 -0.34 1.02 0 0 Z M1 3 C1 6 1 6 1 6 Z " fill="#e4dcdc" transform="translate(7,101)" id="SvgjsPath1115" class=""></path>
<path d="M0 0 C1.65 0 3.3 0 5 0 C4.01 1.485 4.01 1.485 3 3 C2.01 2.67 1.02 2.34 0 2 C0 1.34 0 0.68 0 0 Z " fill="#e4dcdc" transform="translate(66,88)" id="SvgjsPath1116" class=""></path>
<path d="M0 0 C0.99 0.99 1.98 1.98 3 3 C2.34 4.32 1.68 5.64 1 7 C0.67 4.69 0.34 2.38 0 0 Z " fill="#b60607" transform="translate(161,62)" id="SvgjsPath1117"></path>
<path d="M0 0 C0.99 0.33 1.98 0.66 3 1 C2.34 1.66 1.68 2.32 1 3 C0.01 3 -0.98 3 -2 3 C-2 2.34 -2 1.68 -2 1 C-1.34 0.67 -0.68 0.34 0 0 Z " fill="#e4dcdc" transform="translate(168,178)" id="SvgjsPath1118" class=""></path>
<path d="M0 0 C0.66 0.66 1.32 1.32 2 2 C0.68 2.33 -0.64 2.66 -2 3 C-1.34 2.01 -0.68 1.02 0 0 Z M1 3 C3 4 3 4 3 4 Z " fill="#b60607" transform="translate(87,169)" id="SvgjsPath1119"></path>
<path d="M0 0 C0.66 0 1.32 0 2 0 C1.67 0.99 1.34 1.98 1 3 C0.34 2.34 -0.32 1.68 -1 1 C-0.67 0.67 -0.34 0.34 0 0 Z " fill="#b60607" transform="translate(228,133)" id="SvgjsPath1120"></path>
<path d="M0 0 C0.99 0.33 1.98 0.66 3 1 C2.67 1.66 2.34 2.32 2 3 C1.01 2.67 0.02 2.34 -1 2 C-0.67 1.34 -0.34 0.68 0 0 Z " fill="#e4dcdc" transform="translate(229,65)" id="SvgjsPath1121" class=""></path>
<path d="M0 0 C2.475 0.495 2.475 0.495 5 1 C4.67 1.66 4.34 2.32 4 3 C2.68 2.67 1.36 2.34 0 2 C0 1.34 0 0.68 0 0 Z " fill="#b60607" transform="translate(211,61)" id="SvgjsPath1122"></path>
<path d="M0 0 C2.475 0.495 2.475 0.495 5 1 C4.67 1.66 4.34 2.32 4 3 C2.68 2.34 1.36 1.68 0 1 C0 0.67 0 0.34 0 0 Z " fill="#e4dcdc" transform="translate(94,49)" id="SvgjsPath1123" class=""></path>
<path d="M0 0 C0.99 0 1.98 0 3 0 C2.67 0.99 2.34 1.98 2 3 C1.01 2.67 0.02 2.34 -1 2 C-0.67 1.34 -0.34 0.68 0 0 Z " fill="#e4dcdc" transform="translate(136,30)" id="SvgjsPath1124" class=""></path>
<path d="M0 0 C1.32 0.66 2.64 1.32 4 2 C3.01 2 2.02 2 1 2 C0.67 2.66 0.34 3.32 0 4 C-0.33 3.01 -0.66 2.02 -1 1 C-0.67 0.67 -0.34 0.34 0 0 Z " fill="#fdfcfc" transform="translate(16,105)" id="SvgjsPath1125" class=""></path>
<path d="M0 0 C0.99 0.33 1.98 0.66 3 1 C2.34 1.66 1.68 2.32 1 3 C0.01 2.67 -0.98 2.34 -2 2 C-1.34 1.34 -0.68 0.68 0 0 Z " fill="#e4dcdc" transform="translate(213,54)" id="SvgjsPath1126" class=""></path>
<path d="M0 0 C1.32 0.66 2.64 1.32 4 2 C2.68 2.33 1.36 2.66 0 3 C0 2.01 0 1.02 0 0 Z " fill="#e4dcdc" transform="translate(136,174)" id="SvgjsPath1127" class=""></path>
<path d="M0 0 C0.99 0 1.98 0 3 0 C3 0.99 3 1.98 3 3 C2.01 2.67 1.02 2.34 0 2 C0 1.34 0 0.68 0 0 Z " fill="#b60607" transform="translate(123,74)" id="SvgjsPath1128"></path>
<path d="M0 0 C0.66 0 1.32 0 2 0 C2 0.99 2 1.98 2 3 C1.01 3 0.02 3 -1 3 C-0.67 2.01 -0.34 1.02 0 0 Z " fill="#e4dcdc" transform="translate(202,52)" id="SvgjsPath1129" class=""></path>
<path d="M0 0 C0.99 0.99 1.98 1.98 3 3 C1.68 2.67 0.36 2.34 -1 2 C-0.67 1.34 -0.34 0.68 0 0 Z " fill="#b60607" transform="translate(147,171)" id="SvgjsPath1130"></path>
<path d="M0 0 C0.66 0.66 1.32 1.32 2 2 C1.01 3.485 1.01 3.485 0 5 C-0.562 3.062 -0.562 3.062 -1 1 C-0.67 0.67 -0.34 0.34 0 0 Z " fill="#9a9695" transform="translate(5,98)" id="SvgjsPath1131" class="shape-highlight"></path>
<path d="M0 0 C0.66 0.66 1.32 1.32 2 2 C0.515 2.99 0.515 2.99 -1 4 C-0.67 2.68 -0.34 1.36 0 0 Z " fill="#e4dcdc" transform="translate(240,80)" id="SvgjsPath1132" class=""></path>
<path d="M0 0 C0.66 0.66 1.32 1.32 2 2 C1.01 2 0.02 2 -1 2 C-0.67 1.34 -0.34 0.68 0 0 Z " fill="#e4dcdc" transform="translate(195,46)" id="SvgjsPath1133" class=""></path>
</svg>