
<!-- Generator: visioncortex VTracer 0.6.4 -->
<svg version="1.1" xmlns="http://www.w3.org/2000/svg" viewBox="0 0 500 500" preserveAspectRatio="xMidYMid meet">
<path d="M0 0 C1.617 -0.005 1.617 -0.005 3.266 -0.01 C4.439 -0.008 5.612 -0.006 6.82 -0.003 C8.015 -0.004 9.21 -0.005 10.441 -0.006 C12.973 -0.007 15.505 -0.005 18.037 -0.001 C21.928 0.004 25.82 -0.001 29.711 -0.007 C32.164 -0.007 34.617 -0.005 37.07 -0.003 C38.243 -0.005 39.416 -0.007 40.625 -0.01 C41.702 -0.006 42.78 -0.003 43.891 0 C44.845 0.001 45.799 0.002 46.782 0.002 C48.945 0.129 48.945 0.129 49.945 1.129 C52.508 1.461 55.063 1.745 57.633 2.004 C75.14 3.946 91.529 8.904 107.945 15.129 C107.945 15.789 107.945 16.449 107.945 17.129 C108.875 17.19 109.804 17.251 110.762 17.313 C116.246 18.096 120.972 20.752 125.883 23.192 C127.338 23.901 127.338 23.901 128.822 24.624 C131.201 25.784 133.575 26.952 135.945 28.129 C135.945 28.789 135.945 29.449 135.945 30.129 C137.925 30.789 139.905 31.449 141.945 32.129 C141.945 32.789 141.945 33.449 141.945 34.129 C143.059 34.315 143.059 34.315 144.195 34.504 C146.747 35.084 148.672 35.866 150.945 37.129 C150.945 37.789 150.945 38.449 150.945 39.129 C151.605 39.315 152.265 39.501 152.945 39.692 C156.539 41.414 158.964 43.724 161.891 46.391 C163.769 47.98 165.538 49.155 167.695 50.317 C170.709 51.998 172.747 53.492 174.945 56.129 C174.945 56.789 174.945 57.449 174.945 58.129 C176.265 58.789 177.585 59.449 178.945 60.129 C178.945 60.789 178.945 61.449 178.945 62.129 C179.781 62.47 179.781 62.47 180.633 62.817 C184.263 64.877 187.171 67.536 189.008 71.317 C190.243 73.705 191.549 73.966 193.945 75.129 C198.516 79.326 201.586 83.981 204.883 89.192 C206.987 92.189 209.345 94.564 211.945 97.129 C212.758 99.442 212.758 99.442 212.945 101.129 C213.605 101.129 214.265 101.129 214.945 101.129 C217.945 106.754 217.945 106.754 217.945 110.129 C218.605 110.129 219.265 110.129 219.945 110.129 C220.605 112.109 221.265 114.089 221.945 116.129 C222.605 116.129 223.265 116.129 223.945 116.129 C232.204 133.409 232.204 133.409 235.023 140.766 C236.075 143.461 237.232 146.101 238.383 148.754 C241.439 156.047 243.704 163.555 245.945 171.129 C246.291 172.197 246.636 173.264 246.992 174.364 C248.305 179.551 248.892 184.758 249.508 190.067 C249.633 191.113 249.759 192.159 249.889 193.237 C250.124 195.201 250.358 197.165 250.588 199.129 C250.857 201.384 251.158 203.636 251.475 205.885 C252.056 210.534 252.125 215.151 252.148 219.833 C252.154 220.75 252.16 221.668 252.166 222.614 C252.175 224.554 252.182 226.493 252.186 228.433 C252.195 231.33 252.226 234.225 252.258 237.122 C252.324 248.989 251.366 260.29 249.302 271.974 C248.943 274.142 248.662 276.308 248.403 278.49 C247.933 282.231 247.045 285.525 245.945 289.129 C245.464 290.941 244.985 292.754 244.508 294.567 C243.245 299.214 241.715 303.656 239.945 308.129 C239.38 309.628 238.818 311.128 238.258 312.629 C237.825 313.784 237.392 314.939 236.945 316.129 C236.285 316.129 235.625 316.129 234.945 316.129 C234.863 316.913 234.78 317.697 234.695 318.504 C232.806 327.635 228.186 335.902 223.945 344.129 C223.285 344.129 222.625 344.129 221.945 344.129 C221.669 344.845 221.394 345.56 221.109 346.297 C219.963 349.087 218.683 351.752 217.32 354.442 C216.874 355.325 216.428 356.208 215.969 357.118 C215.631 357.782 215.293 358.445 214.945 359.129 C214.285 359.129 213.625 359.129 212.945 359.129 C212.76 359.789 212.574 360.449 212.383 361.129 C210.655 364.735 208.349 367.21 205.676 370.153 C203.493 372.646 201.768 375.366 199.945 378.129 C196.115 383.034 196.115 383.034 193.945 385.129 C193.285 385.129 192.625 385.129 191.945 385.129 C191.945 385.789 191.945 386.449 191.945 387.129 C191.285 387.129 190.625 387.129 189.945 387.129 C189.688 387.712 189.43 388.295 189.164 388.895 C187.847 391.31 186.394 392.947 184.445 394.879 C183.837 395.493 183.228 396.107 182.602 396.739 C180.945 398.129 180.945 398.129 178.945 398.129 C178.945 398.789 178.945 399.449 178.945 400.129 C178.285 400.129 177.625 400.129 176.945 400.129 C176.945 400.789 176.945 401.449 176.945 402.129 C176.285 402.129 175.625 402.129 174.945 402.129 C174.945 402.789 174.945 403.449 174.945 404.129 C171.13 408.195 166.477 411.128 161.727 413.969 C159.764 415.16 159.764 415.16 157.758 417.317 C155.656 419.419 153.742 420.197 150.945 421.129 C150.945 421.789 150.945 422.449 150.945 423.129 C145.32 426.129 145.32 426.129 141.945 426.129 C141.945 426.789 141.945 427.449 141.945 428.129 C139.965 428.789 137.985 429.449 135.945 430.129 C135.945 430.789 135.945 431.449 135.945 432.129 C130.99 434.47 126.031 436.803 121.069 439.129 C119.34 439.944 117.616 440.769 115.895 441.598 C108.46 445.118 100.76 447.62 92.945 450.129 C91.32 450.69 89.694 451.252 88.07 451.817 C84.332 453.075 80.562 453.934 76.695 454.7 C74.929 454.973 74.929 454.973 73.945 456.129 C72.264 456.416 70.572 456.645 68.879 456.848 C67.314 457.04 67.314 457.04 65.717 457.235 C64.617 457.365 63.516 457.495 62.383 457.629 C60.773 457.825 60.773 457.825 59.131 458.024 C57.101 458.27 55.071 458.514 53.041 458.756 C50.728 459.035 48.419 459.341 46.111 459.662 C41.833 460.195 37.601 460.308 33.293 460.333 C32.483 460.339 31.674 460.346 30.839 460.353 C28.229 460.37 25.618 460.377 23.008 460.379 C21.674 460.382 21.674 460.382 20.314 460.385 C5.644 460.394 -8.551 459.438 -23.055 457.129 C-24.358 456.95 -25.661 456.771 -27.004 456.586 C-30.484 456.065 -33.683 455.141 -37.055 454.129 C-38.867 453.649 -40.679 453.17 -42.492 452.692 C-50.743 450.431 -58.152 447.167 -65.895 443.532 C-68.45 442.398 -70.883 441.484 -73.555 440.692 C-81.132 438.329 -88.47 434.2 -94.805 429.442 C-98.676 426.687 -102.669 424.909 -107.055 423.129 C-107.055 422.469 -107.055 421.809 -107.055 421.129 C-107.715 420.944 -108.375 420.758 -109.055 420.567 C-112.648 418.845 -115.073 416.535 -118 413.868 C-119.878 412.279 -121.647 411.104 -123.805 409.942 C-126.819 408.261 -128.857 406.767 -131.055 404.129 C-131.055 403.469 -131.055 402.809 -131.055 402.129 C-131.715 402.129 -132.375 402.129 -133.055 402.129 C-133.055 401.469 -133.055 400.809 -133.055 400.129 C-133.715 400.129 -134.375 400.129 -135.055 400.129 C-135.055 399.469 -135.055 398.809 -135.055 398.129 C-135.637 397.872 -136.22 397.614 -136.82 397.348 C-139.235 396.031 -140.872 394.579 -142.805 392.629 C-143.418 392.021 -144.032 391.413 -144.664 390.786 C-146.055 389.129 -146.055 389.129 -146.055 387.129 C-146.715 387.129 -147.375 387.129 -148.055 387.129 C-148.055 386.469 -148.055 385.809 -148.055 385.129 C-148.715 385.129 -149.375 385.129 -150.055 385.129 C-154.71 380.726 -158.263 375.461 -161.707 370.098 C-163.073 367.973 -163.073 367.973 -165.305 365.879 C-167.373 363.812 -168.138 361.88 -169.055 359.129 C-169.715 359.129 -170.375 359.129 -171.055 359.129 C-173.486 355.763 -174.055 354.396 -174.055 350.129 C-174.715 350.129 -175.375 350.129 -176.055 350.129 C-182.581 341.361 -191.055 327.103 -191.055 316.129 C-191.715 316.129 -192.375 316.129 -193.055 316.129 C-193.381 315.151 -193.707 314.173 -194.043 313.165 C-194.253 312.534 -194.464 311.903 -194.68 311.253 C-195.141 309.871 -195.602 308.488 -196.062 307.105 C-197.02 304.229 -197.979 301.353 -198.949 298.481 C-199.663 296.367 -200.362 294.25 -201.055 292.129 C-201.311 291.356 -201.568 290.583 -201.832 289.786 C-204.87 280.235 -206.159 270.605 -206.809 260.625 C-206.974 258.001 -206.974 258.001 -208.055 255.129 C-208.147 253.504 -208.183 251.875 -208.184 250.247 C-208.187 249.255 -208.19 248.264 -208.194 247.243 C-208.192 246.174 -208.19 245.106 -208.188 244.004 C-208.188 242.906 -208.189 241.808 -208.19 240.676 C-208.191 238.352 -208.189 236.029 -208.185 233.706 C-208.18 230.144 -208.185 226.582 -208.191 223.02 C-208.191 220.765 -208.189 218.51 -208.188 216.254 C-208.19 215.186 -208.192 214.117 -208.194 213.016 C-208.19 212.024 -208.187 211.033 -208.184 210.012 C-208.183 209.14 -208.182 208.267 -208.182 207.368 C-208.055 205.129 -208.055 205.129 -207.055 202.129 C-206.69 199.567 -206.357 197.012 -206.055 194.442 C-205.804 192.366 -205.553 190.29 -205.301 188.214 C-205.138 186.834 -204.984 185.454 -204.84 184.072 C-204.345 179.569 -203.398 175.45 -202.055 171.129 C-201.699 169.923 -201.343 168.716 -200.977 167.473 C-198.152 158.134 -194.804 149.134 -191.055 140.129 C-190.632 139.079 -190.209 138.028 -189.773 136.946 C-186.883 129.821 -183.58 122.962 -180.055 116.129 C-179.395 116.129 -178.735 116.129 -178.055 116.129 C-177.828 115.325 -177.601 114.521 -177.367 113.692 C-175.718 109.217 -173.449 105.242 -171.055 101.129 C-170.395 101.129 -169.735 101.129 -169.055 101.129 C-168.766 100.366 -168.477 99.603 -168.18 98.817 C-167.055 96.129 -167.055 96.129 -165.055 93.129 C-164.395 93.129 -163.735 93.129 -163.055 93.129 C-162.783 92.561 -162.511 91.992 -162.23 91.407 C-159.034 85.216 -155.099 79.927 -150.055 75.129 C-148.217 73.004 -146.404 70.861 -144.605 68.704 C-144.094 68.184 -143.582 67.665 -143.055 67.129 C-142.395 67.129 -141.735 67.129 -141.055 67.129 C-141.055 66.469 -141.055 65.809 -141.055 65.129 C-139.48 63.579 -139.48 63.579 -137.367 61.817 C-134.934 59.756 -132.662 57.728 -130.43 55.442 C-123.947 49.129 -123.947 49.129 -120.055 49.129 C-120.055 48.469 -120.055 47.809 -120.055 47.129 C-118.405 46.469 -116.755 45.809 -115.055 45.129 C-115.055 44.469 -115.055 43.809 -115.055 43.129 C-109.643 39.129 -109.643 39.129 -107.055 39.129 C-107.055 38.469 -107.055 37.809 -107.055 37.129 C-104.932 35.958 -102.807 34.792 -100.68 33.629 C-100.076 33.296 -99.473 32.962 -98.852 32.618 C-94.281 30.129 -94.281 30.129 -92.055 30.129 C-92.055 29.469 -92.055 28.809 -92.055 28.129 C-87.098 25.787 -82.138 23.452 -77.174 21.125 C-75.46 20.32 -73.749 19.509 -72.039 18.696 C-52.03 9.336 -30.727 2.651 -8.609 1.375 C-5.353 1.062 -3.578 0.003 0 0 Z M44.945 18.129 C45.875 19.282 46.814 20.426 47.758 21.567 C48.28 22.205 48.802 22.843 49.34 23.5 C50.954 25.384 50.954 25.384 53.945 26.129 C54.63 27.453 55.294 28.788 55.945 30.129 C57.862 32.38 57.862 32.38 59.945 34.129 C60.605 34.129 61.265 34.129 61.945 34.129 C62.213 34.728 62.482 35.326 62.758 35.942 C63.944 38.128 65.041 39.543 66.945 41.129 C67.605 41.129 68.265 41.129 68.945 41.129 C69.193 41.707 69.44 42.284 69.695 42.879 C71.128 45.459 72.73 47.191 74.945 49.129 C75.605 49.129 76.265 49.129 76.945 49.129 C77.213 49.728 77.482 50.326 77.758 50.942 C78.944 53.128 80.041 54.543 81.945 56.129 C82.605 56.129 83.265 56.129 83.945 56.129 C84.172 56.686 84.399 57.243 84.633 57.817 C86.321 60.791 88.412 62.849 90.945 65.129 C91.605 65.129 92.265 65.129 92.945 65.129 C93.193 65.748 93.44 66.367 93.695 67.004 C94.767 69.267 94.767 69.267 96.945 70.129 C99.507 71.41 99.71 72.586 100.945 75.129 C103.362 77.88 103.362 77.88 105.945 80.129 C106.605 80.129 107.265 80.129 107.945 80.129 C108.193 80.748 108.44 81.367 108.695 82.004 C109.767 84.267 109.767 84.267 111.945 85.129 C113.945 86.129 113.945 86.129 114.762 87.867 C116.345 90.893 118.472 92.916 120.883 95.333 C121.604 96.056 121.604 96.056 122.34 96.795 C123.353 97.809 124.368 98.821 125.386 99.831 C126.947 101.381 128.497 102.942 130.047 104.504 C131.033 105.489 132.02 106.474 133.008 107.458 C134.356 108.802 134.356 108.802 135.73 110.173 C137.703 112.35 137.703 112.35 139.945 112.129 C140.162 112.671 140.378 113.212 140.602 113.77 C142.41 116.946 144.863 119.337 147.445 121.879 C147.944 122.386 148.443 122.893 148.957 123.415 C151.476 126.257 151.476 126.257 154.945 127.129 C155.203 127.712 155.461 128.295 155.727 128.895 C157.044 131.31 158.496 132.947 160.445 134.879 C161.054 135.493 161.662 136.107 162.289 136.739 C163.84 138.344 163.84 138.344 165.945 138.129 C166.162 138.671 166.378 139.212 166.602 139.77 C168.41 142.946 170.863 145.337 173.445 147.879 C173.944 148.386 174.443 148.893 174.957 149.415 C177.476 152.257 177.476 152.257 180.945 153.129 C181.193 153.748 181.44 154.367 181.695 155.004 C182.767 157.267 182.767 157.267 184.945 158.129 C187.507 159.41 187.71 160.586 188.945 163.129 C191.362 165.88 191.362 165.88 193.945 168.129 C194.605 168.129 195.265 168.129 195.945 168.129 C196.162 168.671 196.378 169.212 196.602 169.77 C198.41 172.946 200.863 175.337 203.445 177.879 C203.944 178.386 204.443 178.893 204.957 179.415 C207.476 182.257 207.476 182.257 210.945 183.129 C211.213 183.728 211.482 184.326 211.758 184.942 C212.944 187.128 214.041 188.543 215.945 190.129 C216.605 190.129 217.265 190.129 217.945 190.129 C218.162 190.671 218.378 191.212 218.602 191.77 C220.41 194.946 222.863 197.337 225.445 199.879 C225.944 200.386 226.443 200.893 226.957 201.415 C229.476 204.257 229.476 204.257 232.945 205.129 C233.275 205.789 233.605 206.449 233.945 207.129 C232.679 186.513 226.843 167.612 219.383 148.504 C218.912 147.294 218.441 146.084 217.955 144.837 C215.637 138.999 213.27 133.465 209.945 128.129 C209.285 128.129 208.625 128.129 207.945 128.129 C207.718 127.325 207.492 126.521 207.258 125.692 C205.609 121.217 203.34 117.242 200.945 113.129 C200.285 113.129 199.625 113.129 198.945 113.129 C198.862 112.588 198.778 112.047 198.691 111.489 C197.687 108.312 195.971 106.063 194.008 103.379 C193.298 102.395 192.587 101.41 191.855 100.395 C191.225 99.647 190.595 98.9 189.945 98.129 C189.285 98.129 188.625 98.129 187.945 98.129 C187.706 97.411 187.466 96.693 187.219 95.954 C185.757 92.711 183.962 90.568 181.57 87.942 C180.799 87.082 180.029 86.222 179.234 85.336 C177.168 83.345 175.575 82.204 172.945 81.129 C172.945 80.469 172.945 79.809 172.945 79.129 C172.285 79.129 171.625 79.129 170.945 79.129 C170.945 78.469 170.945 77.809 170.945 77.129 C170.285 77.129 169.625 77.129 168.945 77.129 C168.694 76.544 168.443 75.959 168.184 75.356 C165.537 70.597 160.795 67.016 155.945 64.692 C154.955 64.413 154.955 64.413 153.945 64.129 C153.945 63.469 153.945 62.809 153.945 62.129 C151.754 60.302 149.566 58.61 147.258 56.942 C146.585 56.452 145.913 55.963 145.22 55.458 C135.285 47.773 135.285 47.773 123.945 44.129 C123.945 43.469 123.945 42.809 123.945 42.129 C114.641 37.136 105.239 33.231 95.293 29.708 C92.574 28.744 89.986 27.71 87.336 26.551 C78.171 22.708 68.025 21.028 58.258 19.379 C57.504 19.252 56.75 19.124 55.973 18.993 C52.265 18.397 48.703 17.981 44.945 18.129 Z M-14.805 19.504 C-15.61 19.642 -16.416 19.78 -17.246 19.922 C-24.696 21.214 -31.875 22.504 -38.922 25.311 C-40.993 26.106 -43.073 26.805 -45.184 27.485 C-50.195 29.144 -55.094 31.038 -59.992 33.004 C-60.865 33.354 -61.738 33.703 -62.638 34.063 C-68.593 36.473 -74.414 39.042 -80.055 42.129 C-80.055 42.789 -80.055 43.449 -80.055 44.129 C-81.296 44.485 -81.296 44.485 -82.562 44.848 C-86.674 46.356 -90.197 48.365 -93.93 50.629 C-94.962 51.235 -94.962 51.235 -96.016 51.852 C-97.733 52.884 -99.399 54.001 -101.055 55.129 C-101.055 55.789 -101.055 56.449 -101.055 57.129 C-101.797 57.398 -102.54 57.666 -103.305 57.942 C-105.945 59.082 -107.91 60.223 -110.055 62.129 C-110.055 62.789 -110.055 63.449 -110.055 64.129 C-110.756 64.35 -111.457 64.57 -112.18 64.797 C-115.725 66.44 -118.264 68.775 -121.055 71.442 C-121.817 72.152 -121.817 72.152 -122.594 72.877 C-125.814 75.896 -128.941 79 -132.055 82.129 C-132.967 83.007 -132.967 83.007 -133.898 83.903 C-137.826 87.701 -141.082 91.536 -144.055 96.129 C-144.055 96.789 -144.055 97.449 -144.055 98.129 C-144.715 98.129 -145.375 98.129 -146.055 98.129 C-147.873 100.037 -147.873 100.037 -149.68 102.442 C-150.311 103.242 -150.943 104.043 -151.594 104.868 C-153.326 107.101 -153.326 107.101 -153.055 110.129 C-153.715 110.129 -154.375 110.129 -155.055 110.129 C-155.055 111.119 -155.055 112.109 -155.055 113.129 C-155.715 113.129 -156.375 113.129 -157.055 113.129 C-158.226 115.252 -159.392 117.377 -160.555 119.504 C-160.889 120.108 -161.222 120.711 -161.566 121.333 C-163.442 124.544 -163.442 124.544 -164.055 128.129 C-164.715 128.129 -165.375 128.129 -166.055 128.129 C-177.806 151.685 -190.548 180.274 -190.055 207.129 C-189.56 206.139 -189.56 206.139 -189.055 205.129 C-188.493 204.872 -187.931 204.614 -187.352 204.348 C-184.15 202.649 -181.822 200.186 -179.305 197.629 C-178.545 196.881 -178.545 196.881 -177.77 196.118 C-174.927 193.599 -174.927 193.599 -174.055 190.129 C-173.157 189.727 -173.157 189.727 -172.242 189.317 C-170.056 188.13 -168.641 187.033 -167.055 185.129 C-167.055 184.469 -167.055 183.809 -167.055 183.129 C-166.498 182.923 -165.941 182.717 -165.367 182.504 C-162.195 180.618 -160.377 177.975 -158.055 175.129 C-156.726 174.124 -155.394 173.121 -154.055 172.129 C-154.055 171.469 -154.055 170.809 -154.055 170.129 C-153.395 170.129 -152.735 170.129 -152.055 170.129 C-152.055 169.469 -152.055 168.809 -152.055 168.129 C-151.395 168.129 -150.735 168.129 -150.055 168.129 C-150.055 167.469 -150.055 166.809 -150.055 166.129 C-149.457 165.861 -148.858 165.593 -148.242 165.317 C-146.056 164.13 -144.641 163.033 -143.055 161.129 C-143.055 160.469 -143.055 159.809 -143.055 159.129 C-142.436 158.882 -141.817 158.634 -141.18 158.379 C-138.704 156.923 -138.103 155.751 -137.055 153.129 C-136.395 153.129 -135.735 153.129 -135.055 153.129 C-135.055 152.469 -135.055 151.809 -135.055 151.129 C-134.457 150.861 -133.858 150.593 -133.242 150.317 C-131.056 149.13 -129.641 148.033 -128.055 146.129 C-128.055 145.469 -128.055 144.809 -128.055 144.129 C-127.395 144.129 -126.735 144.129 -126.055 144.129 C-126.055 143.469 -126.055 142.809 -126.055 142.129 C-124.735 141.469 -123.415 140.809 -122.055 140.129 C-122.055 139.469 -122.055 138.809 -122.055 138.129 C-121.395 138.129 -120.735 138.129 -120.055 138.129 C-120.055 137.469 -120.055 136.809 -120.055 136.129 C-119.157 135.727 -119.157 135.727 -118.242 135.317 C-116.056 134.13 -114.641 133.033 -113.055 131.129 C-113.055 130.469 -113.055 129.809 -113.055 129.129 C-112.395 129.129 -111.735 129.129 -111.055 129.129 C-111.055 128.469 -111.055 127.809 -111.055 127.129 C-110.395 127.129 -109.735 127.129 -109.055 127.129 C-109.055 126.469 -109.055 125.809 -109.055 125.129 C-108.395 125.129 -107.735 125.129 -107.055 125.129 C-107.055 124.469 -107.055 123.809 -107.055 123.129 C-106.157 122.727 -106.157 122.727 -105.242 122.317 C-103.056 121.13 -101.641 120.033 -100.055 118.129 C-100.055 117.469 -100.055 116.809 -100.055 116.129 C-99.395 116.129 -98.735 116.129 -98.055 116.129 C-98.055 115.469 -98.055 114.809 -98.055 114.129 C-97.395 114.129 -96.735 114.129 -96.055 114.129 C-96.055 113.469 -96.055 112.809 -96.055 112.129 C-95.395 112.129 -94.735 112.129 -94.055 112.129 C-94.055 111.469 -94.055 110.809 -94.055 110.129 C-93.395 110.129 -92.735 110.129 -92.055 110.129 C-92.055 109.469 -92.055 108.809 -92.055 108.129 C-91.096 107.727 -91.096 107.727 -90.117 107.317 C-87.723 106.243 -87.723 106.243 -87.055 103.129 C-86.395 103.129 -85.735 103.129 -85.055 103.129 C-85.055 102.469 -85.055 101.809 -85.055 101.129 C-84.395 101.129 -83.735 101.129 -83.055 101.129 C-83.055 100.469 -83.055 99.809 -83.055 99.129 C-82.395 99.129 -81.735 99.129 -81.055 99.129 C-81.055 98.469 -81.055 97.809 -81.055 97.129 C-80.395 97.129 -79.735 97.129 -79.055 97.129 C-79.055 96.469 -79.055 95.809 -79.055 95.129 C-78.157 94.727 -78.157 94.727 -77.242 94.317 C-75.056 93.13 -73.641 92.033 -72.055 90.129 C-72.055 89.469 -72.055 88.809 -72.055 88.129 C-71.395 88.129 -70.735 88.129 -70.055 88.129 C-70.055 87.469 -70.055 86.809 -70.055 86.129 C-69.395 86.129 -68.735 86.129 -68.055 86.129 C-68.055 85.469 -68.055 84.809 -68.055 84.129 C-67.395 84.129 -66.735 84.129 -66.055 84.129 C-66.055 83.469 -66.055 82.809 -66.055 82.129 C-65.395 82.129 -64.735 82.129 -64.055 82.129 C-64.055 81.469 -64.055 80.809 -64.055 80.129 C-63.457 79.861 -62.858 79.593 -62.242 79.317 C-60.056 78.13 -58.641 77.033 -57.055 75.129 C-57.055 74.469 -57.055 73.809 -57.055 73.129 C-56.395 73.129 -55.735 73.129 -55.055 73.129 C-55.055 72.469 -55.055 71.809 -55.055 71.129 C-54.395 71.129 -53.735 71.129 -53.055 71.129 C-53.055 70.469 -53.055 69.809 -53.055 69.129 C-51.075 68.139 -51.075 68.139 -49.055 67.129 C-49.055 66.469 -49.055 65.809 -49.055 65.129 C-48.457 64.861 -47.858 64.593 -47.242 64.317 C-45.056 63.13 -43.641 62.033 -42.055 60.129 C-42.055 59.469 -42.055 58.809 -42.055 58.129 C-41.395 58.129 -40.735 58.129 -40.055 58.129 C-40.055 57.469 -40.055 56.809 -40.055 56.129 C-39.395 56.129 -38.735 56.129 -38.055 56.129 C-38.055 55.469 -38.055 54.809 -38.055 54.129 C-37.457 53.861 -36.858 53.593 -36.242 53.317 C-34.056 52.13 -32.641 51.033 -31.055 49.129 C-31.055 48.469 -31.055 47.809 -31.055 47.129 C-29.735 46.469 -28.415 45.809 -27.055 45.129 C-27.055 44.469 -27.055 43.809 -27.055 43.129 C-26.395 43.129 -25.735 43.129 -25.055 43.129 C-25.055 42.469 -25.055 41.809 -25.055 41.129 C-24.457 40.861 -23.858 40.593 -23.242 40.317 C-21.056 39.13 -19.641 38.033 -18.055 36.129 C-18.055 35.469 -18.055 34.809 -18.055 34.129 C-17.395 34.129 -16.735 34.129 -16.055 34.129 C-16.055 33.469 -16.055 32.809 -16.055 32.129 C-15.493 31.892 -14.931 31.655 -14.352 31.411 C-11.536 29.84 -9.575 27.915 -7.305 25.629 C-6.505 24.835 -5.706 24.041 -4.883 23.223 C-2.835 21.342 -2.835 21.342 -3.055 19.129 C-2.395 18.799 -1.735 18.469 -1.055 18.129 C-5.758 17.922 -10.19 18.705 -14.805 19.504 Z M12.945 29.129 C13.945 31.129 13.945 31.129 13.945 31.129 Z M29.945 29.129 C29.945 49.589 29.945 70.049 29.945 91.129 C50.405 91.129 70.865 91.129 91.945 91.129 C87.572 86.012 87.572 86.012 82.945 81.129 C82.285 81.129 81.625 81.129 80.945 81.129 C80.945 80.469 80.945 79.809 80.945 79.129 C80.285 79.129 79.625 79.129 78.945 79.129 C78.615 78.139 78.285 77.149 77.945 76.129 C77.285 76.129 76.625 76.129 75.945 76.129 C75.739 75.593 75.533 75.057 75.32 74.504 C73.413 71.21 70.897 68.536 67.945 66.129 C67.285 66.129 66.625 66.129 65.945 66.129 C65.945 65.469 65.945 64.809 65.945 64.129 C64.612 62.463 64.612 62.463 62.945 61.129 C62.285 61.129 61.625 61.129 60.945 61.129 C60.708 60.567 60.471 60.005 60.227 59.426 C58.656 56.61 56.731 54.65 54.445 52.379 C53.651 51.58 52.857 50.781 52.039 49.958 C50.157 47.91 50.157 47.91 47.945 48.129 C47.945 47.469 47.945 46.809 47.945 46.129 C47.285 46.129 46.625 46.129 45.945 46.129 C45.945 45.469 45.945 44.809 45.945 44.129 C45.285 44.129 44.625 44.129 43.945 44.129 C43.718 43.573 43.492 43.016 43.258 42.442 C41.57 39.468 39.479 37.409 36.945 35.129 C36.285 35.129 35.625 35.129 34.945 35.129 C34.945 34.469 34.945 33.809 34.945 33.129 C34.285 33.129 33.625 33.129 32.945 33.129 C32.945 32.469 32.945 31.809 32.945 31.129 C32.285 31.129 31.625 31.129 30.945 31.129 C30.615 30.469 30.285 29.809 29.945 29.129 Z M10.945 31.129 C10.945 31.789 10.945 32.449 10.945 33.129 C10.285 33.129 9.625 33.129 8.945 33.129 C8.945 33.789 8.945 34.449 8.945 35.129 C8.363 35.387 7.78 35.645 7.18 35.911 C4.765 37.228 3.128 38.68 1.195 40.629 C0.582 41.238 -0.032 41.846 -0.664 42.473 C-2.269 44.024 -2.269 44.024 -2.055 46.129 C-2.715 46.129 -3.375 46.129 -4.055 46.129 C-4.055 46.789 -4.055 47.449 -4.055 48.129 C-4.617 48.367 -5.179 48.604 -5.758 48.848 C-8.574 50.419 -10.534 52.344 -12.805 54.629 C-13.604 55.423 -14.403 56.218 -15.227 57.036 C-17.274 58.917 -17.274 58.917 -17.055 61.129 C-17.715 61.129 -18.375 61.129 -19.055 61.129 C-20.721 62.463 -20.721 62.463 -22.055 64.129 C-22.055 64.789 -22.055 65.449 -22.055 66.129 C-22.591 66.336 -23.127 66.542 -23.68 66.754 C-26.974 68.662 -29.648 71.178 -32.055 74.129 C-32.055 74.789 -32.055 75.449 -32.055 76.129 C-33.54 76.624 -33.54 76.624 -35.055 77.129 C-35.055 77.789 -35.055 78.449 -35.055 79.129 C-35.715 79.129 -36.375 79.129 -37.055 79.129 C-37.055 79.789 -37.055 80.449 -37.055 81.129 C-37.637 81.386 -38.22 81.642 -38.82 81.907 C-41.252 83.237 -42.872 84.714 -44.805 86.692 C-45.725 87.622 -45.725 87.622 -46.664 88.571 C-48.166 89.906 -48.166 89.906 -48.055 91.129 C-27.925 91.129 -7.795 91.129 12.945 91.129 C13.11 85.086 13.275 79.043 13.445 72.817 C13.498 70.954 13.55 69.091 13.604 67.171 C13.836 58.602 14.003 50.034 14.039 41.461 C14.046 40.652 14.052 39.843 14.059 39.009 C14.161 34.938 14.161 34.938 12.945 31.129 C12.285 31.129 11.625 31.129 10.945 31.129 Z M-62.055 109.129 C-62.385 130.249 -62.715 151.369 -63.055 173.129 C-61.966 174.443 -61.966 174.443 -59.308 174.252 C-58.07 174.252 -56.832 174.251 -55.557 174.25 C-54.526 174.251 -54.526 174.251 -53.475 174.252 C-51.156 174.254 -48.838 174.248 -46.519 174.243 C-44.864 174.243 -43.209 174.243 -41.553 174.243 C-37.045 174.244 -32.537 174.238 -28.029 174.231 C-23.323 174.225 -18.617 174.224 -13.912 174.223 C-4.994 174.22 3.924 174.211 12.842 174.201 C22.991 174.19 33.141 174.185 43.291 174.18 C64.176 174.169 85.061 174.152 105.945 174.129 C106.852 170.758 107.072 167.794 107.075 164.291 C107.079 162.529 107.079 162.529 107.084 160.732 C107.082 159.468 107.08 158.205 107.078 156.903 C107.079 155.604 107.08 154.305 107.081 152.966 C107.082 150.221 107.08 147.475 107.076 144.73 C107.07 141.208 107.073 137.686 107.079 134.164 C107.084 130.806 107.081 127.448 107.078 124.09 C107.081 122.189 107.081 122.189 107.084 120.249 C107.081 119.081 107.078 117.913 107.075 116.709 C107.074 115.677 107.073 114.646 107.072 113.583 C107.109 111.123 107.109 111.123 105.945 109.129 C50.505 109.129 -4.935 109.129 -62.055 109.129 Z M-80.055 122.129 C-80.055 122.789 -80.055 123.449 -80.055 124.129 C-80.715 124.129 -81.375 124.129 -82.055 124.129 C-82.055 124.789 -82.055 125.449 -82.055 126.129 C-82.715 126.129 -83.375 126.129 -84.055 126.129 C-84.055 126.789 -84.055 127.449 -84.055 128.129 C-84.637 128.387 -85.22 128.645 -85.82 128.911 C-88.235 130.228 -89.872 131.68 -91.805 133.629 C-92.418 134.238 -93.032 134.846 -93.664 135.473 C-95.269 137.024 -95.269 137.024 -95.055 139.129 C-95.715 139.129 -96.375 139.129 -97.055 139.129 C-97.055 139.789 -97.055 140.449 -97.055 141.129 C-97.715 141.129 -98.375 141.129 -99.055 141.129 C-99.055 141.789 -99.055 142.449 -99.055 143.129 C-99.715 143.129 -100.375 143.129 -101.055 143.129 C-101.055 143.789 -101.055 144.449 -101.055 145.129 C-101.612 145.356 -102.168 145.583 -102.742 145.817 C-105.716 147.505 -107.775 149.596 -110.055 152.129 C-110.055 152.789 -110.055 153.449 -110.055 154.129 C-110.715 154.129 -111.375 154.129 -112.055 154.129 C-112.055 154.789 -112.055 155.449 -112.055 156.129 C-112.715 156.129 -113.375 156.129 -114.055 156.129 C-114.055 156.789 -114.055 157.449 -114.055 158.129 C-114.715 158.129 -115.375 158.129 -116.055 158.129 C-116.055 158.789 -116.055 159.449 -116.055 160.129 C-116.637 160.387 -117.22 160.645 -117.82 160.911 C-120.235 162.228 -121.872 163.68 -123.805 165.629 C-124.418 166.238 -125.032 166.846 -125.664 167.473 C-127.269 169.024 -127.269 169.024 -127.055 171.129 C-127.715 171.129 -128.375 171.129 -129.055 171.129 C-129.055 171.789 -129.055 172.449 -129.055 173.129 C-129.617 173.367 -130.179 173.604 -130.758 173.848 C-133.574 175.419 -135.534 177.344 -137.805 179.629 C-138.604 180.423 -139.403 181.218 -140.227 182.036 C-142.274 183.917 -142.274 183.917 -142.055 186.129 C-142.715 186.129 -143.375 186.129 -144.055 186.129 C-145.721 187.463 -145.721 187.463 -147.055 189.129 C-147.055 189.789 -147.055 190.449 -147.055 191.129 C-147.617 191.367 -148.179 191.604 -148.758 191.848 C-151.574 193.419 -153.534 195.344 -155.805 197.629 C-156.604 198.423 -157.403 199.218 -158.227 200.036 C-160.274 201.917 -160.274 201.917 -160.055 204.129 C-160.715 204.129 -161.375 204.129 -162.055 204.129 C-162.055 204.789 -162.055 205.449 -162.055 206.129 C-162.637 206.387 -163.22 206.645 -163.82 206.911 C-166.235 208.228 -167.872 209.68 -169.805 211.629 C-170.418 212.238 -171.032 212.846 -171.664 213.473 C-173.269 215.024 -173.269 215.024 -173.055 217.129 C-173.715 217.129 -174.375 217.129 -175.055 217.129 C-175.055 217.789 -175.055 218.449 -175.055 219.129 C-175.715 219.129 -176.375 219.129 -177.055 219.129 C-177.055 219.789 -177.055 220.449 -177.055 221.129 C-177.715 221.129 -178.375 221.129 -179.055 221.129 C-179.055 221.789 -179.055 222.449 -179.055 223.129 C-179.639 223.387 -180.223 223.645 -180.824 223.911 C-183.232 225.226 -184.829 226.671 -186.742 228.629 C-187.344 229.238 -187.946 229.846 -188.566 230.473 C-193.275 235.713 -190.826 245.182 -190.488 251.743 C-188.754 279.879 -178.971 307.253 -166.055 332.129 C-165.395 332.129 -164.735 332.129 -164.055 332.129 C-163.828 332.934 -163.601 333.738 -163.367 334.567 C-161.718 339.042 -159.449 343.017 -157.055 347.129 C-156.395 347.129 -155.735 347.129 -155.055 347.129 C-155.055 348.119 -155.055 349.109 -155.055 350.129 C-154.395 350.129 -153.735 350.129 -153.055 350.129 C-152.95 350.702 -152.846 351.274 -152.738 351.864 C-151.943 354.499 -150.776 356.19 -149.117 358.379 C-148.593 359.086 -148.068 359.792 -147.527 360.52 C-147.041 361.051 -146.555 361.582 -146.055 362.129 C-145.395 362.129 -144.735 362.129 -144.055 362.129 C-143.814 362.85 -143.573 363.571 -143.324 364.313 C-141.878 367.522 -140.121 369.605 -137.742 372.192 C-136.983 373.028 -136.224 373.865 -135.441 374.727 C-133.106 377.169 -133.106 377.169 -130.465 379.2 C-128.234 380.986 -126.59 382.728 -124.805 384.942 C-121.075 389.311 -116.873 392.989 -112.055 396.129 C-111.395 396.129 -110.735 396.129 -110.055 396.129 C-110.055 396.789 -110.055 397.449 -110.055 398.129 C-108.568 399.49 -108.568 399.49 -106.68 400.754 C-106.053 401.2 -105.427 401.646 -104.781 402.106 C-103.102 403.299 -103.102 403.299 -101.055 403.129 C-101.055 403.789 -101.055 404.449 -101.055 405.129 C-98.895 406.605 -98.895 406.605 -96.055 408.129 C-94.893 408.808 -93.733 409.489 -92.574 410.172 C-91.339 410.888 -90.103 411.603 -88.867 412.317 C-88.239 412.685 -87.61 413.053 -86.963 413.432 C-83.721 415.458 -83.721 415.458 -80.055 416.129 C-79.725 416.789 -79.395 417.449 -79.055 418.129 C-79.055 320.449 -79.055 222.769 -79.055 122.129 C-79.385 122.129 -79.715 122.129 -80.055 122.129 Z M122.945 122.129 C122.945 163.709 122.945 205.289 122.945 248.129 C124.265 246.809 125.585 245.489 126.945 244.129 C128.43 243.634 128.43 243.634 129.945 243.129 C129.945 242.469 129.945 241.809 129.945 241.129 C130.605 241.129 131.265 241.129 131.945 241.129 C132.605 240.139 133.265 239.149 133.945 238.129 C135.43 237.634 135.43 237.634 136.945 237.129 C136.945 236.469 136.945 235.809 136.945 235.129 C137.605 235.129 138.265 235.129 138.945 235.129 C140.65 233.501 142.309 231.826 143.945 230.129 C145.872 228.303 147.805 226.489 149.758 224.692 C150.278 224.212 150.799 223.732 151.335 223.237 C154.919 219.969 158.611 216.995 162.617 214.25 C163.055 213.881 163.494 213.511 163.945 213.129 C163.945 212.469 163.945 211.809 163.945 211.129 C164.935 210.799 165.925 210.469 166.945 210.129 C166.945 209.469 166.945 208.809 166.945 208.129 C168.945 207.129 170.945 206.129 172.945 205.129 C172.945 204.469 172.945 203.809 172.945 203.129 C173.476 202.915 174.007 202.701 174.555 202.481 C177.853 200.616 180.455 198.087 183.195 195.504 C183.75 194.989 184.304 194.473 184.875 193.942 C186.236 192.675 187.591 191.403 188.945 190.129 C188.615 188.809 188.285 187.489 187.945 186.129 C187.285 186.129 186.625 186.129 185.945 186.129 C185.708 185.567 185.471 185.005 185.227 184.426 C183.656 181.61 181.731 179.65 179.445 177.379 C178.651 176.58 177.857 175.781 177.039 174.958 C175.157 172.91 175.157 172.91 172.945 173.129 C172.945 172.469 172.945 171.809 172.945 171.129 C172.285 171.129 171.625 171.129 170.945 171.129 C170.945 170.469 170.945 169.809 170.945 169.129 C170.285 169.129 169.625 169.129 168.945 169.129 C168.718 168.573 168.492 168.016 168.258 167.442 C166.57 164.468 164.479 162.409 161.945 160.129 C161.285 160.129 160.625 160.129 159.945 160.129 C159.945 159.469 159.945 158.809 159.945 158.129 C159.285 158.129 158.625 158.129 157.945 158.129 C157.945 157.469 157.945 156.809 157.945 156.129 C157.285 156.129 156.625 156.129 155.945 156.129 C155.945 155.469 155.945 154.809 155.945 154.129 C155.285 154.129 154.625 154.129 153.945 154.129 C153.688 153.547 153.43 152.964 153.164 152.364 C151.847 149.949 150.394 148.312 148.445 146.379 C147.837 145.766 147.228 145.152 146.602 144.52 C145.05 142.915 145.05 142.915 142.945 143.129 C142.945 142.469 142.945 141.809 142.945 141.129 C142.285 141.129 141.625 141.129 140.945 141.129 C140.945 140.469 140.945 139.809 140.945 139.129 C140.285 139.129 139.625 139.129 138.945 139.129 C138.688 138.547 138.43 137.964 138.164 137.364 C136.847 134.949 135.394 133.312 133.445 131.379 C132.837 130.766 132.228 130.152 131.602 129.52 C130.05 127.915 130.05 127.915 127.945 128.129 C127.945 127.469 127.945 126.809 127.945 126.129 C127.285 126.129 126.625 126.129 125.945 126.129 C125.945 125.469 125.945 124.809 125.945 124.129 C125.285 124.129 124.625 124.129 123.945 124.129 C123.615 123.469 123.285 122.809 122.945 122.129 Z M-62.055 191.129 C-62.055 212.249 -62.055 233.369 -62.055 255.129 C-6.615 255.129 48.825 255.129 105.945 255.129 C109.453 234.084 106.945 212.465 106.945 191.129 C51.175 191.129 -4.595 191.129 -62.055 191.129 Z M195.945 207.129 C195.285 207.459 194.625 207.789 193.945 208.129 C193.945 208.789 193.945 209.449 193.945 210.129 C193.285 210.129 192.625 210.129 191.945 210.129 C191.945 210.789 191.945 211.449 191.945 212.129 C191.285 212.129 190.625 212.129 189.945 212.129 C189.945 212.789 189.945 213.449 189.945 214.129 C189.383 214.387 188.821 214.645 188.242 214.911 C185.678 216.271 183.493 217.857 181.195 219.629 C180.396 220.238 179.597 220.846 178.773 221.473 C178.17 222.02 177.567 222.566 176.945 223.129 C176.945 223.789 176.945 224.449 176.945 225.129 C176.347 225.398 175.749 225.666 175.133 225.942 C172.947 227.129 171.532 228.225 169.945 230.129 C169.945 230.789 169.945 231.449 169.945 232.129 C169.347 232.398 168.749 232.666 168.133 232.942 C165.941 233.998 165.941 233.998 164.508 235.567 C162.945 237.129 162.945 237.129 160.605 238.469 C157.889 240.165 156.011 241.93 153.82 244.254 C149.684 248.494 145.288 252.21 140.676 255.918 C137.994 258.09 135.361 260.302 132.758 262.567 C132.022 263.205 131.286 263.843 130.527 264.5 C128.713 265.99 128.713 265.99 128.945 268.129 C128.141 268.398 127.337 268.666 126.508 268.942 C125.239 269.53 125.239 269.53 123.945 270.129 C123.45 271.614 123.45 271.614 122.945 273.129 C120.383 274.317 120.383 274.317 117.945 275.129 C117.945 275.789 117.945 276.449 117.945 277.129 C117.285 277.129 116.625 277.129 115.945 277.129 C115.945 277.789 115.945 278.449 115.945 279.129 C115.394 279.363 114.842 279.596 114.273 279.836 C111.333 281.47 109.155 283.523 106.695 285.817 C105.714 286.724 104.732 287.63 103.75 288.536 C102.824 289.392 101.899 290.248 100.945 291.129 C96.024 295.575 90.97 299.709 85.633 303.649 C85.076 304.137 84.519 304.626 83.945 305.129 C83.945 305.789 83.945 306.449 83.945 307.129 C83.388 307.356 82.832 307.583 82.258 307.817 C79.746 309.107 79.746 309.107 77.445 311.629 C75.266 313.808 73.75 314.987 70.945 316.129 C70.945 316.789 70.945 317.449 70.945 318.129 C70.285 318.129 69.625 318.129 68.945 318.129 C68.945 318.789 68.945 319.449 68.945 320.129 C68.285 320.129 67.625 320.129 66.945 320.129 C66.945 320.789 66.945 321.449 66.945 322.129 C66.373 322.383 65.801 322.637 65.211 322.899 C62.679 324.274 60.819 325.873 58.695 327.817 C55.041 331.139 51.337 334.387 47.574 337.586 C45.716 339.232 45.716 339.232 43.945 342.129 C49.599 346.673 55.272 351.183 61.035 355.586 C62.945 357.129 62.945 357.129 64.512 358.829 C65.993 360.465 65.993 360.465 68.945 360.129 C68.945 360.789 68.945 361.449 68.945 362.129 C71.584 363.912 73.917 365.12 76.945 366.129 C76.945 366.789 76.945 367.449 76.945 368.129 C78.889 369.946 78.889 369.946 81.32 371.754 C82.132 372.386 82.945 373.018 83.781 373.668 C85.786 375.316 85.786 375.316 87.945 375.129 C87.945 375.789 87.945 376.449 87.945 377.129 C89.598 378.153 91.268 379.147 92.945 380.129 C94.866 381.683 96.76 383.269 98.633 384.879 C103.127 388.701 107.743 392.149 112.625 395.469 C115.654 397.637 118.405 400.046 121.156 402.551 C124.59 405.91 124.59 405.91 128.945 407.129 C128.945 407.789 128.945 408.449 128.945 409.129 C131.618 410.522 131.618 410.522 134.945 411.129 C138.131 409.45 138.131 409.45 140.945 407.129 C142.264 406.435 143.592 405.754 144.945 405.129 C144.945 404.469 144.945 403.809 144.945 403.129 C145.688 402.861 146.43 402.593 147.195 402.317 C149.836 401.177 151.801 400.036 153.945 398.129 C153.945 397.469 153.945 396.809 153.945 396.129 C154.482 395.882 155.018 395.634 155.57 395.379 C158.528 393.823 161.243 392.095 163.945 390.129 C163.945 389.469 163.945 388.809 163.945 388.129 C164.935 387.799 165.925 387.469 166.945 387.129 C166.945 386.469 166.945 385.809 166.945 385.129 C167.605 385.129 168.265 385.129 168.945 385.129 C170.454 383.603 170.454 383.603 171.945 381.692 C174.742 378.231 174.742 378.231 176.945 377.129 C176.945 376.469 176.945 375.809 176.945 375.129 C177.605 375.129 178.265 375.129 178.945 375.129 C180.552 373.395 182.083 371.591 183.57 369.754 C184.796 368.258 184.796 368.258 186.047 366.731 C188.142 364.397 188.142 364.397 187.945 362.129 C188.605 362.129 189.265 362.129 189.945 362.129 C191.306 360.643 191.306 360.643 192.57 358.754 C193.016 358.128 193.462 357.501 193.922 356.856 C195.115 355.177 195.115 355.177 194.945 353.129 C195.605 353.129 196.265 353.129 196.945 353.129 C197.935 350.159 197.935 350.159 198.945 347.129 C199.605 347.129 200.265 347.129 200.945 347.129 C202.117 345.007 203.283 342.882 204.445 340.754 C204.779 340.151 205.113 339.548 205.457 338.926 C207.333 335.715 207.333 335.715 207.945 332.129 C208.605 332.129 209.265 332.129 209.945 332.129 C216.291 319.409 221.576 306.656 225.945 293.129 C226.268 292.134 226.268 292.134 226.598 291.119 C227.772 287.472 228.883 283.81 229.945 280.129 C230.159 279.41 230.373 278.691 230.594 277.95 C231.916 273.18 232.359 268.464 232.699 263.547 C232.945 261.129 232.945 261.129 233.945 258.129 C234.08 256.696 234.169 255.259 234.227 253.821 C234.264 252.991 234.301 252.162 234.34 251.307 C234.375 250.444 234.409 249.581 234.445 248.692 C234.514 246.985 234.587 245.278 234.664 243.571 C234.694 242.815 234.725 242.059 234.756 241.28 C234.945 239.129 234.945 239.129 235.588 237.039 C236.235 234.808 236.235 234.808 233.945 232.129 C233.285 232.129 232.625 232.129 231.945 232.129 C231.605 231.294 231.605 231.294 231.258 230.442 C229.57 227.468 227.479 225.409 224.945 223.129 C224.285 223.129 223.625 223.129 222.945 223.129 C222.945 222.469 222.945 221.809 222.945 221.129 C222.285 221.129 221.625 221.129 220.945 221.129 C220.945 220.469 220.945 219.809 220.945 219.129 C220.285 219.129 219.625 219.129 218.945 219.129 C218.945 218.469 218.945 217.809 218.945 217.129 C218.285 217.129 217.625 217.129 216.945 217.129 C216.688 216.547 216.43 215.964 216.164 215.364 C214.847 212.949 213.394 211.312 211.445 209.379 C210.837 208.766 210.228 208.152 209.602 207.52 C208.05 205.915 208.05 205.915 205.945 206.129 C205.945 205.469 205.945 204.809 205.945 204.129 C205.285 204.129 204.625 204.129 203.945 204.129 C203.945 203.469 203.945 202.809 203.945 202.129 C200.498 202.129 198.47 204.973 195.945 207.129 Z M-44.055 272.129 C-39.565 276.621 -39.565 276.621 -34.93 280.942 C-34.267 281.546 -33.605 282.151 -32.922 282.774 C-31.035 284.423 -31.035 284.423 -28.055 284.129 C-28.055 284.789 -28.055 285.449 -28.055 286.129 C-25.093 288.301 -22.548 289.965 -19.055 291.129 C-19.055 291.789 -19.055 292.449 -19.055 293.129 C-18.395 293.129 -17.735 293.129 -17.055 293.129 C-17.055 293.789 -17.055 294.449 -17.055 295.129 C-16.395 295.129 -15.735 295.129 -15.055 295.129 C-15.055 295.789 -15.055 296.449 -15.055 297.129 C-13.693 297.81 -13.693 297.81 -12.305 298.504 C-8.053 300.922 -4.473 304.034 -0.759 307.195 C8.496 315.058 8.496 315.058 18.945 321.129 C18.945 321.789 18.945 322.449 18.945 323.129 C20.588 324.721 20.588 324.721 22.695 326.254 C23.739 327.063 23.739 327.063 24.805 327.887 C27.109 329.464 27.109 329.464 30.945 329.129 C32.988 327.79 32.988 327.79 34.883 325.942 C35.58 325.303 36.278 324.663 36.996 324.004 C38.548 322.511 40.066 320.982 41.57 319.442 C43.945 317.129 43.945 317.129 47.195 315.004 C50.205 313.359 50.205 313.359 50.945 310.129 C52.265 309.436 53.601 308.774 54.945 308.129 C56.502 306.817 58.02 305.457 59.508 304.067 C63.998 299.942 68.636 296.071 73.402 292.27 C76.007 290.14 76.007 290.14 78.453 287.614 C81.593 284.484 85.025 281.88 88.543 279.192 C91.425 276.846 91.425 276.846 94.945 272.129 C49.075 272.129 3.205 272.129 -44.055 272.129 Z M-62.055 282.129 C-63.311 284.641 -63.178 286.342 -63.175 289.153 C-63.176 290.216 -63.178 291.279 -63.179 292.374 C-63.176 293.545 -63.172 294.716 -63.168 295.923 C-63.168 297.152 -63.169 298.381 -63.169 299.648 C-63.168 303.024 -63.163 306.399 -63.156 309.775 C-63.15 313.301 -63.149 316.827 -63.148 320.353 C-63.145 327.033 -63.137 333.712 -63.127 340.392 C-63.116 347.995 -63.11 355.598 -63.105 363.202 C-63.095 378.844 -63.077 394.487 -63.055 410.129 C-61.942 409.501 -60.83 408.872 -59.684 408.225 C-59.059 407.871 -58.433 407.518 -57.788 407.154 C-53.458 404.595 -49.932 401.226 -46.805 397.317 C-45.055 395.129 -45.055 395.129 -42.055 394.129 C-42.055 393.469 -42.055 392.809 -42.055 392.129 C-41.395 392.129 -40.735 392.129 -40.055 392.129 C-40.055 391.469 -40.055 390.809 -40.055 390.129 C-39.312 389.903 -38.57 389.676 -37.805 389.442 C-34.924 388.312 -34.924 388.312 -33.195 385.805 C-31.012 383.076 -28.802 381.155 -26.055 379.004 C-21.881 375.664 -17.897 372.211 -13.992 368.567 C-9.533 364.412 -4.931 360.52 -0.113 356.786 C1.71 355.319 3.31 353.796 4.945 352.129 C6.689 350.608 8.457 349.12 10.227 347.629 C11.874 346.192 13.418 344.693 14.945 343.129 C13.429 338.732 10.009 336.794 6.32 334.317 C1.546 331.018 -2.938 327.64 -7.242 323.735 C-12.533 318.53 -12.533 318.53 -19.055 316.129 C-19.055 315.469 -19.055 314.809 -19.055 314.129 C-20.375 313.799 -21.695 313.469 -23.055 313.129 C-23.055 312.469 -23.055 311.809 -23.055 311.129 C-24.709 309.682 -24.709 309.682 -26.805 308.254 C-29.119 306.585 -31.125 305.057 -33.117 303.004 C-35.236 300.954 -37.503 299.781 -40.078 298.383 C-43.253 296.369 -45.873 293.77 -48.637 291.235 C-54.764 285.369 -54.764 285.369 -62.055 282.129 Z M24.008 358.504 C19.334 362.946 19.334 362.946 16.879 364.106 C14.161 365.545 12.835 367.723 10.945 370.129 C9.214 371.654 7.44 373.133 5.633 374.567 C4.19 375.727 4.19 375.727 2.719 376.911 C1.804 377.643 0.888 378.375 -0.055 379.129 C-2.457 381.078 -4.766 383.044 -7.055 385.129 C-7.055 385.789 -7.055 386.449 -7.055 387.129 C-7.715 387.129 -8.375 387.129 -9.055 387.129 C-9.055 387.789 -9.055 388.449 -9.055 389.129 C-9.618 389.373 -10.181 389.617 -10.762 389.868 C-13.488 391.368 -15.47 393.191 -17.742 395.317 C-21.664 398.921 -25.675 402.251 -29.949 405.426 C-32.179 407.168 -32.179 407.168 -34.469 409.547 C-37.06 412.135 -39.759 414.406 -42.617 416.692 C-45.288 418.829 -47.85 420.925 -50.27 423.344 C-52.055 425.129 -52.055 425.129 -54.055 426.129 C-54.055 426.789 -54.055 427.449 -54.055 428.129 C-55.045 428.624 -55.045 428.624 -56.055 429.129 C-48.601 432.328 -41.068 434.708 -33.242 436.817 C-32.156 437.124 -31.07 437.432 -29.951 437.749 C-23.147 439.594 -16.675 440.59 -9.63 440.929 C-7.055 441.129 -7.055 441.129 -5.055 442.129 C-2.382 442.371 0.267 442.556 2.945 442.692 C4.15 442.754 4.15 442.754 5.379 442.818 C17.251 443.386 29.077 443.309 40.945 442.692 C41.717 442.653 42.49 442.614 43.285 442.573 C47.245 442.401 47.245 442.401 50.945 441.129 C52.878 440.978 54.814 440.864 56.75 440.77 C63.801 440.27 70.28 438.781 77.07 436.879 C78.16 436.592 79.249 436.304 80.371 436.008 C87.597 434.031 94.214 431.398 100.945 428.129 C106.189 425.779 111.479 423.877 116.945 422.129 C116.285 421.799 115.625 421.469 114.945 421.129 C114.945 420.469 114.945 419.809 114.945 419.129 C113.258 417.648 113.258 417.648 111.133 416.192 C109.11 414.751 107.209 413.396 105.461 411.629 C103.629 409.816 101.659 408.485 99.508 407.067 C98.746 406.56 97.984 406.054 97.199 405.532 C95.018 404.098 95.018 404.098 92.785 403.196 C90.461 401.849 90.117 400.504 88.945 398.129 C86.99 396.542 86.99 396.542 84.695 395.192 C81.793 393.355 79.097 391.511 76.508 389.254 C74.244 386.917 74.244 386.917 71.945 387.129 C71.945 386.469 71.945 385.809 71.945 385.129 C70.563 383.813 70.563 383.813 68.727 382.52 C68.041 382.012 67.355 381.504 66.648 380.981 C65.921 380.452 65.194 379.924 64.445 379.379 C63.039 378.343 61.633 377.306 60.227 376.27 C59.524 375.758 58.821 375.245 58.098 374.717 C56.62 373.627 55.154 372.521 53.699 371.401 C52.986 370.852 52.274 370.304 51.539 369.739 C50.896 369.238 50.254 368.738 49.592 368.222 C47.997 366.945 47.997 366.945 45.945 367.129 C45.945 366.469 45.945 365.809 45.945 365.129 C45.285 365.129 44.625 365.129 43.945 365.129 C43.945 364.469 43.945 363.809 43.945 363.129 C42.536 362.156 41.12 361.191 39.668 360.282 C37.897 359.097 36.353 357.791 34.758 356.379 C29.803 352.415 28.096 354.607 24.008 358.504 Z " fill="#8D0104" transform="translate(228.0546875,19.87060546875)"/>
<path d="M0 0 C1.245 0.001 2.491 0.002 3.774 0.003 C4.465 0.002 5.156 0.001 5.868 0 C8.2 -0.001 10.532 0.004 12.865 0.01 C14.53 0.01 16.195 0.01 17.86 0.009 C22.395 0.009 26.93 0.015 31.465 0.022 C36.199 0.028 40.933 0.028 45.667 0.03 C54.638 0.033 63.608 0.041 72.579 0.051 C82.79 0.062 93 0.068 103.21 0.073 C124.219 0.083 145.228 0.101 166.238 0.123 C166.238 0.453 166.238 0.783 166.238 1.123 C110.798 1.123 55.358 1.123 -1.762 1.123 C-1.762 22.243 -1.762 43.363 -1.762 65.123 C53.678 65.123 109.118 65.123 166.238 65.123 C166.238 47.633 166.238 30.143 166.238 12.123 C166.568 12.123 166.898 12.123 167.238 12.123 C167.526 17.76 167.811 23.398 168.092 29.036 C168.188 30.949 168.285 32.863 168.383 34.776 C169.696 60.432 169.696 60.432 169.238 64.123 C167.238 66.123 167.238 66.123 164.339 66.372 C163.089 66.371 161.838 66.371 160.55 66.37 C159.855 66.373 159.16 66.375 158.443 66.378 C156.102 66.383 153.762 66.375 151.421 66.366 C149.747 66.367 148.074 66.369 146.4 66.372 C141.847 66.377 137.293 66.369 132.74 66.359 C127.984 66.35 123.228 66.352 118.471 66.352 C110.484 66.351 102.497 66.342 94.51 66.329 C85.262 66.313 76.015 66.308 66.767 66.309 C57.886 66.309 49.006 66.304 40.126 66.296 C36.339 66.292 32.552 66.29 28.766 66.29 C24.311 66.289 19.857 66.283 15.402 66.273 C13.763 66.27 12.123 66.269 10.484 66.269 C8.255 66.27 6.027 66.264 3.798 66.257 C2.548 66.255 1.298 66.253 0.01 66.252 C-2.762 66.123 -2.762 66.123 -3.762 65.123 C-3.891 63.453 -3.951 61.778 -3.984 60.104 C-4.007 59.031 -4.03 57.959 -4.054 56.855 C-4.074 55.685 -4.093 54.516 -4.114 53.311 C-4.137 52.113 -4.16 50.915 -4.184 49.68 C-4.232 47.135 -4.277 44.589 -4.32 42.043 C-4.387 38.167 -4.465 34.292 -4.544 30.416 C-4.589 27.943 -4.633 25.471 -4.676 22.998 C-4.7 21.845 -4.724 20.691 -4.749 19.503 C-4.845 13.275 -4.694 7.288 -3.762 1.123 C-2.762 0.123 -2.762 0.123 0 0 Z " fill="#420101" transform="translate(167.76238346099854,209.87695217132568)"/>
<path d="M0 0 C22.018 -0.023 44.035 -0.041 66.053 -0.052 C76.275 -0.057 86.498 -0.064 96.72 -0.075 C105.626 -0.085 114.533 -0.092 123.439 -0.094 C128.158 -0.095 132.877 -0.098 137.596 -0.106 C142.032 -0.112 146.469 -0.115 150.905 -0.113 C152.538 -0.113 154.171 -0.115 155.804 -0.119 C158.024 -0.124 160.244 -0.123 162.464 -0.12 C163.709 -0.121 164.955 -0.122 166.238 -0.123 C169 0 169 0 170 1 C170.094 3.025 170.117 5.053 170.114 7.08 C170.113 8.382 170.113 9.683 170.113 11.024 C170.108 12.455 170.103 13.885 170.098 15.316 C170.096 16.772 170.094 18.228 170.093 19.684 C170.09 23.523 170.08 27.361 170.069 31.2 C170.058 35.115 170.054 39.029 170.049 42.943 C170.038 50.629 170.021 58.314 170 66 C169.34 65.67 168.68 65.34 168 65 C168 43.88 168 22.76 168 1 C112.56 1 57.12 1 0 1 C0 0.67 0 0.34 0 0 Z M-1 1 C-0.67 1 -0.34 1 0 1 C0 22.45 0 43.9 0 66 C-0.99 66 -1.98 66 -3 66 C-3.046 58.263 -3.082 50.527 -3.104 42.79 C-3.114 39.197 -3.128 35.605 -3.151 32.012 C-3.173 28.543 -3.185 25.074 -3.19 21.605 C-3.195 19.642 -3.211 17.678 -3.227 15.714 C-3.227 14.514 -3.227 13.313 -3.227 12.075 C-3.231 11.021 -3.236 9.966 -3.241 8.879 C-2.991 5.889 -2.259 3.707 -1 1 Z " fill="#61090B" transform="translate(166,128)"/>
<path d="M0 0 C2.396 -0.372 2.396 -0.372 5.466 -0.367 C6.627 -0.373 7.788 -0.379 8.984 -0.384 C10.904 -0.371 10.904 -0.371 12.863 -0.356 C14.22 -0.357 15.577 -0.359 16.933 -0.363 C20.623 -0.368 24.313 -0.354 28.003 -0.337 C31.859 -0.322 35.715 -0.323 39.572 -0.322 C46.048 -0.319 52.524 -0.304 59.001 -0.281 C67.321 -0.252 75.641 -0.242 83.96 -0.238 C91.104 -0.234 98.247 -0.221 105.391 -0.207 C107.691 -0.203 109.992 -0.2 112.293 -0.197 C115.904 -0.193 119.516 -0.182 123.127 -0.168 C125.09 -0.161 127.053 -0.159 129.016 -0.158 C130.757 -0.149 130.757 -0.149 132.534 -0.14 C133.547 -0.137 134.56 -0.134 135.604 -0.131 C138 0 138 0 140 1 C139.812 2.813 139.812 2.813 139 5 C136.438 6.75 136.438 6.75 134 8 C134.66 6.68 135.32 5.36 136 4 C67.69 3.505 67.69 3.505 -2 3 C-1.34 2.01 -0.68 1.02 0 0 Z M130 10 C130.66 10.33 131.32 10.66 132 11 C130.02 12.98 128.04 14.96 126 17 C125.01 16.67 124.02 16.34 123 16 C125.31 14.02 127.62 12.04 130 10 Z " fill="#480507" transform="translate(185,289)"/>
<path d="M0 0 C4.136 1.631 6.9 4.632 9.962 7.735 C10.548 8.32 11.134 8.906 11.737 9.509 C13.668 11.441 15.592 13.381 17.516 15.32 C18.855 16.663 20.194 18.005 21.534 19.347 C25.057 22.878 28.573 26.414 32.088 29.951 C35.678 33.561 39.273 37.165 42.867 40.77 C49.917 47.841 56.961 54.918 64 62 C63.67 62.99 63.34 63.98 63 65 C54.803 65.023 46.606 65.041 38.409 65.052 C34.603 65.057 30.798 65.064 26.992 65.075 C23.322 65.086 19.652 65.092 15.982 65.095 C14.579 65.097 13.176 65.1 11.773 65.106 C9.814 65.113 7.856 65.113 5.897 65.114 C4.78 65.116 3.663 65.118 2.512 65.12 C0 65 0 65 -1 64 C-1.099 62.042 -1.128 60.08 -1.129 58.119 C-1.133 56.861 -1.136 55.603 -1.139 54.307 C-1.137 52.923 -1.135 51.54 -1.133 50.156 C-1.133 48.748 -1.134 47.339 -1.136 45.93 C-1.137 42.975 -1.135 40.019 -1.13 37.063 C-1.125 33.266 -1.128 29.47 -1.134 25.673 C-1.138 22.763 -1.136 19.853 -1.134 16.943 C-1.133 15.543 -1.134 14.143 -1.136 12.743 C-1.139 10.789 -1.134 8.835 -1.129 6.881 C-1.129 5.767 -1.128 4.653 -1.127 3.505 C-1 1 -1 1 0 0 Z M0 1 C0 21.46 0 41.92 0 63 C20.46 63 40.92 63 62 63 C57.626 57.883 57.626 57.883 53 53 C52.34 53 51.68 53 51 53 C51 52.34 51 51.68 51 51 C50.34 51 49.68 51 49 51 C48.67 50.01 48.34 49.02 48 48 C47.34 48 46.68 48 46 48 C45.794 47.464 45.587 46.928 45.375 46.375 C43.467 43.08 40.952 40.406 38 38 C37.34 38 36.68 38 36 38 C36 37.34 36 36.68 36 36 C34.667 34.333 34.667 34.333 33 33 C32.34 33 31.68 33 31 33 C30.763 32.438 30.526 31.876 30.281 31.297 C28.711 28.481 26.785 26.52 24.5 24.25 C23.706 23.451 22.912 22.652 22.094 21.828 C20.212 19.781 20.212 19.781 18 20 C18 19.34 18 18.68 18 18 C17.34 18 16.68 18 16 18 C16 17.34 16 16.68 16 16 C15.34 16 14.68 16 14 16 C13.773 15.443 13.546 14.886 13.312 14.312 C11.624 11.338 9.533 9.28 7 7 C6.34 7 5.68 7 5 7 C5 6.34 5 5.68 5 5 C4.34 5 3.68 5 3 5 C3 4.34 3 3.68 3 3 C2.34 3 1.68 3 1 3 C0.67 2.34 0.34 1.68 0 1 Z " fill="#4D0609" transform="translate(258,48)"/>
<path d="M0 0 C0.33 0 0.66 0 1 0 C1.023 7.806 1.041 15.611 1.052 23.417 C1.057 27.041 1.064 30.666 1.075 34.29 C1.086 37.785 1.092 41.279 1.095 44.774 C1.098 46.762 1.105 48.751 1.113 50.739 C1.113 51.94 1.113 53.141 1.114 54.379 C1.116 55.442 1.118 56.506 1.12 57.602 C1 60 1 60 0 61 C-1.964 61.094 -3.931 61.117 -5.897 61.114 C-7.158 61.113 -8.419 61.113 -9.719 61.113 C-11.105 61.108 -12.492 61.103 -13.879 61.098 C-15.29 61.096 -16.701 61.094 -18.112 61.093 C-21.832 61.09 -25.553 61.08 -29.273 61.069 C-33.067 61.058 -36.861 61.054 -40.654 61.049 C-48.103 61.038 -55.551 61.021 -63 61 C-63 57 -63 57 -61.469 55.078 C-60.819 54.475 -60.169 53.872 -59.5 53.25 C-58.525 52.33 -58.525 52.33 -57.531 51.391 C-57.026 50.932 -56.521 50.473 -56 50 C-55.34 50.33 -54.68 50.66 -54 51 C-56.31 53.31 -58.62 55.62 -61 58 C-31.3 58.495 -31.3 58.495 -1 59 C-1.021 52.977 -1.041 46.955 -1.062 40.75 C-1.086 27.139 -0.989 13.583 0 0 Z " fill="#4F0507" transform="translate(242,52)"/>
<path d="M0 0 C0.99 0.495 0.99 0.495 2 1 C1.01 1.495 1.01 1.495 0 2 C0 1.34 0 0.68 0 0 Z M-2 2 C-1.01 2.495 -1.01 2.495 0 3 C-0.99 3.495 -0.99 3.495 -2 4 C-2 3.34 -2 2.68 -2 2 Z M-4 4 C-3.01 4.495 -3.01 4.495 -2 5 C-2.99 5.495 -2.99 5.495 -4 6 C-4 5.34 -4 4.68 -4 4 Z M-6 6 C-5.01 6.495 -5.01 6.495 -4 7 C-8.955 12.813 -14.154 18.308 -19.55 23.711 C-20.375 24.541 -21.2 25.371 -22.051 26.227 C-24.755 28.946 -27.463 31.661 -30.172 34.375 C-31.583 35.79 -32.994 37.205 -34.404 38.621 C-38.324 42.552 -42.246 46.482 -46.17 50.409 C-51.239 55.483 -56.302 60.563 -61.358 65.648 C-65.279 69.59 -69.204 73.526 -73.135 77.458 C-75.478 79.802 -77.819 82.15 -80.155 84.503 C-82.752 87.117 -85.359 89.722 -87.968 92.324 C-89.127 93.498 -89.127 93.498 -90.31 94.695 C-91.019 95.398 -91.729 96.102 -92.459 96.827 C-93.074 97.443 -93.689 98.06 -94.323 98.695 C-96 100 -96 100 -99 100 C-99.082 95.839 -98.982 92.053 -98 88 C-97.67 88 -97.34 88 -97 88 C-97 90.97 -97 93.94 -97 97 C-92.1 92.927 -87.775 88.706 -83.656 83.848 C-81.32 81.242 -78.726 79.193 -76 77 C-72.369 73.546 -69.198 69.853 -66 66 C-63.812 63.625 -63.812 63.625 -62 62 C-61.34 62 -60.68 62 -60 62 C-60 61.34 -60 60.68 -60 60 C-59.34 60 -58.68 60 -58 60 C-58 59.34 -58 58.68 -58 58 C-56.569 56.769 -55.133 55.544 -53.66 54.363 C-50.261 51.572 -47.437 48.655 -45 45 C-44.34 45 -43.68 45 -43 45 C-43 44.34 -43 43.68 -43 43 C-41.017 41.313 -39.017 39.646 -37 38 C-36.67 37.34 -36.34 36.68 -36 36 C-35.34 36 -34.68 36 -34 36 C-34 35.34 -34 34.68 -34 34 C-32.125 31.875 -32.125 31.875 -30 30 C-29.34 30 -28.68 30 -28 30 C-28 29.34 -28 28.68 -28 28 C-26.017 26.313 -24.017 24.646 -22 23 C-21.67 22.34 -21.34 21.68 -21 21 C-20.34 21 -19.68 21 -19 21 C-19 20.34 -19 19.68 -19 19 C-18.34 19 -17.68 19 -17 19 C-17 18.34 -17 17.68 -17 17 C-16.34 17 -15.68 17 -15 17 C-15 16.34 -15 15.68 -15 15 C-13.017 13.313 -11.017 11.646 -9 10 C-8.67 9.34 -8.34 8.68 -8 8 C-7.34 8 -6.68 8 -6 8 C-6 7.34 -6 6.68 -6 6 Z " fill="#560607" transform="translate(136,128)"/>
<path d="M0 0 C2.113 0.953 2.113 0.953 4 2 C3.022 2.326 2.043 2.652 1.035 2.988 C0.404 3.199 -0.227 3.409 -0.876 3.626 C-2.258 4.086 -3.64 4.546 -5.022 5.005 C-7.914 5.967 -10.804 6.932 -13.684 7.93 C-18.163 9.479 -22.598 10.65 -27.25 11.57 C-29.017 11.844 -29.017 11.844 -30 13 C-31.681 13.286 -33.373 13.515 -35.066 13.719 C-36.11 13.846 -37.153 13.974 -38.229 14.105 C-39.329 14.236 -40.429 14.366 -41.562 14.5 C-43.172 14.695 -43.172 14.695 -44.814 14.895 C-46.844 15.141 -48.874 15.385 -50.905 15.627 C-53.213 15.905 -55.518 16.212 -57.821 16.534 C-62.174 17.078 -66.48 17.162 -70.863 17.168 C-71.695 17.171 -72.526 17.175 -73.383 17.178 C-75.138 17.183 -76.894 17.185 -78.65 17.185 C-81.267 17.187 -83.884 17.206 -86.502 17.225 C-98.124 17.262 -109.471 16.449 -121 15 C-121 14.67 -121 14.34 -121 14 C-117.896 13.971 -114.792 13.953 -111.688 13.938 C-110.366 13.925 -110.366 13.925 -109.018 13.912 C-108.17 13.909 -107.322 13.906 -106.449 13.902 C-105.669 13.897 -104.889 13.892 -104.085 13.886 C-102 14 -102 14 -99 15 C-96.376 15.109 -93.78 15.164 -91.156 15.168 C-90.391 15.171 -89.625 15.175 -88.837 15.178 C-87.219 15.183 -85.602 15.185 -83.985 15.185 C-81.509 15.187 -79.034 15.206 -76.559 15.225 C-74.987 15.228 -73.415 15.23 -71.844 15.23 C-71.103 15.238 -70.362 15.245 -69.599 15.252 C-65.848 15.236 -64.202 15.135 -61 13 C-58.092 12.883 -55.277 12.858 -52.375 12.938 C-49.579 12.999 -46.798 13.021 -44 13 C-43.67 12.67 -43.34 12.34 -43 12 C-41.149 11.84 -39.293 11.723 -37.438 11.625 C-32.836 11.282 -29.16 10.574 -24.945 8.758 C-22.037 7.625 -19.042 7.096 -15.98 6.527 C-13.704 6.035 -13.704 6.035 -11 4 C-8.67 3.322 -6.336 2.656 -4 2 C-3.278 1.587 -2.556 1.175 -1.812 0.75 C-1.214 0.502 -0.616 0.255 0 0 Z " fill="#6C080B" transform="translate(332,463)"/>
<path d="M0 0 C2.375 -0.027 4.75 -0.047 7.125 -0.062 C8.123 -0.075 8.123 -0.075 9.141 -0.088 C13.207 -0.108 17.012 0.211 21 1 C21 1.66 21 2.32 21 3 C21.99 3.33 22.98 3.66 24 4 C16.74 3.34 9.48 2.68 2 2 C4.64 4.31 7.28 6.62 10 9 C13.188 12.625 13.188 12.625 14.633 14.375 C16.614 16.73 18.797 18.854 21 21 C21.784 21.804 22.567 22.609 23.375 23.438 C25.371 25.386 27.361 27.16 29.5 28.938 C32.773 31.701 35.309 34.671 38 38 C40.576 40.708 43.165 43.135 46.062 45.5 C48.812 47.84 50.798 50.159 53 53 C55.634 55.773 58.334 58.298 61.312 60.688 C62.643 61.832 62.643 61.832 64 63 C64 63.66 64 64.32 64 65 C58.569 62.702 54.603 58.801 50.852 54.378 C46.829 49.737 42.535 45.409 38.18 41.082 C36.947 39.852 36.947 39.852 35.69 38.596 C33.087 35.999 30.481 33.406 27.875 30.812 C26.118 29.061 24.362 27.309 22.605 25.557 C18.694 21.655 14.78 17.756 10.865 13.859 C9.277 12.276 7.692 10.689 6.11 9.1 C4.665 7.662 3.189 6.255 1.688 4.875 C0 3 0 3 0 0 Z " fill="#5E0608" transform="translate(272,37)"/>
<path d="M0 0 C3.31 1.438 5.439 3.225 7.938 5.812 C8.586 6.479 9.234 7.145 9.902 7.832 C10.595 8.547 11.287 9.263 12 10 C13.664 11.669 15.331 13.336 17 15 C18.052 16.052 19.104 17.104 20.156 18.156 C20.704 18.704 21.252 19.252 21.816 19.816 C34.544 32.544 47.272 45.272 60 58 C59.01 59.32 58.02 60.64 57 62 C56.01 61.505 56.01 61.505 55 61 C55.33 59.35 55.66 57.7 56 56 C55.34 56 54.68 56 54 56 C52.484 54.426 52.484 54.426 50.75 52.312 C48.499 49.647 46.3 47.29 43.562 45.125 C42.294 44.073 42.294 44.073 41 43 C41 42.34 41 41.68 41 41 C40.34 41 39.68 41 39 41 C39 40.34 39 39.68 39 39 C38.34 39 37.68 39 37 39 C35.344 37.285 35.344 37.285 33.5 35.062 C31.111 32.08 31.111 32.08 28 30 C28 29.34 28 28.68 28 28 C27.34 28 26.68 28 26 28 C26 27.34 26 26.68 26 26 C25.34 26 24.68 26 24 26 C24 25.34 24 24.68 24 24 C23.34 24 22.68 24 22 24 C20.414 22.355 20.414 22.355 18.625 20.188 C16.764 17.937 15.131 16.096 12.773 14.363 C12.188 13.913 11.603 13.464 11 13 C11 12.34 11 11.68 11 11 C10.34 11 9.68 11 9 11 C9 10.34 9 9.68 9 9 C8.34 9 7.68 9 7 9 C5.273 7.285 5.273 7.285 3.375 5.062 C2.743 4.332 2.112 3.601 1.461 2.848 C0 1 0 1 0 0 Z M53 63 C53 66 53 66 51.609 67.719 C44.391 74.634 44.391 74.634 42 76 C41.01 75.67 40.02 75.34 39 75 C39.66 75 40.32 75 41 75 C41 74.34 41 73.68 41 73 C42.609 71.379 42.609 71.379 44.75 69.562 C45.794 68.667 45.794 68.667 46.859 67.754 C48.867 66.109 50.911 64.539 53 63 Z " fill="#510506" transform="translate(360,150)"/>
<path d="M0 0 C0 0.66 0 1.32 0 2 C-1.645 3.586 -1.645 3.586 -3.812 5.375 C-6.063 7.236 -7.904 8.869 -9.637 11.227 C-10.087 11.812 -10.536 12.397 -11 13 C-11.66 13 -12.32 13 -13 13 C-13 13.66 -13 14.32 -13 15 C-13.66 15 -14.32 15 -15 15 C-15 15.66 -15 16.32 -15 17 C-15.66 17 -16.32 17 -17 17 C-17 17.66 -17 18.32 -17 19 C-18.68 20.691 -18.68 20.691 -20.875 22.562 C-21.594 23.183 -22.314 23.803 -23.055 24.441 C-25 26 -25 26 -27 27 C-25.416 23.117 -22.771 20.481 -19.844 17.578 C-19.341 17.073 -18.838 16.568 -18.32 16.048 C-17.26 14.987 -16.197 13.928 -15.132 12.872 C-13.499 11.249 -11.876 9.615 -10.254 7.98 C-9.222 6.95 -8.189 5.92 -7.156 4.891 C-6.67 4.4 -6.183 3.91 -5.682 3.404 C-2.23 0 -2.23 0 0 0 Z M-29 28 C-27.782 30.437 -27.843 32.089 -27.789 34.812 C-27.762 35.798 -27.736 36.783 -27.708 37.798 C-27.681 38.855 -27.653 39.911 -27.625 41 C-27.351 49.65 -26.64 57.978 -24.928 66.465 C-23.707 72.654 -23.707 72.654 -25 76 C-28.588 67.509 -29.234 58.473 -30.125 49.375 C-30.213 48.493 -30.3 47.61 -30.391 46.701 C-30.908 41.111 -31.254 35.613 -31 30 C-30.34 29.34 -29.68 28.68 -29 28 Z " fill="#570507" transform="translate(66,224)"/>
<path d="M0 0 C1.617 -0.005 1.617 -0.005 3.266 -0.01 C4.439 -0.008 5.612 -0.006 6.82 -0.003 C8.015 -0.004 9.21 -0.005 10.441 -0.006 C12.973 -0.007 15.505 -0.005 18.037 -0.001 C21.928 0.004 25.82 -0.001 29.711 -0.007 C32.164 -0.007 34.617 -0.005 37.07 -0.003 C38.243 -0.005 39.416 -0.007 40.625 -0.01 C41.702 -0.006 42.78 -0.003 43.891 0 C44.845 0.001 45.799 0.002 46.782 0.002 C48.945 0.129 48.945 0.129 49.945 1.129 C52.801 1.53 55.643 1.881 58.508 2.192 C59.717 2.328 59.717 2.328 60.951 2.467 C62.949 2.692 64.947 2.911 66.945 3.129 C66.945 3.459 66.945 3.789 66.945 4.129 C60.698 4.335 54.738 4.19 48.566 3.145 C40.404 1.937 32.361 1.737 24.133 1.754 C23.368 1.753 22.602 1.752 21.814 1.751 C-4.996 1.76 -4.996 1.76 -31.055 7.129 C-31.385 6.469 -31.715 5.809 -32.055 5.129 C-24.195 3.084 -16.658 1.748 -8.539 1.34 C-5.336 1.068 -3.534 0.003 0 0 Z " fill="#63070A" transform="translate(228.0546875,19.87060546875)"/>
<path d="M0 0 C4.056 1.616 6.77 4.502 9.778 7.551 C10.345 8.117 10.911 8.683 11.494 9.266 C13.36 11.134 15.219 13.008 17.078 14.883 C18.372 16.181 19.667 17.478 20.962 18.775 C24.366 22.187 27.764 25.605 31.161 29.024 C34.63 32.513 38.104 35.997 41.578 39.48 C48.391 46.315 55.197 53.155 62 60 C61.505 60.99 61.505 60.99 61 62 C60.446 61.434 59.891 60.868 59.32 60.285 C58.596 59.552 57.871 58.818 57.125 58.062 C56.406 57.332 55.686 56.601 54.945 55.848 C53.13 53.943 53.13 53.943 51 53 C51 52.34 51 51.68 51 51 C50.34 51 49.68 51 49 51 C47.484 49.426 47.484 49.426 45.75 47.312 C43.499 44.647 41.3 42.29 38.562 40.125 C37.294 39.073 37.294 39.073 36 38 C36 37.34 36 36.68 36 36 C35.01 35.67 34.02 35.34 33 35 C33 34.34 33 33.68 33 33 C32.34 33 31.68 33 31 33 C29.484 31.426 29.484 31.426 27.75 29.312 C25.499 26.647 23.3 24.29 20.562 22.125 C19.717 21.424 18.871 20.722 18 20 C18 19.34 18 18.68 18 18 C17.34 18 16.68 18 16 18 C16 17.34 16 16.68 16 16 C15.34 16 14.68 16 14 16 C12.344 14.285 12.344 14.285 10.5 12.062 C8.111 9.08 8.111 9.08 5 7 C5 6.34 5 5.68 5 5 C4.34 5 3.68 5 3 5 C3 4.34 3 3.68 3 3 C2.34 3 1.68 3 1 3 C0.67 2.01 0.34 1.02 0 0 Z " fill="#4F0406" transform="translate(258,48)"/>
<path d="M0 0 C0.33 0 0.66 0 1 0 C1 21.78 1 43.56 1 66 C0.34 65.67 -0.32 65.34 -1 65 C-1.169 57.332 -1.329 49.664 -1.482 41.996 C-1.535 39.39 -1.591 36.784 -1.648 34.177 C-1.731 30.422 -1.805 26.666 -1.879 22.91 C-1.906 21.754 -1.933 20.597 -1.961 19.405 C-2.075 13.165 -1.938 7.177 -1 1 C-0.67 0.67 -0.34 0.34 0 0 Z " fill="#570608" transform="translate(165,210)"/>
<path d="M0 0 C2 2 2 2 2.241 4.594 C2.236 5.691 2.232 6.788 2.227 7.918 C2.227 9.16 2.227 10.401 2.227 11.679 C2.216 13.039 2.206 14.398 2.195 15.758 C2.192 17.145 2.189 18.532 2.187 19.919 C2.179 23.572 2.159 27.225 2.137 30.878 C2.117 34.605 2.108 38.332 2.098 42.059 C2.076 49.372 2.042 56.686 2 64 C1.01 64 0.02 64 -1 64 C-1.023 56.246 -1.041 48.492 -1.052 40.738 C-1.057 37.138 -1.064 33.537 -1.075 29.937 C-1.086 26.461 -1.092 22.986 -1.095 19.51 C-1.098 17.541 -1.105 15.571 -1.113 13.601 C-1.113 12.4 -1.113 11.199 -1.114 9.962 C-1.116 8.905 -1.118 7.848 -1.12 6.759 C-1.015 4.333 -0.701 2.314 0 0 Z " fill="#590607" transform="translate(164,130)"/>
<path d="M0 0 C0.66 0.66 1.32 1.32 2 2 C1.67 2.66 1.34 3.32 1 4 C0.896 5.571 0.853 7.146 0.842 8.72 C0.832 9.716 0.822 10.711 0.812 11.737 C0.806 12.833 0.801 13.93 0.795 15.059 C0.785 16.21 0.775 17.362 0.765 18.548 C0.733 22.368 0.708 26.188 0.684 30.008 C0.663 32.651 0.642 35.293 0.621 37.936 C0.571 44.19 0.526 50.445 0.483 56.699 C0.433 63.819 0.378 70.938 0.323 78.058 C0.209 92.705 0.102 107.353 0 122 C-0.33 122 -0.66 122 -1 122 C-1.177 106.389 -1.343 90.777 -1.495 75.165 C-1.566 67.917 -1.64 60.669 -1.724 53.42 C-1.796 47.104 -1.862 40.788 -1.919 34.472 C-1.95 31.126 -1.984 27.781 -2.026 24.435 C-2.072 20.704 -2.105 16.974 -2.135 13.243 C-2.152 12.128 -2.168 11.013 -2.185 9.864 C-2.191 8.852 -2.197 7.839 -2.203 6.796 C-2.212 5.913 -2.221 5.03 -2.23 4.12 C-2 2 -2 2 0 0 Z " fill="#86080C" transform="translate(350,140)"/>
<path d="M0 0 C0 3.496 -0.592 4.136 -2.688 6.812 C-3.505 7.859 -3.505 7.859 -4.34 8.926 C-4.888 9.61 -5.436 10.295 -6 11 C-6.476 11.612 -6.951 12.225 -7.441 12.855 C-8.575 14.28 -9.782 15.647 -11 17 C-11.66 17 -12.32 17 -13 17 C-13 17.66 -13 18.32 -13 19 C-13.66 19 -14.32 19 -15 19 C-15.387 19.874 -15.387 19.874 -15.781 20.766 C-17.098 23.18 -18.551 24.817 -20.5 26.75 C-21.108 27.364 -21.717 27.977 -22.344 28.609 C-24 30 -24 30 -26 30 C-26 30.66 -26 31.32 -26 32 C-26.66 32 -27.32 32 -28 32 C-28 32.66 -28 33.32 -28 34 C-28.66 34 -29.32 34 -30 34 C-30 34.66 -30 35.32 -30 36 C-32.375 38.625 -32.375 38.625 -35 41 C-35.66 41 -36.32 41 -37 41 C-35.42 37.15 -32.969 34.754 -30.02 31.859 C-29.528 31.373 -29.037 30.888 -28.531 30.387 C-26.963 28.836 -25.388 27.293 -23.812 25.75 C-17.308 19.362 -10.853 13.004 -5 6 C-4.497 5.402 -3.994 4.804 -3.476 4.188 C-2.311 2.797 -1.155 1.4 0 0 Z " fill="#5F0507" transform="translate(433,388)"/>
<path d="M0 0 C2.625 0.141 5.25 0.287 7.875 0.438 C8.995 0.496 8.995 0.496 10.137 0.557 C15.773 0.887 15.773 0.887 18 2 C20.403 2.25 22.776 2.431 25.188 2.562 C25.944 2.605 26.701 2.647 27.48 2.691 C40.633 3.323 53.836 3.082 67 3 C67 3.33 67 3.66 67 4 C58.398 5.021 49.841 5.155 41.193 5.13 C38.938 5.125 36.683 5.13 34.428 5.137 C18.202 5.145 18.202 5.145 12 4 C11.67 3.67 11.34 3.34 11 3 C8.42 2.718 5.84 2.552 3.25 2.379 C2.507 2.254 1.765 2.129 1 2 C0.67 1.34 0.34 0.68 0 0 Z " fill="#490405" transform="translate(205,459)"/>
<path d="M0 0 C0.66 0.33 1.32 0.66 2 1 C0.128 2.899 -1.747 4.794 -3.625 6.688 C-4.147 7.218 -4.669 7.748 -5.207 8.295 C-10.613 13.734 -16.085 18.542 -23 22 C-21.483 17.751 -18.686 16.385 -15 14 C-13.31 12.357 -11.648 10.685 -10 9 C-6.692 5.972 -3.348 2.984 0 0 Z M-25 22 C-24.34 22.33 -23.68 22.66 -23 23 C-24.546 24.682 -26.113 26.345 -27.688 28 C-28.993 29.392 -28.993 29.392 -30.324 30.812 C-33 33 -33 33 -35.656 33.5 C-39.606 32.657 -40.682 30.179 -43 27 C-40.333 28.333 -37.667 29.667 -35 31 C-31.7 28.03 -28.4 25.06 -25 22 Z " fill="#500406" transform="translate(293,318)"/>
<path d="M0 0 C2.113 0.953 2.113 0.953 4 2 C3.022 2.326 2.043 2.652 1.035 2.988 C0.404 3.199 -0.227 3.409 -0.876 3.626 C-2.258 4.086 -3.64 4.546 -5.022 5.005 C-7.914 5.967 -10.804 6.932 -13.684 7.93 C-18.163 9.479 -22.598 10.65 -27.25 11.57 C-29.017 11.844 -29.017 11.844 -30 13 C-32.075 13.401 -34.161 13.746 -36.25 14.062 C-37.39 14.239 -38.529 14.416 -39.703 14.598 C-42.519 14.941 -45.17 15.08 -48 15 C-47.361 14.691 -46.721 14.381 -46.062 14.062 C-44.064 13.165 -44.064 13.165 -43 12 C-41.149 11.84 -39.293 11.723 -37.438 11.625 C-32.836 11.282 -29.16 10.574 -24.945 8.758 C-22.037 7.625 -19.042 7.096 -15.98 6.527 C-13.704 6.035 -13.704 6.035 -11 4 C-8.67 3.322 -6.336 2.656 -4 2 C-3.278 1.587 -2.556 1.175 -1.812 0.75 C-1.214 0.502 -0.616 0.255 0 0 Z " fill="#650608" transform="translate(332,463)"/>
<path d="M0 0 C0.33 0 0.66 0 1 0 C1.288 5.637 1.573 11.275 1.854 16.913 C1.951 18.826 2.047 20.74 2.146 22.653 C3.189 43.055 3.189 43.055 3 52 C2.01 52.495 2.01 52.495 1 53 C-0.199 47.366 -0.127 41.861 -0.098 36.133 C-0.096 35.098 -0.095 34.063 -0.093 32.997 C-0.088 29.706 -0.075 26.416 -0.062 23.125 C-0.057 20.888 -0.053 18.651 -0.049 16.414 C-0.038 10.943 -0.021 5.471 0 0 Z " fill="#490507" transform="translate(334,222)"/>
<path d="M0 0 C1.98 0.99 1.98 0.99 4 2 C3.01 2 2.02 2 1 2 C0.67 1.34 0.34 0.68 0 0 Z M4 3 C6.921 4.309 8.756 5.756 11 8 C11.99 8.33 12.98 8.66 14 9 C14 9.66 14 10.32 14 11 C14.743 11.268 15.485 11.536 16.25 11.812 C18.891 12.953 20.856 14.094 23 16 C23 16.66 23 17.32 23 18 C23.66 18 24.32 18 25 18 C25 18.66 25 19.32 25 20 C22.921 19.068 21.272 18.284 19.688 16.625 C17.64 14.653 15.32 13.475 12.848 12.105 C8.925 9.759 5.485 7.455 4 3 Z M25 20 C25.66 20 26.32 20 27 20 C26.67 20.66 26.34 21.32 26 22 C25.67 21.34 25.34 20.68 25 20 Z M27 22 C30.705 22.603 32.86 24.225 35.75 26.562 C36.949 27.523 36.949 27.523 38.172 28.504 C39.077 29.244 39.077 29.244 40 30 C36.036 30 35.001 28.501 32 26 C31.072 25.443 30.144 24.886 29.188 24.312 C28.466 23.879 27.744 23.446 27 23 C27 22.67 27 22.34 27 22 Z " fill="#540406" transform="translate(186,295)"/>
<path d="M0 0 C1.813 0.114 3.626 0.241 5.438 0.375 C6.952 0.479 6.952 0.479 8.496 0.586 C9.736 0.791 9.736 0.791 11 1 C11.33 1.66 11.66 2.32 12 3 C14.277 3.584 14.277 3.584 17 3.938 C20.686 4.537 24.06 5.272 27.562 6.562 C32.304 8.263 36.995 8.697 42 9 C42 9.66 42 10.32 42 11 C35.083 10.605 28.611 10.204 22 8 C20.189 7.515 18.376 7.036 16.562 6.562 C10.722 4.972 5.077 3.385 0 0 Z " fill="#610608" transform="translate(169,466)"/>
<path d="M0 0 C-5.697 2.45 -11.18 4.457 -17.285 5.605 C-19.022 5.845 -19.022 5.845 -20 7 C-21.486 7.157 -22.979 7.251 -24.473 7.316 C-25.372 7.358 -26.271 7.4 -27.197 7.443 C-28.616 7.502 -28.616 7.502 -30.062 7.562 C-31.012 7.606 -31.961 7.649 -32.939 7.693 C-35.293 7.8 -37.646 7.902 -40 8 C-37.39 5.39 -36.326 5.807 -32.688 5.75 C-25.155 5.328 -18.33 3.267 -11.161 0.995 C-10.292 0.726 -9.423 0.457 -8.527 0.18 C-7.751 -0.071 -6.975 -0.321 -6.176 -0.579 C-3.768 -1.045 -2.304 -0.77 0 0 Z " fill="#550507" transform="translate(317,454)"/>
<path d="M0 0 C1 2 1 2 0.258 4.426 C-0.116 5.378 -0.49 6.331 -0.875 7.312 C-2.271 10.89 -3.3 14.229 -4 18 C-4.626 20.591 -5.269 23.171 -5.938 25.75 C-6.107 26.434 -6.277 27.119 -6.451 27.824 C-6.905 29.567 -7.446 31.286 -8 33 C-8.99 33.495 -8.99 33.495 -10 34 C-9.367 22.176 -5.111 10.601 0 0 Z " fill="#5F0508" transform="translate(36,163)"/>
<path d="M0 0 C0.66 0.33 1.32 0.66 2 1 C1.434 1.554 0.868 2.109 0.285 2.68 C-0.448 3.404 -1.182 4.129 -1.938 4.875 C-2.668 5.594 -3.399 6.314 -4.152 7.055 C-6.057 8.87 -6.057 8.87 -7 11 C-7.66 11 -8.32 11 -9 11 C-9.33 11.99 -9.66 12.98 -10 14 C-10.66 14 -11.32 14 -12 14 C-12 14.66 -12 15.32 -12 16 C-13.574 17.516 -13.574 17.516 -15.688 19.25 C-18.353 21.501 -20.71 23.7 -22.875 26.438 C-23.576 27.283 -24.278 28.129 -25 29 C-25.66 29 -26.32 29 -27 29 C-25.378 24.899 -22.423 22.169 -19.336 19.141 C-18.784 18.591 -18.232 18.042 -17.663 17.476 C-15.905 15.729 -14.14 13.99 -12.375 12.25 C-11.179 11.064 -9.984 9.878 -8.789 8.691 C-5.865 5.789 -2.934 2.893 0 0 Z " fill="#4B0405" transform="translate(93,195)"/>
<path d="M0 0 C0 0.66 0 1.32 0 2 C-1.574 3.516 -1.574 3.516 -3.688 5.25 C-6.353 7.501 -8.71 9.7 -10.875 12.438 C-11.576 13.283 -12.278 14.129 -13 15 C-13.66 15 -14.32 15 -15 15 C-15.33 15.99 -15.66 16.98 -16 18 C-16.66 18 -17.32 18 -18 18 C-18 18.66 -18 19.32 -18 20 C-19.68 21.691 -19.68 21.691 -21.875 23.562 C-22.594 24.183 -23.314 24.803 -24.055 25.441 C-26 27 -26 27 -28 28 C-26.396 24.02 -23.618 21.328 -20.625 18.359 C-19.837 17.569 -19.837 17.569 -19.034 16.762 C-17.927 15.654 -16.817 14.548 -15.705 13.444 C-13.999 11.749 -12.304 10.043 -10.609 8.336 C-9.532 7.26 -8.454 6.184 -7.375 5.109 C-6.612 4.341 -6.612 4.341 -5.834 3.557 C-2.23 0 -2.23 0 0 0 Z " fill="#4A0405" transform="translate(224,66)"/>
<path d="M0 0 C0.99 0.33 1.98 0.66 3 1 C-0.96 4.465 -0.96 4.465 -5 8 C-5 5 -5 5 -2.5 2.312 C-1.675 1.549 -0.85 0.786 0 0 Z M-8 8 C-7.34 8.33 -6.68 8.66 -6 9 C-8.922 13.017 -12.277 16.081 -16.027 19.285 C-18.478 21.416 -20.74 23.67 -23 26 C-21.524 20.773 -18.178 17.832 -14.375 14.188 C-13.764 13.59 -13.153 12.993 -12.523 12.377 C-11.022 10.911 -9.512 9.455 -8 8 Z " fill="#580507" transform="translate(109,87)"/>
<path d="M0 0 C4.882 3.188 8.435 6.473 12.16 10.941 C14.668 13.747 17.482 16.087 20.398 18.457 C22 20 22 20 23 23 C19.686 21.557 17.524 19.759 14.996 17.191 C14.256 16.444 13.515 15.697 12.752 14.928 C11.988 14.147 11.224 13.367 10.438 12.562 C9.67 11.786 8.902 11.009 8.111 10.209 C6.684 8.765 5.26 7.318 3.838 5.869 C2.234 4.238 0.621 2.615 -1 1 C-0.67 0.67 -0.34 0.34 0 0 Z " fill="#600608" transform="translate(439,205)"/>
<path d="M0 0 C1.104 3.312 0.686 4.616 -0.332 7.848 C-1.112 10.359 -1.771 12.894 -2.438 15.438 C-3.696 20.088 -5.226 24.522 -7 29 C-7.33 29 -7.66 29 -8 29 C-8.125 25.625 -8.125 25.625 -8 22 C-7.34 21.34 -6.68 20.68 -6 20 C-6.021 19.319 -6.041 18.639 -6.062 17.938 C-5.927 11.56 -2.982 5.538 0 0 Z " fill="#5D0507" transform="translate(475,299)"/>
<path d="M0 0 C-1.52 0.597 -1.52 0.597 -3.07 1.207 C-4.422 1.742 -5.773 2.277 -7.125 2.812 C-7.79 3.074 -8.455 3.335 -9.141 3.604 C-12.3 4.858 -15.327 6.165 -18.367 7.699 C-21 9 -21 9 -23 9 C-23 8.34 -23 7.68 -23 7 C-17.232 2.77 -7.103 -2.368 0 0 Z " fill="#580507" transform="translate(173,52)"/>
<path d="M0 0 C2.333 -0.042 4.667 -0.041 7 0 C7.33 0.33 7.66 0.66 8 1 C10.855 1.4 13.697 1.752 16.562 2.062 C17.369 2.153 18.175 2.244 19.006 2.338 C21.003 2.562 23.002 2.782 25 3 C25 3.33 25 3.66 25 4 C16.139 4.292 7.74 3.448 -1 2 C-0.67 1.34 -0.34 0.68 0 0 Z " fill="#5E0608" transform="translate(270,20)"/>
<path d="M0 0 C4.719 0.468 6.918 2.349 10.312 5.562 C11.196 6.389 12.079 7.215 12.988 8.066 C13.652 8.704 14.316 9.343 15 10 C10.94 10 8.886 7.948 5.812 5.562 C5.254 5.142 4.695 4.721 4.119 4.287 C2.723 3.221 1.358 2.114 0 1 C0 0.67 0 0.34 0 0 Z M15 11 C20.875 14.75 20.875 14.75 22 17 C19.506 15.796 17.319 14.546 15 13 C15 12.34 15 11.68 15 11 Z " fill="#4B0405" transform="translate(166,301)"/>
<path d="M0 0 C1.466 4.925 0.93 9.735 0.688 14.812 C0.652 15.785 0.617 16.758 0.58 17.76 C0.335 23.159 -0.251 27.881 -2 33 C-2.33 33 -2.66 33 -3 33 C-3.125 25.375 -3.125 25.375 -2 22 C-1.866 20.555 -1.776 19.106 -1.719 17.656 C-1.681 16.822 -1.644 15.988 -1.605 15.129 C-1.553 13.828 -1.553 13.828 -1.5 12.5 C-1.431 10.781 -1.358 9.062 -1.281 7.344 C-1.251 6.583 -1.221 5.821 -1.189 5.037 C-1 3 -1 3 0 0 Z " fill="#460305" transform="translate(463,256)"/>
<path d="M0 0 C0.33 0.66 0.66 1.32 1 2 C0.143 4.118 -0.811 6.196 -1.812 8.25 C-3.849 12.448 -5.615 16.541 -7 21 C-7.33 21 -7.66 21 -8 21 C-8.891 12.803 -4.954 6.32 0 0 Z " fill="#5C0608" transform="translate(59,152)"/>
<path d="M0 0 C1.208 3.623 0.543 4.641 -1 8 C-1.66 8 -2.32 8 -3 8 C-3.124 8.887 -3.248 9.774 -3.375 10.688 C-3.944 13.704 -4.766 16.203 -6 19 C-6.33 19 -6.66 19 -7 19 C-6.274 12.033 -4.723 5.398 0 0 Z " fill="#66070A" transform="translate(466,328)"/>
<path d="M0 0 C0.66 0.33 1.32 0.66 2 1 C0.134 2.947 -1.742 4.882 -3.625 6.812 C-4.408 7.633 -4.408 7.633 -5.207 8.471 C-8.533 11.859 -11.566 14.103 -16 16 C-15.34 14.68 -14.68 13.36 -14 12 C-13.01 12 -12.02 12 -11 12 C-11 11.34 -11 10.68 -11 10 C-10.34 10 -9.68 10 -9 10 C-8.745 9.407 -8.49 8.814 -8.227 8.203 C-6.882 5.788 -5.508 4.488 -3.375 2.75 C-2.743 2.229 -2.112 1.708 -1.461 1.172 C-0.738 0.592 -0.738 0.592 0 0 Z " fill="#4D0406" transform="translate(376,245)"/>
<path d="M0 0 C0.33 0 0.66 0 1 0 C0.634 7.455 -0.209 14.049 -3 21 C-3.66 21 -4.32 21 -5 21 C-4.449 16.407 -3.513 12.361 -2 8 C-1.291 5.342 -0.646 2.674 0 0 Z " fill="#590507" transform="translate(459,292)"/>
<path d="M0 0 C2.113 0.953 2.113 0.953 4 2 C1.605 2.816 -0.791 3.628 -3.188 4.438 C-3.861 4.668 -4.535 4.898 -5.229 5.135 C-8.795 6.335 -12.287 7.373 -16 8 C-12.18 4.527 -8.968 3.265 -4 2 C-2.917 1.381 -2.917 1.381 -1.812 0.75 C-1.214 0.502 -0.616 0.255 0 0 Z " fill="#5B0507" transform="translate(332,463)"/>
<path d="M0 0 C0.99 0.33 1.98 0.66 3 1 C2.34 1 1.68 1 1 1 C0.664 1.843 0.664 1.843 0.32 2.703 C-1.387 5.673 -3.548 7.503 -6.125 9.75 C-7.035 10.549 -7.945 11.348 -8.883 12.172 C-9.581 12.775 -10.28 13.378 -11 14 C-11.66 13.67 -12.32 13.34 -13 13 C-8.71 8.71 -4.42 4.42 0 0 Z " fill="#5D0608" transform="translate(242,384)"/>
<path d="M0 0 C0.33 0 0.66 0 1 0 C1.304 5.176 0.822 7.714 -2 12 C-3.097 14.638 -4.041 17.307 -5 20 C-6.028 16.863 -5.994 15.168 -4.785 12.109 C-4.374 11.046 -4.374 11.046 -3.955 9.961 C-3.661 9.231 -3.366 8.502 -3.062 7.75 C-2.772 7.005 -2.481 6.26 -2.182 5.492 C-1.464 3.658 -0.733 1.828 0 0 Z " fill="#510506" transform="translate(453,313)"/>
<path d="M0 0 C0.66 0.33 1.32 0.66 2 1 C0.753 2.274 -0.498 3.544 -1.75 4.812 C-2.446 5.52 -3.142 6.228 -3.859 6.957 C-5.843 8.85 -7.66 10.568 -10 12 C-10.99 11.67 -11.98 11.34 -13 11 C-12.34 11 -11.68 11 -11 11 C-11 10.34 -11 9.68 -11 9 C-9.355 7.344 -9.355 7.344 -7.188 5.5 C-6.48 4.892 -5.772 4.283 -5.043 3.656 C-3 2 -3 2 0 0 Z " fill="#540507" transform="translate(412,214)"/>
<path d="M0 0 C0 4.714 -3.012 7.522 -6 11 C-8.875 13.5 -8.875 13.5 -11 15 C-10.52 10.714 -7.781 8.231 -4.938 5.25 C-4.465 4.743 -3.993 4.237 -3.506 3.715 C-2.344 2.471 -1.173 1.234 0 0 Z " fill="#610608" transform="translate(433,388)"/>
<path d="M0 0 C5.505 4.83 7.205 13.121 9 20 C5.074 18.037 3.642 12.895 2 9 C1.132 5.997 0.547 3.085 0 0 Z " fill="#640609" transform="translate(37,337)"/>
<path d="M0 0 C0.66 0 1.32 0 2 0 C1.67 0.66 1.34 1.32 1 2 C0.67 1.34 0.34 0.68 0 0 Z M2 2 C2.66 2 3.32 2 4 2 C3.67 2.66 3.34 3.32 3 4 C2.67 3.34 2.34 2.68 2 2 Z M4 4 C4.66 4 5.32 4 6 4 C5.67 4.66 5.34 5.32 5 6 C4.67 5.34 4.34 4.68 4 4 Z M6 6 C9.705 6.603 11.86 8.225 14.75 10.562 C15.949 11.523 15.949 11.523 17.172 12.504 C18.077 13.244 18.077 13.244 19 14 C15.036 14 14.001 12.501 11 10 C10.072 9.443 9.144 8.886 8.188 8.312 C7.466 7.879 6.744 7.446 6 7 C6 6.67 6 6.34 6 6 Z " fill="#4B0405" transform="translate(207,311)"/>
<path d="M0 0 C0.66 0.33 1.32 0.66 2 1 C0.714 2.173 -0.579 3.338 -1.875 4.5 C-2.594 5.15 -3.314 5.799 -4.055 6.469 C-6 8 -6 8 -8 8 C-8 8.66 -8 9.32 -8 10 C-10.5 11.625 -10.5 11.625 -13 13 C-10.677 7.299 -6.252 3.918 -1 1 C-0.67 0.67 -0.34 0.34 0 0 Z " fill="#5E0507" transform="translate(413,235)"/>
<path d="M0 0 C5.195 1.361 8.176 3.358 12 7 C12 7.66 12 8.32 12 9 C13.32 9.66 14.64 10.32 16 11 C12.401 11 10.905 10.042 8 8 C8 7.34 8 6.68 8 6 C7.423 5.752 6.845 5.505 6.25 5.25 C3.7 3.833 1.982 2.124 0 0 Z " fill="#550507" transform="translate(374,76)"/>
<path d="M0 0 C6.15 1.681 10.358 3.596 15 8 C14.01 8.495 14.01 8.495 13 9 C10.717 7.923 8.564 6.805 6.375 5.562 C5.764 5.224 5.153 4.886 4.523 4.537 C3.012 3.699 1.505 2.85 0 2 C0 1.34 0 0.68 0 0 Z " fill="#460405" transform="translate(352,62)"/>
<path d="M0 0 C3.344 0.557 6.033 1.352 9 3 C9 3.66 9 4.32 9 5 C9.763 5.289 10.526 5.578 11.312 5.875 C14 7 14 7 17 9 C16.67 9.66 16.34 10.32 16 11 C14.268 9.92 12.54 8.836 10.812 7.75 C9.85 7.147 8.887 6.543 7.895 5.922 C5.126 4.084 2.56 2.116 0 0 Z " fill="#540507" transform="translate(370,54)"/>
<path d="M0 0 C0.66 0.33 1.32 0.66 2 1 C-2.924 6.685 -2.924 6.685 -6.562 7.75 C-10.34 6.588 -11.697 4.158 -14 1 C-11.333 2.333 -8.667 3.667 -6 5 C-4.02 3.35 -2.04 1.7 0 0 Z " fill="#5F0608" transform="translate(264,344)"/>
<path d="M0 0 C0.66 0 1.32 0 2 0 C1.795 0.918 1.59 1.836 1.379 2.781 C-0.026 9.179 -1.348 15.48 -2 22 C-2.33 22 -2.66 22 -3 22 C-3.239 14.82 -2.562 8.024 -1 1 C-0.67 0.67 -0.34 0.34 0 0 Z " fill="#500506" transform="translate(42,194)"/>
<path d="M0 0 C0.66 0.33 1.32 0.66 2 1 C-3.94 6.445 -3.94 6.445 -10 12 C-10 11.01 -10 10.02 -10 9 C-8.379 7.611 -6.703 6.287 -5 5 C-3.315 3.352 -1.643 1.69 0 0 Z M-13 12 C-12.34 12.33 -11.68 12.66 -11 13 C-11.99 13 -12.98 13 -14 13 C-13.67 12.67 -13.34 12.34 -13 12 Z " fill="#4B0506" transform="translate(104,70)"/>
<path d="M0 0 C1.334 4.003 0.22 5.523 -1.375 9.375 C-2.972 13.256 -4.332 16.85 -5 21 C-5.33 21 -5.66 21 -6 21 C-6.625 18.125 -6.625 18.125 -7 15 C-6.34 14.34 -5.68 13.68 -5 13 C-4.445 11.562 -3.951 10.099 -3.5 8.625 C-2.563 5.579 -1.493 2.818 0 0 Z " fill="#510406" transform="translate(50,173)"/>
<path d="M0 0 C0.66 0.33 1.32 0.66 2 1 C-1.63 4.3 -5.26 7.6 -9 11 C-9.99 10.34 -10.98 9.68 -12 9 C-11.34 9 -10.68 9 -10 9 C-10 8.34 -10 7.68 -10 7 C-4.588 3 -4.588 3 -2 3 C-2 2.34 -2 1.68 -2 1 C-1.34 0.67 -0.68 0.34 0 0 Z " fill="#570507" transform="translate(123,56)"/>
<path d="M0 0 C4.95 0.99 4.95 0.99 10 2 C10 2.66 10 3.32 10 4 C10.969 4.124 11.939 4.248 12.938 4.375 C14.453 4.684 14.453 4.684 16 5 C16.33 5.66 16.66 6.32 17 7 C10.931 5.676 5.602 3.671 0 1 C0 0.67 0 0.34 0 0 Z " fill="#500506" transform="translate(318,47)"/>
<path d="M0 0 C4.29 0.33 8.58 0.66 13 1 C13 1.66 13 2.32 13 3 C13.99 3.33 14.98 3.66 16 4 C12.04 3.67 8.08 3.34 4 3 C4 2.34 4 1.68 4 1 C2.68 0.67 1.36 0.34 0 0 Z " fill="#640608" transform="translate(280,37)"/>
<path d="M0 0 C4.252 4.123 8.136 8.513 12 13 C11.67 13.66 11.34 14.32 11 15 C6.745 10.96 2.96 7.092 0 2 C0 1.34 0 0.68 0 0 Z " fill="#5A0608" transform="translate(66,388)"/>
<path d="M0 0 C0.66 0.33 1.32 0.66 2 1 C-2.381 5.581 -6.548 9.729 -12 13 C-10.45 9.116 -7.995 6.97 -4.875 4.25 C-3.965 3.451 -3.055 2.652 -2.117 1.828 C-1.069 0.923 -1.069 0.923 0 0 Z " fill="#4C0506" transform="translate(325,312)"/>
<path d="M0 0 C6.93 0.495 6.93 0.495 14 1 C14 1.33 14 1.66 14 2 C8.639 3.129 3.447 3.097 -2 3 C-1.34 2.01 -0.68 1.02 0 0 Z " fill="#71070B" transform="translate(270,476)"/>
<path d="M0 0 C2.425 2.425 2.296 3.172 2.312 6.5 C2.329 7.294 2.346 8.088 2.363 8.906 C2.183 9.943 2.183 9.943 2 11 C0.515 11.99 0.515 11.99 -1 13 C-1.027 11.583 -1.047 10.167 -1.062 8.75 C-1.074 7.961 -1.086 7.172 -1.098 6.359 C-1.004 4.093 -0.632 2.171 0 0 Z " fill="#70080C" transform="translate(164,130)"/>
<path d="M0 0 C3.583 1.654 6.81 3.68 10 6 C10 6.66 10 7.32 10 8 C10.66 8.33 11.32 8.66 12 9 C8.367 8.411 6.455 6.945 3.75 4.5 C3.044 3.871 2.337 3.242 1.609 2.594 C1.078 2.068 0.547 1.542 0 1 C0 0.67 0 0.34 0 0 Z " fill="#4F0506" transform="translate(108,410)"/>
<path d="M0 0 C0.99 0.495 0.99 0.495 2 1 C1.01 1.495 1.01 1.495 0 2 C0 1.34 0 0.68 0 0 Z M-1 2 C-0.147 4.389 0.126 5.623 -0.688 8.062 C-2.185 10.273 -3.79 11.527 -6 13 C-4.775 8.947 -3.301 5.556 -1 2 Z " fill="#530406" transform="translate(436,352)"/>
<path d="M0 0 C4.427 1.476 4.914 3.901 7 8 C7 8.66 7 9.32 7 10 C6.34 10 5.68 10 5 10 C3.35 6.7 1.7 3.4 0 0 Z " fill="#630608" transform="translate(47,360)"/>
<path d="M0 0 C0.66 0.66 1.32 1.32 2 2 C1.34 2 0.68 2 0 2 C0 2.66 0 3.32 0 4 C-1.75 5.289 -1.75 5.289 -4 6.625 C-4.743 7.071 -5.485 7.517 -6.25 7.977 C-6.828 8.314 -7.405 8.652 -8 9 C-6.114 4.716 -3.64 2.849 0 0 Z " fill="#5C0508" transform="translate(127,73)"/>
<path d="M0 0 C1.98 1.65 3.96 3.3 6 5 C5.01 6.32 4.02 7.64 3 9 C2.34 8.67 1.68 8.34 1 8 C1.33 6.35 1.66 4.7 2 3 C1.34 3 0.68 3 0 3 C0 2.01 0 1.02 0 0 Z " fill="#4E0506" transform="translate(414,203)"/>
<path d="M0 0 C0.66 0 1.32 0 2 0 C2 0.66 2 1.32 2 2 C1.34 2 0.68 2 0 2 C0 1.34 0 0.68 0 0 Z M-2 2 C-1.34 2.33 -0.68 2.66 0 3 C-3.61 6.291 -6.126 7.547 -11 8 C-9.733 5.466 -8.569 5.068 -6.062 3.812 C-5.352 3.448 -4.642 3.083 -3.91 2.707 C-3.28 2.474 -2.649 2.24 -2 2 Z " fill="#4F0507" transform="translate(136,48)"/>
<path d="M0 0 C1.155 0.736 2.299 1.489 3.438 2.25 C4.395 2.876 4.395 2.876 5.371 3.516 C7.299 5.272 7.615 6.461 8 9 C6.658 8.075 5.327 7.134 4 6.188 C3.257 5.665 2.515 5.143 1.75 4.605 C1.173 4.076 0.595 3.546 0 3 C0 2.01 0 1.02 0 0 Z " fill="#5B0608" transform="translate(439,205)"/>
<path d="M0 0 C0.33 0 0.66 0 1 0 C1.393 4.449 0.153 7.142 -2 11 C-2.66 11 -3.32 11 -4 11 C-3.523 9.541 -3.043 8.083 -2.562 6.625 C-2.296 5.813 -2.029 5.001 -1.754 4.164 C-1 2 -1 2 0 0 Z " fill="#5F0608" transform="translate(446,333)"/>
<path d="M0 0 C3.688 0.498 5.605 1.101 8 4 C7.67 4.66 7.34 5.32 7 6 C5.831 5.192 4.664 4.378 3.5 3.562 C2.85 3.11 2.201 2.658 1.531 2.191 C1.026 1.798 0.521 1.405 0 1 C0 0.67 0 0.34 0 0 Z " fill="#560608" transform="translate(199,306)"/>
<path d="M0 0 C0.99 0.66 1.98 1.32 3 2 C0.03 4.475 0.03 4.475 -3 7 C-3.66 6.67 -4.32 6.34 -5 6 C-3.35 4.02 -1.7 2.04 0 0 Z " fill="#570507" transform="translate(352,287)"/>
<path d="M0 0 C0.66 0 1.32 0 2 0 C0.801 3.083 -0.477 6.063 -2 9 C-2.66 8.67 -3.32 8.34 -4 8 C-1.125 1.125 -1.125 1.125 0 0 Z " fill="#4E0406" transform="translate(66,139)"/>
<path d="M0 0 C2.31 0 4.62 0 7 0 C7.33 0.99 7.66 1.98 8 3 C5.03 2.67 2.06 2.34 -1 2 C-0.67 1.34 -0.34 0.68 0 0 Z " fill="#5F0608" transform="translate(270,20)"/>
<path d="M0 0 C2 1 2 1 3.125 3.188 C4.083 6.268 4.149 8.793 4 12 C0 4.286 0 4.286 0 0 Z " fill="#550507" transform="translate(28,313)"/>
<path d="M0 0 C4.851 1.119 7.778 2.133 11 6 C6.957 4.778 3.507 3.372 0 1 C0 0.67 0 0.34 0 0 Z " fill="#600608" transform="translate(341,56)"/>
<path d="M0 0 C3.914 1.269 5.791 2.512 8 6 C7.165 5.567 7.165 5.567 6.312 5.125 C3.915 3.959 1.484 2.966 -1 2 C-0.67 1.34 -0.34 0.68 0 0 Z " fill="#5F0608" transform="translate(126,443)"/>
<path d="M0 0 C0.99 0.66 1.98 1.32 3 2 C1.63 5.161 1.011 5.993 -2 8 C-2 7.01 -2 6.02 -2 5 C-1.34 5 -0.68 5 0 5 C0 3.35 0 1.7 0 0 Z " fill="#5B0608" transform="translate(242,360)"/>
<path d="M0 0 C0.931 2.606 1.149 3.642 0.062 6.25 C-0.463 7.116 -0.463 7.116 -1 8 C-1.66 8 -2.32 8 -3 8 C-2.372 5.071 -1.414 2.639 0 0 Z " fill="#510406" transform="translate(441,344)"/>
<path d="M0 0 C0.66 0 1.32 0 2 0 C3.067 2.304 4.064 4.64 5 7 C4.67 7.66 4.34 8.32 4 9 C0 2.25 0 2.25 0 0 Z " fill="#510406" transform="translate(41,348)"/>
<path d="M0 0 C3.683 0.6 7.345 1.248 11 2 C11 2.33 11 2.66 11 3 C3.492 3.369 3.492 3.369 1 1.5 C0.67 1.005 0.34 0.51 0 0 Z " fill="#5A0507" transform="translate(298,24)"/>
<path d="M0 0 C0.33 0.99 0.66 1.98 1 3 C0.34 3 -0.32 3 -1 3 C-1.33 3.99 -1.66 4.98 -2 6 C-2.99 5.67 -3.98 5.34 -5 5 C-3.35 3.35 -1.7 1.7 0 0 Z " fill="#510607" transform="translate(85,203)"/>
<path d="M0 0 C2.375 0.312 2.375 0.312 5 1 C5.66 1.99 6.32 2.98 7 4 C3.73 3.436 2.174 2.5 0 0 Z " fill="#650609" transform="translate(166,301)"/>
<path d="M0 0 C0.66 0 1.32 0 2 0 C1.688 2.375 1.688 2.375 1 5 C-0.485 5.99 -0.485 5.99 -2 7 C-1.424 4.614 -0.778 2.333 0 0 Z " fill="#5A0507" transform="translate(48,136)"/>
<path d="M0 0 C0.99 0.33 1.98 0.66 3 1 C3.33 2.65 3.66 4.3 4 6 C3.34 6 2.68 6 2 6 C1.34 4.02 0.68 2.04 0 0 Z " fill="#510405" transform="translate(425,127)"/>
<path d="M0 0 C1.208 3.623 0.543 4.641 -1 8 C-1.66 6.68 -2.32 5.36 -3 4 C-2.01 2.68 -1.02 1.36 0 0 Z " fill="#500506" transform="translate(466,328)"/>
<path d="M0 0 C1.6 3.201 0.032 5.723 -1 9 C-1.33 9 -1.66 9 -2 9 C-2.688 6.188 -2.688 6.188 -3 3 C-1.562 1.125 -1.562 1.125 0 0 Z " fill="#470405" transform="translate(46,185)"/>
<path d="M0 0 C0.33 0.66 0.66 1.32 1 2 C0.066 4.031 -0.932 6.035 -2 8 C-2.66 7.01 -3.32 6.02 -4 5 C-2.68 3.35 -1.36 1.7 0 0 Z " fill="#530406" transform="translate(59,152)"/>
<path d="M0 0 C0.66 0 1.32 0 2 0 C0.707 2.884 -0.659 4.872 -3 7 C-1.125 1.125 -1.125 1.125 0 0 Z " fill="#570608" transform="translate(53,129)"/>
<path d="M0 0 C4.875 2.75 4.875 2.75 6 5 C3.562 4.188 3.562 4.188 1 3 C0.67 2.01 0.34 1.02 0 0 Z " fill="#660609" transform="translate(361,66)"/>
<path d="M0 0 C1.32 0.66 2.64 1.32 4 2 C1.69 2.66 -0.62 3.32 -3 4 C-2.01 2.68 -1.02 1.36 0 0 Z " fill="#530507" transform="translate(332,463)"/>
<path d="M0 0 C0.66 0.66 1.32 1.32 2 2 C1.01 2.99 0.02 3.98 -1 5 C-1 1 -1 1 0 0 Z " fill="#7E090D" transform="translate(350,140)"/>
<path d="M0 0 C1.98 0.99 1.98 0.99 4 2 C4 2.99 4 3.98 4 5 C3.34 5 2.68 5 2 5 C1.34 3.35 0.68 1.7 0 0 Z " fill="#510507" transform="translate(50,365)"/>
<path d="M0 0 C0.66 0 1.32 0 2 0 C1.67 0.99 1.34 1.98 1 3 C0.34 3 -0.32 3 -1 3 C-0.67 2.01 -0.34 1.02 0 0 Z " fill="#63070A" transform="translate(455,310)"/>
</svg>