
<!-- Generator: visioncortex VTracer 0.6.4 -->
<svg version="1.1" xmlns="http://www.w3.org/2000/svg" viewBox="0 0 400 400" preserveAspectRatio="xMidYMid meet">
<path d="M0 0 C3.761 0.014 7.519 -0.02 11.279 -0.058 C31.126 -0.122 50.147 2.386 68.842 9.326 C69.78 9.666 70.718 10.005 71.685 10.355 C94.22 18.699 115.233 30.338 133.029 46.576 C134.34 47.682 135.653 48.787 136.967 49.889 C147.802 59.489 157.531 69.859 166.029 81.576 C166.647 82.419 166.647 82.419 167.277 83.28 C183.369 105.509 194.161 130.847 200.029 157.576 C200.227 158.464 200.424 159.352 200.628 160.266 C211.585 211.653 200.58 266.75 172.334 310.869 C167.209 318.613 161.553 325.824 155.439 332.807 C153.848 334.636 152.311 336.514 150.838 338.44 C150.241 339.145 149.644 339.85 149.029 340.576 C148.369 340.576 147.709 340.576 147.029 340.576 C146.809 341.131 146.588 341.685 146.361 342.256 C135.513 361.153 106.139 375.868 87.029 384.576 C86.284 384.918 85.539 385.26 84.771 385.612 C76.303 389.449 67.801 392.875 58.842 395.389 C58.191 395.572 57.54 395.754 56.87 395.942 C54.6 396.54 52.319 397.059 50.029 397.576 C49.009 397.835 47.988 398.094 46.937 398.361 C34.368 401.191 21.769 401.1 8.933 401.077 C5.065 401.076 1.198 401.118 -2.67 401.162 C-49.313 401.385 -91.537 383.191 -126.971 353.576 C-127.898 352.873 -128.824 352.169 -129.779 351.444 C-130.502 350.827 -131.226 350.211 -131.971 349.576 C-131.971 348.916 -131.971 348.256 -131.971 347.576 C-132.569 347.305 -133.167 347.034 -133.783 346.754 C-137.31 344.856 -139.705 341.99 -142.408 339.076 C-143.021 338.416 -143.633 337.756 -144.264 337.076 C-155.102 325.144 -164.189 311.673 -171.971 297.576 C-172.478 296.662 -172.478 296.662 -172.996 295.729 C-182.362 278.605 -188.559 260.106 -192.467 241.02 C-192.784 239.48 -193.116 237.943 -193.467 236.41 C-202.564 196.536 -195.035 149.75 -176.971 113.576 C-176.613 112.841 -176.255 112.105 -175.886 111.346 C-167.419 94.029 -156.663 79.021 -143.971 64.576 C-143.324 63.807 -142.676 63.037 -142.01 62.244 C-138.023 57.527 -133.688 53.55 -128.971 49.576 C-128.058 48.764 -127.145 47.952 -126.205 47.115 C-107.282 30.397 -84.931 17.524 -60.971 9.576 C-60.339 9.358 -59.708 9.139 -59.057 8.914 C-39.448 2.134 -20.725 -0.106 0 0 Z " fill="#EBE7F4" transform="translate(195.970703125,-0.576416015625)"/>
<path d="M0 0 C3.761 0.014 7.519 -0.02 11.279 -0.058 C31.126 -0.122 50.147 2.386 68.842 9.326 C69.78 9.666 70.718 10.005 71.685 10.355 C94.22 18.699 115.233 30.338 133.029 46.576 C134.34 47.682 135.653 48.787 136.967 49.889 C147.802 59.489 157.531 69.859 166.029 81.576 C166.647 82.419 166.647 82.419 167.277 83.28 C183.369 105.509 194.161 130.847 200.029 157.576 C200.227 158.464 200.424 159.352 200.628 160.266 C211.585 211.653 200.58 266.75 172.334 310.869 C167.209 318.613 161.553 325.824 155.439 332.807 C153.848 334.636 152.311 336.514 150.838 338.44 C150.241 339.145 149.644 339.85 149.029 340.576 C148.369 340.576 147.709 340.576 147.029 340.576 C146.809 341.131 146.588 341.685 146.361 342.256 C135.513 361.153 106.139 375.868 87.029 384.576 C86.284 384.918 85.539 385.26 84.771 385.612 C76.303 389.449 67.801 392.875 58.842 395.389 C58.191 395.572 57.54 395.754 56.87 395.942 C54.6 396.54 52.319 397.059 50.029 397.576 C49.009 397.835 47.988 398.094 46.937 398.361 C34.368 401.191 21.769 401.1 8.933 401.077 C5.065 401.076 1.198 401.118 -2.67 401.162 C-49.313 401.385 -91.537 383.191 -126.971 353.576 C-127.898 352.873 -128.824 352.169 -129.779 351.444 C-130.502 350.827 -131.226 350.211 -131.971 349.576 C-131.971 348.916 -131.971 348.256 -131.971 347.576 C-132.569 347.305 -133.167 347.034 -133.783 346.754 C-137.31 344.856 -139.705 341.99 -142.408 339.076 C-143.021 338.416 -143.633 337.756 -144.264 337.076 C-155.102 325.144 -164.189 311.673 -171.971 297.576 C-172.478 296.662 -172.478 296.662 -172.996 295.729 C-182.362 278.605 -188.559 260.106 -192.467 241.02 C-192.784 239.48 -193.116 237.943 -193.467 236.41 C-202.564 196.536 -195.035 149.75 -176.971 113.576 C-176.613 112.841 -176.255 112.105 -175.886 111.346 C-167.419 94.029 -156.663 79.021 -143.971 64.576 C-143.324 63.807 -142.676 63.037 -142.01 62.244 C-138.023 57.527 -133.688 53.55 -128.971 49.576 C-128.058 48.764 -127.145 47.952 -126.205 47.115 C-107.282 30.397 -84.931 17.524 -60.971 9.576 C-60.339 9.358 -59.708 9.139 -59.057 8.914 C-39.448 2.134 -20.725 -0.106 0 0 Z M-39.971 17.576 C-40.918 17.823 -41.866 18.07 -42.843 18.324 C-56.103 21.864 -68.664 26.514 -80.971 32.576 C-81.63 32.897 -82.289 33.218 -82.969 33.549 C-97.862 40.872 -110.539 50.674 -122.971 61.576 C-124.351 62.771 -124.351 62.771 -125.76 63.99 C-130.941 68.546 -135.604 73.241 -139.971 78.576 C-140.412 79.105 -140.853 79.634 -141.307 80.178 C-154.709 96.269 -166.559 114.487 -172.971 134.576 C-173.985 137.754 -175.051 140.753 -176.436 143.791 C-178.45 148.408 -179.453 153.235 -180.533 158.139 C-180.741 159.039 -180.95 159.94 -181.164 160.867 C-184.025 173.611 -185.285 185.969 -185.177 198.994 C-185.158 201.3 -185.156 203.605 -185.156 205.91 C-185.35 213.352 -185.35 213.352 -183.971 220.576 C-183.541 223.884 -183.16 227.192 -182.809 230.508 C-182.318 234.775 -181.417 238.508 -179.971 242.576 C-179.693 244.009 -179.442 245.447 -179.221 246.889 C-174.842 269.637 -163.039 290.788 -149.971 309.576 C-149.28 310.591 -148.589 311.605 -147.877 312.651 C-142.309 320.367 -135.778 327.084 -129.096 333.826 C-127.732 335.211 -127.732 335.211 -126.341 336.624 C-119.956 342.964 -113.31 348.38 -105.971 353.576 C-105.004 354.261 -105.004 354.261 -104.018 354.96 C-84.734 368.261 -63.681 377.807 -40.783 382.737 C-36.681 383.64 -32.677 384.748 -28.658 385.963 C-21.693 387.553 -14.585 387.743 -7.467 387.78 C-6.585 387.785 -5.704 387.791 -4.795 387.797 C-2.939 387.806 -1.083 387.813 0.774 387.817 C3.56 387.826 6.346 387.857 9.133 387.889 C20.18 387.955 30.256 387.057 41.029 384.576 C42.115 384.352 43.201 384.127 44.32 383.896 C58.395 380.98 71.183 377.015 84.029 370.576 C84.964 370.134 85.898 369.692 86.861 369.237 C91.84 366.848 96.655 364.158 101.467 361.451 C102.373 360.946 102.373 360.946 103.298 360.43 C106.265 358.736 108.694 357.062 111.029 354.576 C112.514 353.772 112.514 353.772 114.029 352.951 C121.585 348.788 128.004 342.674 134.029 336.576 C135.204 335.456 136.381 334.337 137.561 333.221 C147.38 323.802 155.463 313.868 163.029 302.576 C163.727 301.557 164.424 300.537 165.143 299.487 C173.207 287.309 178.524 274.373 183.029 260.576 C183.388 259.499 183.746 258.421 184.115 257.311 C186.223 250.735 187.998 244.075 189.717 237.389 C190.039 236.16 190.039 236.16 190.367 234.905 C198.383 202.976 194.785 158.932 179.092 129.701 C177.629 126.875 176.44 124.062 175.342 121.076 C170.512 108.814 163.245 97.807 155.029 87.576 C154.298 86.653 153.567 85.73 152.814 84.78 C145.248 75.365 137.432 66.204 128.029 58.576 C127.024 57.745 126.018 56.914 124.982 56.057 C116.452 49.104 107.533 43.112 98.029 37.576 C97.328 37.16 96.626 36.744 95.903 36.315 C72.175 22.388 43.502 13.599 15.869 13.338 C14.581 13.323 14.581 13.323 13.266 13.308 C-13.591 13.026 -13.591 13.026 -39.971 17.576 Z " fill="#0A0A0B" transform="translate(195.970703125,-0.576416015625)"/>
<path d="M0 0 C4.29 0.33 8.58 0.66 13 1 C13 1.66 13 2.32 13 3 C13.594 3.112 14.189 3.224 14.801 3.34 C27.269 6.307 35.444 15.408 42 26 C44.402 30.429 45.497 33.967 46 39 C46.66 39 47.32 39 48 39 C50.95 48.219 51.282 57.86 48 67 C47.587 68.951 47.211 70.91 46.875 72.875 C46.707 73.842 46.54 74.809 46.367 75.805 C46.185 76.891 46.185 76.891 46 78 C45.34 78 44.68 78 44 78 C43.894 78.568 43.789 79.137 43.68 79.723 C42.89 82.369 41.701 84.175 40.125 86.438 C37.972 89.571 35.942 92.73 34 96 C33 97 33 97 30.5 97.125 C28 97 28 97 27 96 C26.569 92.207 26.685 90.479 28.812 87.25 C31 85 31 85 34 83 C35.139 81 36.194 78.951 37.188 76.875 C37.717 75.779 38.247 74.684 38.793 73.555 C39.191 72.712 39.59 71.869 40 71 C40.66 71 41.32 71 42 71 C42.088 67.188 42.141 63.376 42.188 59.562 C42.213 58.493 42.238 57.424 42.264 56.322 C42.325 49.595 41.589 44.209 39 38 C38.696 37.165 38.392 36.329 38.078 35.469 C32.514 22.24 22.749 14.903 10 9 C10 8.34 10 7.68 10 7 C8.721 6.856 7.442 6.711 6.125 6.562 C3.743 6.294 2.155 6.078 0 5 C0 3.35 0 1.7 0 0 Z " fill="#1B1B1C" transform="translate(206,145)"/>
<path d="M0 0 C0.23 2.312 0.23 2.312 0 5 C-1.574 6.625 -1.574 6.625 -3.688 8 C-7.178 10.403 -10.072 12.914 -13 16 C-13.846 16.722 -14.691 17.444 -15.562 18.188 C-18.894 22.032 -20.345 26.237 -22 31 C-22.66 31 -23.32 31 -24 31 C-24.865 36.245 -25.193 41.312 -25.188 46.625 C-25.187 47.408 -25.187 48.192 -25.187 48.999 C-25.108 57.158 -24.077 65.102 -22 73 C-23.98 73.495 -23.98 73.495 -26 74 C-34.422 63.62 -32.886 48.168 -31.672 35.605 C-29.031 21.816 -19.126 9.164 -8 1 C-5.072 0.024 -3.044 -0.082 0 0 Z " fill="#171617" transform="translate(175,151)"/>
<path d="M0 0 C3.124 0 5.232 0.247 7.52 2.488 C8.524 3.726 9.52 4.971 10.508 6.223 C13.732 10.063 17.68 11.952 22.312 13.562 C23.529 14.037 24.746 14.511 26 15 C26.33 15.99 26.66 16.98 27 18 C27.999 18.133 28.998 18.266 30.027 18.402 C31.318 18.579 32.608 18.756 33.938 18.938 C35.225 19.112 36.513 19.286 37.84 19.465 C41 20 41 20 42 21 C42.041 22.666 42.043 24.334 42 26 C25.637 26.692 16.221 22.532 3.938 12 C2.998 11.196 2.058 10.391 1.09 9.562 C-1 7 -1 7 -1.371 3.75 C-1 1 -1 1 0 0 Z " fill="#0B0B0B" transform="translate(155,230)"/>
<path d="M0 0 C3.124 0 5.232 0.247 7.52 2.488 C8.524 3.726 9.52 4.971 10.508 6.223 C13.725 10.055 17.705 11.966 22.312 13.625 C26 15 26 15 27 17 C18.372 15.887 12.406 12.013 6.727 5.609 C5.028 3.659 5.028 3.659 2 4 C2.505 8.379 5.178 10.817 8 14 C4.152 12.432 1.624 10.207 -1 7 C-1.375 3.75 -1.375 3.75 -1 1 C-0.67 0.67 -0.34 0.34 0 0 Z M9 15 C15 18 21 21 27 24 C24 25 24 25 21.188 23.926 C20.136 23.393 19.084 22.861 18 22.312 C16.948 21.793 15.896 21.274 14.812 20.738 C12.08 19.05 10.689 17.691 9 15 Z " fill="#908E95" transform="translate(155,230)"/>
<path d="M0 0 C2.577 1.013 5.127 2.056 7.656 3.184 C14.966 6.407 22.171 8.447 30 10 C30.33 8.68 30.66 7.36 31 6 C31 7.65 31 9.3 31 11 C19.023 12.687 10.867 8.356 1 2 C0.67 1.34 0.34 0.68 0 0 Z M26 5 C30 6 30 6 30 6 Z " fill="#444346" transform="translate(166,245)"/>
<path d="M0 0 C0.33 0.66 0.66 1.32 1 2 C-0.523 5.13 -2.187 7.182 -4.688 9.625 C-7.349 11.806 -7.349 11.806 -7 15 C-3.069 14.425 -3.069 14.425 0 12 C-0.573 14.867 -0.861 15.861 -3 18 C-5.562 18.188 -5.562 18.188 -8 18 C-9 17 -9 17 -9.312 14.25 C-8.929 10.262 -7.759 8.837 -5 6 C-4.01 5.34 -3.02 4.68 -2 4 C-0.808 1.95 -0.808 1.95 0 0 Z " fill="#7E7C82" transform="translate(242,224)"/>
<path d="M0 0 C1.65 0 3.3 0 5 0 C5 0.99 5 1.98 5 3 C4.381 2.814 3.762 2.629 3.125 2.438 C0.958 1.763 0.958 1.763 -1 3 C-0.67 2.01 -0.34 1.02 0 0 Z M7 4 C9.453 5.132 11.531 6.374 13.75 7.938 C16.386 9.61 18.426 10.608 21.312 11.625 C25 13 25 13 26 15 C19.589 14.173 13.127 11.799 8.938 6.75 C8.298 5.843 7.659 4.935 7 4 Z " fill="#6B696E" transform="translate(156,232)"/>
<path d="M0 0 C8.598 4.018 14.598 10.339 20 18 C19.67 18.66 19.34 19.32 19 20 C18.215 19.131 17.43 18.262 16.621 17.367 C11.325 11.546 6.103 5.993 0 1 C0 0.67 0 0.34 0 0 Z " fill="#4C4B4E" transform="translate(227,151)"/>
<path d="M0 0 C1.5 1.125 1.5 1.125 3 3 C3.425 7.078 3.313 8.531 1 12 C-1.375 11.812 -1.375 11.812 -4 11 C-5.596 8.315 -6.127 6.786 -5.625 3.688 C-5.419 3.131 -5.213 2.574 -5 2 C-4.01 3.98 -3.02 5.96 -2 8 C-1.01 8 -0.02 8 1 8 C0.67 5.36 0.34 2.72 0 0 Z " fill="#BEBAC5" transform="translate(151,216)"/>
<path d="M0 0 C6.055 -0.195 6.055 -0.195 8 0 C8.66 0.66 9.32 1.32 10 2 C6.7 1.67 3.4 1.34 0 1 C0 0.67 0 0.34 0 0 Z M-1 1 C-0.67 1 -0.34 1 0 1 C0 2.65 0 4.3 0 6 C3.3 6.66 6.6 7.32 10 8 C10 8.33 10 8.66 10 9 C8.375 9.054 6.75 9.093 5.125 9.125 C4.22 9.148 3.315 9.171 2.383 9.195 C0 9 0 9 -2 7 C-2.188 4.438 -2.188 4.438 -2 2 C-1.67 1.67 -1.34 1.34 -1 1 Z " fill="#9A97A0" transform="translate(206,144)"/>
<path d="M0 0 C5.287 2.154 8.779 6.422 12 11 C8.575 9.527 6.35 7.591 3.75 4.938 C3.044 4.225 2.337 3.512 1.609 2.777 C0 1 0 1 0 0 Z M12 11 C12.99 11.495 12.99 11.495 14 12 C13.67 12.66 13.34 13.32 13 14 C12.67 13.01 12.34 12.02 12 11 Z " fill="#C9C5D2" transform="translate(227,160)"/>
<path d="M0 0 C2.108 0.592 4.211 1.199 6.312 1.812 C8.07 2.317 8.07 2.317 9.863 2.832 C12.761 3.911 14.115 4.625 16 7 C13.03 6.505 13.03 6.505 10 6 C10 5.34 10 4.68 10 4 C8.721 3.856 7.442 3.711 6.125 3.562 C3.743 3.294 2.155 3.078 0 2 C0 1.34 0 0.68 0 0 Z " fill="#3C3B3E" transform="translate(206,148)"/>
<path d="M0 0 C2.007 0.287 4.009 0.619 6 1 C6 1.33 6 1.66 6 2 C5.216 2.083 4.433 2.165 3.625 2.25 C0.853 2.728 0.853 2.728 -0.312 5.062 C-0.653 6.022 -0.653 6.022 -1 7 C-1.043 5 -1.041 3 -1 1 C-0.67 0.67 -0.34 0.34 0 0 Z " fill="#9F9CA5" transform="translate(155,230)"/>
<path d="M0 0 C1.5 1.125 1.5 1.125 3 3 C3.188 6.188 3.188 6.188 3 9 C1.35 9.33 -0.3 9.66 -2 10 C-1.01 9.34 -0.02 8.68 1 8 C0.67 5.36 0.34 2.72 0 0 Z " fill="#79777C" transform="translate(151,216)"/>
<path d="M0 0 C1.98 0.66 3.96 1.32 6 2 C6 2.66 6 3.32 6 4 C1.125 2.25 1.125 2.25 0 0 Z " fill="#414143" transform="translate(167,240)"/>
</svg>