
<!-- Generator: visioncortex VTracer 0.6.4 -->
<svg version="1.1" xmlns="http://www.w3.org/2000/svg" viewBox="0 0 500 500" preserveAspectRatio="xMidYMid meet">
<path d="M0 0 C1.787 -0.001 3.573 -0.003 5.36 -0.005 C10.184 -0.01 15.009 -0.008 19.833 -0.005 C24.898 -0.002 29.963 -0.005 35.028 -0.006 C43.532 -0.008 52.035 -0.006 60.539 -0.001 C70.349 0.004 80.16 0.003 89.97 -0.003 C98.416 -0.007 106.861 -0.008 115.306 -0.005 C120.341 -0.004 125.375 -0.004 130.409 -0.007 C135.144 -0.01 139.878 -0.008 144.613 -0.002 C146.343 -0.001 148.074 -0.001 149.804 -0.003 C172.649 -0.03 172.649 -0.03 179.127 2.129 C179.127 2.789 179.127 3.449 179.127 4.129 C180.117 4.191 181.107 4.253 182.127 4.317 C190.921 5.639 198.204 12.964 204.127 19.129 C204.457 20.119 204.787 21.109 205.127 22.129 C206.117 22.459 207.107 22.789 208.127 23.129 C212.814 29.956 215.817 36.87 216.838 45.083 C216.916 47.119 216.916 47.119 218.127 48.129 C218.895 59.552 218.03 69.293 214.127 80.129 C213.467 80.129 212.807 80.129 212.127 80.129 C212.086 80.954 212.044 81.779 212.002 82.629 C210.839 87.282 208.434 90.673 205.127 94.129 C204.467 94.129 203.807 94.129 203.127 94.129 C203.044 94.748 202.962 95.367 202.877 96.004 C202.127 98.129 202.127 98.129 200.377 99.067 C199.634 99.418 198.892 99.768 198.127 100.129 C197.446 100.872 196.766 101.614 196.064 102.379 C190.193 108.449 182.238 111.6 174.025 112.805 C172.122 112.942 172.122 112.942 171.127 114.129 C164.923 115.142 158.856 115.267 152.58 115.243 C151.555 115.243 150.529 115.243 149.473 115.243 C146.108 115.243 142.742 115.235 139.377 115.227 C137.034 115.225 134.692 115.224 132.349 115.223 C126.2 115.219 120.052 115.209 113.904 115.198 C107.623 115.188 101.342 115.183 95.061 115.178 C82.749 115.168 70.438 115.15 58.127 115.129 C58.127 118.759 58.127 122.389 58.127 126.129 C59.447 126.026 60.767 125.923 62.127 125.817 C73.288 125.833 84.48 130.219 93.127 137.129 C94.014 137.769 94.901 138.408 95.814 139.067 C104.901 147.171 112.108 159.791 113.127 172.129 C114.158 191.039 110.634 207.163 97.877 221.692 C96.127 223.129 96.127 223.129 94.127 223.129 C93.797 224.119 93.467 225.109 93.127 226.129 C89.804 229.272 88.83 230.129 84.127 230.129 C84.127 230.789 84.127 231.449 84.127 232.129 C76.434 237.258 66.646 238.438 57.575 238.383 C56.764 238.386 55.952 238.39 55.116 238.393 C52.424 238.401 49.733 238.394 47.041 238.388 C45.1 238.391 43.159 238.394 41.218 238.399 C35.967 238.408 30.715 238.404 25.463 238.398 C19.96 238.393 14.456 238.398 8.953 238.401 C-0.285 238.404 -9.524 238.4 -18.762 238.39 C-29.437 238.379 -40.113 238.383 -50.788 238.394 C-59.962 238.403 -69.137 238.404 -78.312 238.399 C-83.788 238.396 -89.263 238.395 -94.739 238.402 C-99.886 238.408 -105.032 238.404 -110.178 238.392 C-112.065 238.39 -113.952 238.39 -115.839 238.395 C-118.418 238.4 -120.996 238.393 -123.575 238.383 C-124.319 238.388 -125.063 238.392 -125.829 238.397 C-141.483 238.28 -154.131 229.732 -164.873 219.129 C-170.873 212.276 -170.873 212.276 -170.873 208.129 C-171.533 208.129 -172.193 208.129 -172.873 208.129 C-179.383 196.504 -180.86 179.948 -177.326 167.148 C-176.073 163.373 -174.546 159.735 -172.873 156.129 C-172.213 156.129 -171.553 156.129 -170.873 156.129 C-170.787 155.422 -170.7 154.714 -170.611 153.985 C-169.711 150.503 -168.187 148.333 -166.061 145.442 C-165.373 144.489 -164.686 143.537 -163.979 142.555 C-161.894 140.154 -160.656 139.46 -157.873 138.129 C-156.717 136.931 -156.717 136.931 -155.537 135.708 C-152.598 132.863 -149.982 131.51 -146.248 129.879 C-145.121 129.379 -143.995 128.879 -142.834 128.364 C-138.852 126.704 -135.973 126.011 -131.686 126.067 C-130.334 126.08 -130.334 126.08 -128.955 126.094 C-128.268 126.106 -127.581 126.117 -126.873 126.129 C-126.873 125.469 -126.873 124.809 -126.873 124.129 C-121.48 124.105 -116.086 124.087 -110.693 124.074 C-108.856 124.069 -107.02 124.063 -105.184 124.054 C-102.55 124.042 -99.917 124.036 -97.283 124.032 C-96.457 124.027 -95.631 124.021 -94.78 124.016 C-92.811 124.016 -90.841 124.067 -88.873 124.129 C-88.543 124.459 -88.213 124.789 -87.873 125.129 C-85.665 125.253 -83.453 125.307 -81.242 125.335 C-80.549 125.345 -79.857 125.355 -79.143 125.365 C-76.843 125.396 -74.544 125.421 -72.244 125.446 C-70.654 125.466 -69.063 125.487 -67.473 125.509 C-63.279 125.564 -59.085 125.613 -54.891 125.662 C-50.615 125.712 -46.339 125.767 -42.062 125.823 C-33.666 125.93 -25.27 126.032 -16.873 126.129 C-16.873 122.829 -16.873 119.529 -16.873 116.129 C-17.586 116.008 -18.299 115.887 -19.033 115.762 C-19.991 115.595 -20.949 115.427 -21.936 115.254 C-22.875 115.092 -23.815 114.93 -24.783 114.762 C-37.337 112.191 -48.585 107.046 -56.873 97.129 C-57.475 96.487 -58.077 95.845 -58.697 95.184 C-69.571 82.778 -71.745 66.024 -70.873 50.129 C-69.682 41.7 -67.087 34.496 -62.873 27.129 C-62.337 26.16 -61.801 25.191 -61.248 24.192 C-59.944 22.235 -58.567 20.746 -56.873 19.129 C-56.543 18.469 -56.213 17.809 -55.873 17.129 C-55.213 17.129 -54.553 17.129 -53.873 17.129 C-53.873 16.469 -53.873 15.809 -53.873 15.129 C-48.45 10.033 -41.502 4.515 -33.873 3.879 C-32.883 4.003 -32.883 4.003 -31.873 4.129 C-31.873 3.469 -31.873 2.809 -31.873 2.129 C-21.925 -1.187 -10.387 -0.013 0 0 Z M-28.873 34.129 C-28.873 34.789 -28.873 35.449 -28.873 36.129 C-29.43 36.336 -29.987 36.542 -30.561 36.754 C-35.587 39.743 -38.558 44.416 -40.365 49.868 C-42.239 58.211 -40.993 65.688 -36.873 73.129 C-33.574 77.93 -29.821 82.218 -23.914 83.582 C-20.861 84.079 -17.8 84.475 -14.73 84.858 C-7.216 85.93 -0.314 88.689 5.127 94.129 C12.796 104.949 15.53 114.829 14.127 128.129 C12.053 136.829 8.165 144.445 1.127 150.129 C-5.647 154.293 -10.983 154.688 -18.838 154.596 C-20.014 154.598 -21.191 154.601 -22.403 154.603 C-24.948 154.606 -27.493 154.599 -30.038 154.585 C-34.069 154.563 -38.1 154.566 -42.132 154.577 C-52.144 154.6 -62.155 154.582 -72.167 154.556 C-79.955 154.536 -87.742 154.527 -95.53 154.553 C-100.173 154.566 -104.815 154.543 -109.458 154.513 C-111.898 154.518 -114.339 154.525 -116.779 154.533 C-117.875 154.519 -118.971 154.504 -120.1 154.488 C-128.513 154.566 -134.082 156.854 -140.432 162.34 C-146.542 169.378 -148.302 175.039 -148.135 184.333 C-147.747 188.481 -146.763 192.401 -144.873 196.129 C-144.213 196.459 -143.553 196.789 -142.873 197.129 C-142.586 197.746 -142.298 198.362 -142.002 198.997 C-140.631 201.586 -139.231 202.624 -136.811 204.254 C-136.098 204.752 -135.385 205.25 -134.65 205.762 C-125.54 210.247 -115.282 209.42 -105.395 209.404 C-103.626 209.408 -101.858 209.414 -100.09 209.42 C-95.307 209.433 -90.524 209.434 -85.741 209.431 C-81.74 209.43 -77.739 209.435 -73.738 209.44 C-64.296 209.451 -54.854 209.451 -45.412 209.445 C-35.688 209.439 -25.963 209.451 -16.239 209.473 C-7.874 209.49 0.492 209.496 8.857 209.493 C13.846 209.491 18.835 209.494 23.824 209.508 C28.517 209.52 33.209 209.518 37.902 209.505 C39.618 209.503 41.335 209.506 43.051 209.514 C60.193 209.61 60.193 209.61 74.877 201.629 C77.35 199.442 77.35 199.442 77.127 197.129 C77.787 197.129 78.447 197.129 79.127 197.129 C83.568 190.178 83.784 181.813 82.502 173.817 C81.196 168.428 78.956 164.153 74.385 160.883 C72.678 159.883 70.903 159.001 69.127 158.129 C68.49 157.778 67.853 157.426 67.196 157.063 C64.913 156.033 63.068 155.732 60.58 155.497 C59.314 155.371 59.314 155.371 58.021 155.243 C57.149 155.164 56.276 155.085 55.377 155.004 C54.045 154.875 54.045 154.875 52.686 154.743 C50.5 154.531 48.314 154.327 46.127 154.129 C46.127 153.469 46.127 152.809 46.127 152.129 C45.281 151.799 44.436 151.469 43.564 151.129 C36.615 147.086 31.633 140.332 28.939 132.817 C26.62 122.349 26.978 110.644 32.127 101.129 C37.526 92.838 42.494 88.294 52.088 85.767 C56.827 84.773 61.428 84.706 66.255 84.729 C67.307 84.722 68.358 84.715 69.442 84.708 C72.883 84.688 76.323 84.688 79.764 84.688 C82.173 84.676 84.582 84.663 86.99 84.648 C93.308 84.612 99.626 84.592 105.944 84.576 C116.066 84.552 126.187 84.512 136.308 84.455 C139.834 84.438 143.359 84.434 146.884 84.432 C149.052 84.422 151.22 84.411 153.387 84.401 C154.361 84.403 155.334 84.406 156.337 84.408 C164.578 84.347 171.477 83.449 178.127 78.129 C179.909 76.2 181.499 74.198 183.127 72.129 C183.902 71.422 183.902 71.422 184.693 70.7 C187.865 67.225 188.15 62.067 188.096 57.528 C187.697 52.811 186.876 48.559 185.127 44.129 C184.467 44.129 183.807 44.129 183.127 44.129 C182.879 43.16 182.632 42.191 182.377 41.192 C181.964 40.181 181.552 39.171 181.127 38.129 C179.112 37.396 179.112 37.396 177.127 37.129 C176.797 36.139 176.467 35.149 176.127 34.129 C168.058 28.52 157.518 29.565 148.168 29.612 C146.36 29.606 144.552 29.599 142.744 29.591 C137.858 29.572 132.972 29.579 128.085 29.592 C122.959 29.602 117.832 29.593 112.705 29.587 C104.097 29.579 95.489 29.589 86.881 29.608 C76.946 29.63 67.011 29.623 57.076 29.601 C48.528 29.582 39.98 29.58 31.432 29.59 C26.335 29.597 21.237 29.597 16.14 29.584 C11.346 29.573 6.553 29.581 1.759 29.604 C0.006 29.609 -1.748 29.608 -3.501 29.599 C-12.581 29.557 -20.689 29.623 -28.873 34.129 Z " fill="#F7F7F6" transform="translate(270.873046875,130.87060546875)"/>
<path d="M0 0 C2.415 0.011 4.829 0 7.244 -0.013 C15.144 -0.02 22.938 0.26 30.791 1.151 C31.487 1.229 32.182 1.306 32.899 1.386 C36.694 1.867 39.925 2.713 43.416 4.261 C44.971 4.59 46.534 4.882 48.104 5.136 C57.56 6.957 65.354 11.129 73.416 16.261 C74.994 17.189 74.994 17.189 76.604 18.136 C83.378 23.254 90.932 31.617 92.416 40.261 C92.56 42.737 92.637 45.218 92.666 47.698 C92.705 49.645 92.705 49.645 92.744 51.632 C92.398 55.456 91.571 57.161 89.416 60.261 C89.065 61.333 88.715 62.406 88.354 63.511 C87.416 66.261 87.416 66.261 85.416 67.261 C85.086 68.251 84.756 69.241 84.416 70.261 C82.541 72.448 82.541 72.448 80.416 74.261 C79.426 74.261 78.436 74.261 77.416 74.261 C77.086 75.251 76.756 76.241 76.416 77.261 C73.354 78.448 73.354 78.448 70.416 79.261 C70.416 79.921 70.416 80.581 70.416 81.261 C47.973 90.829 27.336 95.884 2.916 95.761 C1.999 95.759 1.083 95.758 0.138 95.756 C-20.574 95.677 -39.635 93.04 -58.584 84.261 C-60.912 83.249 -63.248 82.255 -65.584 81.261 C-65.584 80.601 -65.584 79.941 -65.584 79.261 C-66.553 78.993 -67.523 78.724 -68.521 78.448 C-69.532 78.056 -70.543 77.664 -71.584 77.261 C-71.914 76.271 -72.244 75.281 -72.584 74.261 C-73.481 74.075 -73.481 74.075 -74.396 73.886 C-77.622 72.964 -78.738 70.964 -80.584 68.261 C-80.584 67.601 -80.584 66.941 -80.584 66.261 C-81.244 66.261 -81.904 66.261 -82.584 66.261 C-87.832 57.245 -89.259 48.075 -87.061 37.819 C-86.903 37.305 -86.746 36.791 -86.584 36.261 C-85.924 36.261 -85.264 36.261 -84.584 36.261 C-84.398 35.064 -84.213 33.868 -84.021 32.636 C-82.947 28.26 -80.977 26.335 -77.436 23.683 C-75.509 22.283 -75.509 22.283 -73.818 20.378 C-70.889 17.603 -67.672 15.681 -64.209 13.636 C-63.562 13.241 -62.915 12.847 -62.248 12.44 C-58.45 10.174 -54.851 8.525 -50.584 7.261 C-49.377 6.735 -49.377 6.735 -48.146 6.198 C-44.994 5.045 -41.902 4.735 -38.584 4.261 C-37.844 3.943 -37.104 3.626 -36.342 3.299 C-32.926 2.013 -29.562 1.553 -25.959 1.151 C-25.218 1.067 -24.478 0.983 -23.714 0.897 C-15.813 0.073 -7.938 -0.042 0 0 Z M-47.584 39.261 C-48.574 39.591 -49.564 39.921 -50.584 40.261 C-50.584 40.921 -50.584 41.581 -50.584 42.261 C-51.203 42.323 -51.821 42.384 -52.459 42.448 C-54.862 43.09 -54.862 43.09 -55.834 45.823 C-56.081 46.628 -56.329 47.432 -56.584 48.261 C-48.39 57.223 -38.714 60.625 -27.006 62.788 C-24.728 63.233 -22.512 63.783 -20.271 64.386 C-17.161 65.124 -14.739 65.356 -11.584 65.261 C-11.254 65.591 -10.924 65.921 -10.584 66.261 C-8.657 66.348 -6.727 66.368 -4.799 66.358 C-3.629 66.355 -2.459 66.352 -1.254 66.349 C-0.022 66.34 1.209 66.332 2.479 66.323 C3.714 66.319 4.95 66.314 6.223 66.31 C9.287 66.298 12.352 66.281 15.416 66.261 C15.416 65.601 15.416 64.941 15.416 64.261 C16.447 64.302 17.479 64.343 18.541 64.386 C25.675 64.386 34.404 64.269 40.416 60.261 C41.928 59.831 43.45 59.439 44.979 59.073 C50.862 57.377 55.943 54.463 60.416 50.261 C61.411 48.261 61.411 48.261 61.416 46.261 C59.687 43.948 59.687 43.948 57.416 42.261 C56.756 42.261 56.096 42.261 55.416 42.261 C55.416 41.601 55.416 40.941 55.416 40.261 C52.095 38.895 48.761 37.567 45.416 36.261 C44.721 35.987 44.026 35.714 43.311 35.433 C35.915 32.743 28.151 31.55 20.416 30.261 C19.625 30.125 18.833 29.99 18.018 29.851 C-2.544 26.966 -29.311 29.109 -47.584 39.261 Z " fill="#F6F5F5" transform="translate(97.583984375,129.7392578125)"/>
<path d="M0 0 C0.831 0.002 1.663 0.004 2.52 0.006 C3.473 0.003 4.427 0 5.409 -0.003 C6.459 0.004 7.508 0.012 8.589 0.019 C10.243 0.019 10.243 0.019 11.93 0.018 C15.588 0.02 19.245 0.035 22.903 0.051 C25.434 0.055 27.964 0.057 30.495 0.059 C36.484 0.066 42.473 0.082 48.461 0.102 C55.279 0.124 62.096 0.135 68.913 0.145 C82.939 0.166 96.964 0.202 110.989 0.246 C110.989 0.576 110.989 0.906 110.989 1.246 C104.765 2.164 98.729 2.383 92.442 2.36 C91.417 2.36 90.392 2.36 89.335 2.36 C85.97 2.359 82.605 2.352 79.239 2.344 C76.896 2.342 74.554 2.34 72.211 2.339 C66.063 2.336 59.914 2.326 53.766 2.315 C47.485 2.305 41.204 2.3 34.923 2.295 C22.612 2.284 10.3 2.267 -2.011 2.246 C-2.011 5.876 -2.011 9.506 -2.011 13.246 C-4.011 11.246 -4.011 11.246 -4.276 9.152 C-4.269 7.961 -4.269 7.961 -4.261 6.746 C-4.266 5.952 -4.271 5.158 -4.276 4.34 C-3.906 1.417 -2.946 0.361 0 0 Z M-2.011 13.246 C4.393 13.01 9.835 13.423 15.989 15.246 C15.989 15.576 15.989 15.906 15.989 16.246 C14.51 16.273 13.031 16.292 11.552 16.309 C10.316 16.326 10.316 16.326 9.056 16.344 C6.989 16.246 6.989 16.246 5.989 15.246 C4.642 15.015 3.285 14.835 1.927 14.684 C0.627 14.539 -0.672 14.395 -2.011 14.246 C-2.011 13.916 -2.011 13.586 -2.011 13.246 Z M15.989 16.246 C18.989 17.246 18.989 17.246 18.989 17.246 Z " fill="#8E8B8A" transform="translate(331.0108585357666,243.75390434265137)"/>
<path d="M0 0 C-14.439 4.459 -27.9 6.349 -43 6 C-43 5.34 -43 4.68 -43 4 C-41.814 3.933 -41.814 3.933 -40.604 3.864 C-36.965 3.651 -33.326 3.419 -29.688 3.188 C-27.823 3.082 -27.823 3.082 -25.92 2.975 C-19.048 2.524 -12.83 1.689 -6.281 -0.483 C-3.788 -1.048 -2.391 -0.824 0 0 Z " fill="#979492" transform="translate(148,219)"/>
<path d="M0 0 C0.33 0 0.66 0 1 0 C1.82 4.41 2.044 8.574 2 13.062 C1.935 20.079 2.413 27.011 3 34 C-1.907 29.093 -1.143 19.691 -1.188 13.188 C-1.164 8.669 -0.85 4.439 0 0 Z " fill="#B5B2B0" transform="translate(201,175)"/>
<path d="M0 0 C0.496 0.41 0.993 0.82 1.504 1.242 C8.858 7.076 15.738 8.217 24.914 9.438 C27.845 9.972 30.288 10.79 33 12 C32.01 12.66 31.02 13.32 30 14 C29.01 13.34 28.02 12.68 27 12 C24.923 11.778 22.837 11.643 20.75 11.562 C12.068 10.985 5.994 8.54 0 2 C0 1.34 0 0.68 0 0 Z " fill="#9C9998" transform="translate(235,206)"/>
<path d="M0 0 C3.237 4.855 3.159 8.751 3.188 14.562 C3.2 15.235 3.212 15.907 3.225 16.6 C3.236 20.299 3.107 21.84 1 25 C0.67 16.75 0.34 8.5 0 0 Z " fill="#7B7473" transform="translate(283,237)"/>
<path d="M0 0 C0.66 0 1.32 0 2 0 C3.829 7.543 2.952 12.988 0 20 C-1.38 17.24 -0.87 15.306 -0.562 12.25 C-0.155 8.142 0.056 4.129 0 0 Z " fill="#8D8A89" transform="translate(353,304)"/>
<path d="M0 0 C0.33 0 0.66 0 1 0 C1 3.3 1 6.6 1 10 C0.67 10 0.34 10 0 10 C0 6.7 0 3.4 0 0 Z M1 10 C7.404 9.764 12.846 10.177 19 12 C19 12.33 19 12.66 19 13 C17.521 13.027 16.042 13.046 14.562 13.062 C13.327 13.08 13.327 13.08 12.066 13.098 C10 13 10 13 9 12 C7.653 11.769 6.296 11.588 4.938 11.438 C3.638 11.293 2.339 11.149 1 11 C1 10.67 1 10.34 1 10 Z M19 13 C22 14 22 14 22 14 Z " fill="#7F7C7B" transform="translate(328,247)"/>
<path d="M0 0 C0 0.99 0 1.98 0 3 C-0.99 3 -1.98 3 -3 3 C-2.01 2.01 -1.02 1.02 0 0 Z M-4 4 C-3.67 4.99 -3.34 5.98 -3 7 C-4.083 7.588 -4.083 7.588 -5.188 8.188 C-8.112 9.924 -8.112 9.924 -10.5 12.562 C-12.977 14.978 -14.74 15.975 -18 17 C-16.188 14.5 -16.188 14.5 -14 12 C-13.01 12 -12.02 12 -11 12 C-10.773 11.381 -10.546 10.762 -10.312 10.125 C-8.621 7.386 -7.008 6.95 -4 6 C-4 5.34 -4 4.68 -4 4 Z " fill="#8A8786" transform="translate(477,221)"/>
<path d="M0 0 C0.99 0.495 0.99 0.495 2 1 C3.295 8.12 4.031 15.972 2 23 C1.34 23 0.68 23 0 23 C0.084 22.178 0.168 21.355 0.254 20.508 C0.893 13.5 1.022 6.967 0 0 Z " fill="#94918F" transform="translate(457,176)"/>
<path d="M0 0 C0.536 0.268 1.072 0.536 1.625 0.812 C0.635 0.812 -0.355 0.812 -1.375 0.812 C-1.375 1.472 -1.375 2.132 -1.375 2.812 C-2.695 3.143 -4.015 3.472 -5.375 3.812 C-6.185 6.727 -6.593 8.274 -5.438 11.125 C-5.087 11.682 -4.736 12.239 -4.375 12.812 C-5.365 12.812 -6.355 12.812 -7.375 12.812 C-8.627 10.75 -9.375 9.312 -9.375 6.875 C-7.555 3.121 -4.355 -0.344 0 0 Z " fill="#A6A3A1" transform="translate(48.375,169.1875)"/>
<path d="M0 0 C2 1 2 1 2 1 Z M2 1 C7.358 3.494 11.708 5.917 16 10 C16.33 10.99 16.66 11.98 17 13 C13.334 11.328 10.74 9.127 7.781 6.438 C5.945 4.956 4.141 3.977 2 3 C2 2.34 2 1.68 2 1 Z " fill="#959290" transform="translate(353,262)"/>
<path d="M0 0 C0.66 0.33 1.32 0.66 2 1 C0.615 2.324 -0.783 3.634 -2.188 4.938 C-2.965 5.668 -3.742 6.399 -4.543 7.152 C-7.131 9.099 -8.819 9.644 -12 10 C-12 9.34 -12 8.68 -12 8 C-11.203 7.636 -11.203 7.636 -10.391 7.266 C-6.26 5.306 -3.029 3.534 0 0 Z " fill="#615F5D" transform="translate(276,275)"/>
<path d="M0 0 C4.875 4.75 4.875 4.75 6 7 C3.133 6.427 2.139 6.139 0 4 C0 2.68 0 1.36 0 0 Z M6 7 C7.98 7.99 7.98 7.99 10 9 C9.01 9.495 9.01 9.495 8 10 C7.34 9.67 6.68 9.34 6 9 C6 8.34 6 7.68 6 7 Z " fill="#959391" transform="translate(128,328)"/>
<path d="M0 0 C3.268 0.972 4.73 1.624 6.75 4.438 C8 7 8 7 9 10 C8.34 10 7.68 10 7 10 C6.752 9.216 6.505 8.433 6.25 7.625 C4.805 4.591 3.944 4.33 1 3 C0.67 2.01 0.34 1.02 0 0 Z " fill="#999695" transform="translate(447,165)"/>
<path d="M0 0 C1.32 0.33 2.64 0.66 4 1 C4.33 2.32 4.66 3.64 5 5 C4.67 4.34 4.34 3.68 4 3 C1.975 2.348 1.975 2.348 0 2 C0 1.34 0 0.68 0 0 Z M5 5 C5.99 5.33 6.98 5.66 8 6 C7.67 6.99 7.34 7.98 7 9 C6.34 7.68 5.68 6.36 5 5 Z " fill="#83807F" transform="translate(153,170)"/>
<path d="M0 0 C-1.243 3.729 -2.77 4.847 -6 7 C-6.99 6.67 -7.98 6.34 -9 6 C-7.88 4.994 -6.754 3.995 -5.625 3 C-4.685 2.165 -4.685 2.165 -3.727 1.312 C-2 0 -2 0 0 0 Z " fill="#848281" transform="translate(365,354)"/>
<path d="M0 0 C0.66 0.33 1.32 0.66 2 1 C-1.625 6.875 -1.625 6.875 -5 8 C-3.628 5.046 -2.011 2.56 0 0 Z " fill="#7A7877" transform="translate(109,271)"/>
<path d="M0 0 C0.99 0.495 0.99 0.495 2 1 C2 1.66 2 2.32 2 3 C2.619 3.268 3.238 3.536 3.875 3.812 C6 5 6 5 8 8 C4.825 7.66 3.977 6.975 1.75 4.562 C0 2 0 2 0 0 Z " fill="#A3A09F" transform="translate(17,196)"/>
<path d="M0 0 C0.99 0.33 1.98 0.66 3 1 C3.33 2.65 3.66 4.3 4 6 C3.34 6 2.68 6 2 6 C1.34 4.02 0.68 2.04 0 0 Z " fill="#767372" transform="translate(96,333)"/>
<path d="M0 0 C0 0.99 0 1.98 0 3 C-1.65 3.33 -3.3 3.66 -5 4 C-5 3.34 -5 2.68 -5 2 C-3.35 1.34 -1.7 0.68 0 0 Z " fill="#878584" transform="translate(269,281)"/>
<path d="M0 0 C0.866 0.34 0.866 0.34 1.75 0.688 C-1.478 2.839 -2.534 2.888 -6.25 2.688 C-2.804 -0.389 -2.804 -0.389 0 0 Z " fill="#757372" transform="translate(43.25,139.3125)"/>
<path d="M0 0 C0.66 0 1.32 0 2 0 C1.67 0.99 1.34 1.98 1 3 C-1.562 4.188 -1.562 4.188 -4 5 C-2.719 3.293 -1.382 1.626 0 0 Z " fill="#93918F" transform="translate(463,233)"/>
<path d="M0 0 C-0.33 0.99 -0.66 1.98 -1 3 C-2.65 3 -4.3 3 -6 3 C-2.25 0 -2.25 0 0 0 Z " fill="#A6A3A1" transform="translate(343,335)"/>
<path d="M0 0 C1.938 0.375 1.938 0.375 4 1 C4.33 1.66 4.66 2.32 5 3 C3.35 2.67 1.7 2.34 0 2 C0 1.34 0 0.68 0 0 Z " fill="#AEABA9" transform="translate(460,139)"/>
<path d="M0 0 C1.5 1.375 1.5 1.375 3 3 C3 3.66 3 4.32 3 5 C2.01 4.67 1.02 4.34 0 4 C0 2.68 0 1.36 0 0 Z " fill="#817F7E" transform="translate(482,162)"/>
<path d="M0 0 C1.98 0.99 1.98 0.99 4 2 C3.34 2.66 2.68 3.32 2 4 C1.34 2.68 0.68 1.36 0 0 Z " fill="#BCB8B7" transform="translate(466,143)"/>
<path d="M0 0 C0.99 0.33 1.98 0.66 3 1 C2.34 1.66 1.68 2.32 1 3 C0.67 2.01 0.34 1.02 0 0 Z " fill="#999695" transform="translate(100,340)"/>
</svg>