
<!-- Generator: visioncortex VTracer 0.6.4 -->
<svg version="1.1" xmlns="http://www.w3.org/2000/svg" viewBox="0 0 500 500" preserveAspectRatio="xMidYMid meet">
<path d="M0 0 C1.221 0.012 2.442 0.024 3.7 0.036 C63.307 0.633 63.307 0.633 87.371 2.7 C90.785 2.982 94.199 3.227 97.616 3.46 C100.703 3.674 103.789 3.907 106.875 4.144 C108.34 4.254 109.805 4.358 111.271 4.455 C123.988 5.313 136.484 7.885 146 17 C147.313 19.625 147.246 21.772 147.395 24.707 C147.498 26.423 147.498 26.423 147.604 28.174 C147.742 30.587 147.87 33.001 147.986 35.416 C148.059 36.564 148.132 37.712 148.207 38.895 C148.264 39.945 148.32 40.995 148.378 42.077 C149.135 45.634 150.661 47.261 153 50 C156.072 56.028 155.408 62.575 155.438 69.188 C155.47 70.464 155.503 71.741 155.537 73.057 C155.584 81.436 154.249 86.847 150 94 C147.919 100.035 147.642 106.022 147.429 112.366 C147.274 116.042 147.005 118.863 145 122 C144.34 122 143.68 122 143 122 C143 122.66 143 123.32 143 124 C142.01 124 141.02 124 140 124 C140 124.66 140 125.32 140 126 C123.934 134.123 104.8 137.473 87 139 C85.677 139.12 85.677 139.12 84.328 139.243 C58.604 141.507 32.844 141.308 7.043 141.261 C0.729 141.249 -5.584 141.256 -11.898 141.268 C-34.478 141.303 -57.044 141.312 -79.598 140.102 C-80.714 140.043 -80.714 140.043 -81.853 139.982 C-140.928 136.743 -140.928 136.743 -159 122 C-160.768 119.115 -161.254 116.911 -161.309 113.551 C-161.334 112.702 -161.359 111.853 -161.385 110.979 C-161.42 109.221 -161.451 107.463 -161.479 105.705 C-161.643 100.371 -162.476 96.05 -164.321 91.048 C-165.582 87.245 -165.474 83.374 -165.594 79.406 C-165.939 76.511 -166.476 74.425 -167.441 71.719 C-169.152 66.852 -169.898 62.117 -170.438 57 C-170.553 56.162 -170.668 55.324 -170.787 54.461 C-171.47 48.118 -170.377 43.444 -167 38 C-165.993 36.885 -164.954 35.796 -163.875 34.75 C-160.134 30.766 -160.031 26.366 -159.617 21.086 C-158.867 17.337 -157.712 15.67 -155 13 C-152.52 11.742 -152.52 11.742 -149.812 10.875 C-148.834 10.555 -147.856 10.236 -146.848 9.906 C-145.908 9.607 -144.968 9.308 -144 9 C-143.277 8.722 -142.554 8.443 -141.809 8.156 C-130.616 3.908 -118.241 3.77 -106.409 3.341 C-105.141 3.294 -105.141 3.294 -103.848 3.246 C-103.105 3.222 -102.363 3.198 -101.598 3.174 C-98.753 2.984 -95.945 2.613 -93.119 2.247 C-89.673 1.845 -86.217 1.65 -82.754 1.465 C-81.575 1.4 -81.575 1.4 -80.372 1.334 C-53.567 -0.093 -26.836 -0.281 0 0 Z " fill="#C7C7C7" transform="translate(258,162)"/>
<path d="M0 0 C0.819 -0.002 1.637 -0.005 2.481 -0.007 C5.235 -0.013 7.989 -0.012 10.742 -0.012 C12.714 -0.015 14.685 -0.018 16.656 -0.022 C22.025 -0.031 27.394 -0.033 32.763 -0.034 C36.126 -0.034 39.489 -0.036 42.851 -0.039 C54.608 -0.048 66.365 -0.052 78.122 -0.052 C89.033 -0.051 99.944 -0.061 110.855 -0.077 C120.249 -0.09 129.643 -0.096 139.037 -0.095 C144.635 -0.095 150.233 -0.098 155.83 -0.108 C196.032 -0.179 196.032 -0.179 210.548 0.961 C211.909 1.064 211.909 1.064 213.297 1.17 C221.753 1.995 227.489 4.616 233.056 11.134 C233.056 12.124 233.056 13.114 233.056 14.134 C233.716 14.134 234.376 14.134 235.056 14.134 C236.578 18.896 237.313 22.92 237.347 27.964 C237.359 29.283 237.372 30.602 237.385 31.961 C237.388 33.386 237.391 34.811 237.392 36.235 C237.398 37.719 237.405 39.202 237.412 40.686 C237.424 43.791 237.428 46.895 237.427 50 C237.427 53.944 237.454 57.887 237.488 61.83 C237.511 64.895 237.515 67.96 237.513 71.025 C237.516 72.476 237.525 73.928 237.54 75.38 C237.658 87.425 236.364 98.791 228.716 108.548 C223.71 113.33 219.189 113.657 212.568 113.864 C211.593 113.904 210.617 113.945 209.613 113.986 C206.323 114.115 203.034 114.219 199.744 114.321 C198.606 114.361 197.469 114.401 196.298 114.442 C160.238 115.691 124.131 115.315 88.056 115.134 C88.056 114.804 88.056 114.474 88.056 114.134 C113.466 113.804 138.876 113.474 165.056 113.134 C165.056 112.144 165.056 111.154 165.056 110.134 C165.716 110.134 166.376 110.134 167.056 110.134 C169.711 101.127 169.309 92.049 169.251 82.755 C169.248 80.974 169.245 79.193 169.243 77.413 C169.235 72.752 169.216 68.091 169.193 63.431 C169.173 58.664 169.164 53.898 169.154 49.132 C169.132 39.799 169.098 30.466 169.056 21.134 C167.406 22.784 165.756 24.434 164.056 26.134 C164.716 26.464 165.376 26.794 166.056 27.134 C165.726 27.794 165.396 28.454 165.056 29.134 C165.035 30.738 165.066 32.343 165.119 33.946 C165.194 40.882 164.508 47.684 163.767 54.57 C163.219 59.798 162.963 64.877 163.056 70.134 C163.056 73.134 163.056 73.134 162.056 75.134 C162.026 77.443 162.123 79.733 162.216 82.04 C162.056 84.134 162.056 84.134 160.056 86.134 C158.725 81.277 159.14 76.661 159.431 71.696 C159.793 64.862 160.108 58.03 160.314 51.188 C160.334 50.515 160.355 49.842 160.376 49.149 C160.477 45.808 160.572 42.467 160.663 39.126 C160.718 37.287 160.718 37.287 160.775 35.411 C160.805 34.32 160.835 33.23 160.867 32.106 C161.042 29.354 161.471 26.823 162.056 24.134 C162.143 22.594 162.186 21.051 162.181 19.509 C162.184 18.753 162.186 17.998 162.189 17.22 C162.133 14.938 162.133 14.938 161.056 12.134 C161.206 8.686 161.5 5.246 163.056 2.134 C122.466 2.134 81.876 2.134 40.056 2.134 C41.046 3.454 42.036 4.774 43.056 6.134 C43.517 9.122 43.517 9.122 43.64 12.661 C43.68 13.633 43.68 13.633 43.721 14.625 C43.805 16.773 43.87 18.922 43.935 21.071 C43.992 22.59 44.05 24.109 44.11 25.628 C44.264 29.648 44.402 33.669 44.536 37.689 C44.776 44.796 45.043 51.903 45.31 59.009 C45.339 59.778 45.367 60.547 45.396 61.34 C45.793 71.952 46.33 82.541 47.083 93.134 C47.165 94.285 47.246 95.436 47.33 96.622 C47.735 103.451 47.735 103.451 49.056 110.134 C52.578 112.481 54.564 112.51 58.744 112.759 C59.923 112.833 61.103 112.908 62.318 112.985 C63.673 113.059 63.673 113.059 65.056 113.134 C65.056 113.464 65.056 113.794 65.056 114.134 C55.155 114.25 45.254 114.339 35.352 114.393 C30.754 114.419 26.156 114.454 21.558 114.511 C17.116 114.565 12.675 114.595 8.233 114.608 C6.543 114.617 4.852 114.635 3.162 114.662 C-13.884 114.925 -13.884 114.925 -19.944 109.134 C-26.545 102.716 -28.735 93.169 -29.044 84.244 C-29.093 80.698 -29.109 77.153 -29.112 73.606 C-29.115 72.303 -29.119 71.001 -29.122 69.658 C-29.128 66.909 -29.13 64.16 -29.129 61.41 C-29.129 57.906 -29.143 54.402 -29.16 50.897 C-29.174 47.529 -29.173 44.162 -29.174 40.794 C-29.182 39.545 -29.189 38.296 -29.196 37.008 C-29.18 30.681 -28.833 25.183 -26.944 19.134 C-26.721 18.368 -26.498 17.602 -26.268 16.813 C-24.034 10.482 -20.918 5.944 -14.819 2.821 C-9.778 0.497 -5.511 -0.011 0 0 Z M159.056 86.134 C159.386 86.134 159.716 86.134 160.056 86.134 C160.056 89.764 160.056 93.394 160.056 97.134 C159.726 97.134 159.396 97.134 159.056 97.134 C159.056 93.504 159.056 89.874 159.056 86.134 Z " fill="#BABABA" transform="translate(145.9438934326172,174.8662872314453)"/>
<path d="M0 0 C1.221 0.012 2.442 0.024 3.7 0.036 C63.307 0.633 63.307 0.633 87.371 2.7 C90.785 2.982 94.199 3.227 97.616 3.46 C100.703 3.674 103.789 3.907 106.875 4.144 C108.34 4.254 109.805 4.358 111.271 4.455 C123.988 5.313 136.484 7.885 146 17 C147.313 19.625 147.246 21.772 147.395 24.707 C147.498 26.423 147.498 26.423 147.604 28.174 C147.742 30.587 147.87 33.001 147.986 35.416 C148.059 36.564 148.132 37.712 148.207 38.895 C148.264 39.945 148.32 40.995 148.378 42.077 C149.135 45.634 150.661 47.261 153 50 C156.072 56.028 155.408 62.575 155.438 69.188 C155.47 70.464 155.503 71.741 155.537 73.057 C155.584 81.436 154.249 86.847 150 94 C147.919 100.035 147.642 106.022 147.429 112.366 C147.274 116.042 147.005 118.863 145 122 C144.34 122 143.68 122 143 122 C143 122.66 143 123.32 143 124 C142.01 124 141.02 124 140 124 C140 124.66 140 125.32 140 126 C123.934 134.123 104.8 137.473 87 139 C85.677 139.12 85.677 139.12 84.328 139.243 C58.604 141.507 32.844 141.308 7.043 141.261 C0.729 141.249 -5.584 141.256 -11.898 141.268 C-34.478 141.303 -57.044 141.312 -79.598 140.102 C-80.714 140.043 -80.714 140.043 -81.853 139.982 C-140.928 136.743 -140.928 136.743 -159 122 C-160.768 119.115 -161.254 116.911 -161.309 113.551 C-161.334 112.702 -161.359 111.853 -161.385 110.979 C-161.42 109.221 -161.451 107.463 -161.479 105.705 C-161.643 100.371 -162.476 96.05 -164.321 91.048 C-165.582 87.245 -165.474 83.374 -165.594 79.406 C-165.939 76.511 -166.476 74.425 -167.441 71.719 C-169.152 66.852 -169.898 62.117 -170.438 57 C-170.553 56.162 -170.668 55.324 -170.787 54.461 C-171.47 48.118 -170.377 43.444 -167 38 C-165.993 36.885 -164.954 35.796 -163.875 34.75 C-160.134 30.766 -160.031 26.366 -159.617 21.086 C-158.867 17.337 -157.712 15.67 -155 13 C-152.52 11.742 -152.52 11.742 -149.812 10.875 C-148.834 10.555 -147.856 10.236 -146.848 9.906 C-145.908 9.607 -144.968 9.308 -144 9 C-143.277 8.722 -142.554 8.443 -141.809 8.156 C-130.616 3.908 -118.241 3.77 -106.409 3.341 C-105.141 3.294 -105.141 3.294 -103.848 3.246 C-103.105 3.222 -102.363 3.198 -101.598 3.174 C-98.753 2.984 -95.945 2.613 -93.119 2.247 C-89.673 1.845 -86.217 1.65 -82.754 1.465 C-81.575 1.4 -81.575 1.4 -80.372 1.334 C-53.567 -0.093 -26.836 -0.281 0 0 Z M-129 17 C-129.575 17.37 -130.15 17.739 -130.742 18.12 C-134.805 21.086 -136.34 24.353 -138 29 C-138.371 29.846 -138.743 30.691 -139.125 31.562 C-140.826 36.3 -141.127 41.031 -141.145 46.03 C-141.152 47.199 -141.158 48.367 -141.165 49.571 C-141.166 50.821 -141.167 52.071 -141.168 53.359 C-141.171 54.659 -141.175 55.958 -141.178 57.297 C-141.184 60.044 -141.186 62.791 -141.185 65.538 C-141.185 69.032 -141.199 72.526 -141.216 76.02 C-141.23 79.383 -141.229 82.746 -141.23 86.109 C-141.238 87.351 -141.245 88.593 -141.252 89.873 C-141.223 101.016 -140.377 113 -132.48 121.668 C-126.997 126.402 -122.744 127.3 -115.636 127.319 C-114.362 127.334 -114.362 127.334 -113.063 127.349 C-110.224 127.38 -107.386 127.397 -104.547 127.414 C-102.529 127.433 -100.512 127.453 -98.494 127.473 C-93.047 127.526 -87.6 127.565 -82.152 127.601 C-77.607 127.633 -73.061 127.67 -68.516 127.708 C-54.746 127.82 -40.977 127.906 -27.207 127.982 C-24.137 127.999 -21.066 128.018 -17.996 128.036 C16.011 128.243 50.034 128.436 84.031 127.417 C86.348 127.348 88.666 127.287 90.984 127.233 C94.096 127.155 97.205 127.046 100.316 126.926 C101.207 126.908 102.098 126.89 103.015 126.871 C109.168 126.576 112.315 125.02 117 121 C118.709 118.986 118.709 118.986 119.75 116.812 C120.299 115.801 120.299 115.801 120.859 114.77 C124.769 105.276 125.434 96.567 125.363 86.395 C125.363 84.901 125.363 83.408 125.365 81.914 C125.365 78.802 125.354 75.69 125.336 72.577 C125.313 68.603 125.313 64.629 125.32 60.655 C125.323 57.578 125.316 54.5 125.307 51.423 C125.303 49.958 125.302 48.493 125.303 47.028 C125.304 44.978 125.291 42.928 125.275 40.878 C125.268 39.135 125.268 39.135 125.261 37.356 C124.97 33.617 124.14 30.562 123 27 C122.34 27 121.68 27 121 27 C120.914 26.416 120.827 25.832 120.738 25.23 C119.796 22.382 118.455 21.252 116.188 19.312 C115.5 18.711 114.813 18.109 114.105 17.488 C98.28 6.302 59.258 12.67 40.669 12.665 C37.322 12.664 33.975 12.66 30.628 12.654 C18.927 12.636 7.227 12.628 -4.474 12.629 C-15.35 12.631 -26.226 12.609 -37.102 12.578 C-46.484 12.552 -55.865 12.541 -65.247 12.542 C-70.832 12.543 -76.417 12.537 -82.002 12.516 C-87.24 12.497 -92.477 12.496 -97.715 12.511 C-99.632 12.513 -101.549 12.508 -103.466 12.496 C-116.837 12.107 -116.837 12.107 -129 17 Z " fill="#3D3D3D" transform="translate(258,162)"/>
<path d="M0 0 C2.562 3 2.562 3 2.562 6 C3.222 6 3.882 6 4.562 6 C6.084 10.762 6.82 14.787 6.853 19.831 C6.866 21.149 6.879 22.468 6.892 23.827 C6.895 25.252 6.897 26.677 6.898 28.102 C6.905 29.585 6.912 31.068 6.919 32.552 C6.931 35.657 6.934 38.762 6.933 41.867 C6.933 45.81 6.96 49.753 6.995 53.697 C7.017 56.761 7.021 59.826 7.02 62.891 C7.022 64.343 7.031 65.794 7.047 67.246 C7.164 79.291 5.871 90.657 -1.777 100.414 C-6.783 105.196 -11.305 105.523 -17.926 105.73 C-18.901 105.771 -19.876 105.811 -20.881 105.852 C-24.17 105.981 -27.46 106.085 -30.75 106.188 C-31.887 106.227 -33.024 106.267 -34.196 106.308 C-70.256 107.557 -106.363 107.182 -142.438 107 C-142.438 106.67 -142.438 106.34 -142.438 106 C-117.027 105.67 -91.618 105.34 -65.438 105 C-65.438 104.01 -65.438 103.02 -65.438 102 C-64.778 102 -64.118 102 -63.438 102 C-60.783 92.994 -61.185 83.915 -61.242 74.621 C-61.246 72.84 -61.249 71.06 -61.251 69.279 C-61.258 64.618 -61.278 59.958 -61.3 55.297 C-61.321 50.531 -61.33 45.764 -61.34 40.998 C-61.361 31.665 -61.395 22.333 -61.438 13 C-63.087 14.65 -64.738 16.3 -66.438 18 C-65.778 18.33 -65.118 18.66 -64.438 19 C-64.767 19.66 -65.097 20.32 -65.438 21 C-65.459 22.604 -65.428 24.209 -65.375 25.812 C-65.299 32.748 -65.986 39.55 -66.726 46.437 C-67.274 51.664 -67.53 56.744 -67.438 62 C-67.438 65 -67.438 65 -68.438 67 C-68.468 69.309 -68.371 71.599 -68.277 73.906 C-68.438 76 -68.438 76 -70.438 78 C-71.768 73.143 -71.354 68.528 -71.062 63.562 C-70.701 56.728 -70.385 49.896 -70.18 43.055 C-70.159 42.382 -70.139 41.709 -70.118 41.015 C-70.017 37.674 -69.921 34.334 -69.831 30.992 C-69.775 29.153 -69.775 29.153 -69.719 27.277 C-69.688 26.187 -69.658 25.096 -69.627 23.972 C-69.452 21.22 -69.023 18.69 -68.438 16 C-68.351 14.46 -68.307 12.917 -68.312 11.375 C-68.31 10.62 -68.307 9.864 -68.305 9.086 C-68.361 6.805 -68.361 6.805 -69.438 4 C-69.287 0.552 -68.994 -2.887 -67.438 -6 C-11.132 -10.337 -11.132 -10.337 0 0 Z M-71.438 78 C-71.108 78 -70.777 78 -70.438 78 C-70.438 81.63 -70.438 85.26 -70.438 89 C-70.767 89 -71.098 89 -71.438 89 C-71.438 85.37 -71.438 81.74 -71.438 78 Z " fill="#BDBDBD" transform="translate(376.4375,183)"/>
<path d="M0 0 C0.66 0.33 1.32 0.66 2 1 C-1.465 3.97 -1.465 3.97 -5 7 C-3.383 3.765 -2.524 2.294 0 0 Z M8.688 -0.625 C9.451 -0.419 10.214 -0.213 11 0 C10.826 5.69 9.457 8.337 5.375 12.285 C4.756 12.851 4.137 13.417 3.5 14 C2.912 14.597 2.324 15.194 1.719 15.809 C-0.799 18.158 -2.701 19.87 -6.202 20.221 C-8.547 19.998 -10.717 19.577 -13 19 C-13.667 18.841 -14.333 18.683 -15.02 18.519 C-16.962 18.026 -18.885 17.485 -20.812 16.938 C-33.769 13.504 -45.782 14.164 -57.711 20.535 C-64.63 24.963 -68.714 32.233 -71 40 C-72.427 52.315 -69.352 59.808 -62.047 69.539 C-57.758 74.695 -53.375 76.431 -47 78 C-37.414 78.79 -27.825 79.074 -20.188 72.625 C-19.466 71.759 -18.744 70.892 -18 70 C-17.257 69.175 -16.515 68.35 -15.75 67.5 C-11.567 61.525 -12.401 52.982 -13 46 C-14.017 42.94 -15.278 40.766 -17 38 C-17.33 37.01 -17.66 36.02 -18 35 C-19.782 33.858 -19.782 33.858 -22 33 C-22.73 32.658 -23.459 32.317 -24.211 31.965 C-30.059 29.942 -37.508 29.846 -43.398 31.793 C-46.446 33.471 -48.065 35.098 -50 38 C-50.66 38 -51.32 38 -52 38 C-53.472 43.886 -54.148 49.42 -51.25 54.875 C-48.786 58.493 -48.786 58.493 -45 60 C-40.859 60.329 -37.966 60.282 -34 59.125 C-31.114 56.059 -31.526 53.454 -31.629 49.375 C-31.871 46.74 -31.871 46.74 -34 44 C-34.188 40.875 -34.188 40.875 -34 38 C-33 37 -33 37 -30.25 36.5 C-27 37 -27 37 -24.125 39.562 C-20.478 45.342 -21.106 52.478 -22 59 C-23.855 63.715 -28.282 66.297 -32.762 68.305 C-38.455 70.073 -43.901 69.809 -49.312 67.312 C-55.42 63.793 -60.232 58.501 -63 52 C-64.07 46.196 -63.33 41.126 -60.395 36.012 C-55.181 28.49 -49.804 22.935 -41 20 C-30.121 19.216 -21.401 20.306 -12.785 27.277 C-5.566 34.243 -2.911 43.639 -2.562 53.438 C-2.887 64.076 -6.318 71.288 -13.703 78.902 C-22.426 86.869 -32.315 87.31 -43.602 87.301 C-45.394 87.307 -45.394 87.307 -47.223 87.314 C-49.74 87.319 -52.256 87.32 -54.772 87.316 C-58.619 87.313 -62.466 87.336 -66.312 87.361 C-68.763 87.364 -71.214 87.364 -73.664 87.363 C-74.811 87.372 -75.958 87.382 -77.14 87.391 C-82.913 87.358 -87.126 87.23 -92 84 C-91.736 74.144 -90.082 65.757 -86.75 56.5 C-86.34 55.325 -85.931 54.149 -85.509 52.938 C-84.705 50.639 -83.895 48.342 -83.078 46.048 C-82.187 43.528 -81.33 41.003 -80.504 38.461 C-76.707 27.034 -70.754 16.286 -59.688 10.562 C-57.571 9.569 -56.343 9 -54 9 C-54 8.34 -54 7.68 -54 7 C-47.797 4.79 -42.104 4.764 -35.562 4.875 C-34.545 4.884 -33.527 4.893 -32.479 4.902 C-29.985 4.926 -27.493 4.959 -25 5 C-25 5.66 -25 6.32 -25 7 C-22.854 7.204 -20.709 7.408 -18.562 7.609 C-16 8 -16 8 -13.75 8.828 C-11.272 9.731 -9.644 10.203 -7 10 C-3.19 7.438 -0.182 4.286 3 1 C6 -1 6 -1 8.688 -0.625 Z " fill="#444444" transform="translate(295,189)"/>
<path d="M0 0 C0.66 0.33 1.32 0.66 2 1 C-1.465 3.97 -1.465 3.97 -5 7 C-3.383 3.765 -2.524 2.294 0 0 Z M8.688 -0.625 C9.451 -0.419 10.214 -0.213 11 0 C10.826 5.69 9.457 8.337 5.375 12.285 C4.756 12.851 4.137 13.417 3.5 14 C2.912 14.597 2.324 15.194 1.719 15.809 C-0.799 18.158 -2.701 19.87 -6.202 20.221 C-8.547 19.998 -10.717 19.577 -13 19 C-13.667 18.841 -14.333 18.683 -15.02 18.519 C-16.962 18.026 -18.885 17.485 -20.812 16.938 C-33.769 13.504 -45.782 14.164 -57.711 20.535 C-64.63 24.963 -68.714 32.233 -71 40 C-72.544 53.329 -68.145 61.175 -61 72 C-61.99 72.495 -61.99 72.495 -63 73 C-67.29 67.06 -71.58 61.12 -76 55 C-74.968 59.126 -73.716 60.846 -71 64 C-71.33 64.66 -71.66 65.32 -72 66 C-74 65 -74 65 -74.938 63 C-75.889 60.654 -75.889 60.654 -79 60 C-81.27 66.71 -82.495 72.931 -83 80 C-76.73 80.33 -70.46 80.66 -64 81 C-64 81.33 -64 81.66 -64 82 C-68.455 82.495 -68.455 82.495 -73 83 C-69.7 83.33 -66.4 83.66 -63 84 C-63 84.33 -63 84.66 -63 85 C-68.239 86.067 -73.304 86.183 -78.625 86.188 C-79.471 86.2 -80.316 86.212 -81.188 86.225 C-82.413 86.228 -82.413 86.228 -83.664 86.23 C-84.401 86.235 -85.138 86.239 -85.897 86.243 C-88.292 85.966 -89.918 85.187 -92 84 C-91.736 74.144 -90.082 65.757 -86.75 56.5 C-86.34 55.325 -85.931 54.149 -85.509 52.938 C-84.705 50.639 -83.895 48.342 -83.078 46.048 C-82.187 43.528 -81.33 41.003 -80.504 38.461 C-76.707 27.034 -70.754 16.286 -59.688 10.562 C-57.571 9.569 -56.343 9 -54 9 C-54 8.34 -54 7.68 -54 7 C-47.797 4.79 -42.104 4.764 -35.562 4.875 C-34.545 4.884 -33.527 4.893 -32.479 4.902 C-29.985 4.926 -27.493 4.959 -25 5 C-25 5.66 -25 6.32 -25 7 C-22.854 7.204 -20.709 7.408 -18.562 7.609 C-16 8 -16 8 -13.75 8.828 C-11.272 9.731 -9.644 10.203 -7 10 C-3.19 7.438 -0.182 4.286 3 1 C6 -1 6 -1 8.688 -0.625 Z " fill="#4C4C4C" transform="translate(295,189)"/>
<path d="M0 0 C3.271 -0.116 6.541 -0.187 9.812 -0.25 C10.741 -0.284 11.67 -0.317 12.627 -0.352 C13.966 -0.371 13.966 -0.371 15.332 -0.391 C16.565 -0.422 16.565 -0.422 17.823 -0.454 C20 0 20 0 21.6 1.62 C23.418 4.71 23.46 6.949 23.584 10.527 C23.611 11.175 23.637 11.824 23.664 12.491 C23.749 14.64 23.814 16.788 23.879 18.938 C23.936 20.457 23.994 21.976 24.053 23.495 C24.208 27.515 24.346 31.535 24.48 35.555 C24.72 42.663 24.987 49.769 25.254 56.875 C25.282 57.644 25.311 58.414 25.34 59.206 C25.737 69.818 26.274 80.407 27.027 91 C27.109 92.151 27.19 93.302 27.274 94.488 C27.679 101.317 27.679 101.317 29 108 C32.522 110.348 34.508 110.377 38.688 110.625 C39.867 110.7 41.046 110.775 42.262 110.852 C43.617 110.925 43.617 110.925 45 111 C45 111.33 45 111.66 45 112 C34.77 112 24.54 112 14 112 C13.089 109.267 12.828 107.46 12.719 104.629 C12.682 103.688 12.645 102.748 12.607 101.779 C12.554 100.187 12.554 100.187 12.5 98.562 C12.459 97.424 12.419 96.285 12.377 95.112 C11.874 79.853 11.641 64.587 11.393 49.323 C11.205 38.214 10.944 27.111 10.531 16.008 C10.494 14.932 10.457 13.857 10.418 12.748 C10.379 11.76 10.339 10.772 10.299 9.754 C10.265 8.882 10.232 8.01 10.197 7.111 C10.123 4.945 10.123 4.945 9 3 C6.644 2.532 6.644 2.532 3.938 2.375 C3.018 2.3 2.099 2.225 1.152 2.148 C0.442 2.099 -0.268 2.05 -1 2 C-0.67 1.34 -0.34 0.68 0 0 Z " fill="#999999" transform="translate(166,177)"/>
<path d="M0 0 C6.93 0 13.86 0 21 0 C21.495 0.99 21.495 0.99 22 2 C21.216 2.392 20.433 2.784 19.625 3.188 C16.528 5.326 16.111 6.47 15 10 C14.652 12.657 14.652 12.657 14.621 15.527 C14.588 16.683 14.554 17.838 14.52 19.028 C14.479 20.963 14.479 20.963 14.438 22.938 C14.402 24.323 14.365 25.709 14.328 27.095 C14.08 36.952 13.935 46.811 13.786 56.67 C13.754 58.768 13.722 60.865 13.69 62.962 C13.593 69.316 13.499 75.67 13.419 82.024 C13.393 84.06 13.365 86.097 13.336 88.133 C13.3 90.659 13.268 93.185 13.24 95.711 C13.223 96.846 13.207 97.981 13.189 99.151 C13.171 100.634 13.171 100.634 13.151 102.147 C13 105 13 105 12 111 C16.62 111 21.24 111 26 111 C26 111.33 26 111.66 26 112 C6.179 113.366 -13.671 113.117 -33.527 113.069 C-38.214 113.058 -42.901 113.054 -47.588 113.049 C-56.725 113.038 -65.863 113.021 -75 113 C-75 112.67 -75 112.34 -75 112 C-49.59 111.67 -24.18 111.34 2 111 C2 110.01 2 109.02 2 108 C2.66 108 3.32 108 4 108 C6.655 98.994 6.253 89.915 6.195 80.621 C6.192 78.84 6.189 77.06 6.187 75.279 C6.179 70.618 6.16 65.958 6.137 61.297 C6.117 56.531 6.108 51.764 6.098 46.998 C6.076 37.665 6.042 28.333 6 19 C4.35 20.65 2.7 22.3 1 24 C1.66 24.33 2.32 24.66 3 25 C2.67 25.66 2.34 26.32 2 27 C1.979 28.604 2.01 30.209 2.062 31.812 C2.138 38.748 1.451 45.55 0.711 52.437 C0.163 57.664 -0.093 62.744 0 68 C0 71 0 71 -1 73 C-1.03 75.309 -0.933 77.599 -0.84 79.906 C-1 82 -1 82 -3 84 C-4.331 79.143 -3.916 74.528 -3.625 69.562 C-3.263 62.728 -2.948 55.896 -2.742 49.055 C-2.722 48.382 -2.701 47.709 -2.68 47.015 C-2.579 43.674 -2.484 40.334 -2.393 36.992 C-2.338 35.153 -2.338 35.153 -2.281 33.277 C-2.251 32.187 -2.221 31.096 -2.189 29.972 C-2.014 27.22 -1.585 24.69 -1 22 C-0.913 20.46 -0.87 18.917 -0.875 17.375 C-0.872 16.62 -0.87 15.864 -0.867 15.086 C-0.923 12.805 -0.923 12.805 -2 10 C-1.85 6.552 -1.556 3.113 0 0 Z M22 0 C25 1 25 1 25 1 Z M-4 84 C-3.67 84 -3.34 84 -3 84 C-3 87.63 -3 91.26 -3 95 C-3.33 95 -3.66 95 -4 95 C-4 91.37 -4 87.74 -4 84 Z " fill="#979797" transform="translate(309,177)"/>
<path d="M0 0 C4.53 3.12 8.904 6.822 11 12 C12.569 20.987 13.111 31.085 11 40 C10.34 40 9.68 40 9 40 C8.67 41.98 8.34 43.96 8 46 C7.01 46.33 6.02 46.66 5 47 C5 47.66 5 48.32 5 49 C2.525 49.495 2.525 49.495 0 50 C0.41 49.42 0.82 48.84 1.242 48.242 C1.781 47.461 2.32 46.68 2.875 45.875 C3.409 45.109 3.942 44.344 4.492 43.555 C8.696 36.432 8.782 29.069 8 21 C6.978 17.944 5.721 15.764 4 13 C3.505 11.515 3.505 11.515 3 10 C1.218 8.858 1.218 8.858 -1 8 C-1.73 7.658 -2.459 7.317 -3.211 6.965 C-9.059 4.942 -16.508 4.846 -22.398 6.793 C-25.446 8.471 -27.065 10.098 -29 13 C-29.66 13 -30.32 13 -31 13 C-32.472 18.886 -33.148 24.42 -30.25 29.875 C-27.786 33.493 -27.786 33.493 -24 35 C-19.859 35.329 -16.966 35.282 -13 34.125 C-10.114 31.059 -10.526 28.454 -10.629 24.375 C-10.871 21.74 -10.871 21.74 -13 19 C-13.188 15.875 -13.188 15.875 -13 13 C-12 12 -12 12 -9.25 11.5 C-6 12 -6 12 -3.125 14.562 C0.522 20.342 -0.106 27.478 -1 34 C-2.855 38.715 -7.282 41.297 -11.762 43.305 C-17.455 45.073 -22.901 44.809 -28.312 42.312 C-34.42 38.793 -39.232 33.501 -42 27 C-43.121 20.921 -42.071 16.027 -39.266 10.594 C-37.738 8.67 -36.199 8.035 -34 7 C-33.691 6.361 -33.381 5.721 -33.062 5.062 C-31.614 2.25 -29.785 1.392 -27 0 C-26.34 0 -25.68 0 -25 0 C-25 -0.66 -25 -1.32 -25 -2 C-16.82 -4.359 -7.687 -3.627 0 0 Z M-2 50 C-1.34 50.33 -0.68 50.66 0 51 C-0.99 51 -1.98 51 -3 51 C-2.67 50.67 -2.34 50.34 -2 50 Z " fill="#434343" transform="translate(274,214)"/>
<path d="M0 0 C0.742 -0 1.484 -0.001 2.248 -0.001 C4.689 0.001 7.129 0.016 9.569 0.032 C11.266 0.035 12.963 0.038 14.659 0.04 C19.116 0.048 23.573 0.068 28.03 0.09 C32.581 0.11 37.133 0.119 41.684 0.129 C50.608 0.151 59.532 0.185 68.456 0.227 C67.796 0.887 67.136 1.547 66.456 2.227 C66.786 2.887 67.116 3.547 67.456 4.227 C68.04 4.235 68.624 4.243 69.226 4.252 C75.409 4.339 81.592 4.438 87.774 4.544 C90.07 4.582 92.365 4.617 94.66 4.649 C108.703 4.845 122.52 5.437 136.456 7.227 C136.456 7.557 136.456 7.887 136.456 8.227 C134.643 8.255 132.831 8.274 131.018 8.29 C130.009 8.301 129 8.313 127.96 8.325 C125.327 8.251 122.882 8.059 120.281 7.731 C115.753 7.215 111.297 7.075 106.743 7.069 C105.5 7.061 105.5 7.061 104.232 7.054 C101.482 7.039 98.733 7.03 95.983 7.022 C94.001 7.012 92.02 7.002 90.038 6.992 C84.677 6.965 79.316 6.944 73.956 6.924 C68.346 6.902 62.737 6.874 57.127 6.848 C46.513 6.798 35.9 6.753 25.286 6.71 C13.199 6.66 1.112 6.605 -10.975 6.55 C-35.832 6.436 -60.688 6.329 -85.544 6.227 C-85.544 5.897 -85.544 5.567 -85.544 5.227 C-82.42 5.031 -79.295 4.846 -76.169 4.665 C-74.835 4.58 -74.835 4.58 -73.474 4.495 C-72.198 4.422 -72.198 4.422 -70.896 4.348 C-70.11 4.301 -69.325 4.254 -68.515 4.205 C-66.544 4.227 -66.544 4.227 -64.544 5.227 C-64.544 4.567 -64.544 3.907 -64.544 3.227 C-63.373 3.469 -63.373 3.469 -62.178 3.717 C-57.566 4.364 -53.055 4.389 -48.404 4.395 C-46.958 4.4 -46.958 4.4 -45.484 4.405 C-43.457 4.41 -41.43 4.413 -39.403 4.412 C-36.291 4.415 -33.179 4.433 -30.068 4.452 C-28.096 4.455 -26.125 4.457 -24.154 4.458 C-23.22 4.465 -22.287 4.472 -21.325 4.479 C-20.033 4.475 -20.033 4.475 -18.715 4.47 C-17.956 4.471 -17.197 4.473 -16.415 4.474 C-14.299 4.388 -14.299 4.388 -12.544 2.227 C-8.401 0.09 -4.564 -0.047 0 0 Z " fill="#474747" transform="translate(226.544189453125,168.77294921875)"/>
<path d="M0 0 C1.114 0.34 1.114 0.34 2.25 0.688 C2.076 6.378 0.707 9.025 -3.375 12.973 C-3.994 13.539 -4.613 14.104 -5.25 14.688 C-6.132 15.583 -6.132 15.583 -7.031 16.496 C-9.699 18.985 -11.497 20.612 -15.227 20.836 C-17.459 20.591 -19.573 20.236 -21.75 19.688 C-20.76 19.028 -19.77 18.368 -18.75 17.688 C-18.09 16.697 -17.43 15.708 -16.75 14.688 C-15.636 14.399 -14.522 14.11 -13.375 13.812 C-9.205 12.518 -7.862 11.471 -5.75 7.688 C-5.881 4.936 -5.881 4.936 -6.75 2.688 C-4.295 0.414 -3.412 -0.388 0 0 Z M-8.75 0.688 C-8.09 1.018 -7.43 1.347 -6.75 1.688 C-10.215 4.657 -10.215 4.657 -13.75 7.688 C-12.133 4.453 -11.274 2.982 -8.75 0.688 Z M-7.75 3.688 C-7.75 6.688 -7.75 6.688 -9.035 8.328 C-13.829 12.669 -13.829 12.669 -17.875 12.75 C-19.176 12.431 -20.466 12.07 -21.75 11.688 C-36.966 7.677 -54.256 6.535 -68.812 13.875 C-78.147 19.783 -82.645 28.59 -85.5 38.875 C-87.476 45.769 -89.724 52.424 -92.438 59.062 C-95.749 67.223 -98.75 75.777 -98.75 84.688 C-98.09 85.017 -97.43 85.347 -96.75 85.688 C-98.07 85.358 -99.39 85.028 -100.75 84.688 C-100.486 74.831 -98.832 66.444 -95.5 57.188 C-95.09 56.012 -94.681 54.837 -94.259 53.625 C-93.455 51.326 -92.645 49.029 -91.828 46.735 C-90.937 44.215 -90.08 41.69 -89.254 39.148 C-85.457 27.721 -79.504 16.973 -68.438 11.25 C-66.321 10.256 -65.093 9.688 -62.75 9.688 C-62.75 9.028 -62.75 8.368 -62.75 7.688 C-56.547 5.478 -50.854 5.452 -44.312 5.562 C-43.295 5.572 -42.277 5.581 -41.229 5.59 C-38.735 5.613 -36.243 5.646 -33.75 5.688 C-33.75 6.347 -33.75 7.007 -33.75 7.688 C-32.451 7.811 -31.151 7.935 -29.812 8.062 C-26.38 8.396 -23.452 9.107 -20.188 10.188 C-17.991 10.841 -17.991 10.841 -15.75 10.688 C-12.61 8.772 -10.195 6.419 -7.75 3.688 Z M-7.75 7.688 C-7.09 8.018 -6.43 8.347 -5.75 8.688 C-8.72 11.162 -8.72 11.162 -11.75 13.688 C-10.598 11.219 -9.702 9.64 -7.75 7.688 Z " fill="#8A8A8A" transform="translate(303.75,188.3125)"/>
<path d="M0 0 C23.1 0 46.2 0 70 0 C70 0.33 70 0.66 70 1 C66.04 1.33 62.08 1.66 58 2 C60.832 2.228 63.664 2.456 66.496 2.684 C69 3 69 3 70 4 C71.347 4.231 72.704 4.412 74.062 4.562 C75.362 4.707 76.661 4.851 78 5 C77.67 5.66 77.34 6.32 77 7 C76.01 7.33 75.02 7.66 74 8 C74 8.66 74 9.32 74 10 C64.76 10 55.52 10 46 10 C45.505 8.515 45.505 8.515 45 7 C42.71 5.855 41.464 5.884 38.921 5.902 C38.08 5.906 37.238 5.909 36.371 5.912 C35.46 5.921 34.548 5.929 33.609 5.938 C32.203 5.943 32.203 5.943 30.769 5.949 C26.751 5.965 22.733 5.993 18.714 6.021 C15.784 6.039 12.853 6.051 9.922 6.062 C9.019 6.071 8.115 6.079 7.185 6.088 C2.667 6.105 -1.554 5.927 -6 5 C-5.67 4.34 -5.34 3.68 -5 3 C-2.286 2.688 0.339 2.487 3.062 2.375 C3.821 2.336 4.58 2.298 5.361 2.258 C7.24 2.163 9.12 2.081 11 2 C7.37 1.67 3.74 1.34 0 1 C0 0.67 0 0.34 0 0 Z " fill="#313131" transform="translate(248,164)"/>
<path d="M0 0 C2 1 2 1 2 1 Z M-2 1 C0 2 0 2 0 2 Z M-4 2 C-2 3 -2 3 -2 3 Z M-7 4 C-6.34 4.33 -5.68 4.66 -5 5 C-5.671 5.783 -5.671 5.783 -6.355 6.582 C-13.919 15.791 -17.861 23.729 -17.348 35.848 C-16.451 43.982 -11.409 50.32 -7 57 C-7.99 57.495 -7.99 57.495 -9 58 C-13.29 52.06 -17.58 46.12 -22 40 C-20.968 44.126 -19.716 45.846 -17 49 C-17.33 49.66 -17.66 50.32 -18 51 C-20 50 -20 50 -20.938 48 C-21.889 45.654 -21.889 45.654 -25 45 C-27.27 51.71 -28.495 57.931 -29 65 C-22.73 65.33 -16.46 65.66 -10 66 C-10 66.33 -10 66.66 -10 67 C-14.455 67.495 -14.455 67.495 -19 68 C-15.7 68.33 -12.4 68.66 -9 69 C-9 69.33 -9 69.66 -9 70 C-14.1 71.027 -19.009 71.183 -24.188 71.188 C-24.994 71.2 -25.8 71.212 -26.631 71.225 C-27.406 71.227 -28.182 71.228 -28.98 71.23 C-29.681 71.235 -30.381 71.239 -31.102 71.243 C-33 71 -33 71 -36 69 C-38.663 62.85 -34.864 54.415 -32.754 48.516 C-29.402 40.201 -29.402 40.201 -27 39 C-27.99 42.96 -28.98 46.92 -30 51 C-29.01 48.03 -28.02 45.06 -27 42 C-26.34 42 -25.68 42 -25 42 C-23.502 38.542 -22.596 35.341 -22 31.625 C-21.262 27.296 -20.304 23.191 -19 19 C-18.34 19 -17.68 19 -17 19 C-16.752 18.134 -16.505 17.268 -16.25 16.375 C-14.296 11.101 -11.778 7.071 -7 4 Z M-32 53 C-31 56 -31 56 -31 56 Z " fill="#363636" transform="translate(241,204)"/>
<path d="M0 0 C6.93 0 13.86 0 21 0 C21.33 0.66 21.66 1.32 22 2 C21.216 2.392 20.433 2.784 19.625 3.188 C16.516 5.334 16.101 6.448 15 10 C14.659 12.953 14.659 12.953 14.637 16.135 C14.607 17.35 14.577 18.564 14.545 19.816 C14.509 21.769 14.509 21.769 14.473 23.762 C14.439 25.117 14.404 26.473 14.368 27.829 C14.218 33.573 14.091 39.317 13.971 45.062 C13.897 48.582 13.808 52.102 13.711 55.622 C13.661 57.615 13.627 59.608 13.594 61.601 C13.56 62.806 13.527 64.011 13.492 65.253 C13.47 66.317 13.447 67.381 13.423 68.477 C13.284 69.31 13.144 70.142 13 71 C11.515 71.99 11.515 71.99 10 73 C9.42 61.329 8.943 49.671 9.004 37.984 C9.007 37.227 9.011 36.47 9.015 35.69 C9.035 31.952 9.071 28.215 9.125 24.477 C9.292 14.56 9.292 14.56 7 5 C4.517 3.403 4.517 3.403 2 3 C2 3.66 2 4.32 2 5 C1.34 5 0.68 5 0 5 C0.33 6.65 0.66 8.3 1 10 C0.34 10 -0.32 10 -1 10 C-1.125 2.25 -1.125 2.25 0 0 Z M22 0 C25 1 25 1 25 1 Z " fill="#888888" transform="translate(309,177)"/>
<path d="M0 0 C8.47 4.934 12.986 11.843 15.492 21.234 C17.207 30.574 16.644 39.606 12 48 C5.592 56.758 -1.126 62.2 -12 64 C-16.273 64.26 -20.533 64.233 -24.812 64.195 C-26.022 64.192 -27.231 64.19 -28.478 64.187 C-32.318 64.176 -36.159 64.15 -40 64.125 C-42.613 64.115 -45.227 64.106 -47.84 64.098 C-54.227 64.076 -60.613 64.042 -67 64 C-67 63.67 -67 63.34 -67 63 C-66.44 62.992 -65.88 62.984 -65.303 62.975 C-59.413 62.889 -53.523 62.789 -47.634 62.683 C-45.443 62.645 -43.252 62.61 -41.061 62.578 C-16.179 63.045 -16.179 63.045 5.168 52.035 C10.447 46.17 12.329 38.346 12.215 30.629 C11.393 20.573 8.261 12.459 1.312 5.188 C-7.532 -0.653 -16.744 -0.369 -27 0 C-27 0.66 -27 1.32 -27 2 C-29.375 3.688 -29.375 3.688 -32 5 C-32.66 4.67 -33.32 4.34 -34 4 C-24.576 -4.527 -11.482 -5.774 0 0 Z " fill="#767676" transform="translate(276,212)"/>
<path d="M0 0 C0.33 0.66 0.66 1.32 1 2 C0.01 3.485 0.01 3.485 -1 5 C-0.679 7.634 -0.186 9.627 1 12 C0.959 15.544 0.874 19.076 0.697 22.615 C0.574 27.869 1.383 29.985 5 34 C5 35.32 5 36.64 5 38 C6.98 37.505 6.98 37.505 9 37 C9.33 40.63 9.66 44.26 10 48 C7.525 48.495 7.525 48.495 5 49 C2.418 44.697 0.497 40.812 -1 36 C-1.335 35.401 -1.67 34.801 -2.016 34.184 C-3.228 31.494 -3.415 29.185 -3.625 26.25 C-3.7 25.265 -3.775 24.28 -3.852 23.266 C-3.901 22.518 -3.95 21.77 -4 21 C-4.66 21.66 -5.32 22.32 -6 23 C-6.853 18.925 -6.983 16.028 -6 12 C-5.918 10.845 -5.835 9.69 -5.75 8.5 C-4.844 4.271 -3.25 2.75 0 0 Z M-5 32 C-3 34 -3 34 -2.875 36.625 C-2.916 37.409 -2.957 38.192 -3 39 C-5 36 -5 36 -5 32 Z " fill="#4A4A4A" transform="translate(98,215)"/>
<path d="M0 0 C0.84 0.162 1.68 0.324 2.545 0.491 C6.174 1.026 9.608 1.134 13.275 1.145 C13.986 1.148 14.696 1.152 15.428 1.155 C17.797 1.166 20.167 1.17 22.536 1.174 C24.24 1.18 25.944 1.187 27.648 1.194 C31.315 1.208 34.981 1.22 38.648 1.23 C44.463 1.245 50.278 1.269 56.094 1.295 C72.629 1.366 89.165 1.425 105.701 1.477 C114.836 1.505 123.971 1.541 133.107 1.583 C138.868 1.61 144.63 1.628 150.392 1.639 C154.006 1.649 157.62 1.666 161.234 1.686 C162.889 1.693 164.543 1.697 166.198 1.698 C177.914 1.703 189.37 2.588 201 4 C201 4.33 201 4.66 201 5 C199.188 5.028 197.375 5.047 195.562 5.062 C194.553 5.074 193.544 5.086 192.504 5.098 C189.871 5.024 187.426 4.832 184.826 4.504 C180.298 3.988 175.841 3.848 171.287 3.842 C170.044 3.834 170.044 3.834 168.776 3.827 C166.027 3.812 163.277 3.803 160.527 3.795 C158.545 3.785 156.564 3.775 154.582 3.765 C149.221 3.738 143.861 3.717 138.5 3.697 C132.89 3.675 127.281 3.647 121.672 3.621 C111.058 3.571 100.444 3.526 89.83 3.483 C77.743 3.433 65.656 3.378 53.569 3.323 C28.713 3.209 3.856 3.102 -21 3 C-21 2.67 -21 2.34 -21 2 C-17.875 1.804 -14.75 1.619 -11.625 1.438 C-10.291 1.353 -10.291 1.353 -8.93 1.268 C-7.654 1.195 -7.654 1.195 -6.352 1.121 C-5.566 1.074 -4.781 1.027 -3.971 0.978 C-2 1 -2 1 0 2 C0 1.34 0 0.68 0 0 Z " fill="#838383" transform="translate(162,172)"/>
<path d="M0 0 C3 2 3 2 3.512 3.945 C3.674 5.964 3.837 7.982 4 10 C4.33 8.68 4.66 7.36 5 6 C5.66 6 6.32 6 7 6 C7.081 9.063 7.141 12.124 7.188 15.188 C7.213 16.052 7.238 16.916 7.264 17.807 C7.319 22.649 7.305 26.135 4 30 C3.34 30 2.68 30 2 30 C1.67 30.66 1.34 31.32 1 32 C0.67 30.35 0.34 28.7 0 27 C-2.31 27.33 -4.62 27.66 -7 28 C-6.01 27.67 -5.02 27.34 -4 27 C-4 26.34 -4 25.68 -4 25 C-3.01 25 -2.02 25 -1 25 C-1 23.02 -1 21.04 -1 19 C-2.98 19 -4.96 19 -7 19 C-7.33 18.34 -7.66 17.68 -8 17 C-7.01 16.67 -6.02 16.34 -5 16 C-5 14.02 -5 12.04 -5 10 C-4.01 10.33 -3.02 10.66 -2 11 C-1.34 7.37 -0.68 3.74 0 0 Z M2 18 C2 19.98 2 21.96 2 24 C2.33 24 2.66 24 3 24 C3 22.02 3 20.04 3 18 C2.67 18 2.34 18 2 18 Z M1 24 C2 26 2 26 2 26 Z " fill="#484848" transform="translate(402,218)"/>
<path d="M0 0 C0 3 0 3 -0.973 4.809 C-3.586 10.383 -2.809 17.622 -0.879 23.297 C0.324 25.928 1.585 28.478 3 31 C-1.384 29.539 -2.52 26.73 -4.754 22.824 C-7.033 17.658 -7.07 12.963 -5.156 7.664 C-3.718 4.647 -2.372 2.372 0 0 Z M26.75 4.5 C30 5 30 5 32.875 7.562 C36.522 13.342 35.894 20.478 35 27 C33.145 31.715 28.718 34.297 24.238 36.305 C18.297 38.15 12.931 37.748 7.375 35 C6.261 34.34 5.148 33.68 4 33 C7 32 7 32 8.887 32.922 C9.584 33.278 10.281 33.633 11 34 C16.815 34.662 22.623 34.353 28 32 C29.389 29.571 29.389 29.571 30 27 C30.66 26.34 31.32 25.68 32 25 C32.282 21.745 32.282 21.745 32.188 18.062 C32.181 16.816 32.175 15.569 32.168 14.285 C32.146 10.994 32.146 10.994 31 8 C28.03 7.505 28.03 7.505 25 7 C24.67 8.65 24.34 10.3 24 12 C23.67 12 23.34 12 23 12 C22.957 10 22.959 8 23 6 C24 5 24 5 26.75 4.5 Z " fill="#7D7D7D" transform="translate(238,221)"/>
<path d="M0 0 C0.33 0 0.66 0 1 0 C1.909 6.15 2.119 12.09 2.062 18.301 C2.059 19.259 2.055 20.217 2.051 21.204 C2.039 24.24 2.02 27.276 2 30.312 C1.973 34.329 1.953 38.346 1.938 42.363 C1.929 43.285 1.921 44.207 1.912 45.157 C1.909 46.012 1.906 46.867 1.902 47.747 C1.897 48.498 1.892 49.249 1.886 50.023 C1.926 52.213 1.926 52.213 3 55 C3.897 54.505 3.897 54.505 4.812 54 C7 53 7 53 10 53 C10 52.34 10 51.68 10 51 C10.66 51 11.32 51 12 51 C12 49.02 12 47.04 12 45 C12.66 45 13.32 45 14 45 C14.33 46.32 14.66 47.64 15 49 C15.66 48.34 16.32 47.68 17 47 C17.33 47.66 17.66 48.32 18 49 C15.544 54 15.544 54 14 56 C12.515 56.495 12.515 56.495 11 57 C11 56.34 11 55.68 11 55 C9.517 55.785 8.039 56.578 6.562 57.375 C5.739 57.816 4.915 58.257 4.066 58.711 C1.865 59.834 1.865 59.834 1 62 C3.917 62.167 3.917 62.167 7 62 C7.66 61.34 8.32 60.68 9 60 C12.125 60.375 12.125 60.375 15 61 C15 61.66 15 62.32 15 63 C13.02 63 11.04 63 9 63 C9 64.65 9 66.3 9 68 C8.34 66.68 7.68 65.36 7 64 C4.36 64 1.72 64 -1 64 C-1.66 65.65 -2.32 67.3 -3 69 C-4.155 65.535 -3.811 64.937 -2.594 61.639 C-0.594 55.345 -0.524 49.335 -0.488 42.773 C-0.461 40.93 -0.461 40.93 -0.434 39.05 C-0.38 35.158 -0.346 31.267 -0.312 27.375 C-0.279 24.723 -0.245 22.07 -0.209 19.418 C-0.124 12.945 -0.056 6.473 0 0 Z M11 53 C12 55 12 55 12 55 Z " fill="#4B4B4B" transform="translate(383,208)"/>
<path d="M0 0 C2.375 2.062 2.375 2.062 4 4 C3.67 4.66 3.34 5.32 3 6 C2.01 5.34 1.02 4.68 0 4 C0 3.34 0 2.68 0 2 C-2.31 2.66 -4.62 3.32 -7 4 C-6.67 6.64 -6.34 9.28 -6 12 C-5.01 12.33 -4.02 12.66 -3 13 C-3 14.65 -3 16.3 -3 18 C-2.67 17.34 -2.34 16.68 -2 16 C-0.35 16 1.3 16 3 16 C0.432 18.684 -1.057 19.853 -4.812 20.438 C-8.352 19.952 -8.718 19.612 -10.875 17 C-11.576 16.01 -12.277 15.02 -13 14 C-13.99 14.495 -13.99 14.495 -15 15 C-16.231 8.6 -16.231 8.6 -15.062 5.562 C-14.712 5.047 -14.361 4.531 -14 4 C-13.34 4 -12.68 4 -12 4 C-11.67 3.01 -11.34 2.02 -11 1 C-7.088 -1.235 -4.283 -1.276 0 0 Z M-11 3 C-11 6 -11 6 -11 6 Z " fill="#959595" transform="translate(372,223)"/>
<path d="M0 0 C7.286 0.277 14.73 0.936 21 5 C21.773 7.137 21.773 7.137 22 9 C22.66 9 23.32 9 24 9 C27.168 15.06 28.14 19.091 28.125 25.938 C28.129 27.745 28.129 27.745 28.133 29.59 C28.018 32.532 27.683 35.145 27 38 C26.34 38 25.68 38 25 38 C24.67 39.98 24.34 41.96 24 44 C22.515 44.495 22.515 44.495 21 45 C21 45.66 21 46.32 21 47 C18.525 47.495 18.525 47.495 16 48 C16.41 47.42 16.82 46.84 17.242 46.242 C17.781 45.461 18.32 44.68 18.875 43.875 C19.409 43.109 19.942 42.344 20.492 41.555 C24.696 34.432 24.782 27.069 24 19 C22.978 15.944 21.721 13.764 20 11 C19.67 10.01 19.34 9.02 19 8 C16.048 6.175 12.764 5.148 9.5 4 C6.209 2.843 3.086 1.63 0 0 Z M14 48 C14.66 48.33 15.32 48.66 16 49 C15.01 49 14.02 49 13 49 C13.33 48.67 13.66 48.34 14 48 Z " fill="#343434" transform="translate(258,216)"/>
<path d="M0 0 C4.542 0.539 5.835 1.98 8.688 5.438 C8.358 6.098 8.027 6.757 7.688 7.438 C7.316 6.942 6.945 6.447 6.562 5.938 C3.941 3.84 1.949 4.22 -1.312 4.438 C-2.578 8.234 -1.621 9.744 -0.312 13.438 C-0.312 14.428 -0.312 15.418 -0.312 16.438 C-0.973 17.098 -1.632 17.757 -2.312 18.438 C-0.663 18.767 0.988 19.098 2.688 19.438 C2.688 19.767 2.688 20.098 2.688 20.438 C-0.625 20.688 -0.625 20.688 -4.312 20.438 C-6.062 18.438 -6.062 18.438 -7.312 16.438 C-8.303 16.438 -9.293 16.438 -10.312 16.438 C-10.312 15.447 -10.312 14.457 -10.312 13.438 C-9.652 13.438 -8.993 13.438 -8.312 13.438 C-8.642 13.108 -8.973 12.777 -9.312 12.438 C-9.973 12.438 -10.632 12.438 -11.312 12.438 C-10.983 9.798 -10.652 7.158 -10.312 4.438 C-9.137 4.004 -9.137 4.004 -7.938 3.562 C-4.548 2.11 -3.795 0.501 0 0 Z M-8.312 5.438 C-7.312 7.438 -7.312 7.438 -7.312 7.438 Z M1.688 16.438 C3.337 16.438 4.988 16.438 6.688 16.438 C6.358 17.428 6.027 18.418 5.688 19.438 C4.697 19.438 3.707 19.438 2.688 19.438 C2.358 18.447 2.027 17.457 1.688 16.438 Z " fill="#9B9B9B" transform="translate(362.3125,259.5625)"/>
<path d="M0 0 C0.99 0.66 1.98 1.32 3 2 C2.67 2.66 2.34 3.32 2 4 C1.979 5.604 2.01 7.209 2.062 8.812 C2.138 15.748 1.451 22.55 0.711 29.437 C0.163 34.664 -0.093 39.744 0 45 C0 48 0 48 -1 50 C-1.03 52.309 -0.933 54.599 -0.84 56.906 C-1 59 -1 59 -3 61 C-4.331 56.143 -3.917 51.528 -3.625 46.562 C-3.257 39.716 -2.951 32.874 -2.777 26.02 C-2.741 24.656 -2.704 23.293 -2.667 21.929 C-2.596 19.254 -2.536 16.58 -2.481 13.905 C-2.447 12.675 -2.414 11.446 -2.379 10.18 C-2.354 9.084 -2.329 7.988 -2.303 6.859 C-2.008 4.071 -1.438 2.377 0 0 Z M-4 61 C-3.67 61 -3.34 61 -3 61 C-3 64.63 -3 68.26 -3 72 C-3.33 72 -3.66 72 -4 72 C-4 68.37 -4 64.74 -4 61 Z " fill="#999999" transform="translate(309,200)"/>
<path d="M0 0 C8.49 4.946 12.906 11.823 15.508 21.191 C16.427 26.436 16.224 31.698 16 37 C15.34 37 14.68 37 14 37 C13.974 36.189 13.948 35.378 13.922 34.543 C13.349 23.363 11.076 13.212 3 5 C-5.391 -1.792 -16.852 -0.119 -27 0 C-27 0.66 -27 1.32 -27 2 C-29.375 3.688 -29.375 3.688 -32 5 C-32.66 4.67 -33.32 4.34 -34 4 C-24.576 -4.527 -11.482 -5.774 0 0 Z " fill="#8B8B8B" transform="translate(276,212)"/>
<path d="M0 0 C4.764 -0.191 8.721 -0.237 13 2 C15.007 5.431 16.085 7.753 15.812 11.75 C15 14 15 14 13 17 C12.34 17 11.68 17 11 17 C11 17.66 11 18.32 11 19 C8.159 20.42 6.145 20.315 3 20 C0.625 18 0.625 18 -1 16 C-0.01 15.67 0.98 15.34 2 15 C1.67 12.03 1.34 9.06 1 6 C1.66 6 2.32 6 3 6 C3.33 8.31 3.66 10.62 4 13 C4.99 13.33 5.98 13.66 7 14 C6.67 14.66 6.34 15.32 6 16 C7.32 15.67 8.64 15.34 10 15 C9.928 14.374 9.856 13.747 9.781 13.102 C9.688 12.284 9.596 11.467 9.5 10.625 C9.407 9.813 9.314 9.001 9.219 8.164 C9 6 9 6 9 4 C7.68 3.67 6.36 3.34 5 3 C5 2.34 5 1.68 5 1 C3.824 1.712 3.824 1.712 2.625 2.438 C1.111 3.339 -0.424 4.212 -2 5 C-1.34 3.35 -0.68 1.7 0 0 Z M13 6 C12.67 8.64 12.34 11.28 12 14 C12.66 13.67 13.32 13.34 14 13 C14 10.69 14 8.38 14 6 C13.67 6 13.34 6 13 6 Z " fill="#838383" transform="translate(129,223)"/>
<path d="M0 0 C0.99 0.33 1.98 0.66 3 1 C3.371 1.825 3.743 2.65 4.125 3.5 C6.835 8.56 10.853 12.088 15 16 C11.787 17.607 8.37 16.825 4.875 16.562 C4.121 16.51 3.367 16.458 2.59 16.404 C0.726 16.275 -1.137 16.138 -3 16 C-3.158 9.727 -2.477 5.779 0 0 Z " fill="#C7C7C7" transform="translate(215,251)"/>
<path d="M0 0 C2.64 0 5.28 0 8 0 C8 0.33 8 0.66 8 1 C5.36 1 2.72 1 0 1 C0 0.67 0 0.34 0 0 Z M8 1 C12 2 12 2 12 2 Z M12 2 C13.65 2 15.3 2 17 2 C17 2.33 17 2.66 17 3 C15.35 3 13.7 3 12 3 C12 2.67 12 2.34 12 2 Z M38 -4 C38.66 -3.67 39.32 -3.34 40 -3 C38.755 0.734 37.087 1.648 34 4 C33.464 4.557 32.928 5.114 32.375 5.688 C31 7 31 7 28 8 C27.01 9.485 27.01 9.485 26 11 C22.875 11.188 22.875 11.188 20 11 C20 10.34 20 9.68 20 9 C17.03 8.505 17.03 8.505 14 8 C17.088 6.235 18.233 6 22 6 C19.525 5.01 19.525 5.01 17 4 C17 3.67 17 3.34 17 3 C17.857 3.142 18.714 3.284 19.598 3.43 C26.159 4.454 26.159 4.454 32.387 2.801 C34.791 0.719 36.575 -1.149 38 -4 Z M-7 5 C-2.05 5 2.9 5 8 5 C8 5.33 8 5.66 8 6 C3.05 6 -1.9 6 -7 6 C-7 5.67 -7 5.34 -7 5 Z M14 5 C16 6 16 6 16 6 Z M-12 6 C-10.35 6 -8.7 6 -7 6 C-7 6.33 -7 6.66 -7 7 C-8.65 7 -10.3 7 -12 7 C-12 6.67 -12 6.34 -12 6 Z M8 6 C9.98 6 11.96 6 14 6 C14 6.33 14 6.66 14 7 C12.02 7 10.04 7 8 7 C8 6.67 8 6.34 8 6 Z " fill="#383838" transform="translate(259,196)"/>
<path d="M0 0 C0.763 0.227 1.526 0.454 2.312 0.688 C2.138 6.378 0.77 9.025 -3.312 12.973 C-3.931 13.539 -4.55 14.104 -5.188 14.688 C-6.069 15.583 -6.069 15.583 -6.969 16.496 C-9.636 18.985 -11.435 20.612 -15.164 20.836 C-17.397 20.591 -19.511 20.236 -21.688 19.688 C-20.697 19.028 -19.707 18.368 -18.688 17.688 C-18.027 16.697 -17.368 15.708 -16.688 14.688 C-15.574 14.399 -14.46 14.11 -13.312 13.812 C-9.13 12.514 -7.866 11.435 -5.688 7.688 C-5.648 6.021 -5.644 4.354 -5.688 2.688 C-3.93 -0.087 -3.304 -0.384 0 0 Z M-7.688 7.688 C-7.027 8.018 -6.368 8.347 -5.688 8.688 C-8.658 11.162 -8.658 11.162 -11.688 13.688 C-10.536 11.219 -9.64 9.64 -7.688 7.688 Z " fill="#323232" transform="translate(303.6875,188.3125)"/>
<path d="M0 0 C0 4.275 -1.335 7.989 -2.562 12.062 C-2.961 13.397 -2.961 13.397 -3.368 14.758 C-5.203 20.755 -7.326 26.568 -9.688 32.375 C-12.998 40.536 -16 49.089 -16 58 C-15.34 58.33 -14.68 58.66 -14 59 C-15.32 58.67 -16.64 58.34 -18 58 C-17.736 48.143 -16.082 39.757 -12.75 30.5 C-12.342 29.329 -11.935 28.158 -11.515 26.951 C-10.714 24.656 -9.907 22.364 -9.091 20.074 C-8.168 17.474 -7.273 14.867 -6.398 12.25 C-3.14 2.656 -3.14 2.656 0 0 Z " fill="#7B7B7B" transform="translate(221,215)"/>
<path d="M0 0 C7.241 0.241 7.241 0.241 10.562 3.562 C12.724 8.731 11.756 12.053 10.375 17.438 C8.098 20.025 5.286 19.757 2 20 C2.804 19.361 3.609 18.721 4.438 18.062 C6.275 16.594 6.275 16.594 8 15 C7.936 13.33 7.8 11.662 7.625 10 C7.535 9.092 7.445 8.185 7.352 7.25 C7.232 5.036 7.232 5.036 6 4 C2.527 3.691 0.613 3.613 -2.375 5.5 C-2.911 5.995 -3.447 6.49 -4 7 C-4 6.01 -4 5.02 -4 4 C-3.34 4 -2.68 4 -2 4 C-1.34 2.68 -0.68 1.36 0 0 Z M11 3 C13 4.625 13 4.625 15 7 C15.25 10.25 15.25 10.25 15 13 C14.01 13.495 14.01 13.495 13 14 C12.772 12.014 12.544 10.029 12.316 8.043 C12.028 5.806 12.028 5.806 11 3 Z M1 6 C1.33 6 1.66 6 2 6 C2.103 6.949 2.206 7.897 2.312 8.875 C2.685 12.291 2.685 12.291 6 14 C6 14.66 6 15.32 6 16 C4.25 17.688 4.25 17.688 2 19 C-0.25 18.688 -0.25 18.688 -2 18 C-1.01 17.67 -0.02 17.34 1 17 C1 13.37 1 9.74 1 6 Z " fill="#9B9B9B" transform="translate(136,260)"/>
<path d="M0 0 C2.97 0 5.94 0 9 0 C8.361 0.516 7.721 1.031 7.062 1.562 C4.332 4.79 4 6.793 4 11 C5.794 14.403 5.794 14.403 8 17 C6 19 6 19 4 20 C-1.697 16.606 -1.697 16.606 -3 14 C-3 11.491 -2.123 10.247 -1 8 C-0.529 5.336 -0.27 2.695 0 0 Z M8 10 C9.892 12.386 11.024 14.072 12 17 C10.062 16.188 10.062 16.188 8 15 C7.67 14.01 7.34 13.02 7 12 C7.33 11.34 7.66 10.68 8 10 Z M8 17 C8.99 17.33 9.98 17.66 11 18 C10.01 18 9.02 18 8 18 C8 17.67 8 17.34 8 17 Z M12 17 C12.99 17.33 13.98 17.66 15 18 C14.01 18 13.02 18 12 18 C12 17.67 12 17.34 12 17 Z " fill="#484848" transform="translate(101,268)"/>
<path d="M0 0 C1.75 0.125 1.75 0.125 4 1 C4.923 2.299 5.83 3.613 6.648 4.98 C9.174 8.754 12.293 12.09 15.27 15.512 C15.841 16.333 16.412 17.154 17 18 C16.67 18.99 16.34 19.98 16 21 C12.688 21.029 9.375 21.047 6.062 21.062 C5.117 21.071 4.171 21.079 3.197 21.088 C1.849 21.093 1.849 21.093 0.473 21.098 C-0.776 21.106 -0.776 21.106 -2.051 21.114 C-4 21 -4 21 -5 20 C-5.041 18 -5.043 16 -5 14 C-4.67 15.32 -4.34 16.64 -4 18 C1.61 18 7.22 18 13 18 C11.412 16.474 9.824 14.947 8.188 13.375 C4.5 9.831 1.995 6.733 0 2 C0 1.34 0 0.68 0 0 Z " fill="#7F7F7F" transform="translate(216,249)"/>
<path d="M0 0 C0.99 0.33 1.98 0.66 3 1 C2.484 1.516 1.969 2.031 1.438 2.562 C-0.573 5.971 0.203 8.231 1 12 C1.66 12 2.32 12 3 12 C2.67 13.65 2.34 15.3 2 17 C2.99 17 3.98 17 5 17 C5 16.34 5 15.68 5 15 C6.32 15.66 7.64 16.32 9 17 C7.138 19.483 6.181 19.969 3.062 20.5 C0 20 0 20 -2.312 17.625 C-4 15 -4 15 -5 13 C-5.33 13.99 -5.66 14.98 -6 16 C-8.12 12.82 -8.25 12.454 -7.75 8.938 C-7.662 8.245 -7.575 7.553 -7.484 6.84 C-7 5 -7 5 -5 3 C-4.67 3.99 -4.34 4.98 -4 6 C-3.526 5.196 -3.051 4.391 -2.562 3.562 C-1 1 -1 1 0 0 Z M-1 10 C0 13 0 13 0 13 Z " fill="#919191" transform="translate(359,186)"/>
<path d="M0 0 C1.65 0.33 3.3 0.66 5 1 C6.216 12.231 6.216 12.231 3.359 16.387 C-0.09 19.433 -2.479 20.87 -7 22 C-5.02 19.36 -3.04 16.72 -1 14 C-2.149 12.702 -2.149 12.702 -5 12 C-4.67 10.35 -4.34 8.7 -4 7 C-3.34 7 -2.68 7 -2 7 C-2.33 6.01 -2.66 5.02 -3 4 C-2.505 3.526 -2.01 3.051 -1.5 2.562 C0.115 1.241 0.115 1.241 0 0 Z " fill="#1F1F1F" transform="translate(112,191)"/>
<path d="M0 0 C1.108 0.134 2.216 0.268 3.357 0.406 C5.101 0.627 5.101 0.627 6.879 0.852 C8.037 0.991 9.195 1.13 10.389 1.273 C19.023 2.337 19.023 2.337 22.441 3.477 C22.441 4.137 22.441 4.797 22.441 5.477 C23.431 5.477 24.421 5.477 25.441 5.477 C25.441 6.137 25.441 6.797 25.441 7.477 C17.272 7.242 9.564 6.527 1.629 4.539 C0.942 4.369 0.255 4.199 -0.453 4.024 C-3.477 3.224 -5.31 2.725 -7.559 0.477 C-4.814 -0.896 -3.039 -0.372 0 0 Z " fill="#444444" transform="translate(122.55859375,290.5234375)"/>
<path d="M0 0 C1.259 0.241 1.259 0.241 2.544 0.487 C6.169 1.025 9.627 1.16 13.291 1.205 C13.994 1.215 14.697 1.225 15.421 1.235 C17.726 1.267 20.031 1.292 22.336 1.316 C23.942 1.337 25.547 1.358 27.153 1.379 C31.365 1.434 35.577 1.484 39.788 1.532 C44.092 1.583 48.396 1.638 52.699 1.693 C61.133 1.801 69.566 1.902 78 2 C78 2.33 78 2.66 78 3 C45.33 3 12.66 3 -21 3 C-21 2.67 -21 2.34 -21 2 C-17.875 1.804 -14.75 1.619 -11.625 1.438 C-10.291 1.353 -10.291 1.353 -8.93 1.268 C-7.654 1.195 -7.654 1.195 -6.352 1.121 C-5.566 1.074 -4.781 1.027 -3.971 0.978 C-2 1 -2 1 0 2 C0 1.34 0 0.68 0 0 Z " fill="#747474" transform="translate(162,172)"/>
<path d="M0 0 C0.715 0.075 1.431 0.15 2.168 0.227 C5.225 0.604 7.417 0.887 9.867 2.828 C10.2 3.297 10.532 3.767 10.875 4.25 C10.545 5.24 10.215 6.23 9.875 7.25 C1.864 6.281 -5.565 5.118 -13.125 2.25 C-13.125 1.59 -13.125 0.93 -13.125 0.25 C-8.641 -0.981 -4.544 -0.579 0 0 Z M10.875 3.25 C12.875 4.25 12.875 4.25 12.875 4.25 Z " fill="#1F1F1F" transform="translate(378.125,168.75)"/>
<path d="M0 0 C2.312 0.562 2.312 0.562 5 2 C6.688 5.375 6.688 5.375 8 9 C8.653 10.34 9.312 11.677 10 13 C10.99 13 11.98 13 13 13 C13.66 14.65 14.32 16.3 15 18 C13.321 17.738 11.657 17.38 10 17 C8.989 16.811 8.989 16.811 7.957 16.617 C5.602 16.008 3.965 15.448 2 14 C0.093 9.454 0 4.875 0 0 Z " fill="#1F1F1F" transform="translate(382,192)"/>
<path d="M0 0 C1.956 2.934 3.562 5.782 5 9 C4.67 9.66 4.34 10.32 4 11 C3.131 9.929 2.28 8.843 1.438 7.75 C0.962 7.147 0.486 6.543 -0.004 5.922 C-1 4 -1 4 -0.652 1.766 C-0.329 0.892 -0.329 0.892 0 0 Z M5 11 C5.461 11.387 5.923 11.773 6.398 12.172 C15.936 19.786 26.262 21.934 38 24 C38 24.33 38 24.66 38 25 C19.488 25.659 19.488 25.659 11.188 20.125 C8.876 17.879 6.867 15.628 5 13 C5 12.34 5 11.68 5 11 Z " fill="#858585" transform="translate(225,243)"/>
<path d="M0 0 C-2.458 2.458 -4.09 2.697 -7.453 3.508 C-8.548 3.772 -9.642 4.036 -10.77 4.309 C-11.918 4.578 -13.067 4.847 -14.25 5.125 C-15.383 5.402 -16.516 5.679 -17.684 5.965 C-22.925 7.212 -27.586 8.16 -33 8 C-29.25 5 -29.25 5 -27 5 C-27 4.34 -27 3.68 -27 3 C-17.903 -0.238 -9.508 -0.322 0 0 Z " fill="#4C4C4C" transform="translate(388,291)"/>
<path d="M0 0 C2.169 0.506 4 1 6 2 C5.67 2.99 5.34 3.98 5 5 C3.35 3.35 1.7 1.7 0 0 Z M6 5 C6.66 5.66 7.32 6.32 8 7 C7.625 10.125 7.625 10.125 7 13 C5.68 12.34 4.36 11.68 3 11 C3 9.68 3 8.36 3 7 C3.99 6.34 4.98 5.68 6 5 Z M-4 6 C-3.34 6 -2.68 6 -2 6 C-1.876 6.969 -1.752 7.939 -1.625 8.938 C-1.316 10.453 -1.316 10.453 -1 12 C-0.34 12.33 0.32 12.66 1 13 C1.33 13.99 1.66 14.98 2 16 C3.32 15.01 4.64 14.02 6 13 C6.625 15.375 6.625 15.375 7 18 C5 20 5 20 1.562 20.312 C-2 20 -2 20 -3.938 18.5 C-4.288 18.005 -4.639 17.51 -5 17 C-4.34 17 -3.68 17 -3 17 C-3.33 13.37 -3.66 9.74 -4 6 Z " fill="#919191" transform="translate(140,186)"/>
<path d="M0 0 C0.99 0 1.98 0 3 0 C3 0.66 3 1.32 3 2 C4.32 2.33 5.64 2.66 7 3 C7.144 3.743 7.289 4.485 7.438 5.25 C7.92 7.927 7.92 7.927 8.75 10.125 C9 12 9 12 7.688 13.75 C6 15 6 15 4 15 C4 14.34 4 13.68 4 13 C3.257 12.35 3.257 12.35 2.5 11.688 C1 10 1 10 0.812 7.312 C0.874 6.549 0.936 5.786 1 5 C-0.32 5.33 -1.64 5.66 -3 6 C-2.427 3.133 -2.139 2.139 0 0 Z " fill="#D1D1D1" transform="translate(131,224)"/>
<path d="M0 0 C0.33 0 0.66 0 1 0 C1.054 2.208 1.093 4.417 1.125 6.625 C1.148 7.855 1.171 9.085 1.195 10.352 C0.774 18.223 -2.733 23.382 -8 29 C-12.747 32.165 -12.747 32.165 -16.375 31.688 C-16.911 31.461 -17.447 31.234 -18 31 C-17.154 30.67 -16.309 30.34 -15.438 30 C-8.851 26.168 -4.195 20.318 -2 13 C-1.628 9.824 -1.377 6.67 -1.211 3.477 C-1 1 -1 1 0 0 Z " fill="#9C9C9C" transform="translate(282,235)"/>
<path d="M0 0 C9.776 0.17 19.534 0.703 29.296 1.23 C31.124 1.327 32.953 1.423 34.782 1.52 C39.224 1.753 43.666 1.991 48.108 2.23 C48.108 2.56 48.108 2.89 48.108 3.23 C42.149 3.255 36.19 3.273 30.231 3.285 C28.207 3.29 26.183 3.297 24.159 3.306 C21.237 3.318 18.315 3.324 15.393 3.328 C14.499 3.333 13.605 3.338 12.684 3.344 C7.08 3.344 1.668 2.942 -3.892 2.23 C-1.892 0.23 -1.892 0.23 0 0 Z " fill="#484848" transform="translate(231.891845703125,163.76953125)"/>
<path d="M0 0 C0.66 0.99 1.32 1.98 2 3 C4.121 3.507 4.121 3.507 6.57 3.512 C7.914 3.565 7.914 3.565 9.285 3.619 C10.222 3.642 11.159 3.664 12.125 3.688 C13.542 3.739 13.542 3.739 14.988 3.791 C17.325 3.874 19.662 3.943 22 4 C22 4.33 22 4.66 22 5 C17.545 5.495 17.545 5.495 13 6 C16.3 6.33 19.6 6.66 23 7 C23 7.33 23 7.66 23 8 C17.984 9.018 13.214 9.119 8.125 9.062 C7.341 9.058 6.558 9.053 5.75 9.049 C3.833 9.037 1.917 9.019 0 9 C-1.125 3.375 -1.125 3.375 0 0 Z " fill="#2C2C2C" transform="translate(209,266)"/>
<path d="M0 0 C0.276 0.572 0.552 1.145 0.836 1.734 C1.995 3.99 3.269 6.109 4.625 8.25 C5.294 9.31 5.294 9.31 5.977 10.391 C6.314 10.922 6.652 11.453 7 12 C6.34 12.66 5.68 13.32 5 14 C5.33 17.297 5.623 18.623 8 21 C5.69 20.67 3.38 20.34 1 20 C0.67 20.66 0.34 21.32 0 22 C-0.66 22 -1.32 22 -2 22 C-2.188 19.125 -2.188 19.125 -2 16 C-1.01 15.34 -0.02 14.68 1 14 C1.372 11.176 1.281 9.529 -0.062 7 C-1.307 4.344 -0.768 2.764 0 0 Z " fill="#484848" transform="translate(101,220)"/>
<path d="M0 0 C5.61 0 11.22 0 17 0 C16.67 0.66 16.34 1.32 16 2 C15.01 2.33 14.02 2.66 13 3 C13 3.66 13 4.32 13 5 C7.39 5 1.78 5 -4 5 C-3.01 4.67 -2.02 4.34 -1 4 C-0.67 2.68 -0.34 1.36 0 0 Z " fill="#1F1F1F" transform="translate(309,169)"/>
<path d="M0 0 C0.413 0.474 0.825 0.949 1.25 1.438 C3.182 3.163 4.482 3.566 7 4 C7 5.65 7 7.3 7 9 C7.33 8.34 7.66 7.68 8 7 C9.65 7 11.3 7 13 7 C10.399 9.719 8.952 10.876 5.125 11.375 C2 11 2 11 -0.375 8.812 C-2.094 5.837 -2.384 4.363 -2 1 C-1.34 0.67 -0.68 0.34 0 0 Z " fill="#898989" transform="translate(362,232)"/>
<path d="M0 0 C2.246 1.774 2.951 2.584 3.293 5.48 C3.258 6.374 3.223 7.267 3.188 8.188 C3.16 9.089 3.133 9.99 3.105 10.918 C3.071 11.605 3.036 12.292 3 13 C2.34 13 1.68 13 1 13 C0.67 13.66 0.34 14.32 0 15 C-1.247 11.398 -0.63 8.699 0 5 C-0.33 4.01 -0.66 3.02 -1 2 C-0.67 1.34 -0.34 0.68 0 0 Z M-3 2 C-2.34 2.66 -1.68 3.32 -1 4 C-1.99 4 -2.98 4 -4 4 C-3.67 3.34 -3.34 2.68 -3 2 Z M-3 7 C-2.34 8.32 -1.68 9.64 -1 11 C-2.75 13.062 -2.75 13.062 -5 15 C-7.25 14.75 -7.25 14.75 -9 14 C-8.01 14 -7.02 14 -6 14 C-6 13.01 -6 12.02 -6 11 C-6.66 10.67 -7.32 10.34 -8 10 C-6.35 9.67 -4.7 9.34 -3 9 C-3 8.34 -3 7.68 -3 7 Z " fill="#A2A2A2" transform="translate(147,188)"/>
<path d="M0 0 C5.28 0 10.56 0 16 0 C13.432 1.712 11.799 2.492 8.938 3.375 C4.53 4.777 0.311 6.495 -3.934 8.328 C-6 9 -6 9 -8 8 C-4.375 3.125 -4.375 3.125 -1 2 C-0.67 1.34 -0.34 0.68 0 0 Z " fill="#2F2F2F" transform="translate(123,168)"/>
<path d="M0 0 C0.66 0.33 1.32 0.66 2 1 C-1.465 3.97 -1.465 3.97 -5 7 C-3.383 3.765 -2.524 2.294 0 0 Z M1 3 C1 6 1 6 -0.285 7.641 C-0.872 8.172 -1.458 8.703 -2.062 9.25 C-2.631 9.791 -3.199 10.333 -3.785 10.891 C-7.133 12.567 -9.358 11.747 -13 11 C-13.804 10.845 -14.609 10.691 -15.437 10.532 C-18.108 10.018 -20.773 9.48 -23.438 8.938 C-24.36 8.751 -25.282 8.565 -26.232 8.373 C-28.489 7.917 -30.744 7.459 -33 7 C-33 6.67 -33 6.34 -33 6 C-27.659 5.763 -23.418 6.292 -18.3 7.778 C-11.136 10.037 -11.136 10.037 -4.055 8.707 C-2.064 6.92 -0.484 5.221 1 3 Z " fill="#787878" transform="translate(295,189)"/>
<path d="M0 0 C0.66 0.33 1.32 0.66 2 1 C1.312 1.71 1.312 1.71 0.609 2.434 C-7.287 10.944 -9.401 18.549 -10.508 29.938 C-10.751 31.453 -10.751 31.453 -11 33 C-11.99 33.495 -11.99 33.495 -13 34 C-14.15 21.988 -11.935 13.286 -4.199 3.789 C-2.562 2.125 -2.562 2.125 0 0 Z " fill="#9F9F9F" transform="translate(236,209)"/>
<path d="M0 0 C8.054 -0.145 15.979 0.286 24 1 C23.67 1.66 23.34 2.32 23 3 C15 3.205 7.739 3.135 0 1 C0 0.67 0 0.34 0 0 Z M24 0 C27.96 0 31.92 0 36 0 C31.645 2.178 30.534 2.03 26 1 C26 1.66 26 2.32 26 3 C25.34 2.67 24.68 2.34 24 2 C24 1.34 24 0.68 24 0 Z M32 2 C36 3 36 3 36 3 Z " fill="#484848" transform="translate(136,171)"/>
<path d="M0 0 C0.33 0 0.66 0 1 0 C1.103 0.949 1.206 1.897 1.312 2.875 C1.685 6.291 1.685 6.291 5 8 C5 8.66 5 9.32 5 10 C3.25 11.688 3.25 11.688 1 13 C-1.25 12.688 -1.25 12.688 -3 12 C-2.01 11.67 -1.02 11.34 0 11 C0 7.37 0 3.74 0 0 Z M8 1 C8.33 1.66 8.66 2.32 9 3 C8.34 2.67 7.68 2.34 7 2 C7.33 1.67 7.66 1.34 8 1 Z M10 1 C10.33 1 10.66 1 11 1 C10.031 10.692 10.031 10.692 8 13 C4.375 13.75 4.375 13.75 1 14 C1.784 13.381 2.567 12.762 3.375 12.125 C7.682 8.638 8.608 6.37 10 1 Z " fill="#8C8C8C" transform="translate(137,266)"/>
<path d="M0 0 C4.764 -0.191 8.649 -0.072 13 2 C13.875 4.125 13.875 4.125 14 6 C13.01 6.495 13.01 6.495 12 7 C11.01 6.67 10.02 6.34 9 6 C9 5.34 9 4.68 9 4 C7.68 3.67 6.36 3.34 5 3 C5 2.34 5 1.68 5 1 C3.824 1.712 3.824 1.712 2.625 2.438 C1.111 3.339 -0.424 4.212 -2 5 C-1.34 3.35 -0.68 1.7 0 0 Z M14 6 C16 9 16 9 15.75 11.5 C15 14 15 14 13 17 C12.34 17 11.68 17 11 17 C11.309 16.484 11.619 15.969 11.938 15.438 C13.291 12.333 13.614 9.349 14 6 Z " fill="#B0B0B0" transform="translate(129,223)"/>
<path d="M0 0 C0.99 0.33 1.98 0.66 3 1 C4.188 4.562 4.188 4.562 5 8 C4.01 8.33 3.02 8.66 2 9 C1.34 9.66 0.68 10.32 0 11 C0 7.333 0 3.667 0 0 Z M-6 3 C-4.35 3 -2.7 3 -1 3 C-1 4.98 -1 6.96 -1 9 C-2.65 9.33 -4.3 9.66 -6 10 C-6 7.69 -6 5.38 -6 3 Z " fill="#CCCCCC" transform="translate(366,188)"/>
<path d="M0 0 C0.66 0 1.32 0 2 0 C2.33 0.99 2.66 1.98 3 3 C4.5 4.667 4.5 4.667 6 6 C5 8 5 8 3 10 C4.65 10.33 6.3 10.66 8 11 C8 11.33 8 11.66 8 12 C1.595 12.483 1.595 12.483 -1 10.375 C-2.333 7.21 -1.855 5.279 -1 2 C-0.67 1.34 -0.34 0.68 0 0 Z M7 8 C8.65 8 10.3 8 12 8 C11.67 8.99 11.34 9.98 11 11 C10.01 11 9.02 11 8 11 C7.67 10.01 7.34 9.02 7 8 Z " fill="#939393" transform="translate(357,268)"/>
<path d="M0 0 C0.33 0.66 0.66 1.32 1 2 C1.66 2 2.32 2 3 2 C2.67 3.65 2.34 5.3 2 7 C2.99 7 3.98 7 5 7 C5 6.34 5 5.68 5 5 C6.32 5.66 7.64 6.32 9 7 C7.138 9.483 6.181 9.969 3.062 10.5 C0 10 0 10 -2.375 7.625 C-4 5 -4 5 -4 3 C-3.34 3 -2.68 3 -2 3 C-1.67 2.34 -1.34 1.68 -1 1 C-0.67 0.67 -0.34 0.34 0 0 Z " fill="#848484" transform="translate(359,196)"/>
<path d="M0 0 C0.99 0.33 1.98 0.66 3 1 C2.876 5.648 2.297 8.123 -0.949 11.527 C-2.18 12.681 -3.426 13.818 -4.688 14.938 C-5.607 15.82 -5.607 15.82 -6.545 16.721 C-9.638 19.545 -11.196 20.912 -15.457 21.379 C-16.716 21.191 -16.716 21.191 -18 21 C-15.923 19.615 -13.839 18.241 -11.75 16.875 C-6.993 13.454 -1.811 9.136 -0.305 3.312 C0.022 1.224 0.022 1.224 0 0 Z " fill="#757575" transform="translate(303,188)"/>
<path d="M0 0 C0.949 0.041 1.897 0.082 2.875 0.125 C3.535 1.445 4.195 2.765 4.875 4.125 C3.555 3.795 2.235 3.465 0.875 3.125 C0.545 5.435 0.215 7.745 -0.125 10.125 C-1.445 9.795 -2.765 9.465 -4.125 9.125 C-4.75 5.75 -4.75 5.75 -5.125 2.125 C-3.125 0.125 -3.125 0.125 0 0 Z " fill="#D2D2D2" transform="translate(364.125,262.875)"/>
<path d="M0 0 C3.25 0.5 3.25 0.5 6.125 3.062 C9.774 8.682 8.622 16.08 8.25 22.5 C7.59 22.5 6.93 22.5 6.25 22.5 C6.189 21.38 6.129 20.26 6.066 19.105 C5.982 17.633 5.897 16.16 5.812 14.688 C5.773 13.95 5.734 13.212 5.693 12.451 C5.506 9.269 5.263 6.538 4.25 3.5 C1.28 3.005 1.28 3.005 -1.75 2.5 C-2.08 4.15 -2.41 5.8 -2.75 7.5 C-3.08 7.5 -3.41 7.5 -3.75 7.5 C-3.793 5.5 -3.791 3.5 -3.75 1.5 C-2.75 0.5 -2.75 0.5 0 0 Z " fill="#858585" transform="translate(264.75,225.5)"/>
<path d="M0 0 C2 1 2 1 2 1 Z M-2 1 C0 2 0 2 0 2 Z M-4 2 C-2 3 -2 3 -2 3 Z M-7 4 C-6.34 4.33 -5.68 4.66 -5 5 C-5.688 5.818 -5.688 5.818 -6.391 6.652 C-10.597 11.822 -13.629 16.771 -16 23 C-16.99 23 -17.98 23 -19 23 C-19 21.68 -19 20.36 -19 19 C-18.34 19 -17.68 19 -17 19 C-16.752 18.134 -16.505 17.268 -16.25 16.375 C-14.296 11.101 -11.778 7.071 -7 4 Z " fill="#3D3D3D" transform="translate(241,204)"/>
<path d="M0 0 C0.99 0 1.98 0 3 0 C2.567 1.196 2.134 2.393 1.688 3.625 C-0.676 10.692 -3 18.516 -3 26 C-2.34 26.33 -1.68 26.66 -1 27 C-2.32 26.67 -3.64 26.34 -5 26 C-4.724 16.676 -3.423 8.693 0 0 Z " fill="#727272" transform="translate(208,247)"/>
<path d="M0 0 C4.575 4.575 4.222 13.016 4.266 19.188 C4 21 4 21 2 23 C-0.074 19.601 -0.188 17.066 -0.062 13.125 C0.02 8.926 -0.217 5.137 -1 1 C-0.67 0.67 -0.34 0.34 0 0 Z " fill="#464646" transform="translate(285,228)"/>
<path d="M0 0 C0.33 1.32 0.66 2.64 1 4 C6.28 4 11.56 4 17 4 C17 4.99 17 5.98 17 7 C14.354 7.027 11.708 7.047 9.062 7.062 C7.93 7.075 7.93 7.075 6.775 7.088 C4.85 7.097 2.925 7.052 1 7 C0 6 0 6 -0.062 2.938 C-0.042 1.968 -0.021 0.999 0 0 Z " fill="#848484" transform="translate(211,263)"/>
<path d="M0 0 C0.66 0.33 1.32 0.66 2 1 C2 1.99 2 2.98 2 4 C3.32 4.66 4.64 5.32 6 6 C6 6.66 6 7.32 6 8 C3.5 9.625 3.5 9.625 1 11 C-0.625 8.312 -0.625 8.312 -2 5 C-1.188 2.125 -1.188 2.125 0 0 Z M-4 1 C-2.016 3.917 -2.012 5.124 -2.375 8.75 C-2.581 9.822 -2.787 10.895 -3 12 C-4.984 9.083 -4.988 7.876 -4.625 4.25 C-4.419 3.178 -4.213 2.105 -4 1 Z " fill="#484848" transform="translate(92,205)"/>
<path d="M0 0 C2.875 -0.188 2.875 -0.188 6 0 C8 3 8 3 7.625 6.188 C7.419 7.116 7.213 8.044 7 9 C5.68 9 4.36 9 3 9 C2.34 7.02 1.68 5.04 1 3 C0.01 3.33 -0.98 3.66 -2 4 C-1.34 2.68 -0.68 1.36 0 0 Z " fill="#D1D1D1" transform="translate(136,263)"/>
<path d="M0 0 C0.99 0.495 0.99 0.495 2 1 C2.484 3.434 2.484 3.434 2.75 6.438 C2.848 7.426 2.946 8.415 3.047 9.434 C3 12 3 12 1 14 C-0.382 11.235 -0.095 8.954 -0.062 5.875 C-0.053 4.779 -0.044 3.684 -0.035 2.555 C-0.024 1.712 -0.012 0.869 0 0 Z M2 14 C2.99 14.495 2.99 14.495 4 15 C4.75 18.375 4.75 18.375 5 22 C4.34 22.99 3.68 23.98 3 25 C1.717 21.15 1.934 18.053 2 14 Z " fill="#3A3A3A" transform="translate(93,235)"/>
<path d="M0 0 C1.956 2.934 3.562 5.782 5 9 C4.67 9.66 4.34 10.32 4 11 C3.131 9.929 2.28 8.843 1.438 7.75 C0.962 7.147 0.486 6.543 -0.004 5.922 C-1 4 -1 4 -0.652 1.766 C-0.329 0.892 -0.329 0.892 0 0 Z M5 11 C5.519 11.398 6.039 11.797 6.574 12.207 C10.279 15.022 13.936 17.714 18 20 C15 21 15 21 12.062 19.875 C8.849 17.907 7.08 16.119 5 13 C5 12.34 5 11.68 5 11 Z M19 20 C19.33 20.66 19.66 21.32 20 22 C19.34 21.67 18.68 21.34 18 21 C18.33 20.67 18.66 20.34 19 20 Z " fill="#8E8E8E" transform="translate(225,243)"/>
<path d="M0 0 C0.33 0.99 0.66 1.98 1 3 C0.01 3 -0.98 3 -2 3 C-2 4.98 -2 6.96 -2 9 C-3.32 9.33 -4.64 9.66 -6 10 C-6.66 8.02 -7.32 6.04 -8 4 C-5.299 1.176 -4.056 0 0 0 Z " fill="#D3D3D3" transform="translate(372,225)"/>
<path d="M0 0 C-2.942 1.961 -5.891 3.462 -9.062 5 C-11.232 6.074 -11.232 6.074 -14 8 C-14 5.75 -14 5.75 -13 3 C-8.921 -0.069 -4.999 -1.875 0 0 Z M-16 9 C-16 12.61 -16.961 15.558 -18 19 C-19.011 16.269 -19.046 15.14 -18.125 12.312 C-17 10 -17 10 -16 9 Z " fill="#595959" transform="translate(138,175)"/>
<path d="M0 0 C0.66 0.33 1.32 0.66 2 1 C2 2.98 2 4.96 2 7 C1.01 6.67 0.02 6.34 -1 6 C-0.67 4.02 -0.34 2.04 0 0 Z M7 3 C7.33 3.66 7.66 4.32 8 5 C6.25 7.062 6.25 7.062 4 9 C2.68 8.67 1.36 8.34 0 8 C2.31 6.35 4.62 4.7 7 3 Z M-2 7 C-1.34 7.33 -0.68 7.66 0 8 C0 8.66 0 9.32 0 10 C-1.98 10 -3.96 10 -6 10 C-4.68 9.01 -3.36 8.02 -2 7 Z M-8 10 C-6 11 -6 11 -6 11 Z " fill="#484848" transform="translate(391,277)"/>
<path d="M0 0 C1.27 2.051 1.27 2.051 2 4 C0.271 3.858 -1.459 3.711 -3.188 3.562 C-4.632 3.441 -4.632 3.441 -6.105 3.316 C-8.786 3.023 -11.366 2.573 -14 2 C-14 1.34 -14 0.68 -14 0 C-9.501 -1.306 -4.481 -1.453 0 0 Z " fill="#0E0E0E" transform="translate(379,169)"/>
<path d="M0 0 C0.66 0.33 1.32 0.66 2 1 C0.755 4.734 -0.913 5.648 -4 8 C-4.804 8.835 -4.804 8.835 -5.625 9.688 C-7 11 -7 11 -10 12 C-8.628 8.816 -7.138 7.029 -4.438 4.875 C-1.79 2.791 -1.79 2.791 0 0 Z " fill="#303030" transform="translate(297,192)"/>
<path d="M0 0 C0 2.64 0 5.28 0 8 C-3.403 6.941 -6.014 5.991 -9 4 C-9 3.34 -9 2.68 -9 2 C-6.525 2.99 -6.525 2.99 -4 4 C-4 3.01 -4 2.02 -4 1 C-1 0 -1 0 0 0 Z M1 9 C1.66 9 2.32 9 3 9 C3.33 10.32 3.66 11.64 4 13 C3.01 12.34 2.02 11.68 1 11 C1 10.34 1 9.68 1 9 Z " fill="#1F1F1F" transform="translate(405,200)"/>
<path d="M0 0 C0.66 0.33 1.32 0.66 2 1 C-0.97 3.475 -0.97 3.475 -4 6 C-2.848 3.532 -1.952 1.952 0 0 Z M-6 6 C-5.34 6.33 -4.68 6.66 -4 7 C-5.625 9.5 -5.625 9.5 -8 12 C-11.25 12.312 -11.25 12.312 -14 12 C-13.01 11.34 -12.02 10.68 -11 10 C-10.34 9.01 -9.68 8.02 -9 7 C-8.01 6.67 -7.02 6.34 -6 6 Z M-4 7 C-2 8 -2 8 -2 8 Z " fill="#4B4B4B" transform="translate(296,196)"/>
<path d="M0 0 C0.66 0 1.32 0 2 0 C2.054 1.958 2.093 3.916 2.125 5.875 C2.148 6.966 2.171 8.056 2.195 9.18 C2 12 2 12 0 14 C-1.582 9.848 -2.405 6.453 -2 2 C-1.34 1.34 -0.68 0.68 0 0 Z " fill="#484848" transform="translate(104,180)"/>
<path d="M0 0 C0.66 0 1.32 0 2 0 C2.33 2.31 2.66 4.62 3 7 C3.99 7.33 4.98 7.66 6 8 C6 8.99 6 9.98 6 11 C3 13 3 13 0.875 12.75 C-1 12 -1 12 -2 10 C-1.01 9.67 -0.02 9.34 1 9 C0.67 6.03 0.34 3.06 0 0 Z " fill="#909090" transform="translate(130,229)"/>
<path d="M0 0 C6.6 0 13.2 0 20 0 C16 2 16 2 13 2 C12.67 2.66 12.34 3.32 12 4 C6.06 2.515 6.06 2.515 0 1 C0 0.67 0 0.34 0 0 Z " fill="#3E3E3E" transform="translate(352,167)"/>
<path d="M0 0 C0.66 0 1.32 0 2 0 C3.026 1.651 4.023 3.32 5 5 C5.557 5.557 6.114 6.114 6.688 6.688 C7.337 7.337 7.337 7.337 8 8 C8 8.66 8 9.32 8 10 C4.758 9.135 2.499 8.483 0.062 6.125 C-1 4 -1 4 -0.688 1.75 C-0.461 1.173 -0.234 0.595 0 0 Z " fill="#646464" transform="translate(99,278)"/>
<path d="M0 0 C0.99 0.33 1.98 0.66 3 1 C2.67 3.31 2.34 5.62 2 8 C0.68 8.33 -0.64 8.66 -2 9 C-2.688 6.75 -2.688 6.75 -3 4 C-1.562 1.688 -1.562 1.688 0 0 Z " fill="#D4D4D4" transform="translate(141,189)"/>
<path d="M0 0 C1.485 0.99 1.485 0.99 3 2 C2.67 2.33 2.34 2.66 2 3 C1.632 5.328 1.298 7.662 1 10 C1.66 10 2.32 10 3 10 C2.25 15.75 2.25 15.75 0 18 C0 12.06 0 6.12 0 0 Z " fill="#262626" transform="translate(98,262)"/>
<path d="M0 0 C3.188 -0.312 3.188 -0.312 7 0 C9.938 2.5 9.938 2.5 12 5 C11.67 5.66 11.34 6.32 11 7 C10.67 6.505 10.34 6.01 10 5.5 C6.824 3.118 3.898 3.808 0 4 C0 2.68 0 1.36 0 0 Z " fill="#888888" transform="translate(359,260)"/>
<path d="M0 0 C0.598 0.619 1.196 1.238 1.812 1.875 C6.271 4.847 10.757 5.302 16 6 C15.67 6.66 15.34 7.32 15 8 C10.263 8.327 7.848 8.432 3.562 6.25 C1.063 4.056 0.232 3.249 0 0 Z " fill="#8E8E8E" transform="translate(243,242)"/>
<path d="M0 0 C3.653 1.25 4.781 1.671 7 5 C7.195 8.137 7.195 8.137 7.125 11.688 C7.107 12.867 7.089 14.046 7.07 15.262 C7.036 16.617 7.036 16.617 7 18 C6.67 18 6.34 18 6 18 C5.944 16.987 5.944 16.987 5.887 15.953 C5.821 15.061 5.755 14.169 5.688 13.25 C5.629 12.368 5.571 11.487 5.512 10.578 C4.933 7.663 3.847 6.278 2 4 C2 3.34 2 2.68 2 2 C1.01 2.33 0.02 2.66 -1 3 C-0.67 2.01 -0.34 1.02 0 0 Z " fill="#2D2D2D" transform="translate(264,227)"/>
<path d="M0 0 C0.33 0 0.66 0 1 0 C0.67 6.27 0.34 12.54 0 19 C-0.33 19 -0.66 19 -1 19 C-1.049 18.241 -1.098 17.481 -1.148 16.699 C-1.223 15.705 -1.298 14.711 -1.375 13.688 C-1.445 12.701 -1.514 11.715 -1.586 10.699 C-1.839 7.785 -1.839 7.785 -4 5 C-2.693 3.313 -1.358 1.646 0 0 Z " fill="#1B1B1B" transform="translate(404,260)"/>
<path d="M0 0 C0.66 0.33 1.32 0.66 2 1 C-1.465 3.97 -1.465 3.97 -5 7 C-3.383 3.765 -2.524 2.294 0 0 Z M1 3 C1 6 1 6 -0.5 7.688 C-0.995 8.121 -1.49 8.554 -2 9 C-2.99 8.67 -3.98 8.34 -5 8 C-3.02 6.35 -1.04 4.7 1 3 Z " fill="#8D8D8D" transform="translate(295,189)"/>
<path d="M0 0 C0.66 0 1.32 0 2 0 C3.466 2.143 4.811 4.267 6.125 6.5 C6.498 7.12 6.87 7.74 7.254 8.379 C8.176 9.915 9.089 11.457 10 13 C9.01 13.495 9.01 13.495 8 14 C5.03 10.04 2.06 6.08 -1 2 C-0.67 1.34 -0.34 0.68 0 0 Z " fill="#303030" transform="translate(224,248)"/>
<path d="M0 0 C0 0.33 0 0.66 0 1 C-1.212 1.056 -1.212 1.056 -2.449 1.113 C-3.518 1.179 -4.586 1.245 -5.688 1.312 C-6.743 1.371 -7.799 1.429 -8.887 1.488 C-12.235 2.039 -14.158 3.223 -17 5 C-17.66 4.67 -18.32 4.34 -19 4 C-13.117 -1.527 -7.668 -1.408 0 0 Z " fill="#838383" transform="translate(266,218)"/>
<path d="M0 0 C0.33 0.66 0.66 1.32 1 2 C0.34 1.67 -0.32 1.34 -1 1 C-0.67 0.67 -0.34 0.34 0 0 Z M2 0 C2.33 0 2.66 0 3 0 C2.043 9.568 2.043 9.568 0 12 C-3.125 12.75 -3.125 12.75 -6 13 C-5.237 12.34 -4.474 11.68 -3.688 11 C-0.432 7.791 0.615 4.302 2 0 Z " fill="#818181" transform="translate(145,267)"/>
<path d="M0 0 C0.99 0 1.98 0 3 0 C3 0.66 3 1.32 3 2 C3.66 2 4.32 2 5 2 C5 2.66 5 3.32 5 4 C1.912 5.765 0.767 6 -3 6 C-2.427 3.133 -2.139 2.139 0 0 Z " fill="#C2C2C2" transform="translate(131,224)"/>
<path d="M0 0 C0.66 0 1.32 0 2 0 C2 0.66 2 1.32 2 2 C2.99 2.33 3.98 2.66 5 3 C3.68 3 2.36 3 1 3 C1 5.64 1 8.28 1 11 C0.34 11 -0.32 11 -1 11 C-2.231 4.6 -2.231 4.6 -1.062 1.562 C-0.712 1.047 -0.361 0.531 0 0 Z " fill="#959595" transform="translate(358,227)"/>
<path d="M0 0 C1.65 0.33 3.3 0.66 5 1 C4.67 2.32 4.34 3.64 4 5 C3.34 5 2.68 5 2 5 C1.67 5.99 1.34 6.98 1 8 C0.34 8 -0.32 8 -1 8 C-0.67 5.36 -0.34 2.72 0 0 Z " fill="#ABABAB" transform="translate(365,266)"/>
<path d="M0 0 C0 3.175 -0.408 3.98 -1.938 6.625 C-4.246 11.014 -4.773 15.093 -5 20 C-5.33 20 -5.66 20 -6 20 C-6.516 13.011 -5.961 7.899 -2 2 C-1.34 1.34 -0.68 0.68 0 0 Z " fill="#929292" transform="translate(238,221)"/>
<path d="M0 0 C1.98 0 3.96 0 6 0 C5.67 0.99 5.34 1.98 5 3 C3.35 3 1.7 3 0 3 C0 4.65 0 6.3 0 8 C-0.66 7.01 -1.32 6.02 -2 5 C-1.125 2.312 -1.125 2.312 0 0 Z " fill="#C1C1C1" transform="translate(360,188)"/>
<path d="M0 0 C1.32 0 2.64 0 4 0 C5.478 2.957 5.06 5.742 5 9 C4.01 9 3.02 9 2 9 C1.856 8.072 1.711 7.144 1.562 6.188 C1.079 2.993 1.079 2.993 0 0 Z " fill="#A8A8A8" transform="translate(184,272)"/>
<path d="M0 0 C1.093 0.227 2.186 0.454 3.312 0.688 C3.312 1.348 3.312 2.007 3.312 2.688 C1.332 2.688 -0.647 2.688 -2.688 2.688 C-2.688 4.337 -2.688 5.988 -2.688 7.688 C-3.121 6.728 -3.121 6.728 -3.562 5.75 C-4.516 3.535 -4.516 3.535 -6.688 2.688 C-4.58 -0.411 -3.868 -0.328 0 0 Z " fill="#484848" transform="translate(394.6875,268.3125)"/>
<path d="M0 0 C0.99 0.33 1.98 0.66 3 1 C2.631 7.4 2.631 7.4 -0.562 10.438 C-1.769 11.211 -1.769 11.211 -3 12 C-2.691 11.319 -2.381 10.639 -2.062 9.938 C-0.866 6.63 -0.41 3.485 0 0 Z " fill="#8F8F8F" transform="translate(303,188)"/>
<path d="M0 0 C6.625 -0.125 6.625 -0.125 10 1 C10 1.99 10 2.98 10 4 C8.35 3.67 6.7 3.34 5 3 C5 2.34 5 1.68 5 1 C3.824 1.712 3.824 1.712 2.625 2.438 C1.111 3.339 -0.424 4.212 -2 5 C-1.34 3.35 -0.68 1.7 0 0 Z " fill="#949494" transform="translate(129,223)"/>
<path d="M0 0 C1.033 2.788 1.045 3.868 0.062 6.75 C-0.288 7.493 -0.639 8.235 -1 9 C-1.99 9 -2.98 9 -4 9 C-2.941 5.597 -1.991 2.986 0 0 Z " fill="#7E7E7E" transform="translate(290,249)"/>
<path d="M0 0 C0.99 1.32 1.98 2.64 3 4 C2.01 5.485 2.01 5.485 1 7 C0.01 6.67 -0.98 6.34 -2 6 C-2 4.35 -2 2.7 -2 1 C-1.34 0.67 -0.68 0.34 0 0 Z M3 3 C3.99 3.33 4.98 3.66 6 4 C5.01 4 4.02 4 3 4 C3 3.67 3 3.34 3 3 Z " fill="#818181" transform="translate(362,232)"/>
<path d="M0 0 C0.934 3.01 1.044 3.867 0 7 C-1.98 7.33 -3.96 7.66 -6 8 C-5.01 7.67 -4.02 7.34 -3 7 C-3 6.01 -3 5.02 -3 4 C-3.66 3.67 -4.32 3.34 -5 3 C-3.35 2.67 -1.7 2.34 0 2 C0 1.34 0 0.68 0 0 Z " fill="#B8B8B8" transform="translate(144,195)"/>
<path d="M0 0 C0.66 0 1.32 0 2 0 C2 2.97 2 5.94 2 9 C0.68 8.67 -0.64 8.34 -2 8 C-1.125 2.25 -1.125 2.25 0 0 Z " fill="#848484" transform="translate(357,268)"/>
<path d="M0 0 C0.99 0.495 0.99 0.495 2 1 C2.75 4.375 2.75 4.375 3 8 C2.34 8.99 1.68 9.98 1 11 C-0.283 7.15 -0.066 4.053 0 0 Z " fill="#414141" transform="translate(95,249)"/>
<path d="M0 0 C0 1.65 0 3.3 0 5 C-1.98 5.99 -1.98 5.99 -4 7 C-4 6.01 -4 5.02 -4 4 C-4.66 3.34 -5.32 2.68 -6 2 C-1.125 0 -1.125 0 0 0 Z " fill="#AFAFAF" transform="translate(145,270)"/>
<path d="M0 0 C1.956 2.934 3.562 5.782 5 9 C4.67 9.66 4.34 10.32 4 11 C3.131 9.929 2.28 8.843 1.438 7.75 C0.962 7.147 0.486 6.543 -0.004 5.922 C-1 4 -1 4 -0.652 1.766 C-0.329 0.892 -0.329 0.892 0 0 Z M5 11 C5.99 11.99 6.98 12.98 8 14 C7.01 13.67 6.02 13.34 5 13 C5 12.34 5 11.68 5 11 Z " fill="#818181" transform="translate(225,243)"/>
<path d="M0 0 C1.772 0.114 3.542 0.242 5.312 0.375 C6.792 0.479 6.792 0.479 8.301 0.586 C11 1 11 1 14 3 C14 3.66 14 4.32 14 5 C12.415 4.546 10.832 4.087 9.25 3.625 C8.368 3.37 7.487 3.115 6.578 2.852 C4.239 2.079 2.166 1.164 0 0 Z " fill="#393939" transform="translate(258,216)"/>
<path d="M0 0 C2 1 2 1 2 1 Z M-2 1 C0 2 0 2 0 2 Z M-4 2 C-2 3 -2 3 -2 3 Z M-7 4 C-6.34 4.33 -5.68 4.66 -5 5 C-6.623 6.709 -8.293 8.374 -10 10 C-10.66 10 -11.32 10 -12 10 C-10.867 6.601 -9.875 5.947 -7 4 Z " fill="#323232" transform="translate(241,204)"/>
<path d="M0 0 C2 1 2 1 2 1 Z M-3 1 C-2.01 1.33 -1.02 1.66 0 2 C-1.65 3.32 -3.3 4.64 -5 6 C-5 3 -5 3 -3 1 Z " fill="#3D3D3D" transform="translate(235,202)"/>
<path d="M0 0 C0.99 0 1.98 0 3 0 C2.67 1.98 2.34 3.96 2 6 C0.68 6.33 -0.64 6.66 -2 7 C-2 6.34 -2 5.68 -2 5 C-2.66 4.34 -3.32 3.68 -4 3 C-2.68 3 -1.36 3 0 3 C0 2.01 0 1.02 0 0 Z " fill="#B3B3B3" transform="translate(137,232)"/>
<path d="M0 0 C0.66 0.33 1.32 0.66 2 1 C1.578 1.482 1.157 1.964 0.723 2.461 C0.175 3.093 -0.373 3.724 -0.938 4.375 C-1.483 5.001 -2.028 5.628 -2.59 6.273 C-4.07 7.956 -4.07 7.956 -5 10 C-5.66 10 -6.32 10 -7 10 C-5.606 5.565 -3.394 3.126 0 0 Z " fill="#787878" transform="translate(228,205)"/>
<path d="M0 0 C0.66 0.33 1.32 0.66 2 1 C2.555 2.961 2.555 2.961 2.875 5.375 C2.996 6.166 3.117 6.958 3.242 7.773 C3.162 8.508 3.082 9.243 3 10 C1.68 10.99 0.36 11.98 -1 13 C-0.67 8.71 -0.34 4.42 0 0 Z " fill="#B4B4B4" transform="translate(147,265)"/>
<path d="M0 0 C0.66 0 1.32 0 2 0 C4.619 4.776 3.831 8.844 3 14 C2.67 14 2.34 14 2 14 C1.939 13.408 1.879 12.817 1.816 12.207 C1.38 8.09 0.913 4.045 0 0 Z " fill="#575757" transform="translate(262,231)"/>
<path d="M0 0 C0.99 0.33 1.98 0.66 3 1 C2.67 2.65 2.34 4.3 2 6 C1.34 5.34 0.68 4.68 0 4 C0 2.68 0 1.36 0 0 Z M0 6 C0.33 6.99 0.66 7.98 1 9 C0.01 9 -0.98 9 -2 9 C-1.34 8.01 -0.68 7.02 0 6 Z M-4 10 C-3.34 10 -2.68 10 -2 10 C-2.33 10.66 -2.66 11.32 -3 12 C-3.33 11.34 -3.66 10.68 -4 10 Z " fill="#787878" transform="translate(145,193)"/>
<path d="M0 0 C3.625 0.375 3.625 0.375 7 1 C7 1.99 7 2.98 7 4 C2.545 3.01 2.545 3.01 -2 2 C-1.34 1.34 -0.68 0.68 0 0 Z " fill="#3E3E3E" transform="translate(117,290)"/>
<path d="M0 0 C1.32 0.33 2.64 0.66 4 1 C1.36 2.98 -1.28 4.96 -4 7 C-4 6.01 -4 5.02 -4 4 C-3.34 4 -2.68 4 -2 4 C-1.34 2.68 -0.68 1.36 0 0 Z " fill="#A0A0A0" transform="translate(136,260)"/>
<path d="M0 0 C0.33 0 0.66 0 1 0 C1.25 7.625 1.25 7.625 -1 11 C-2.25 3.375 -2.25 3.375 0 0 Z " fill="#6B6B6B" transform="translate(406,253)"/>
<path d="M0 0 C0 3.268 -0.579 5.082 -2 8 C-3.485 8.99 -3.485 8.99 -5 10 C-4.551 8.518 -4.09 7.039 -3.625 5.562 C-3.37 4.739 -3.115 3.915 -2.852 3.066 C-2 1 -2 1 0 0 Z " fill="#828282" transform="translate(221,215)"/>
<path d="M0 0 C0.99 0.33 1.98 0.66 3 1 C2.67 2.32 2.34 3.64 2 5 C1.34 4.34 0.68 3.68 0 3 C-0.66 2.67 -1.32 2.34 -2 2 C-1.34 1.34 -0.68 0.68 0 0 Z M-1 4 C-1 4.99 -1 5.98 -1 7 C-1.99 7.495 -1.99 7.495 -3 8 C-2.34 6.68 -1.68 5.36 -1 4 Z " fill="#565656" transform="translate(301,188)"/>
<path d="M0 0 C0.99 0.33 1.98 0.66 3 1 C0.25 7.875 0.25 7.875 -2 9 C-1.34 6.03 -0.68 3.06 0 0 Z " fill="#D2D2D2" transform="translate(291,249)"/>
<path d="M0 0 C0.66 0.66 1.32 1.32 2 2 C0 4 0 4 -2.625 4.125 C-3.409 4.084 -4.192 4.042 -5 4 C-5 3.01 -5 2.02 -5 1 C-4.01 1 -3.02 1 -2 1 C-1.34 0.67 -0.68 0.34 0 0 Z " fill="#8C8C8C" transform="translate(145,202)"/>
<path d="M0 0 C1.65 0.33 3.3 0.66 5 1 C3.75 2.5 3.75 2.5 2 4 C0.68 4 -0.64 4 -2 4 C-1.34 2.68 -0.68 1.36 0 0 Z " fill="#CACACA" transform="translate(136,263)"/>
<path d="M0 0 C0.99 0.33 1.98 0.66 3 1 C2.67 2.98 2.34 4.96 2 7 C1.01 6.34 0.02 5.68 -1 5 C-0.67 3.35 -0.34 1.7 0 0 Z " fill="#858585" transform="translate(139,229)"/>
<path d="M0 0 C1.984 2.917 1.988 4.124 1.625 7.75 C1.419 8.822 1.213 9.895 1 11 C-0.984 8.083 -0.988 6.876 -0.625 3.25 C-0.419 2.178 -0.213 1.105 0 0 Z " fill="#9D9D9D" transform="translate(88,206)"/>
<path d="M0 0 C1.172 0.783 2.338 1.577 3.5 2.375 C4.475 3.036 4.475 3.036 5.469 3.711 C5.974 4.136 6.479 4.562 7 5 C7 5.66 7 6.32 7 7 C4.625 6.312 4.625 6.312 2 5 C0.688 2.375 0.688 2.375 0 0 Z " fill="#828282" transform="translate(243,242)"/>
<path d="M0 0 C0.66 0 1.32 0 2 0 C1.453 3.375 0.945 5.082 -1 8 C-1.66 8 -2.32 8 -3 8 C-2.536 7.134 -2.536 7.134 -2.062 6.25 C-1.074 4.157 -0.483 2.255 0 0 Z " fill="#AEAEAE" transform="translate(143,232)"/>
<path d="M0 0 C0.99 0.33 1.98 0.66 3 1 C1.68 2.32 0.36 3.64 -1 5 C-1.66 4.34 -2.32 3.68 -3 3 C-2.01 2.01 -1.02 1.02 0 0 Z " fill="#C0C0C0" transform="translate(367,226)"/>
<path d="M0 0 C3.871 0.574 6.082 2.487 9 5 C3.462 4.508 3.462 4.508 1.125 1.938 C0.754 1.298 0.382 0.659 0 0 Z " fill="#333333" transform="translate(234,262)"/>
<path d="M0 0 C1.32 0.33 2.64 0.66 4 1 C4 4 4 4 3 6 C0 2.25 0 2.25 0 0 Z " fill="#757575" transform="translate(216,249)"/>
<path d="M0 0 C0.66 0.66 1.32 1.32 2 2 C1.01 2.33 0.02 2.66 -1 3 C-1.99 2.34 -2.98 1.68 -4 1 C-2.125 0.375 -2.125 0.375 0 0 Z " fill="#B6B6B6" transform="translate(287,197)"/>
<path d="M0 0 C1.32 0.33 2.64 0.66 4 1 C3.67 1.66 3.34 2.32 3 3 C2.34 3 1.68 3 1 3 C1.33 4.65 1.66 6.3 2 8 C1.34 8 0.68 8 0 8 C0 5.36 0 2.72 0 0 Z " fill="#868686" transform="translate(308,179)"/>
<path d="M0 0 C1.98 0.99 1.98 0.99 4 2 C3.01 2 2.02 2 1 2 C0.67 1.34 0.34 0.68 0 0 Z M0 3 C0.99 3.33 1.98 3.66 3 4 C1.515 4.99 1.515 4.99 0 6 C0 5.01 0 4.02 0 3 Z " fill="#323232" transform="translate(107,282)"/>
<path d="M0 0 C1.65 0 3.3 0 5 0 C5.33 0.99 5.66 1.98 6 3 C3.69 2.67 1.38 2.34 -1 2 C-0.67 1.34 -0.34 0.68 0 0 Z " fill="#8D8D8D" transform="translate(139,261)"/>
<path d="M0 0 C0.33 0 0.66 0 1 0 C1 1.98 1 3.96 1 6 C-0.32 6.33 -1.64 6.66 -3 7 C-2.67 5.68 -2.34 4.36 -2 3 C-1.34 3 -0.68 3 0 3 C0 2.01 0 1.02 0 0 Z " fill="#A3A3A3" transform="translate(281,248)"/>
<path d="M0 0 C0.66 0.33 1.32 0.66 2 1 C1.01 2.65 0.02 4.3 -1 6 C-1.99 5.67 -2.98 5.34 -4 5 C-2.68 3.35 -1.36 1.7 0 0 Z " fill="#383838" transform="translate(229,214)"/>
<path d="M0 0 C0.99 0.33 1.98 0.66 3 1 C1.35 2.65 -0.3 4.3 -2 6 C-2.66 5.67 -3.32 5.34 -4 5 C-2.68 3.35 -1.36 1.7 0 0 Z " fill="#B0B0B0" transform="translate(298,187)"/>
<path d="M0 0 C0.66 1.32 1.32 2.64 2 4 C0.35 4.33 -1.3 4.66 -3 5 C-2 2 -2 2 0 0 Z " fill="#B4B4B4" transform="translate(130,235)"/>
<path d="M0 0 C0.66 0 1.32 0 2 0 C1.625 2.938 1.625 2.938 1 6 C0.01 6.495 0.01 6.495 -1 7 C-1.043 5 -1.041 3 -1 1 C-0.67 0.67 -0.34 0.34 0 0 Z " fill="#B5B5B5" transform="translate(355,186)"/>
<path d="M0 0 C1.114 0.34 1.114 0.34 2.25 0.688 C-1.185 2.978 -2.735 2.866 -6.75 2.688 C-4.295 0.414 -3.412 -0.388 0 0 Z " fill="#A0A0A0" transform="translate(361.75,296.3125)"/>
<path d="M0 0 C1.32 1.65 2.64 3.3 4 5 C2.68 5.33 1.36 5.66 0 6 C-1 3 -1 3 0 0 Z " fill="#2A2A2A" transform="translate(209,266)"/>
<path d="M0 0 C0.99 0.33 1.98 0.66 3 1 C2.01 1.495 2.01 1.495 1 2 C1 3.32 1 4.64 1 6 C0.34 6 -0.32 6 -1 6 C-1.043 4.334 -1.041 2.666 -1 1 C-0.67 0.67 -0.34 0.34 0 0 Z " fill="#9C9C9C" transform="translate(352,266)"/>
<path d="M0 0 C0.99 0 1.98 0 3 0 C2.67 0.99 2.34 1.98 2 3 C-0.062 3.688 -0.062 3.688 -2 4 C-1.34 2.68 -0.68 1.36 0 0 Z " fill="#C2C2C2" transform="translate(361,263)"/>
<path d="M0 0 C1.32 0.66 2.64 1.32 4 2 C4 2.66 4 3.32 4 4 C1.525 3.01 1.525 3.01 -1 2 C-0.67 1.34 -0.34 0.68 0 0 Z " fill="#9A9A9A" transform="translate(365,236)"/>
<path d="M0 0 C0.66 0.33 1.32 0.66 2 1 C1.67 2.98 1.34 4.96 1 7 C-1 4 -1 4 -0.625 1.812 C-0.419 1.214 -0.213 0.616 0 0 Z " fill="#777777" transform="translate(92,231)"/>
<path d="M0 0 C0.66 0 1.32 0 2 0 C2 1.98 2 3.96 2 6 C1.01 6.495 1.01 6.495 0 7 C-0.381 5.009 -0.713 3.007 -1 1 C-0.67 0.67 -0.34 0.34 0 0 Z " fill="#303030" transform="translate(91,225)"/>
<path d="M0 0 C1.32 0.33 2.64 0.66 4 1 C4.33 2.32 4.66 3.64 5 5 C3.062 4.188 3.062 4.188 1 3 C0.67 2.01 0.34 1.02 0 0 Z " fill="#939393" transform="translate(371,224)"/>
<path d="M0 0 C1.98 0.495 1.98 0.495 4 1 C4 1.99 4 2.98 4 4 C2.35 3.67 0.7 3.34 -1 3 C-0.67 2.01 -0.34 1.02 0 0 Z " fill="#8C8C8C" transform="translate(135,223)"/>
<path d="M0 0 C2.97 0.495 2.97 0.495 6 1 C5.67 1.66 5.34 2.32 5 3 C3.062 2.625 3.062 2.625 1 2 C0.67 1.34 0.34 0.68 0 0 Z " fill="#9E9E9E" transform="translate(366,222)"/>
<path d="M0 0 C0.66 1.32 1.32 2.64 2 4 C0.68 3.67 -0.64 3.34 -2 3 C-2 2.34 -2 1.68 -2 1 C-1.34 0.67 -0.68 0.34 0 0 Z " fill="#737373" transform="translate(357,273)"/>
<path d="M0 0 C0.99 0.33 1.98 0.66 3 1 C4.188 3.562 4.188 3.562 5 6 C4.34 6 3.68 6 3 6 C0 2.538 0 2.538 0 0 Z " fill="#2E2E2E" transform="translate(229,256)"/>
<path d="M0 0 C0.66 0.66 1.32 1.32 2 2 C-1 4 -1 4 -3.188 3.625 C-3.786 3.419 -4.384 3.213 -5 3 C-4.01 3 -3.02 3 -2 3 C-2 2.34 -2 1.68 -2 1 C-1.34 0.67 -0.68 0.34 0 0 Z " fill="#A8A8A8" transform="translate(143,199)"/>
<path d="M0 0 C0.33 0.66 0.66 1.32 1 2 C1.66 2 2.32 2 3 2 C2.67 3.32 2.34 4.64 2 6 C1.34 5.34 0.68 4.68 0 4 C0 2.68 0 1.36 0 0 Z " fill="#929292" transform="translate(359,196)"/>
<path d="M0 0 C0.99 0 1.98 0 3 0 C2.67 1.32 2.34 2.64 2 4 C1.34 4 0.68 4 0 4 C0 2.68 0 1.36 0 0 Z " fill="#9E9E9E" transform="translate(305,256)"/>
<path d="M0 0 C0.66 0 1.32 0 2 0 C1.67 1.65 1.34 3.3 1 5 C0.34 5 -0.32 5 -1 5 C-0.67 3.35 -0.34 1.7 0 0 Z " fill="#848484" transform="translate(210,242)"/>
<path d="M0 0 C2 3 2 3 3 6 C1.68 5.34 0.36 4.68 -1 4 C-0.67 2.68 -0.34 1.36 0 0 Z " fill="#919191" transform="translate(225,243)"/>
<path d="M0 0 C0.66 0.33 1.32 0.66 2 1 C1.34 2.32 0.68 3.64 0 5 C-0.66 5 -1.32 5 -2 5 C-1.125 1.125 -1.125 1.125 0 0 Z " fill="#CFCFCF" transform="translate(130,225)"/>
<path d="M0 0 C0.99 0.66 1.98 1.32 3 2 C1.35 2.33 -0.3 2.66 -2 3 C-1.34 2.01 -0.68 1.02 0 0 Z " fill="#AAAAAA" transform="translate(363,185)"/>
<path d="M0 0 C0.66 0 1.32 0 2 0 C2.33 0.99 2.66 1.98 3 3 C1.35 2.67 -0.3 2.34 -2 2 C-1.34 1.34 -0.68 0.68 0 0 Z " fill="#8A8A8A" transform="translate(117,290)"/>
<path d="M0 0 C0.66 1.32 1.32 2.64 2 4 C0.68 3.67 -0.64 3.34 -2 3 C-1.34 2.01 -0.68 1.02 0 0 Z " fill="#484848" transform="translate(286,249)"/>
<path d="M0 0 C0.33 0.99 0.66 1.98 1 3 C0.01 3.33 -0.98 3.66 -2 4 C-1.34 2.68 -0.68 1.36 0 0 Z " fill="#9F9F9F" transform="translate(142,236)"/>
<path d="M0 0 C0.66 1.32 1.32 2.64 2 4 C1.01 3.67 0.02 3.34 -1 3 C-0.67 2.01 -0.34 1.02 0 0 Z " fill="#434343" transform="translate(285,228)"/>
<path d="M0 0 C0.66 0 1.32 0 2 0 C2 0.99 2 1.98 2 3 C1.01 2.67 0.02 2.34 -1 2 C-0.67 1.34 -0.34 0.68 0 0 Z " fill="#B9B9B9" transform="translate(364,198)"/>
<path d="M0 0 C0.66 0.66 1.32 1.32 2 2 C1.01 2 0.02 2 -1 2 C-0.67 1.34 -0.34 0.68 0 0 Z " fill="#B7B7B7" transform="translate(135,269)"/>
<path d="M0 0 C0.66 0.66 1.32 1.32 2 2 C1.01 2 0.02 2 -1 2 C-0.67 1.34 -0.34 0.68 0 0 Z " fill="#999999" transform="translate(365,236)"/>
</svg>