
<!-- Generator: visioncortex VTracer 0.6.4 -->
<svg version="1.1" xmlns="http://www.w3.org/2000/svg" viewBox="0 0 300 300" preserveAspectRatio="xMidYMid meet">
<path d="M0 0 C14.447 1.861 28.877 3.749 43.25 6.125 C51.142 7.429 59.011 8.531 66.967 9.354 C72.128 9.889 77.233 10.593 82.352 11.441 C85.366 11.903 88.371 12.293 91.398 12.652 C92.352 12.772 93.305 12.891 94.288 13.014 C96.196 13.252 98.107 13.475 100.019 13.683 C100.893 13.796 101.767 13.908 102.668 14.023 C103.848 14.161 103.848 14.161 105.052 14.302 C107 15 107 15 108.334 16.866 C109.407 20.304 107.647 22.905 106.188 26 C98.346 43.813 92.476 62.845 89 82 C88.738 83.314 88.738 83.314 88.471 84.654 C86.98 92.633 86.651 100.394 86.688 108.5 C86.69 109.156 86.692 109.813 86.694 110.489 C86.845 139.398 94.689 167.498 103.934 194.73 C104.257 195.683 104.58 196.636 104.912 197.618 C105.539 199.452 106.173 201.284 106.816 203.112 C107.101 203.94 107.386 204.768 107.68 205.621 C107.935 206.347 108.19 207.074 108.453 207.822 C109.071 210.281 109.094 212.474 109 215 C105.213 214.458 102.97 213.548 99.996 211.156 C99.261 210.574 98.527 209.991 97.77 209.391 C97 208.767 96.23 208.143 95.438 207.5 C93.822 206.215 92.206 204.931 90.59 203.648 C89.412 202.708 89.412 202.708 88.21 201.749 C85.347 199.483 82.433 197.299 79.5 195.125 C75.724 192.303 71.966 189.463 68.25 186.562 C67.43 185.924 66.61 185.286 65.766 184.629 C64.892 183.823 64.892 183.823 64 183 C64 182.34 64 181.68 64 181 C63.443 180.752 62.886 180.505 62.312 180.25 C59.576 178.771 57.323 177.065 55 175 C55 174.34 55 173.68 55 173 C54.01 172.67 53.02 172.34 52 172 C50.246 170.293 50.246 170.293 48.438 168.188 C47.838 167.5 47.239 166.813 46.621 166.105 C45.104 164.134 44.021 162.26 43 160 C42.34 160 41.68 160 41 160 C39.211 157.872 37.563 155.748 35.938 153.5 C35.447 152.823 34.957 152.146 34.452 151.448 C2.43 106.387 -0.471 53.342 0 0 Z " fill="#BD0101" transform="translate(0,43)"/>
<path d="M0 0 C0.803 0.003 1.606 0.007 2.434 0.01 C3.042 0.014 3.651 0.019 4.278 0.023 C4.728 48.416 3.424 100.3 -24.722 142.023 C-25.482 143.189 -25.482 143.189 -26.257 144.378 C-30.457 150.624 -35.219 156.325 -40.128 162.015 C-42.212 164.432 -44.253 166.875 -46.285 169.335 C-47.089 170.222 -47.893 171.109 -48.722 172.023 C-49.382 172.023 -50.042 172.023 -50.722 172.023 C-50.722 172.683 -50.722 173.343 -50.722 174.023 C-52.183 175.531 -52.183 175.531 -54.097 177.148 C-54.724 177.687 -55.35 178.226 -55.996 178.781 C-57.722 180.023 -57.722 180.023 -59.722 180.023 C-59.722 180.683 -59.722 181.343 -59.722 182.023 C-64.193 186.023 -64.193 186.023 -66.722 186.023 C-66.722 186.683 -66.722 187.343 -66.722 188.023 C-68.955 189.859 -71.199 191.575 -73.535 193.273 C-74.239 193.791 -74.944 194.31 -75.67 194.844 C-77.2 195.97 -78.732 197.093 -80.265 198.214 C-82.828 200.101 -85.37 202.012 -87.91 203.929 C-89.618 205.211 -91.326 206.492 -93.035 207.773 C-93.852 208.393 -94.67 209.014 -95.512 209.653 C-96.662 210.509 -96.662 210.509 -97.835 211.382 C-98.514 211.892 -99.192 212.403 -99.891 212.928 C-101.722 214.023 -101.722 214.023 -104.722 214.023 C-104.068 207.365 -102.056 201.255 -100.035 194.898 C-99.305 192.564 -98.577 190.229 -97.851 187.894 C-97.49 186.735 -97.13 185.576 -96.758 184.382 C-92.553 170.745 -88.578 157.012 -85.722 143.023 C-85.571 142.299 -85.42 141.576 -85.265 140.831 C-80.695 118.087 -81.092 94.499 -86.722 72.023 C-87.1 70.421 -87.478 68.82 -87.855 67.218 C-91.062 54.043 -95.299 41.066 -100.574 28.57 C-100.862 27.883 -101.15 27.196 -101.447 26.489 C-102.231 24.649 -103.04 22.82 -103.851 20.992 C-104.722 18.023 -104.722 18.023 -104.188 15.912 C-102.722 14.023 -102.722 14.023 -99.824 13.233 C-98.606 13.099 -97.387 12.966 -96.132 12.828 C-95.473 12.749 -94.814 12.671 -94.135 12.59 C-92.02 12.342 -89.903 12.119 -87.785 11.898 C-85.025 11.589 -82.266 11.271 -79.507 10.953 C-78.829 10.876 -78.15 10.8 -77.451 10.721 C-72.777 10.184 -68.193 9.417 -63.575 8.527 C-56.826 7.334 -49.994 6.611 -43.192 5.773 C-35.781 4.856 -28.412 3.864 -21.073 2.469 C-17.924 1.871 -14.767 1.37 -11.597 0.898 C-10.501 0.73 -9.406 0.563 -8.277 0.39 C-5.459 0.099 -2.822 -0.015 0 0 Z " fill="#BC0101" transform="translate(295.72216796875,43.97705078125)"/>
<path d="M0 0 C0.803 0.003 1.606 0.007 2.434 0.01 C3.042 0.014 3.651 0.019 4.278 0.023 C4.728 48.416 3.424 100.3 -24.722 142.023 C-25.482 143.189 -25.482 143.189 -26.257 144.378 C-30.457 150.624 -35.219 156.325 -40.128 162.015 C-42.212 164.432 -44.253 166.875 -46.285 169.335 C-47.089 170.222 -47.893 171.109 -48.722 172.023 C-49.382 172.023 -50.042 172.023 -50.722 172.023 C-50.722 172.683 -50.722 173.343 -50.722 174.023 C-52.183 175.531 -52.183 175.531 -54.097 177.148 C-54.724 177.687 -55.35 178.226 -55.996 178.781 C-57.722 180.023 -57.722 180.023 -59.722 180.023 C-59.722 180.683 -59.722 181.343 -59.722 182.023 C-64.193 186.023 -64.193 186.023 -66.722 186.023 C-66.722 186.683 -66.722 187.343 -66.722 188.023 C-68.955 189.859 -71.199 191.575 -73.535 193.273 C-74.239 193.791 -74.944 194.31 -75.67 194.844 C-77.2 195.97 -78.732 197.093 -80.265 198.214 C-82.828 200.101 -85.37 202.012 -87.91 203.929 C-89.618 205.211 -91.326 206.492 -93.035 207.773 C-93.852 208.393 -94.67 209.014 -95.512 209.653 C-96.662 210.509 -96.662 210.509 -97.835 211.382 C-98.514 211.892 -99.192 212.403 -99.891 212.928 C-101.722 214.023 -101.722 214.023 -104.722 214.023 C-104.068 207.365 -102.056 201.255 -100.035 194.898 C-99.305 192.564 -98.577 190.229 -97.851 187.894 C-97.49 186.735 -97.13 185.576 -96.758 184.382 C-92.553 170.745 -88.578 157.012 -85.722 143.023 C-85.571 142.299 -85.42 141.576 -85.265 140.831 C-80.703 118.127 -81.022 94.455 -86.722 72.023 C-86.936 71.165 -87.15 70.308 -87.37 69.424 C-88.573 64.641 -89.84 59.88 -91.153 55.126 C-92.061 51.771 -92.891 48.398 -93.722 45.023 C-93.062 45.023 -92.402 45.023 -91.722 45.023 C-91.529 45.615 -91.335 46.206 -91.136 46.816 C-90.876 47.606 -90.615 48.396 -90.347 49.21 C-90.092 49.988 -89.837 50.765 -89.574 51.566 C-88.764 54.007 -88.764 54.007 -87.75 56.238 C-86.286 60.205 -85.502 64.26 -84.66 68.398 C-84.486 69.223 -84.313 70.048 -84.134 70.898 C-83.365 74.611 -82.656 78.302 -82.164 82.062 C-82.04 84.903 -82.04 84.903 -80.722 86.023 C-79.694 93.106 -79.563 100.269 -79.554 107.414 C-79.551 108.361 -79.548 109.309 -79.544 110.285 C-79.539 112.275 -79.537 114.265 -79.537 116.255 C-79.535 119.252 -79.516 122.249 -79.498 125.246 C-79.456 138.968 -80.052 152.176 -83.847 165.46 C-84.2 166.717 -84.554 167.974 -84.917 169.269 C-85.183 170.178 -85.449 171.087 -85.722 172.023 C-86.382 172.023 -87.042 172.023 -87.722 172.023 C-87.629 173.694 -87.629 173.694 -87.535 175.398 C-87.535 180.617 -89.051 185.123 -90.722 190.023 C-91.008 190.893 -91.295 191.763 -91.589 192.66 C-92.29 194.784 -93.001 196.905 -93.722 199.023 C-92.299 198.033 -92.299 198.033 -90.847 197.023 C-87.722 195.023 -87.722 195.023 -85.722 195.023 C-85.722 194.363 -85.722 193.703 -85.722 193.023 C-84.113 191.621 -84.113 191.621 -81.972 190.085 C-80.928 189.329 -80.928 189.329 -79.863 188.558 C-79.156 188.052 -78.45 187.545 -77.722 187.023 C-76.663 186.186 -76.663 186.186 -75.582 185.332 C-73.722 184.023 -73.722 184.023 -71.722 184.023 C-71.722 183.363 -71.722 182.703 -71.722 182.023 C-70.003 180.484 -68.22 179.016 -66.41 177.585 C-62.654 174.662 -62.654 174.662 -59.179 171.425 C-57.722 170.023 -57.722 170.023 -55.48 168.769 C-51.672 166.358 -48.742 163.293 -45.597 160.085 C-44.977 159.465 -44.357 158.844 -43.718 158.205 C-38.241 152.859 -38.241 152.859 -34.773 146.167 C-33.586 142.616 -31.923 139.863 -29.91 136.71 C-24.741 128.582 -20.294 120.688 -17.222 111.523 C-16.927 110.656 -16.631 109.79 -16.327 108.897 C-12.019 96.133 -8.28 83.502 -6.084 70.193 C-5.811 68.556 -5.525 66.92 -5.234 65.286 C-4.009 58.292 -3.189 51.352 -2.66 44.273 C-2.536 42.686 -2.536 42.686 -2.41 41.066 C-1.564 29.73 -1.122 18.382 -0.722 7.023 C-16.966 8.985 -33.162 11.189 -49.347 13.585 C-51.432 13.892 -53.516 14.199 -55.601 14.505 C-56.617 14.655 -57.633 14.804 -58.679 14.958 C-60.667 15.25 -62.655 15.542 -64.643 15.834 C-68.78 16.441 -72.916 17.05 -77.049 17.683 C-78.269 17.866 -79.489 18.049 -80.746 18.238 C-81.753 18.392 -82.76 18.547 -83.798 18.706 C-87.123 19.066 -90.38 19.075 -93.722 19.023 C-93.722 18.693 -93.722 18.363 -93.722 18.023 C-85.142 16.703 -76.562 15.383 -67.722 14.023 C-67.722 13.693 -67.722 13.363 -67.722 13.023 C-80.097 13.518 -80.097 13.518 -92.722 14.023 C-88.58 11.952 -85.169 11.454 -80.66 11.023 C-75.939 10.554 -71.295 9.974 -66.632 9.085 C-58.869 7.627 -51.028 6.738 -43.192 5.773 C-35.781 4.856 -28.412 3.864 -21.073 2.469 C-17.924 1.871 -14.767 1.37 -11.597 0.898 C-10.501 0.73 -9.406 0.563 -8.277 0.39 C-5.459 0.099 -2.822 -0.015 0 0 Z " fill="#640404" transform="translate(295.72216796875,43.97705078125)"/>
<path d="M0 0 C14.447 1.861 28.877 3.749 43.25 6.125 C51.142 7.429 59.011 8.531 66.967 9.354 C72.128 9.889 77.233 10.593 82.352 11.441 C85.366 11.903 88.371 12.293 91.398 12.652 C92.352 12.772 93.305 12.891 94.288 13.014 C96.196 13.252 98.107 13.475 100.019 13.683 C100.893 13.796 101.767 13.908 102.668 14.023 C103.848 14.161 103.848 14.161 105.052 14.302 C107 15 107 15 108.357 16.827 C109.408 20.379 107.589 22.822 106 26 C105.67 26 105.34 26 105 26 C105.33 23.03 105.66 20.06 106 17 C104.225 16.927 104.225 16.927 102.414 16.852 C87.768 16.183 87.768 16.183 80.664 14.535 C77.071 13.813 73.451 13.409 69.812 13 C69.078 12.917 68.344 12.834 67.587 12.748 C66.105 12.58 64.622 12.413 63.139 12.246 C54.099 11.208 45.104 9.9 36.125 8.438 C35.333 8.311 34.541 8.184 33.725 8.053 C28.119 7.119 28.119 7.119 27 6 C25.147 5.928 23.292 5.916 21.438 5.938 C20.426 5.947 19.414 5.956 18.371 5.965 C17.589 5.976 16.806 5.988 16 6 C16 6.33 16 6.66 16 7 C14.762 7.021 13.525 7.041 12.25 7.062 C11.554 7.074 10.858 7.086 10.141 7.098 C7.964 6.998 6.1 6.556 4 6 C4.322 22.711 5.028 39.343 6.438 56 C6.499 56.752 6.56 57.505 6.624 58.28 C6.802 60.437 6.991 62.594 7.184 64.75 C7.292 65.982 7.401 67.215 7.513 68.484 C8.019 72.139 8.928 75.474 10 79 C10.387 80.615 10.76 82.233 11.113 83.855 C13.101 92.731 15.097 101.211 18.891 109.523 C19.907 111.792 20.666 113.996 21.375 116.375 C23.072 121.721 25.714 126.604 28.281 131.57 C30.495 135.987 32.513 140.37 33.93 145.109 C35.164 148.444 36.82 150.556 39.125 153.25 C43 157.801 43 157.801 43 160 C42.34 160 41.68 160 41 160 C39.211 157.872 37.563 155.748 35.938 153.5 C35.447 152.823 34.957 152.146 34.452 151.448 C2.43 106.387 -0.471 53.342 0 0 Z M86 124 C86.33 124 86.66 124 87 124 C87.22 125.731 87.22 125.731 87.445 127.496 C90.538 150.455 96.494 172.816 103.934 194.73 C104.257 195.683 104.58 196.636 104.912 197.618 C105.539 199.452 106.173 201.284 106.816 203.112 C107.101 203.94 107.386 204.768 107.68 205.621 C108.062 206.711 108.062 206.711 108.453 207.822 C109.071 210.281 109.094 212.474 109 215 C105.213 214.458 102.97 213.548 99.996 211.156 C99.261 210.574 98.527 209.991 97.77 209.391 C97 208.767 96.23 208.143 95.438 207.5 C93.822 206.215 92.206 204.931 90.59 203.648 C89.805 203.022 89.019 202.395 88.21 201.749 C85.347 199.483 82.433 197.299 79.5 195.125 C74.233 191.205 69.097 187.138 64 183 C64.33 182.34 64.66 181.68 65 181 C65.909 181.762 65.909 181.762 66.836 182.539 C71.891 186.692 76.945 190.301 82.617 193.555 C84.972 194.983 87.088 196.548 89.25 198.25 C92.362 200.663 95.153 201.992 99 203 C99.99 203.495 99.99 203.495 101 204 C100.723 202.866 100.446 201.731 100.16 200.562 C99.794 199.042 99.428 197.521 99.062 196 C98.789 194.884 98.789 194.884 98.51 193.746 C97.335 188.834 96.573 184.017 96 179 C95.238 174.707 94.14 170.507 92.98 166.305 C92.799 165.647 92.618 164.99 92.431 164.313 C91.897 162.39 91.351 160.47 90.805 158.551 C90.05 155.221 89.843 152.396 90 149 C89.34 149 88.68 149 88 149 C85.704 132.292 85.704 132.292 86 124 Z M43 160 C44.98 161.65 46.96 163.3 49 165 C48.67 165.66 48.34 166.32 48 167 C46.291 165.377 44.626 163.707 43 162 C43 161.34 43 160.68 43 160 Z M49 167 C53.074 168.61 55.765 171.538 58.75 174.625 C59.257 175.141 59.763 175.656 60.285 176.188 C61.528 177.454 62.765 178.726 64 180 C59.684 180 58.072 177.867 55 175 C55 174.34 55 173.68 55 173 C54.01 172.67 53.02 172.34 52 172 C50.312 169.438 50.312 169.438 49 167 Z " fill="#4F0D0D" transform="translate(0,43)"/>
<path d="M0 0 C0.33 0 0.66 0 1 0 C1.493 37.414 -6.786 79.553 -28 111 C-28.507 111.777 -29.013 112.555 -29.535 113.355 C-33.735 119.601 -38.497 125.302 -43.406 130.992 C-45.49 133.409 -47.531 135.852 -49.562 138.312 C-50.367 139.199 -51.171 140.086 -52 141 C-52.66 141 -53.32 141 -54 141 C-54 141.66 -54 142.32 -54 143 C-55.461 144.508 -55.461 144.508 -57.375 146.125 C-58.001 146.664 -58.628 147.203 -59.273 147.758 C-61 149 -61 149 -63 149 C-63 149.66 -63 150.32 -63 151 C-67.471 155 -67.471 155 -70 155 C-70 155.66 -70 156.32 -70 157 C-72.233 158.836 -74.477 160.553 -76.812 162.25 C-77.517 162.769 -78.222 163.287 -78.948 163.821 C-80.478 164.947 -82.01 166.07 -83.543 167.191 C-86.106 169.078 -88.648 170.989 -91.188 172.906 C-92.896 174.188 -94.604 175.469 -96.312 176.75 C-97.13 177.37 -97.948 177.991 -98.79 178.63 C-99.94 179.486 -99.94 179.486 -101.113 180.359 C-101.792 180.87 -102.47 181.38 -103.169 181.905 C-105 183 -105 183 -108 183 C-107.346 176.342 -105.334 170.232 -103.312 163.875 C-102.583 161.541 -101.855 159.206 -101.129 156.871 C-100.768 155.712 -100.407 154.553 -100.036 153.359 C-95.831 139.722 -91.856 125.989 -89 112 C-88.849 111.277 -88.698 110.553 -88.542 109.808 C-83.981 87.104 -84.3 63.432 -90 41 C-90.214 40.142 -90.428 39.285 -90.648 38.401 C-91.85 33.618 -93.117 28.857 -94.431 24.103 C-95.339 20.748 -96.169 17.375 -97 14 C-96.34 14 -95.68 14 -95 14 C-94.807 14.592 -94.613 15.183 -94.414 15.793 C-94.154 16.583 -93.893 17.373 -93.625 18.188 C-93.37 18.965 -93.115 19.742 -92.852 20.543 C-92.042 22.984 -92.042 22.984 -91.027 25.215 C-89.564 29.182 -88.78 33.237 -87.938 37.375 C-87.677 38.612 -87.677 38.612 -87.412 39.875 C-86.643 43.588 -85.934 47.279 -85.441 51.039 C-85.318 53.88 -85.318 53.88 -84 55 C-82.983 62.066 -82.822 69.227 -82.762 76.355 C-82.754 77.301 -82.746 78.246 -82.737 79.22 C-82.724 81.206 -82.713 83.191 -82.705 85.177 C-82.693 87.175 -82.673 89.173 -82.643 91.171 C-82.457 103.816 -83.17 114.897 -87 127 C-87.242 127.832 -87.484 128.664 -87.733 129.522 C-88.289 131.42 -88.892 133.305 -89.5 135.188 C-89.923 136.518 -90.346 137.849 -90.77 139.18 C-91.555 141.624 -92.345 144.066 -93.137 146.508 C-95.042 152.501 -96.578 158.337 -97.508 164.562 C-98.042 167.21 -98.93 169.525 -100 172 C-98.557 171.262 -97.12 170.509 -95.688 169.75 C-94.487 169.124 -94.487 169.124 -93.262 168.484 C-90.849 166.901 -89.677 165.315 -88 163 C-86.336 162.054 -84.668 161.111 -82.977 160.215 C-79.887 158.316 -77.341 155.861 -74.699 153.391 C-73 152 -73 152 -71 152 C-70.67 151.01 -70.34 150.02 -70 149 C-67.953 147.414 -67.953 147.414 -65.25 145.625 C-44.315 130.816 -28.537 107.591 -19 84 C-18.347 82.66 -17.688 81.323 -17 80 C-16.01 80 -15.02 80 -14 80 C-13.67 77.03 -13.34 74.06 -13 71 C-12.34 71 -11.68 71 -11 71 C-11.041 70.093 -11.082 69.185 -11.125 68.25 C-10.999 64.961 -10.454 63.823 -9 61 C-6.823 53.57 -6.066 45.765 -5.057 38.113 C-4.934 37.21 -4.81 36.306 -4.684 35.375 C-4.576 34.558 -4.468 33.74 -4.357 32.898 C-4 31 -4 31 -3 30 C-2.784 28.293 -2.629 26.579 -2.5 24.863 C-2.418 23.811 -2.335 22.758 -2.25 21.674 C-2.168 20.565 -2.085 19.455 -2 18.312 C-1.836 16.142 -1.669 13.971 -1.5 11.801 C-1.428 10.833 -1.356 9.865 -1.281 8.868 C-0.988 5.881 -0.525 2.955 0 0 Z " fill="#3D1110" transform="translate(299,75)"/>
<path d="M0 0 C1.979 -0.027 3.958 -0.046 5.938 -0.062 C7.04 -0.074 8.142 -0.086 9.277 -0.098 C12 0 12 0 13 1 C15.707 1.528 18.403 2.001 21.125 2.438 C21.943 2.571 22.76 2.704 23.602 2.842 C29.719 3.827 35.847 4.683 41.992 5.473 C46.648 6.075 51.292 6.761 55.938 7.438 C67.604 9.127 79.299 10.575 91 12 C90.918 22.192 87.547 31.088 84.188 40.562 C80.165 51.947 76.718 63.187 74.387 75.047 C74.051 76.741 73.688 78.431 73.32 80.118 C71.631 88.599 71.731 97.078 71.794 105.689 C71.812 108.232 71.815 110.774 71.814 113.316 C71.837 123.581 72.226 133.764 73 144 C73.66 144 74.32 144 75 144 C75.111 144.549 75.221 145.099 75.335 145.665 C75.844 148.173 76.359 150.68 76.875 153.188 C77.136 154.484 77.136 154.484 77.402 155.807 C78.286 160.077 79.281 163.978 81 168 C81.442 169.676 81.838 171.365 82.188 173.062 C82.367 173.899 82.546 174.736 82.73 175.598 C83.006 178.049 82.758 179.673 82 182 C78.53 174.284 76.331 166.319 74.148 158.172 C73.465 155.621 72.716 153.168 71.859 150.664 C70.889 147.655 70.85 145.142 71 142 C70.34 142 69.68 142 69 142 C68.28 138.676 67.631 135.342 67 132 C66.809 131.031 66.618 130.061 66.422 129.062 C59.644 89.558 72.037 52.655 85 16 C83.881 15.859 82.763 15.718 81.61 15.573 C77.405 15.042 73.201 14.508 68.997 13.974 C67.187 13.744 65.378 13.515 63.568 13.287 C53.678 12.041 43.813 10.771 34 9 C34 8.34 34 7.68 34 7 C29.252 6.455 24.513 5.954 19.75 5.562 C13.453 5.009 7.235 4.021 1 3 C0.67 2.01 0.34 1.02 0 0 Z " fill="#7E0607" transform="translate(15,48)"/>
<path d="M0 0 C0.387 30.484 0.387 30.484 -1.492 42.566 C-2.222 47.499 -2.479 52.424 -2.754 57.402 C-3 60 -3 60 -4 61 C-4.261 62.416 -4.467 63.842 -4.648 65.27 C-4.765 66.153 -4.882 67.037 -5.002 67.947 C-5.125 68.892 -5.248 69.838 -5.375 70.812 C-6.448 78.699 -7.78 86.343 -10 94 C-10.209 94.75 -10.418 95.5 -10.633 96.273 C-11.076 97.853 -11.535 99.427 -12 101 C-12.66 101 -13.32 101 -14 101 C-14.33 103.97 -14.66 106.94 -15 110 C-15.99 109.67 -16.98 109.34 -18 109 C-17.619 107.888 -17.619 107.888 -17.23 106.754 C-14.437 98.205 -12.76 89.751 -11.316 80.893 C-10.536 76.222 -9.624 71.563 -8.504 66.961 C-5.048 52.656 -4.636 38.137 -4.375 23.5 C-4.337 21.694 -4.298 19.888 -4.258 18.082 C-4.163 13.721 -4.079 9.361 -4 5 C-16.762 5.233 -28.736 6.4 -41.207 9.272 C-47.917 10.775 -54.127 11.296 -61 11 C-60 9 -60 9 -57.98 8.219 C-50.221 6.222 -42.567 5.316 -34.593 4.646 C-33.334 4.539 -33.334 4.539 -32.051 4.43 C-31.295 4.37 -30.538 4.311 -29.759 4.25 C-27.976 4.176 -27.976 4.176 -27 3 C-25.515 2.703 -24.019 2.462 -22.52 2.246 C-21.602 2.114 -20.685 1.982 -19.74 1.846 C-18.291 1.644 -18.291 1.644 -16.812 1.438 C-15.866 1.299 -14.919 1.16 -13.943 1.018 C-13.02 0.887 -12.096 0.756 -11.145 0.621 C-10.303 0.502 -9.461 0.382 -8.593 0.26 C-5.714 -0.029 -2.891 -0.042 0 0 Z " fill="#341817" transform="translate(300,45)"/>
<path d="M0 0 C0.33 0 0.66 0 1 0 C1.22 1.731 1.22 1.731 1.445 3.496 C4.538 26.455 10.494 48.816 17.934 70.73 C18.257 71.683 18.58 72.636 18.912 73.618 C19.539 75.452 20.173 77.284 20.816 79.112 C21.101 79.94 21.386 80.768 21.68 81.621 C22.062 82.711 22.062 82.711 22.453 83.822 C23.071 86.281 23.094 88.474 23 91 C19.213 90.458 16.97 89.548 13.996 87.156 C13.261 86.574 12.527 85.991 11.77 85.391 C11 84.767 10.23 84.143 9.438 83.5 C7.822 82.215 6.206 80.931 4.59 79.648 C3.805 79.022 3.019 78.395 2.21 77.749 C-0.653 75.483 -3.567 73.299 -6.5 71.125 C-11.767 67.205 -16.903 63.138 -22 59 C-21.67 58.34 -21.34 57.68 -21 57 C-20.091 57.762 -20.091 57.762 -19.164 58.539 C-14.109 62.692 -9.055 66.301 -3.383 69.555 C-1.028 70.983 1.088 72.548 3.25 74.25 C6.362 76.663 9.153 77.992 13 79 C13.99 79.495 13.99 79.495 15 80 C14.723 78.866 14.446 77.731 14.16 76.562 C13.794 75.042 13.428 73.521 13.062 72 C12.789 70.884 12.789 70.884 12.51 69.746 C11.335 64.834 10.573 60.017 10 55 C9.238 50.707 8.14 46.507 6.98 42.305 C6.799 41.647 6.618 40.99 6.431 40.313 C5.897 38.39 5.351 36.47 4.805 34.551 C4.05 31.221 3.843 28.396 4 25 C3.34 25 2.68 25 2 25 C-0.296 8.292 -0.296 8.292 0 0 Z M-58 15 C-54.669 18.151 -52.319 21.076 -50 25 C-48.172 27.362 -46.309 29.692 -44.426 32.012 C-43 34 -43 34 -43 36 C-43.66 36 -44.32 36 -45 36 C-46.205 34.671 -46.205 34.671 -47.531 32.824 C-48.012 32.161 -48.493 31.498 -48.988 30.814 C-49.487 30.113 -49.986 29.411 -50.5 28.688 C-51.248 27.652 -51.248 27.652 -52.012 26.596 C-58 18.288 -58 18.288 -58 15 Z M-43 36 C-41.02 37.65 -39.04 39.3 -37 41 C-37.33 41.66 -37.66 42.32 -38 43 C-39.709 41.377 -41.374 39.707 -43 38 C-43 37.34 -43 36.68 -43 36 Z M-37 43 C-32.926 44.61 -30.235 47.538 -27.25 50.625 C-26.743 51.141 -26.237 51.656 -25.715 52.188 C-24.472 53.454 -23.235 54.726 -22 56 C-26.316 56 -27.928 53.867 -31 51 C-31 50.34 -31 49.68 -31 49 C-31.99 48.67 -32.98 48.34 -34 48 C-35.688 45.438 -35.688 45.438 -37 43 Z " fill="#453130" transform="translate(86,167)"/>
<path d="M0 0 C0.33 0 0.66 0 1 0 C1.05 0.653 1.1 1.305 1.152 1.978 C0.763 31.43 0.763 31.43 8 58 C8.66 57.34 9.32 56.68 10 56 C10.125 56.573 10.251 57.147 10.38 57.737 C13.617 72.448 13.617 72.448 18.891 86.523 C19.907 88.792 20.666 90.996 21.375 93.375 C23.072 98.721 25.714 103.604 28.281 108.57 C30.002 112.005 31.521 115.456 33 119 C30 119 30 119 27.578 117.008 C24.568 113.496 22.684 110.051 20.75 105.875 C20.369 105.056 19.989 104.237 19.597 103.393 C4.823 70.545 -0.699 35.793 0 0 Z " fill="#958687" transform="translate(0,66)"/>
<path d="M0 0 C0 0.33 0 0.66 0 1 C-0.813 1.116 -1.625 1.232 -2.463 1.351 C-6.122 1.876 -9.78 2.407 -13.438 2.938 C-15.357 3.211 -15.357 3.211 -17.314 3.49 C-18.529 3.667 -19.744 3.845 -20.996 4.027 C-22.122 4.19 -23.248 4.352 -24.408 4.519 C-26.921 4.732 -26.921 4.732 -28 6 C-29.852 6.275 -31.712 6.492 -33.574 6.684 C-35.288 6.868 -35.288 6.868 -37.037 7.057 C-39.451 7.308 -41.865 7.559 -44.279 7.807 C-45.428 7.931 -46.578 8.055 -47.762 8.184 C-48.813 8.292 -49.865 8.401 -50.948 8.513 C-54.129 9.021 -56.977 9.901 -60 11 C-52.216 11.39 -45.261 10.207 -37.688 8.5 C-28.976 6.633 -20.936 5.201 -12 6 C-15.551 8.367 -18.688 8.777 -22.812 9.375 C-23.634 9.499 -24.455 9.624 -25.301 9.752 C-34.3 11.092 -43.324 12.261 -52.345 13.44 C-62.354 14.755 -72.337 16.21 -82.309 17.781 C-87.605 18.594 -92.64 19.213 -98 19 C-98 18.67 -98 18.34 -98 18 C-89.42 16.68 -80.84 15.36 -72 14 C-72 13.67 -72 13.34 -72 13 C-84.375 13.495 -84.375 13.495 -97 14 C-92.858 11.929 -89.447 11.431 -84.938 11 C-80.217 10.531 -75.573 9.951 -70.91 9.062 C-63.147 7.604 -55.306 6.715 -47.47 5.75 C-40.059 4.833 -32.69 3.841 -25.351 2.446 C-16.902 0.842 -8.603 -0.297 0 0 Z " fill="#900809" transform="translate(300,44)"/>
<path d="M0 0 C3.097 2.868 5.428 5.922 7.754 9.414 C9.092 11.286 9.092 11.286 12 13 C12.552 14.021 13.103 15.042 13.672 16.094 C16.356 21.014 20.261 24.622 24.25 28.5 C24.976 29.221 25.701 29.941 26.449 30.684 C31.144 35.311 35.988 39.72 41 44 C41.551 44.473 42.102 44.946 42.67 45.434 C44.169 46.714 45.678 47.982 47.188 49.25 C48.171 50.08 49.155 50.91 50.168 51.766 C52.698 53.761 55.236 55.361 58 57 C59.704 58.628 61.38 60.288 63 62 C62.01 62.495 62.01 62.495 61 63 C60.238 62.408 59.476 61.817 58.691 61.207 C57.659 60.417 56.626 59.627 55.562 58.812 C54.048 57.647 54.048 57.647 52.504 56.457 C49.974 54.592 47.385 53.114 44.598 51.664 C39.644 48.978 35.87 45.498 31.875 41.562 C30.54 40.271 29.205 38.98 27.867 37.691 C26.902 36.756 26.902 36.756 25.917 35.802 C24.08 34.075 22.192 32.445 20.258 30.828 C17.497 28.495 15.212 26.062 13 23.188 C12.337 22.33 11.675 21.473 10.992 20.59 C10.335 19.735 9.677 18.881 9 18 C8.343 17.197 7.685 16.394 7.008 15.566 C2.999 10.634 0 6.599 0 0 Z " fill="#340404" transform="translate(32,182)"/>
<path d="M0 0 C1.979 -0.027 3.958 -0.046 5.938 -0.062 C7.04 -0.074 8.142 -0.086 9.277 -0.098 C12 0 12 0 13 1 C15.707 1.528 18.403 2.001 21.125 2.438 C21.943 2.571 22.76 2.704 23.602 2.842 C29.719 3.827 35.847 4.683 41.992 5.473 C46.648 6.075 51.292 6.761 55.938 7.438 C67.604 9.127 79.299 10.575 91 12 C90.323 19.861 89.103 26.466 83.75 32.562 C83.172 33.037 82.595 33.511 82 34 C81 32 81 32 81.437 30.121 C81.822 29.005 81.822 29.005 82.215 27.867 C82.489 27.062 82.763 26.256 83.045 25.426 C83.339 24.584 83.634 23.742 83.938 22.875 C84.374 21.601 84.374 21.601 84.818 20.301 C85.539 18.198 86.266 16.098 87 14 C85.952 14.017 85.952 14.017 84.883 14.035 C83.518 14.049 83.518 14.049 82.125 14.062 C80.768 14.08 80.768 14.08 79.383 14.098 C77 14 77 14 75 13 C72.146 12.652 69.298 12.343 66.438 12.062 C56.595 11.046 56.595 11.046 52.25 9.938 C47.349 8.693 42.387 8.583 37.355 8.281 C33.834 7.986 30.608 7.324 27.191 6.469 C23.821 5.748 20.428 5.553 16.996 5.285 C11.629 4.774 6.318 3.871 1 3 C0.67 2.01 0.34 1.02 0 0 Z " fill="#370404" transform="translate(15,48)"/>
<path d="M0 0 C1.371 4.112 0.184 7.354 -0.812 11.438 C-1.575 14.618 -2.305 17.804 -3 21 C-3.19 21.857 -3.381 22.714 -3.577 23.597 C-5.28 32.288 -5.271 40.871 -5.206 49.689 C-5.188 52.232 -5.185 54.774 -5.186 57.316 C-5.163 67.581 -4.774 77.764 -4 88 C-3.34 88 -2.68 88 -2 88 C-1.889 88.549 -1.779 89.099 -1.665 89.665 C-1.156 92.173 -0.641 94.68 -0.125 97.188 C0.049 98.052 0.223 98.916 0.402 99.807 C1.286 104.077 2.281 107.978 4 112 C4.442 113.676 4.838 115.365 5.188 117.062 C5.367 117.899 5.546 118.736 5.73 119.598 C6.006 122.049 5.758 123.673 5 126 C0.944 116.981 -1.491 107.533 -4 98 C-4.47 96.227 -4.47 96.227 -4.949 94.418 C-7.063 86.22 -8.159 78.396 -8.238 69.938 C-8.248 69.077 -8.257 68.216 -8.267 67.329 C-8.292 64.552 -8.304 61.776 -8.312 59 C-8.316 58.057 -8.32 57.114 -8.323 56.143 C-8.345 42.448 -7.588 29.589 -4.451 16.21 C-3.824 13.138 -3.544 10.06 -3.299 6.936 C-2.873 4.178 -1.644 2.216 0 0 Z " fill="#3A1514" transform="translate(92,104)"/>
<path d="M0 0 C13.687 -0.35 13.687 -0.35 20.301 1.426 C25.102 2.447 30 2.823 34.882 3.302 C40.803 3.901 40.803 3.901 43 5 C44.704 5.226 46.413 5.409 48.125 5.562 C49.035 5.646 49.945 5.73 50.883 5.816 C51.581 5.877 52.28 5.938 53 6 C52.357 10.451 51.293 14.589 49.938 18.875 C49.575 20.027 49.213 21.18 48.84 22.367 C48.563 23.236 48.286 24.105 48 25 C48.99 24.67 49.98 24.34 51 24 C51.954 21.701 51.954 21.701 52.562 19 C53.254 16.25 53.254 16.25 54 14 C54.66 13.67 55.32 13.34 56 13 C53.716 20.745 51.284 28.438 48.812 36.125 C48.444 37.272 48.076 38.42 47.697 39.602 C46.799 42.401 45.9 45.201 45 48 C44.67 48 44.34 48 44 48 C44.33 44.04 44.66 40.08 45 36 C43.35 40.29 41.7 44.58 40 49 C39.67 49 39.34 49 39 49 C39.449 40.476 42.179 32.993 45 25 C45.261 24.261 45.521 23.522 45.79 22.76 C46.585 20.507 47.38 18.253 48.176 16 C48.449 15.225 48.723 14.451 49.005 13.652 C49.67 11.768 50.335 9.884 51 8 C49.881 7.859 48.763 7.718 47.61 7.573 C43.405 7.042 39.201 6.508 34.997 5.974 C33.187 5.744 31.378 5.515 29.568 5.287 C19.678 4.041 9.813 2.771 0 1 C0 0.67 0 0.34 0 0 Z " fill="#8E0809" transform="translate(49,56)"/>
<path d="M0 0 C0.66 0 1.32 0 2 0 C2.193 0.592 2.387 1.183 2.586 1.793 C2.846 2.583 3.107 3.373 3.375 4.188 C3.63 4.965 3.885 5.742 4.148 6.543 C4.958 8.984 4.958 8.984 5.973 11.215 C7.436 15.182 8.22 19.237 9.062 23.375 C9.236 24.2 9.409 25.025 9.588 25.875 C10.357 29.588 11.066 33.279 11.559 37.039 C11.682 39.88 11.682 39.88 13 41 C15.617 55.313 14.702 71.596 13 86 C12.34 86 11.68 86 11 86 C11.073 87.645 11.073 87.645 11.148 89.324 C11.146 94.681 9.899 99.635 8.625 104.812 C6.852 112.178 5.281 119.532 4 127 C3.34 127 2.68 127 2 127 C1.67 130.3 1.34 133.6 1 137 C0.34 137 -0.32 137 -1 137 C-1.124 138.114 -1.248 139.227 -1.375 140.375 C-2 144 -2 144 -4 146 C-2.749 139.179 -1.103 132.581 0.875 125.938 C3.561 116.683 6.072 107.444 8 98 C8.151 97.277 8.302 96.553 8.458 95.808 C13.019 73.104 12.7 49.432 7 27 C6.679 25.714 6.679 25.714 6.352 24.401 C5.15 19.618 3.883 14.857 2.569 10.103 C1.661 6.748 0.831 3.375 0 0 Z " fill="#B4B1B2" transform="translate(202,89)"/>
<path d="M0 0 C0.054 2.396 0.094 4.791 0.125 7.188 C0.142 7.861 0.159 8.535 0.176 9.229 C0.216 13.325 -0.28 16.298 -2 20 C-2.376 21.992 -2.72 23.992 -3 26 C-3.33 26 -3.66 26 -4 26 C-4 19.07 -4 12.14 -4 5 C-16.858 5.27 -28.668 6.385 -41.207 9.272 C-47.917 10.775 -54.127 11.296 -61 11 C-60 9 -60 9 -57.98 8.219 C-50.221 6.222 -42.567 5.316 -34.593 4.646 C-33.334 4.539 -33.334 4.539 -32.051 4.43 C-31.295 4.37 -30.538 4.311 -29.759 4.25 C-27.976 4.176 -27.976 4.176 -27 3 C-25.515 2.703 -24.019 2.462 -22.52 2.246 C-21.602 2.114 -20.685 1.982 -19.74 1.846 C-18.291 1.644 -18.291 1.644 -16.812 1.438 C-15.866 1.299 -14.919 1.16 -13.943 1.018 C-9.259 0.354 -4.745 -0.183 0 0 Z " fill="#371A1A" transform="translate(300,45)"/>
<path d="M0 0 C14.447 1.861 28.877 3.749 43.25 6.125 C51.142 7.429 59.011 8.531 66.967 9.354 C72.128 9.889 77.233 10.593 82.352 11.441 C85.366 11.903 88.371 12.293 91.398 12.652 C92.352 12.772 93.305 12.891 94.288 13.014 C96.196 13.252 98.107 13.475 100.019 13.683 C100.893 13.796 101.767 13.908 102.668 14.023 C103.848 14.161 103.848 14.161 105.052 14.302 C107 15 107 15 108.357 16.827 C109.408 20.379 107.589 22.822 106 26 C105.67 26 105.34 26 105 26 C105.33 23.03 105.66 20.06 106 17 C104.225 16.927 104.225 16.927 102.414 16.852 C87.768 16.183 87.768 16.183 80.664 14.535 C77.071 13.813 73.451 13.409 69.812 13 C69.078 12.917 68.344 12.834 67.587 12.748 C66.105 12.58 64.622 12.413 63.139 12.246 C54.099 11.208 45.104 9.9 36.125 8.438 C35.333 8.311 34.541 8.184 33.725 8.053 C28.119 7.119 28.119 7.119 27 6 C25.345 5.714 23.679 5.485 22.012 5.281 C20.995 5.154 19.979 5.026 18.932 4.895 C17.861 4.764 16.791 4.634 15.688 4.5 C13.587 4.242 11.487 3.981 9.387 3.719 C8.45 3.605 7.514 3.491 6.55 3.373 C4.308 3.045 2.182 2.597 0 2 C0 1.34 0 0.68 0 0 Z " fill="#847F7F" transform="translate(0,43)"/>
<path d="M0 0 C0.33 0.99 0.66 1.98 1 3 C-2.695 9.547 -8.05 15.372 -12.875 21.125 C-13.351 21.693 -13.827 22.262 -14.317 22.847 C-17.751 26.876 -17.751 26.876 -20 28 C-18.693 25.23 -17.241 22.829 -15.391 20.391 C-14.883 19.718 -14.375 19.045 -13.852 18.352 C-13.323 17.658 -12.795 16.965 -12.25 16.25 C-11.48 15.233 -11.48 15.233 -10.695 14.195 C-9.661 12.828 -8.625 11.461 -7.588 10.096 C-5.046 6.74 -2.523 3.37 0 0 Z M-22 28 C-21.34 28.33 -20.68 28.66 -20 29 C-21.281 30.707 -22.618 32.374 -24 34 C-24.66 34 -25.32 34 -26 34 C-26 34.66 -26 35.32 -26 36 C-27.461 37.508 -27.461 37.508 -29.375 39.125 C-30.001 39.664 -30.628 40.203 -31.273 40.758 C-33 42 -33 42 -35 42 C-35 42.66 -35 43.32 -35 44 C-39.471 48 -39.471 48 -42 48 C-42 48.66 -42 49.32 -42 50 C-44.233 51.836 -46.477 53.553 -48.812 55.25 C-49.517 55.769 -50.222 56.287 -50.948 56.821 C-52.478 57.947 -54.01 59.07 -55.543 60.191 C-58.106 62.078 -60.648 63.989 -63.188 65.906 C-64.896 67.188 -66.604 68.469 -68.312 69.75 C-69.13 70.37 -69.948 70.991 -70.79 71.63 C-71.557 72.201 -72.323 72.771 -73.113 73.359 C-74.131 74.125 -74.131 74.125 -75.169 74.905 C-77 76 -77 76 -80 76 C-79.383 70.606 -78.121 65.716 -76.438 60.562 C-76.087 59.465 -76.087 59.465 -75.729 58.346 C-75.157 56.562 -74.579 54.781 -74 53 C-73.67 53 -73.34 53 -73 53 C-72.875 59.625 -72.875 59.625 -74 63 C-74.66 63 -75.32 63 -76 63 C-76.144 64.093 -76.289 65.186 -76.438 66.312 C-77 70 -77 70 -78 73 C-74.767 71.516 -72.087 69.672 -69.262 67.516 C-68.359 66.827 -67.456 66.139 -66.525 65.43 C-65.589 64.71 -64.652 63.991 -63.688 63.25 C-62.763 62.546 -61.838 61.842 -60.885 61.117 C-56.29 57.603 -51.788 54.033 -47.429 50.229 C-45.683 48.727 -43.857 47.362 -42 46 C-34.88 40.54 -28.493 34.177 -22 28 Z " fill="#C9C8C9" transform="translate(271,182)"/>
<path d="M0 0 C0.33 0 0.66 0 1 0 C0.34 6.86 -1.236 13.344 -3 20 C-3.66 20 -4.32 20 -5 20 C-4.938 21.114 -4.876 22.227 -4.812 23.375 C-4.812 28.594 -6.329 33.101 -8 38 C-8.286 38.87 -8.572 39.74 -8.867 40.637 C-9.568 42.762 -10.279 44.882 -11 47 C-10.051 46.34 -9.102 45.68 -8.125 45 C-5 43 -5 43 -3 43 C-4.056 46.284 -5.617 47.572 -8.5 49.25 C-12 51 -12 51 -14 51 C-13.859 50.299 -13.719 49.597 -13.574 48.875 C-13.196 46.98 -12.823 45.085 -12.457 43.188 C-9.496 28.545 -5.53 13.89 0 0 Z M25 18 C25.66 18.33 26.32 18.66 27 19 C21.484 24.761 15.747 30.006 9.516 34.984 C7.483 36.613 5.518 38.282 3.562 40 C1.233 41.818 -0.102 42.666 -3 43 C-3 42.34 -3 41.68 -3 41 C-1.391 39.598 -1.391 39.598 0.75 38.062 C1.446 37.558 2.142 37.054 2.859 36.535 C3.566 36.029 4.272 35.522 5 35 C5.706 34.442 6.413 33.884 7.141 33.309 C9 32 9 32 11 32 C11 31.34 11 30.68 11 30 C12.72 28.461 14.502 26.993 16.312 25.562 C20.844 21.989 20.844 21.989 25 18 Z " fill="#8C0809" transform="translate(213,196)"/>
<path d="M0 0 C3.3 0 6.6 0 10 0 C6.565 2.29 5.015 2.178 1 2 C1.266 2.713 1.531 3.426 1.805 4.16 C5.04 12.933 5.04 12.933 6.062 16.875 C6.994 19.98 8.321 22.253 10 25 C10 25.99 10 26.98 10 28 C10.66 28 11.32 28 12 28 C16.248 35.438 18.406 42.613 20 51 C20.218 52.061 20.436 53.122 20.66 54.215 C21.792 60.161 22.145 65.047 21 71 C20.67 71 20.34 71 20 71 C19.836 69.819 19.836 69.819 19.668 68.613 C17.836 55.268 17.836 55.268 13.965 42.422 C12.721 39.301 12.223 36.191 11.66 32.891 C11.442 32.267 11.224 31.643 11 31 C10.01 30.67 9.02 30.34 8 30 C6.882 27.33 5.941 24.748 5.062 22 C3.433 17.086 1.805 12.336 -0.5 7.688 C-0.995 6.471 -1.49 5.254 -2 4 C-1.34 2.68 -0.68 1.36 0 0 Z " fill="#3F2120" transform="translate(193,58)"/>
<path d="M0 0 C1.516 3.031 0.452 5.189 -0.312 8.438 C-0.709 10.168 -0.709 10.168 -1.113 11.934 C-2 15 -2 15 -4 18 C-4.512 20.019 -4.512 20.019 -4.781 22.246 C-4.961 23.504 -4.961 23.504 -5.145 24.787 C-5.262 25.662 -5.379 26.536 -5.5 27.438 C-5.738 29.145 -5.978 30.852 -6.219 32.559 C-6.401 33.887 -6.401 33.887 -6.586 35.243 C-6.865 37.101 -7.182 38.954 -7.535 40.8 C-9.089 48.997 -9.234 56.923 -9.125 65.25 C-9.115 66.592 -9.106 67.935 -9.098 69.277 C-9.074 72.518 -9.042 75.759 -9 79 C-9.66 78.67 -10.32 78.34 -11 78 C-12.647 52.3 -12.669 24.696 -1 1 C-0.67 0.67 -0.34 0.34 0 0 Z " fill="#2E0D0C" transform="translate(94,91)"/>
<path d="M0 0 C3.96 0.33 7.92 0.66 12 1 C12 1.33 12 1.66 12 2 C8.37 2 4.74 2 1 2 C1.89 34.1 3.327 67.052 14.259 97.608 C16.088 102.737 16.088 102.737 15 106 C11.126 96.405 8.047 86.958 5.859 76.84 C5.066 73.069 5.066 73.069 4 69.713 C2.265 63.27 1.932 56.63 1.375 50 C1.276 48.858 1.276 48.858 1.175 47.693 C-0.184 31.775 -0.303 15.965 0 0 Z " fill="#93080A" transform="translate(4,49)"/>
<path d="M0 0 C-2 3 -2 3 -5.073 3.708 C-6.361 3.86 -7.649 4.011 -8.977 4.168 C-9.662 4.253 -10.347 4.337 -11.053 4.424 C-13.242 4.691 -15.433 4.94 -17.625 5.188 C-19.11 5.365 -20.594 5.544 -22.078 5.725 C-25.717 6.164 -29.358 6.586 -33 7 C-32.687 8.011 -32.687 8.011 -32.368 9.042 C-32.096 9.933 -31.823 10.824 -31.543 11.742 C-31.273 12.622 -31.002 13.503 -30.723 14.41 C-29.829 17.612 -29.359 20.698 -29 24 C-35.215 19.071 -36.03 11.445 -37 4 C-24.636 1.505 -12.657 -0.211 0 0 Z M-28 27 C-27.01 27.495 -27.01 27.495 -26 28 C-26 28.66 -26 29.32 -26 30 C-26.66 30 -27.32 30 -28 30 C-28 29.01 -28 28.02 -28 27 Z " fill="#3D100F" transform="translate(231,56)"/>
<path d="M0 0 C3.331 3.151 5.681 6.076 8 10 C9.828 12.362 11.691 14.692 13.574 17.012 C15 19 15 19 15 21 C14.34 21 13.68 21 13 21 C11.795 19.671 11.795 19.671 10.469 17.824 C9.988 17.161 9.507 16.498 9.012 15.814 C8.513 15.113 8.014 14.411 7.5 13.688 C6.752 12.652 6.752 12.652 5.988 11.596 C0 3.288 0 3.288 0 0 Z M15 21 C16.98 22.65 18.96 24.3 21 26 C20.67 26.66 20.34 27.32 20 28 C18.291 26.377 16.626 24.707 15 23 C15 22.34 15 21.68 15 21 Z M21 28 C25.074 29.61 27.765 32.538 30.75 35.625 C31.257 36.141 31.763 36.656 32.285 37.188 C33.528 38.454 34.765 39.726 36 41 C31.684 41 30.072 38.867 27 36 C27 35.34 27 34.68 27 34 C26.01 33.67 25.02 33.34 24 33 C22.312 30.438 22.312 30.438 21 28 Z M36 42 C39.39 43.859 42.36 46.036 45.375 48.438 C48.063 50.564 50.675 52.489 53.688 54.125 C59.077 57.176 63.106 60.372 66 66 C63.265 64.707 60.876 63.28 58.461 61.461 C57.802 60.966 57.144 60.472 56.465 59.962 C55.43 59.177 55.43 59.177 54.375 58.375 C53.667 57.84 52.96 57.304 52.23 56.752 C50.15 55.173 48.074 53.588 46 52 C45.432 51.567 44.864 51.134 44.278 50.688 C38.046 45.918 38.046 45.918 36 44 C36 43.34 36 42.68 36 42 Z " fill="#DCDCDD" transform="translate(28,182)"/>
<path d="M0 0 C2.797 2.797 2.588 5.111 3.062 9 C3.505 13.655 3.505 13.655 5 18 C6.757 31.75 7.115 47.234 5 61 C4.34 61.66 3.68 62.32 3 63 C2.156 55.015 1.946 47.147 2 39.125 C2.053 30.356 1.737 21.742 1 13 C0.812 10.521 0.624 8.042 0.438 5.562 C0.292 3.708 0.147 1.854 0 0 Z " fill="#3F0505" transform="translate(213,113)"/>
<path d="M0 0 C3.097 2.868 5.428 5.922 7.754 9.414 C9.092 11.286 9.092 11.286 12 13 C12.562 14.033 13.124 15.065 13.703 16.129 C16.263 20.831 19.923 24.251 23.75 27.938 C24.447 28.621 25.145 29.305 25.863 30.01 C27.569 31.68 29.281 33.343 31 35 C28 35 28 35 26.203 33.391 C24.911 31.974 23.619 30.558 22.328 29.141 C19.984 26.81 19.984 26.81 16.562 25.137 C12.61 22.982 10.345 20.178 7.75 16.562 C7.33 16.002 6.91 15.442 6.477 14.865 C-0.472 5.503 -0.472 5.503 0 0 Z M33 38 C35 39 35 39 35 39 Z " fill="#680404" transform="translate(32,182)"/>
<path d="M0 0 C12.465 -0.657 24.683 1.301 37 3 C36.323 10.861 35.103 17.466 29.75 23.562 C29.172 24.037 28.595 24.511 28 25 C27 23 27 23 27.437 21.121 C27.694 20.377 27.95 19.633 28.215 18.867 C28.489 18.062 28.763 17.256 29.045 16.426 C29.339 15.584 29.634 14.742 29.938 13.875 C30.374 12.601 30.374 12.601 30.818 11.301 C31.539 9.198 32.266 7.098 33 5 C31.952 5.017 31.952 5.017 30.883 5.035 C29.973 5.044 29.063 5.053 28.125 5.062 C26.768 5.08 26.768 5.08 25.383 5.098 C23 5 23 5 21 4 C19.663 3.806 18.318 3.657 16.973 3.535 C16.181 3.457 15.388 3.379 14.572 3.299 C12.903 3.142 11.234 2.988 9.564 2.838 C8.771 2.759 7.978 2.679 7.16 2.598 C6.434 2.531 5.709 2.464 4.961 2.395 C3 2 3 2 0 0 Z " fill="#320706" transform="translate(69,57)"/>
<path d="M0 0 C0.33 0 0.66 0 1 0 C1.388 29.5 -3.812 61.002 -16 88 C-17.072 84.792 -16.958 83.151 -15.625 80.062 C-14.392 77.05 -13.505 74.234 -13 71 C-12.34 71 -11.68 71 -11 71 C-11.041 70.093 -11.082 69.185 -11.125 68.25 C-10.999 64.961 -10.454 63.823 -9 61 C-6.823 53.57 -6.066 45.765 -5.057 38.113 C-4.934 37.21 -4.81 36.306 -4.684 35.375 C-4.522 34.149 -4.522 34.149 -4.357 32.898 C-4 31 -4 31 -3 30 C-2.784 28.293 -2.629 26.579 -2.5 24.863 C-2.418 23.811 -2.335 22.758 -2.25 21.674 C-2.168 20.565 -2.085 19.455 -2 18.312 C-1.836 16.142 -1.669 13.971 -1.5 11.801 C-1.428 10.833 -1.356 9.865 -1.281 8.868 C-0.988 5.881 -0.525 2.955 0 0 Z " fill="#C1BFC0" transform="translate(299,75)"/>
<path d="M0 0 C0.33 0 0.66 0 1 0 C1.231 1.03 1.461 2.06 1.699 3.121 C4.698 16.301 7.921 29.435 13.152 41.93 C15.238 47.023 16.268 51.5 16 57 C11.407 55.514 8.564 53.15 5 50 C5.99 49.505 5.99 49.505 7 49 C7.619 49.495 8.237 49.99 8.875 50.5 C10.839 52.192 10.839 52.192 13 52 C12.819 51.454 12.639 50.908 12.453 50.345 C8.882 39.492 5.499 28.606 2.562 17.562 C2.304 16.611 2.045 15.66 1.779 14.679 C0.466 9.633 -0.294 5.215 0 0 Z " fill="#8D0809" transform="translate(85,190)"/>
<path d="M0 0 C0.33 0 0.66 0 1 0 C1.147 1.154 1.294 2.307 1.445 3.496 C4.073 23.009 8.837 41.945 14.703 60.723 C15.963 64.781 17.006 68.869 18 73 C17.34 73 16.68 73 16 73 C16 71.35 16 69.7 16 68 C15.34 68 14.68 68 14 68 C14 67.34 14 66.68 14 66 C13.34 66 12.68 66 12 66 C11.897 65.113 11.794 64.226 11.688 63.312 C10.65 56.119 8.854 49.033 6.914 42.035 C6.731 41.373 6.549 40.711 6.361 40.029 C5.838 38.154 5.304 36.282 4.77 34.41 C4.032 31.141 3.852 28.336 4 25 C3.34 25 2.68 25 2 25 C-0.296 8.292 -0.296 8.292 0 0 Z " fill="#C5C4C4" transform="translate(86,167)"/>
<path d="M0 0 C2.64 0 5.28 0 8 0 C8.05 5.261 8.086 10.522 8.11 15.784 C8.12 17.566 8.133 19.348 8.151 21.13 C8.283 34.952 7.78 48.429 4.5 61.934 C3.938 64.258 3.464 66.592 3 68.938 C2.835 69.76 2.67 70.582 2.5 71.43 C2.151 73.224 1.819 75.021 1.5 76.82 C1.252 78.178 1.252 78.178 1 79.562 C0.856 80.389 0.711 81.215 0.562 82.066 C0.377 82.704 0.191 83.343 0 84 C-0.99 84.495 -0.99 84.495 -2 85 C-1.789 83.77 -1.789 83.77 -1.573 82.516 C-1.036 79.383 -0.504 76.25 0.026 73.116 C0.364 71.13 0.705 69.144 1.047 67.158 C3.782 50.949 5.331 34.853 6.125 18.438 C6.212 16.732 6.299 15.027 6.387 13.322 C6.597 9.215 6.801 5.108 7 1 C4.69 1 2.38 1 0 1 C0 0.67 0 0.34 0 0 Z " fill="#910809" transform="translate(288,50)"/>
<path d="M0 0 C0 0.33 0 0.66 0 1 C-0.813 1.116 -1.625 1.232 -2.463 1.351 C-6.122 1.876 -9.78 2.407 -13.438 2.938 C-14.717 3.12 -15.996 3.302 -17.314 3.49 C-18.529 3.667 -19.744 3.845 -20.996 4.027 C-22.122 4.19 -23.248 4.352 -24.408 4.519 C-26.921 4.732 -26.921 4.732 -28 6 C-29.887 6.287 -31.782 6.515 -33.68 6.719 C-34.836 6.846 -35.992 6.974 -37.184 7.105 C-38.402 7.236 -39.62 7.366 -40.875 7.5 C-43.269 7.757 -45.662 8.018 -48.055 8.281 C-49.122 8.395 -50.189 8.509 -51.289 8.627 C-54.089 8.928 -54.089 8.928 -57 10 C-58.48 10.146 -59.964 10.247 -61.449 10.316 C-62.721 10.379 -62.721 10.379 -64.018 10.443 C-65.339 10.502 -65.339 10.502 -66.688 10.562 C-67.58 10.606 -68.473 10.649 -69.393 10.693 C-71.595 10.799 -73.797 10.901 -76 11 C-72.384 8.589 -69.328 8.437 -65.125 8.062 C-51.882 6.737 -38.685 4.947 -25.605 2.473 C-17.055 0.922 -8.699 -0.3 0 0 Z " fill="#BFBDBE" transform="translate(300,44)"/>
<path d="M0 0 C0.054 2.396 0.094 4.791 0.125 7.188 C0.142 7.861 0.159 8.535 0.176 9.229 C0.216 13.325 -0.28 16.298 -2 20 C-2.376 21.992 -2.72 23.992 -3 26 C-3.33 26 -3.66 26 -4 26 C-4 19.07 -4 12.14 -4 5 C-6.64 5 -9.28 5 -12 5 C-12.66 4.34 -13.32 3.68 -14 3 C-10.256 -0.744 -5.026 -0.042 0 0 Z " fill="#530404" transform="translate(300,45)"/>
<path d="M0 0 C1.371 4.112 0.184 7.354 -0.812 11.438 C-3.806 23.92 -5.328 35.898 -5.625 48.75 C-5.663 50.141 -5.702 51.531 -5.742 52.922 C-5.835 56.281 -5.921 59.64 -6 63 C-8.593 58.43 -8.383 54.338 -8.375 49.188 C-8.376 48.225 -8.376 47.262 -8.377 46.271 C-8.227 36.139 -6.434 26.439 -4.451 16.532 C-3.881 13.331 -3.557 10.133 -3.299 6.892 C-2.867 4.157 -1.63 2.197 0 0 Z " fill="#8E8A8A" transform="translate(92,104)"/>
<path d="M0 0 C0.66 0 1.32 0 2 0 C0.19 10.532 -2.918 22.146 -11.438 29.312 C-12.283 29.869 -13.129 30.426 -14 31 C-14.33 30.34 -14.66 29.68 -15 29 C-13.674 26.411 -12.295 23.935 -10.812 21.438 C-7.848 16.321 -5.02 11.27 -2.754 5.797 C-1.923 3.816 -0.977 1.912 0 0 Z " fill="#655555" transform="translate(282,155)"/>
<path d="M0 0 C1.98 0.495 1.98 0.495 4 1 C3.769 1.65 3.539 2.299 3.301 2.969 C2.865 7.365 4.482 10.499 6.188 14.5 C6.846 16.114 7.501 17.73 8.152 19.348 C8.632 20.535 8.632 20.535 9.121 21.747 C11.066 26.732 12.54 31.856 14 37 C14.299 38.012 14.598 39.024 14.906 40.066 C16.19 44.531 17.167 48.324 17 53 C14.175 50.175 13.971 46.912 13.188 43.125 C11.76 36.629 9.875 30.721 7.156 24.629 C5.812 21.573 4.769 18.484 3.762 15.305 C2.532 11.583 1.09 7.939 -0.328 4.285 C-1 2 -1 2 0 0 Z " fill="#8D0809" transform="translate(198,62)"/>
<path d="M0 0 C0.33 0 0.66 0 1 0 C1.597 12.466 -0.051 23.152 -4 35 C-4.66 35 -5.32 35 -6 35 C-5.835 34.34 -5.67 33.68 -5.5 33 C-4.892 29.911 -4.892 29.911 -5.062 26.375 C-5.092 21.796 -4.363 17.485 -3.5 13 C-3.357 12.225 -3.214 11.451 -3.066 10.652 C-2.717 8.767 -2.36 6.883 -2 5 C-1.34 5 -0.68 5 0 5 C0 3.35 0 1.7 0 0 Z " fill="#3D0403" transform="translate(215,170)"/>
<path d="M0 0 C1 2 1 2 0.104 5.256 C-0.359 6.645 -0.831 8.031 -1.309 9.414 C-1.554 10.144 -1.8 10.873 -2.053 11.625 C-2.841 13.961 -3.639 16.293 -4.438 18.625 C-4.973 20.205 -5.507 21.786 -6.041 23.367 C-7.353 27.247 -8.674 31.125 -10 35 C-10.33 35 -10.66 35 -11 35 C-10.912 32.478 -10.805 29.958 -10.688 27.438 C-10.665 26.733 -10.642 26.029 -10.619 25.303 C-10.363 20.25 -9.423 16.471 -7 12 C-6.01 11.67 -5.02 11.34 -4 11 C-3.009 8.703 -3.009 8.703 -2.375 6 C-1.073 1.073 -1.073 1.073 0 0 Z " fill="#867B7B" transform="translate(104,69)"/>
<path d="M0 0 C0.33 0 0.66 0 1 0 C1.121 1.004 1.242 2.008 1.367 3.043 C2.179 9.69 3.02 16.322 4.062 22.938 C4.376 24.958 4.689 26.979 5 29 C5.138 29.891 5.276 30.781 5.418 31.699 C6.233 37.651 6.233 37.651 4 41 C1.828 30.28 -0.238 19.629 -0.812 8.688 C-0.853 7.924 -0.894 7.16 -0.935 6.374 C-1.007 4.584 -1.011 2.791 -1 1 C-0.67 0.67 -0.34 0.34 0 0 Z " fill="#341B1A" transform="translate(3,86)"/>
<path d="M0 0 C18.387 2.369 36.712 4.946 55 8 C55 8.33 55 8.66 55 9 C47.706 8.532 40.413 8.053 33.125 7.5 C32.158 7.428 31.191 7.356 30.195 7.281 C28 7 28 7 27 6 C25.345 5.714 23.679 5.485 22.012 5.281 C20.995 5.154 19.979 5.026 18.932 4.895 C17.861 4.764 16.791 4.634 15.688 4.5 C13.587 4.242 11.487 3.981 9.387 3.719 C8.45 3.605 7.514 3.491 6.55 3.373 C4.308 3.045 2.182 2.597 0 2 C0 1.34 0 0.68 0 0 Z " fill="#C2C0C1" transform="translate(0,43)"/>
<path d="M0 0 C0.33 0.99 0.66 1.98 1 3 C-2.695 9.547 -8.05 15.372 -12.875 21.125 C-13.351 21.693 -13.827 22.262 -14.317 22.847 C-17.751 26.876 -17.751 26.876 -20 28 C-18.693 25.23 -17.241 22.829 -15.391 20.391 C-14.883 19.718 -14.375 19.045 -13.852 18.352 C-13.323 17.658 -12.795 16.965 -12.25 16.25 C-11.48 15.233 -11.48 15.233 -10.695 14.195 C-9.661 12.828 -8.625 11.461 -7.588 10.096 C-5.046 6.74 -2.523 3.37 0 0 Z M-22 28 C-21.34 28.33 -20.68 28.66 -20 29 C-21.281 30.707 -22.618 32.374 -24 34 C-24.66 34 -25.32 34 -26 34 C-26 34.66 -26 35.32 -26 36 C-26.66 35.67 -27.32 35.34 -28 35 C-26.02 32.69 -24.04 30.38 -22 28 Z " fill="#BFBDBE" transform="translate(271,182)"/>
<path d="M0 0 C1.32 0.33 2.64 0.66 4 1 C3.67 1.99 3.34 2.98 3 4 C2.319 15.937 3.425 28.074 4 40 C3.01 40.495 3.01 40.495 2 41 C0.456 27.273 -0.267 13.812 0 0 Z " fill="#27100F" transform="translate(0,46)"/>
<path d="M0 0 C6.555 0.456 13.098 1.051 19.625 1.812 C20.793 1.943 21.961 2.073 23.164 2.207 C26 3 26 3 27.484 4.84 C28.329 8.38 26.569 10.862 25 14 C24.67 14 24.34 14 24 14 C24.33 11.03 24.66 8.06 25 5 C23.155 4.909 23.155 4.909 21.273 4.816 C19.641 4.732 18.008 4.647 16.375 4.562 C15.567 4.523 14.759 4.484 13.926 4.443 C9.548 4.212 5.315 3.831 1 3 C0.67 2.01 0.34 1.02 0 0 Z " fill="#979393" transform="translate(81,55)"/>
<path d="M0 0 C0.33 0 0.66 0 1 0 C0.34 6.86 -1.236 13.344 -3 20 C-3.66 20 -4.32 20 -5 20 C-4.876 21.733 -4.876 21.733 -4.75 23.5 C-4.728 29.616 -7.698 34.047 -11 39 C-10.325 33.051 -8.86 27.491 -7.188 21.75 C-6.921 20.824 -6.654 19.897 -6.378 18.943 C-4.505 12.524 -2.475 6.216 0 0 Z " fill="#740506" transform="translate(213,196)"/>
<path d="M0 0 C-2.475 1.485 -2.475 1.485 -5 3 C-4.795 3.641 -4.59 4.281 -4.379 4.941 C-2.812 9.973 -1.57 14.76 -1 20 C-6.352 15.756 -7.735 9.444 -8.688 2.938 C-8.791 1.968 -8.894 0.999 -9 0 C-3.375 -1.125 -3.375 -1.125 0 0 Z M0 23 C0.99 23.495 0.99 23.495 2 24 C2 24.66 2 25.32 2 26 C1.34 26 0.68 26 0 26 C0 25.01 0 24.02 0 23 Z " fill="#2D0505" transform="translate(203,60)"/>
<path d="M0 0 C0 8.607 -10.895 18.744 -16.562 24.688 C-17.367 25.451 -18.171 26.214 -19 27 C-20.274 28.268 -21.544 29.539 -22.812 30.812 C-23.875 31.875 -24.938 32.938 -26 34 C-26.66 33.67 -27.32 33.34 -28 33 C-27.334 32.35 -27.334 32.35 -26.655 31.687 C-24.64 29.713 -22.632 27.732 -20.625 25.75 C-19.926 25.068 -19.228 24.386 -18.508 23.684 C-17.838 23.02 -17.167 22.356 -16.477 21.672 C-15.859 21.064 -15.241 20.457 -14.604 19.831 C-12.972 17.969 -12.034 16.236 -11 14 C-9.908 12.496 -8.78 11.018 -7.625 9.562 C-7.008 8.781 -6.39 8 -5.754 7.195 C-5.175 6.471 -4.596 5.746 -4 5 C-3.196 3.989 -2.391 2.979 -1.562 1.938 C-1.047 1.298 -0.531 0.659 0 0 Z " fill="#362221" transform="translate(267,185)"/>
<path d="M0 0 C0 3 0 3 -1.391 4.789 C-2.004 5.395 -2.618 6.001 -3.25 6.625 C-3.853 7.236 -4.457 7.847 -5.078 8.477 C-7.094 10.074 -8.488 10.589 -11 11 C-11.33 10.34 -11.66 9.68 -12 9 C-11.34 9 -10.68 9 -10 9 C-9.67 8.01 -9.34 7.02 -9 6 C-6.934 4.395 -6.934 4.395 -4.438 2.812 C-3.198 2.018 -3.198 2.018 -1.934 1.207 C-1.296 0.809 -0.657 0.41 0 0 Z M-16 12 C-14 13 -14 13 -14 13 Z M-22 17 C-20 18 -20 18 -20 18 Z " fill="#2F1716" transform="translate(238,218)"/>
<path d="M0 0 C3.3 0 6.6 0 10 0 C6.565 2.29 5.015 2.178 1 2 C1.242 2.632 1.485 3.263 1.734 3.914 C9.651 25.046 9.651 25.046 8 30 C7.42 28.316 7.42 28.316 6.828 26.598 C6.303 25.086 5.777 23.574 5.25 22.062 C4.845 20.895 4.845 20.895 4.432 19.704 C2.981 15.58 1.431 11.617 -0.5 7.688 C-0.995 6.471 -1.49 5.254 -2 4 C-1.34 2.68 -0.68 1.36 0 0 Z " fill="#BCBABA" transform="translate(193,58)"/>
<path d="M0 0 C-0.538 7.403 -2.264 13.884 -7.25 19.562 C-7.828 20.037 -8.405 20.511 -9 21 C-10.304 18.391 -9.757 17.627 -8.855 14.902 C-8.591 14.101 -8.326 13.3 -8.053 12.475 C-7.767 11.637 -7.482 10.8 -7.188 9.938 C-6.914 9.096 -6.64 8.255 -6.357 7.389 C-6.089 6.589 -5.82 5.789 -5.543 4.965 C-5.296 4.229 -5.048 3.493 -4.794 2.734 C-3.674 0.287 -2.635 0 0 0 Z " fill="#440404" transform="translate(106,61)"/>
<path d="M0 0 C-2 3 -2 3 -4.383 3.512 C-5.74 3.599 -5.74 3.599 -7.125 3.688 C-8.49 3.786 -8.49 3.786 -9.883 3.887 C-10.931 3.943 -10.931 3.943 -12 4 C-12 3.67 -12 3.34 -12 3 C-24.375 3.495 -24.375 3.495 -37 4 C-30.835 0.917 -24.401 0.809 -17.625 0.438 C-16.881 0.395 -16.138 0.353 -15.371 0.309 C-10.24 0.03 -5.139 -0.093 0 0 Z " fill="#7B6A6A" transform="translate(240,54)"/>
<path d="M0 0 C3.331 3.151 5.681 6.076 8 10 C9.828 12.362 11.691 14.692 13.574 17.012 C15 19 15 19 15 21 C14.34 21 13.68 21 13 21 C11.795 19.671 11.795 19.671 10.469 17.824 C9.988 17.161 9.507 16.498 9.012 15.814 C8.513 15.113 8.014 14.411 7.5 13.688 C6.752 12.652 6.752 12.652 5.988 11.596 C0 3.288 0 3.288 0 0 Z M15 21 C16.98 22.65 18.96 24.3 21 26 C20.67 26.66 20.34 27.32 20 28 C18.291 26.377 16.626 24.707 15 23 C15 22.34 15 21.68 15 21 Z M21 28 C22.98 28.99 22.98 28.99 25 30 C24.01 30 23.02 30 22 30 C21.67 29.34 21.34 28.68 21 28 Z " fill="#C5C3C4" transform="translate(28,182)"/>
<path d="M0 0 C0.33 0 0.66 0 1 0 C0.885 1.917 0.758 3.834 0.625 5.75 C0.555 6.817 0.486 7.885 0.414 8.984 C0.021 11.847 -0.627 13.512 -2 16 C-2.383 17.991 -2.726 19.991 -3 22 C-3.66 22 -4.32 22 -5 22 C-5.33 24.97 -5.66 27.94 -6 31 C-6.99 30.67 -7.98 30.34 -9 30 C-8.734 29.166 -8.469 28.332 -8.195 27.473 C-5.806 19.9 -5.806 19.9 -3.938 12.188 C-3.06 7.921 -1.617 4.042 0 0 Z " fill="#321918" transform="translate(291,124)"/>
<path d="M0 0 C0.33 0 0.66 0 1 0 C1.111 7.025 0.823 13.941 0.188 20.938 C0.101 21.897 0.015 22.857 -0.074 23.846 C-0.72 30.448 -1.75 36.73 -4 43 C-5.301 38.679 -4.724 35.419 -4 31 C-3.67 30.67 -3.34 30.34 -3 30 C-2.784 28.293 -2.629 26.579 -2.5 24.863 C-2.376 23.285 -2.376 23.285 -2.25 21.674 C-2.168 20.565 -2.085 19.455 -2 18.312 C-1.836 16.142 -1.669 13.971 -1.5 11.801 C-1.428 10.833 -1.356 9.865 -1.281 8.868 C-0.988 5.881 -0.525 2.955 0 0 Z " fill="#A8A5A6" transform="translate(299,75)"/>
<path d="M0 0 C2.244 2.749 3.545 5.082 4.535 8.484 C4.787 9.338 5.039 10.191 5.299 11.07 C5.551 11.955 5.803 12.839 6.062 13.75 C6.318 14.619 6.574 15.488 6.838 16.383 C8.35 21.561 9.726 26.758 11 32 C10.34 32 9.68 32 9 32 C9 30.35 9 28.7 9 27 C8.34 27 7.68 27 7 27 C7 26.34 7 25.68 7 25 C6.34 25 5.68 25 5 25 C4.897 24.113 4.794 23.226 4.688 22.312 C4.009 17.503 2.84 12.808 1.719 8.086 C1.093 5.398 0.524 2.709 0 0 Z " fill="#BFBDBE" transform="translate(93,208)"/>
<path d="M0 0 C3.622 3.622 4.88 9.033 5.188 14.062 C5.126 14.702 5.064 15.341 5 16 C0.497 15.489 -1.875 13.825 -5.312 10.938 C-6.196 10.204 -7.079 9.471 -7.988 8.715 C-8.652 8.149 -9.316 7.583 -10 7 C-9.34 6.67 -8.68 6.34 -8 6 C-4.209 7.648 -1.332 9.501 2 12 C1.34 8.04 0.68 4.08 0 0 Z " fill="#B5B3B3" transform="translate(104,242)"/>
<path d="M0 0 C1.613 3.227 -0.117 6.181 -1.188 9.438 C-1.417 10.152 -1.646 10.866 -1.882 11.602 C-3.776 17.454 -5.819 23.248 -8 29 C-8.33 29 -8.66 29 -9 29 C-8.69 23.103 -7.483 17.847 -5.625 12.25 C-5.416 11.612 -5.207 10.975 -4.991 10.318 C-3.709 6.579 -2.159 3.309 0 0 Z " fill="#7A0607" transform="translate(97,76)"/>
<path d="M0 0 C3.65 1.558 6.169 3.811 9.062 6.5 C11.659 8.905 14.051 11.034 17 13 C17 13.66 17 14.32 17 15 C17.866 15.155 17.866 15.155 18.75 15.312 C21.357 16.109 22.974 17.191 25 19 C25 19.66 25 20.32 25 21 C25.99 21 26.98 21 28 21 C28 21.66 28 22.32 28 23 C19.616 21.703 11.923 12.104 5.812 6.5 C4.947 5.708 4.947 5.708 4.065 4.899 C2.689 3.622 1.341 2.314 0 1 C0 0.67 0 0.34 0 0 Z " fill="#8E0809" transform="translate(60,214)"/>
<path d="M0 0 C2.079 3.119 3.014 5.746 4.125 9.312 C4.478 10.422 4.831 11.532 5.195 12.676 C5.982 15.925 6.151 18.673 6 22 C1.407 20.514 -1.436 18.15 -5 15 C-4.34 14.67 -3.68 14.34 -3 14 C-0.525 15.114 1.679 16.582 4 18 C3.711 17.036 3.422 16.072 3.125 15.078 C2.568 13.183 2.568 13.183 2 11.25 C1.629 9.997 1.257 8.744 0.875 7.453 C0 4 0 4 0 0 Z " fill="#6C0405" transform="translate(95,225)"/>
<path d="M0 0 C1.979 -0.027 3.958 -0.046 5.938 -0.062 C7.04 -0.074 8.142 -0.086 9.277 -0.098 C12 0 12 0 13 1 C14.846 1.395 16.702 1.742 18.562 2.062 C20.08 2.327 20.08 2.327 21.629 2.598 C22.411 2.73 23.194 2.863 24 3 C24 3.33 24 3.66 24 4 C12.615 3.505 12.615 3.505 1 3 C0.67 2.01 0.34 1.02 0 0 Z " fill="#300F0E" transform="translate(15,48)"/>
<path d="M0 0 C1.371 4.114 0.181 7.353 -0.812 11.438 C-2.485 18.592 -3.916 25.729 -5 33 C-5.33 33 -5.66 33 -6 33 C-6.151 26.804 -5.605 20.937 -4.688 14.812 C-4.57 13.937 -4.452 13.061 -4.33 12.158 C-3.637 7.47 -2.886 3.905 0 0 Z " fill="#CECDCE" transform="translate(92,104)"/>
<path d="M0 0 C4.098 7.263 4.545 15.963 3 24 C2.67 24 2.34 24 2 24 C1.867 23.085 1.734 22.17 1.598 21.227 C1.421 20.038 1.244 18.85 1.062 17.625 C0.888 16.442 0.714 15.258 0.535 14.039 C0.165 11.093 0.165 11.093 -1 9 C-1.233 2.467 -1.233 2.467 0 0 Z " fill="#391514" transform="translate(211,105)"/>
<path d="M0 0 C0.66 0.33 1.32 0.66 2 1 C-1.061 4.848 -3.94 8.147 -8 11 C-8.66 11 -9.32 11 -10 11 C-10 11.66 -10 12.32 -10 13 C-11.68 14.324 -11.68 14.324 -13.875 15.688 C-14.594 16.145 -15.314 16.603 -16.055 17.074 C-17.018 17.532 -17.018 17.532 -18 18 C-18.66 17.67 -19.32 17.34 -20 17 C-19.371 16.504 -18.742 16.007 -18.094 15.496 C-8.748 8.091 -8.748 8.091 0 0 Z " fill="#B8B6B7" transform="translate(239,219)"/>
<path d="M0 0 C3 1 3 1 4.062 2.938 C7.694 14.799 7.694 14.799 6 20 C3.115 13.417 1.148 7.099 0 0 Z " fill="#341615" transform="translate(91,210)"/>
<path d="M0 0 C6.404 0.9 10.901 7.335 14.695 12.152 C15.834 13.743 16.923 15.367 18 17 C13.704 15.35 10.995 12.183 7.875 8.938 C4.304 4.996 4.304 4.996 0 2 C0 1.34 0 0.68 0 0 Z " fill="#433130" transform="translate(49,208)"/>
<path d="M0 0 C3.577 3.047 5.456 6.464 7.629 10.539 C9.846 14.518 12.42 18.25 15 22 C14.67 22.66 14.34 23.32 14 24 C13.529 23.301 13.059 22.603 12.574 21.883 C11.952 20.973 11.329 20.063 10.688 19.125 C9.765 17.768 9.765 17.768 8.824 16.383 C7.051 13.8 7.051 13.8 4 12 C2.832 9.688 2.832 9.688 1.812 7 C1.468 6.113 1.124 5.226 0.77 4.312 C0 2 0 2 0 0 Z " fill="#96090A" transform="translate(26,169)"/>
<path d="M0 0 C0.66 1.32 1.32 2.64 2 4 C2.66 4 3.32 4 4 4 C4.535 5.558 5.053 7.121 5.562 8.688 C5.853 9.558 6.143 10.428 6.441 11.324 C7.051 14.246 6.777 16.144 6 19 C1.047 14.047 0.448 6.674 0 0 Z " fill="#7C7171" transform="translate(12,144)"/>
<path d="M0 0 C0.33 0.99 0.66 1.98 1 3 C-0.746 4.941 -2.496 6.878 -4.25 8.812 C-4.741 9.36 -5.232 9.907 -5.738 10.471 C-8.317 13.308 -10.806 15.833 -14 18 C-12.582 13.488 -10.389 11.239 -7 8 C-4.63 5.365 -2.312 2.686 0 0 Z M-17 19 C-16.34 19.33 -15.68 19.66 -15 20 C-16.485 20.99 -16.485 20.99 -18 22 C-17.67 21.01 -17.34 20.02 -17 19 Z " fill="#95090A" transform="translate(260,190)"/>
<path d="M0 0 C0.33 0 0.66 0 1 0 C1.507 2.061 2.005 4.124 2.5 6.188 C2.778 7.336 3.057 8.485 3.344 9.668 C3.915 12.568 4.133 15.061 4 18 C3.01 18 2.02 18 1 18 C-1.009 11.618 -1 6.594 0 0 Z " fill="#3E1918" transform="translate(89,192)"/>
<path d="M0 0 C0.33 0 0.66 0 1 0 C1 5.28 1 10.56 1 16 C-0.98 16.99 -0.98 16.99 -3 18 C-2.67 13.71 -2.34 9.42 -2 5 C-1.34 5 -0.68 5 0 5 C0 3.35 0 1.7 0 0 Z " fill="#3A1716" transform="translate(215,170)"/>
<path d="M0 0 C0.99 0.495 0.99 0.495 2 1 C2.649 3.388 3.171 5.699 3.625 8.125 C3.759 8.777 3.893 9.43 4.031 10.102 C4.877 14.454 5.126 18.574 5 23 C1.056 19.154 1.23 14.438 0.812 9.25 C0.731 8.362 0.649 7.474 0.564 6.559 C0.365 4.373 0.177 2.187 0 0 Z " fill="#7A0607" transform="translate(6,102)"/>
<path d="M0 0 C2 3 2 3 1.679 4.949 C1.455 5.626 1.231 6.303 1 7 C0.714 8.261 0.428 9.521 0.133 10.82 C-0.203 12.255 -0.539 13.69 -0.875 15.125 C-1.117 16.217 -1.117 16.217 -1.363 17.332 C-2.661 22.774 -2.661 22.774 -6 25 C-5.67 22.69 -5.34 20.38 -5 18 C-4.34 18 -3.68 18 -3 18 C-2.951 17.287 -2.902 16.574 -2.852 15.84 C-2.419 10.295 -1.76 5.279 0 0 Z " fill="#372423" transform="translate(209,198)"/>
<path d="M0 0 C1.202 3.531 0.795 6.129 0.062 9.75 C-0.132 10.735 -0.327 11.72 -0.527 12.734 C-0.683 13.482 -0.839 14.23 -1 15 C-0.34 15 0.32 15 1 15 C0.67 17.31 0.34 19.62 0 22 C-0.66 21.34 -1.32 20.68 -2 20 C-2.99 23.465 -2.99 23.465 -4 27 C-5.33 23.01 -4.189 21.004 -3 17 C-2.601 14.402 -2.247 11.797 -1.938 9.188 C-1.104 2.208 -1.104 2.208 0 0 Z " fill="#560202" transform="translate(293,105)"/>
<path d="M0 0 C5.511 2.672 10.456 7.398 12.891 13.078 C13.438 15 13.438 15 14 18 C8.674 13.007 2.33 6.989 0 0 Z " fill="#391D1C" transform="translate(33,188)"/>
<path d="M0 0 C2.861 4.291 2.513 8.395 1.547 13.301 C1.072 15.211 0.541 17.107 0 19 C-0.66 19 -1.32 19 -2 19 C-1.858 16.771 -1.711 14.541 -1.562 12.312 C-1.481 11.071 -1.4 9.83 -1.316 8.551 C-1.055 5.618 -0.652 2.866 0 0 Z " fill="#361413" transform="translate(85,118)"/>
<path d="M0 0 C1.572 3.143 0.117 5.365 -0.938 8.625 C-1.318 9.814 -1.698 11.002 -2.09 12.227 C-2.39 13.142 -2.691 14.057 -3 15 C-1.68 14.01 -0.36 13.02 1 12 C1.66 12.33 2.32 12.66 3 13 C1.88 14.006 0.754 15.005 -0.375 16 C-1.001 16.557 -1.628 17.114 -2.273 17.688 C-4 19 -4 19 -6 19 C-5.275 14.984 -4.2 11.149 -3 7.25 C-2.649 6.1 -2.299 4.95 -1.938 3.766 C-1 1 -1 1 0 0 Z " fill="#8E0809" transform="translate(205,228)"/>
<path d="M0 0 C0.99 0.495 0.99 0.495 2 1 C2 1.66 2 2.32 2 3 C2.66 3 3.32 3 4 3 C6.86 8.339 8.731 13.079 10 19 C6.226 16.484 5.103 13.501 3.312 9.5 C2.992 8.81 2.672 8.121 2.342 7.41 C0 2.287 0 2.287 0 0 Z " fill="#A8A5A5" transform="translate(18,163)"/>
<path d="M0 0 C1.152 0.009 2.305 0.018 3.492 0.027 C4.361 0.039 5.23 0.051 6.125 0.062 C1.172 3.364 -3.332 3.18 -9.188 3.125 C-10.442 3.116 -11.696 3.107 -12.988 3.098 C-13.941 3.086 -14.894 3.074 -15.875 3.062 C-10.9 -0.254 -5.85 -0.06 0 0 Z " fill="#750606" transform="translate(281.875,49.9375)"/>
<path d="M0 0 C7.425 0.99 7.425 0.99 15 2 C13.857 8.858 13.857 8.858 12.562 12.312 C12.316 12.989 12.07 13.666 11.816 14.363 C11 16 11 16 9 17 C9.479 15.396 9.958 13.792 10.438 12.188 C10.704 11.294 10.971 10.401 11.246 9.48 C11.804 7.645 12.393 5.82 13 4 C12.145 3.879 11.291 3.758 10.41 3.633 C8.753 3.381 8.753 3.381 7.062 3.125 C5.409 2.881 5.409 2.881 3.723 2.633 C2.824 2.424 1.926 2.215 1 2 C0.67 1.34 0.34 0.68 0 0 Z " fill="#8F0809" transform="translate(87,60)"/>
<path d="M0 0 C-0.99 0 -1.98 0 -3 0 C-3 0.66 -3 1.32 -3 2 C-6.674 2.853 -10.045 3.108 -13.812 3.062 C-15.276 3.049 -15.276 3.049 -16.77 3.035 C-17.874 3.018 -17.874 3.018 -19 3 C-18 1 -18 1 -15 0 C-13.193 -0.248 -11.379 -0.452 -9.562 -0.625 C-8.615 -0.72 -7.668 -0.816 -6.691 -0.914 C-4.196 -0.994 -2.363 -0.749 0 0 Z " fill="#370504" transform="translate(258,53)"/>
<path d="M0 0 C2.062 0.438 2.062 0.438 4 1 C3.794 1.742 3.588 2.485 3.375 3.25 C2.742 5.926 2.742 5.926 3.938 7.812 C5.248 10.51 5.412 12.768 5.625 15.75 C5.7 16.735 5.775 17.72 5.852 18.734 C5.901 19.482 5.95 20.23 6 21 C4.16 18.24 3.394 16.379 2.5 13.25 C2.246 12.371 1.992 11.492 1.73 10.586 C1.489 9.733 1.248 8.879 1 8 C0.79 7.27 0.58 6.541 0.363 5.789 C-0.096 4.194 -0.549 2.597 -1 1 C-0.67 0.67 -0.34 0.34 0 0 Z " fill="#7C0607" transform="translate(198,62)"/>
<path d="M0 0 C6.183 2.919 12.016 6.66 15 13 C8.817 10.081 2.984 6.34 0 0 Z " fill="#9E9999" transform="translate(79,235)"/>
<path d="M0 0 C0.66 0 1.32 0 2 0 C1.575 2.086 1.134 4.169 0.688 6.25 C0.444 7.41 0.2 8.57 -0.051 9.766 C-0.957 12.854 -1.893 14.615 -4 17 C-4.506 10.014 -4.033 5.798 0 0 Z " fill="#706160" transform="translate(282,155)"/>
<path d="M0 0 C0.66 0 1.32 0 2 0 C2.193 0.592 2.387 1.183 2.586 1.793 C4.225 6.801 4.225 6.801 6.188 11.688 C7.191 14.544 7.14 16.996 7 20 C4.166 17.166 3.502 13.748 2.375 10 C2.146 9.263 1.916 8.525 1.68 7.766 C0 2.287 0 2.287 0 0 Z " fill="#BBB9B9" transform="translate(202,89)"/>
<path d="M0 0 C0.66 0 1.32 0 2 0 C2.054 2.417 2.094 4.833 2.125 7.25 C2.142 7.932 2.159 8.614 2.176 9.316 C2.213 13.162 1.861 15.664 0 19 C-0.194 16.021 -0.38 13.042 -0.562 10.062 C-0.619 9.212 -0.675 8.362 -0.732 7.486 C-0.805 6.273 -0.805 6.273 -0.879 5.035 C-0.926 4.286 -0.973 3.537 -1.022 2.766 C-1 1 -1 1 0 0 Z " fill="#230504" transform="translate(298,45)"/>
<path d="M0 0 C0.33 0.99 0.66 1.98 1 3 C-7.415 3.495 -7.415 3.495 -16 4 C-14 1 -14 1 -12.012 0.488 C-10.861 0.401 -10.861 0.401 -9.688 0.312 C-8.888 0.248 -8.089 0.184 -7.266 0.117 C-4.838 -0.008 -2.43 -0.078 0 0 Z " fill="#381C1B" transform="translate(287,47)"/>
<path d="M0 0 C0.99 0.33 1.98 0.66 3 1 C1.758 2.155 0.506 3.298 -0.75 4.438 C-1.794 5.395 -1.794 5.395 -2.859 6.371 C-4.988 7.991 -6.39 8.583 -9 9 C-9 8.34 -9 7.68 -9 7 C-7.285 5.527 -7.285 5.527 -5.062 3.938 C-2.42 2.101 -2.42 2.101 0 0 Z M-11 9 C-10.34 9 -9.68 9 -9 9 C-9.66 10.32 -10.32 11.64 -11 13 C-11.99 13 -12.98 13 -14 13 C-12.625 11 -12.625 11 -11 9 Z " fill="#790607" transform="translate(219,230)"/>
<path d="M0 0 C0.66 0.66 1.32 1.32 2 2 C1.256 2.545 1.256 2.545 0.496 3.102 C-4.176 6.559 -8.626 10.173 -13 14 C-13.66 13.67 -14.32 13.34 -15 13 C-13.065 11.206 -11.127 9.415 -9.188 7.625 C-8.64 7.117 -8.093 6.609 -7.529 6.086 C-5.1 3.848 -2.754 1.836 0 0 Z " fill="#341F1E" transform="translate(225,229)"/>
<path d="M0 0 C1.525 3.05 0.483 5.288 -0.25 8.562 C-0.629 10.328 -0.629 10.328 -1.016 12.129 C-1.34 13.076 -1.665 14.024 -2 15 C-2.99 15.33 -3.98 15.66 -5 16 C-4.549 13.894 -4.089 11.79 -3.625 9.688 C-3.37 8.516 -3.115 7.344 -2.852 6.137 C-2 3 -2 3 0 0 Z " fill="#341E1D" transform="translate(94,91)"/>
<path d="M0 0 C0.66 0.33 1.32 0.66 2 1 C-0.97 3.475 -0.97 3.475 -4 6 C-2.848 3.532 -1.952 1.952 0 0 Z M-6 6 C-5.34 6.33 -4.68 6.66 -4 7 C-5.281 8.707 -6.618 10.374 -8 12 C-8.66 12 -9.32 12 -10 12 C-10 12.66 -10 13.32 -10 14 C-10.66 13.67 -11.32 13.34 -12 13 C-10.02 10.69 -8.04 8.38 -6 6 Z " fill="#DCDCDD" transform="translate(255,204)"/>
<path d="M0 0 C0.33 0.66 0.66 1.32 1 2 C0.095 3.466 -0.824 4.922 -1.75 6.375 C-2.26 7.187 -2.771 7.999 -3.297 8.836 C-5.067 11.086 -6.369 11.959 -9 13 C-7.48 7.595 -3.726 4.015 0 0 Z " fill="#760606" transform="translate(270,177)"/>
<path d="M0 0 C0 3 0 3 -1.531 4.605 C-2.181 5.128 -2.831 5.65 -3.5 6.188 C-4.15 6.717 -4.799 7.247 -5.469 7.793 C-5.974 8.191 -6.479 8.59 -7 9 C-7.33 8.34 -7.66 7.68 -8 7 C-7.34 7 -6.68 7 -6 7 C-5.67 6.01 -5.34 5.02 -5 4 C-3.377 2.614 -1.713 1.274 0 0 Z M-12 10 C-10 11 -10 11 -10 11 Z M-18 15 C-16 16 -16 16 -16 16 Z " fill="#3C0202" transform="translate(234,220)"/>
<path d="M0 0 C0.33 0 0.66 0 1 0 C1.39 2.268 1.761 4.54 2.125 6.812 C2.334 8.077 2.543 9.342 2.758 10.645 C3 14 3 14 1 17 C0.639 14.355 0.286 11.709 -0.062 9.062 C-0.166 8.308 -0.27 7.553 -0.377 6.775 C-0.627 4.855 -0.818 2.928 -1 1 C-0.67 0.67 -0.34 0.34 0 0 Z " fill="#290F0E" transform="translate(6,110)"/>
<path d="M0 0 C2 3 2 3 1.645 5.34 C1.37 6.197 1.095 7.054 0.812 7.938 C0.551 8.792 0.289 9.647 0.02 10.527 C-1.021 13.05 -2.272 14.902 -4 17 C-4 15.35 -4 13.7 -4 12 C-3.34 12 -2.68 12 -2 12 C-1.939 11.301 -1.879 10.603 -1.816 9.883 C-1.691 8.518 -1.691 8.518 -1.562 7.125 C-1.481 6.22 -1.4 5.315 -1.316 4.383 C-1 2 -1 2 0 0 Z " fill="#311A19" transform="translate(199,233)"/>
<path d="M0 0 C0.66 0 1.32 0 2 0 C2 0.66 2 1.32 2 2 C2.66 2 3.32 2 4 2 C4.196 3.603 4.381 5.208 4.562 6.812 C4.667 7.706 4.771 8.599 4.879 9.52 C5 12 5 12 4 15 C3.01 14.67 2.02 14.34 1 14 C1.66 14 2.32 14 3 14 C2.01 9.38 1.02 4.76 0 0 Z " fill="#310302" transform="translate(98,233)"/>
<path d="M0 0 C1.32 0.33 2.64 0.66 4 1 C3.719 2.648 3.425 4.293 3.125 5.938 C2.963 6.854 2.8 7.771 2.633 8.715 C2.424 9.469 2.215 10.223 2 11 C1.01 11.495 1.01 11.495 0 12 C0 8.04 0 4.08 0 0 Z " fill="#220504" transform="translate(0,46)"/>
<path d="M0 0 C0.33 0.66 0.66 1.32 1 2 C1.99 2.33 2.98 2.66 4 3 C2.35 4.98 0.7 6.96 -1 9 C-1.99 8.67 -2.98 8.34 -4 8 C-2.68 5.36 -1.36 2.72 0 0 Z " fill="#201C1C" transform="translate(196,247)"/>
<path d="M0 0 C1.168 3.505 0.752 4.664 -0.312 8.125 C-0.577 9.014 -0.841 9.904 -1.113 10.82 C-2 13 -2 13 -4 14 C-3.67 10.7 -3.34 7.4 -3 4 C-2.34 4 -1.68 4 -1 4 C-0.67 2.68 -0.34 1.36 0 0 Z " fill="#2C1817" transform="translate(204,222)"/>
<path d="M0 0 C3 1 3 1 4.168 3.066 C4.504 3.89 4.841 4.714 5.188 5.562 C5.532 6.389 5.876 7.215 6.23 8.066 C6.484 8.704 6.738 9.343 7 10 C6.01 10 5.02 10 4 10 C0 3.375 0 3.375 0 0 Z " fill="#391F1E" transform="translate(26,175)"/>
<path d="M0 0 C1 3 1 3 0.109 5.191 C-0.339 5.974 -0.788 6.756 -1.25 7.562 C-1.688 8.348 -2.127 9.133 -2.578 9.941 C-4 12 -4 12 -7 14 C-5.236 9.028 -2.606 4.566 0 0 Z " fill="#92080A" transform="translate(275,165)"/>
<path d="M0 0 C2.479 2.201 3.612 4.064 4.688 7.188 C4.939 7.903 5.19 8.618 5.449 9.355 C5.631 9.898 5.813 10.441 6 11 C3 10 3 10 1.832 7.934 C1.496 7.11 1.159 6.286 0.812 5.438 C0.468 4.611 0.124 3.785 -0.23 2.934 C-0.484 2.296 -0.738 1.657 -1 1 C-0.67 0.67 -0.34 0.34 0 0 Z " fill="#3B0303" transform="translate(22,164)"/>
<path d="M0 0 C1.285 3.855 0.405 5.403 -0.938 9.188 C-1.318 10.274 -1.698 11.361 -2.09 12.48 C-2.39 13.312 -2.691 14.143 -3 15 C-3.33 15 -3.66 15 -4 15 C-3.912 13.249 -3.804 11.499 -3.688 9.75 C-3.629 8.775 -3.571 7.801 -3.512 6.797 C-2.954 3.747 -2.036 2.293 0 0 Z " fill="#C3C2C2" transform="translate(97,89)"/>
<path d="M0 0 C4.672 2.825 7.66 5.678 11 10 C10.67 10.66 10.34 11.32 10 12 C8.327 10.381 6.662 8.755 5 7.125 C4.072 6.22 3.144 5.315 2.188 4.383 C0 2 0 2 0 0 Z " fill="#96090A" transform="translate(47,200)"/>
<path d="M0 0 C2.024 3.035 2.321 4.194 2.625 7.688 C2.7 8.496 2.775 9.304 2.852 10.137 C2.901 10.752 2.95 11.366 3 12 C-0.417 8.996 -0.671 6.517 -1 2 C-0.67 1.34 -0.34 0.68 0 0 Z " fill="#380404" transform="translate(9,122)"/>
<path d="M0 0 C2.062 -0.027 4.125 -0.046 6.188 -0.062 C7.336 -0.074 8.485 -0.086 9.668 -0.098 C12.593 -0.012 15.163 0.322 18 1 C18 1.66 18 2.32 18 3 C15.562 2.886 13.125 2.759 10.688 2.625 C9.652 2.579 9.652 2.579 8.596 2.531 C4.93 2.319 3.121 2.081 0 0 Z " fill="#410303" transform="translate(69,57)"/>
<path d="M0 0 C2 3.75 2 3.75 2 6 C2.66 6 3.32 6 4 6 C4.66 8.64 5.32 11.28 6 14 C5.34 14 4.68 14 4 14 C4 12.35 4 10.7 4 9 C3.34 9 2.68 9 2 9 C2 8.34 2 7.68 2 7 C1.34 7 0.68 7 0 7 C-1.044 3.867 -0.934 3.01 0 0 Z " fill="#8E8686" transform="translate(98,226)"/>
<path d="M0 0 C3.367 1.393 4.986 2.979 7 6 C5.188 5.812 5.188 5.812 3 5 C1.25 2.438 1.25 2.438 0 0 Z " fill="#3A0505" transform="translate(45,202)"/>
<path d="M0 0 C1.65 0 3.3 0 5 0 C6.188 1.562 6.188 1.562 7 4 C5.625 7.75 5.625 7.75 4 11 C3.67 11 3.34 11 3 11 C3.33 7.7 3.66 4.4 4 1 C2.68 0.67 1.36 0.34 0 0 Z " fill="#C4C2C3" transform="translate(102,58)"/>
<path d="M0 0 C2.098 2.098 2.968 3.756 4.188 6.438 C4.552 7.22 4.917 8.002 5.293 8.809 C6 11 6 11 5 14 C4.153 12.612 3.323 11.214 2.5 9.812 C2.036 9.035 1.572 8.258 1.094 7.457 C-0.107 4.759 -0.207 2.919 0 0 Z " fill="#8C0809" transform="translate(20,155)"/>
<path d="M0 0 C2.912 3.288 4.497 5.599 5 10 C3.062 9.5 3.062 9.5 1 8 C0.312 5.303 0.181 2.798 0 0 Z " fill="#3A1D1D" transform="translate(9,131)"/>
<path d="M0 0 C6.702 1.936 6.702 1.936 9 5 C9 5.66 9 6.32 9 7 C4.581 5.65 2.657 3.739 0 0 Z " fill="#4A3939" transform="translate(68,226)"/>
<path d="M0 0 C0.66 0 1.32 0 2 0 C2.223 1.435 2.428 2.873 2.625 4.312 C2.741 5.113 2.857 5.914 2.977 6.738 C3 9 3 9 1 12 C0.67 8.04 0.34 4.08 0 0 Z " fill="#372423" transform="translate(212,117)"/>
<path d="M0 0 C-6.75 4 -6.75 4 -9 4 C-9 2.68 -9 1.36 -9 0 C-3.375 -1.125 -3.375 -1.125 0 0 Z " fill="#240D0D" transform="translate(203,60)"/>
<path d="M0 0 C0.33 0.99 0.66 1.98 1 3 C0.074 4.824 0.074 4.824 -1.312 6.688 C-1.762 7.31 -2.212 7.933 -2.676 8.574 C-3.113 9.045 -3.55 9.515 -4 10 C-4.66 10 -5.32 10 -6 10 C-4.63 6.005 -2.743 3.2 0 0 Z " fill="#B8B6B7" transform="translate(271,182)"/>
<path d="M0 0 C3.938 3.323 3.938 3.323 4.25 6.75 C4.168 7.493 4.085 8.235 4 9 C1.497 6.062 0.531 3.821 0 0 Z M4 9 C4.66 10.32 5.32 11.64 6 13 C5.34 12.67 4.68 12.34 4 12 C4 11.01 4 10.02 4 9 Z " fill="#7E0607" transform="translate(26,169)"/>
<path d="M0 0 C0.33 0.99 0.66 1.98 1 3 C-0.485 3.99 -0.485 3.99 -2 5 C-1.125 1.125 -1.125 1.125 0 0 Z M-3 5 C-3 5.99 -3 6.98 -3 8 C-5 9.688 -5 9.688 -7 11 C-5.848 8.532 -4.952 6.952 -3 5 Z " fill="#7A0707" transform="translate(260,190)"/>
<path d="M0 0 C2.062 1.75 2.062 1.75 4 4 C3.75 6.25 3.75 6.25 3 8 C1.5 6.812 1.5 6.812 0 5 C-0.188 2.312 -0.188 2.312 0 0 Z " fill="#3E0605" transform="translate(32,182)"/>
<path d="M0 0 C0.66 0 1.32 0 2 0 C1.414 6.152 1.414 6.152 1 8 C0.01 8.495 0.01 8.495 -1 9 C-2.255 5.234 -1.371 3.628 0 0 Z " fill="#332221" transform="translate(104,61)"/>
<path d="M0 0 C0 0.99 0 1.98 0 3 C-3.3 2.34 -6.6 1.68 -10 1 C-10 0.67 -10 0.34 -10 0 C-6.337 -0.749 -3.576 -1.238 0 0 Z " fill="#483332" transform="translate(298,46)"/>
<path d="M0 0 C1.875 0.625 1.875 0.625 4 2 C5.25 5.125 5.25 5.125 6 8 C1.125 3.375 1.125 3.375 0 0 Z " fill="#3D2C2B" transform="translate(41,198)"/>
<path d="M0 0 C1.485 0.99 1.485 0.99 3 2 C3 3.32 3 4.64 3 6 C1.68 5.34 0.36 4.68 -1 4 C-0.67 2.68 -0.34 1.36 0 0 Z " fill="#070302" transform="translate(103,248)"/>
<path d="M0 0 C0.99 0.33 1.98 0.66 3 1 C1.71 2.376 0.373 3.708 -1 5 C-1.66 5 -2.32 5 -3 5 C-1.125 1.125 -1.125 1.125 0 0 Z " fill="#7D0607" transform="translate(219,230)"/>
<path d="M0 0 C2.562 2.25 2.562 2.25 5 5 C4.812 7.312 4.812 7.312 4 9 C0 3.375 0 3.375 0 0 Z " fill="#CECDCE" transform="translate(28,182)"/>
<path d="M0 0 C1.044 3.133 0.934 3.99 0 7 C-0.66 7 -1.32 7 -2 7 C-2.33 7.99 -2.66 8.98 -3 10 C-2.25 3.375 -2.25 3.375 0 0 Z " fill="#989494" transform="translate(92,104)"/>
<path d="M0 0 C2.375 0.25 2.375 0.25 5 1 C6.312 3.062 6.312 3.062 7 5 C3.347 3.75 2.219 3.329 0 0 Z " fill="#4C3C3C" transform="translate(91,244)"/>
<path d="M0 0 C0.99 0.33 1.98 0.66 3 1 C1.515 1.99 1.515 1.99 0 3 C0 2.01 0 1.02 0 0 Z M-2 4 C-2 4.99 -2 5.98 -2 7 C-2.99 7 -3.98 7 -5 7 C-4.01 6.01 -3.02 5.02 -2 4 Z " fill="#3E1818" transform="translate(211,238)"/>
<path d="M0 0 C0.66 0.99 1.32 1.98 2 3 C1.125 5.688 1.125 5.688 0 8 C-0.33 8 -0.66 8 -1 8 C-1.125 2.25 -1.125 2.25 0 0 Z " fill="#463434" transform="translate(199,233)"/>
<path d="M0 0 C0.66 0 1.32 0 2 0 C2 0.66 2 1.32 2 2 C2.66 2 3.32 2 4 2 C4 3.65 4 5.3 4 7 C3.34 7 2.68 7 2 7 C1.34 4.69 0.68 2.38 0 0 Z " fill="#392625" transform="translate(98,233)"/>
<path d="M0 0 C0.99 0 1.98 0 3 0 C2.398 2.02 1.727 4.021 1 6 C0.01 6.495 0.01 6.495 -1 7 C-0.67 4.69 -0.34 2.38 0 0 Z " fill="#341F1E" transform="translate(204,216)"/>
<path d="M0 0 C0.66 0.33 1.32 0.66 2 1 C2 2.32 2 3.64 2 5 C-0.475 4.01 -0.475 4.01 -3 3 C-2.01 2.01 -1.02 1.02 0 0 Z " fill="#760607" transform="translate(99,242)"/>
<path d="M0 0 C0.99 0.33 1.98 0.66 3 1 C2.67 2.98 2.34 4.96 2 7 C0.539 4.353 0 3.106 0 0 Z " fill="#2C0505" transform="translate(91,210)"/>
<path d="M0 0 C0.33 0 0.66 0 1 0 C1.33 2.97 1.66 5.94 2 9 C1.34 9 0.68 9 0 9 C-1.108 5.675 -0.845 3.378 0 0 Z " fill="#3E2B2A" transform="translate(89,192)"/>
<path d="M0 0 C0.33 0 0.66 0 1 0 C1.688 2.812 1.688 2.812 2 6 C1.01 6.99 0.02 7.98 -1 9 C-0.67 6.03 -0.34 3.06 0 0 Z " fill="#4A3C3C" transform="translate(211,188)"/>
<path d="M0 0 C0.66 0 1.32 0 2 0 C2 2.31 2 4.62 2 7 C0.438 5.188 0.438 5.188 -1 3 C-0.67 2.01 -0.34 1.02 0 0 Z " fill="#070505" transform="translate(298,45)"/>
<path d="M0 0 C0.33 0.66 0.66 1.32 1 2 C-0.438 4.625 -0.438 4.625 -2 7 C-2.688 5.188 -2.688 5.188 -3 3 C-1.562 1.25 -1.562 1.25 0 0 Z " fill="#830708" transform="translate(279,158)"/>
<path d="M0 0 C0.66 0 1.32 0 2 0 C1.67 2.31 1.34 4.62 1 7 C-1 4 -1 4 -0.625 1.812 C-0.419 1.214 -0.212 0.616 0 0 Z " fill="#4A3B3B" transform="translate(292,120)"/>
<path d="M0 0 C0.99 0.33 1.98 0.66 3 1 C2.67 2.98 2.34 4.96 2 7 C0.539 4.353 0 3.106 0 0 Z " fill="#483938" transform="translate(6,120)"/>
<path d="M0 0 C0 3 0 3 -1.5 4.688 C-1.995 5.121 -2.49 5.554 -3 6 C-3 3 -3 3 -1.5 1.312 C-0.757 0.663 -0.757 0.663 0 0 Z " fill="#423231" transform="translate(271,180)"/>
<path d="M0 0 C1.32 1.32 2.64 2.64 4 4 C3.34 4.66 2.68 5.32 2 6 C0 3 0 3 0 0 Z " fill="#36201F" transform="translate(29,180)"/>
<path d="M0 0 C0.33 1.32 0.66 2.64 1 4 C-0.98 4.99 -0.98 4.99 -3 6 C-1.125 1.125 -1.125 1.125 0 0 Z " fill="#2D0606" transform="translate(99,76)"/>
<path d="M0 0 C1.32 0.33 2.64 0.66 4 1 C2.68 2.32 1.36 3.64 0 5 C0 3.35 0 1.7 0 0 Z " fill="#000000" transform="translate(0,46)"/>
<path d="M0 0 C0.625 1.875 0.625 1.875 1 4 C0.34 4.66 -0.32 5.32 -1 6 C-1.33 5.01 -1.66 4.02 -2 3 C-1.34 2.01 -0.68 1.02 0 0 Z " fill="#41302F" transform="translate(101,72)"/>
<path d="M0 0 C0.66 0.33 1.32 0.66 2 1 C1.67 1.99 1.34 2.98 1 4 C0.34 4 -0.32 4 -1 4 C-0.67 2.68 -0.34 1.36 0 0 Z " fill="#330E0E" transform="translate(196,63)"/>
<path d="M0 0 C0.33 0.99 0.66 1.98 1 3 C0.01 3.33 -0.98 3.66 -2 4 C-1.34 2.68 -0.68 1.36 0 0 Z " fill="#890809" transform="translate(260,190)"/>
<path d="M0 0 C1.485 0.99 1.485 0.99 3 2 C3 2.66 3 3.32 3 4 C2.01 3.67 1.02 3.34 0 3 C0 2.01 0 1.02 0 0 Z " fill="#2D0D0D" transform="translate(18,158)"/>
<path d="M0 0 C0.99 0.33 1.98 0.66 3 1 C2.01 2.485 2.01 2.485 1 4 C0.67 2.68 0.34 1.36 0 0 Z " fill="#4B3D3C" transform="translate(198,74)"/>
</svg>