
<!-- Generator: visioncortex VTracer 0.6.4 -->
<svg version="1.1" xmlns="http://www.w3.org/2000/svg" viewBox="0 0 500 500" preserveAspectRatio="xMidYMid meet">
<path d="M0 0 C4.542 3.488 9.849 7.848 11.852 13.332 C11.993 16.689 11.074 18.881 9.312 21.688 C8.549 22.451 7.786 23.214 7 24 C5.917 25.114 5.917 25.114 4.812 26.25 C3.884 27.157 2.956 28.065 2 29 C-2.945 33.852 -7.726 38.748 -12.23 44.012 C-14.821 46.922 -17.602 49.625 -20.398 52.336 C-22.086 53.924 -22.086 53.924 -23 56 C-23.66 56 -24.32 56 -25 56 C-25.34 56.804 -25.34 56.804 -25.688 57.625 C-27.456 60.825 -29.537 63.29 -32 66 C-32.66 66 -33.32 66 -34 66 C-34 66.66 -34 67.32 -34 68 C-34.66 68 -35.32 68 -36 68 C-36 68.66 -36 69.32 -36 70 C-36.66 70 -37.32 70 -38 70 C-38 70.66 -38 71.32 -38 72 C-41.558 73.779 -45.122 73.62 -49 73 C-51.545 71.784 -53.802 70.322 -56.164 68.781 C-67.255 61.815 -79.334 57.972 -92 55 C-93.048 54.752 -94.096 54.505 -95.176 54.25 C-121.173 49.072 -146.922 56.176 -169.082 69.91 C-175.827 74.61 -185.255 81.51 -189 89 C-189.66 89 -190.32 89 -191 89 C-191.206 89.66 -191.412 90.32 -191.625 91 C-192.823 93.614 -193.834 95.089 -195.625 97.25 C-212.065 118.594 -217.274 149.126 -214.312 175.25 C-211.615 193.205 -205.979 210.985 -194 225 C-193.535 225.584 -193.069 226.168 -192.59 226.77 C-190.182 229.838 -190.182 229.838 -187 232 C-187 232.66 -187 233.32 -187 234 C-186.27 234.271 -185.541 234.541 -184.789 234.82 C-182.092 235.961 -179.831 237.29 -177.375 238.875 C-154.015 253.015 -119.552 253.02 -93.322 247.429 C-72.164 242.225 -54.035 232.169 -42.25 213.312 C-32.708 196.277 -32.142 176.931 -36.93 158.402 C-39.471 149.928 -43.077 143.089 -48.109 135.828 C-50 133 -50 133 -51 130 C-51.66 130 -52.32 130 -53 130 C-53.681 129.299 -54.361 128.597 -55.062 127.875 C-64.33 118.366 -75.858 113.809 -88.941 113.515 C-90.517 113.508 -90.517 113.508 -92.125 113.5 C-93.126 113.494 -94.127 113.487 -95.158 113.481 C-105.069 113.649 -113.689 115.965 -122.438 120.562 C-123.591 121.162 -124.745 121.761 -125.934 122.379 C-126.946 122.914 -127.957 123.449 -129 124 C-130.331 124.671 -131.663 125.34 -133 126 C-133 126.66 -133 127.32 -133 128 C-133.66 128 -134.32 128 -135 128 C-135 128.66 -135 129.32 -135 130 C-135.66 130 -136.32 130 -137 130 C-137.277 130.721 -137.554 131.441 -137.84 132.184 C-139.316 135.768 -141.093 139.159 -142.879 142.598 C-145.677 148.594 -146.279 155.379 -144.059 161.664 C-139.83 170.439 -134.995 175.961 -126 180 C-117.61 182.728 -108.253 181.499 -100.25 178.207 C-97.28 176.614 -95.675 174.913 -94 172 C-93.649 171.394 -93.299 170.788 -92.938 170.164 C-90.754 165.125 -91.172 159.283 -93.016 154.199 C-94.655 150.867 -96.373 147.819 -98.633 144.867 C-100 143 -100 143 -100.562 140.562 C-99.87 137.408 -98.485 135.875 -95.91 133.957 C-92.294 132.145 -88.905 132.15 -85 133 C-79.343 136.372 -76.732 141.118 -74 147 C-73.678 147.69 -73.355 148.379 -73.023 149.09 C-69.184 158.724 -70.004 169.516 -73.586 179.09 C-76.054 184.169 -79.199 188.82 -83 193 C-83.66 193 -84.32 193 -85 193 C-85 193.66 -85 194.32 -85 195 C-100.126 204.372 -100.126 204.372 -109 205 C-109.944 205.068 -110.887 205.137 -111.859 205.207 C-125.78 205.694 -138.231 201.309 -149.055 192.52 C-158.639 183.519 -164.693 172.58 -165.336 159.301 C-165.639 142.463 -162.047 125.647 -150 113 C-149.34 113 -148.68 113 -148 113 C-148 112.34 -148 111.68 -148 111 C-147.34 111 -146.68 111 -146 111 C-146 110.34 -146 109.68 -146 109 C-143.832 107.142 -141.674 105.434 -139.375 103.75 C-138.701 103.256 -138.028 102.763 -137.334 102.254 C-120.135 90.047 -99.56 86.658 -78.875 89.75 C-61.812 93.044 -48.204 99.967 -35 111 C-33.998 111.828 -33.998 111.828 -32.977 112.672 C-17.652 126.63 -7.287 150.468 -5.125 170.812 C-5.052 172.541 -5.013 174.27 -5 176 C-4.963 177.167 -4.925 178.333 -4.887 179.535 C-4.495 199.819 -9.602 219.077 -21 236 C-21.66 236 -22.32 236 -23 236 C-23.66 237.65 -24.32 239.3 -25 241 C-25.66 241 -26.32 241 -27 241 C-27.342 241.841 -27.342 241.841 -27.691 242.699 C-36.105 257.492 -57.376 266.784 -73.064 271.216 C-89.708 275.398 -106.953 275.067 -124 275 C-124.9 274.997 -125.8 274.993 -126.728 274.99 C-152.339 274.861 -177.878 273.847 -203.444 272.362 C-225.825 271.066 -248.205 270.305 -270.613 269.702 C-272.649 269.648 -274.684 269.592 -276.719 269.535 C-279.2 269.467 -281.68 269.403 -284.16 269.342 C-305.552 268.762 -305.552 268.762 -310 266 C-311.719 263.609 -312.127 261.937 -311.73 259.012 C-309.917 252.05 -306.514 245.771 -303.242 239.41 C-300.527 234.119 -298.01 228.739 -295.498 223.35 C-292.151 216.215 -288.606 209.181 -285.071 202.138 C-283.324 198.652 -281.588 195.16 -279.852 191.668 C-267.332 166.524 -254.558 141.678 -239.985 117.649 C-239.496 116.842 -239.007 116.035 -238.504 115.203 C-238.069 114.488 -237.634 113.773 -237.186 113.036 C-236.035 111.06 -234.999 109.057 -234 107 C-233.34 107 -232.68 107 -232 107 C-231.903 106.447 -231.807 105.894 -231.707 105.324 C-230.292 100.674 -227.043 96.837 -224.298 92.875 C-223.392 91.566 -222.491 90.255 -221.593 88.942 C-216.021 80.798 -210.461 72.946 -203.645 65.785 C-201.928 64.088 -201.928 64.088 -201 62 C-200.34 62 -199.68 62 -199 62 C-199 61.34 -199 60.68 -199 60 C-195.51 56.792 -191.729 53.925 -188 51 C-186.948 50.169 -186.948 50.169 -185.875 49.32 C-183.947 47.834 -181.985 46.41 -180 45 C-179.263 44.459 -178.525 43.917 -177.766 43.359 C-154.124 27.06 -123.193 22.509 -95.25 27.312 C-83.188 29.549 -72.462 33.252 -61.266 38.211 C-56.365 40.305 -52.424 41.834 -47 41 C-42.094 38.198 -38.882 34.868 -35.375 30.562 C-34.326 29.307 -33.276 28.053 -32.223 26.801 C-31.69 26.167 -31.158 25.534 -30.61 24.881 C-27.61 21.376 -24.459 18.013 -21.31 14.642 C-18.958 12.122 -16.624 9.593 -14.352 7 C-13.555 6.093 -12.758 5.185 -11.938 4.25 C-11.245 3.451 -10.553 2.652 -9.84 1.828 C-6.647 -1.344 -4.09 -1.343 0 0 Z M-239 163 C-243.463 169.702 -247.198 176.911 -251 184 C-251.634 185.152 -252.268 186.305 -252.922 187.492 C-257.866 196.558 -262.343 205.822 -266.688 215.188 C-267.222 216.339 -267.756 217.49 -268.307 218.676 C-269.889 222.109 -271.449 225.552 -273 229 C-273.283 229.622 -273.567 230.244 -273.858 230.885 C-274.714 232.77 -275.556 234.659 -276.395 236.551 C-276.894 237.668 -277.394 238.784 -277.909 239.935 C-278.958 242.881 -279.24 244.91 -279 248 C-276.219 249.39 -273.949 249.127 -270.838 249.129 C-269.543 249.133 -268.248 249.136 -266.914 249.139 C-265.495 249.137 -264.076 249.135 -262.656 249.133 C-261.207 249.133 -259.757 249.134 -258.307 249.136 C-255.267 249.137 -252.228 249.135 -249.188 249.13 C-245.287 249.125 -241.386 249.128 -237.485 249.134 C-234.492 249.138 -231.498 249.136 -228.504 249.134 C-227.065 249.133 -225.627 249.134 -224.188 249.136 C-222.179 249.139 -220.171 249.134 -218.162 249.129 C-217.018 249.129 -215.874 249.128 -214.695 249.127 C-212.03 249.184 -212.03 249.184 -210 248 C-210.497 243.613 -211.349 241.03 -214.062 237.562 C-230.227 215.423 -234.933 189.649 -238 163 C-238.33 163 -238.66 163 -239 163 Z " fill="#D9D0CE" transform="translate(400,113)"/>
<path d="M0 0 C0 0.99 0 1.98 0 3 C-2.124 5.016 -4.227 6.856 -6.5 8.688 C-7.12 9.199 -7.74 9.71 -8.379 10.236 C-9.913 11.499 -11.456 12.75 -13 14 C-13.66 13.67 -14.32 13.34 -15 13 C-13.252 11.394 -11.502 9.79 -9.75 8.188 C-9.259 7.736 -8.768 7.284 -8.262 6.818 C-5.605 4.392 -2.925 2.097 0 0 Z M-17 14 C-16.01 14.495 -16.01 14.495 -15 15 C-15.99 15.495 -15.99 15.495 -17 16 C-17 15.34 -17 14.68 -17 14 Z M-19 16 C-18.34 16.33 -17.68 16.66 -17 17 C-18.121 18.316 -19.247 19.628 -20.375 20.938 C-21.001 21.668 -21.628 22.399 -22.273 23.152 C-24 25 -24 25 -26 26 C-24.332 22.059 -21.773 19.211 -19 16 Z " fill="#837779" transform="translate(218,159)"/>
<path d="M0 0 C2 2 2 2 2.227 3.879 C2.217 4.623 2.206 5.367 2.195 6.133 C2.189 6.938 2.182 7.744 2.176 8.574 C2.159 9.416 2.142 10.258 2.125 11.125 C2.116 11.974 2.107 12.824 2.098 13.699 C2.074 15.8 2.038 17.9 2 20 C1.67 20 1.34 20 1 20 C0.639 17.042 0.286 14.084 -0.062 11.125 C-0.166 10.283 -0.27 9.441 -0.377 8.574 C-0.47 7.769 -0.564 6.963 -0.66 6.133 C-0.749 5.389 -0.838 4.646 -0.93 3.879 C-1 2 -1 2 0 0 Z " fill="#918385" transform="translate(162,272)"/>
<path d="M0 0 C0.33 0.99 0.66 1.98 1 3 C-0.53 4.237 -2.06 5.474 -3.59 6.711 C-5.133 7.967 -5.133 7.967 -6 10 C-6.99 9.67 -7.98 9.34 -9 9 C-6.03 6.03 -3.06 3.06 0 0 Z " fill="#807475" transform="translate(385,121)"/>
<path d="M0 0 C0.66 0 1.32 0 2 0 C2 0.66 2 1.32 2 2 C4.886 3.576 7.533 4.463 10.75 5.125 C11.549 5.293 12.348 5.46 13.172 5.633 C13.775 5.754 14.378 5.875 15 6 C15 6.33 15 6.66 15 7 C13.584 7.054 12.167 7.093 10.75 7.125 C9.961 7.148 9.172 7.171 8.359 7.195 C5.738 6.978 4.2 6.428 2 5 C0.75 2.375 0.75 2.375 0 0 Z " fill="#948A8B" transform="translate(88,374)"/>
<path d="M0 0 C0 0.99 0 1.98 0 3 C-2.375 5.062 -2.375 5.062 -5 7 C-5.66 7.66 -6.32 8.32 -7 9 C-6.824 6.621 -6.303 5.298 -4.598 3.621 C-3.094 2.379 -1.549 1.186 0 0 Z " fill="#7C7475" transform="translate(409,132)"/>
<path d="M0 0 C0.66 0.99 1.32 1.98 2 3 C0.625 5.5 0.625 5.5 -1 8 C-1.66 8 -2.32 8 -3 8 C-1.125 2.25 -1.125 2.25 0 0 Z " fill="#ADA2A4" transform="translate(144,258)"/>
<path d="M0 0 C1.485 0.99 1.485 0.99 3 2 C3.408 4.712 3.133 7.244 3 10 C2.67 10 2.34 10 2 10 C1.34 6.7 0.68 3.4 0 0 Z " fill="#7C7275" transform="translate(408,122)"/>
<path d="M0 0 C1.125 3.75 1.125 3.75 0 6 C-0.66 6 -1.32 6 -2 6 C-1.494 3.831 -1 2 0 0 Z " fill="#8D8385" transform="translate(170,214)"/>
<path d="M0 0 C0.33 0.99 0.66 1.98 1 3 C-0.98 3.99 -0.98 3.99 -3 5 C-1.125 1.125 -1.125 1.125 0 0 Z " fill="#897F81" transform="translate(191,185)"/>
<path d="M0 0 C0.66 0.99 1.32 1.98 2 3 C1.01 3.33 0.02 3.66 -1 4 C-0.67 2.68 -0.34 1.36 0 0 Z " fill="#8E8586" transform="translate(144,258)"/>
</svg>