
<!-- Generator: visioncortex VTracer 0.6.4 -->
<svg version="1.1" xmlns="http://www.w3.org/2000/svg" viewBox="0 0 320 258" preserveAspectRatio="xMidYMid meet">
<path d="M0 0 C2.63 2.173 4.473 3.947 6 7 C5.767 13.283 5.767 13.283 2.848 16.012 C-0.15 18.105 -3.181 19.777 -6.438 21.438 C-11.173 23.923 -15.029 26.458 -19 30 C-19.66 30 -20.32 30 -21 30 C-21 30.66 -21 31.32 -21 32 C-22.023 32.921 -23.098 33.784 -24.188 34.625 C-28.442 38.233 -31.843 42.287 -35.312 46.625 C-35.87 47.322 -36.428 48.019 -37.002 48.737 C-38.127 50.148 -39.252 51.559 -40.376 52.971 C-54.849 71.055 -71.698 89.26 -94.805 95.793 C-98.026 96.097 -99.473 94.928 -102 93 C-104.358 90.642 -104.943 89.384 -105.438 86.062 C-104.876 82.129 -103.756 80.864 -101 78 C-98.373 76.327 -95.612 74.985 -92.812 73.625 C-82.508 68.377 -69.358 60.716 -64 50 C-63.34 50 -62.68 50 -62 50 C-61.773 49.484 -61.546 48.969 -61.312 48.438 C-59.518 45.105 -57.5 41.853 -55 39 C-54.34 39 -53.68 39 -53 39 C-52.691 38.381 -52.381 37.763 -52.062 37.125 C-51.375 35.75 -50.688 34.375 -50 33 C-49.34 33 -48.68 33 -48 33 C-47.732 32.196 -47.464 31.391 -47.188 30.562 C-46.6 29.294 -46.6 29.294 -46 28 C-45.01 27.67 -44.02 27.34 -43 27 C-42.505 25.515 -42.505 25.515 -42 24 C-41.34 24 -40.68 24 -40 24 C-39.765 23.432 -39.531 22.863 -39.289 22.277 C-32.925 11.034 -13.005 -1.345 0 0 Z " fill="#FCFCFC" transform="translate(303,18)"/>
<path d="M0 0 C2.625 2.125 2.625 2.125 4 5 C4 10.389 2.65 13.143 -1 17 C-4.102 18.703 -4.102 18.703 -7.625 20.25 C-13.431 22.95 -17.903 26.091 -22.523 30.594 C-24.589 32.601 -26.694 34.425 -28.898 36.273 C-32.987 39.829 -36.09 43.747 -39.25 48.125 C-45.039 55.916 -51.269 63.019 -58 70 C-58.61 70.673 -59.219 71.346 -59.848 72.039 C-67.14 79.887 -76.645 85.446 -86 90.5 C-86.623 90.838 -87.245 91.177 -87.887 91.525 C-92.158 93.763 -95.76 95.546 -100.562 94.375 C-103.72 92.594 -105.206 91.174 -107 88 C-107.33 84.052 -106.896 81.137 -104.418 77.992 C-101.29 75.415 -97.975 73.879 -94.312 72.188 C-88.517 69.421 -83.49 66.478 -78.602 62.25 C-77 61 -77 61 -75 61 C-74.617 60.12 -74.617 60.12 -74.227 59.223 C-72.879 56.78 -71.421 55.325 -69.375 53.438 C-65.266 49.455 -62.023 45.108 -58.762 40.418 C-57.281 38.385 -55.804 36.732 -54 35 C-53.484 34.278 -52.969 33.556 -52.438 32.812 C-51.726 31.915 -51.726 31.915 -51 31 C-50.34 31 -49.68 31 -49 31 C-48.752 30.216 -48.505 29.433 -48.25 28.625 C-46.846 25.677 -45.993 25.098 -43 24 C-43 23.34 -43 22.68 -43 22 C-42.34 22 -41.68 22 -41 22 C-40.34 20.68 -39.68 19.36 -39 18 C-38.34 18 -37.68 18 -37 18 C-37 17.34 -37 16.68 -37 16 C-35.551 14.735 -35.551 14.735 -33.527 13.32 C-32.792 12.803 -32.057 12.286 -31.299 11.754 C-30.13 10.948 -30.13 10.948 -28.938 10.125 C-27.809 9.33 -27.809 9.33 -26.658 8.52 C-10.486 -2.766 -10.486 -2.766 0 0 Z " fill="#FCFCFC" transform="translate(146,19)"/>
<path d="M0 0 C1.792 2.883 2.008 4.612 1.938 8 C0.754 11.787 -0.8 13.785 -4 16 C-6.95 17.537 -9.944 18.968 -12.941 20.41 C-25.36 26.866 -34.455 38.228 -43 49 C-44.437 50.792 -45.875 52.583 -47.312 54.375 C-49.27 56.83 -51.214 59.283 -53.105 61.789 C-53.731 62.519 -54.356 63.248 -55 64 C-55.66 64 -56.32 64 -57 64 C-57 64.66 -57 65.32 -57 66 C-57.66 66 -58.32 66 -59 66 C-59.268 66.598 -59.536 67.196 -59.812 67.812 C-60.999 69.998 -62.096 71.413 -64 73 C-64.66 73 -65.32 73 -66 73 C-66 73.66 -66 74.32 -66 75 C-67.906 76.515 -69.798 77.892 -71.812 79.25 C-72.399 79.65 -72.986 80.051 -73.59 80.463 C-78.871 84.016 -84.351 87.073 -90 90 C-91.052 90.639 -92.104 91.279 -93.188 91.938 C-97.317 93.497 -99.696 93.041 -104 92 C-106.5 90.5 -106.5 90.5 -108 88 C-108.616 84.863 -108.84 82.096 -108 79 C-104.654 74.936 -101.262 72.937 -96.5 70.812 C-81.535 63.768 -70.619 52.635 -61.1 39.346 C-60.596 38.655 -60.093 37.965 -59.574 37.254 C-59.127 36.628 -58.679 36.002 -58.218 35.358 C-57.816 34.91 -57.414 34.462 -57 34 C-56.34 34 -55.68 34 -55 34 C-55 33.34 -55 32.68 -55 32 C-54.34 32 -53.68 32 -53 32 C-52.804 31.316 -52.608 30.631 -52.406 29.926 C-50.475 25.909 -47.669 23.271 -44.5 20.188 C-43.906 19.59 -43.311 18.993 -42.699 18.377 C-38.267 14 -38.267 14 -36 14 C-36 13.34 -36 12.68 -36 12 C-34.35 11.34 -32.7 10.68 -31 10 C-31 9.34 -31 8.68 -31 8 C-9.502 -7.364 -9.502 -7.364 0 0 Z " fill="#FDFDFD" transform="translate(120,146)"/>
<path d="M0 0 C3.829 3.125 3.829 3.125 5 6 C5.216 9.414 4.595 11.979 3 15 C0.625 17.267 -2.056 18.583 -5 20 C-20.72 27.68 -31.783 40.211 -42.375 53.875 C-55.44 70.69 -72.019 88.425 -93 95 C-97.571 95.301 -100.996 94.789 -104.625 91.938 C-106.217 88.537 -106.212 86.608 -105.75 82.965 C-103.777 77.797 -99.187 75.936 -94.438 73.75 C-87.711 70.531 -81.839 66.662 -76 62 C-75.27 61.424 -74.541 60.848 -73.789 60.254 C-67.71 55.212 -63.063 49.209 -58.75 42.625 C-57 40 -57 40 -55.602 38.609 C-53.741 36.74 -52.213 34.73 -50.625 32.625 C-47.95 29.152 -45.188 26.02 -42 23 C-40.67 21.608 -40.67 21.608 -39.312 20.188 C-37 18 -37 18 -35 18 C-35 17.34 -35 16.68 -35 16 C-31.538 13 -31.538 13 -29 13 C-29 12.34 -29 11.68 -29 11 C-25.863 8.696 -22.398 6.892 -19 5 C-17.98 4.419 -16.961 3.837 -15.91 3.238 C-5.657 -2.309 -5.657 -2.309 0 0 Z " fill="#FCFCFC" transform="translate(274,145)"/>
</svg>