
<!-- Generator: visioncortex VTracer 0.6.4 -->
<svg version="1.1" xmlns="http://www.w3.org/2000/svg" viewBox="0 0 350 219" preserveAspectRatio="xMidYMid meet">
<path d="M0 0 C1.743 0.002 1.743 0.002 3.521 0.005 C11.829 0.124 18.751 0.875 26.375 4.375 C27.133 4.71 27.891 5.045 28.672 5.391 C30.624 6.315 32.497 7.309 34.375 8.375 C35.048 8.751 35.721 9.128 36.414 9.516 C38.075 10.455 39.726 11.413 41.375 12.375 C41.375 13.035 41.375 13.695 41.375 14.375 C41.955 14.641 42.535 14.906 43.133 15.18 C49.769 18.718 55.643 24.873 59.375 31.375 C59.375 32.365 59.375 33.355 59.375 34.375 C60.035 34.375 60.695 34.375 61.375 34.375 C70.948 50.697 72.636 69.297 68.9 87.718 C67.815 91.814 66.247 95.584 64.375 99.375 C63.981 100.206 63.586 101.038 63.18 101.895 C54.563 118.642 39.223 131.55 21.375 137.375 C1.209 142.673 -17.789 140.981 -35.861 130.469 C-40.122 127.827 -43.931 124.751 -47.625 121.375 C-48.191 120.866 -48.757 120.357 -49.34 119.832 C-50.75 118.5 -50.75 118.5 -52.625 116.375 C-52.625 115.715 -52.625 115.055 -52.625 114.375 C-53.285 114.375 -53.945 114.375 -54.625 114.375 C-56.112 112.41 -57.365 110.486 -58.625 108.375 C-59.105 107.586 -59.584 106.797 -60.078 105.984 C-68.815 90.894 -72.838 71.307 -68.719 54.035 C-63.269 34.511 -50.949 17.725 -33.203 7.652 C-28.816 5.479 -24.291 3.839 -19.625 2.375 C-18.621 2.017 -17.617 1.658 -16.582 1.289 C-11.177 -0.225 -5.57 -0.008 0 0 Z M-12.625 16.375 C-13.664 16.742 -14.703 17.11 -15.773 17.488 C-22.196 19.875 -28.091 22.304 -33.625 26.375 C-34.205 26.791 -34.785 27.208 -35.383 27.637 C-40.843 31.909 -45.052 37.463 -48.625 43.375 C-48.625 44.365 -48.625 45.355 -48.625 46.375 C-47.965 46.375 -47.305 46.375 -46.625 46.375 C-46.625 45.715 -46.625 45.055 -46.625 44.375 C-45.947 44.259 -45.269 44.143 -44.57 44.023 C-41.107 43.261 -37.853 42.155 -34.5 41 C-25.236 37.856 -15.866 35.391 -6.352 33.121 C-3.673 32.388 -1.18 31.457 1.375 30.375 C1.402 27.896 1.422 25.417 1.438 22.938 C1.45 21.877 1.45 21.877 1.463 20.795 C1.472 18.988 1.427 17.181 1.375 15.375 C0.234 14.013 0.234 14.013 -2.812 14.188 C-6.586 14.373 -9.095 15.11 -12.625 16.375 Z M15.375 17.375 C15.705 18.365 16.035 19.355 16.375 20.375 C17.365 20.045 18.355 19.715 19.375 19.375 C18.055 18.715 16.735 18.055 15.375 17.375 Z M29.438 29.438 C20.148 36.812 10.914 42.096 -0.414 45.531 C-3.025 46.528 -5.266 47.885 -7.625 49.375 C-7.512 51.688 -7.384 54.001 -7.25 56.312 C-7.18 57.6 -7.111 58.888 -7.039 60.215 C-6.902 61.258 -6.766 62.301 -6.625 63.375 C-4.684 64.622 -4.684 64.622 -2.672 63.852 C-1.914 63.571 -1.156 63.29 -0.375 63 C3.201 61.735 6.598 60.859 10.375 60.375 C10.375 59.715 10.375 59.055 10.375 58.375 C11.029 58.458 11.682 58.54 12.355 58.625 C16.679 58.267 19.893 56.383 23.688 54.375 C24.428 53.993 25.169 53.612 25.932 53.219 C27.751 52.28 29.564 51.329 31.375 50.375 C31.375 49.715 31.375 49.055 31.375 48.375 C31.952 48.272 32.53 48.169 33.125 48.062 C35.732 47.266 37.349 46.184 39.375 44.375 C39.375 43.715 39.375 43.055 39.375 42.375 C40.303 41.973 40.303 41.973 41.25 41.562 C43.675 40.419 43.675 40.419 45.375 37.375 C44.881 36.893 44.388 36.411 43.879 35.914 C43.238 35.282 42.598 34.651 41.938 34 C41.299 33.374 40.661 32.747 40.004 32.102 C38.375 30.375 38.375 30.375 37.375 28.375 C36.715 28.375 36.055 28.375 35.375 28.375 C35.375 27.715 35.375 27.055 35.375 26.375 C32.55 26.375 31.606 27.653 29.438 29.438 Z M-31.375 54.688 C-32.449 55.149 -33.523 55.61 -34.629 56.086 C-35.618 56.511 -36.606 56.937 -37.625 57.375 C-38.842 57.849 -40.059 58.324 -41.312 58.812 C-49.253 62.23 -49.253 62.23 -54.441 68.551 C-54.689 72.356 -54.229 75.923 -53.688 79.688 C-53.588 80.428 -53.488 81.169 -53.385 81.932 C-53.139 83.747 -52.883 85.561 -52.625 87.375 C-50.625 86.584 -50.625 86.584 -48.625 85.375 C-48.295 84.385 -47.965 83.395 -47.625 82.375 C-45.965 81.692 -44.297 81.029 -42.625 80.375 C-41.44 79.569 -40.274 78.733 -39.125 77.875 C-36.368 75.841 -33.858 74.558 -30.625 73.375 C-27.937 72.081 -25.284 70.727 -22.625 69.375 C-22.625 63.765 -22.625 58.155 -22.625 52.375 C-26.132 52.375 -28.161 53.305 -31.375 54.688 Z M51.375 52.375 C51.375 53.035 51.375 53.695 51.375 54.375 C50.625 54.642 49.875 54.909 49.102 55.184 C46.427 56.352 44.897 57.505 42.75 59.438 C38.138 63.134 33.182 65.655 27.875 68.188 C27.08 68.572 26.285 68.957 25.466 69.354 C20.863 71.494 16.52 72.914 11.543 73.886 C8.693 74.529 6.079 75.573 3.367 76.643 C0.652 77.641 -2.111 78.314 -4.916 79.009 C-18.384 82.383 -32.962 87.945 -42.625 98.375 C-43.722 101.179 -43.812 101.93 -42.625 104.75 C-40.028 108.159 -36.964 110.713 -33.625 113.375 C-33.106 112.977 -32.586 112.578 -32.051 112.168 C-28.968 109.826 -25.973 107.578 -22.625 105.625 C-21.965 105.213 -21.305 104.8 -20.625 104.375 C-20.625 103.715 -20.625 103.055 -20.625 102.375 C-20.109 102.292 -19.594 102.21 -19.062 102.125 C-16.424 101.417 -16.424 101.417 -13.562 99.562 C-5.795 95.011 2.778 92.893 11.527 91.086 C14.096 90.445 16.052 89.6 18.375 88.375 C19.241 88.231 20.108 88.086 21 87.938 C31.756 86.145 40.803 81.351 50.375 76.375 C51.174 76.055 51.973 75.736 52.797 75.406 C54.568 74.48 54.568 74.48 55.055 72.379 C55.573 65.894 55.318 59.636 53.375 53.375 C52.385 52.88 52.385 52.88 51.375 52.375 Z M41.523 96.52 C38.143 97.865 34.645 98.707 31.129 99.625 C28.689 100.289 26.324 101.043 23.938 101.875 C18.512 103.739 12.951 105.045 7.375 106.375 C7.348 108.437 7.329 110.5 7.312 112.562 C7.301 113.711 7.289 114.86 7.277 116.043 C7.363 118.968 7.697 121.538 8.375 124.375 C20.437 122.43 31.612 116.876 40.375 108.375 C40.901 107.87 41.427 107.364 41.969 106.844 C45.332 103.331 47.262 98.702 49.375 94.375 C46.193 94.375 44.376 95.238 41.523 96.52 Z M-8.625 112.375 C-8.625 113.035 -8.625 113.695 -8.625 114.375 C-9.244 114.519 -9.863 114.664 -10.5 114.812 C-12.658 115.307 -12.658 115.307 -14.625 116.375 C-14.625 117.035 -14.625 117.695 -14.625 118.375 C-15.285 118.375 -15.945 118.375 -16.625 118.375 C-16.625 119.035 -16.625 119.695 -16.625 120.375 C-17.285 120.375 -17.945 120.375 -18.625 120.375 C-18.625 121.035 -18.625 121.695 -18.625 122.375 C-13.18 123.365 -13.18 123.365 -7.625 124.375 C-6.422 121.97 -6.524 120.425 -6.562 117.75 C-6.572 116.933 -6.581 116.115 -6.59 115.273 C-6.601 114.647 -6.613 114.02 -6.625 113.375 C-7.285 113.045 -7.945 112.715 -8.625 112.375 Z " fill="#F7FDF7" transform="translate(174.625,39.625)"/>
<path d="M0 0 C0.66 0 1.32 0 2 0 C2.242 0.99 2.485 1.98 2.734 3 C4.535 10.158 6.491 16.466 10 23 C10.75 26 10.75 26 11 28 C3.874 21.298 2.113 11.195 0 2 C0 1.34 0 0.68 0 0 Z M11 28 C11.99 28.495 11.99 28.495 13 29 C12.67 29.66 12.34 30.32 12 31 C11.67 30.01 11.34 29.02 11 28 Z " fill="#D0F8D0" transform="translate(105,118)"/>
<path d="M0 0 C1.32 0.33 2.64 0.66 4 1 C4 6.61 4 12.22 4 18 C3.01 18 2.02 18 1 18 C0.815 6.478 0.815 6.478 2 1 C1.34 0.67 0.68 0.34 0 0 Z " fill="#DCF3DD" transform="translate(150,91)"/>
<path d="M0 0 C0.66 0.33 1.32 0.66 2 1 C0.377 2.709 -1.293 4.374 -3 6 C-3.66 6 -4.32 6 -5 6 C-5.33 6.99 -5.66 7.98 -6 9 C-7.32 8.34 -8.64 7.68 -10 7 C-9.464 6.773 -8.928 6.546 -8.375 6.312 C-5.215 4.566 -2.732 2.36 0 0 Z " fill="#D6F7D6" transform="translate(149,146)"/>
<path d="M0 0 C0.66 0.66 1.32 1.32 2 2 C-2.108 3.587 -3.592 4.102 -8 3 C-5.36 2.01 -2.72 1.02 0 0 Z M-12 4 C-10.02 4.495 -10.02 4.495 -8 5 C-9.65 5.33 -11.3 5.66 -13 6 C-12.67 5.34 -12.34 4.68 -12 4 Z " fill="#D0FAD0" transform="translate(166,53)"/>
<path d="M0 0 C0.99 0.33 1.98 0.66 3 1 C2.67 2.32 2.34 3.64 2 5 C1.34 3.35 0.68 1.7 0 0 Z M3 5 C3.99 5.495 3.99 5.495 5 6 C4.67 6.66 4.34 7.32 4 8 C3.67 7.01 3.34 6.02 3 5 Z " fill="#DAFBDA" transform="translate(113,141)"/>
<path d="M0 0 C0.66 0.66 1.32 1.32 2 2 C1 3 1 3 -2.562 3.062 C-3.697 3.042 -4.831 3.021 -6 3 C-6 2.67 -6 2.34 -6 2 C-4.02 1.34 -2.04 0.68 0 0 Z " fill="#E0F7E0" transform="translate(166,53)"/>
</svg>