
<!-- Generator: visioncortex VTracer 0.6.4 -->
<svg version="1.1" xmlns="http://www.w3.org/2000/svg" viewBox="0 0 500 500" preserveAspectRatio="xMidYMid meet">
<path d="M0 0 C3.81 2.812 6.166 6.343 6.992 11.014 C7.136 13.369 7.154 15.693 7.126 18.053 C7.132 18.949 7.137 19.845 7.143 20.768 C7.157 23.759 7.142 26.749 7.127 29.74 C7.13 31.889 7.136 34.038 7.143 36.187 C7.157 42.016 7.146 47.844 7.129 53.672 C7.116 59.773 7.122 65.873 7.126 71.973 C7.128 82.217 7.115 92.46 7.092 102.703 C7.065 114.546 7.063 126.389 7.075 138.232 C7.086 149.626 7.08 161.019 7.065 172.413 C7.06 177.262 7.06 182.11 7.064 186.959 C7.069 192.668 7.059 198.376 7.037 204.085 C7.032 206.18 7.031 208.276 7.036 210.371 C7.042 213.231 7.03 216.09 7.013 218.949 C7.019 219.779 7.025 220.609 7.031 221.464 C6.969 227.154 5.808 231.186 2.188 235.75 C-2.29 239.153 -9.067 238.364 -14.375 237.938 C-19.04 236.151 -20.991 233.256 -23.375 228.938 C-23.937 225.922 -23.916 222.971 -23.883 219.911 C-23.892 218.563 -23.892 218.563 -23.902 217.188 C-23.918 214.182 -23.905 211.178 -23.893 208.172 C-23.898 206.015 -23.905 203.858 -23.914 201.701 C-23.932 195.846 -23.925 189.991 -23.912 184.135 C-23.902 178.007 -23.912 171.879 -23.918 165.751 C-23.925 155.459 -23.916 145.167 -23.896 134.875 C-23.875 122.978 -23.882 111.081 -23.904 99.184 C-23.922 88.969 -23.925 78.754 -23.914 68.539 C-23.908 62.439 -23.907 56.338 -23.92 50.237 C-23.932 44.501 -23.924 38.764 -23.901 33.028 C-23.895 30.923 -23.897 28.818 -23.906 26.714 C-23.917 23.839 -23.903 20.966 -23.883 18.091 C-23.892 17.259 -23.901 16.428 -23.91 15.571 C-23.834 9.909 -22.634 6.598 -19.375 1.938 C-13.594 -2.329 -6.629 -2.087 0 0 Z " fill="#F0F0F0" transform="translate(33.375,131.0625)"/>
<path d="M0 0 C3.42 3.099 5.077 6.345 6 10.812 C6.094 13.708 6.135 16.578 6.127 19.474 C6.129 20.357 6.13 21.24 6.132 22.15 C6.136 25.116 6.133 28.082 6.129 31.047 C6.131 33.171 6.133 35.295 6.135 37.418 C6.139 43.191 6.137 48.963 6.134 54.736 C6.132 60.77 6.134 66.803 6.136 72.837 C6.138 82.97 6.135 93.102 6.13 103.235 C6.125 114.96 6.127 126.686 6.132 138.411 C6.137 148.468 6.137 158.525 6.135 168.582 C6.133 174.593 6.133 180.604 6.136 186.615 C6.139 192.265 6.137 197.914 6.131 203.564 C6.13 205.641 6.13 207.718 6.133 209.796 C6.135 212.623 6.132 215.451 6.127 218.278 C6.129 219.107 6.131 219.936 6.134 220.791 C6.122 224.058 6.041 226.69 5 229.812 C4.34 229.812 3.68 229.812 3 229.812 C2.897 230.411 2.794 231.009 2.688 231.625 C1.894 234.151 1.044 235.161 -1 236.812 C-6.453 238.63 -12.707 238.816 -18 236.5 C-22.783 232.465 -22.783 232.465 -24 228.812 C-24.098 225.911 -24.139 223.035 -24.134 220.133 C-24.136 219.236 -24.138 218.338 -24.141 217.414 C-24.147 214.395 -24.146 211.375 -24.145 208.356 C-24.148 206.196 -24.152 204.036 -24.155 201.877 C-24.164 196.001 -24.167 190.125 -24.167 184.249 C-24.168 179.348 -24.172 174.447 -24.175 169.546 C-24.184 157.986 -24.186 146.427 -24.185 134.867 C-24.185 122.932 -24.195 110.997 -24.211 99.062 C-24.224 88.824 -24.229 78.586 -24.229 68.348 C-24.229 62.23 -24.231 56.111 -24.242 49.993 C-24.252 44.239 -24.252 38.485 -24.245 32.731 C-24.243 30.618 -24.246 28.504 -24.252 26.391 C-24.26 23.509 -24.255 20.627 -24.247 17.746 C-24.252 16.906 -24.258 16.067 -24.263 15.202 C-24.238 10.983 -24.071 7.606 -22 3.812 C-15.869 -1.847 -7.822 -3.096 0 0 Z " fill="#F5F5F5" transform="translate(184,131.1875)"/>
<path d="M0 0 C5.407 5.545 5.88 12.254 5.825 19.608 C5.831 20.492 5.836 21.375 5.841 22.285 C5.856 25.227 5.849 28.168 5.842 31.109 C5.847 33.226 5.854 35.342 5.862 37.458 C5.88 43.194 5.879 48.929 5.873 54.664 C5.87 59.456 5.876 64.247 5.882 69.038 C5.896 80.342 5.895 91.646 5.884 102.949 C5.872 114.605 5.886 126.261 5.913 137.918 C5.935 147.932 5.942 157.947 5.936 167.962 C5.932 173.94 5.935 179.918 5.952 185.896 C5.968 191.517 5.964 197.138 5.945 202.759 C5.941 204.819 5.944 206.88 5.955 208.941 C5.968 211.758 5.956 214.574 5.939 217.392 C5.948 218.203 5.958 219.015 5.968 219.851 C5.893 225.691 4.344 229.435 1.438 234.5 C0.777 234.5 0.118 234.5 -0.562 234.5 C-0.562 235.16 -0.562 235.82 -0.562 236.5 C-3.627 237.394 -6.374 237.635 -9.562 237.625 C-10.408 237.628 -11.254 237.63 -12.125 237.633 C-15.689 237.439 -17.87 237.05 -20.688 234.812 C-24.892 229.628 -24.854 223.955 -24.83 217.594 C-24.834 216.709 -24.839 215.823 -24.844 214.91 C-24.856 211.949 -24.855 208.987 -24.853 206.026 C-24.859 203.9 -24.866 201.774 -24.873 199.648 C-24.891 193.878 -24.896 188.107 -24.897 182.336 C-24.898 178.731 -24.903 175.125 -24.908 171.519 C-24.927 158.937 -24.935 146.356 -24.933 133.774 C-24.932 122.049 -24.953 110.324 -24.985 98.598 C-25.011 88.528 -25.021 78.459 -25.02 68.389 C-25.02 62.376 -25.025 56.363 -25.047 50.35 C-25.066 44.695 -25.066 39.04 -25.052 33.384 C-25.049 31.311 -25.054 29.237 -25.066 27.163 C-25.082 24.328 -25.072 21.495 -25.057 18.66 C-25.067 17.843 -25.078 17.026 -25.088 16.184 C-25.021 10.548 -23.729 6.208 -20.562 1.5 C-14.778 -3.297 -6.649 -2.799 0 0 Z " fill="#EBEBEB" transform="translate(483.5625,131.5)"/>
<path d="M0 0 C4.783 4.035 4.783 4.035 6 7.688 C6.098 10.603 6.139 13.495 6.134 16.411 C6.136 17.314 6.138 18.216 6.141 19.145 C6.147 22.181 6.146 25.216 6.145 28.252 C6.148 30.423 6.152 32.594 6.155 34.766 C6.164 40.672 6.167 46.579 6.167 52.486 C6.168 57.412 6.172 62.338 6.175 67.263 C6.184 78.881 6.186 90.498 6.185 102.115 C6.185 114.113 6.195 126.11 6.211 138.108 C6.224 148.398 6.229 158.687 6.229 168.977 C6.229 175.127 6.231 181.278 6.242 187.428 C6.252 193.21 6.252 198.993 6.245 204.775 C6.243 206.901 6.246 209.026 6.252 211.151 C6.26 214.046 6.255 216.941 6.247 219.837 C6.252 220.683 6.258 221.529 6.263 222.401 C6.23 227.882 5.646 230.767 2.125 234.875 C-1.948 238.349 -7.057 238.134 -12.23 238.113 C-16.642 237.435 -19.22 235.061 -22 231.688 C-23.66 228.367 -23.14 224.652 -23.134 221.001 C-23.136 220.091 -23.138 219.181 -23.141 218.243 C-23.147 215.174 -23.146 212.106 -23.145 209.037 C-23.148 206.845 -23.152 204.652 -23.155 202.46 C-23.164 196.491 -23.167 190.522 -23.167 184.553 C-23.168 179.578 -23.172 174.602 -23.175 169.627 C-23.183 158.564 -23.186 147.501 -23.185 136.438 C-23.185 135.774 -23.185 135.11 -23.185 134.426 C-23.185 133.761 -23.185 133.096 -23.185 132.41 C-23.185 121.63 -23.194 110.849 -23.208 100.068 C-23.223 89.006 -23.23 77.945 -23.229 66.883 C-23.229 60.669 -23.231 54.456 -23.242 48.242 C-23.252 42.401 -23.252 36.559 -23.245 30.718 C-23.243 28.569 -23.246 26.421 -23.252 24.273 C-23.26 21.349 -23.255 18.425 -23.247 15.501 C-23.252 14.643 -23.258 13.786 -23.263 12.902 C-23.24 8.981 -23.225 7.024 -21 3.688 C-20.34 3.688 -19.68 3.688 -19 3.688 C-18.732 3.048 -18.464 2.409 -18.188 1.75 C-15.132 -3.557 -4.844 -2.119 0 0 Z " fill="#F1F1F1" transform="translate(333,131.3125)"/>
<path d="M0 0 C0.994 0.009 1.988 0.018 3.012 0.027 C4.151 0.045 4.151 0.045 5.312 0.062 C5.312 0.393 5.312 0.722 5.312 1.062 C4.444 1.126 3.575 1.189 2.68 1.254 C-5.356 1.952 -5.356 1.952 -11.5 6.688 C-12.797 8.498 -12.797 8.498 -13.688 10.062 C-14.018 8.743 -14.347 7.423 -14.688 6.062 C-9.628 1.678 -6.892 -0.081 0 0 Z M5.312 1.062 C8.537 2.021 10.038 2.69 12.062 5.438 C14.47 10.494 14.457 15.193 14.446 20.724 C14.448 21.607 14.451 22.49 14.453 23.4 C14.459 26.366 14.459 29.332 14.458 32.297 C14.461 34.421 14.464 36.545 14.468 38.668 C14.477 44.441 14.479 50.213 14.48 55.986 C14.481 60.8 14.484 65.614 14.488 70.428 C14.496 81.78 14.499 93.132 14.498 104.485 C14.497 116.21 14.508 127.936 14.524 139.661 C14.537 149.718 14.542 159.775 14.541 169.832 C14.541 175.843 14.544 181.854 14.555 187.865 C14.564 193.515 14.564 199.164 14.557 204.814 C14.556 206.891 14.558 208.968 14.564 211.046 C14.572 213.873 14.567 216.701 14.56 219.528 C14.565 220.357 14.57 221.186 14.575 222.041 C14.552 225.908 14.509 227.768 12.312 231.062 C12.31 229.371 12.31 229.371 12.308 227.646 C12.271 200.221 12.212 172.797 12.129 145.372 C12.089 132.109 12.056 118.847 12.042 105.585 C12.029 94.026 12.002 82.467 11.958 70.908 C11.935 64.787 11.92 58.667 11.921 52.546 C11.921 46.785 11.903 41.024 11.871 35.263 C11.863 33.148 11.861 31.034 11.867 28.92 C11.873 26.031 11.855 23.144 11.831 20.256 C11.843 19.003 11.843 19.003 11.855 17.724 C11.772 12.065 10.574 8.719 7.312 4.062 C6.653 3.732 5.993 3.403 5.312 3.062 C5.312 2.403 5.312 1.743 5.312 1.062 Z " fill="#464646" transform="translate(175.6875,129.9375)"/>
<path d="M0 0 C3.575 1.192 4.446 2.657 6.182 5.915 C7.634 9.615 7.543 13.212 7.494 17.142 C7.499 18.041 7.504 18.94 7.509 19.866 C7.52 22.867 7.503 25.866 7.486 28.866 C7.488 31.022 7.492 33.177 7.497 35.333 C7.507 41.177 7.492 47.022 7.471 52.866 C7.454 58.979 7.457 65.092 7.458 71.205 C7.456 81.465 7.439 91.725 7.412 101.985 C7.38 113.86 7.37 125.735 7.371 137.61 C7.372 149.025 7.362 160.44 7.346 171.855 C7.338 176.718 7.335 181.581 7.334 186.445 C7.332 192.163 7.32 197.881 7.299 203.6 C7.294 205.703 7.291 207.807 7.292 209.911 C7.293 212.771 7.282 215.632 7.267 218.493 C7.271 219.334 7.274 220.176 7.277 221.043 C7.228 226.772 7.228 226.772 5 229 C5.003 227.871 5.006 226.742 5.008 225.578 C5.075 198.121 5.124 170.663 5.155 143.206 C5.171 129.928 5.192 116.649 5.226 103.371 C5.256 91.8 5.276 80.229 5.282 68.658 C5.286 62.529 5.295 56.4 5.317 50.272 C5.338 44.506 5.344 38.74 5.339 32.974 C5.34 30.855 5.346 28.737 5.358 26.619 C5.373 23.73 5.369 20.842 5.361 17.953 C5.37 17.112 5.378 16.27 5.387 15.403 C5.351 10.719 4.889 7.882 2 4 C1.319 2.674 0.647 1.343 0 0 Z " fill="#131313" transform="translate(33,132)"/>
<path d="M0 0 C2.753 1.009 3.839 1.898 6 4 C6.875 6.25 6.875 6.25 7 8 C6.01 7.67 5.02 7.34 4 7 C3.67 6.01 3.34 5.02 3 4 C-1.311 1.177 -6.038 1.111 -11 2 C-14.006 3.663 -16.5 5.653 -19 8 C-18.078 4.898 -17.423 3.314 -14.789 1.359 C-10.005 -0.973 -5.201 -0.64 0 0 Z " fill="#6B6B6B" transform="translate(480,130)"/>
<path d="M0 0 C0.994 0.009 1.988 0.018 3.012 0.027 C4.151 0.045 4.151 0.045 5.312 0.062 C5.312 0.393 5.312 0.722 5.312 1.062 C4.444 1.126 3.575 1.189 2.68 1.254 C-5.356 1.952 -5.356 1.952 -11.5 6.688 C-12.797 8.498 -12.797 8.498 -13.688 10.062 C-14.018 8.743 -14.347 7.423 -14.688 6.062 C-9.628 1.678 -6.892 -0.081 0 0 Z M5.312 1.062 C7.292 2.053 7.292 2.053 9.312 3.062 C7.993 3.062 6.673 3.062 5.312 3.062 C5.312 2.403 5.312 1.743 5.312 1.062 Z " fill="#5A5A5A" transform="translate(175.6875,129.9375)"/>
<path d="M0 0 C1.707 1.281 3.374 2.618 5 4 C5 4.66 5 5.32 5 6 C6.896 6.027 8.792 6.046 10.688 6.062 C12.271 6.08 12.271 6.08 13.887 6.098 C16.724 6.009 19.244 5.649 22 5 C22 5.66 22 6.32 22 7 C18.935 7.894 16.188 8.135 13 8.125 C11.732 8.129 11.732 8.129 10.438 8.133 C6.716 7.93 4.643 7.536 1.75 5.125 C0 3 0 3 0 0 Z M24 2 C24 2.99 24 3.98 24 5 C23.34 4.67 22.68 4.34 22 4 C22.66 3.34 23.32 2.68 24 2 Z " fill="#6F6F6F" transform="translate(461,361)"/>
<path d="M0 0 C1.707 1.281 3.374 2.618 5 4 C5 4.66 5 5.32 5 6 C6.65 6.33 8.3 6.66 10 7 C8 8 8 8 6.125 7.812 C3.33 6.744 1.891 5.296 0 3 C0 2.01 0 1.02 0 0 Z " fill="#5A5A5A" transform="translate(461,361)"/>
<path d="M0 0 C1.875 0.188 1.875 0.188 4 1 C5.25 3.562 5.25 3.562 6 6 C5.01 5.67 4.02 5.34 3 5 C2.67 4.01 2.34 3.02 2 2 C1.34 1.34 0.68 0.68 0 0 Z " fill="#686868" transform="translate(481,132)"/>
<path d="M0 0 C0.99 0.33 1.98 0.66 3 1 C0.03 3.475 0.03 3.475 -3 6 C-1.125 1.125 -1.125 1.125 0 0 Z " fill="#626262" transform="translate(464,132)"/>
<path d="M0 0 C0.99 0.33 1.98 0.66 3 1 C3.688 3.062 3.688 3.062 4 5 C2 3.625 2 3.625 0 2 C0 1.34 0 0.68 0 0 Z " fill="#646464" transform="translate(33,132)"/>
</svg>