
<!-- Generator: visioncortex VTracer 0.6.4 -->
<svg version="1.1" xmlns="http://www.w3.org/2000/svg" viewBox="0 0 168 299" preserveAspectRatio="xMidYMid meet">
<path d="M0 0 C3.425 -0.391 4.79 -0.134 7.75 1.75 C9.974 3.974 10.794 4.911 11 8 C10 10 10 10 8.039 10.852 C7.242 11.107 6.446 11.362 5.625 11.625 C4.834 11.885 4.042 12.146 3.227 12.414 C1 13 1 13 -2 13 C-2 13.66 -2 14.32 -2 15 C-0.824 14.691 0.351 14.381 1.562 14.062 C5.367 13.121 9.095 12.411 13 12 C14.067 11.867 14.067 11.867 15.156 11.73 C20.783 11.316 24.01 12.588 28.336 16.199 C30.853 18.923 31.875 21.484 33 25 C29.445 27.37 26.627 27.694 22.473 28.34 C19.724 29.074 18.234 30.288 16 32 C15.01 32 14.02 32 13 32 C13.457 26.973 15.992 23.851 19 20 C16.708 20.141 14.416 20.288 12.125 20.438 C10.849 20.519 9.573 20.6 8.258 20.684 C5.117 20.792 5.117 20.792 3 22 C4.65 23.32 6.3 24.64 8 26 C7.663 29.12 7.379 30.621 5.125 32.875 C4.424 33.246 3.722 33.618 3 34 C2.01 33.67 1.02 33.34 0 33 C-0.289 32.361 -0.578 31.721 -0.875 31.062 C-2.391 28.283 -4.059 27.929 -7 27 C-6.505 25.515 -6.505 25.515 -6 24 C-5.34 24 -4.68 24 -4 24 C-4.495 23.01 -4.495 23.01 -5 22 C-9.484 22.835 -13.968 23.671 -18.452 24.509 C-19.977 24.793 -21.502 25.077 -23.026 25.361 C-25.221 25.77 -27.415 26.18 -29.609 26.59 C-30.289 26.716 -30.968 26.842 -31.668 26.972 C-33.447 27.305 -35.224 27.652 -37 28 C-37.784 28.148 -38.568 28.297 -39.376 28.45 C-41.261 28.897 -41.261 28.897 -42.379 31.215 C-42.769 32.113 -43.16 33.012 -43.562 33.938 C-45.695 38.797 -45.695 38.797 -49 41 C-52.872 41.234 -56.082 40.779 -59.062 38.25 C-60.29 35.303 -59.908 34.05 -59 31 C-57.223 28.281 -57.223 28.281 -55.062 25.5 C-52.418 22.083 -50.417 19.095 -49 15 C-46.688 15.25 -46.688 15.25 -44 16 C-43.544 16.678 -43.087 17.356 -42.617 18.055 C-41.197 20.218 -41.197 20.218 -38.934 20.242 C-38.11 20.121 -37.286 20 -36.438 19.875 C-35.477 19.75 -34.517 19.625 -33.527 19.496 C-31.781 19.251 -31.781 19.251 -30 19 C-27.648 18.724 -25.295 18.463 -22.942 18.206 C-21.33 18.029 -19.718 17.847 -18.107 17.662 C-15.054 17.312 -12.076 17 -9 17 C-8.861 15.888 -8.861 15.888 -8.719 14.754 C-7.889 11.576 -6.767 10.274 -4.5 7.938 C-1.982 5.331 -0.58 3.618 0 0 Z M-36 28 C-35.01 28.33 -34.02 28.66 -33 29 C-33 29.66 -33 30.32 -33 31 C-31.639 30.845 -31.639 30.845 -30.25 30.688 C-27 31 -27 31 -24.812 33.438 C-23.915 34.706 -23.915 34.706 -23 36 C-19.578 37.141 -16.913 37.098 -13.312 37.062 C-12.133 37.053 -10.954 37.044 -9.738 37.035 C-8.835 37.024 -7.931 37.012 -7 37 C-6.67 34.69 -6.34 32.38 -6 30 C-5.432 30.326 -4.863 30.652 -4.277 30.988 C0.394 33.632 5.024 35.988 10 38 C9.812 40.312 9.812 40.312 9 43 C4.966 46 4.966 46 2 46 C2.557 46.557 3.114 47.114 3.688 47.688 C7.344 51.344 7.344 51.344 11 55 C10.505 56.485 10.505 56.485 10 58 C9.01 58.33 8.02 58.66 7 59 C5.428 60.952 5.428 60.952 4 63.312 C2.101 66.304 0.16 69.19 -2 72 C-0.639 72.186 -0.639 72.186 0.75 72.375 C4 73 4 73 5.707 73.969 C9 75.45 12.386 75.73 15.938 76.125 C16.641 76.211 17.344 76.298 18.068 76.387 C21.73 76.819 25.313 77.101 29 77 C28.945 78.828 28.945 78.828 28 81 C25.575 82.149 23.417 82.979 20.875 83.75 C20.223 83.97 19.57 84.191 18.898 84.418 C12.6 86.43 7.037 86.867 0.854 84.076 C-1 83 -1 83 -2.94 81.381 C-7.258 77.835 -7.258 77.835 -12.614 77.23 C-15.473 78.148 -18.144 79.251 -20.875 80.5 C-35.433 86.725 -35.433 86.725 -43 87 C-43.99 86.34 -44.98 85.68 -46 85 C-45.345 84.709 -44.69 84.417 -44.016 84.117 C-36.914 80.927 -29.944 77.518 -23 74 C-21.667 73.332 -20.334 72.665 -19 72 C-19 71.34 -19 70.68 -19 70 C-20.073 69.319 -21.145 68.639 -22.25 67.938 C-22.853 67.555 -23.457 67.172 -24.078 66.777 C-26.565 65.771 -27.515 66.034 -30 67 C-31.651 67.935 -33.275 68.918 -34.875 69.938 C-40.663 73.477 -45.121 75.328 -52 75 C-50.867 71.602 -50.292 71.286 -47.438 69.375 C-40.548 64.39 -34.422 57.843 -31 50 C-30.707 47.237 -30.804 44.791 -31 42 C-30.34 41.67 -29.68 41.34 -29 41 C-30.309 37.878 -30.309 37.878 -33 36 C-33.11 36.615 -33.219 37.23 -33.332 37.863 C-33.57 39.076 -33.57 39.076 -33.812 40.312 C-33.963 41.113 -34.114 41.914 -34.27 42.738 C-35.088 45.272 -35.888 46.399 -38 48 C-40.84 47.858 -42.512 47.325 -44.875 45.75 C-46 44 -46 44 -45.785 41.648 C-44.886 38.614 -43.721 37.164 -41.562 34.875 C-39.458 32.616 -37.723 30.584 -36 28 Z M-21 46 C-20.67 47.65 -20.34 49.3 -20 51 C-17.36 50.67 -14.72 50.34 -12 50 C-12 49.01 -12 48.02 -12 47 C-14.97 46.67 -17.94 46.34 -21 46 Z M-15.125 55.438 C-15.879 55.68 -16.633 55.923 -17.41 56.174 C-19.276 56.776 -21.138 57.387 -23 58 C-23 58.99 -23 59.98 -23 61 C-17.06 63.475 -17.06 63.475 -11 66 C-7.289 62.004 -5.402 59.629 -5 54 C-8.371 52.314 -11.72 54.311 -15.125 55.438 Z " fill="#8B0405" transform="translate(98,113)"/>
<path d="M0 0 C3.425 -0.391 4.79 -0.134 7.75 1.75 C9.974 3.974 10.794 4.911 11 8 C10 10 10 10 8.039 10.852 C7.242 11.107 6.446 11.362 5.625 11.625 C4.834 11.885 4.042 12.146 3.227 12.414 C1 13 1 13 -2 13 C-2 13.66 -2 14.32 -2 15 C-0.824 14.691 0.351 14.381 1.562 14.062 C5.367 13.121 9.095 12.411 13 12 C14.067 11.867 14.067 11.867 15.156 11.73 C20.783 11.316 24.01 12.588 28.336 16.199 C30.853 18.923 31.875 21.484 33 25 C29.445 27.37 26.627 27.694 22.473 28.34 C19.724 29.074 18.234 30.288 16 32 C15.01 32 14.02 32 13 32 C13.329 28.378 14.434 26.182 16.551 23.316 C17.008 22.693 17.464 22.07 17.935 21.428 C18.286 20.957 18.638 20.486 19 20 C15.499 20.111 12 20.241 8.5 20.375 C7.027 20.421 7.027 20.421 5.523 20.469 C0.562 20.667 -3.986 21.059 -8.793 22.416 C-13.874 23.76 -19.088 24.592 -24.25 25.562 C-26.568 26 -28.886 26.439 -31.203 26.879 C-32.221 27.07 -33.238 27.262 -34.286 27.459 C-35.629 27.727 -35.629 27.727 -37 28 C-37.751 28.142 -38.502 28.285 -39.276 28.432 C-41.253 28.879 -41.253 28.879 -42.379 31.215 C-42.769 32.113 -43.16 33.012 -43.562 33.938 C-45.695 38.797 -45.695 38.797 -49 41 C-52.872 41.234 -56.082 40.779 -59.062 38.25 C-60.29 35.303 -59.908 34.05 -59 31 C-57.223 28.281 -57.223 28.281 -55.062 25.5 C-52.418 22.083 -50.417 19.095 -49 15 C-46.688 15.25 -46.688 15.25 -44 16 C-43.544 16.678 -43.087 17.356 -42.617 18.055 C-41.197 20.218 -41.197 20.218 -38.934 20.242 C-38.11 20.121 -37.286 20 -36.438 19.875 C-35.477 19.75 -34.517 19.625 -33.527 19.496 C-31.781 19.251 -31.781 19.251 -30 19 C-27.648 18.724 -25.295 18.463 -22.942 18.206 C-21.33 18.029 -19.718 17.847 -18.107 17.662 C-15.054 17.312 -12.076 17 -9 17 C-8.861 15.888 -8.861 15.888 -8.719 14.754 C-7.889 11.576 -6.767 10.274 -4.5 7.938 C-1.982 5.331 -0.58 3.618 0 0 Z " fill="#AD0405" transform="translate(98,113)"/>
<path d="M0 0 C0.99 0.33 1.98 0.66 3 1 C3 1.66 3 2.32 3 3 C3.907 2.897 4.815 2.794 5.75 2.688 C9 3 9 3 11.188 5.438 C12.085 6.706 12.085 6.706 13 8 C16.422 9.141 19.087 9.098 22.688 9.062 C23.867 9.053 25.046 9.044 26.262 9.035 C27.165 9.024 28.069 9.012 29 9 C29.33 7.68 29.66 6.36 30 5 C32.438 5.75 32.438 5.75 35 7 C36.323 9.929 36.041 10.878 35 14 C35.66 14 36.32 14 37 14 C37 14.66 37 15.32 37 16 C35.02 15.67 33.04 15.34 31 15 C30.34 15.99 29.68 16.98 29 18 C25.961 18.512 25.961 18.512 22.375 18.688 C21.186 18.753 19.998 18.819 18.773 18.887 C17.858 18.924 16.943 18.961 16 19 C16.33 19.99 16.66 20.98 17 22 C20.96 22 24.92 22 29 22 C25.25 26.875 25.25 26.875 23 28 C20.793 28.071 18.583 28.084 16.375 28.062 C15.186 28.053 13.998 28.044 12.773 28.035 C11.858 28.024 10.943 28.012 10 28 C10.33 29.98 10.66 31.96 11 34 C8.03 34.495 8.03 34.495 5 35 C5 35.99 5 36.98 5 38 C2.525 38.495 2.525 38.495 0 39 C-0.812 36.938 -0.812 36.938 -1 34 C0.012 32.391 0.012 32.391 1.375 30.688 C5.351 25.633 5.197 20.298 5 14 C5.66 13.67 6.32 13.34 7 13 C5.691 9.878 5.691 9.878 3 8 C2.89 8.615 2.781 9.23 2.668 9.863 C2.509 10.672 2.351 11.48 2.188 12.312 C2.037 13.113 1.886 13.914 1.73 14.738 C0.912 17.272 0.112 18.399 -2 20 C-4.84 19.858 -6.512 19.325 -8.875 17.75 C-10 16 -10 16 -9.785 13.648 C-8.886 10.614 -7.721 9.164 -5.562 6.875 C-3.458 4.616 -1.723 2.584 0 0 Z M-2 36 C-1.34 36.66 -0.68 37.32 0 38 C-1.75 41.875 -1.75 41.875 -4 43 C-4 43.66 -4 44.32 -4 45 C-8.177 46.591 -11.532 47.213 -16 47 C-14.578 42.733 -11.737 41.294 -8 39 C-6.354 38.284 -4.693 37.597 -3 37 C-2.67 36.67 -2.34 36.34 -2 36 Z " fill="#A60405" transform="translate(62,141)"/>
<path d="M0 0 C5.415 0.433 8.758 1.566 13 5 C13.495 6.485 13.495 6.485 14 8 C10.192 10.503 6.553 11.909 2.188 13.188 C1.026 13.532 -0.135 13.876 -1.332 14.23 C-2.653 14.611 -2.653 14.611 -4 15 C-4 15.66 -4 16.32 -4 17 C-2.866 17.433 -1.731 17.866 -0.562 18.312 C0.613 18.869 1.789 19.426 3 20 C4 23 4 23 2.875 25.625 C1 28 1 28 -1.375 29.125 C-4 29 -4 29 -6.688 26.688 C-7.451 25.801 -8.214 24.914 -9 24 C-9.66 23.34 -10.32 22.68 -11 22 C-11 20.68 -11 19.36 -11 18 C-12.65 17.67 -14.3 17.34 -16 17 C-16 17.66 -16 18.32 -16 19 C-14.04 20.637 -14.04 20.637 -12 22 C-12.263 25.853 -12.573 27.561 -15.312 30.375 C-18 32 -18 32 -22 32 C-22.339 30.585 -22.671 29.168 -23 27.75 C-23.186 26.961 -23.371 26.172 -23.562 25.359 C-24 23 -24 23 -24 19 C-22.68 19 -21.36 19 -20 19 C-19.778 18.401 -19.557 17.801 -19.328 17.184 C-17.579 14.307 -15.752 13.543 -12.75 12.062 C-5.031 8.326 -5.031 8.326 -0.125 1.688 C-0.084 1.131 -0.043 0.574 0 0 Z " fill="#B10406" transform="translate(85,100)"/>
<path d="M0 0 C4.183 0.775 7.602 2.546 10.562 5.625 C14.116 9.024 19.417 8.076 24 8 C20.25 12.875 20.25 12.875 18 14 C15.793 14.071 13.583 14.084 11.375 14.062 C10.186 14.053 8.998 14.044 7.773 14.035 C6.858 14.024 5.943 14.012 5 14 C5.33 15.98 5.66 17.96 6 20 C4.02 20.33 2.04 20.66 0 21 C0 21.99 0 22.98 0 24 C-1.65 24.33 -3.3 24.66 -5 25 C-5.812 22.938 -5.812 22.938 -6 20 C-4.988 18.391 -4.988 18.391 -3.625 16.688 C0.351 11.633 0.197 6.298 0 0 Z M-7 22 C-6.34 22.66 -5.68 23.32 -5 24 C-6.75 27.875 -6.75 27.875 -9 29 C-9 29.66 -9 30.32 -9 31 C-13.177 32.591 -16.532 33.213 -21 33 C-19.578 28.733 -16.737 27.294 -13 25 C-11.354 24.284 -9.693 23.597 -8 23 C-7.67 22.67 -7.34 22.34 -7 22 Z " fill="#A50305" transform="translate(67,155)"/>
<path d="M0 0 C1.78 1.618 2.934 2.855 3.938 5.062 C5.25 7.456 6.51 8.004 9 9 C8.557 9.391 8.113 9.781 7.656 10.184 C5.106 12.981 3.847 16.306 2.281 19.723 C1 22 1 22 -2 24 C-5.872 24.234 -9.082 23.779 -12.062 21.25 C-13.29 18.304 -12.897 17.052 -12 14 C-10.293 11.211 -10.293 11.211 -8.188 8.375 C-7.5 7.434 -6.813 6.493 -6.105 5.523 C-4.205 3.246 -2.451 1.641 0 0 Z M7 5 C8.65 5 10.3 5 12 5 C11.67 5.66 11.34 6.32 11 7 C9.68 6.34 8.36 5.68 7 5 Z " fill="#B60406" transform="translate(51,130)"/>
<path d="M0 0 C1.733 0.681 1.733 0.681 3.5 1.375 C11.784 4.158 21.289 5.219 30 5 C29.945 6.828 29.945 6.828 29 9 C26.575 10.149 24.417 10.979 21.875 11.75 C21.223 11.97 20.57 12.191 19.898 12.418 C13.643 14.416 7.966 14.947 1.844 12.066 C-1.671 10.034 -4.839 7.537 -8 5 C-4.77 5 -2.962 5.815 0 7 C0.99 7 1.98 7 3 7 C3.33 5.68 3.66 4.36 4 3 C2.68 2.34 1.36 1.68 0 1 C0 0.67 0 0.34 0 0 Z M4 8 C5 10 5 10 5 10 Z " fill="#7A0404" transform="translate(97,185)"/>
<path d="M0 0 C2.31 0 4.62 0 7 0 C7 0.99 7 1.98 7 3 C8.94 4.705 8.94 4.705 11 6 C10.663 9.12 10.379 10.621 8.125 12.875 C7.424 13.246 6.722 13.618 6 14 C5.01 13.67 4.02 13.34 3 13 C2.711 12.361 2.422 11.721 2.125 11.062 C0.609 8.283 -1.059 7.929 -4 7 C-3.67 6.01 -3.34 5.02 -3 4 C-2.34 4 -1.68 4 -1 4 C-0.67 2.68 -0.34 1.36 0 0 Z M-3 10 C-2.432 10.326 -1.863 10.652 -1.277 10.988 C3.394 13.632 8.024 15.988 13 18 C12.812 20.312 12.812 20.312 12 23 C9.152 25.155 6.505 26.351 3 27 C3.33 25.35 3.66 23.7 4 22 C3.34 22 2.68 22 2 22 C2.155 20.608 2.155 20.608 2.312 19.188 C2.209 18.136 2.106 17.084 2 16 C-0.445 14.283 -0.445 14.283 -3 13 C-3 12.01 -3 11.02 -3 10 Z " fill="#960506" transform="translate(95,133)"/>
<path d="M0 0 C4.788 0.116 7.578 1.667 11.211 4.699 C13.728 7.423 14.75 9.984 15.875 13.5 C12.32 15.87 9.502 16.194 5.348 16.84 C2.599 17.574 1.109 18.788 -1.125 20.5 C-2.115 20.5 -3.105 20.5 -4.125 20.5 C-3.68 15.456 -1.515 13.056 1.875 9.5 C2.535 9.5 3.195 9.5 3.875 9.5 C4.257 7.844 4.589 6.175 4.875 4.5 C3.212 2.837 1.092 3.14 -1.188 2.938 C-2.566 2.812 -2.566 2.812 -3.973 2.684 C-5.038 2.593 -5.038 2.593 -6.125 2.5 C-3.8 0.175 -3.178 0.133 0 0 Z " fill="#890607" transform="translate(115.125,124.5)"/>
<path d="M0 0 C2.129 0.891 2.129 0.891 4.562 2.25 C5.771 2.907 5.771 2.907 7.004 3.578 C9 5 9 5 10 8 C3.508 12.398 -3.34 13.928 -11 15 C-12.485 15.99 -12.485 15.99 -14 17 C-14.66 16.67 -15.32 16.34 -16 16 C-14.445 11.335 -10.534 9.72 -6.566 7.035 C-4.057 5.045 -3.229 3.86 -2 1 C-1.34 0.67 -0.68 0.34 0 0 Z " fill="#C60305" transform="translate(89,100)"/>
<path d="M0 0 C3.425 -0.391 4.79 -0.134 7.75 1.75 C9.974 3.974 10.794 4.911 11 8 C10 10 10 10 8.039 10.852 C7.242 11.107 6.446 11.362 5.625 11.625 C4.834 11.885 4.042 12.146 3.227 12.414 C1 13 1 13 -2 13 C-2 13.66 -2 14.32 -2 15 C-1.34 15.33 -0.68 15.66 0 16 C-1.98 16.99 -1.98 16.99 -4 18 C-4.33 17.01 -4.66 16.02 -5 15 C-7.015 14.267 -7.015 14.267 -9 14 C-8.434 13.325 -7.868 12.649 -7.285 11.953 C-6.552 11.061 -5.818 10.169 -5.062 9.25 C-4.332 8.368 -3.601 7.487 -2.848 6.578 C-1.17 4.237 -0.413 2.803 0 0 Z M-8 16 C-6.02 16.495 -6.02 16.495 -4 17 C-5.65 17.33 -7.3 17.66 -9 18 C-8.67 17.34 -8.34 16.68 -8 16 Z " fill="#A70607" transform="translate(98,113)"/>
<path d="M0 0 C1.78 1.618 2.934 2.855 3.938 5.062 C5.029 7.489 5.029 7.489 9 9 C6.03 9.66 3.06 10.32 0 11 C0.33 12.32 0.66 13.64 1 15 C0.01 15 -0.98 15 -2 15 C-2.33 14.34 -2.66 13.68 -3 13 C-4.98 15.97 -4.98 15.97 -7 19 C-8.32 18.67 -9.64 18.34 -11 18 C-10.236 16.559 -9.463 15.122 -8.688 13.688 C-8.258 12.887 -7.829 12.086 -7.387 11.262 C-6.095 9.155 -4.753 7.713 -3 6 C-2.638 4.674 -2.303 3.341 -2 2 C-1.34 1.34 -0.68 0.68 0 0 Z M7 5 C8.65 5 10.3 5 12 5 C11.67 5.66 11.34 6.32 11 7 C9.68 6.34 8.36 5.68 7 5 Z M-3 18 C-2.34 18.99 -1.68 19.98 -1 21 C-2.65 21.33 -4.3 21.66 -6 22 C-6.33 21.01 -6.66 20.02 -7 19 C-5.68 18.67 -4.36 18.34 -3 18 Z " fill="#D00203" transform="translate(51,130)"/>
<path d="M0 0 C2.183 3.458 2.073 5.598 1.312 9.562 C1.144 10.513 0.975 11.463 0.801 12.441 C-0.046 15.148 -0.726 16.335 -3 18 C-5.84 17.858 -7.512 17.325 -9.875 15.75 C-11 14 -11 14 -10.875 11.5 C-9.949 8.854 -9.251 7.645 -7 6 C-6.01 6 -5.02 6 -4 6 C-4 5.34 -4 4.68 -4 4 C-3.34 4 -2.68 4 -2 4 C-1.34 2.68 -0.68 1.36 0 0 Z " fill="#AE0507" transform="translate(63,143)"/>
<path d="M0 0 C1.33 0.257 1.33 0.257 2.688 0.52 C5 1.188 5 1.188 7 3.188 C6.84 6.306 6.394 7.766 4.25 10.062 C2 11.188 2 11.188 -0.562 11.188 C-3.844 9.841 -4.549 8.38 -6 5.188 C-6.688 2.375 -6.688 2.375 -7 0.188 C-4.319 -1.153 -2.911 -0.588 0 0 Z " fill="#A10607" transform="translate(82,138.8125)"/>
<path d="M0 0 C2.475 0.495 2.475 0.495 5 1 C3.68 1.33 2.36 1.66 1 2 C0.67 1.34 0.34 0.68 0 0 Z M5 2 C6.051 2.217 7.101 2.433 8.184 2.656 C15.547 4.131 22.452 5.404 30 5 C29.945 6.828 29.945 6.828 29 9 C26.575 10.149 24.417 10.979 21.875 11.75 C21.223 11.97 20.57 12.191 19.898 12.418 C15.52 13.817 11.64 14.393 7 14 C6.34 13.34 5.68 12.68 5 12 C5.957 11.927 5.957 11.927 6.934 11.852 C8.173 11.739 8.173 11.739 9.438 11.625 C10.261 11.555 11.085 11.486 11.934 11.414 C12.616 11.277 13.297 11.141 14 11 C14.33 10.34 14.66 9.68 15 9 C16.98 9 18.96 9 21 9 C20.67 8.34 20.34 7.68 20 7 C18.075 6.606 18.075 6.606 15.812 6.5 C11.954 6.161 8.636 5.398 5 4 C5 3.34 5 2.68 5 2 Z " fill="#600B0B" transform="translate(97,185)"/>
<path d="M0 0 C2.31 0 4.62 0 7 0 C7 0.99 7 1.98 7 3 C7.66 3.66 8.32 4.32 9 5 C8.938 7.5 8.938 7.5 8 10 C5.438 11.312 5.438 11.312 3 12 C2.34 11.01 1.68 10.02 1 9 C-1.552 7.795 -1.552 7.795 -4 7 C-3.67 6.01 -3.34 5.02 -3 4 C-2.34 4 -1.68 4 -1 4 C-0.67 2.68 -0.34 1.36 0 0 Z " fill="#9D0405" transform="translate(95,133)"/>
<path d="M0 0 C0.33 0.66 0.66 1.32 1 2 C1.66 2.289 2.32 2.578 3 2.875 C5 4 5 4 5.75 6.125 C5.874 7.053 5.874 7.053 6 8 C4.35 9.32 2.7 10.64 1 12 C-2 10 -2 10 -2.512 8.055 C-2.674 6.036 -2.837 4.018 -3 2 C-2.01 1.34 -1.02 0.68 0 0 Z " fill="#BB0305" transform="translate(65,119)"/>
<path d="M0 0 C0.99 0.33 1.98 0.66 3 1 C3 1.66 3 2.32 3 3 C3.907 2.876 4.815 2.752 5.75 2.625 C6.823 2.749 7.895 2.873 9 3 C11.375 6 11.375 6 13 9 C11 8 9 7 7 6 C7.33 7.32 7.66 8.64 8 10 C5.525 9.01 5.525 9.01 3 8 C2.67 8.99 2.34 9.98 2 11 C1.67 8.36 1.34 5.72 1 3 C0.01 4.485 0.01 4.485 -1 6 C-1.66 5.67 -2.32 5.34 -3 5 C-2.01 3.35 -1.02 1.7 0 0 Z M-4 6 C-3.67 6.66 -3.34 7.32 -3 8 C-3.66 7.67 -4.32 7.34 -5 7 C-4.67 6.67 -4.34 6.34 -4 6 Z " fill="#8A0506" transform="translate(62,141)"/>
<path d="M0 0 C0.66 0.33 1.32 0.66 2 1 C1.01 2.32 0.02 3.64 -1 5 C0.65 5.99 2.3 6.98 4 8 C3.737 11.853 3.427 13.561 0.688 16.375 C-2 18 -2 18 -6 18 C-5.67 17.01 -5.34 16.02 -5 15 C-4.34 15.33 -3.68 15.66 -3 16 C-1.68 15.01 -0.36 14.02 1 13 C0.458 9.204 -1.201 7.528 -4 5 C-2.25 1.125 -2.25 1.125 0 0 Z M-8 5 C-6.68 5.33 -5.36 5.66 -4 6 C-5.32 6.99 -6.64 7.98 -8 9 C-8 7.68 -8 6.36 -8 5 Z " fill="#8E0709" transform="translate(69,114)"/>
<path d="M0 0 C0.33 0.99 0.66 1.98 1 3 C-0.512 5.664 -0.512 5.664 -2.688 8.625 C-3.745 10.098 -3.745 10.098 -4.824 11.602 C-6.989 13.988 -7.861 14.702 -11 15 C-10.625 14.504 -10.25 14.007 -9.863 13.496 C-6.508 9.043 -3.223 4.55 0 0 Z M-5 14 C-2.69 14 -0.38 14 2 14 C-1.019 17.483 -3.569 18.792 -8 20 C-8.33 19.34 -8.66 18.68 -9 18 C-8.01 17.67 -7.02 17.34 -6 17 C-5.67 16.01 -5.34 15.02 -5 14 Z " fill="#900708" transform="translate(66,165)"/>
<path d="M0 0 C0.66 0 1.32 0 2 0 C2.99 2.31 3.98 4.62 5 7 C1.838 9.108 0.493 9.338 -3.188 9.625 C-4.089 9.7 -4.99 9.775 -5.918 9.852 C-6.605 9.901 -7.292 9.95 -8 10 C-7.59 9.529 -7.18 9.059 -6.758 8.574 C-6.219 7.952 -5.68 7.329 -5.125 6.688 C-4.591 6.073 -4.058 5.458 -3.508 4.824 C-1.836 2.865 -1.836 2.865 0 0 Z " fill="#8C0405" transform="translate(126,131)"/>
<path d="M0 0 C-3.75 4.875 -3.75 4.875 -6 6 C-8.333 6.04 -10.667 6.043 -13 6 C-12.67 4.35 -12.34 2.7 -12 1 C-8.019 -0.327 -4.15 -0.069 0 0 Z " fill="#960506" transform="translate(91,163)"/>
<path d="M0 0 C1.32 0.33 2.64 0.66 4 1 C2.35 2.98 0.7 4.96 -1 7 C-1.66 6.67 -2.32 6.34 -3 6 C-2.34 5.34 -1.68 4.68 -1 4 C-0.357 1.931 -0.357 1.931 0 0 Z M-5 7 C-4.34 7.33 -3.68 7.66 -3 8 C-3.99 8.99 -4.98 9.98 -6 11 C-6.66 10.67 -7.32 10.34 -8 10 C-7.01 9.01 -6.02 8.02 -5 7 Z M-10 11 C-9.34 11.33 -8.68 11.66 -8 12 C-8.99 12.66 -9.98 13.32 -11 14 C-11 15.32 -11 16.64 -11 18 C-12.65 17.67 -14.3 17.34 -16 17 C-14.985 14.464 -14.315 13.206 -12 11.688 C-11.34 11.461 -10.68 11.234 -10 11 Z M-17 17 C-16.67 17.66 -16.34 18.32 -16 19 C-16.66 18.67 -17.32 18.34 -18 18 C-17.67 17.67 -17.34 17.34 -17 17 Z " fill="#BA0406" transform="translate(85,100)"/>
<path d="M0 0 C2.438 0.812 2.438 0.812 5 2 C5.33 2.99 5.66 3.98 6 5 C1.599 8.123 -2.795 9.036 -8 10 C-5.725 6.587 -3.382 5.254 0 3 C0.66 3 1.32 3 2 3 C1.34 2.01 0.68 1.02 0 0 Z " fill="#A6080A" transform="translate(93,103)"/>
<path d="M0 0 C0 3 0 3 -1 5 C-0.34 5.33 0.32 5.66 1 6 C1 6.66 1 7.32 1 8 C1.66 8.33 2.32 8.66 3 9 C1.02 9.99 1.02 9.99 -1 11 C-1.33 10.01 -1.66 9.02 -2 8 C-3.32 7.67 -4.64 7.34 -6 7 C-4.02 4.69 -2.04 2.38 0 0 Z M-5 9 C-3.02 9.495 -3.02 9.495 -1 10 C-2.65 10.33 -4.3 10.66 -6 11 C-5.67 10.34 -5.34 9.68 -5 9 Z " fill="#850506" transform="translate(95,120)"/>
<path d="M0 0 C0.66 0.33 1.32 0.66 2 1 C1.34 1.66 0.68 2.32 0 3 C0.99 3.66 1.98 4.32 3 5 C1.232 5.39 -0.539 5.762 -2.312 6.125 C-3.299 6.334 -4.285 6.543 -5.301 6.758 C-8 7 -8 7 -11 5 C-9.213 4.136 -7.42 3.284 -5.625 2.438 C-4.627 1.962 -3.63 1.486 -2.602 0.996 C-1.743 0.667 -0.885 0.339 0 0 Z " fill="#74090A" transform="translate(63,193)"/>
<path d="M0 0 C0.66 0.33 1.32 0.66 2 1 C1.663 4.12 1.379 5.621 -0.875 7.875 C-1.576 8.246 -2.278 8.618 -3 9 C-3.99 8.67 -4.98 8.34 -6 8 C-4.793 7.134 -4.793 7.134 -3.562 6.25 C-1.021 4.019 -0.349 3.255 0 0 Z M-12 5 C-8.535 6.98 -8.535 6.98 -5 9 C-5.66 9.66 -6.32 10.32 -7 11 C-9.5 9.688 -9.5 9.688 -12 8 C-12 7.01 -12 6.02 -12 5 Z " fill="#7F0708" transform="translate(104,138)"/>
<path d="M0 0 C0.66 0.33 1.32 0.66 2 1 C-0.71 6.629 -3.94 11.281 -8 16 C-8.33 15.01 -8.66 14.02 -9 13 C-7.597 10.647 -6.178 8.509 -4.562 6.312 C-4.129 5.706 -3.695 5.099 -3.248 4.475 C-2.175 2.976 -1.088 1.487 0 0 Z " fill="#A9080A" transform="translate(47,133)"/>
<path d="M0 0 C0.33 0.66 0.66 1.32 1 2 C0.34 1.67 -0.32 1.34 -1 1 C-0.67 0.67 -0.34 0.34 0 0 Z M-2 2 C-1.67 2.66 -1.34 3.32 -1 4 C-1.66 3.67 -2.32 3.34 -3 3 C-2.67 2.67 -2.34 2.34 -2 2 Z M0 3 C0.66 3.33 1.32 3.66 2 4 C2 4.99 2 5.98 2 7 C0.329 7.464 0.329 7.464 -1.375 7.938 C-4.795 8.823 -4.795 8.823 -7 10 C-7.66 9.67 -8.32 9.34 -9 9 C-8.67 8.01 -8.34 7.02 -8 6 C-5.69 5.257 -3.354 4.589 -1 4 C-0.67 3.67 -0.34 3.34 0 3 Z " fill="#BD0305" transform="translate(82,107)"/>
<path d="M0 0 C0.66 0.99 1.32 1.98 2 3 C-3.415 6.077 -3.415 6.077 -6.375 5.688 C-6.911 5.461 -7.448 5.234 -8 5 C-8 4.34 -8 3.68 -8 3 C-7.34 3 -6.68 3 -6 3 C-5.67 2.34 -5.34 1.68 -5 1 C-2.438 0.375 -2.438 0.375 0 0 Z M-12 5 C-10.68 5.33 -9.36 5.66 -8 6 C-9.32 6.33 -10.64 6.66 -12 7 C-12 6.34 -12 5.68 -12 5 Z " fill="#D00203" transform="translate(89,106)"/>
<path d="M0 0 C0.99 0.33 1.98 0.66 3 1 C3 1.66 3 2.32 3 3 C3.33 3.66 3.66 4.32 4 5 C2.35 5.33 0.7 5.66 -1 6 C-1.33 7.32 -1.66 8.64 -2 10 C-4 8 -4 8 -4.375 5.562 C-4 3 -4 3 -2.188 1.125 C-1.466 0.754 -0.744 0.382 0 0 Z " fill="#950404" transform="translate(78,114)"/>
<path d="M0 0 C1.65 0.33 3.3 0.66 5 1 C5.33 2.65 5.66 4.3 6 6 C4.68 5.01 3.36 4.02 2 3 C0.515 3.99 0.515 3.99 -1 5 C-0.67 3.35 -0.34 1.7 0 0 Z M3 6 C5 7 5 7 5 7 Z M5 7 C6.32 7.33 7.64 7.66 9 8 C7.515 8.99 7.515 8.99 6 10 C5.67 9.01 5.34 8.02 5 7 Z " fill="#C20305" transform="translate(49,128)"/>
<path d="M0 0 C0.33 0.66 0.66 1.32 1 2 C1.99 2.33 2.98 2.66 4 3 C4 4.65 4 6.3 4 8 C2.02 8.99 2.02 8.99 0 10 C0.33 8.68 0.66 7.36 1 6 C0.01 5.67 -0.98 5.34 -2 5 C-2 4.01 -2 3.02 -2 2 C-1.34 2 -0.68 2 0 2 C0 1.34 0 0.68 0 0 Z " fill="#D00203" transform="translate(65,119)"/>
<path d="M0 0 C0.99 0.33 1.98 0.66 3 1 C2.67 1.99 2.34 2.98 2 4 C-1.521 5.174 -4.306 5.201 -8 5 C-8.66 4.34 -9.32 3.68 -10 3 C-9.362 2.951 -8.724 2.902 -8.066 2.852 C-7.24 2.777 -6.414 2.702 -5.562 2.625 C-4.739 2.555 -3.915 2.486 -3.066 2.414 C-2.384 2.277 -1.703 2.141 -1 2 C-0.67 1.34 -0.34 0.68 0 0 Z " fill="#650C0C" transform="translate(112,194)"/>
<path d="M0 0 C0 3 0 3 -1.5 4.688 C-1.995 5.121 -2.49 5.554 -3 6 C0.465 5.505 0.465 5.505 4 5 C0.965 7.024 -0.194 7.321 -3.688 7.625 C-4.496 7.7 -5.304 7.775 -6.137 7.852 C-7.059 7.925 -7.059 7.925 -8 8 C-6.883 4.65 -6.253 4.207 -3.438 2.312 C-2.797 1.876 -2.156 1.439 -1.496 0.988 C-0.756 0.499 -0.756 0.499 0 0 Z " fill="#840C0E" transform="translate(54,180)"/>
<path d="M0 0 C0.99 0.33 1.98 0.66 3 1 C1.935 3.131 0.708 4.366 -1 6 C-1.66 5.67 -2.32 5.34 -3 5 C-2.01 3.35 -1.02 1.7 0 0 Z M3 3 C3.66 3 4.32 3 5 3 C5 3.66 5 4.32 5 5 C4.34 5 3.68 5 3 5 C3 4.34 3 3.68 3 3 Z M-4 6 C-3.67 6.66 -3.34 7.32 -3 8 C-3.66 7.67 -4.32 7.34 -5 7 C-4.67 6.67 -4.34 6.34 -4 6 Z " fill="#870506" transform="translate(62,141)"/>
<path d="M0 0 C0.66 0.33 1.32 0.66 2 1 C1.812 2.812 1.812 2.812 1 5 C-1.562 6.75 -1.562 6.75 -4 8 C-4.33 7.34 -4.66 6.68 -5 6 C-4.361 5.752 -3.721 5.505 -3.062 5.25 C-0.813 4.184 -0.813 4.184 -0.25 1.875 C-0.168 1.256 -0.085 0.638 0 0 Z " fill="#C40305" transform="translate(69,123)"/>
<path d="M0 0 C1.32 0.33 2.64 0.66 4 1 C2.35 2.98 0.7 4.96 -1 7 C-1.66 6.67 -2.32 6.34 -3 6 C-2.34 5.34 -1.68 4.68 -1 4 C-0.357 1.931 -0.357 1.931 0 0 Z " fill="#A30B0E" transform="translate(85,100)"/>
<path d="M0 0 C1.98 0.99 1.98 0.99 4 2 C2.02 2.99 2.02 2.99 0 4 C0 2.68 0 1.36 0 0 Z M-4 2 C-2.02 2.495 -2.02 2.495 0 3 C-1.65 3.33 -3.3 3.66 -5 4 C-4.67 3.34 -4.34 2.68 -4 2 Z " fill="#8C0303" transform="translate(94,127)"/>
<path d="M0 0 C0.99 0.66 1.98 1.32 3 2 C1.68 2.99 0.36 3.98 -1 5 C-1.66 4.67 -2.32 4.34 -3 4 C-2.67 3.01 -2.34 2.02 -2 1 C-1.34 0.67 -0.68 0.34 0 0 Z " fill="#C50204" transform="translate(76,112)"/>
<path d="M0 0 C0.66 0.66 1.32 1.32 2 2 C-0.97 4.475 -0.97 4.475 -4 7 C-3.688 4.625 -3.688 4.625 -3 2 C-2.01 1.34 -1.02 0.68 0 0 Z " fill="#B10709" transform="translate(42,142)"/>
<path d="M0 0 C1.32 0.33 2.64 0.66 4 1 C2.68 2.32 1.36 3.64 0 5 C-0.66 4.67 -1.32 4.34 -2 4 C-1.34 2.68 -0.68 1.36 0 0 Z " fill="#9C0303" transform="translate(87,163)"/>
<path d="M0 0 C0.66 0 1.32 0 2 0 C0.951 2.622 0.351 3.794 -2.125 5.25 C-2.744 5.498 -3.362 5.745 -4 6 C-1.125 1.125 -1.125 1.125 0 0 Z " fill="#A60304" transform="translate(123,132)"/>
<path d="M0 0 C1.32 0.33 2.64 0.66 4 1 C0.25 4 0.25 4 -2 4 C-1.34 2.68 -0.68 1.36 0 0 Z " fill="#860B0D" transform="translate(64,179)"/>
<path d="M0 0 C2.97 0 5.94 0 9 0 C8.67 0.99 8.34 1.98 8 3 C5.36 2.34 2.72 1.68 0 1 C0 0.67 0 0.34 0 0 Z " fill="#920506" transform="translate(80,159)"/>
<path d="M0 0 C0.66 0.99 1.32 1.98 2 3 C0.35 3.33 -1.3 3.66 -3 4 C-3 3.01 -3 2.02 -3 1 C-2.01 0.67 -1.02 0.34 0 0 Z " fill="#D10203" transform="translate(48,148)"/>
<path d="M0 0 C1.98 0.495 1.98 0.495 4 1 C2.35 2.32 0.7 3.64 -1 5 C-0.67 3.35 -0.34 1.7 0 0 Z " fill="#A40B0E" transform="translate(49,128)"/>
<path d="M0 0 C2.475 0.495 2.475 0.495 5 1 C4.01 1.495 4.01 1.495 3 2 C3 2.66 3 3.32 3 4 C2.01 3.67 1.02 3.34 0 3 C0 2.01 0 1.02 0 0 Z " fill="#990404" transform="translate(66,175)"/>
<path d="M0 0 C-0.33 1.32 -0.66 2.64 -1 4 C-2.32 3.67 -3.64 3.34 -5 3 C-2.25 0 -2.25 0 0 0 Z " fill="#520908" transform="translate(127,190)"/>
<path d="M0 0 C0.66 0.66 1.32 1.32 2 2 C0.68 2.33 -0.64 2.66 -2 3 C-1.34 2.01 -0.68 1.02 0 0 Z " fill="#8D090B" transform="translate(57,177)"/>
<path d="M0 0 C0.66 0.33 1.32 0.66 2 1 C1.01 2.485 1.01 2.485 0 4 C-0.99 3.67 -1.98 3.34 -3 3 C-2.01 2.01 -1.02 1.02 0 0 Z " fill="#950303" transform="translate(65,193)"/>
<path d="M0 0 C0.66 1.32 1.32 2.64 2 4 C0.68 4.33 -0.64 4.66 -2 5 C-1.34 3.35 -0.68 1.7 0 0 Z " fill="#710B0C" transform="translate(107,166)"/>
<path d="M0 0 C0.99 0 1.98 0 3 0 C2.34 1.32 1.68 2.64 1 4 C0.34 3.67 -0.32 3.34 -1 3 C-0.67 2.01 -0.34 1.02 0 0 Z " fill="#9B0303" transform="translate(92,150)"/>
<path d="M0 0 C0.99 0.33 1.98 0.66 3 1 C1.515 1.99 1.515 1.99 0 3 C0 2.01 0 1.02 0 0 Z " fill="#C70305" transform="translate(55,135)"/>
<path d="M0 0 C0.99 0.33 1.98 0.66 3 1 C3 1.66 3 2.32 3 3 C2.01 2.67 1.02 2.34 0 2 C0 1.34 0 0.68 0 0 Z " fill="#A40607" transform="translate(116,131)"/>
<path d="M0 0 C0.99 0.33 1.98 0.66 3 1 C2.67 1.66 2.34 2.32 2 3 C1.34 3 0.68 3 0 3 C0 2.01 0 1.02 0 0 Z " fill="#58090A" transform="translate(128,136)"/>
</svg>