
<!-- Generator: visioncortex VTracer 0.6.4 -->
<svg version="1.1" xmlns="http://www.w3.org/2000/svg" viewBox="0 0 500 500" preserveAspectRatio="xMidYMid meet">
<path d="M0 0 C1.504 0.002 3.009 0.009 4.513 0.021 C5.34 0.024 6.166 0.026 7.018 0.029 C9.812 0.039 12.606 0.056 15.4 0.073 C17.396 0.081 19.392 0.089 21.388 0.097 C26.841 0.119 32.294 0.148 37.748 0.178 C43.489 0.209 49.231 0.234 54.973 0.261 C64.665 0.306 74.357 0.355 84.048 0.407 C95.134 0.466 106.219 0.519 117.305 0.569 C128.048 0.617 138.791 0.67 149.534 0.724 C154.058 0.747 158.581 0.769 163.105 0.789 C186.154 0.893 209.197 1.092 232.242 1.57 C233.225 1.589 234.209 1.608 235.223 1.627 C237.966 1.682 240.709 1.743 243.452 1.806 C244.266 1.822 245.08 1.837 245.919 1.853 C251.493 1.995 251.493 1.995 253.723 3.11 C254.539 5.149 254.539 5.149 255.286 7.735 C255.534 8.573 255.783 9.411 256.039 10.274 C260.338 28.109 257.886 45.398 248.868 61.29 C243.796 69.352 237.141 76.001 230.411 82.673 C229.505 83.586 228.599 84.499 227.666 85.44 C226.802 86.302 225.938 87.164 225.047 88.052 C224.264 88.832 223.481 89.613 222.675 90.417 C220.723 92.11 220.723 92.11 218.723 92.11 C218.47 92.684 218.218 93.257 217.957 93.849 C216.572 96.386 214.951 98.193 212.973 100.298 C202.412 112.024 196.333 124.718 196.512 140.638 C197.136 150.908 200.478 161.874 207.914 169.298 C209.723 171.11 209.723 171.11 209.723 173.11 C210.383 173.11 211.043 173.11 211.723 173.11 C212.883 174.236 214.035 175.369 215.149 176.54 C217.666 179.051 220.42 181.284 223.149 183.559 C223.668 184.071 224.188 184.583 224.723 185.11 C224.723 185.77 224.723 186.43 224.723 187.11 C225.253 187.318 225.783 187.525 226.328 187.739 C229.708 189.674 232.306 192.31 235.036 195.048 C235.613 195.627 236.19 196.206 236.785 196.802 C241.623 201.779 245.374 207.023 248.723 213.11 C249.107 213.725 249.491 214.34 249.887 214.974 C261.307 234.631 259.867 264.911 254.512 286.075 C251.15 298.683 251.15 298.683 249.723 300.11 C248.376 300.211 247.024 300.243 245.673 300.247 C244.795 300.252 243.917 300.257 243.012 300.263 C242.037 300.263 241.061 300.264 240.056 300.264 C239.028 300.269 238 300.273 236.942 300.277 C233.469 300.291 229.997 300.297 226.524 300.303 C224.046 300.311 221.568 300.319 219.09 300.328 C211.633 300.352 204.177 300.367 196.72 300.38 C194.615 300.384 192.51 300.388 190.405 300.392 C177.346 300.417 164.286 300.439 151.226 300.451 C148.2 300.454 145.173 300.457 142.146 300.46 C141.394 300.461 140.642 300.462 139.867 300.463 C127.673 300.475 115.479 300.508 103.285 300.55 C90.777 300.592 78.269 300.616 65.761 300.621 C58.734 300.625 51.706 300.637 44.679 300.669 C38.072 300.7 31.465 300.706 24.857 300.694 C22.427 300.694 19.996 300.702 17.566 300.72 C14.258 300.742 10.952 300.734 7.644 300.718 C6.673 300.732 5.702 300.746 4.701 300.76 C2.272 300.731 0.087 300.667 -2.277 300.11 C-5.514 296.471 -6.311 291.905 -7.402 287.235 C-7.571 286.553 -7.74 285.871 -7.914 285.169 C-12.007 268.247 -11.667 249.158 -8.277 232.11 C-8.044 230.886 -7.81 229.661 -7.57 228.399 C-3.966 212.436 4.465 201.402 16.254 190.482 C19.259 187.676 22.12 184.723 25.004 181.794 C25.736 181.053 26.469 180.311 27.223 179.548 C27.955 178.804 28.687 178.06 29.442 177.294 C31.723 175.11 31.723 175.11 34.254 173.114 C43.491 165.616 49.19 154.849 50.723 143.11 C51.409 134.435 50.693 125.038 46.118 117.446 C44.723 115.11 44.723 115.11 44.723 112.11 C43.888 111.801 43.888 111.801 43.036 111.485 C40.483 109.968 39.044 108.145 37.219 105.837 C34.021 102.146 30.114 98.306 25.723 96.11 C25.723 95.45 25.723 94.79 25.723 94.11 C25.063 94.11 24.403 94.11 23.723 94.11 C20.367 91.02 17.566 87.663 14.723 84.11 C13.96 83.347 13.197 82.584 12.411 81.798 C10.209 79.596 8.107 77.369 6.036 75.048 C5.454 74.397 4.873 73.746 4.274 73.075 C1.866 70.024 0.723 68.036 0.723 64.11 C0.063 64.11 -0.597 64.11 -1.277 64.11 C-7.955 47.16 -10.709 33.369 -7.902 15.235 C-7.713 14.004 -7.713 14.004 -7.52 12.748 C-5.453 0.183 -5.453 0.183 0 0 Z M14.723 24.11 C15.199 37.598 20.114 48.136 27.723 59.11 C28.326 60.011 28.93 60.912 29.551 61.841 C32.634 66.379 35.734 70.32 39.723 74.11 C40.9 75.434 42.066 76.769 43.223 78.11 C46.425 81.802 49.764 85.284 53.34 88.618 C67.144 101.809 74.478 117.908 75.036 136.86 C74.686 153.599 70.315 167.959 59.723 181.11 C59.723 181.77 59.723 182.43 59.723 183.11 C58.733 183.44 57.743 183.77 56.723 184.11 C55.204 185.611 55.204 185.611 53.707 187.505 C48.682 193.43 43.091 198.776 37.537 204.2 C36.141 205.566 34.752 206.937 33.364 208.309 C32.544 209.112 31.725 209.915 30.88 210.742 C28.762 213.067 27.315 215.413 25.723 218.11 C25.063 218.44 24.403 218.77 23.723 219.11 C12.793 235.041 10.422 253.513 13.153 272.224 C13.422 274.995 13.422 274.995 14.723 276.11 C16.614 276.264 18.511 276.349 20.408 276.407 C21.644 276.447 22.88 276.487 24.153 276.528 C25.536 276.568 26.918 276.607 28.301 276.645 C29.747 276.689 31.192 276.732 32.637 276.776 C37.416 276.918 42.194 277.046 46.973 277.173 C47.794 277.195 48.615 277.217 49.461 277.24 C100.616 278.61 151.759 278.753 202.911 277.173 C203.979 277.14 203.979 277.14 205.069 277.107 C209.718 276.964 214.367 276.809 219.016 276.645 C220.183 276.607 221.35 276.568 222.552 276.528 C223.607 276.488 224.663 276.448 225.751 276.407 C226.669 276.374 227.587 276.341 228.533 276.306 C230.766 276.241 230.766 276.241 232.723 275.11 C237.342 261.253 234.311 241.285 227.957 228.376 C223.244 219.451 217.196 210.935 209.723 204.11 C209.063 204.11 208.403 204.11 207.723 204.11 C207.723 203.45 207.723 202.79 207.723 202.11 C207.063 202.11 206.403 202.11 205.723 202.11 C205.469 201.517 205.215 200.924 204.953 200.313 C203.587 197.866 202.206 196.617 200.036 194.86 C194.895 190.516 190.459 185.714 186.723 180.11 C186.063 180.11 185.403 180.11 184.723 180.11 C184.464 179.406 184.205 178.703 183.938 177.977 C182.625 174.879 180.999 172.131 179.286 169.235 C173.32 158.088 172.477 147.263 172.348 134.86 C172.334 133.867 172.32 132.873 172.305 131.849 C172.452 109.394 185.555 95.131 200.625 80.235 C202.155 78.728 203.693 77.23 205.246 75.747 C206.946 74.23 206.946 74.23 206.723 72.11 C207.713 71.78 208.703 71.45 209.723 71.11 C209.723 70.45 209.723 69.79 209.723 69.11 C210.383 69.11 211.043 69.11 211.723 69.11 C211.723 68.45 211.723 67.79 211.723 67.11 C212.383 67.11 213.043 67.11 213.723 67.11 C224.294 55.397 231.875 39.917 231.723 24.11 C191.904 23.171 152.107 22.951 112.279 22.982 C105.942 22.986 99.605 22.983 93.268 22.978 C87.022 22.973 80.776 22.973 74.53 22.975 C70.857 22.977 67.184 22.977 63.511 22.974 C47.221 22.961 30.989 23.174 14.723 24.11 Z " fill="#EDEDED" transform="translate(126.27699661254883,137.8897762298584)"/>
<path d="M0 0 C0.987 -0.002 1.975 -0.005 2.992 -0.007 C6.286 -0.013 9.58 -0.012 12.874 -0.012 C15.242 -0.015 17.609 -0.018 19.976 -0.022 C26.396 -0.031 32.815 -0.033 39.234 -0.034 C43.243 -0.034 47.253 -0.036 51.263 -0.039 C64.526 -0.048 77.79 -0.052 91.054 -0.052 C91.768 -0.052 92.482 -0.052 93.217 -0.052 C93.932 -0.052 94.647 -0.052 95.384 -0.051 C106.984 -0.051 118.584 -0.061 130.185 -0.075 C142.103 -0.089 154.022 -0.096 165.94 -0.095 C172.629 -0.095 179.317 -0.098 186.006 -0.108 C192.291 -0.118 198.576 -0.118 204.86 -0.111 C207.169 -0.11 209.478 -0.112 211.786 -0.118 C214.933 -0.126 218.079 -0.121 221.226 -0.114 C222.143 -0.119 223.061 -0.124 224.006 -0.129 C228.377 -0.105 232.011 -0.066 235.922 2.134 C242.406 10.673 242.399 22.87 242.235 33.134 C242.221 34.87 242.221 34.87 242.207 36.642 C241.841 62.377 241.841 62.377 238.922 71.134 C234.228 72.062 229.696 72.263 224.929 72.223 C224.14 72.22 223.352 72.218 222.54 72.215 C219.907 72.205 217.274 72.188 214.64 72.171 C212.747 72.163 210.853 72.155 208.96 72.147 C203.811 72.125 198.662 72.096 193.513 72.066 C188.084 72.035 182.654 72.01 177.224 71.983 C168.068 71.938 158.911 71.889 149.755 71.837 C139.282 71.778 128.809 71.724 118.337 71.675 C108.177 71.627 98.017 71.574 87.858 71.52 C83.583 71.497 79.308 71.475 75.034 71.455 C51.876 71.344 28.733 71.103 5.583 70.472 C4.767 70.45 3.95 70.428 3.108 70.405 C1.537 70.363 -0.034 70.318 -1.605 70.272 C-7.279 70.116 -12.931 70.188 -18.604 70.41 C-21.078 70.134 -21.078 70.134 -22.898 68.762 C-24.505 66.544 -24.465 65.044 -24.482 62.318 C-24.494 61.339 -24.507 60.36 -24.52 59.352 C-24.517 58.292 -24.514 57.233 -24.511 56.142 C-24.517 55.045 -24.522 53.948 -24.527 52.818 C-24.534 50.489 -24.532 48.16 -24.524 45.832 C-24.515 42.307 -24.544 38.784 -24.576 35.259 C-24.647 12.319 -24.647 12.319 -20.078 3.134 C-15.574 -1.37 -6.068 -0.01 0 0 Z M-0.078 26.134 C-1.938 33.962 -0.818 42.229 -0.078 50.134 C4.406 51.253 8.797 51.274 13.386 51.261 C14.237 51.262 15.087 51.264 15.963 51.265 C18.81 51.269 21.657 51.266 24.504 51.263 C26.546 51.264 28.588 51.266 30.63 51.268 C36.175 51.273 41.721 51.271 47.266 51.268 C53.066 51.266 58.867 51.268 64.668 51.269 C74.409 51.271 84.151 51.269 93.892 51.264 C105.158 51.259 116.424 51.26 127.69 51.266 C137.359 51.27 147.027 51.271 156.696 51.268 C162.473 51.267 168.249 51.267 174.026 51.27 C179.456 51.273 184.886 51.271 190.317 51.265 C192.311 51.264 194.305 51.264 196.299 51.266 C199.019 51.269 201.739 51.266 204.458 51.261 C205.25 51.263 206.041 51.265 206.856 51.267 C210.67 51.254 214.215 51.059 217.922 50.134 C217.951 46.363 217.969 42.592 217.985 38.821 C217.993 37.749 218.002 36.678 218.01 35.573 C218.013 34.545 218.017 33.517 218.02 32.458 C218.025 31.51 218.03 30.562 218.036 29.586 C218.027 26.995 218.027 26.995 216.922 24.134 C188.924 24.087 160.926 24.052 132.928 24.03 C119.929 24.02 106.93 24.006 93.931 23.983 C82.605 23.963 71.279 23.95 59.953 23.946 C53.952 23.943 47.951 23.937 41.951 23.922 C36.309 23.909 30.667 23.904 25.025 23.907 C22.949 23.907 20.873 23.903 18.796 23.895 C15.973 23.885 13.149 23.888 10.325 23.893 C9.494 23.887 8.664 23.882 7.808 23.876 C3.395 23.718 3.395 23.718 -0.078 26.134 Z " fill="#F2F2F2" transform="translate(141.0776824951172,60.86628723144531)"/>
<path d="M0 0 C0.824 0.01 1.647 0.021 2.496 0.031 C3.376 0.026 4.256 0.022 5.162 0.017 C8.117 0.005 11.07 0.023 14.024 0.04 C16.14 0.038 18.256 0.034 20.371 0.028 C26.121 0.019 31.87 0.034 37.62 0.054 C43.629 0.072 49.638 0.068 55.647 0.067 C65.736 0.069 75.826 0.087 85.916 0.114 C97.595 0.145 109.273 0.156 120.952 0.155 C132.172 0.153 143.393 0.164 154.613 0.18 C159.395 0.187 164.177 0.191 168.959 0.192 C174.585 0.194 180.211 0.206 185.836 0.226 C187.906 0.232 189.976 0.235 192.045 0.233 C194.86 0.232 197.675 0.244 200.49 0.258 C201.318 0.255 202.146 0.252 202.999 0.249 C208.637 0.297 208.637 0.297 210.866 2.526 C210.866 11.766 210.866 21.006 210.866 30.526 C137.936 30.526 65.006 30.526 -10.134 30.526 C-10.134 0.123 -10.134 0.123 0 0 Z M-8.134 4.526 C-9.994 12.354 -8.875 20.621 -8.134 28.526 C-3.651 29.645 0.74 29.666 5.33 29.653 C6.18 29.654 7.03 29.656 7.906 29.657 C10.753 29.661 13.601 29.658 16.448 29.655 C18.49 29.656 20.532 29.658 22.573 29.66 C28.119 29.665 33.664 29.663 39.209 29.66 C45.01 29.657 50.811 29.66 56.611 29.661 C66.353 29.663 76.094 29.661 85.836 29.656 C97.101 29.651 108.367 29.652 119.633 29.658 C129.302 29.662 138.971 29.663 148.64 29.66 C154.416 29.659 160.193 29.659 165.969 29.662 C171.4 29.665 176.83 29.663 182.26 29.657 C184.254 29.656 186.249 29.656 188.243 29.658 C190.963 29.661 193.682 29.658 196.402 29.653 C197.193 29.655 197.984 29.657 198.8 29.659 C202.613 29.646 206.159 29.451 209.866 28.526 C209.895 24.755 209.913 20.984 209.928 17.213 C209.937 16.141 209.945 15.069 209.954 13.965 C209.957 12.937 209.96 11.909 209.963 10.85 C209.969 9.902 209.974 8.954 209.979 7.978 C209.971 5.387 209.971 5.387 208.866 2.526 C180.868 2.479 152.87 2.444 124.872 2.422 C111.873 2.412 98.874 2.398 85.875 2.375 C74.548 2.355 63.222 2.342 51.896 2.337 C45.895 2.335 39.895 2.329 33.894 2.314 C28.252 2.301 22.61 2.296 16.968 2.299 C14.892 2.299 12.816 2.295 10.74 2.287 C7.916 2.277 5.092 2.28 2.269 2.285 C1.438 2.279 0.607 2.273 -0.249 2.267 C-4.661 2.11 -4.661 2.11 -8.134 4.526 Z " fill="#454545" transform="translate(149.13422071933746,82.47435057163239)"/>
<path d="M0 0 C0.33 0.66 0.66 1.32 1 2 C0.328 3.82 0.328 3.82 -0.75 6.125 C-6.281 19.559 -7.764 34.869 -4 49 C33.64 50.247 71.274 51.25 108.938 51.25 C109.726 51.25 110.515 51.25 111.328 51.25 C145.572 51.236 179.782 50.283 214 49 C214.089 44.771 214.141 40.542 214.188 36.312 C214.213 35.134 214.238 33.955 214.264 32.74 C214.325 25.32 213.532 18.793 211.552 11.634 C211 9 211 9 212 6 C212.65 7.895 213.295 9.791 213.938 11.688 C214.477 13.271 214.477 13.271 215.027 14.887 C216.452 19.446 217.127 23.567 217.133 28.344 C217.134 29.343 217.135 30.342 217.137 31.371 C217.133 32.404 217.129 33.436 217.125 34.5 C217.129 35.533 217.133 36.565 217.137 37.629 C217.135 39.127 217.135 39.127 217.133 40.656 C217.132 41.562 217.131 42.467 217.129 43.4 C216.999 46.026 216.54 48.432 216 51 C181.233 53.488 146.372 53.188 111.536 53.185 C106.718 53.185 101.901 53.194 97.084 53.206 C63.009 53.291 29.032 52.857 -5 51 C-10.613 37.352 -8.943 19.569 -3.438 6.188 C-1.231 1.231 -1.231 1.231 0 0 Z " fill="#2D2D2D" transform="translate(145,364)"/>
<path d="M0 0 C72.93 0 145.86 0 221 0 C221 10.125 221 10.125 219 16 C218.67 16 218.34 16 218 16 C218.33 11.38 218.66 6.76 219 2 C147.39 2 75.78 2 2 2 C2.99 6.62 3.98 11.24 5 16 C4.67 16.99 4.34 17.98 4 19 C3.317 17.34 2.654 15.672 2 14 C1.629 13.072 1.257 12.144 0.875 11.188 C0 8 0 8 0 0 Z " fill="#484848" transform="translate(139,160)"/>
<path d="M0 0 C6.109 6.109 6.24 17.904 6.326 26.032 C6.269 39.275 6.269 39.275 5 45 C-6.024 45.911 -16.943 46.114 -28 46 C-27.67 45.34 -27.34 44.68 -27 44 C-12.15 43.505 -12.15 43.505 3 43 C3.062 38.813 3.124 34.626 3.188 30.312 C3.215 29.021 3.242 27.73 3.27 26.4 C3.321 19.132 2.515 12.662 0.65 5.634 C0 3 0 3 0 0 Z " fill="#454545" transform="translate(356,370)"/>
<path d="M0 0 C0.66 0.33 1.32 0.66 2 1 C-0.562 4.241 -2.848 6.876 -6.062 9.5 C-9.084 11.832 -9.084 11.832 -10.875 14.875 C-13.232 18.341 -15.841 20.64 -19.027 23.32 C-21.497 25.423 -23.743 27.673 -26 30 C-26.99 29.67 -27.98 29.34 -29 29 C-24.333 24.333 -19.667 19.667 -15 15 C-13.948 13.931 -13.948 13.931 -12.875 12.84 C-9.059 8.98 -5.282 5.346 -1 2 C-0.67 1.34 -0.34 0.68 0 0 Z M-30 30 C-30 33 -30 33 -32.5 35.688 C-33.325 36.451 -34.15 37.214 -35 38 C-33.814 34.625 -32.724 32.353 -30 30 Z " fill="#626262" transform="translate(164,307)"/>
<path d="M0 0 C2 1.375 2 1.375 4 3 C4 3.66 4 4.32 4 5 C4.66 5 5.32 5 6 5 C7.158 6.124 8.31 7.256 9.426 8.422 C12.454 11.457 15.752 14.204 19 17 C18.67 17.66 18.34 18.32 18 19 C15.748 17.085 13.499 15.168 11.25 13.25 C10.616 12.711 9.982 12.172 9.328 11.617 C2.112 5.454 2.112 5.454 0 3 C0 2.01 0 1.02 0 0 Z M19 19 C22.875 20.75 22.875 20.75 24 23 C20.125 21.25 20.125 21.25 19 19 Z M25 24 C25.99 24.99 26.98 25.98 28 27 C27.01 26.67 26.02 26.34 25 26 C25 25.34 25 24.68 25 24 Z " fill="#373737" transform="translate(332,306)"/>
<path d="M0 0 C0.853 2.417 1.121 3.64 0.293 6.105 C-0.254 7.136 -0.254 7.136 -0.812 8.188 C-1.17 8.882 -1.527 9.577 -1.895 10.293 C-3 12 -3 12 -5 13 C-4.546 11.582 -4.086 10.166 -3.625 8.75 C-3.242 7.567 -3.242 7.567 -2.852 6.359 C-2.048 4.134 -1.103 2.091 0 0 Z M-6 13 C-5.67 13.99 -5.34 14.98 -5 16 C-5.99 16.495 -5.99 16.495 -7 17 C-6.67 15.68 -6.34 14.36 -6 13 Z " fill="#222222" transform="translate(356,176)"/>
<path d="M0 0 C2 1.375 2 1.375 4 3 C4 3.66 4 4.32 4 5 C4.66 5 5.32 5 6 5 C6.33 6.32 6.66 7.64 7 9 C5.825 8.073 4.66 7.133 3.5 6.188 C2.525 5.404 2.525 5.404 1.531 4.605 C0 3 0 3 0 0 Z " fill="#717171" transform="translate(332,306)"/>
<path d="M0 0 C0.285 0.575 0.57 1.15 0.863 1.742 C1.594 3.193 2.34 4.637 3.105 6.07 C3.463 6.748 3.82 7.426 4.188 8.125 C4.552 8.808 4.917 9.491 5.293 10.195 C5.526 10.791 5.76 11.386 6 12 C5.67 12.66 5.34 13.32 5 14 C0.077 7.969 0.077 7.969 -0.312 3.062 C-0.209 2.052 -0.106 1.041 0 0 Z " fill="#414141" transform="translate(323,288)"/>
<path d="M0 0 C1.339 1.662 2.671 3.33 4 5 C4.577 5.722 5.155 6.444 5.75 7.188 C7 9 7 9 7 11 C3.664 9.888 3.416 9.537 1.812 6.625 C1.468 6.019 1.124 5.413 0.77 4.789 C0 3 0 3 0 0 Z " fill="#202020" transform="translate(127,202)"/>
<path d="M0 0 C0.66 0 1.32 0 2 0 C1.67 0.99 1.34 1.98 1 3 C0.34 2.34 -0.32 1.68 -1 1 C-0.67 0.67 -0.34 0.34 0 0 Z " fill="#3F3F3F" transform="translate(353,183)"/>
</svg>