
<!-- Generator: visioncortex VTracer 0.6.4 -->
<svg version="1.1" xmlns="http://www.w3.org/2000/svg" viewBox="0 0 500 500" preserveAspectRatio="xMidYMid meet">
<path d="M0 0 C0.994 -0.01 1.987 -0.02 3.011 -0.031 C13.115 0.089 21.957 2.576 30.875 7.25 C31.554 7.598 32.232 7.946 32.932 8.305 C43.738 13.938 43.738 13.938 47.75 17.438 C47.75 18.097 47.75 18.757 47.75 19.438 C48.41 19.438 49.07 19.438 49.75 19.438 C51.011 21.285 52.182 23.195 53.312 25.125 C56.951 31.252 60.915 37.062 65.062 42.855 C66.75 45.438 66.75 45.438 66.75 47.438 C67.389 47.664 68.029 47.891 68.688 48.125 C80.708 53.277 80.708 53.277 82.812 58.25 C83.122 59.302 83.431 60.354 83.75 61.438 C80.826 62.899 79.264 61.912 76.188 60.938 C70.011 58.792 65.549 55.82 60.75 51.438 C60.127 50.872 59.505 50.306 58.863 49.723 C57.43 48.356 56.08 46.904 54.75 45.438 C54.75 44.778 54.75 44.118 54.75 43.438 C54.09 43.438 53.43 43.438 52.75 43.438 C51.059 41.355 51.059 41.355 49.188 38.625 C48.567 37.732 47.947 36.838 47.309 35.918 C45.75 33.437 45.75 33.437 44.75 30.438 C44.09 30.438 43.43 30.438 42.75 30.438 C42.75 29.778 42.75 29.118 42.75 28.438 C42.09 28.438 41.43 28.438 40.75 28.438 C40.75 27.778 40.75 27.118 40.75 26.438 C40.09 26.211 39.43 25.984 38.75 25.75 C36.265 24.663 34.356 23.555 32.125 22.062 C19.171 13.854 2.752 11.85 -12.25 14 C-24.593 16.802 -33.9 26.444 -40.438 36.75 C-48.316 50.194 -52.321 63.002 -54.25 78.438 C-48.64 78.438 -43.03 78.438 -37.25 78.438 C-37.332 77.056 -37.415 75.674 -37.5 74.25 C-37.5 65.589 -34.965 56.105 -29.25 49.438 C-28.59 49.438 -27.93 49.438 -27.25 49.438 C-26.988 48.848 -26.727 48.259 -26.457 47.652 C-21.863 39.223 -12.855 36.286 -4.25 33.438 C-2.765 32.942 -2.765 32.942 -1.25 32.438 C14.716 31.015 28.975 32.998 41.75 43.438 C43.055 45.656 43.055 45.656 43.75 47.438 C44.41 47.438 45.07 47.438 45.75 47.438 C47.047 49.23 47.047 49.23 48.5 51.625 C51.996 57.039 55.563 60.075 61.062 63.5 C63.75 65.438 63.75 65.438 64.625 67.688 C64.687 68.554 64.687 68.554 64.75 69.438 C60.555 68.838 56.74 67.863 52.75 66.438 C52.75 65.778 52.75 65.118 52.75 64.438 C52.069 64.273 51.389 64.108 50.688 63.938 C46.399 61.748 43.555 58.317 40.75 54.438 C40.75 53.778 40.75 53.118 40.75 52.438 C40.193 52.19 39.636 51.942 39.062 51.688 C36.75 50.438 36.75 50.438 34.625 48.562 C28.475 44.017 21.35 41.759 13.75 41.438 C12.895 41.398 12.041 41.358 11.16 41.316 C4.781 41.164 -1.056 41.933 -7.25 43.438 C-7.25 44.097 -7.25 44.757 -7.25 45.438 C-8.075 45.912 -8.9 46.386 -9.75 46.875 C-18.479 52.481 -22.946 62.7 -25.25 72.438 C-25.611 74.767 -25.95 77.1 -26.25 79.438 C-25.148 79.414 -25.148 79.414 -24.024 79.39 C-1.553 78.991 20.851 79.77 43.296 80.771 C45.625 80.875 47.954 80.977 50.283 81.079 C54.005 81.244 57.726 81.413 61.448 81.586 C62.838 81.65 64.229 81.714 65.619 81.776 C67.545 81.863 69.472 81.956 71.398 82.049 C72.484 82.1 73.57 82.151 74.689 82.203 C77.757 82.438 80.725 82.885 83.75 83.438 C83.75 84.097 83.75 84.757 83.75 85.438 C73.913 86.219 64.102 86.692 54.238 86.973 C52.776 87.016 51.314 87.059 49.851 87.103 C46.8 87.193 43.749 87.281 40.697 87.367 C37.631 87.454 34.564 87.545 31.498 87.638 C12.241 88.224 -6.983 88.587 -26.25 88.438 C-25.815 90.343 -25.369 92.246 -24.918 94.148 C-24.671 95.209 -24.423 96.269 -24.169 97.361 C-23.073 101.031 -21.451 103.821 -19.238 106.914 C-18.25 108.438 -18.25 108.438 -18.25 110.438 C-17.59 110.438 -16.93 110.438 -16.25 110.438 C-14.125 112.313 -14.125 112.313 -12.25 114.438 C-12.25 115.097 -12.25 115.757 -12.25 116.438 C-10.595 117.132 -8.924 117.789 -7.25 118.438 C-6.63 118.702 -6.01 118.966 -5.371 119.238 C5.404 123.425 16.828 122.018 27.438 118.062 C30.766 116.429 33.7 114.539 36.75 112.438 C38.069 111.743 39.396 111.062 40.75 110.438 C40.75 109.778 40.75 109.118 40.75 108.438 C41.41 108.438 42.07 108.438 42.75 108.438 C42.994 107.687 43.237 106.937 43.488 106.164 C46.058 100.61 52.099 96.995 57.562 94.5 C60.75 93.438 60.75 93.438 64.75 93.438 C64.312 96.25 64.312 96.25 62.75 99.438 C60.47 100.459 58.28 101.056 55.844 101.602 C53.621 102.247 53.621 102.247 52.656 104.227 C52.208 105.321 52.208 105.321 51.75 106.438 C50.776 108.037 49.775 109.62 48.75 111.188 C48.234 111.987 47.719 112.786 47.188 113.609 C46.713 114.213 46.239 114.816 45.75 115.438 C45.09 115.438 44.43 115.438 43.75 115.438 C43.492 116.036 43.234 116.634 42.969 117.25 C38.916 124.524 29.484 127.804 21.887 129.968 C8.273 132.959 -6.589 130.807 -18.375 123.5 C-29.224 115.717 -35.022 106.569 -37.25 93.438 C-37.25 91.788 -37.25 90.137 -37.25 88.438 C-45.17 88.933 -45.17 88.933 -53.25 89.438 C-54.16 107.858 -47.883 123.381 -36.25 137.438 C-28.034 146.313 -18.015 151.91 -5.875 152.641 C11.488 152.865 28.236 148.9 41.75 137.438 C42.295 136.707 42.841 135.976 43.402 135.223 C43.847 134.634 44.292 134.044 44.75 133.438 C45.41 133.438 46.07 133.438 46.75 133.438 C47.008 132.886 47.266 132.334 47.531 131.766 C48.93 129.094 50.538 126.669 52.25 124.188 C52.858 123.295 53.467 122.403 54.094 121.484 C54.914 120.471 54.914 120.471 55.75 119.438 C56.41 119.438 57.07 119.438 57.75 119.438 C58.121 118.556 58.121 118.556 58.5 117.656 C62.172 111.138 69.772 107.651 76.488 105.066 C78.75 104.438 78.75 104.438 82.75 104.438 C82.192 107.784 81.567 110.554 79.75 113.438 C77.762 114.562 77.762 114.562 75.438 115.438 C68.159 118.205 64.707 122.577 60.875 129.062 C59.996 130.501 59.116 131.938 58.234 133.375 C57.81 134.071 57.385 134.767 56.947 135.484 C52.507 142.727 48.31 149.162 40.75 153.438 C40.09 153.438 39.43 153.438 38.75 153.438 C38.75 154.097 38.75 154.757 38.75 155.438 C20.01 166.082 2.122 168.906 -19.25 164.438 C-29.468 161.596 -38.468 156.683 -46.25 149.438 C-46.25 148.778 -46.25 148.118 -46.25 147.438 C-46.821 147.203 -47.392 146.968 -47.98 146.727 C-58.298 140.867 -63.71 126.967 -66.935 116.139 C-67.567 113.81 -68.144 111.476 -68.688 109.125 C-68.852 108.421 -69.016 107.717 -69.185 106.992 C-70.452 100.879 -70.25 95.975 -70.25 89.438 C-85.1 89.438 -99.95 89.438 -115.25 89.438 C-115.25 101.978 -115.25 114.517 -115.25 127.438 C-117.89 127.438 -120.53 127.438 -123.25 127.438 C-123.25 114.897 -123.25 102.358 -123.25 89.438 C-139.42 89.438 -155.59 89.438 -172.25 89.438 C-172.25 93.728 -172.25 98.017 -172.25 102.438 C-173.881 118.108 -179.432 131.087 -189.25 143.438 C-189.782 144.198 -190.315 144.959 -190.863 145.742 C-191.55 146.581 -191.55 146.581 -192.25 147.438 C-192.91 147.438 -193.57 147.438 -194.25 147.438 C-194.25 148.097 -194.25 148.757 -194.25 149.438 C-208.481 162.079 -224.188 166.976 -243.062 166.938 C-244.326 166.966 -245.59 166.994 -246.893 167.023 C-259.053 167.048 -269.893 163.821 -279.875 156.812 C-280.446 156.431 -281.017 156.049 -281.605 155.656 C-283.168 154.605 -284.71 153.522 -286.25 152.438 C-287.041 151.894 -287.833 151.35 -288.648 150.789 C-289.177 150.343 -289.705 149.897 -290.25 149.438 C-290.25 148.778 -290.25 148.118 -290.25 147.438 C-290.91 147.438 -291.57 147.438 -292.25 147.438 C-293.715 145.481 -293.715 145.481 -295.402 142.766 C-296.014 141.791 -296.626 140.817 -297.256 139.812 C-297.893 138.781 -298.531 137.75 -299.188 136.688 C-300.445 134.671 -301.704 132.655 -302.965 130.641 C-303.802 129.29 -303.802 129.29 -304.656 127.911 C-306.201 125.435 -306.201 125.435 -307.955 123.237 C-309.25 121.438 -309.25 121.438 -309.25 119.438 C-310.24 119.066 -310.24 119.066 -311.25 118.688 C-312.24 118.275 -313.23 117.863 -314.25 117.438 C-314.913 117.169 -315.575 116.901 -316.258 116.625 C-320.102 114.923 -321.923 113.949 -324.25 110.312 C-325.25 107.438 -325.25 107.438 -325.25 105.438 C-307.59 108.571 -298.139 119.346 -288.25 133.438 C-287.92 134.428 -287.59 135.418 -287.25 136.438 C-286.59 136.438 -285.93 136.438 -285.25 136.438 C-285.25 137.097 -285.25 137.757 -285.25 138.438 C-284.59 138.438 -283.93 138.438 -283.25 138.438 C-283.25 139.097 -283.25 139.757 -283.25 140.438 C-282.719 140.698 -282.188 140.958 -281.641 141.227 C-279.864 142.127 -278.106 143.065 -276.359 144.023 C-261.202 152.096 -243.936 156.788 -226.812 152.312 C-212.126 146.92 -202.111 136.269 -195.25 122.438 C-190.123 111.315 -188.655 100.483 -187.25 88.438 C-192.86 88.438 -198.47 88.438 -204.25 88.438 C-204.559 91.284 -204.559 91.284 -204.875 94.188 C-206.17 102.709 -209.564 110.853 -215.25 117.438 C-215.91 117.438 -216.57 117.438 -217.25 117.438 C-217.25 118.097 -217.25 118.757 -217.25 119.438 C-217.91 119.438 -218.57 119.438 -219.25 119.438 C-219.25 120.097 -219.25 120.757 -219.25 121.438 C-231.513 131.568 -245.977 132.353 -261.25 131.438 C-271.889 130.035 -280.884 124.746 -287.625 116.438 C-289.35 114.142 -290.994 111.84 -292.535 109.418 C-295.429 104.915 -298.391 102.927 -303.262 100.676 C-305.601 99.219 -306.254 97.967 -307.25 95.438 C-303.03 94.031 -300.823 95.443 -296.836 97.121 C-293.164 98.99 -289.952 101.306 -287.25 104.438 C-287.25 105.097 -287.25 105.757 -287.25 106.438 C-286.59 106.438 -285.93 106.438 -285.25 106.438 C-283.734 108.047 -283.734 108.047 -282 110.188 C-274.858 118.467 -265.881 121.924 -255.047 122.898 C-245.351 123.419 -238.607 121.649 -230.25 116.438 C-229.524 116.126 -228.799 115.814 -228.051 115.492 C-225.749 114.144 -225.296 112.855 -224.25 110.438 C-223.441 109.31 -222.628 108.185 -221.812 107.062 C-218.18 101.41 -217.423 94.945 -216.25 88.438 C-218.054 88.454 -218.054 88.454 -219.895 88.47 C-237.753 88.576 -255.593 88.112 -273.444 87.638 C-277.851 87.521 -282.258 87.411 -286.666 87.302 C-290.1 87.216 -293.534 87.127 -296.969 87.037 C-298.595 86.994 -300.221 86.953 -301.847 86.914 C-304.111 86.858 -306.375 86.797 -308.638 86.735 C-309.919 86.701 -311.2 86.668 -312.52 86.634 C-316.479 86.425 -320.323 85.974 -324.25 85.438 C-324.25 84.778 -324.25 84.118 -324.25 83.438 C-320.335 82.543 -316.574 82.223 -312.565 82.049 C-311.912 82.019 -311.259 81.99 -310.586 81.959 C-308.424 81.863 -306.263 81.773 -304.102 81.684 C-302.569 81.618 -301.036 81.552 -299.503 81.486 C-296.273 81.348 -293.044 81.213 -289.814 81.08 C-286.568 80.946 -283.322 80.808 -280.076 80.664 C-258.786 79.723 -237.561 79.221 -216.25 79.438 C-216.542 77.865 -216.84 76.294 -217.141 74.723 C-217.306 73.847 -217.471 72.972 -217.642 72.071 C-220.306 60.539 -227.268 50.705 -237.25 44.438 C-246.605 39.713 -259.56 42.03 -269.113 45.102 C-276.012 48.04 -280.763 52.515 -285.25 58.438 C-285.91 58.438 -286.57 58.438 -287.25 58.438 C-287.495 59.033 -287.74 59.629 -287.992 60.242 C-290.583 64.764 -295.791 67.579 -300.621 69.266 C-302.481 69.73 -304.364 70.095 -306.25 70.438 C-306.25 67.438 -306.25 67.438 -304.688 65.5 C-302.25 63.438 -302.25 63.438 -298.918 61.762 C-294.694 59.389 -292.688 56.195 -290.125 52.188 C-283.272 42.242 -274.516 36.284 -262.48 33.836 C-246.709 31.891 -232.352 33.797 -219.25 43.438 C-219.25 44.097 -219.25 44.757 -219.25 45.438 C-218.59 45.438 -217.93 45.438 -217.25 45.438 C-217.25 46.097 -217.25 46.757 -217.25 47.438 C-216.59 47.438 -215.93 47.438 -215.25 47.438 C-207.872 56.501 -204.25 66.819 -204.25 78.438 C-198.97 78.438 -193.69 78.438 -188.25 78.438 C-190.463 61.658 -195.197 47.165 -205.051 33.277 C-206.25 31.438 -206.25 31.438 -207.25 28.438 C-207.91 28.438 -208.57 28.438 -209.25 28.438 C-209.25 27.778 -209.25 27.118 -209.25 26.438 C-209.91 26.438 -210.57 26.438 -211.25 26.438 C-211.25 25.778 -211.25 25.118 -211.25 24.438 C-211.818 24.169 -212.387 23.901 -212.973 23.625 C-215.25 22.438 -215.25 22.438 -217.371 21 C-228.4 13.56 -240.402 13.726 -253.25 15.438 C-274.8 19.649 -287.759 32.749 -300.125 50.062 C-306.28 56.942 -314.539 62.044 -323.875 62.688 C-324.659 62.605 -325.442 62.523 -326.25 62.438 C-322.675 54.239 -322.675 54.239 -319.312 52.348 C-317.25 51.688 -317.25 51.688 -315.312 51.266 C-309.662 48.997 -306.379 42.976 -303.188 38.062 C-302.767 37.428 -302.346 36.794 -301.912 36.141 C-299.184 31.996 -296.672 27.768 -294.25 23.438 C-293.59 23.438 -292.93 23.438 -292.25 23.438 C-292.018 22.856 -291.786 22.275 -291.547 21.676 C-286.064 12.212 -269.344 5.336 -259.25 2.438 C-237.899 -1.571 -217.802 2.036 -199.82 14.062 C-199.302 14.516 -198.784 14.97 -198.25 15.438 C-198.25 16.097 -198.25 16.757 -198.25 17.438 C-197.68 17.675 -197.11 17.912 -196.523 18.156 C-185.997 24.088 -178.65 38.204 -175.25 49.438 C-173.082 58.769 -172.05 67.838 -171.25 77.438 C-155.41 77.438 -139.57 77.438 -123.25 77.438 C-123.25 65.887 -123.25 54.338 -123.25 42.438 C-120.61 42.108 -117.97 41.778 -115.25 41.438 C-115.25 53.317 -115.25 65.197 -115.25 77.438 C-108.567 77.407 -108.567 77.407 -101.75 77.375 C-91.206 77.351 -80.756 77.511 -70.25 78.438 C-70.296 77.708 -70.343 76.978 -70.391 76.227 C-71.184 53.276 -62.364 34.47 -47.461 17.469 C-45.14 15.337 -43.228 14.399 -40.25 13.438 C-40.25 12.778 -40.25 12.118 -40.25 11.438 C-27.191 3.598 -15.264 0.121 0 0 Z " fill="#E4E4E4" transform="translate(370.25,166.5625)"/>
<path d="M0 0 C0.99 0.495 0.99 0.495 2 1 C1.01 1.495 1.01 1.495 0 2 C0 1.34 0 0.68 0 0 Z M-2 2 C-1.34 2.33 -0.68 2.66 0 3 C-4.62 7.62 -9.24 12.24 -14 17 C-14.66 16.67 -15.32 16.34 -16 16 C-14.233 14.038 -12.462 12.08 -10.688 10.125 C-10.188 9.569 -9.688 9.014 -9.174 8.441 C-6.891 5.932 -4.836 3.891 -2 2 Z " fill="#9C9C9C" transform="translate(330,178)"/>
<path d="M0 0 C-1.651 4.292 -4.738 6.879 -8 10 C-8.66 9.67 -9.32 9.34 -10 9 C-9.67 8.34 -9.34 7.68 -9 7 C-8.34 7 -7.68 7 -7 7 C-6.732 6.402 -6.464 5.804 -6.188 5.188 C-3.371 0 -3.371 0 0 0 Z " fill="#979797" transform="translate(435,279)"/>
<path d="M0 0 C0 3 0 3 -1.75 5.043 C-2.493 5.751 -3.235 6.458 -4 7.188 C-4.743 7.903 -5.485 8.618 -6.25 9.355 C-6.827 9.898 -7.405 10.441 -8 11 C-8 8 -8 8 -5.688 5.5 C-4.801 4.675 -3.914 3.85 -3 3 C-2.402 2.402 -1.804 1.804 -1.188 1.188 C-0.796 0.796 -0.404 0.404 0 0 Z " fill="#ABABAB" transform="translate(422,264)"/>
<path d="M0 0 C0.66 0 1.32 0 2 0 C2.33 0.99 2.66 1.98 3 3 C2.34 3.66 1.68 4.32 1 5 C0.34 3.68 -0.32 2.36 -1 1 C-0.67 0.67 -0.34 0.34 0 0 Z " fill="#A3A3A3" transform="translate(64,261)"/>
</svg>