
<!-- Generator: visioncortex VTracer 0.6.4 -->
<svg version="1.1" xmlns="http://www.w3.org/2000/svg" viewBox="0 0 1024 1024" preserveAspectRatio="xMidYMid meet">
<path d="M0 0 C1.429 0.002 2.858 0.004 4.286 0.007 C24.847 0.049 45.169 0.394 65.562 3.312 C66.276 3.412 66.989 3.511 67.723 3.614 C161.289 16.676 251.007 53.691 331.959 120.936 C333.622 122.363 335.301 123.769 336.984 125.172 C345.118 131.983 352.68 139.221 360.091 146.809 C363.357 150.147 366.679 153.428 370.016 156.695 C376.593 163.161 382.892 169.609 388.605 176.859 C390.428 179.144 392.332 181.289 394.312 183.438 C399.931 189.693 404.916 196.46 409.96 203.18 C411.406 205.104 412.86 207.021 414.316 208.938 C432.295 232.813 447.114 258.678 460.562 285.312 C461.032 286.24 461.501 287.168 461.985 288.125 C486.217 336.41 501.382 389.087 508.875 442.5 C509.022 443.546 509.169 444.593 509.321 445.671 C509.785 449.214 510.189 452.76 510.562 456.312 C510.649 457.116 510.735 457.92 510.824 458.748 C512.588 475.73 512.927 492.657 512.881 509.718 C512.875 511.845 512.872 513.972 512.869 516.099 C512.833 536.322 512.432 556.26 509.562 576.312 C509.313 578.191 509.313 578.191 509.059 580.107 C497.122 669.282 462.191 755.669 404.562 828.312 C404.011 829.007 403.459 829.701 402.891 830.417 C396.97 837.849 390.961 845.159 384.531 852.16 C382.705 854.156 380.943 856.192 379.188 858.25 C374.588 863.537 369.547 868.394 364.562 873.312 C361.749 876.112 358.956 878.93 356.18 881.766 C349.714 888.343 343.266 894.642 336.016 900.355 C333.731 902.178 331.586 904.082 329.438 906.062 C322.523 912.273 314.989 917.738 307.562 923.312 C306.93 923.791 306.298 924.27 305.647 924.763 C294.979 932.837 283.882 940.185 272.562 947.312 C271.37 948.065 271.37 948.065 270.153 948.832 C255.742 957.856 240.751 965.688 225.562 973.312 C224.638 973.779 223.714 974.246 222.762 974.727 C175.244 998.584 122.973 1013.227 70.438 1020.625 C69.399 1020.772 68.361 1020.919 67.292 1021.071 C45.939 1023.878 24.597 1024.691 3.076 1024.631 C1.028 1024.625 -1.02 1024.622 -3.068 1024.619 C-23.337 1024.582 -43.328 1024.086 -63.438 1021.312 C-64.708 1021.146 -65.979 1020.98 -67.289 1020.809 C-119.625 1013.835 -170.799 999.191 -218.438 976.312 C-219.468 975.821 -220.499 975.329 -221.562 974.823 C-260.911 955.947 -297.953 932.35 -330.898 903.641 C-332.532 902.231 -334.185 900.846 -335.844 899.465 C-343.984 892.651 -351.55 885.408 -358.966 877.816 C-362.232 874.478 -365.554 871.197 -368.891 867.93 C-375.468 861.464 -381.767 855.016 -387.48 847.766 C-389.303 845.481 -391.207 843.336 -393.188 841.188 C-398.806 834.932 -403.791 828.165 -408.835 821.445 C-410.281 819.521 -411.735 817.604 -413.191 815.688 C-431.17 791.812 -445.989 765.947 -459.438 739.312 C-460.142 737.921 -460.142 737.921 -460.86 736.5 C-485.092 688.215 -500.257 635.538 -507.75 582.125 C-507.971 580.555 -507.971 580.555 -508.196 578.954 C-508.66 575.411 -509.064 571.865 -509.438 568.312 C-509.567 567.106 -509.567 567.106 -509.699 565.876 C-511.533 548.218 -511.799 530.612 -511.75 512.875 C-511.748 511.447 -511.746 510.018 -511.743 508.59 C-511.701 488.037 -511.404 467.693 -508.438 447.312 C-508.336 446.607 -508.234 445.902 -508.129 445.175 C-496.632 366.039 -469.502 289.13 -423.438 223.312 C-423.05 222.754 -422.662 222.196 -422.262 221.621 C-412.051 206.949 -401.157 192.809 -389.438 179.312 C-388.486 178.21 -388.486 178.21 -387.516 177.086 C-385.835 175.151 -384.139 173.229 -382.438 171.312 C-381.753 170.535 -381.069 169.758 -380.363 168.957 C-374.936 162.848 -369.258 157.046 -363.438 151.312 C-360.597 148.482 -357.77 145.639 -354.949 142.789 C-353.675 141.505 -352.4 140.221 -351.125 138.938 C-350.499 138.303 -349.873 137.669 -349.229 137.016 C-329.384 117.069 -306.116 99.427 -282.438 84.312 C-280.969 83.362 -279.5 82.412 -278.031 81.461 C-248.148 62.235 -216.676 45.909 -183.438 33.312 C-182.346 32.893 -181.255 32.474 -180.131 32.042 C-140.16 16.776 -97.996 6.786 -55.438 2.312 C-54.633 2.226 -53.829 2.14 -53.001 2.051 C-35.343 0.217 -17.737 -0.049 0 0 Z " fill="#AB0000" transform="translate(511.4375,-0.3125)"/>
<path d="M0 0 C1.429 0.002 2.858 0.004 4.286 0.007 C24.847 0.049 45.169 0.394 65.562 3.312 C66.276 3.412 66.989 3.511 67.723 3.614 C161.289 16.676 251.007 53.691 331.959 120.936 C333.622 122.363 335.301 123.769 336.984 125.172 C345.118 131.983 352.68 139.221 360.091 146.809 C363.357 150.147 366.679 153.428 370.016 156.695 C376.593 163.161 382.892 169.609 388.605 176.859 C390.428 179.144 392.332 181.289 394.312 183.438 C399.931 189.693 404.916 196.46 409.96 203.18 C411.406 205.104 412.86 207.021 414.316 208.938 C432.295 232.813 447.114 258.678 460.562 285.312 C461.032 286.24 461.501 287.168 461.985 288.125 C486.217 336.41 501.382 389.087 508.875 442.5 C509.022 443.546 509.169 444.593 509.321 445.671 C509.785 449.214 510.189 452.76 510.562 456.312 C510.649 457.116 510.735 457.92 510.824 458.748 C512.588 475.73 512.927 492.657 512.881 509.718 C512.875 511.845 512.872 513.972 512.869 516.099 C512.833 536.322 512.432 556.26 509.562 576.312 C509.313 578.191 509.313 578.191 509.059 580.107 C497.122 669.282 462.191 755.669 404.562 828.312 C404.011 829.007 403.459 829.701 402.891 830.417 C396.97 837.849 390.961 845.159 384.531 852.16 C382.705 854.156 380.943 856.192 379.188 858.25 C374.588 863.537 369.547 868.394 364.562 873.312 C361.749 876.112 358.956 878.93 356.18 881.766 C349.714 888.343 343.266 894.642 336.016 900.355 C333.731 902.178 331.586 904.082 329.438 906.062 C322.523 912.273 314.989 917.738 307.562 923.312 C306.93 923.791 306.298 924.27 305.647 924.763 C294.979 932.837 283.882 940.185 272.562 947.312 C271.37 948.065 271.37 948.065 270.153 948.832 C255.742 957.856 240.751 965.688 225.562 973.312 C224.638 973.779 223.714 974.246 222.762 974.727 C175.244 998.584 122.973 1013.227 70.438 1020.625 C69.399 1020.772 68.361 1020.919 67.292 1021.071 C45.939 1023.878 24.597 1024.691 3.076 1024.631 C1.028 1024.625 -1.02 1024.622 -3.068 1024.619 C-23.337 1024.582 -43.328 1024.086 -63.438 1021.312 C-64.708 1021.146 -65.979 1020.98 -67.289 1020.809 C-119.625 1013.835 -170.799 999.191 -218.438 976.312 C-219.468 975.821 -220.499 975.329 -221.562 974.823 C-260.911 955.947 -297.953 932.35 -330.898 903.641 C-332.532 902.231 -334.185 900.846 -335.844 899.465 C-343.984 892.651 -351.55 885.408 -358.966 877.816 C-362.232 874.478 -365.554 871.197 -368.891 867.93 C-375.468 861.464 -381.767 855.016 -387.48 847.766 C-389.303 845.481 -391.207 843.336 -393.188 841.188 C-398.806 834.932 -403.791 828.165 -408.835 821.445 C-410.281 819.521 -411.735 817.604 -413.191 815.688 C-431.17 791.812 -445.989 765.947 -459.438 739.312 C-460.142 737.921 -460.142 737.921 -460.86 736.5 C-485.092 688.215 -500.257 635.538 -507.75 582.125 C-507.971 580.555 -507.971 580.555 -508.196 578.954 C-508.66 575.411 -509.064 571.865 -509.438 568.312 C-509.567 567.106 -509.567 567.106 -509.699 565.876 C-511.533 548.218 -511.799 530.612 -511.75 512.875 C-511.748 511.447 -511.746 510.018 -511.743 508.59 C-511.701 488.037 -511.404 467.693 -508.438 447.312 C-508.336 446.607 -508.234 445.902 -508.129 445.175 C-496.632 366.039 -469.502 289.13 -423.438 223.312 C-423.05 222.754 -422.662 222.196 -422.262 221.621 C-412.051 206.949 -401.157 192.809 -389.438 179.312 C-388.486 178.21 -388.486 178.21 -387.516 177.086 C-385.835 175.151 -384.139 173.229 -382.438 171.312 C-381.753 170.535 -381.069 169.758 -380.363 168.957 C-374.936 162.848 -369.258 157.046 -363.438 151.312 C-360.597 148.482 -357.77 145.639 -354.949 142.789 C-353.675 141.505 -352.4 140.221 -351.125 138.938 C-350.499 138.303 -349.873 137.669 -349.229 137.016 C-329.384 117.069 -306.116 99.427 -282.438 84.312 C-280.969 83.362 -279.5 82.412 -278.031 81.461 C-248.148 62.235 -216.676 45.909 -183.438 33.312 C-182.346 32.893 -181.255 32.474 -180.131 32.042 C-140.16 16.776 -97.996 6.786 -55.438 2.312 C-54.633 2.226 -53.829 2.14 -53.001 2.051 C-35.343 0.217 -17.737 -0.049 0 0 Z M-44.438 36.312 C-46.105 36.459 -47.773 36.605 -49.441 36.75 C-89.635 40.43 -129.72 49.978 -167.438 64.312 C-168.325 64.647 -169.212 64.982 -170.126 65.328 C-182.116 69.874 -193.973 74.55 -205.438 80.312 C-206.407 80.798 -207.376 81.284 -208.375 81.785 C-242.186 98.829 -274.477 118.801 -303.438 143.312 C-304.468 144.17 -305.5 145.027 -306.531 145.883 C-318.889 156.177 -330.429 167.212 -341.812 178.562 C-342.335 179.082 -342.857 179.602 -343.395 180.137 C-349.296 186.014 -355.051 191.954 -360.438 198.312 C-361.283 199.277 -362.129 200.241 -363 201.234 C-371.316 210.883 -378.893 221.054 -386.438 231.312 C-387.155 232.282 -387.155 232.282 -387.888 233.271 C-400.077 249.757 -410.535 267.379 -420.438 285.312 C-420.9 286.15 -421.363 286.987 -421.839 287.85 C-433.674 309.444 -443.591 331.973 -451.438 355.312 C-451.702 356.1 -451.967 356.887 -452.24 357.698 C-454.072 363.207 -455.779 368.749 -457.438 374.312 C-457.714 375.233 -457.991 376.154 -458.277 377.102 C-467.931 409.445 -473.839 442.67 -476.438 476.312 C-476.495 476.993 -476.553 477.674 -476.613 478.375 C-479.089 507.999 -477.48 537.807 -474.438 567.312 C-474.331 568.36 -474.224 569.407 -474.114 570.486 C-473.437 576.801 -472.513 583.053 -471.438 589.312 C-471.216 590.604 -470.995 591.895 -470.767 593.226 C-464.144 631.277 -453.927 670.329 -437.25 705.312 C-436.963 705.916 -436.676 706.519 -436.38 707.141 C-435.748 708.47 -435.114 709.798 -434.478 711.125 C-433.332 713.534 -432.206 715.952 -431.082 718.371 C-425.978 729.304 -420.589 739.933 -414.438 750.312 C-413.932 751.171 -413.427 752.029 -412.907 752.913 C-398.152 777.889 -381.46 801.405 -362.438 823.312 C-361.486 824.415 -361.486 824.415 -360.516 825.539 C-358.835 827.474 -357.137 829.394 -355.438 831.312 C-354.825 832.01 -354.212 832.708 -353.581 833.426 C-347.777 839.966 -341.709 846.196 -335.517 852.364 C-333.87 854.005 -332.229 855.652 -330.588 857.299 C-325.044 862.847 -319.432 868.248 -313.438 873.312 C-312.473 874.158 -311.509 875.004 -310.516 875.875 C-300.867 884.191 -290.711 891.789 -280.438 899.312 C-279.705 899.851 -278.972 900.389 -278.217 900.943 C-261.821 912.925 -244.52 923.492 -226.647 933.12 C-224.439 934.312 -222.241 935.521 -220.043 936.73 C-199.692 947.811 -178.373 956.886 -156.438 964.312 C-155.499 964.637 -154.56 964.961 -153.592 965.295 C-120.996 976.493 -87.099 983.728 -52.875 987.562 C-52.136 987.646 -51.396 987.729 -50.635 987.815 C-33.779 989.685 -16.957 990.523 0 990.5 C0.773 990.5 1.546 990.499 2.342 990.499 C15.758 990.478 29.056 989.903 42.416 988.611 C45.479 988.32 48.543 988.072 51.609 987.828 C84.135 984.981 116.752 978.048 147.562 967.312 C149.921 966.514 152.281 965.717 154.641 964.922 C160.968 962.775 167.272 960.567 173.562 958.312 C174.621 957.934 174.621 957.934 175.701 957.548 C183.815 954.619 191.603 951.075 199.375 947.353 C201.784 946.207 204.202 945.081 206.621 943.957 C217.554 938.853 228.183 933.464 238.562 927.312 C239.85 926.555 239.85 926.555 241.163 925.782 C266.139 911.027 289.655 894.335 311.562 875.312 C312.297 874.678 313.032 874.044 313.789 873.391 C315.724 871.71 317.644 870.012 319.562 868.312 C320.26 867.7 320.958 867.087 321.676 866.456 C328.216 860.652 334.446 854.584 340.614 848.392 C342.255 846.745 343.902 845.104 345.549 843.463 C351.097 837.919 356.498 832.307 361.562 826.312 C362.408 825.348 363.254 824.384 364.125 823.391 C372.441 813.742 380.039 803.586 387.562 793.312 C388.101 792.58 388.639 791.847 389.193 791.092 C397.623 779.557 405.176 767.537 412.562 755.312 C413.362 754 413.362 754 414.177 752.66 C416.768 748.385 419.267 744.134 421.438 739.625 C423.344 735.724 425.329 731.891 427.427 728.09 C432.103 719.577 435.897 710.789 439.546 701.795 C440.684 699.017 441.855 696.254 443.023 693.488 C445.54 687.453 447.807 681.347 450 675.188 C450.39 674.093 450.78 672.999 451.181 671.872 C451.958 669.683 452.734 667.493 453.506 665.302 C454.147 663.488 454.792 661.676 455.443 659.866 C475.983 602.753 482.979 536.712 477.562 476.312 C477.455 475.09 477.347 473.868 477.235 472.609 C475.142 449.531 471.505 426.946 466.562 404.312 C466.195 402.62 466.195 402.62 465.821 400.894 C462.243 384.758 457.088 369.183 451.692 353.583 C450.748 350.849 449.82 348.11 448.902 345.367 C443.184 328.445 435.87 312.113 427.562 296.312 C427.109 295.443 426.656 294.574 426.189 293.678 C408.832 260.517 388.108 229.579 363.562 201.312 C362.928 200.578 362.294 199.843 361.641 199.086 C359.96 197.151 358.262 195.231 356.562 193.312 C355.643 192.266 355.643 192.266 354.706 191.199 C348.902 184.659 342.834 178.429 336.642 172.261 C334.995 170.62 333.354 168.973 331.713 167.326 C326.169 161.778 320.557 156.377 314.562 151.312 C313.116 150.044 313.116 150.044 311.641 148.75 C301.992 140.434 291.821 132.857 281.562 125.312 C280.916 124.834 280.27 124.355 279.604 123.862 C240.426 94.895 196.542 73.967 150.562 58.312 C149.41 57.919 148.257 57.525 147.07 57.12 C113.993 45.969 80.209 39.934 45.562 36.312 C44.324 36.181 43.085 36.05 41.808 35.915 C13.159 33.013 -15.806 33.575 -44.438 36.312 Z " fill="#000000" transform="translate(511.4375,-0.3125)"/>
<path d="M0 0 C1.545 1.327 3.066 2.682 4.562 4.062 C5.413 4.845 6.264 5.627 7.141 6.434 C20.771 19.513 31.563 37.695 32.74 56.962 C33.277 84.925 33.277 84.925 28.562 97.062 C28.262 97.877 27.962 98.692 27.652 99.531 C26.735 101.787 25.697 103.907 24.562 106.062 C24.093 106.983 23.624 107.903 23.141 108.852 C18.675 117.081 13.126 123.489 6.562 130.062 C5.832 130.805 5.101 131.548 4.348 132.312 C-13.461 149.292 -35.844 153.706 -59.57 153.379 C-67.393 153.126 -74.093 151.869 -81.438 149.062 C-82.449 148.723 -83.461 148.384 -84.504 148.035 C-103.804 140.964 -118.397 125.498 -128.438 108.062 C-129.192 106.802 -129.192 106.802 -129.961 105.516 C-139.547 88.202 -140.599 64.288 -135.938 45.312 C-131.973 32.307 -125.707 21.026 -116.438 11.062 C-115.229 9.752 -115.229 9.752 -113.996 8.414 C-83.889 -22.965 -34.459 -26.586 0 0 Z " fill="#000000" transform="translate(564.4375,443.9375)"/>
<path d="M0 0 C3.256 2.395 6.391 4.894 9.22 7.783 C9.22 8.443 9.22 9.103 9.22 9.783 C9.88 9.783 10.54 9.783 11.22 9.783 C17.781 16.167 21.422 24.746 25.294 32.877 C26.552 35.468 27.927 37.993 29.282 40.533 C42.746 67.645 48.942 100.837 39.438 130.2 C30.224 156.744 12.851 179.932 -8.78 197.783 C-10.284 199.092 -11.784 200.404 -13.28 201.721 C-14.447 202.742 -15.614 203.762 -16.78 204.783 C-16.78 200.693 -14.764 198.124 -12.718 194.721 C1.184 170.744 7.009 143.208 -0.124 115.932 C-0.341 115.223 -0.557 114.514 -0.78 113.783 C-4.394 113.783 -5.809 114.783 -8.905 116.596 C-23.497 124.769 -42.276 126.793 -58.479 122.298 C-76.751 116.416 -91.896 104.268 -101.468 87.518 C-103.894 82.464 -105.385 77.198 -106.78 71.783 C-107.007 70.939 -107.234 70.095 -107.468 69.225 C-111.5 52.17 -107.794 34.604 -98.78 19.783 C-96.637 16.59 -94.323 13.667 -91.78 10.783 C-91.124 10.033 -90.468 9.283 -89.792 8.51 C-66.274 -16.685 -27.933 -19.092 0 0 Z " fill="#000000" transform="translate(705.7802734375,722.216796875)"/>
<path d="M0 0 C1.128 0.508 2.256 1.016 3.418 1.539 C18.947 9.222 31.213 22.549 37 39 C43.39 57.969 42.266 76.286 33.812 94.312 C24.451 111.804 9.971 123.285 -8.77 129.457 C-41.005 137.304 -81.725 129.121 -109.825 112.375 C-115.606 108.72 -120.856 104.494 -126 100 C-126.681 99.408 -127.361 98.817 -128.062 98.207 C-129.83 96.55 -131.416 94.833 -133 93 C-133.743 92.149 -134.485 91.298 -135.25 90.422 C-152.156 69.818 -167.839 36.13 -167 9 C-163.892 12.664 -161.587 16.4 -159.312 20.625 C-155.548 27.381 -151.198 33.251 -146 39 C-145.167 39.927 -144.335 40.854 -143.477 41.809 C-136.708 48.965 -129.485 54.086 -121 59 C-120.158 59.492 -119.316 59.985 -118.449 60.492 C-111.074 64.483 -103.014 66.663 -95 69 C-95.052 67.368 -95.052 67.368 -95.105 65.703 C-95.517 47.707 -91.134 31.15 -78.75 17.562 C-58.34 -3.733 -27.561 -12.525 0 0 Z " fill="#000000" transform="translate(232,449)"/>
<path d="M0 0 C0 0.33 0 0.66 0 1 C-0.552 1.02 -1.105 1.04 -1.674 1.06 C-34.111 2.276 -61.058 7.243 -85 31 C-85.66 31.99 -86.32 32.98 -87 34 C-86.14 34.238 -85.28 34.477 -84.395 34.723 C-69.536 40.314 -59.04 54.896 -52.664 68.809 C-45.418 86.009 -46.558 105.498 -53.466 122.547 C-55.93 128.266 -59.201 133.104 -63 138 C-63.66 138.99 -64.32 139.98 -65 141 C-65.66 141 -66.32 141 -67 141 C-67.33 141.99 -67.66 142.98 -68 144 C-80.63 156.916 -98.617 163.155 -116.312 163.438 C-136.2 163.279 -151.983 156.169 -166 142 C-166.623 141.411 -167.245 140.822 -167.887 140.215 C-180.264 127.559 -185.455 108.213 -185.273 90.984 C-183.451 64.434 -165.73 41.698 -148 23 C-147.553 22.52 -147.106 22.041 -146.645 21.546 C-139.408 13.817 -131.941 7.692 -123 2 C-122.181 1.447 -121.363 0.894 -120.52 0.324 C-85.032 -22.68 -37.091 -14.34 0 0 Z " fill="#000000" transform="translate(782,151)"/>
<path d="M0 0 C0.2 0.703 0.401 1.405 0.607 2.129 C12.703 44.307 29.026 82.112 56 117 C56.779 118.013 57.557 119.026 58.359 120.07 C72.119 137.399 88.377 154.593 106 168 C106.633 168.493 107.265 168.985 107.917 169.493 C136.219 191.477 167.925 207.981 202 219 C203.332 219.434 203.332 219.434 204.691 219.877 C260.141 237.639 320.03 236.669 375.853 221.487 C378 221 378 221 381 221 C381.33 220.34 381.66 219.68 382 219 C383.65 223.62 385.3 228.24 387 233 C305.732 256.778 218.76 250.268 143.793 209.688 C133.909 204.221 124.212 198.546 115 192 C113.843 191.191 112.685 190.383 111.527 189.574 C96.862 179.275 83.582 167.769 70.913 155.099 C69.44 153.628 67.96 152.165 66.479 150.703 C60.211 144.473 54.458 137.958 49 131 C48.421 130.269 47.841 129.539 47.244 128.786 C19.473 93.523 -7.954 47.478 -13 2 C-15.31 2 -17.62 2 -20 2 C-20 1.67 -20 1.34 -20 1 C-17.604 0.831 -15.208 0.665 -12.812 0.5 C-12.139 0.452 -11.465 0.405 -10.771 0.355 C-7.172 0.11 -3.607 -0.022 0 0 Z " fill="#880000" transform="translate(219,579)"/>
</svg>