
<!-- Generator: visioncortex VTracer 0.6.4 -->
<svg version="1.1" xmlns="http://www.w3.org/2000/svg" viewBox="0 0 213 237" preserveAspectRatio="xMidYMid meet">
<path d="M0 0 C9.875 0.12 17.662 1.383 26.702 5.385 C27.324 5.658 27.946 5.931 28.587 6.212 C44.933 13.514 56.821 23.692 63.702 40.385 C64.55 42.263 65.404 44.138 66.265 46.01 C67.665 49.076 69.035 52.147 70.327 55.26 C71.63 58.397 71.63 58.397 73.39 61.198 C74.702 63.385 74.702 63.385 74.702 65.385 C75.362 65.385 76.022 65.385 76.702 65.385 C76.785 66.004 76.867 66.623 76.952 67.26 C77.476 69.509 77.476 69.509 79.39 70.28 C80.153 70.644 80.916 71.009 81.702 71.385 C83.62 72.655 85.536 73.926 87.452 75.198 C96.714 81.1 106.866 83.93 117.702 85.385 C119.702 86.052 121.702 86.718 123.702 87.385 C129.325 88.674 134.984 89.639 140.702 90.385 C140.702 91.045 140.702 91.705 140.702 92.385 C118.124 97.818 94.679 95.227 74.702 83.385 C65.477 77.371 58.85 70.045 54.066 60.151 C52.173 56.311 50.104 52.576 48.034 48.83 C46.875 46.702 45.77 44.56 44.702 42.385 C44.042 42.385 43.382 42.385 42.702 42.385 C42.62 41.766 42.537 41.148 42.452 40.51 C41.452 37.677 40.355 37.697 37.702 36.385 C36.097 35.099 34.515 33.784 32.952 32.448 C26.309 27.071 20.22 24.797 11.702 24.385 C8.793 25.139 6.376 26.048 3.702 27.385 C2.556 31.334 2.586 35.183 2.602 39.272 C2.604 39.953 2.605 40.634 2.606 41.335 C2.612 43.608 2.624 45.882 2.636 48.156 C2.642 49.789 2.646 51.422 2.651 53.055 C2.661 56.569 2.673 60.083 2.688 63.597 C2.711 69.157 2.725 74.717 2.736 80.277 C2.769 96.087 2.811 111.896 2.874 127.706 C2.908 136.44 2.932 145.173 2.944 153.907 C2.951 158.526 2.963 163.145 2.989 167.764 C3.013 172.11 3.024 176.456 3.023 180.803 C3.026 182.394 3.033 183.986 3.047 185.577 C3.15 198.591 1.163 208.278 -7.798 218.135 C-9.501 219.668 -11.254 221.146 -13.048 222.573 C-15.372 224.188 -15.372 224.188 -16.298 226.385 C-17.288 226.385 -18.278 226.385 -19.298 226.385 C-19.298 227.045 -19.298 227.705 -19.298 228.385 C-31.909 235.081 -44.186 240.404 -58.79 236.764 C-64.135 234.424 -67.968 230.085 -71.298 225.385 C-73.652 218.323 -73.355 209.794 -70.298 203.01 C-69.657 201.787 -69.001 200.572 -68.298 199.385 C-67.638 199.385 -66.978 199.385 -66.298 199.385 C-66.036 198.792 -65.774 198.199 -65.505 197.588 C-58.703 185.174 -40.716 178.62 -27.923 174.698 C-25.061 173.863 -22.191 173.103 -19.298 172.385 C-19.299 171.534 -19.301 170.683 -19.303 169.806 C-19.347 149.109 -19.38 128.411 -19.401 107.713 C-19.412 97.704 -19.426 87.694 -19.448 77.685 C-19.468 68.962 -19.481 60.238 -19.486 51.515 C-19.488 46.895 -19.495 42.276 -19.509 37.656 C-19.523 33.308 -19.527 28.961 -19.524 24.613 C-19.524 23.017 -19.528 21.421 -19.536 19.825 C-19.546 17.646 -19.544 15.467 -19.538 13.288 C-19.54 12.069 -19.542 10.849 -19.544 9.593 C-18.601 -2.701 -10.073 0.027 0 0 Z " fill="#F0F0F0" transform="translate(72.297607421875,-0.385009765625)"/>
<path d="M0 0 C0.66 0.33 1.32 0.66 2 1 C1.676 1.518 1.351 2.036 1.017 2.569 C-0.327 5.782 -0.263 8.413 -0.278 11.897 C-0.287 12.937 -0.287 12.937 -0.296 13.999 C-0.313 16.322 -0.316 18.645 -0.319 20.968 C-0.328 22.633 -0.338 24.299 -0.349 25.965 C-0.377 30.487 -0.392 35.009 -0.405 39.532 C-0.42 44.258 -0.447 48.983 -0.473 53.709 C-0.52 62.659 -0.556 71.608 -0.589 80.558 C-0.628 90.746 -0.677 100.935 -0.727 111.123 C-0.831 132.082 -0.92 153.041 -1 174 C-1.66 174 -2.32 174 -3 174 C-3.047 152.182 -3.082 130.364 -3.104 108.546 C-3.114 98.415 -3.128 88.285 -3.151 78.155 C-3.171 69.326 -3.184 60.497 -3.188 51.668 C-3.191 46.992 -3.197 42.317 -3.211 37.642 C-3.225 33.241 -3.229 28.841 -3.226 24.441 C-3.227 22.826 -3.231 21.21 -3.238 19.595 C-3.248 17.39 -3.246 15.185 -3.241 12.979 C-3.242 11.745 -3.244 10.511 -3.246 9.239 C-2.987 5.829 -2.514 2.514 0 0 Z " fill="#404040" transform="translate(56,0)"/>
<path d="M0 0 C0.66 0.33 1.32 0.66 2 1 C1.679 1.548 1.357 2.096 1.026 2.661 C-0.169 5.385 -0.315 7.454 -0.414 10.422 C-0.453 11.447 -0.491 12.471 -0.531 13.527 C-0.562 14.591 -0.593 15.654 -0.625 16.75 C-0.664 17.829 -0.702 18.908 -0.742 20.02 C-0.836 22.68 -0.922 25.339 -1 28 C-1.33 28 -1.66 28 -2 28 C-2.227 24.438 -2.428 20.876 -2.625 17.312 C-2.689 16.305 -2.754 15.298 -2.82 14.26 C-2.872 13.283 -2.923 12.307 -2.977 11.301 C-3.029 10.405 -3.081 9.51 -3.135 8.587 C-2.97 5.422 -2.312 2.312 0 0 Z " fill="#7E7E7E" transform="translate(56,0)"/>
</svg>