
<!-- Generator: visioncortex VTracer 0.6.4 -->
<svg version="1.1" xmlns="http://www.w3.org/2000/svg" viewBox="0 0 500 500" preserveAspectRatio="xMidYMid meet">
<path d="M0 0 C0.942 -0.007 1.883 -0.014 2.854 -0.022 C5.999 -0.039 9.143 -0.013 12.289 0.013 C14.548 0.01 16.807 0.004 19.065 -0.004 C25.194 -0.019 31.321 0.004 37.449 0.035 C43.861 0.061 50.273 0.056 56.685 0.054 C67.45 0.057 78.215 0.083 88.98 0.124 C100.054 0.167 111.127 0.188 122.201 0.186 C122.883 0.186 123.566 0.186 124.269 0.185 C124.95 0.185 125.631 0.185 126.333 0.185 C138.307 0.183 150.282 0.199 162.256 0.223 C167.354 0.234 172.452 0.24 177.55 0.241 C183.551 0.244 189.55 0.262 195.55 0.293 C197.754 0.301 199.958 0.305 202.162 0.303 C205.166 0.302 208.17 0.319 211.174 0.341 C212.05 0.336 212.925 0.331 213.828 0.326 C218.523 0.383 221.652 0.685 225.46 3.742 C226.972 6.011 226.972 6.011 228.148 8.554 C228.741 9.801 228.741 9.801 229.347 11.074 C231.47 16.162 232.826 21.178 233.839 26.593 C235.427 34.836 237.388 42.969 239.398 51.117 C239.937 53.319 240.475 55.521 241.014 57.723 C241.363 59.151 241.712 60.579 242.062 62.007 C243.267 66.932 244.442 71.864 245.585 76.804 C246.651 81.391 247.763 85.96 248.925 90.523 C251.568 100.907 254.096 111.23 255.917 121.792 C256.398 124.786 256.398 124.786 257.46 127.742 C269.832 129.549 282.527 128.573 294.835 126.679 C301.015 125.792 307.093 125.491 313.335 125.429 C314.637 125.403 314.637 125.403 315.966 125.376 C324.006 125.383 332.429 127.131 338.46 132.742 C341.081 137.604 342.299 142.964 343.534 148.312 C346.942 163.031 352.025 175.915 360.234 188.664 C361.46 190.742 361.46 190.742 362.437 193.445 C362.774 194.203 363.112 194.961 363.46 195.742 C364.45 196.072 365.44 196.402 366.46 196.742 C368.081 198.753 368.081 198.753 369.898 201.429 C374.105 207.394 378.742 212.879 383.53 218.382 C384.006 218.933 384.481 219.484 384.971 220.052 C386.006 221.226 387.066 222.378 388.145 223.511 C392.288 227.98 392.288 227.98 393.116 231.644 C393.065 232.646 393.013 233.647 392.96 234.679 C392.907 235.899 392.854 237.118 392.8 238.375 C392.693 239.831 392.579 241.286 392.46 242.742 C392.392 243.595 392.324 244.448 392.254 245.327 C391.931 249.277 391.597 253.225 391.243 257.173 C390.607 264.403 390.207 271.613 389.96 278.867 C389.619 288.416 389.165 297.954 388.585 307.492 C388.519 308.716 388.452 309.941 388.384 311.203 C387.684 322.191 386.859 335.008 378.996 343.359 C374.768 346.771 370.437 346.431 365.205 346.363 C364.175 346.37 363.144 346.376 362.082 346.383 C358.63 346.398 355.178 346.377 351.726 346.357 C349.25 346.36 346.775 346.366 344.299 346.374 C338.274 346.387 332.25 346.376 326.225 346.355 C319.208 346.331 312.191 346.332 305.174 346.335 C292.655 346.339 280.136 346.318 267.616 346.284 C255.469 346.251 243.321 346.236 231.174 346.243 C217.943 346.249 204.713 346.247 191.483 346.227 C190.783 346.226 190.084 346.225 189.363 346.224 C187.958 346.222 186.553 346.22 185.148 346.218 C180.257 346.211 175.366 346.21 170.475 346.212 C163.893 346.213 157.311 346.198 150.729 346.173 C148.311 346.165 145.892 346.163 143.474 346.167 C140.178 346.17 136.883 346.156 133.588 346.136 C132.145 346.144 132.145 346.144 130.673 346.152 C125.811 346.102 122.351 345.999 118.46 342.742 C114.989 337.535 113.911 332.504 112.843 326.441 C112.708 325.7 112.574 324.958 112.435 324.194 C112.106 322.377 111.782 320.56 111.46 318.742 C110.532 318.75 109.604 318.758 108.649 318.766 C86.046 318.958 63.443 319.132 40.841 319.288 C29.91 319.364 18.979 319.446 8.049 319.541 C-1.481 319.624 -11.011 319.696 -20.541 319.755 C-25.584 319.787 -30.628 319.824 -35.671 319.874 C-40.424 319.921 -45.177 319.953 -49.931 319.975 C-51.669 319.985 -53.408 320.001 -55.146 320.022 C-77.268 320.286 -77.268 320.286 -83.257 315.317 C-90.03 307.66 -89.944 294.215 -90.415 284.554 C-91.08 273.704 -92.351 263.043 -93.977 252.304 C-94.087 251.575 -94.197 250.846 -94.31 250.095 C-95.336 243.312 -96.4 236.536 -97.532 229.769 C-102.344 200.698 -102.344 200.698 -96.727 192.617 C-95.337 190.987 -93.941 189.363 -92.54 187.742 C-90.648 185.114 -88.848 182.427 -87.04 179.742 C-86.088 178.351 -85.135 176.962 -84.18 175.574 C-83.727 174.915 -83.274 174.255 -82.807 173.576 C-81.153 171.181 -79.472 168.805 -77.79 166.429 C-71.103 156.884 -65.23 146.901 -59.54 136.742 C-59.002 135.792 -58.465 134.842 -57.911 133.863 C-50.987 121.443 -45.609 108.412 -40.482 95.173 C-39.897 93.663 -39.308 92.155 -38.711 90.65 C-31.942 73.473 -27.496 55.019 -25.04 36.742 C-24.073 29.761 -22.415 23.149 -20.29 16.429 C-19.894 15.111 -19.894 15.111 -19.491 13.767 C-19.213 12.938 -18.935 12.108 -18.649 11.253 C-18.412 10.526 -18.174 9.799 -17.929 9.049 C-13.517 1.723 -8.22 -0.146 0 0 Z M9.46 31.742 C8.085 35.773 7.013 39.64 6.269 43.835 C1.712 68.536 -4.662 92.575 -14.54 115.742 C-14.826 116.43 -15.112 117.117 -15.408 117.826 C-22.865 135.688 -31.559 153.39 -42.356 169.476 C-44.438 172.589 -46.409 175.747 -48.366 178.938 C-52.883 186.298 -57.658 193.232 -63.302 199.789 C-68.514 206.447 -68.408 212.53 -67.54 220.742 C-67.033 223.868 -66.464 226.97 -65.824 230.072 C-63.254 242.661 -61.756 255.604 -61.04 268.429 C-60.656 275.067 -59.234 281.326 -57.54 287.742 C-53.508 288.496 -49.7 288.867 -45.6 288.869 C-44.434 288.872 -43.268 288.874 -42.067 288.877 C-40.802 288.875 -39.537 288.873 -38.233 288.871 C-36.875 288.872 -35.518 288.874 -34.16 288.876 C-30.479 288.881 -26.799 288.879 -23.118 288.876 C-19.245 288.873 -15.372 288.876 -11.499 288.877 C-4.981 288.879 1.538 288.877 8.056 288.872 C15.541 288.867 23.027 288.868 30.512 288.874 C36.971 288.878 43.43 288.879 49.889 288.876 C53.731 288.875 57.574 288.875 61.416 288.878 C77.455 288.89 93.449 288.803 109.46 287.742 C109.12 280.792 108.699 274.127 106.96 267.367 C104.418 257.124 101.964 243.497 107.511 233.929 C111.222 229.025 116.311 226.003 121.425 222.714 C128.396 218.183 134.426 213.381 139.46 206.742 C140.013 206.025 140.566 205.308 141.136 204.57 C152.205 189.55 157.677 172.104 162.523 154.304 C167.429 136.701 167.429 136.701 172.273 131.972 C178.584 128.422 184.4 128.464 191.46 128.554 C192.482 128.559 193.505 128.564 194.558 128.569 C200.225 128.62 205.817 128.862 211.46 129.367 C216.366 129.8 219.894 129.59 224.46 127.742 C224.152 121.184 222.883 115.15 221.113 108.835 C219.722 103.836 218.552 98.814 217.46 93.742 C215.973 86.867 214.249 80.105 212.394 73.32 C211.182 68.676 210.219 63.995 209.249 59.296 C208.395 55.448 207.385 51.665 206.335 47.867 C204.944 42.789 203.983 37.969 203.46 32.742 C201.745 31.026 199.567 31.619 197.28 31.613 C196.532 31.616 195.784 31.618 195.013 31.621 C194.224 31.621 193.435 31.62 192.622 31.619 C189.958 31.617 187.294 31.623 184.63 31.628 C182.728 31.628 180.827 31.628 178.925 31.628 C173.746 31.627 168.566 31.633 163.386 31.64 C157.98 31.647 152.573 31.647 147.167 31.648 C136.921 31.651 126.675 31.66 116.429 31.67 C104.768 31.681 93.107 31.686 81.446 31.691 C57.45 31.702 33.455 31.719 9.46 31.742 Z M290.276 158.834 C289.23 158.843 288.185 158.853 287.108 158.863 C283.699 158.895 280.291 158.928 276.882 158.96 C274.5 158.983 272.118 159.005 269.737 159.028 C263.503 159.086 257.269 159.146 251.035 159.205 C244.66 159.266 238.285 159.326 231.909 159.386 C219.426 159.504 206.943 159.623 194.46 159.742 C193.817 161.328 193.176 162.914 192.535 164.501 C192.178 165.385 191.821 166.269 191.453 167.179 C190.168 170.495 189.189 173.822 188.21 177.242 C182.952 194.638 174.685 215.444 161.64 228.429 C160.237 229.696 160.237 229.696 160.46 231.742 C159.8 231.742 159.14 231.742 158.46 231.742 C158.46 232.402 158.46 233.062 158.46 233.742 C157.902 233.991 157.344 234.239 156.769 234.496 C154.067 235.954 151.888 237.722 149.523 239.679 C146.991 241.773 144.574 243.674 141.753 245.363 C138.768 247.158 137.851 248.543 136.46 251.742 C135.257 257.836 135.562 263.249 136.71 269.304 C138.211 277.911 139.354 286.528 140.369 295.205 C140.483 296.155 140.597 297.106 140.714 298.085 C140.858 299.326 140.858 299.326 141.005 300.591 C141.434 303.557 141.949 306.491 142.489 309.439 C142.761 310.927 142.761 310.927 143.039 312.446 C143.178 313.204 143.317 313.961 143.46 314.742 C170.954 314.765 198.448 314.783 225.941 314.794 C238.706 314.799 251.471 314.806 264.236 314.817 C275.357 314.827 286.479 314.834 297.6 314.836 C303.493 314.837 309.385 314.84 315.278 314.847 C320.818 314.854 326.357 314.856 331.896 314.855 C333.936 314.855 335.975 314.857 338.015 314.861 C340.786 314.866 343.558 314.865 346.33 314.862 C347.148 314.865 347.966 314.868 348.809 314.871 C352.433 315.203 352.433 315.203 355.46 313.742 C355.897 310.697 356.276 307.665 356.616 304.609 C356.724 303.673 356.831 302.736 356.941 301.772 C357.287 298.721 357.625 295.669 357.96 292.617 C358.131 291.074 358.131 291.074 358.305 289.501 C360.211 272.216 360.211 272.216 361.335 254.867 C361.372 254.004 361.409 253.142 361.447 252.253 C361.88 243.289 361.88 243.289 358.019 235.531 C356.993 234.462 355.951 233.408 354.898 232.367 C353.798 231.228 352.699 230.089 351.601 228.949 C351.063 228.4 350.524 227.852 349.97 227.287 C334.008 210.949 324.176 192.103 317.597 170.414 C316.369 166.448 314.987 162.6 313.46 158.742 C305.731 158.731 298.004 158.758 290.276 158.834 Z " fill="#EEEEEE" transform="translate(103.53982543945313,97.25828552246094)"/>
<path d="M0 0 C64.35 0 128.7 0 195 0 C194.67 0.99 194.34 1.98 194 3 C130.31 3 66.62 3 1 3 C0.01 7.95 -0.98 12.9 -2 18 C-2.33 18 -2.66 18 -3 18 C-2.886 15.749 -2.758 13.5 -2.625 11.25 C-2.555 9.997 -2.486 8.744 -2.414 7.453 C-2 4 -2 4 0 0 Z " fill="#272727" transform="translate(112,127)"/>
<path d="M0 0 C2 1 2 1 2.702 2.794 C3.374 5.298 4.042 7.802 4.688 10.312 C4.925 11.181 5.163 12.049 5.408 12.943 C5.628 13.783 5.848 14.623 6.074 15.488 C6.276 16.257 6.478 17.026 6.686 17.818 C7.027 20.186 6.733 21.742 6 24 C3.496 18.718 2.216 13.822 1.312 8.062 C1.183 7.283 1.053 6.504 0.92 5.701 C0.605 3.802 0.302 1.901 0 0 Z " fill="#494949" transform="translate(443,236)"/>
<path d="M0 0 C2.167 3.251 2.813 5.712 3.688 9.5 C3.959 10.645 4.231 11.789 4.512 12.969 C5 16 5 16 4 19 C1.36 19 -1.28 19 -4 19 C-4 18.67 -4 18.34 -4 18 C-0.535 17.505 -0.535 17.505 3 17 C2.783 16.192 2.567 15.384 2.344 14.551 C2.065 13.482 1.787 12.414 1.5 11.312 C1.222 10.257 0.943 9.201 0.656 8.113 C0.061 5.289 -0.128 2.872 0 0 Z " fill="#3E3E3E" transform="translate(325,208)"/>
<path d="M0 0 C0.66 1.32 1.32 2.64 2 4 C1 5 1 5 -0.848 5.098 C-2.898 5.065 -4.949 5.033 -7 5 C-7 4.67 -7 4.34 -7 4 C-3.535 3.505 -3.535 3.505 0 3 C0 2.01 0 1.02 0 0 Z " fill="#161616" transform="translate(328,222)"/>
</svg>