
<!-- Generator: visioncortex VTracer 0.6.4 -->
<svg version="1.1" xmlns="http://www.w3.org/2000/svg" viewBox="0 0 194 260" preserveAspectRatio="xMidYMid meet">
<path d="M0 0 C3.625 3.108 7.066 6.37 10.466 9.722 C11.563 10.799 11.563 10.799 12.681 11.897 C21.901 21.592 28.559 33.989 32.466 46.722 C32.725 47.548 32.984 48.375 33.251 49.226 C35.472 57.018 35.932 64.528 35.857 72.585 C35.841 74.654 35.857 76.721 35.876 78.79 C35.89 87.334 35.226 95.577 32.466 103.722 C31.806 104.382 31.146 105.042 30.466 105.722 C29.716 105.009 28.966 104.296 28.193 103.562 C-0.628 76.458 -34.219 68.808 -72.961 69.577 C-80.018 69.863 -86.694 71.028 -93.534 72.722 C-94.467 72.927 -95.4 73.132 -96.362 73.343 C-115.195 77.882 -132.828 86.501 -146.713 100.104 C-148.534 101.722 -148.534 101.722 -150.534 101.722 C-150.534 102.382 -150.534 103.042 -150.534 103.722 C-151.194 103.722 -151.854 103.722 -152.534 103.722 C-152.534 104.382 -152.534 105.042 -152.534 105.722 C-153.194 105.722 -153.854 105.722 -154.534 105.722 C-162.563 82.961 -160.738 56.642 -150.784 34.847 C-147.419 27.908 -143.463 21.672 -138.534 15.722 C-137.835 14.872 -137.136 14.023 -136.417 13.147 C-123.722 -1.602 -107.953 -11.445 -89.534 -17.278 C-88.496 -17.62 -87.458 -17.962 -86.389 -18.313 C-57.413 -26.15 -23.048 -19.211 0 0 Z " fill="#DF0000" transform="translate(158.53369140625,20.2783203125)"/>
<path d="M0 0 C2.179 2.426 3.79 4.76 5.348 7.613 C-7.342 31.651 -27.056 47.684 -52.652 56.613 C-56.716 57.828 -60.374 58.613 -64.652 58.613 C-64.652 82.043 -64.652 105.473 -64.652 129.613 C-76.202 129.613 -87.752 129.613 -99.652 129.613 C-99.982 106.513 -100.312 83.413 -100.652 59.613 C-105.272 58.293 -109.892 56.973 -114.652 55.613 C-134.968 47.815 -152.768 35.748 -164.777 17.238 C-165.156 16.655 -165.534 16.072 -165.924 15.472 C-169.762 9.269 -169.762 9.269 -169.652 5.613 C-167.954 3.232 -166.376 1.354 -164.34 -0.699 C-163.787 -1.272 -163.235 -1.846 -162.666 -2.436 C-143.788 -21.702 -117.471 -33.3 -90.434 -34.395 C-54.575 -34.32 -25.779 -25.63 0 0 Z M-159.652 6.613 C-158.77 16.343 -146.674 26.722 -139.652 32.613 C-125.313 43.662 -109.132 48.729 -91.652 52.613 C-91.652 75.383 -91.652 98.153 -91.652 121.613 C-85.712 121.613 -79.772 121.613 -73.652 121.613 C-73.652 98.513 -73.652 75.413 -73.652 51.613 C-66.227 50.623 -66.227 50.623 -58.652 49.613 C-45.266 45.85 -34.403 39.311 -23.652 30.613 C-22.136 29.469 -22.136 29.469 -20.59 28.301 C-19.95 27.744 -19.311 27.187 -18.652 26.613 C-18.652 25.953 -18.652 25.293 -18.652 24.613 C-17.992 24.613 -17.332 24.613 -16.652 24.613 C-14.9 22.565 -13.266 20.516 -11.652 18.363 C-10.976 17.483 -10.976 17.483 -10.285 16.586 C-8.103 13.713 -6.097 10.93 -4.652 7.613 C-21.452 -10.571 -40.446 -19.834 -64.652 -24.387 C-65.443 -24.562 -66.235 -24.737 -67.05 -24.917 C-101.74 -31.175 -135.49 -17.549 -159.652 6.613 Z " fill="#272727" transform="translate(179.65234375,130.38671875)"/>
<path d="M0 0 C3.625 3.108 7.066 6.37 10.466 9.722 C11.563 10.799 11.563 10.799 12.681 11.897 C21.901 21.592 28.559 33.989 32.466 46.722 C32.725 47.548 32.984 48.375 33.251 49.226 C35.472 57.018 35.932 64.528 35.857 72.585 C35.841 74.654 35.857 76.721 35.876 78.79 C35.89 87.334 35.226 95.577 32.466 103.722 C31.806 104.382 31.146 105.042 30.466 105.722 C29.716 105.009 28.966 104.296 28.193 103.562 C-0.628 76.458 -34.219 68.808 -72.961 69.577 C-80.018 69.863 -86.694 71.028 -93.534 72.722 C-94.467 72.927 -95.4 73.132 -96.362 73.343 C-115.195 77.882 -132.828 86.501 -146.713 100.104 C-148.534 101.722 -148.534 101.722 -150.534 101.722 C-150.534 102.382 -150.534 103.042 -150.534 103.722 C-151.194 103.722 -151.854 103.722 -152.534 103.722 C-152.534 104.382 -152.534 105.042 -152.534 105.722 C-153.194 105.722 -153.854 105.722 -154.534 105.722 C-162.563 82.961 -160.738 56.642 -150.784 34.847 C-147.419 27.908 -143.463 21.672 -138.534 15.722 C-137.835 14.872 -137.136 14.023 -136.417 13.147 C-123.722 -1.602 -107.953 -11.445 -89.534 -17.278 C-88.496 -17.62 -87.458 -17.962 -86.389 -18.313 C-57.413 -26.15 -23.048 -19.211 0 0 Z M-91.534 -8.278 C-93.32 -7.642 -93.32 -7.642 -95.143 -6.993 C-106.139 -2.684 -115.746 3.862 -124.534 11.722 C-124.534 12.382 -124.534 13.042 -124.534 13.722 C-125.093 13.931 -125.653 14.139 -126.229 14.354 C-129.345 16.203 -131.261 18.748 -133.409 21.597 C-133.849 22.178 -134.288 22.76 -134.741 23.359 C-142.019 33.229 -146.022 44.082 -149.534 55.722 C-149.717 56.31 -149.9 56.898 -150.089 57.504 C-150.693 60.514 -150.645 63.386 -150.631 66.456 C-150.628 67.752 -150.625 69.047 -150.622 70.382 C-150.613 71.745 -150.605 73.108 -150.596 74.472 C-150.591 75.851 -150.587 77.229 -150.583 78.608 C-150.571 81.98 -150.554 85.351 -150.534 88.722 C-146.111 88.722 -145.647 88.36 -142.346 85.784 C-135.211 80.576 -127.404 76.684 -119.534 72.722 C-118.675 72.286 -117.817 71.85 -116.932 71.401 C-86.017 56.696 -44.769 57.989 -13.031 68.896 C-0.192 73.525 14.656 79.911 24.466 89.722 C25.456 89.722 26.446 89.722 27.466 89.722 C30.208 78.887 29.306 65.42 26.466 54.722 C26.171 53.515 25.876 52.309 25.572 51.065 C19.648 28.655 3.98 10.979 -15.452 -1.091 C-29.874 -9.227 -44.276 -12.855 -60.846 -12.716 C-62.755 -12.704 -62.755 -12.704 -64.702 -12.693 C-74.258 -12.526 -82.543 -11.573 -91.534 -8.278 Z " fill="#1C1616" transform="translate(158.53369140625,20.2783203125)"/>
<path d="M0 0 C-1.935 0.84 -3.873 1.672 -5.812 2.5 C-6.891 2.964 -7.97 3.428 -9.082 3.906 C-12 5 -12 5 -15 5 C-15 5.66 -15 6.32 -15 7 C-16.65 7 -18.3 7 -20 7 C-20 7.66 -20 8.32 -20 9 C-21.98 9.66 -23.96 10.32 -26 11 C-26 11.66 -26 12.32 -26 13 C-27.646 14.034 -29.317 15.028 -31 16 C-32.268 17.021 -32.268 17.021 -33.562 18.062 C-35.671 19.738 -37.554 20.913 -40 22 C-38.474 17.744 -35.32 15.677 -31.75 13.188 C-31.133 12.752 -30.516 12.317 -29.881 11.869 C-8.1 -3.115 -8.1 -3.115 0 0 Z M-42 22 C-41.34 22.33 -40.68 22.66 -40 23 C-41.65 25.31 -43.3 27.62 -45 30 C-45.99 29.67 -46.98 29.34 -48 29 C-46.02 26.69 -44.04 24.38 -42 22 Z M-49 30 C-48 33 -48 33 -48.996 35.262 C-49.472 36.062 -49.947 36.863 -50.438 37.688 C-50.911 38.496 -51.384 39.304 -51.871 40.137 C-52.43 41.059 -52.43 41.059 -53 42 C-53.66 42 -54.32 42 -55 42 C-55.125 42.559 -55.25 43.119 -55.379 43.695 C-56.051 46.19 -56.952 48.487 -57.938 50.875 C-63.91 65.686 -64.272 79.195 -64 95 C-61.502 93.526 -59.111 92.086 -56.812 90.312 C-55 89 -55 89 -53 89 C-53 88.34 -53 87.68 -53 87 C-51.425 86.131 -49.839 85.28 -48.25 84.438 C-46.927 83.724 -46.927 83.724 -45.578 82.996 C-42.793 81.92 -41.73 81.935 -39 83 C-39.978 83.496 -40.957 83.993 -41.965 84.504 C-48.937 88.099 -55.35 91.608 -61.266 96.848 C-61.838 97.228 -62.41 97.608 -63 98 C-63.99 97.67 -64.98 97.34 -66 97 C-67.028 65.794 -67.028 65.794 -61 52 C-60.666 51.141 -60.332 50.283 -59.988 49.398 C-57.177 42.495 -53.123 36.185 -49 30 Z " fill="#B80B0C" transform="translate(74,12)"/>
<path d="M0 0 C1.124 0 1.124 0 2.271 0 C4.498 -0.002 6.726 -0.02 8.953 -0.039 C33.835 -0.142 33.835 -0.142 39.865 5.186 C30.865 4.186 30.865 4.186 26.994 3.67 C20.263 2.931 13.506 2.898 6.74 2.873 C6.039 2.87 5.337 2.867 4.615 2.864 C-14.956 2.845 -34.198 5.552 -51.885 14.295 C-52.627 14.589 -53.37 14.883 -54.135 15.186 C-54.795 14.856 -55.455 14.526 -56.135 14.186 C-55.475 13.526 -54.815 12.866 -54.135 12.186 C-52.815 12.186 -51.495 12.186 -50.135 12.186 C-50.135 11.526 -50.135 10.866 -50.135 10.186 C-46.206 8.519 -42.241 7.338 -38.135 6.186 C-37.186 5.856 -36.237 5.526 -35.26 5.186 C-28.332 2.969 -21.575 1.925 -14.322 1.432 C-1.647 0.006 -1.647 0.006 0 0 Z " fill="#B20A0B" transform="translate(91.134765625,78.814453125)"/>
<path d="M0 0 C12.619 1.909 24.947 14.412 32.627 24.04 C41.176 35.656 41.176 35.656 42 41 C38.254 37.575 35.785 34.145 33.199 29.789 C31.774 27.664 30.066 26.476 28 25 C27.875 24.385 27.75 23.77 27.621 23.137 C26.81 20.347 25.538 19.398 23.312 17.562 C22.58 16.954 21.848 16.346 21.094 15.719 C20.403 15.152 19.712 14.584 19 14 C18.113 13.196 17.226 12.391 16.312 11.562 C12.634 8.482 8.434 6.12 4.318 3.678 C2.864 2.81 1.43 1.908 0 1 C0 0.67 0 0.34 0 0 Z M15 13 C15.99 13.495 15.99 13.495 17 14 C16.01 14.495 16.01 14.495 15 15 C15 14.34 15 13.68 15 13 Z " fill="#B10B0C" transform="translate(136,17)"/>
<path d="M0 0 C1 2 1 2 0.039 5.336 C-0.425 6.685 -0.897 8.031 -1.375 9.375 C-3.61 15.787 -5.128 20.896 -5.098 27.734 C-5.094 29.03 -5.091 30.325 -5.088 31.66 C-5.08 33.023 -5.071 34.387 -5.062 35.75 C-5.057 37.129 -5.053 38.508 -5.049 39.887 C-5.037 43.258 -5.021 46.629 -5 50 C-1.791 48.764 0.727 47.66 3.312 45.375 C4.199 44.591 5.086 43.808 6 43 C6.66 43.33 7.32 43.66 8 44 C6.453 45.372 4.887 46.722 3.312 48.062 C2.442 48.817 1.572 49.571 0.676 50.348 C-2 52 -2 52 -4.832 51.746 C-5.547 51.5 -6.263 51.254 -7 51 C-7 49.02 -7 47.04 -7 45 C-7.66 45 -8.32 45 -9 45 C-8.719 41.041 -8.423 37.083 -8.125 33.125 C-8.046 32.016 -7.968 30.908 -7.887 29.766 C-6.53 12.03 -6.53 12.03 -2.375 4.375 C-1.929 3.537 -1.483 2.699 -1.023 1.836 C-0.517 0.927 -0.517 0.927 0 0 Z " fill="#3F0404" transform="translate(14,59)"/>
<path d="M0 0 C2 1 2 1 2.762 2.731 C2.996 3.471 3.231 4.21 3.473 4.973 C3.732 5.791 3.992 6.608 4.26 7.451 C4.525 8.313 4.79 9.175 5.062 10.062 C5.331 10.897 5.6 11.732 5.877 12.592 C8.501 20.986 9.167 28.917 9.125 37.688 C9.129 38.516 9.133 39.344 9.137 40.197 C9.13 44.262 9.018 48.035 8 52 C6.68 51.67 5.36 51.34 4 51 C4.99 50.505 4.99 50.505 6 50 C6.33 40.43 6.66 30.86 7 21 C6.34 21 5.68 21 5 21 C4.807 20.131 4.613 19.262 4.414 18.367 C4.154 17.215 3.893 16.062 3.625 14.875 C3.37 13.738 3.115 12.601 2.852 11.43 C2.046 7.995 2.046 7.995 0.898 4.695 C0 2 0 2 0 0 Z " fill="#AC0B0C" transform="translate(178,58)"/>
<path d="M0 0 C-1.935 0.84 -3.873 1.672 -5.812 2.5 C-6.891 2.964 -7.97 3.428 -9.082 3.906 C-12 5 -12 5 -15 5 C-15 5.66 -15 6.32 -15 7 C-16.65 7 -18.3 7 -20 7 C-20 7.66 -20 8.32 -20 9 C-21.98 9.66 -23.96 10.32 -26 11 C-26 11.66 -26 12.32 -26 13 C-27.646 14.034 -29.317 15.028 -31 16 C-32.268 17.021 -32.268 17.021 -33.562 18.062 C-35.671 19.738 -37.554 20.913 -40 22 C-38.474 17.744 -35.32 15.677 -31.75 13.188 C-31.133 12.752 -30.516 12.317 -29.881 11.869 C-8.1 -3.115 -8.1 -3.115 0 0 Z M-42 22 C-41.34 22.33 -40.68 22.66 -40 23 C-41.32 23.99 -42.64 24.98 -44 26 C-43.34 24.68 -42.68 23.36 -42 22 Z " fill="#B30C0D" transform="translate(74,12)"/>
<path d="M0 0 C0 0.33 0 0.66 0 1 C-0.644 1.105 -1.289 1.211 -1.953 1.32 C-4.928 1.81 -7.901 2.311 -10.875 2.812 C-11.888 2.978 -12.901 3.144 -13.945 3.314 C-23.905 5.006 -32.687 7.629 -41.75 12.109 C-42.492 12.403 -43.235 12.697 -44 13 C-44.66 12.67 -45.32 12.34 -46 12 C-45.34 11.34 -44.68 10.68 -44 10 C-42.68 10 -41.36 10 -40 10 C-40 9.34 -40 8.68 -40 8 C-36.071 6.333 -32.106 5.153 -28 4 C-27.051 3.67 -26.102 3.34 -25.125 3 C-16.617 0.277 -8.945 -0.249 0 0 Z " fill="#B60C0D" transform="translate(81,81)"/>
<path d="M0 0 C2.64 0 5.28 0 8 0 C8 0.66 8 1.32 8 2 C8.7 1.95 9.4 1.899 10.121 1.848 C13.564 2.03 15.921 3.036 19.062 4.438 C22.36 5.897 25.463 7.262 29 8 C29 8.66 29 9.32 29 10 C29.784 10.268 30.567 10.536 31.375 10.812 C34 12 34 12 36 15 C31.864 14.29 28.41 12.19 24.75 10.25 C16.767 6.117 8.645 3.391 0 1 C0 0.67 0 0.34 0 0 Z " fill="#B10B0C" transform="translate(135,85)"/>
<path d="M0 0 C1.871 -0.031 1.871 -0.031 3.779 -0.062 C12.229 -0.098 19.8 0.978 27.938 3.25 C24.813 4.101 22.478 4.27 19.25 3.875 C18.069 3.74 18.069 3.74 16.863 3.602 C14.938 3.25 14.938 3.25 13.938 2.25 C12.023 2.15 10.105 2.119 8.188 2.117 C6.44 2.115 6.44 2.115 4.656 2.113 C2.815 2.119 2.815 2.119 0.938 2.125 C-0.29 2.121 -1.517 2.117 -2.781 2.113 C-3.947 2.115 -5.112 2.116 -6.312 2.117 C-7.39 2.118 -8.468 2.119 -9.578 2.121 C-12.005 1.969 -12.005 1.969 -13.062 3.25 C-14.749 3.322 -16.438 3.334 -18.125 3.312 C-19.044 3.303 -19.963 3.294 -20.91 3.285 C-21.62 3.274 -22.331 3.262 -23.062 3.25 C-16.439 -1.166 -7.683 0.031 0 0 Z " fill="#B50B0C" transform="translate(97.0625,7.75)"/>
<path d="M0 0 C-1.468 0.744 -1.468 0.744 -2.965 1.504 C-9.937 5.099 -16.35 8.608 -22.266 13.848 C-23.124 14.418 -23.124 14.418 -24 15 C-24.99 14.67 -25.98 14.34 -27 14 C-27 10.7 -27 7.4 -27 4 C-26.67 4 -26.34 4 -26 4 C-25.67 6.64 -25.34 9.28 -25 12 C-22.496 10.539 -20.11 9.085 -17.812 7.312 C-16 6 -16 6 -14 6 C-14 5.34 -14 4.68 -14 4 C-12.425 3.131 -10.839 2.28 -9.25 1.438 C-7.927 0.724 -7.927 0.724 -6.578 -0.004 C-3.793 -1.08 -2.73 -1.065 0 0 Z " fill="#B40C0E" transform="translate(35,95)"/>
<path d="M0 0 C0.33 0 0.66 0 1 0 C1.66 6.93 2.32 13.86 3 21 C7.645 19.171 7.645 19.171 11.312 16.375 C12.199 15.591 13.086 14.808 14 14 C14.66 14.33 15.32 14.66 16 15 C14.453 16.372 12.887 17.722 11.312 19.062 C10.442 19.817 9.572 20.571 8.676 21.348 C6 23 6 23 3.168 22.746 C2.453 22.5 1.737 22.254 1 22 C1 20.02 1 18.04 1 16 C0.34 16 -0.32 16 -1 16 C-0.67 10.72 -0.34 5.44 0 0 Z " fill="#2E0505" transform="translate(6,88)"/>
<path d="M0 0 C4.211 0.573 7.013 2.007 10.562 4.312 C11.492 4.907 12.421 5.501 13.379 6.113 C15.86 7.899 17.912 9.775 20 12 C19.67 12.66 19.34 13.32 19 14 C18.278 13.34 17.556 12.68 16.812 12 C12.959 8.753 8.642 6.242 4.32 3.68 C2.865 2.811 1.43 1.908 0 1 C0 0.67 0 0.34 0 0 Z M15 13 C15.99 13.495 15.99 13.495 17 14 C16.01 14.495 16.01 14.495 15 15 C15 14.34 15 13.68 15 13 Z " fill="#BD0B0C" transform="translate(136,17)"/>
<path d="M0 0 C0.66 0 1.32 0 2 0 C2 0.66 2 1.32 2 2 C1.01 1.67 0.02 1.34 -1 1 C-0.67 0.67 -0.34 0.34 0 0 Z M-2 2 C-1 5 -1 5 -1.996 7.262 C-2.472 8.062 -2.947 8.863 -3.438 9.688 C-3.911 10.496 -4.384 11.304 -4.871 12.137 C-5.43 13.059 -5.43 13.059 -6 14 C-6.66 14 -7.32 14 -8 14 C-8.33 14.99 -8.66 15.98 -9 17 C-8.684 10.835 -5.508 6.827 -2 2 Z " fill="#B90B0C" transform="translate(27,40)"/>
<path d="M0 0 C-1.935 0.84 -3.873 1.672 -5.812 2.5 C-7.431 3.196 -7.431 3.196 -9.082 3.906 C-12 5 -12 5 -15 5 C-15 5.66 -15 6.32 -15 7 C-17.31 7.33 -19.62 7.66 -22 8 C-20.252 4.503 -16.177 3.743 -12.688 2.312 C-11.915 1.979 -11.142 1.646 -10.346 1.303 C-9.596 0.993 -8.847 0.683 -8.074 0.363 C-7.047 -0.065 -7.047 -0.065 -5.999 -0.503 C-3.652 -1.087 -2.268 -0.76 0 0 Z " fill="#B40C0D" transform="translate(74,12)"/>
<path d="M0 0 C-0.534 0.17 -1.067 0.34 -1.617 0.516 C-6.841 2.215 -11.89 4.15 -16.934 6.328 C-19 7 -19 7 -21 6 C-20.34 5.34 -19.68 4.68 -19 4 C-17.68 4 -16.36 4 -15 4 C-15 3.34 -15 2.68 -15 2 C-9.877 -0.26 -5.468 -1.564 0 0 Z " fill="#B00B0C" transform="translate(56,87)"/>
<path d="M0 0 C6.343 1.806 11.569 4.256 17 8 C16.01 8.495 16.01 8.495 15 9 C12.57 7.972 10.276 6.893 7.938 5.688 C7.287 5.366 6.637 5.044 5.967 4.713 C1.131 2.262 1.131 2.262 0 0 Z M17 9 C18.32 9.33 19.64 9.66 21 10 C20.01 10.495 20.01 10.495 19 11 C18.34 10.34 17.68 9.68 17 9 Z " fill="#2F0404" transform="translate(151,91)"/>
<path d="M0 0 C1.98 0.495 1.98 0.495 4 1 C4 1.66 4 2.32 4 3 C5.176 3.402 5.176 3.402 6.375 3.812 C9 5 9 5 11 8 C7.781 7.369 5.492 6.22 2.75 4.438 C2.044 3.982 1.337 3.527 0.609 3.059 C0.078 2.709 -0.453 2.36 -1 2 C-0.67 1.34 -0.34 0.68 0 0 Z " fill="#B80B0C" transform="translate(160,92)"/>
<path d="M0 0 C-1.766 1.008 -3.538 2.006 -5.312 3 C-6.792 3.835 -6.792 3.835 -8.301 4.688 C-11 6 -11 6 -14 6 C-14 5.34 -14 4.68 -14 4 C-12.425 3.131 -10.839 2.28 -9.25 1.438 C-8.368 0.962 -7.487 0.486 -6.578 -0.004 C-3.793 -1.08 -2.73 -1.065 0 0 Z " fill="#B60B0C" transform="translate(35,95)"/>
<path d="M0 0 C3.98 1.99 4.665 2.534 6.75 6.125 C7.392 7.212 7.392 7.212 8.047 8.32 C8.519 9.152 8.519 9.152 9 10 C8.01 10.495 8.01 10.495 7 11 C4.69 7.37 2.38 3.74 0 0 Z " fill="#320505" transform="translate(165,37)"/>
<path d="M0 0 C1.461 0.256 2.919 0.53 4.375 0.812 C5.593 1.039 5.593 1.039 6.836 1.27 C9 2 9 2 11 5 C6.872 4.393 3.668 2.962 0 1 C0 0.67 0 0.34 0 0 Z " fill="#B00A0B" transform="translate(125,12)"/>
<path d="M0 0 C1.98 0.66 3.96 1.32 6 2 C6 2.99 6 3.98 6 5 C3.981 3.696 1.981 2.362 0 1 C0 0.67 0 0.34 0 0 Z M7 5 C9 6 9 6 9 6 Z " fill="#B20D0E" transform="translate(171,100)"/>
<path d="M0 0 C2.438 0.75 2.438 0.75 5 2 C5.812 4.125 5.812 4.125 6 6 C3.962 4.726 1.961 3.389 0 2 C0 1.34 0 0.68 0 0 Z " fill="#C00A0B" transform="translate(164,40)"/>
<path d="M0 0 C0.66 0.33 1.32 0.66 2 1 C0.35 2.65 -1.3 4.3 -3 6 C-3 4.68 -3 3.36 -3 2 C-2.01 1.34 -1.02 0.68 0 0 Z " fill="#340303" transform="translate(30,34)"/>
<path d="M0 0 C1.98 0.99 1.98 0.99 4 2 C3.01 2.33 2.02 2.66 1 3 C0.67 2.01 0.34 1.02 0 0 Z " fill="#B5090A" transform="translate(167,97)"/>
<path d="M0 0 C0.66 0 1.32 0 2 0 C1.67 0.99 1.34 1.98 1 3 C0.34 3 -0.32 3 -1 3 C-0.67 2.01 -0.34 1.02 0 0 Z " fill="#CE090A" transform="translate(41,40)"/>
</svg>