
<!-- Generator: visioncortex VTracer 0.6.4 -->
<svg version="1.1" xmlns="http://www.w3.org/2000/svg" viewBox="0 0 500 500" preserveAspectRatio="xMidYMid meet">
<path d="M0 0 C0.774 0.161 1.547 0.321 2.344 0.487 C17.759 3.892 34.793 11.029 47 21 C48.031 21.557 49.062 22.114 50.125 22.688 C55.612 25.713 60.225 29.985 65 34 C66.229 34.979 67.458 35.959 68.688 36.938 C69.451 37.618 70.214 38.299 71 39 C71 39.66 71 40.32 71 41 C71.66 41 72.32 41 73 41 C73 41.66 73 42.32 73 43 C73.66 43 74.32 43 75 43 C76.621 44.609 76.621 44.609 78.438 46.75 C79.034 47.446 79.631 48.142 80.246 48.859 C85 54.661 85 54.661 85 57 C85.66 57 86.32 57 87 57 C88.289 58.426 88.289 58.426 89.625 60.312 C90.071 60.927 90.517 61.542 90.977 62.176 C92 64 92 64 92 67 C92.66 67 93.32 67 94 67 C114.627 92.699 120.921 134.586 117.67 166.207 C116.769 173.536 115.509 180.772 114 188 C113.759 189.16 113.759 189.16 113.513 190.344 C109.247 209.655 99.391 228.684 87 244 C86.193 245.013 85.386 246.026 84.555 247.07 C82.398 249.739 80.205 252.372 78 255 C77.541 255.583 77.082 256.165 76.609 256.766 C70.629 264.341 62.518 270.052 55 276 C53.706 277.108 53.706 277.108 52.387 278.238 C50 280 50 280 47 280 C47 280.66 47 281.32 47 282 C6.09 304.143 -35.584 312.54 -81.297 300.141 C-95.386 295.801 -108.084 288.991 -121 282 C-121 281.34 -121 280.68 -121 280 C-121.536 279.918 -122.072 279.835 -122.625 279.75 C-125.873 278.724 -128.288 277.034 -131 275 C-131 274.34 -131 273.68 -131 273 C-132.65 272.34 -134.3 271.68 -136 271 C-136 270.34 -136 269.68 -136 269 C-136.557 268.752 -137.114 268.505 -137.688 268.25 C-140.424 266.771 -142.677 265.065 -145 263 C-145 262.34 -145 261.68 -145 261 C-145.66 261 -146.32 261 -147 261 C-147 260.34 -147 259.68 -147 259 C-147.66 259 -148.32 259 -149 259 C-150.508 257.539 -150.508 257.539 -152.125 255.625 C-152.664 254.999 -153.203 254.372 -153.758 253.727 C-155 252 -155 252 -155 250 C-155.66 250 -156.32 250 -157 250 C-158.91 247.734 -158.91 247.734 -161.062 244.75 C-161.775 243.775 -162.488 242.801 -163.223 241.797 C-164.754 239.387 -165.57 237.779 -166 235 C-166.66 235 -167.32 235 -168 235 C-178.121 216.301 -185.693 198.87 -190 178 C-190.249 176.832 -190.498 175.664 -190.754 174.461 C-197.438 136.788 -186.999 99.378 -168 67 C-167.34 67 -166.68 67 -166 67 C-165.856 66.381 -165.711 65.762 -165.562 65.125 C-165 63 -165 63 -164 61 C-163.34 61 -162.68 61 -162 61 C-161.67 59.68 -161.34 58.36 -161 57 C-160.34 57 -159.68 57 -159 57 C-158.34 55.35 -157.68 53.7 -157 52 C-156.34 52 -155.68 52 -155 52 C-154.752 51.443 -154.505 50.886 -154.25 50.312 C-152.771 47.576 -151.065 45.323 -149 43 C-148.34 43 -147.68 43 -147 43 C-147 42.34 -147 41.68 -147 41 C-146.34 41 -145.68 41 -145 41 C-145 40.34 -145 39.68 -145 39 C-140.62 34.342 -135.209 30.51 -130.188 26.562 C-129.625 26.113 -129.062 25.664 -128.482 25.201 C-124.349 22 -124.349 22 -121 22 C-121 21.34 -121 20.68 -121 20 C-88.726 -5.904 -38.365 -8.009 0 0 Z " fill="#DE2632" transform="translate(287,99)"/>
<path d="M0 0 C0.774 0.161 1.547 0.321 2.344 0.487 C17.759 3.892 34.793 11.029 47 21 C48.031 21.557 49.062 22.114 50.125 22.688 C55.612 25.713 60.225 29.985 65 34 C66.229 34.979 67.458 35.959 68.688 36.938 C69.451 37.618 70.214 38.299 71 39 C71 39.66 71 40.32 71 41 C71.66 41 72.32 41 73 41 C73 41.66 73 42.32 73 43 C73.66 43 74.32 43 75 43 C76.621 44.609 76.621 44.609 78.438 46.75 C79.034 47.446 79.631 48.142 80.246 48.859 C85 54.661 85 54.661 85 57 C85.66 57 86.32 57 87 57 C88.289 58.426 88.289 58.426 89.625 60.312 C90.071 60.927 90.517 61.542 90.977 62.176 C92 64 92 64 92 67 C92.66 67 93.32 67 94 67 C114.627 92.699 120.921 134.586 117.67 166.207 C116.769 173.536 115.509 180.772 114 188 C113.759 189.16 113.759 189.16 113.513 190.344 C109.247 209.655 99.391 228.684 87 244 C86.193 245.013 85.386 246.026 84.555 247.07 C82.398 249.739 80.205 252.372 78 255 C77.541 255.583 77.082 256.165 76.609 256.766 C70.629 264.341 62.518 270.052 55 276 C53.706 277.108 53.706 277.108 52.387 278.238 C50 280 50 280 47 280 C47 280.66 47 281.32 47 282 C6.09 304.143 -35.584 312.54 -81.297 300.141 C-95.386 295.801 -108.084 288.991 -121 282 C-121 281.34 -121 280.68 -121 280 C-121.536 279.918 -122.072 279.835 -122.625 279.75 C-125.873 278.724 -128.288 277.034 -131 275 C-131 274.34 -131 273.68 -131 273 C-132.65 272.34 -134.3 271.68 -136 271 C-136 270.34 -136 269.68 -136 269 C-136.557 268.752 -137.114 268.505 -137.688 268.25 C-140.424 266.771 -142.677 265.065 -145 263 C-145 262.34 -145 261.68 -145 261 C-145.66 261 -146.32 261 -147 261 C-147 260.34 -147 259.68 -147 259 C-147.66 259 -148.32 259 -149 259 C-150.508 257.539 -150.508 257.539 -152.125 255.625 C-152.664 254.999 -153.203 254.372 -153.758 253.727 C-155 252 -155 252 -155 250 C-155.66 250 -156.32 250 -157 250 C-158.91 247.734 -158.91 247.734 -161.062 244.75 C-161.775 243.775 -162.488 242.801 -163.223 241.797 C-164.754 239.387 -165.57 237.779 -166 235 C-166.66 235 -167.32 235 -168 235 C-178.121 216.301 -185.693 198.87 -190 178 C-190.249 176.832 -190.498 175.664 -190.754 174.461 C-197.438 136.788 -186.999 99.378 -168 67 C-167.34 67 -166.68 67 -166 67 C-165.856 66.381 -165.711 65.762 -165.562 65.125 C-165 63 -165 63 -164 61 C-163.34 61 -162.68 61 -162 61 C-161.67 59.68 -161.34 58.36 -161 57 C-160.34 57 -159.68 57 -159 57 C-158.34 55.35 -157.68 53.7 -157 52 C-156.34 52 -155.68 52 -155 52 C-154.752 51.443 -154.505 50.886 -154.25 50.312 C-152.771 47.576 -151.065 45.323 -149 43 C-148.34 43 -147.68 43 -147 43 C-147 42.34 -147 41.68 -147 41 C-146.34 41 -145.68 41 -145 41 C-145 40.34 -145 39.68 -145 39 C-140.62 34.342 -135.209 30.51 -130.188 26.562 C-129.625 26.113 -129.062 25.664 -128.482 25.201 C-124.349 22 -124.349 22 -121 22 C-121 21.34 -121 20.68 -121 20 C-88.726 -5.904 -38.365 -8.009 0 0 Z M-61 16 C-62.314 16.232 -63.628 16.464 -64.941 16.695 C-71.339 17.873 -77.03 19.336 -83 22 C-84.327 22.417 -85.66 22.816 -87 23.188 C-98.387 26.918 -108.617 33.708 -118 41 C-119.121 41.832 -120.244 42.663 -121.367 43.492 C-135.063 53.739 -144.935 65.572 -154 80 C-154.752 81.123 -154.752 81.123 -155.52 82.27 C-172.78 108.297 -177.209 142.334 -172.688 172.75 C-172.57 173.546 -172.452 174.343 -172.331 175.164 C-171.546 179.935 -170.329 184.395 -168.719 188.954 C-168.002 190.996 -167.369 193.051 -166.75 195.125 C-161.258 211.489 -152.403 227.112 -141 240 C-140.167 240.977 -139.335 241.954 -138.477 242.961 C-132.199 250.198 -125.288 256.14 -117.587 261.822 C-116.225 262.833 -114.887 263.876 -113.555 264.926 C-108.126 269.04 -102.231 272.034 -96.125 275 C-95.291 275.411 -94.458 275.821 -93.599 276.245 C-92.806 276.618 -92.013 276.991 -91.195 277.375 C-90.484 277.713 -89.773 278.05 -89.04 278.398 C-86.64 279.106 -85.335 278.808 -83 278 C-83.86 277.296 -84.72 276.592 -85.605 275.867 C-107.738 257.491 -124.44 235.381 -136 209 C-136.379 208.162 -136.758 207.324 -137.148 206.461 C-143.406 191.894 -146.199 176.93 -146.24 161.162 C-146.25 158.968 -146.281 156.774 -146.312 154.58 C-146.397 143.434 -145.121 133.016 -140.562 122.688 C-140.172 121.784 -139.781 120.88 -139.379 119.949 C-128.474 96.626 -113.168 77.304 -90 65 C-88.353 64.118 -88.353 64.118 -86.672 63.219 C-62.306 50.717 -32.629 50.675 -6.833 58.901 C-0.577 61.017 5.209 63.833 11 67 C11.776 67.388 12.552 67.776 13.352 68.176 C19.952 71.569 25.388 76.185 31 81 C31.786 81.639 32.573 82.279 33.383 82.938 C49.236 96.195 60.626 117.974 62.782 138.533 C64.879 162.236 60.465 185.072 45.5 204.062 C40.341 209.967 34.953 215.306 27.949 218.973 C26.487 219.743 25.056 220.574 23.645 221.434 C6.462 231.611 -16.003 233.597 -35.438 229.684 C-47.787 226.389 -58.651 218.397 -66 208 C-72.61 196.457 -76.365 185.841 -76.25 172.5 C-76.262 171.152 -76.262 171.152 -76.273 169.777 C-76.239 157.827 -72.418 146.531 -64.738 137.273 C-58.901 131.653 -52.614 128.59 -45 126 C-44.046 125.634 -43.092 125.268 -42.109 124.891 C-28.105 120.879 -11.922 125.007 0.574 131.5 C3.727 133.45 5.602 134.838 6.812 138.375 C7.036 141.501 6.423 143.23 5 146 C3 148 3 148 0 148.438 C-4.377 148.337 -7.71 146.375 -11.473 144.289 C-20.679 139.593 -33.102 139.108 -43.062 141.84 C-50.264 145.553 -56.082 152.521 -59 160 C-59.453 163.57 -59.475 167.093 -59.438 170.688 C-59.427 172.163 -59.427 172.163 -59.417 173.668 C-59.26 180.745 -58.456 186.717 -55 193 C-54.404 194.114 -54.404 194.114 -53.797 195.25 C-51.372 199.425 -48.6 202.752 -45 206 C-44.175 206.846 -43.35 207.691 -42.5 208.562 C-33.393 215.812 -20.536 216.071 -9.425 215.284 C6.946 213.369 21.781 205.83 32.371 193.176 C35.261 189.315 37.662 185.212 40 181 C40.557 180.031 41.114 179.061 41.688 178.062 C45.635 168.851 46.497 160.076 46.438 150.125 C46.457 148.948 46.477 147.771 46.498 146.559 C46.488 128.529 38.541 112.527 27 99 C23.561 95.637 19.905 92.799 16 90 C14.875 89.163 13.75 88.326 12.625 87.488 C5.495 82.195 5.495 82.195 -3 80 C-3 79.34 -3 78.68 -3 78 C-22.917 69.899 -45.131 66.571 -66 73 C-67.151 73.34 -68.302 73.681 -69.488 74.031 C-77.994 76.783 -84.844 80.686 -92 86 C-93.22 86.886 -93.22 86.886 -94.465 87.789 C-102.472 93.784 -108.884 100.389 -114.457 108.703 C-116 111 -116 111 -117.512 112.859 C-119.494 115.711 -120.71 118.797 -122 122 C-122.507 123.192 -123.013 124.385 -123.535 125.613 C-124.045 126.846 -124.554 128.079 -125.062 129.312 C-125.569 130.526 -126.076 131.739 -126.598 132.988 C-135.554 156.973 -129.687 184.522 -119.613 207.109 C-112.336 221.883 -102.98 234.847 -91.82 246.934 C-90 249 -90 249 -89 251 C-88.34 251 -87.68 251 -87 251 C-86.67 251.99 -86.34 252.98 -86 254 C-79.606 260.781 -71.41 266.36 -64 272 C-63.444 272.429 -62.887 272.859 -62.314 273.301 C-57.912 276.59 -53.313 278.935 -48.312 281.188 C-46.829 281.868 -45.346 282.549 -43.863 283.23 C-42.893 283.67 -42.893 283.67 -41.904 284.118 C-40.578 284.732 -39.272 285.391 -37.986 286.083 C-24.525 292.299 -3.887 284.392 9 280 C26.14 273.444 41.719 264.752 55 252 C56.329 250.891 57.662 249.786 59 248.688 C73.006 236.401 82.253 219.677 90 203 C90.411 202.118 90.822 201.237 91.246 200.328 C103.514 171.877 103.643 134.912 93 106 C86.41 89.961 78.075 74.031 66.176 61.332 C64.259 59.277 62.473 57.168 60.688 55 C47.077 39.445 28.092 29.185 9 22 C8.374 21.736 7.747 21.471 7.102 21.199 C0.638 18.54 -6.16 17.315 -13 16 C-14.008 15.791 -15.016 15.582 -16.055 15.367 C-30.794 12.649 -46.324 13.226 -61 16 Z " fill="#070606" transform="translate(287,99)"/>
<path d="M0 0 C0.99 0.33 1.98 0.66 3 1 C4.359 3.738 4.359 3.738 5.75 7.312 C9.103 15.61 13.385 23.233 18.438 30.625 C20 33 20 33 20 35 C20.66 35 21.32 35 22 35 C22.879 36.66 23.758 38.32 24.637 39.98 C26.45 42.667 28.685 44.732 31 47 C31.903 47.984 32.797 48.975 33.684 49.973 C34.137 50.48 34.59 50.987 35.057 51.51 C35.977 52.545 36.894 53.584 37.807 54.627 C40.9 58.072 44.123 60.503 48 63 C48.66 63.846 49.32 64.691 50 65.562 C52.372 68.453 54.656 69.398 58 71 C58.602 71.611 59.204 72.222 59.824 72.852 C66.085 79.034 74.944 83.163 82.812 87 C83.995 87.577 85.177 88.155 86.395 88.75 C104.499 95.027 130.501 83.944 146.902 76.355 C150 75 150 75 152 75 C152 74.34 152 73.68 152 73 C153.32 73 154.64 73 156 73 C156 72.34 156 71.68 156 71 C158.242 69.386 160.472 67.897 162.812 66.438 C163.455 66.026 164.098 65.614 164.76 65.189 C167.478 63.468 169.937 62.021 173 61 C173 60.34 173 59.68 173 59 C174.574 57.484 174.574 57.484 176.688 55.75 C179.24 53.588 181.551 51.5 183.625 48.875 C185.458 46.656 186.919 45.173 189.125 43.438 C192.002 40.999 193.217 39.268 195 36 C196.545 33.649 198.12 31.319 199.695 28.988 C201.027 27.043 201.027 27.043 202 25 C202.66 25 203.32 25 204 25 C204.104 24.287 204.209 23.574 204.316 22.84 C205.078 19.675 206.307 17.374 207.938 14.562 C210.073 10.773 211.858 7.225 213 3 C213.99 3.495 213.99 3.495 215 4 C207.49 28.203 190.113 49.971 170 65 C169.005 65.749 168.01 66.498 166.984 67.27 C153.443 77.059 138.959 83.253 123 88 C121.987 88.318 121.987 88.318 120.954 88.642 C106.017 93.288 91.335 94.824 77.069 87.471 C75.023 86.349 73.009 85.186 71 84 C70.383 83.647 69.766 83.295 69.13 82.931 C60.117 77.729 52.312 71.319 44.582 64.385 C42.956 62.961 41.281 61.615 39.594 60.266 C38.738 59.518 37.882 58.77 37 58 C37 57.34 37 56.68 37 56 C36.34 56 35.68 56 35 56 C32.452 53.535 30.263 50.726 28 48 C27.049 46.879 27.049 46.879 26.078 45.734 C20.402 38.878 15.707 31.532 11 24 C10.481 23.199 9.961 22.399 9.426 21.574 C5.056 14.817 2.44 7.63 0 0 Z " fill="#B12F38" transform="translate(163,294)"/>
<path d="M0 0 C3.739 0.603 6.747 1.671 10.125 3.375 C10.973 3.795 11.821 4.215 12.695 4.648 C14.902 5.943 16.411 7.005 18 9 C19.211 13.926 19.607 15.829 17.25 20.375 C13.485 24.767 10.6 25.366 5 26 C5 25.34 5 24.68 5 24 C3.68 24 2.36 24 1 24 C1 23.34 1 22.68 1 22 C0.276 21.807 -0.449 21.613 -1.195 21.414 C-2.162 21.154 -3.129 20.893 -4.125 20.625 C-5.136 20.353 -6.146 20.081 -7.188 19.801 C-10 19 -10 19 -13.125 17.812 C-20.597 15.701 -28.524 16.715 -35.395 20.223 C-40.727 23.453 -43.204 26.013 -45 32 C-45.33 32 -45.66 32 -46 32 C-50.638 44.239 -48.149 56.415 -43 68 C-40.664 72.193 -40.664 72.193 -37 75 C-37 75.99 -37 76.98 -37 78 C-36.464 78.082 -35.928 78.165 -35.375 78.25 C-33 79 -33 79 -30.5 80.875 C-20.698 87.539 -6.218 87.332 5.109 85.496 C7.819 84.811 10.381 83.974 13 83 C13.973 82.66 14.946 82.319 15.949 81.969 C22.693 79.413 28.081 76.056 33.723 71.574 C36 70 36 70 39 70 C24.018 83.976 8.313 89.602 -12.117 89.273 C-22.59 88.864 -31.624 85.57 -39 78 C-47.135 68.023 -50.191 57.936 -50.375 45.312 C-50.412 44.357 -50.45 43.401 -50.488 42.416 C-50.588 34.259 -48.348 28.807 -42.973 22.695 C-42.027 21.918 -42.027 21.918 -41.062 21.125 C-40.121 20.324 -40.121 20.324 -39.16 19.508 C-33.116 15.289 -28.455 14.48 -21.25 14.562 C-19.914 14.571 -19.914 14.571 -18.55 14.579 C-12.016 14.73 -6.727 15.705 -1 19 C3.645 21.55 6.642 22.607 12 22 C14.431 20.46 14.884 19.338 15.812 16.625 C16.049 13.31 15.719 11.865 14 9 C9.866 5.234 5.169 3.004 0 1 C0 0.67 0 0.34 0 0 Z " fill="#B52F39" transform="translate(278,225)"/>
<path d="M0 0 C1.103 -0.008 2.207 -0.015 3.344 -0.023 C15.918 0.006 27.278 2.577 39.25 6.25 C40.411 6.583 41.573 6.915 42.77 7.258 C43.856 7.585 44.943 7.913 46.062 8.25 C47.038 8.539 48.014 8.827 49.02 9.125 C51.25 10.25 51.25 10.25 52.074 12.375 C52.161 13.303 52.161 13.303 52.25 14.25 C48.705 13.159 45.359 11.87 42 10.312 C20.568 0.72 -8.563 -0.656 -30.75 7.25 C-47.204 13.652 -59.7 22.951 -72.367 35.078 C-75.047 37.63 -77.813 39.994 -80.75 42.25 C-77.396 31.732 -65.43 24.207 -56.75 18.25 C-55.415 17.252 -54.082 16.252 -52.75 15.25 C-49.75 13.25 -49.75 13.25 -46.75 13.25 C-46.75 12.59 -46.75 11.93 -46.75 11.25 C-39.074 6.748 -31.3 4.602 -22.699 2.708 C-20.799 2.262 -18.926 1.708 -17.055 1.152 C-11.443 -0.256 -5.75 -0.04 0 0 Z M-82.75 42.25 C-82.09 42.58 -81.43 42.91 -80.75 43.25 C-81.186 43.905 -81.621 44.56 -82.07 45.234 C-88.146 54.546 -93.041 64.058 -97 74.438 C-97.246 75.078 -97.493 75.719 -97.746 76.38 C-101.59 86.784 -102.142 96.823 -102.375 107.812 C-102.413 109.313 -102.452 110.814 -102.492 112.314 C-102.587 115.959 -102.672 119.605 -102.75 123.25 C-105.757 118.739 -105.09 114.373 -105.062 109.062 C-105.058 107.981 -105.054 106.899 -105.05 105.784 C-104.861 92.275 -102.061 80.031 -97.75 67.25 C-97.09 67.25 -96.43 67.25 -95.75 67.25 C-95.629 66.522 -95.508 65.793 -95.383 65.043 C-93.446 56.496 -87.868 49.182 -82.75 42.25 Z " fill="#C0303A" transform="translate(242.75,149.75)"/>
<path d="M0 0 C0 3.398 -0.528 4.131 -2.414 6.844 C-3.18 7.963 -3.18 7.963 -3.962 9.104 C-4.785 10.29 -4.785 10.29 -5.625 11.5 C-25.402 40.679 -35.158 76.049 -28.688 111.312 C-28.172 113.889 -27.595 116.439 -27 119 C-26.76 120.106 -26.52 121.212 -26.273 122.352 C-24.042 132.038 -20.18 140.788 -15.953 149.75 C-15 152 -15 152 -15 154 C-14.34 154 -13.68 154 -13 154 C-12.755 154.583 -12.51 155.165 -12.258 155.766 C-8.386 164.257 -2.68 170.673 3.426 177.623 C7 181.776 7 181.776 7 184 C7.99 184 8.98 184 10 184 C11.712 185.62 13.372 187.296 15 189 C16.094 189.908 17.198 190.804 18.312 191.688 C19.199 192.451 20.086 193.214 21 194 C21 194.66 21 195.32 21 196 C21.619 196.268 22.238 196.536 22.875 196.812 C25 198 25 198 27 201 C21.99 199.464 18.663 196.466 14.812 193.062 C14.15 192.48 13.487 191.897 12.804 191.297 C3.017 182.572 -4.861 172.956 -12 162 C-12.544 161.192 -13.088 160.384 -13.648 159.551 C-18.557 151.903 -21.733 143.442 -25 135 C-25.265 134.321 -25.53 133.642 -25.803 132.942 C-37.644 102.104 -35.388 66.148 -22.41 36.105 C-16.366 22.794 -9.087 11.435 0 0 Z " fill="#B62F39" transform="translate(146,161)"/>
<path d="M0 0 C0 0.66 0 1.32 0 2 C0.908 2.165 1.815 2.33 2.75 2.5 C16.708 6.524 29.382 19.157 37 31 C37.763 31.928 38.526 32.856 39.312 33.812 C41.122 36.159 42.177 38.155 43 41 C42.67 41.99 42.34 42.98 42 44 C40.828 42.045 39.663 40.086 38.5 38.125 C37.525 36.489 37.525 36.489 36.531 34.82 C35 32 35 32 35 30 C34.01 30 33.02 30 32 30 C31.484 28.948 30.969 27.896 30.438 26.812 C28.403 23.203 26.073 21.303 22.586 19.141 C21 18 21 18 19 15 C17.515 14.505 17.515 14.505 16 14 C16 13.34 16 12.68 16 12 C15.416 11.715 14.832 11.43 14.23 11.137 C12.2 10.102 10.271 8.976 8.312 7.812 C-2.707 1.692 -15.206 -4 -28 -4 C-28 -4.66 -28 -5.32 -28 -6 C-44.536 -5.798 -44.536 -5.798 -60.672 -2.633 C-63.891 -1.758 -66.688 -1.774 -70 -2 C-70 -2.33 -70 -2.66 -70 -3 C-46.995 -11.52 -22.44 -9.127 0 0 Z M43 44 C45 45 45 45 46.053 47.451 C48.724 55.765 49.638 63.227 49.5 71.938 C49.488 73.165 49.476 74.393 49.463 75.658 C49.174 88.862 46.535 98.999 39 110 C38.58 110.642 38.16 111.284 37.727 111.945 C36.833 113.307 35.92 114.656 35 116 C34.67 115.34 34.34 114.68 34 114 C34.909 112.317 35.83 110.639 36.816 109 C39.636 104.236 42.129 99.212 44 94 C44.512 92.627 44.512 92.627 45.035 91.227 C46.707 85.284 46.328 79.057 46.312 72.938 C46.329 71.703 46.345 70.469 46.361 69.197 C46.366 60.376 45.171 52.537 43 44 Z " fill="#AF2D37" transform="translate(284,177)"/>
<path d="M0 0 C0.33 0.66 0.66 1.32 1 2 C-0.813 1.692 -2.626 1.379 -4.438 1.062 C-5.952 0.801 -5.952 0.801 -7.496 0.535 C-10 0 -10 0 -11 -1 C-29.289 -4.692 -47.613 -5.476 -66 -2 C-67.314 -1.768 -68.628 -1.536 -69.941 -1.305 C-76.339 -0.127 -82.03 1.336 -88 4 C-89.327 4.417 -90.66 4.816 -92 5.188 C-103.405 8.924 -113.579 15.731 -123 23 C-124.675 24.258 -126.354 25.511 -128.032 26.764 C-130.36 28.502 -132.68 30.251 -135 32 C-135.33 31.34 -135.66 30.68 -136 30 C-135.34 30 -134.68 30 -134 30 C-133.67 29.01 -133.34 28.02 -133 27 C-131.223 25.395 -131.223 25.395 -129.062 23.812 C-128.352 23.283 -127.642 22.753 -126.91 22.207 C-125 21 -125 21 -123 21 C-123 20.34 -123 19.68 -123 19 C-119.828 16.1 -116.964 14.532 -113 13 C-109.968 11.389 -106.982 9.702 -104 8 C-104 7.34 -104 6.68 -104 6 C-102.928 5.773 -101.855 5.546 -100.75 5.312 C-97.192 4.441 -94.072 3.159 -90.75 1.625 C-85.244 -0.74 -79.789 -2.086 -73.938 -3.25 C-73.123 -3.413 -72.309 -3.576 -71.47 -3.744 C-48.413 -8.081 -22.202 -8.322 0 0 Z M-139 32 C-138.01 32.33 -137.02 32.66 -136 33 C-137.65 34.32 -139.3 35.64 -141 37 C-140.34 35.35 -139.68 33.7 -139 32 Z M-143 37 C-142.34 37.33 -141.68 37.66 -141 38 C-141.557 38.655 -142.114 39.31 -142.688 39.984 C-148.309 46.708 -153.267 53.619 -158 61 C-158.461 61.686 -158.923 62.372 -159.398 63.078 C-166.269 73.493 -170.305 85.18 -174 97 C-174.66 96.34 -175.32 95.68 -176 95 C-174.411 89.639 -172.81 84.292 -171 79 C-170.34 79 -169.68 79 -169 79 C-168.876 77.701 -168.752 76.401 -168.625 75.062 C-168.414 72.848 -168.414 72.848 -168 71 C-167.01 70.505 -167.01 70.505 -166 70 C-164.946 67.69 -163.943 65.357 -163 63 C-162.34 63 -161.68 63 -161 63 C-160.629 61.67 -160.629 61.67 -160.25 60.312 C-158.954 56.878 -157.338 54.79 -155 52 C-154.67 51.01 -154.34 50.02 -154 49 C-153.34 48.67 -152.68 48.34 -152 48 C-151.67 47.01 -151.34 46.02 -151 45 C-150.34 45 -149.68 45 -149 45 C-148.732 44.361 -148.464 43.721 -148.188 43.062 C-147 41 -147 41 -144 40 C-143.67 39.01 -143.34 38.02 -143 37 Z " fill="#2D0506" transform="translate(292,118)"/>
<path d="M0 0 C1.195 0.176 1.195 0.176 2.414 0.356 C7.913 1.261 13.007 2.823 18.25 4.688 C19.24 4.998 20.23 5.309 21.25 5.629 C25.351 7.076 29.285 8.842 33.25 10.625 C34.422 11.146 34.422 11.146 35.617 11.678 C56.241 20.896 74.869 35.337 88.25 53.688 C87.92 54.347 87.59 55.007 87.25 55.688 C86.077 54.569 84.912 53.442 83.75 52.312 C83.1 51.686 82.451 51.06 81.781 50.414 C80.25 48.688 80.25 48.688 80.25 46.688 C79.661 46.437 79.072 46.187 78.465 45.93 C75.957 44.523 74.626 43.032 72.812 40.812 C70.183 37.684 67.464 35.22 64.25 32.688 C64.25 32.028 64.25 31.368 64.25 30.688 C63.26 30.378 63.26 30.378 62.25 30.062 C59.619 28.857 57.822 27.688 55.562 25.938 C40.652 14.562 22.608 7.237 4.25 3.688 C3.188 3.464 2.126 3.241 1.031 3.012 C-14.308 0.275 -32.584 -0.248 -47.75 3.688 C-48.08 4.017 -48.41 4.347 -48.75 4.688 C-50.308 4.872 -51.872 5.01 -53.438 5.125 C-57.494 5.478 -60.892 6.37 -64.75 7.688 C-65.74 7.358 -66.73 7.028 -67.75 6.688 C-62.389 4.176 -57.231 2.726 -51.438 1.562 C-50.647 1.394 -49.856 1.225 -49.041 1.051 C-32.95 -2.269 -16.227 -2.412 0 0 Z " fill="#BA2F39" transform="translate(271.75,114.3125)"/>
<path d="M0 0 C5.196 1.381 8.55 3.668 12.625 7 C16.751 10.407 16.751 10.407 21.336 13.125 C23 14 23 14 24 17 C25.628 18.487 27.354 19.781 29.113 21.109 C31.234 23.234 32.54 25.541 33.967 28.167 C35.572 31.014 37.509 33.631 39.375 36.312 C52.113 55.495 54.251 79.415 50.535 101.656 C50 104 50 104 49 105 C48.897 105.969 48.794 106.939 48.688 107.938 C47.345 117.667 41.898 127.273 36 135 C35.01 135 34.02 135 33 135 C33.563 134.217 33.563 134.217 34.137 133.418 C47.739 113.854 51.658 90.679 48.188 67.312 C47.82 65.536 47.427 63.764 47 62 C46.829 61.215 46.657 60.43 46.48 59.621 C43.407 47.586 36.675 35.664 29 26 C28.089 24.826 28.089 24.826 27.16 23.629 C20.744 15.932 12.811 10.236 4.758 4.375 C3.03 3.024 1.516 1.584 0 0 Z " fill="#B92F39" transform="translate(301,166)"/>
<path d="M0 0 C0.66 0.33 1.32 0.66 2 1 C-2.095 4.78 -5.829 6.903 -10.961 9.031 C-13.529 10.251 -15.106 11.903 -17 14 C-17.758 14.437 -18.516 14.874 -19.297 15.324 C-27.488 20.402 -35.103 29.143 -39 38 C-39.66 38 -40.32 38 -41 38 C-41.289 39.072 -41.577 40.145 -41.875 41.25 C-42.728 44.094 -43.564 46.435 -45 49 C-45.66 49 -46.32 49 -47 49 C-47.134 49.701 -47.268 50.403 -47.406 51.125 C-48.235 55.138 -49.269 59.093 -50.281 63.062 C-51.989 70.044 -52.183 76.512 -52.188 83.688 C-52.2 84.821 -52.212 85.955 -52.225 87.123 C-52.236 93.923 -51.91 100.435 -50 107 C-49.67 107.33 -49.34 107.66 -49 108 C-48.928 109.686 -48.916 111.375 -48.938 113.062 C-48.947 113.982 -48.956 114.901 -48.965 115.848 C-48.976 116.558 -48.988 117.268 -49 118 C-57.969 104.546 -56.866 81.412 -54.305 66.203 C-52.766 58.831 -49.968 52.146 -46.367 45.551 C-44.96 43.049 -44.96 43.049 -44.012 40.461 C-38.029 25.908 -24.19 14.419 -11.25 6.188 C-10.496 5.698 -9.742 5.209 -8.965 4.705 C-5.963 2.778 -3.401 1.134 0 0 Z " fill="#A62B34" transform="translate(212,175)"/>
<path d="M0 0 C0.99 0.495 0.99 0.495 2 1 C-5.51 25.203 -22.887 46.971 -43 62 C-43.995 62.749 -44.99 63.498 -46.016 64.27 C-61.747 75.642 -84.078 87.623 -104 87.125 C-104.949 87.107 -105.897 87.089 -106.875 87.07 C-107.576 87.047 -108.277 87.024 -109 87 C-109 86.67 -109 86.34 -109 86 C-108.259 85.914 -107.518 85.827 -106.754 85.738 C-92.36 83.818 -79.244 79.436 -66.098 73.355 C-63 72 -63 72 -61 72 C-61 71.34 -61 70.68 -61 70 C-59.68 70 -58.36 70 -57 70 C-57 69.34 -57 68.68 -57 68 C-54.758 66.386 -52.528 64.897 -50.188 63.438 C-49.224 62.82 -49.224 62.82 -48.24 62.189 C-45.522 60.468 -43.063 59.021 -40 58 C-40 57.34 -40 56.68 -40 56 C-38.426 54.484 -38.426 54.484 -36.312 52.75 C-33.76 50.588 -31.449 48.5 -29.375 45.875 C-27.542 43.656 -26.081 42.173 -23.875 40.438 C-20.998 37.999 -19.783 36.268 -18 33 C-16.455 30.649 -14.88 28.319 -13.305 25.988 C-11.973 24.043 -11.973 24.043 -11 22 C-10.34 22 -9.68 22 -9 22 C-8.896 21.287 -8.791 20.574 -8.684 19.84 C-7.922 16.675 -6.693 14.374 -5.062 11.562 C-2.927 7.773 -1.142 4.225 0 0 Z M-115 87 C-113.02 87 -111.04 87 -109 87 C-109 87.33 -109 87.66 -109 88 C-110.98 88 -112.96 88 -115 88 C-115 87.67 -115 87.34 -115 87 Z " fill="#BA2F3A" transform="translate(376,297)"/>
<path d="M0 0 C14.336 8.779 27.428 20.378 36 35 C35.67 35.99 35.34 36.98 35 38 C34.078 36.645 34.078 36.645 33.137 35.262 C32.32 34.07 31.504 32.879 30.688 31.688 C30.283 31.093 29.879 30.498 29.463 29.885 C27.83 27.508 26.25 25.25 24.207 23.207 C23.809 22.809 23.41 22.41 23 22 C23 21.34 23 20.68 23 20 C22.402 19.733 21.804 19.466 21.188 19.191 C18.952 17.974 17.7 16.81 16 14.938 C11.898 10.665 7.183 7.342 2.379 3.918 C1.594 3.285 0.809 2.652 0 2 C0 1.34 0 0.68 0 0 Z M36 38 C48.112 52.097 48.967 72.415 48.244 90.15 C47.52 98.606 45.763 108.856 41 116 C42.855 97.145 42.855 97.145 45 95 C45.286 90.549 45.232 86.084 45.25 81.625 C45.271 80.386 45.291 79.147 45.312 77.871 C45.345 70.053 44.435 63.413 42 56 C41.494 54.21 40.994 52.418 40.5 50.625 C39.427 47.041 38.015 44.167 36 41 C36 40.01 36 39.02 36 38 Z " fill="#2E0506" transform="translate(303,168)"/>
<path d="M0 0 C0 3.398 -0.528 4.131 -2.414 6.844 C-3.18 7.963 -3.18 7.963 -3.962 9.104 C-4.785 10.29 -4.785 10.29 -5.625 11.5 C-24.739 39.701 -30.024 68.32 -31 102 C-33.794 99.206 -33.286 97.244 -33.329 93.424 C-33.324 92.521 -33.318 91.618 -33.312 90.688 C-33.308 89.755 -33.304 88.822 -33.3 87.861 C-32.776 54.627 -20.498 25.793 0 0 Z " fill="#B02F39" transform="translate(146,161)"/>
<path d="M0 0 C0 0.66 0 1.32 0 2 C0.908 2.165 1.815 2.33 2.75 2.5 C8.979 4.265 16.987 8.647 20.355 14.258 C20.675 15.12 20.675 15.12 21 16 C19.35 15.34 17.7 14.68 16 14 C16 13.34 16 12.68 16 12 C15.416 11.715 14.832 11.43 14.23 11.137 C12.2 10.102 10.271 8.976 8.312 7.812 C-2.707 1.692 -15.206 -4 -28 -4 C-28 -4.66 -28 -5.32 -28 -6 C-44.536 -5.798 -44.536 -5.798 -60.672 -2.633 C-63.891 -1.758 -66.688 -1.774 -70 -2 C-70 -2.33 -70 -2.66 -70 -3 C-46.995 -11.52 -22.44 -9.127 0 0 Z M21 16 C21.66 16.66 22.32 17.32 23 18 C22.34 18 21.68 18 21 18 C21 17.34 21 16.68 21 16 Z M26 21 C28 22 28 22 28 22 Z " fill="#B32E38" transform="translate(284,177)"/>
<path d="M0 0 C1.299 2.598 0.77 3.563 0.09 6.355 C-4.338 27.202 -0.736 49.741 8 69 C8.66 69.99 9.32 70.98 10 72 C9.625 74.188 9.625 74.188 9 76 C8.059 74.002 7.122 72.001 6.188 70 C5.665 68.886 5.143 67.772 4.605 66.625 C-3.853 47.527 -7.671 23.478 -2 3 C-1.34 2.01 -0.68 1.02 0 0 Z M10 76 C13.249 78.778 15.094 82.406 17.188 86.062 C20.95 92.503 25.116 98.344 30 104 C29.01 104 28.02 104 27 104 C25.267 102.122 23.763 100.295 22.25 98.25 C21.812 97.668 21.374 97.086 20.922 96.487 C10 81.717 10 81.717 10 76 Z " fill="#2A0404" transform="translate(159,234)"/>
<path d="M0 0 C0.495 0.99 0.495 0.99 1 2 C-0.813 1.692 -2.626 1.379 -4.438 1.062 C-5.952 0.801 -5.952 0.801 -7.496 0.535 C-10 0 -10 0 -11 -1 C-29.289 -4.692 -47.613 -5.476 -66 -2 C-67.314 -1.768 -68.628 -1.536 -69.941 -1.305 C-76.339 -0.127 -82.03 1.336 -88 4 C-89.327 4.417 -90.66 4.816 -92 5.188 C-97.316 6.871 -102.049 9.619 -106.859 12.395 C-108.534 13.336 -110.265 14.176 -112 15 C-112.99 14.67 -113.98 14.34 -115 14 C-111.37 12.02 -107.74 10.04 -104 8 C-104 7.34 -104 6.68 -104 6 C-102.928 5.773 -101.855 5.546 -100.75 5.312 C-97.192 4.441 -94.072 3.159 -90.75 1.625 C-85.244 -0.74 -79.789 -2.086 -73.938 -3.25 C-73.123 -3.413 -72.309 -3.576 -71.47 -3.744 C-48.413 -8.081 -22.202 -8.322 0 0 Z " fill="#280404" transform="translate(292,118)"/>
<path d="M0 0 C0.33 0 0.66 0 1 0 C1.159 1.016 1.317 2.032 1.48 3.078 C3.085 12.751 5.463 21.429 10.152 30.141 C11 32 11 32 11 35 C11.66 35 12.32 35 13 35 C14.006 36.663 15.006 38.33 16 40 C16.99 40.66 17.98 41.32 19 42 C18.67 42.99 18.34 43.98 18 45 C12.448 39.817 8.816 34.253 5.625 27.438 C5.292 26.73 4.959 26.022 4.615 25.293 C1.638 18.69 -0.308 12.333 -0.125 5 C-0.107 4.051 -0.089 3.103 -0.07 2.125 C-0.047 1.424 -0.024 0.723 0 0 Z M19 45 C22.906 46.426 26.227 48.301 29.75 50.5 C34.893 53.564 39.127 55.037 45 56 C45.33 56.33 45.66 56.66 46 57 C52.673 58.125 59.247 58.117 66 58.062 C67.061 58.058 68.122 58.053 69.215 58.049 C71.81 58.037 74.405 58.021 77 58 C77 58.33 77 58.66 77 59 C57.157 62.312 38.558 60.311 21.969 48.586 C20 47 20 47 19 45 Z " fill="#290404" transform="translate(210,271)"/>
<path d="M0 0 C2.074 0.879 2.074 0.879 4.074 3.879 C2.94 3.602 1.805 3.325 0.637 3.039 C-0.884 2.673 -2.405 2.307 -3.926 1.941 C-5.041 1.668 -5.041 1.668 -6.18 1.389 C-25.435 -3.216 -43.036 -1.565 -61.562 5.207 C-63.926 5.879 -63.926 5.879 -65.926 4.879 C-58.618 0.435 -51.584 -1.211 -43.27 -2.543 C-28.545 -5.089 -14.711 -3.848 0 0 Z M-68.926 5.879 C-67.936 6.209 -66.946 6.539 -65.926 6.879 C-78.411 15.325 -78.411 15.325 -84.926 18.879 C-84.596 17.889 -84.266 16.899 -83.926 15.879 C-83.266 15.879 -82.606 15.879 -81.926 15.879 C-81.926 15.219 -81.926 14.559 -81.926 13.879 C-79.993 12.617 -78.003 11.442 -75.988 10.316 C-72.24 8.402 -72.24 8.402 -68.926 5.879 Z M-87.926 19.879 C-87.266 20.209 -86.606 20.539 -85.926 20.879 C-87.576 22.199 -89.226 23.519 -90.926 24.879 C-89.051 21.004 -89.051 21.004 -87.926 19.879 Z " fill="#2B0505" transform="translate(272.92578125,171.12109375)"/>
<path d="M0 0 C2.019 2.423 3.468 4.87 4.816 7.699 C6.833 11.777 9.145 15.545 11.688 19.312 C12.125 19.962 12.562 20.612 13.012 21.281 C17.012 27.145 21.325 32.656 26 38 C26.451 38.518 26.902 39.036 27.367 39.57 C34.335 47.52 41.682 54.466 50 61 C47.533 61.883 46.361 62.131 43.859 61.223 C43.163 60.84 42.467 60.457 41.75 60.062 C40.69 59.492 40.69 59.492 39.609 58.91 C39.078 58.61 38.547 58.309 38 58 C38.66 57.34 39.32 56.68 40 56 C39.215 55.31 38.43 54.621 37.621 53.91 C31.938 48.849 26.757 43.904 22.305 37.68 C21.088 35.864 21.088 35.864 19 35 C17.252 32.342 16.009 30.026 15 27 C14.34 27 13.68 27 13 27 C10.713 23.995 8.873 20.677 6.938 17.438 C6.105 16.095 6.105 16.095 5.256 14.725 C2.258 9.741 0.265 5.847 0 0 Z " fill="#B72F39" transform="translate(154,316)"/>
<path d="M0 0 C15.772 18.802 17.803 51.124 15.791 74.425 C15.318 78.97 14.706 83.485 14 88 C13.67 88 13.34 88 13 88 C13.01 86.887 13.021 85.773 13.032 84.626 C13.068 80.435 13.091 76.243 13.11 72.052 C13.12 70.249 13.133 68.446 13.151 66.643 C13.329 51.217 13.329 51.217 11 36 C10.67 35.67 10.34 35.34 10 35 C9.461 31.415 9.033 27.822 8.598 24.223 C8.3 20.923 8.3 20.923 6 19 C5.086 16.753 4.241 14.477 3.438 12.188 C3.003 10.964 2.569 9.741 2.121 8.48 C1.206 5.641 0.498 2.935 0 0 Z " fill="#AA2B34" transform="translate(371,188)"/>
<path d="M0 0 C2.955 3.546 5.459 7.638 7 12 C6.67 12.99 6.34 13.98 6 15 C4.993 13.066 3.994 11.128 3 9.188 C2.443 8.109 1.886 7.03 1.312 5.918 C0 3 0 3 0 0 Z M7 15 C10.204 17.803 12.266 21.365 14.5 24.938 C17.494 29.727 17.494 29.727 20.781 34.316 C22 36 22 36 22 38 C22.66 38 23.32 38 24 38 C25.5 40.5 25.5 40.5 27 43 C27.66 43 28.32 43 29 43 C29.062 43.577 29.124 44.155 29.188 44.75 C30.315 47.872 32.416 48.998 35 51 C35.33 51.99 35.66 52.98 36 54 C37.328 55.006 38.662 56.007 40 57 C40 57.66 40 58.32 40 59 C40.66 59 41.32 59 42 59 C42.33 59.66 42.66 60.32 43 61 C43.99 61.33 44.98 61.66 46 62 C47.238 63.466 48.472 64.935 49.66 66.441 C51.124 68.241 51.124 68.241 53.812 70.25 C54.534 70.827 55.256 71.405 56 72 C56 72.66 56 73.32 56 74 C52.24 72.747 50.748 70.841 48 68 C46.111 66.284 44.215 64.576 42.312 62.875 C28.346 50.154 15.79 34.825 7 18 C7 17.01 7 16.02 7 15 Z " fill="#310608" transform="translate(150,305)"/>
<path d="M0 0 C-0.66 0.33 -1.32 0.66 -2 1 C-3.88 0.341 -5.73 -0.405 -7.562 -1.188 C-15.518 -4.368 -23.624 -6.265 -32 -8 C-32.947 -8.197 -33.895 -8.394 -34.871 -8.598 C-49.29 -10.452 -64.408 -9.547 -78.086 -4.598 C-80.444 -3.861 -82.547 -3.763 -85 -4 C-66.166 -20.854 -19.562 -11.863 0 0 Z M-88 -4 C-85 -3 -85 -3 -85 -3 Z M0 1 C3.344 1.557 6.033 2.352 9 4 C6 5 6 5 2.812 3.562 C1.884 3.047 0.956 2.531 0 2 C0 1.67 0 1.34 0 1 Z " fill="#2B0506" transform="translate(293,163)"/>
<path d="M0 0 C0 0.66 0 1.32 0 2 C0.99 2.33 1.98 2.66 3 3 C2.376 2.843 1.752 2.685 1.109 2.523 C-7.548 1.066 -19.41 -0.111 -27.375 4.062 C-33.088 8.14 -37.45 13.463 -40 20 C-40.381 23.675 -40.328 27.309 -40.25 31 C-40.245 31.972 -40.24 32.944 -40.234 33.945 C-40.182 38.729 -39.985 43.299 -39 48 C-41.982 45.536 -42.455 43.782 -43 40 C-43.833 28.678 -44.174 17.235 -36.562 8.062 C-35.717 7.382 -34.871 6.701 -34 6 C-33.175 5.278 -32.35 4.556 -31.5 3.812 C-22.019 -3.061 -10.895 -2.252 0 0 Z " fill="#340809" transform="translate(269,239)"/>
<path d="M0 0 C1.58 -0.003 1.58 -0.003 3.191 -0.006 C9.641 0.129 15.091 1.102 21.062 3.562 C17.72 4.677 16.714 4.407 13.375 3.625 C-1.803 0.769 -14.764 2.277 -27.953 10.426 C-32.986 14.185 -36.557 18.3 -39.781 23.68 C-40.938 25.562 -40.938 25.562 -42.938 27.562 C-42.668 21.099 -40.362 17.242 -35.938 12.562 C-34.003 11.051 -32.045 9.837 -29.938 8.562 C-29.607 7.903 -29.278 7.243 -28.938 6.562 C-19.631 1.401 -10.57 -0.005 0 0 Z " fill="#AA2B34" transform="translate(256.9375,220.4375)"/>
<path d="M0 0 C0 3.566 -0.943 5.061 -2.625 8.188 C-5.14 13.099 -7.305 18.032 -9.25 23.188 C-9.496 23.828 -9.741 24.468 -9.995 25.128 C-13.843 35.531 -14.392 45.573 -14.625 56.562 C-14.663 58.063 -14.702 59.564 -14.742 61.064 C-14.837 64.709 -14.922 68.355 -15 72 C-18.007 67.489 -17.34 63.123 -17.312 57.812 C-17.308 56.731 -17.304 55.649 -17.3 54.534 C-17.111 41.025 -14.311 28.781 -10 16 C-9.34 16 -8.68 16 -8 16 C-7.917 15.34 -7.835 14.68 -7.75 14 C-6.401 8.603 -4.124 3.794 0 0 Z " fill="#B42D37" transform="translate(155,201)"/>
<path d="M0 0 C0.33 0 0.66 0 1 0 C1.826 5.06 2.193 9.993 2.188 15.125 C2.187 16.226 2.187 16.226 2.187 17.35 C2.006 34.994 2.006 34.994 -1 38 C-1.155 39.454 -1.155 39.454 -1.312 40.938 C-2.655 50.667 -8.102 60.273 -14 68 C-14.99 68 -15.98 68 -17 68 C-16.625 67.478 -16.25 66.956 -15.863 66.418 C-1.759 46.132 -0.133 24.087 0 0 Z " fill="#C1303B" transform="translate(351,233)"/>
<path d="M0 0 C0.93 3.017 1 5.15 0.441 8.246 C0.302 9.072 0.163 9.899 0.02 10.75 C-0.206 12.08 -0.206 12.08 -0.438 13.438 C-3.464 33.058 -3.458 54.01 3.287 72.911 C4.417 76.223 5.195 79.596 6 83 C1.507 80.005 1.04 76.425 -0.035 71.348 C-0.383 69.587 -0.725 67.825 -1.062 66.062 C-1.323 64.741 -1.323 64.741 -1.588 63.393 C-2.069 60.93 -2.546 58.468 -3 56 C-3.18 55.04 -3.36 54.079 -3.546 53.09 C-4.355 47.585 -4.191 42.054 -4.188 36.5 C-4.187 35.242 -4.186 33.984 -4.185 32.688 C-4.111 21.417 -3.047 10.881 0 0 Z " fill="#210303" transform="translate(116,215)"/>
<path d="M0 0 C0.33 0.66 0.66 1.32 1 2 C0.34 1.67 -0.32 1.34 -1 1 C-0.67 0.67 -0.34 0.34 0 0 Z M-3 2 C-2.34 2.33 -1.68 2.66 -1 3 C-1.485 3.461 -1.969 3.923 -2.469 4.398 C-8.494 10.261 -14.403 16.47 -18.605 23.801 C-19.066 24.527 -19.526 25.252 -20 26 C-20.66 26 -21.32 26 -22 26 C-22.227 26.804 -22.454 27.609 -22.688 28.438 C-23.749 31.319 -24.843 33.567 -26.375 36.188 C-28.845 40.473 -30.477 44.825 -32.008 49.52 C-33.025 52.062 -34.264 53.896 -36 56 C-35.361 52.416 -34.43 49.108 -33.188 45.688 C-32.872 44.804 -32.556 43.921 -32.23 43.012 C-25.582 26.739 -15.856 13.856 -3 2 Z " fill="#300606" transform="translate(179,176)"/>
<path d="M0 0 C15.922 2.552 35.087 24.776 44 37 C43.505 37.99 43.505 37.99 43 39 C41.827 37.881 40.662 36.755 39.5 35.625 C38.85 34.999 38.201 34.372 37.531 33.727 C36 32 36 32 36 30 C35.411 29.75 34.822 29.5 34.215 29.242 C31.707 27.836 30.376 26.344 28.562 24.125 C25.933 20.997 23.214 18.533 20 16 C20 15.34 20 14.68 20 14 C19.34 13.794 18.68 13.588 18 13.375 C14.62 11.826 11.996 9.863 9.07 7.594 C7.084 6.064 5.057 4.62 3 3.188 C2.01 2.466 1.02 1.744 0 1 C0 0.67 0 0.34 0 0 Z " fill="#B52E38" transform="translate(316,131)"/>
<path d="M0 0 C2.347 0.909 4.66 1.831 6.914 2.953 C21.721 10.168 40.01 9.012 56 7 C51.57 11.43 43.938 11.246 37.961 11.279 C37.17 11.269 36.378 11.26 35.562 11.25 C34.728 11.243 33.893 11.235 33.033 11.227 C22.333 11.04 9.844 9.378 1.648 1.836 C1.104 1.23 0.56 0.624 0 0 Z " fill="#AD2C35" transform="translate(235,322)"/>
<path d="M0 0 C0.66 0.33 1.32 0.66 2 1 C-11.609 13.695 -26.033 20.245 -44.812 20.062 C-45.696 20.058 -46.58 20.053 -47.49 20.049 C-49.66 20.037 -51.83 20.019 -54 20 C-54 19.67 -54 19.34 -54 19 C-52.385 18.961 -52.385 18.961 -50.738 18.922 C-41.233 18.594 -32.969 17.399 -24 14 C-22.983 13.639 -21.966 13.278 -20.918 12.906 C-13.224 9.983 -5.875 5.875 0 0 Z " fill="#AC2C36" transform="translate(315,294)"/>
<path d="M0 0 C2 1 2 1 2 1 Z M4 0 C4.99 0.804 5.98 1.609 7 2.438 C11.121 5.53 15.457 8.099 19.938 10.625 C20.593 10.997 21.248 11.369 21.924 11.752 C23.933 12.869 25.961 13.939 28 15 C28.694 15.381 29.387 15.762 30.102 16.154 C36.297 19.291 41.702 19.486 48.562 19.25 C49.571 19.232 50.58 19.214 51.619 19.195 C54.08 19.149 56.54 19.083 59 19 C59 19.33 59 19.66 59 20 C43.785 23.621 31.201 20.844 18 13 C16.979 12.399 16.979 12.399 15.937 11.786 C4.737 5.105 4.737 5.105 2 1 C2.66 0.67 3.32 0.34 4 0 Z " fill="#B12E37" transform="translate(216,365)"/>
<path d="M0 0 C0.66 0.33 1.32 0.66 2 1 C-0.892 5.005 -3.855 7.354 -8 10 C-8.557 10.577 -9.114 11.155 -9.688 11.75 C-11 13 -11 13 -14 13 C-14 13.66 -14 14.32 -14 15 C-17.807 17.643 -21.935 19.781 -26 22 C-26.62 22.344 -27.239 22.688 -27.878 23.042 C-29.742 24.069 -31.618 25.069 -33.5 26.062 C-34.645 26.672 -35.789 27.282 -36.969 27.91 C-40 29 -40 29 -42.406 28.184 C-42.932 27.793 -43.458 27.402 -44 27 C-43.056 26.636 -43.056 26.636 -42.094 26.266 C-41.238 25.93 -40.382 25.595 -39.5 25.25 C-38.247 24.763 -38.247 24.763 -36.969 24.266 C-30.388 21.46 -24.197 18.086 -18.125 14.312 C-17.435 13.884 -16.746 13.456 -16.035 13.014 C-10.106 9.239 -4.99 4.966 0 0 Z " fill="#330607" transform="translate(342,350)"/>
<path d="M0 0 C0.33 0 0.66 0 1 0 C1.142 5.52 0.648 10.52 -0.438 15.938 C-2.59 27.527 -2.741 39.243 -3 51 C-5.794 48.206 -5.287 46.244 -5.329 42.422 C-5.323 41.52 -5.318 40.617 -5.312 39.688 C-5.31 38.759 -5.307 37.831 -5.304 36.875 C-5.123 24.469 -3.682 11.877 0 0 Z " fill="#AB2932" transform="translate(118,212)"/>
<path d="M0 0 C0.66 0.33 1.32 0.66 2 1 C-2.095 4.78 -5.829 6.903 -10.961 9.031 C-13.529 10.251 -15.106 11.903 -17 14 C-17.721 14.397 -18.441 14.794 -19.184 15.203 C-22.904 17.577 -25.748 20.534 -28.812 23.688 C-29.41 24.294 -30.007 24.901 -30.623 25.525 C-32.087 27.012 -33.544 28.506 -35 30 C-35.66 29.67 -36.32 29.34 -37 29 C-26.895 17.473 -14.946 4.982 0 0 Z " fill="#A32931" transform="translate(212,175)"/>
<path d="M0 0 C15.328 -0.575 28.577 -0.366 43 5 C45.333 5.689 47.666 6.377 50 7.062 C52.875 7.91 52.875 7.91 55 9 C55.812 11.121 55.812 11.121 56 13 C52.455 11.909 49.109 10.62 45.75 9.062 C31.199 2.55 15.713 1.723 0 1 C0 0.67 0 0.34 0 0 Z " fill="#B72F39" transform="translate(239,151)"/>
<path d="M0 0 C0.99 0.495 0.99 0.495 2 1 C1.67 1.66 1.34 2.32 1 3 C0.67 2.01 0.34 1.02 0 0 Z M6 7 C9.76 9.801 13.508 12.613 17.215 15.484 C17.777 15.92 18.34 16.355 18.919 16.803 C20.032 17.666 21.144 18.53 22.255 19.396 C25.744 22.099 29.305 24.592 33 27 C25.216 27 16.715 18.861 11 14 C11 13.34 11 12.68 11 12 C8.525 11.01 8.525 11.01 6 10 C6 9.01 6 8.02 6 7 Z M33 28 C37.86 28.607 41.741 30.728 46 33 C45.34 33.66 44.68 34.32 44 35 C42.351 34.216 40.706 33.422 39.062 32.625 C38.146 32.184 37.229 31.743 36.285 31.289 C34 30 34 30 33 28 Z " fill="#350607" transform="translate(148,341)"/>
<path d="M0 0 C4.663 4.663 3.348 14.114 3.396 20.382 C3.264 30.642 1.812 43.282 -4 52 C-2.145 33.145 -2.145 33.145 0 31 C0.088 28.708 0.107 26.414 0.098 24.121 C0.096 23.091 0.096 23.091 0.093 22.04 C0.088 19.839 0.075 17.638 0.062 15.438 C0.057 13.949 0.053 12.46 0.049 10.971 C0.038 7.314 0.021 3.657 0 0 Z " fill="#340709" transform="translate(348,232)"/>
<path d="M0 0 C1.435 0.007 1.435 0.007 2.898 0.014 C5.224 0.025 7.549 0.042 9.875 0.062 C9.875 0.392 9.875 0.722 9.875 1.062 C8.257 1.119 8.257 1.119 6.605 1.176 C-1.909 1.529 -10.267 2.223 -18.688 3.562 C-19.928 3.758 -19.928 3.758 -21.193 3.958 C-24.973 4.299 -24.973 4.299 -28.125 6.062 C-29.683 6.247 -31.247 6.385 -32.812 6.5 C-36.869 6.853 -40.267 7.745 -44.125 9.062 C-45.115 8.733 -46.105 8.403 -47.125 8.062 C-41.764 5.551 -36.606 4.101 -30.812 2.938 C-30.022 2.769 -29.231 2.6 -28.416 2.426 C-18.936 0.47 -9.665 -0.088 0 0 Z " fill="#A12830" transform="translate(251.125,112.9375)"/>
<path d="M0 0 C0.501 0.289 1.003 0.577 1.52 0.875 C12.76 6.39 26.994 5.333 38.652 1.559 C41.192 0.954 42.564 1.147 45 2 C44.397 2.193 43.793 2.387 43.172 2.586 C41.973 2.977 41.973 2.977 40.75 3.375 C39.961 3.63 39.172 3.885 38.359 4.148 C36.034 4.915 36.034 4.915 34.16 6.034 C30.096 7.851 25.634 7.327 21.25 7.312 C20.286 7.329 19.322 7.345 18.328 7.361 C12.175 7.366 7.619 6.523 2 4 C2 3.34 2 2.68 2 2 C1.34 2 0.68 2 0 2 C0 1.34 0 0.68 0 0 Z " fill="#370709" transform="translate(241,381)"/>
<path d="M0 0 C0 0.33 0 0.66 0 1 C-1.502 1.273 -1.502 1.273 -3.035 1.551 C-4.378 1.804 -5.72 2.058 -7.062 2.312 C-7.719 2.43 -8.376 2.548 -9.053 2.67 C-13.722 3.567 -17.668 5.045 -22 7 C-23.327 7.417 -24.66 7.816 -26 8.188 C-31.316 9.871 -36.049 12.619 -40.859 15.395 C-42.534 16.336 -44.265 17.176 -46 18 C-46.99 17.67 -47.98 17.34 -49 17 C-45.37 15.02 -41.74 13.04 -38 11 C-38 10.34 -38 9.68 -38 9 C-36.928 8.773 -35.855 8.546 -34.75 8.312 C-31.018 7.396 -27.643 6.041 -24.125 4.5 C-16.082 1.066 -8.717 -0.323 0 0 Z " fill="#2B0405" transform="translate(226,115)"/>
<path d="M0 0 C0.33 0 0.66 0 1 0 C1.088 4.417 1.141 8.833 1.188 13.25 C1.213 14.485 1.238 15.72 1.264 16.992 C1.364 29.7 -0.843 39.461 -8 50 C-8.422 50.645 -8.843 51.289 -9.277 51.953 C-10.17 53.312 -11.082 54.658 -12 56 C-12.33 55.34 -12.66 54.68 -13 54 C-12.091 52.317 -11.17 50.639 -10.184 49 C-7.364 44.236 -4.871 39.212 -3 34 C-2.665 33.082 -2.33 32.164 -1.984 31.219 C-0.317 25.331 -0.528 19.136 -0.375 13.062 C-0.336 11.806 -0.298 10.55 -0.258 9.256 C-0.164 6.171 -0.078 3.086 0 0 Z " fill="#BD2E39" transform="translate(331,237)"/>
<path d="M0 0 C-2.667 1.333 -5.333 2.667 -8 4 C-8.622 4.329 -9.244 4.658 -9.885 4.998 C-17.263 8.495 -25.38 8.309 -33.375 8.25 C-34.454 8.258 -35.533 8.265 -36.645 8.273 C-37.677 8.271 -38.71 8.268 -39.773 8.266 C-40.706 8.263 -41.638 8.261 -42.599 8.259 C-45 8 -45 8 -48 6 C-47.362 6.026 -46.724 6.052 -46.067 6.079 C-31.748 6.587 -17.685 6.785 -4.734 -0.227 C-3 -1 -3 -1 0 0 Z M-56 3 C-52.625 3.547 -50.918 4.055 -48 6 C-52.554 6.369 -52.554 6.369 -54.812 4.5 C-55.4 3.757 -55.4 3.757 -56 3 Z " fill="#300607" transform="translate(304,307)"/>
<path d="M0 0 C2.5 1.812 2.5 1.812 5 4 C5 4.99 5 5.98 5 7 C5.536 7.082 6.072 7.165 6.625 7.25 C9 8 9 8 11.5 9.875 C20.106 15.777 31.944 15.602 42 16 C42 16.33 42 16.66 42 17 C38.521 17.118 35.043 17.188 31.562 17.25 C30.102 17.3 30.102 17.3 28.611 17.352 C20.019 17.467 13.447 15.296 6.625 10 C5.999 9.526 5.372 9.051 4.727 8.562 C2.823 6.84 1.38 5.167 0 3 C0 2.01 0 1.02 0 0 Z " fill="#B72E38" transform="translate(236,296)"/>
<path d="M0 0 C0.66 0.33 1.32 0.66 2 1 C-2.356 15.086 -10.437 27.164 -19 39 C-19.585 37.139 -19.585 37.139 -20 35 C-18.637 32.781 -18.637 32.781 -16.688 30.5 C-14.372 27.757 -12.47 25.284 -11 22 C-10.34 22 -9.68 22 -9 22 C-8.896 21.287 -8.791 20.574 -8.684 19.84 C-7.922 16.675 -6.693 14.374 -5.062 11.562 C-2.927 7.773 -1.142 4.225 0 0 Z " fill="#B42E38" transform="translate(376,297)"/>
<path d="M0 0 C0.66 0 1.32 0 2 0 C1.783 0.623 1.567 1.245 1.344 1.887 C-2.933 16.083 -2.395 31.898 2 46 C0 45 0 45 -0.816 42.742 C-4.321 29.274 -5.15 16.688 -2 3 C-1.34 2.01 -0.68 1.02 0 0 Z " fill="#BB303B" transform="translate(212,249)"/>
<path d="M0 0 C3.739 0.603 6.747 1.671 10.125 3.375 C11.397 4.005 11.397 4.005 12.695 4.648 C14.902 5.943 16.411 7.005 18 9 C19.211 13.926 19.607 15.829 17.25 20.375 C13.485 24.767 10.6 25.366 5 26 C5 25.34 5 24.68 5 24 C6.093 23.732 7.186 23.464 8.312 23.188 C12.378 21.971 12.378 21.971 15 19 C15.965 16.18 16.085 14.424 15.5 11.5 C12.093 5.821 5.968 3.314 0 1 C0 0.67 0 0.34 0 0 Z " fill="#B42E38" transform="translate(278,225)"/>
<path d="M0 0 C0.33 0.66 0.66 1.32 1 2 C-0.12 4.434 -1.299 6.767 -2.562 9.125 C-5.911 15.556 -8.686 22.022 -11.096 28.858 C-12.169 31.886 -13.204 34.306 -15 37 C-16.371 34.258 -15.609 33.131 -14.688 30.25 C-14.406 29.361 -14.125 28.471 -13.836 27.555 C-11.843 21.465 -11.843 21.465 -11 19 C-10.34 19 -9.68 19 -9 19 C-8.814 17.051 -8.814 17.051 -8.625 15.062 C-8.414 12.848 -8.414 12.848 -8 11 C-7.34 10.67 -6.68 10.34 -6 10 C-4.946 7.69 -3.943 5.357 -3 3 C-2.34 3 -1.68 3 -1 3 C-0.67 2.01 -0.34 1.02 0 0 Z " fill="#280404" transform="translate(132,178)"/>
<path d="M0 0 C0.495 0.99 0.495 0.99 1 2 C-0.305 2.037 -1.609 2.075 -2.953 2.113 C-11.79 2.425 -20.027 2.872 -28.566 5.367 C-31.831 6.216 -34.65 6.228 -38 6 C-38 5.67 -38 5.34 -38 5 C-25.272 0.286 -13.425 -0.266 0 0 Z " fill="#B52C36" transform="translate(252,169)"/>
<path d="M0 0 C1.325 3.975 0.159 6.011 -1 10 C-2.067 19.883 -0.644 27.609 2.809 36.758 C3.828 39.531 4.523 42.093 5 45 C-2.079 36.859 -3.196 27.434 -3.25 17.125 C-3.271 16.144 -3.291 15.163 -3.312 14.152 C-3.342 8.651 -3.075 4.774 0 0 Z " fill="#B52F38" transform="translate(231,253)"/>
<path d="M0 0 C6.539 2.845 12.476 6.464 18.375 10.438 C19.065 10.892 19.754 11.346 20.465 11.814 C24.756 14.759 27.403 17.479 30 22 C26.434 20.437 23.772 18.261 20.812 15.75 C11.304 7.777 11.304 7.777 0 3 C0 2.01 0 1.02 0 0 Z M30 22 C31.32 22.99 32.64 23.98 34 25 C33.67 25.99 33.34 26.98 33 28 C30 24.25 30 24.25 30 22 Z " fill="#2E0405" transform="translate(284,176)"/>
<path d="M0 0 C6.066 0.481 10.584 1.844 16 4.562 C17.019 5.057 17.019 5.057 18.059 5.561 C19.711 6.363 21.356 7.18 23 8 C23 8.66 23 9.32 23 10 C17.831 9.337 13.377 7.081 8.688 4.938 C7.852 4.56 7.016 4.183 6.154 3.795 C4.101 2.868 2.049 1.936 0 1 C0 0.67 0 0.34 0 0 Z M23 10 C28.593 11.364 31.912 14.154 36 18 C32.18 18 30.887 16.767 27.812 14.562 C26.911 13.924 26.01 13.286 25.082 12.629 C24.395 12.091 23.708 11.554 23 11 C23 10.67 23 10.34 23 10 Z " fill="#300607" transform="translate(296,121)"/>
<path d="M0 0 C3.243 1.671 5.679 3.584 8.188 6.188 C12.429 10.579 17.181 14.267 22 18 C19.533 18.883 18.361 19.131 15.859 18.223 C15.163 17.84 14.467 17.457 13.75 17.062 C13.044 16.682 12.337 16.302 11.609 15.91 C11.078 15.61 10.547 15.309 10 15 C10.66 14.34 11.32 13.68 12 13 C11.134 12.229 10.268 11.458 9.375 10.664 C8.25 9.651 7.125 8.638 6 7.625 C5.428 7.117 4.855 6.609 4.266 6.086 C2.806 4.765 1.398 3.386 0 2 C0 1.34 0 0.68 0 0 Z " fill="#C4303B" transform="translate(182,359)"/>
<path d="M0 0 C0.66 0.66 1.32 1.32 2 2 C1.625 4.125 1.625 4.125 1 6 C0 5 0 5 -0.062 2.438 C-0.042 1.633 -0.021 0.829 0 0 Z M2 6 C5.249 8.778 7.094 12.406 9.188 16.062 C12.95 22.503 17.116 28.344 22 34 C21.01 34 20.02 34 19 34 C17.267 32.122 15.763 30.295 14.25 28.25 C13.812 27.668 13.374 27.086 12.922 26.487 C2 11.717 2 11.717 2 6 Z " fill="#330607" transform="translate(167,304)"/>
<path d="M0 0 C5.227 1.986 9.022 4.022 13 8 C14.228 11.069 14.155 12.457 13.25 15.625 C11.169 19.579 11.169 19.579 9 21 C2.851 21.659 2.851 21.659 0.062 19.5 C-0.288 19.005 -0.639 18.51 -1 18 C1.64 18.33 4.28 18.66 7 19 C7.33 18.34 7.66 17.68 8 17 C8.99 16.67 9.98 16.34 11 16 C11.46 12.041 11.393 10.497 8.875 7.312 C6.031 5.025 3.33 3.471 0 2 C0 1.34 0 0.68 0 0 Z M-8 15 C-5 16 -5 16 -5 16 Z M-5 16 C-3.02 16.99 -3.02 16.99 -1 18 C-2.32 17.67 -3.64 17.34 -5 17 C-5 16.67 -5 16.34 -5 16 Z " fill="#2C0405" transform="translate(281,227)"/>
<path d="M0 0 C4.268 0.474 6.175 2.958 9 6 C9.598 6.557 10.196 7.114 10.812 7.688 C12 9 12 9 12 11 C12.66 11 13.32 11 14 11 C15.98 13.082 15.98 13.082 18.188 15.812 C18.924 16.706 19.66 17.599 20.418 18.52 C20.94 19.338 21.462 20.157 22 21 C21.67 21.99 21.34 22.98 21 24 C20.466 23.334 19.933 22.667 19.383 21.98 C13.236 14.376 6.921 6.921 0 0 Z M22 24 C22.66 24 23.32 24 24 24 C26 27 26 27 25.625 29.188 C25.419 29.786 25.212 30.384 25 31 C22 26.25 22 26.25 22 24 Z " fill="#310506" transform="translate(341,148)"/>
<path d="M0 0 C0.66 0.33 1.32 0.66 2 1 C0.188 3 0.188 3 -2 5 C-2.99 5 -3.98 5 -5 5 C-5 5.66 -5 6.32 -5 7 C-6.967 8.64 -8.939 10.173 -11 11.688 C-16.199 15.588 -21.195 19.616 -26 24 C-26 21 -26 21 -24.27 19.09 C-16.533 12.313 -8.567 5.711 0 0 Z " fill="#B62F39" transform="translate(177,134)"/>
<path d="M0 0 C5.218 3.328 6.48 6.924 8.25 12.562 C8.505 13.33 8.76 14.098 9.023 14.889 C9.697 16.921 10.35 18.959 11 21 C11.33 21.99 11.66 22.98 12 24 C12.069 26.061 12.085 28.125 12.062 30.188 C12.053 31.274 12.044 32.361 12.035 33.48 C12.024 34.312 12.012 35.143 12 36 C11.67 36 11.34 36 11 36 C10.89 35.25 10.781 34.5 10.668 33.727 C9 22.96 6.319 14.121 1.207 4.469 C0 2 0 2 0 0 Z " fill="#B52F39" transform="translate(339,204)"/>
<path d="M0 0 C0.99 0.495 0.99 0.495 2 1 C1.67 1.66 1.34 2.32 1 3 C0.67 2.01 0.34 1.02 0 0 Z M2 3 C2.436 3.375 2.871 3.75 3.32 4.137 C6.233 6.64 9.151 9.131 12.125 11.562 C15 14 15 14 17.5 16.562 C20.187 19.182 22.832 21.011 26 23 C25.34 23.33 24.68 23.66 24 24 C17.514 19.952 11.296 15.558 6 10 C6 9.34 6 8.68 6 8 C5.34 8 4.68 8 4 8 C3.34 6.35 2.68 4.7 2 3 Z " fill="#BB2F39" transform="translate(194,342)"/>
<path d="M0 0 C0.33 0 0.66 0 1 0 C1.02 0.675 1.04 1.349 1.06 2.044 C1.156 5.155 1.266 8.265 1.375 11.375 C1.406 12.436 1.437 13.497 1.469 14.59 C1.261 25.444 1.261 25.444 5 35 C5.072 36.686 5.084 38.375 5.062 40.062 C5.053 40.982 5.044 41.901 5.035 42.848 C5.024 43.558 5.012 44.268 5 45 C-3.196 32.705 -0.284 13.995 0 0 Z " fill="#BD2E39" transform="translate(158,248)"/>
<path d="M0 0 C5.789 5.169 8.595 11.944 11.25 19.062 C11.652 20.084 11.652 20.084 12.062 21.127 C13.609 25.233 14.306 28.543 14 33 C11.926 29.889 10.987 27.227 9.812 23.688 C7.507 17.053 4.621 10.977 1.355 4.766 C0 2 0 2 0 0 Z " fill="#300506" transform="translate(369,182)"/>
<path d="M0 0 C0.66 0.33 1.32 0.66 2 1 C0.515 1.99 0.515 1.99 -1 3 C-0.67 2.01 -0.34 1.02 0 0 Z M-3 4 C-3 4.99 -3 5.98 -3 7 C-3.99 7.495 -3.99 7.495 -5 8 C-4.34 6.68 -3.68 5.36 -3 4 Z M-7 8 C-6.34 8.33 -5.68 8.66 -5 9 C-5.398 9.568 -5.797 10.137 -6.207 10.723 C-9.38 15.347 -11.957 19.747 -14 25 C-14.558 26.314 -15.12 27.627 -15.688 28.938 C-16.121 29.948 -16.554 30.959 -17 32 C-17.33 32 -17.66 32 -18 32 C-17.685 26.114 -16.531 22.598 -13.156 17.762 C-11.822 15.893 -11.822 15.893 -11 13 C-10.34 12.67 -9.68 12.34 -9 12 C-7.866 9.983 -7.866 9.983 -7 8 Z " fill="#240304" transform="translate(180,196)"/>
<path d="M0 0 C0.33 0.66 0.66 1.32 1 2 C-1.31 2.66 -3.62 3.32 -6 4 C-4.608 1.216 -2.844 1.021 0 0 Z M-9 4 C-8.01 4.33 -7.02 4.66 -6 5 C-18.485 13.446 -18.485 13.446 -25 17 C-24.67 16.01 -24.34 15.02 -24 14 C-23.34 14 -22.68 14 -22 14 C-22 13.34 -22 12.68 -22 12 C-20.068 10.738 -18.077 9.564 -16.062 8.438 C-12.314 6.524 -12.314 6.524 -9 4 Z M-28 18 C-27.34 18.33 -26.68 18.66 -26 19 C-27.65 20.32 -29.3 21.64 -31 23 C-29.125 19.125 -29.125 19.125 -28 18 Z " fill="#240304" transform="translate(213,173)"/>
<path d="M0 0 C0.66 0.33 1.32 0.66 2 1 C1.192 1.724 0.384 2.449 -0.449 3.195 C-1.529 4.172 -2.608 5.148 -3.688 6.125 C-4.218 6.599 -4.748 7.074 -5.295 7.562 C-8.877 10.815 -11.977 14.22 -15 18 C-15.33 17.34 -15.66 16.68 -16 16 C-11.116 10.096 -5.828 4.969 0 0 Z M-18 18 C-17.34 18.33 -16.68 18.66 -16 19 C-16.783 20.339 -17.577 21.671 -18.375 23 C-18.816 23.743 -19.257 24.485 -19.711 25.25 C-20.349 26.116 -20.349 26.116 -21 27 C-21.66 27 -22.32 27 -23 27 C-21.502 23.888 -19.801 20.947 -18 18 Z " fill="#C0313C" transform="translate(178,174)"/>
<path d="M0 0 C1.32 0.66 2.64 1.32 4 2 C-9.633 12.558 -9.633 12.558 -16 17 C-16.33 16.34 -16.66 15.68 -17 15 C-16.34 15 -15.68 15 -15 15 C-14.67 14.01 -14.34 13.02 -14 12 C-12.223 10.395 -12.223 10.395 -10.062 8.812 C-9.352 8.283 -8.642 7.753 -7.91 7.207 C-6 6 -6 6 -4 6 C-4 5.34 -4 4.68 -4 4 C-2.708 2.627 -1.376 1.29 0 0 Z M4 0 C6 1 6 1 6 1 Z M-20 17 C-19.01 17.33 -18.02 17.66 -17 18 C-18.98 18.99 -18.98 18.99 -21 20 C-20.67 19.01 -20.34 18.02 -20 17 Z " fill="#39080A" transform="translate(173,133)"/>
<path d="M0 0 C1.793 3.271 2.798 6.542 3.812 10.125 C5.403 15.448 7.398 20.199 10.047 25.074 C11 27 11 27 11 29 C8 28 8 28 6.062 24.688 C2.341 16.683 -0.685 8.911 0 0 Z " fill="#B22E37" transform="translate(143,287)"/>
<path d="M0 0 C0.66 0 1.32 0 2 0 C2.193 1.134 2.387 2.269 2.586 3.438 C2.849 4.958 3.112 6.479 3.375 8 C3.501 8.744 3.628 9.488 3.758 10.254 C4.407 13.984 5.136 17.648 6.094 21.312 C7.034 25.14 7.163 28.096 7 32 C6.67 32 6.34 32 6 32 C5.795 31.073 5.59 30.146 5.379 29.191 C5.109 27.994 4.84 26.796 4.562 25.562 C4.296 24.368 4.029 23.173 3.754 21.941 C3.299 19.13 3.299 19.13 2 18 C1.599 15.925 1.254 13.839 0.938 11.75 C0.761 10.61 0.584 9.471 0.402 8.297 C0.059 5.481 -0.08 2.83 0 0 Z " fill="#B42E38" transform="translate(114,263)"/>
<path d="M0 0 C3 1 3 1 4.43 3.809 C5.145 5.605 5.145 5.605 5.875 7.438 C6.393 8.711 6.914 9.983 7.438 11.254 C7.697 11.886 7.956 12.518 8.223 13.168 C9.939 17.212 11.972 21.106 14 25 C13.34 25.33 12.68 25.66 12 26 C6.791 17.622 3.002 9.388 0 0 Z " fill="#B72E38" transform="translate(163,294)"/>
<path d="M0 0 C0.33 0 0.66 0 1 0 C1.564 4.831 -0.347 7.89 -2.875 11.812 C-3.24 12.41 -3.605 13.007 -3.98 13.623 C-4.924 15.124 -5.956 16.568 -7 18 C-7.66 18 -8.32 18 -9 18 C-9.062 18.763 -9.124 19.526 -9.188 20.312 C-10 23 -10 23 -12.562 24.812 C-13.367 25.204 -14.171 25.596 -15 26 C-13.242 22.183 -10.929 18.751 -8.625 15.25 C-5.397 10.298 -2.475 5.38 0 0 Z " fill="#2E0506" transform="translate(372,310)"/>
<path d="M0 0 C0.66 0.33 1.32 0.66 2 1 C-9.051 16.35 -9.051 16.35 -17 19 C-17 18.34 -17 17.68 -17 17 C-15.426 15.484 -15.426 15.484 -13.312 13.75 C-9.749 10.727 -6.913 7.641 -4 4 C-2.685 2.649 -1.358 1.308 0 0 Z M-19 19 C-17 20 -17 20 -17 20 Z " fill="#B82F39" transform="translate(353,336)"/>
<path d="M0 0 C1.103 -0.016 2.207 -0.032 3.344 -0.049 C10.182 -0.053 15.52 0.767 21.875 3.312 C18.51 4.434 17.337 4.141 13.949 3.383 C7.809 2.179 1.926 2.083 -4.312 2.188 C-5.36 2.197 -6.407 2.206 -7.486 2.215 C-10.033 2.238 -12.579 2.271 -15.125 2.312 C-10.425 -0.821 -5.527 -0.016 0 0 Z " fill="#B7303A" transform="translate(256.125,220.6875)"/>
<path d="M0 0 C0.711 1.711 0.711 1.711 1 4 C-0.398 6.289 -0.398 6.289 -2.375 8.625 C-4.953 11.639 -4.953 11.639 -7 15 C-8.727 16.01 -10.457 17.017 -12.211 17.98 C-14.279 19.159 -16.143 20.514 -18 22 C-18.66 21.67 -19.32 21.34 -20 21 C-19.348 20.504 -18.695 20.007 -18.023 19.496 C-10.609 13.733 -5.013 7.905 0 0 Z " fill="#320607" transform="translate(324,284)"/>
<path d="M0 0 C0.99 0.33 1.98 0.66 3 1 C-3.273 5.427 -9.59 9.773 -16 14 C-13.457 8.324 -8.443 4.795 -3 2 C-2.01 2 -1.02 2 0 2 C0 1.34 0 0.68 0 0 Z M-20 16 C-18 17 -18 17 -18 17 Z " fill="#A62A33" transform="translate(196,161)"/>
<path d="M0 0 C2 1 2 1 3.117 4.156 C4.567 10.514 4.211 17.019 4.125 23.5 C4.116 24.799 4.107 26.099 4.098 27.438 C4.074 30.625 4.041 33.812 4 37 C3.67 37 3.34 37 3 37 C2.97 35.866 2.97 35.866 2.94 34.708 C2.844 31.264 2.735 27.819 2.625 24.375 C2.594 23.185 2.563 21.995 2.531 20.77 C2.493 19.616 2.454 18.462 2.414 17.273 C2.383 16.216 2.351 15.158 2.319 14.068 C1.98 10.804 1.087 8.085 0 5 C-0.125 2.125 -0.125 2.125 0 0 Z " fill="#A92F38" transform="translate(329,226)"/>
<path d="M0 0 C0.33 0 0.66 0 1 0 C1.17 1.016 1.34 2.032 1.516 3.078 C3.01 11.675 4.939 19.796 8 28 C7.34 28 6.68 28 6 28 C1.393 18.338 -0.355 10.744 0 0 Z " fill="#3A0809" transform="translate(210,271)"/>
<path d="M0 0 C10.339 -0.363 20.019 -0.153 30 3 C30.66 3.66 31.32 4.32 32 5 C31.01 5.495 31.01 5.495 30 6 C27 5 27 5 24 4 C16.071 2.18 8.106 1.49 0 1 C0 0.67 0 0.34 0 0 Z " fill="#390709" transform="translate(248,222)"/>
<path d="M0 0 C4.083 3.063 6.587 5.542 8.988 10.152 C10.712 13.301 12.877 16.111 15 19 C14.67 19.66 14.34 20.32 14 21 C12.339 18.865 10.679 16.729 9.023 14.59 C7.69 12.883 6.341 11.187 4.977 9.504 C4.345 8.719 3.713 7.934 3.062 7.125 C2.476 6.406 1.889 5.686 1.285 4.945 C0 3 0 3 0 0 Z " fill="#BB2F3A" transform="translate(326,184)"/>
<path d="M0 0 C4.108 0.601 7.076 2.901 10.375 5.25 C10.927 5.633 11.478 6.016 12.047 6.41 C15.866 9.091 19.448 11.974 23 15 C19.04 15 17.092 13.237 14 11 C13.099 10.359 12.198 9.719 11.27 9.059 C2.736 2.938 2.736 2.938 0 0 Z " fill="#AE2E37" transform="translate(316,131)"/>
<path d="M0 0 C2.061 2.473 3.541 4.994 4.938 7.875 C6.69 11.488 8.699 14.713 11 18 C10.67 18.66 10.34 19.32 10 20 C0 7.467 0 7.467 0 0 Z M11 20 C12.32 21.32 13.64 22.64 15 24 C14.67 24.66 14.34 25.32 14 26 C11 22.25 11 22.25 11 20 Z " fill="#AC2D36" transform="translate(154,316)"/>
<path d="M0 0 C0.33 0 0.66 0 1 0 C1.11 0.834 1.219 1.668 1.332 2.527 C2.181 8.556 3.182 14.199 5.27 19.922 C6.43 23.224 7.195 26.596 8 30 C2.487 26.324 1.997 19.559 0.598 13.383 C-0.199 8.875 -0.278 4.558 0 0 Z " fill="#340607" transform="translate(114,268)"/>
<path d="M0 0 C0 0.66 0 1.32 0 2 C0.99 2.33 1.98 2.66 3 3 C2.289 2.837 1.578 2.674 0.845 2.506 C-2.016 1.997 -4.617 1.886 -7.52 1.902 C-9.052 1.907 -9.052 1.907 -10.615 1.912 C-12.198 1.925 -12.198 1.925 -13.812 1.938 C-14.887 1.942 -15.961 1.947 -17.068 1.951 C-19.712 1.963 -22.356 1.979 -25 2 C-24 0 -24 0 -21.953 -0.703 C-14.234 -2.265 -7.677 -1.587 0 0 Z " fill="#310607" transform="translate(269,239)"/>
<path d="M0 0 C3.579 1.652 6.748 3.783 10 6 C5.754 6 3.615 4.182 0 2 C0 1.34 0 0.68 0 0 Z M10 7 C14.86 7.607 18.741 9.728 23 12 C22.34 12.66 21.68 13.32 21 14 C19.351 13.216 17.706 12.422 16.062 11.625 C15.146 11.184 14.229 10.743 13.285 10.289 C11 9 11 9 10 7 Z " fill="#310607" transform="translate(171,362)"/>
<path d="M0 0 C0.66 0.33 1.32 0.66 2 1 C-2.258 3.941 -6.569 6.481 -11.188 8.812 C-12.111 9.299 -12.111 9.299 -13.053 9.795 C-14.664 10.61 -16.33 11.313 -18 12 C-18.99 11.67 -19.98 11.34 -21 11 C-14.393 6.595 -7.446 2.806 0 0 Z " fill="#B32F38" transform="translate(200,122)"/>
<path d="M0 0 C-1.436 0.816 -2.874 1.627 -4.312 2.438 C-5.113 2.89 -5.914 3.342 -6.738 3.809 C-9 5 -9 5 -12 6 C-12 6.66 -12 7.32 -12 8 C-12.99 8.33 -13.98 8.66 -15 9 C-15.33 9.66 -15.66 10.32 -16 11 C-16.66 11 -17.32 11 -18 11 C-18.66 12.32 -19.32 13.64 -20 15 C-20.66 15 -21.32 15 -22 15 C-18.746 7.367 -11.229 2.634 -3.848 -0.504 C-2 -1 -2 -1 0 0 Z " fill="#270304" transform="translate(241,226)"/>
<path d="M0 0 C0 3.333 -0.557 4.226 -2.25 7 C-4.773 11.355 -6.45 15.743 -8.008 20.52 C-9.025 23.062 -10.264 24.896 -12 27 C-10.368 17.854 -6.985 6.49 0 0 Z " fill="#260304" transform="translate(155,205)"/>
<path d="M0 0 C0.33 0.99 0.66 1.98 1 3 C-3.937 8.091 -9.088 13.059 -15 17 C-15.99 16.67 -16.98 16.34 -18 16 C-17.287 15.515 -16.574 15.031 -15.84 14.531 C-9.702 10.236 -4.609 5.915 0 0 Z " fill="#B82F39" transform="translate(333,302)"/>
<path d="M0 0 C0.99 0.66 1.98 1.32 3 2 C1.804 2.516 0.607 3.031 -0.625 3.562 C-5.26 5.856 -7.886 8.973 -11 13 C-11.66 13.66 -12.32 14.32 -13 15 C-13.33 14.01 -13.66 13.02 -14 12 C-10.522 6.428 -5.809 2.845 0 0 Z " fill="#330708" transform="translate(243,240)"/>
<path d="M0 0 C5.172 4.687 8.989 10.317 13 16 C12.67 16.66 12.34 17.32 12 18 C11.385 17.169 10.77 16.337 10.137 15.48 C9.32 14.383 8.504 13.285 7.688 12.188 C7.283 11.64 6.879 11.093 6.463 10.529 C4.812 8.315 3.215 6.204 1.207 4.301 C0 3 0 3 0 0 Z " fill="#3A0709" transform="translate(326,187)"/>
<path d="M0 0 C0.66 0 1.32 0 2 0 C1.67 0.66 1.34 1.32 1 2 C0.67 1.34 0.34 0.68 0 0 Z M4 4 C6 5 6 5 6 5 Z M6 5 C7.172 5.783 8.338 6.577 9.5 7.375 C10.475 8.036 10.475 8.036 11.469 8.711 C11.974 9.136 12.479 9.562 13 10 C13 10.66 13 11.32 13 12 C13.619 12.268 14.238 12.536 14.875 12.812 C17 14 17 14 19 17 C14.196 15.544 10.32 12.731 7 9 C6.297 6.805 6.297 6.805 6 5 Z " fill="#BE2F3A" transform="translate(154,345)"/>
<path d="M0 0 C3.375 0.547 5.082 1.055 8 3 C3.446 3.369 3.446 3.369 1.188 1.5 C0.6 0.757 0.6 0.757 0 0 Z M8 3 C16.25 3.33 24.5 3.66 33 4 C33 4.33 33 4.66 33 5 C29.396 5.058 25.792 5.094 22.188 5.125 C20.651 5.15 20.651 5.15 19.084 5.176 C18.101 5.182 17.118 5.189 16.105 5.195 C15.199 5.206 14.294 5.216 13.36 5.227 C11 5 11 5 8 3 Z " fill="#210303" transform="translate(248,310)"/>
<path d="M0 0 C5.026 1.795 6.966 5.933 9.25 10.5 C10.128 13.428 10.141 15.959 10 19 C8.932 16.869 7.87 14.736 6.816 12.598 C4.69 8.298 2.57 4.058 0 0 Z " fill="#330708" transform="translate(320,207)"/>
<path d="M0 0 C4.104 -0.087 8.208 -0.14 12.312 -0.188 C13.48 -0.213 14.647 -0.238 15.85 -0.264 C16.968 -0.273 18.086 -0.283 19.238 -0.293 C20.27 -0.309 21.302 -0.324 22.365 -0.341 C25 0 25 0 28 3 C14.14 2.01 14.14 2.01 0 1 C0 0.67 0 0.34 0 0 Z " fill="#97272E" transform="translate(239,151)"/>
<path d="M0 0 C0.557 0.722 1.114 1.444 1.688 2.188 C5.675 7.037 10.149 11.052 15 15 C14.01 15.495 14.01 15.495 13 16 C7.947 12.464 3.543 9.094 0 4 C0 2.68 0 1.36 0 0 Z " fill="#2F0506" transform="translate(233,294)"/>
<path d="M0 0 C0.33 0 0.66 0 1 0 C0.355 7.907 -1.87 15.391 -4 23 C-4.33 23 -4.66 23 -5 23 C-3.212 4.817 -3.212 4.817 0 0 Z " fill="#300506" transform="translate(349,261)"/>
<path d="M0 0 C0 3.767 -1.121 4.921 -3.312 7.938 C-3.927 8.792 -4.542 9.647 -5.176 10.527 C-6.773 12.693 -8.38 14.851 -10 17 C-9.731 10.554 -7.354 6.712 -3 2 C-2.01 1.34 -1.02 0.68 0 0 Z " fill="#B92F3A" transform="translate(224,231)"/>
<path d="M0 0 C0.33 0 0.66 0 1 0 C1.172 5.083 0.996 8.304 -1 13 C-1.197 14.413 -1.362 15.83 -1.5 17.25 C-1.665 18.488 -1.83 19.725 -2 21 C-2.66 21.33 -3.32 21.66 -4 22 C-3.513 14.409 -2.002 7.329 0 0 Z " fill="#9A272F" transform="translate(118,212)"/>
<path d="M0 0 C1.647 0.643 3.293 1.289 4.938 1.938 C6.312 2.477 6.312 2.477 7.715 3.027 C10 4 10 4 11 5 C12.849 5.234 14.705 5.413 16.562 5.562 C18.08 5.688 18.08 5.688 19.629 5.816 C20.803 5.907 20.803 5.907 22 6 C22 6.33 22 6.66 22 7 C14.566 7.335 8.801 7.139 2 4 C2 3.34 2 2.68 2 2 C1.34 2 0.68 2 0 2 C0 1.34 0 0.68 0 0 Z " fill="#2C0506" transform="translate(241,381)"/>
<path d="M0 0 C0 3.728 -1.181 5.692 -2.875 9 C-3.409 10.052 -3.942 11.104 -4.492 12.188 C-6 15 -6 15 -8 18 C-7.413 10.951 -5.289 4.896 0 0 Z " fill="#AC2C35" transform="translate(155,201)"/>
<path d="M0 0 C-2.948 1.965 -5.91 3.575 -9.062 5.188 C-10.126 5.738 -11.189 6.288 -12.285 6.855 C-13.181 7.233 -14.077 7.611 -15 8 C-15.66 7.67 -16.32 7.34 -17 7 C-15.756 6.013 -14.505 5.036 -13.25 4.062 C-12.554 3.517 -11.858 2.972 -11.141 2.41 C-7.482 0 -4.309 -0.12 0 0 Z " fill="#BC303A" transform="translate(215,155)"/>
<path d="M0 0 C0.66 0.33 1.32 0.66 2 1 C-0.865 5.078 -3.43 7.027 -8 9 C-8 8.34 -8 7.68 -8 7 C-6.25 5.273 -6.25 5.273 -4 3.375 C-3.257 2.743 -2.515 2.112 -1.75 1.461 C-1.173 0.979 -0.595 0.497 0 0 Z M-10 10 C-10 13 -10 13 -10 13 Z " fill="#320506" transform="translate(342,350)"/>
<path d="M0 0 C0.568 0.266 1.137 0.531 1.723 0.805 C5.439 2.505 9.035 4.103 13 5.125 C14.485 5.558 14.485 5.558 16 6 C16.33 6.66 16.66 7.32 17 8 C10.599 7.534 5.732 5.853 0 3 C0 2.01 0 1.02 0 0 Z " fill="#300607" transform="translate(240,322)"/>
<path d="M0 0 C3.941 1.668 6.789 4.227 10 7 C8.375 7.688 8.375 7.688 6 8 C2.75 6.562 2.75 6.562 0 5 C0.66 4.34 1.32 3.68 2 3 C1.34 2.01 0.68 1.02 0 0 Z " fill="#A22D36" transform="translate(194,370)"/>
<path d="M0 0 C3.465 1.98 3.465 1.98 7 4 C6.67 5.32 6.34 6.64 6 8 C4.994 7.048 3.995 6.088 3 5.125 C2.443 4.591 1.886 4.058 1.312 3.508 C0 2 0 2 0 0 Z M8 9 C9.98 9.99 9.98 9.99 12 11 C11.67 11.66 11.34 12.32 11 13 C10.01 11.68 9.02 10.36 8 9 Z M12 13 C12.66 13 13.32 13 14 13 C13.67 13.66 13.34 14.32 13 15 C12.67 14.34 12.34 13.68 12 13 Z M15 16 C17 17 17 17 17 17 Z " fill="#200303" transform="translate(178,351)"/>
<path d="M0 0 C5.227 1.986 9.022 4.022 13 8 C13.875 10.812 13.875 10.812 14 13 C13.34 13 12.68 13 12 13 C11.691 12.113 11.381 11.226 11.062 10.312 C8.259 5.809 4.699 4.226 0 2 C0 1.34 0 0.68 0 0 Z " fill="#260304" transform="translate(281,227)"/>
<path d="M0 0 C0 0.33 0 0.66 0 1 C-13.633 4.26 -13.633 4.26 -20 5 C-17.731 1.881 -14.938 1.164 -11.273 0.34 C-7.513 -0.222 -3.791 -0.158 0 0 Z " fill="#2F0506" transform="translate(234,169)"/>
<path d="M0 0 C-0.33 0.99 -0.66 1.98 -1 3 C-5.438 4.405 -9.321 5.292 -14 5 C-9.945 1.432 -5.377 0 0 0 Z M-17 5 C-14 6 -14 6 -14 6 Z " fill="#3B080A" transform="translate(222,154)"/>
<path d="M0 0 C3.871 0.574 6.082 2.487 9 5 C8.67 5.66 8.34 6.32 8 7 C6.68 6.34 5.36 5.68 4 5 C4 4.34 4 3.68 4 3 C2.68 2.34 1.36 1.68 0 1 C0 0.67 0 0.34 0 0 Z M9 7 C9.66 7.66 10.32 8.32 11 9 C10.34 9 9.68 9 9 9 C9 8.34 9 7.68 9 7 Z M14 12 C16 13 16 13 16 13 Z " fill="#BE2E39" transform="translate(296,186)"/>
<path d="M0 0 C1.98 1.65 3.96 3.3 6 5 C5.67 5.99 5.34 6.98 5 8 C0 2.25 0 2.25 0 0 Z M6 8 C6.66 8 7.32 8 8 8 C10 11 10 11 9.625 13.188 C9.419 13.786 9.212 14.384 9 15 C6 10.25 6 10.25 6 8 Z " fill="#340608" transform="translate(357,164)"/>
<path d="M0 0 C0.33 0 0.66 0 1 0 C0.45 6.048 -0.904 11.306 -3 17 C-3.33 17 -3.66 17 -4 17 C-4.561 10.545 -2.635 5.846 0 0 Z " fill="#B02D36" transform="translate(123,198)"/>
<path d="M0 0 C-1 3 -1 3 -3.938 4.625 C-8.48 6.432 -13.159 6.718 -18 7 C-14.535 4.69 -11.355 3.871 -7.375 2.781 C-4.622 1.876 -2.916 0 0 0 Z " fill="#A92C35" transform="translate(309,322)"/>
<path d="M0 0 C4.116 3.506 6.906 8.046 9 13 C8.67 13.66 8.34 14.32 8 15 C0 3 0 3 0 0 Z " fill="#B52F39" transform="translate(361,171)"/>
<path d="M0 0 C3.403 1.059 6.014 2.009 9 4 C10.99 4.39 12.99 4.732 15 5 C15 5.33 15 5.66 15 6 C11.7 6 8.4 6 5 6 C5 5.34 5 4.68 5 4 C3.02 3.34 1.04 2.68 -1 2 C-0.67 1.34 -0.34 0.68 0 0 Z " fill="#AB2C35" transform="translate(274,243)"/>
<path d="M0 0 C1 4 1 4 1 4 Z M-3 6 C-2.34 6 -1.68 6 -1 6 C-2.37 9.161 -2.989 9.993 -6 12 C-8.324 12.394 -10.658 12.735 -13 13 C-13 12.34 -13 11.68 -13 11 C-11.907 10.732 -10.814 10.464 -9.688 10.188 C-6.268 9.086 -5.224 8.575 -3 6 Z " fill="#C02E39" transform="translate(296,238)"/>
<path d="M0 0 C6.044 1.36 9.635 4.857 14 9 C9.982 9 8.509 7.44 5.312 5.062 C3.822 3.966 3.822 3.966 2.301 2.848 C1.542 2.238 0.782 1.628 0 1 C0 0.67 0 0.34 0 0 Z " fill="#B6303A" transform="translate(301,166)"/>
<path d="M0 0 C4.609 0.72 8.672 2.313 13 4 C13 4.99 13 5.98 13 7 C8.173 5.587 4.284 3.57 0 1 C0 0.67 0 0.34 0 0 Z " fill="#B12D36" transform="translate(282,157)"/>
<path d="M0 0 C-1.498 4.662 -4.885 5.866 -9 8 C-9 7.34 -9 6.68 -9 6 C-8.34 6 -7.68 6 -7 6 C-6.67 5.01 -6.34 4.02 -6 3 C-2.556 0 -2.556 0 0 0 Z M-12 8 C-11.01 8.33 -10.02 8.66 -9 9 C-10.98 9.99 -10.98 9.99 -13 11 C-12.67 10.01 -12.34 9.02 -12 8 Z " fill="#330809" transform="translate(165,142)"/>
<path d="M0 0 C5.761 1.293 9.332 3.38 14 7 C13.01 7.495 13.01 7.495 12 8 C7.683 6.136 3.822 3.73 0 1 C0 0.67 0 0.34 0 0 Z " fill="#AF2E37" transform="translate(174,363)"/>
<path d="M0 0 C4.189 2.866 5.957 4.992 7 10 C6.539 12.188 6.539 12.188 6 14 C4.995 12.044 3.996 10.085 3 8.125 C2.165 6.489 2.165 6.489 1.312 4.82 C0 2 0 2 0 0 Z " fill="#A32A32" transform="translate(339,204)"/>
<path d="M0 0 C5.593 1.364 8.912 4.154 13 8 C9.18 8 7.887 6.767 4.812 4.562 C3.911 3.924 3.01 3.286 2.082 2.629 C1.395 2.091 0.708 1.554 0 1 C0 0.67 0 0.34 0 0 Z " fill="#2A0506" transform="translate(319,131)"/>
<path d="M0 0 C1.211 3.632 0.628 5.065 -0.438 8.688 C-0.869 10.178 -0.869 10.178 -1.309 11.699 C-1.537 12.458 -1.765 13.218 -2 14 C-3.51 11.617 -4.092 10.502 -3.574 7.676 C-3.282 6.896 -2.989 6.116 -2.688 5.312 C-2.403 4.525 -2.118 3.737 -1.824 2.926 C-1 1 -1 1 0 0 Z " fill="#A22931" transform="translate(383,278)"/>
<path d="M0 0 C0.33 0 0.66 0 1 0 C1.404 6.459 0.592 11.061 -2 17 C-2.33 17 -2.66 17 -3 17 C-2.485 11.147 -1.546 5.67 0 0 Z " fill="#A92D36" transform="translate(350,261)"/>
<path d="M0 0 C-11.337 4.592 -11.337 4.592 -18 4 C-18 3.67 -18 3.34 -18 3 C-4.893 -1.631 -4.893 -1.631 0 0 Z " fill="#AA2C35" transform="translate(232,171)"/>
<path d="M0 0 C0.66 0.33 1.32 0.66 2 1 C0.401 6.196 -1.741 11.066 -4 16 C-5.162 13.134 -4.995 11.984 -4.004 8.984 C-3.528 7.917 -3.053 6.85 -2.562 5.75 C-2.089 4.672 -1.616 3.595 -1.129 2.484 C-0.756 1.665 -0.384 0.845 0 0 Z " fill="#B6303A" transform="translate(376,297)"/>
<path d="M0 0 C1.274 3.01 0.997 4.008 -0.25 7.125 C-2 10 -2 10 -5 12 C-3.689 7.766 -2.056 3.926 0 0 Z " fill="#2A0405" transform="translate(378,298)"/>
<path d="M0 0 C1 3 1 3 0.004 5.48 C-0.472 6.374 -0.947 7.267 -1.438 8.188 C-1.911 9.089 -2.384 9.99 -2.871 10.918 C-3.244 11.605 -3.616 12.292 -4 13 C-4.33 13 -4.66 13 -5 13 C-4.613 7.288 -4.13 4.263 0 0 Z " fill="#390809" transform="translate(167,215)"/>
<path d="M0 0 C0.66 0.33 1.32 0.66 2 1 C-0.44 5.789 -1.975 8.627 -7 11 C-5.221 6.956 -2.605 3.539 0 0 Z " fill="#B52E38" transform="translate(175,205)"/>
<path d="M0 0 C2.758 2.758 4.224 5.51 6 9 C5.67 9.99 5.34 10.98 5 12 C2.278 8.824 0.201 6.039 -1 2 C-0.67 1.34 -0.34 0.68 0 0 Z " fill="#3A080A" transform="translate(126,308)"/>
<path d="M0 0 C0.99 0.495 0.99 0.495 2 1 C4.381 8.643 4.381 8.643 3 13 C-0.429 4.571 -0.429 4.571 0 0 Z " fill="#9F2831" transform="translate(329,226)"/>
<path d="M0 0 C3.697 4.08 5.259 7.864 7 13 C6.01 12.67 5.02 12.34 4 12 C2.938 9.688 2.938 9.688 2 7 C1.629 6.299 1.257 5.597 0.875 4.875 C0 3 0 3 0 0 Z " fill="#210303" transform="translate(339,206)"/>
<path d="M0 0 C0 3.562 -0.747 4.365 -2.875 7.125 C-3.409 7.829 -3.942 8.533 -4.492 9.258 C-6 11 -6 11 -8 12 C-6.491 7.02 -3.443 3.757 0 0 Z " fill="#A92E37" transform="translate(146,161)"/>
<path d="M0 0 C0.66 0.33 1.32 0.66 2 1 C1.217 2.339 0.423 3.671 -0.375 5 C-0.816 5.743 -1.257 6.485 -1.711 7.25 C-2.349 8.116 -2.349 8.116 -3 9 C-3.66 9 -4.32 9 -5 9 C-3.502 5.888 -1.801 2.947 0 0 Z " fill="#B6313B" transform="translate(160,192)"/>
<path d="M0 0 C4.161 -0.082 7.947 0.018 12 1 C12 1.66 12 2.32 12 3 C9.03 3 6.06 3 3 3 C3 2.34 3 1.68 3 1 C2.01 0.67 1.02 0.34 0 0 Z " fill="#BA2F39" transform="translate(253,170)"/>
<path d="M0 0 C4.95 1.98 4.95 1.98 10 4 C10 4.99 10 5.98 10 7 C6.7 5.35 3.4 3.7 0 2 C0 1.34 0 0.68 0 0 Z " fill="#270404" transform="translate(229,375)"/>
<path d="M0 0 C-3.692 3.538 -7.094 3.591 -12 4 C-7.969 0.803 -5.143 -0.139 0 0 Z " fill="#310607" transform="translate(306,323)"/>
<path d="M0 0 C1.671 2.962 2.327 5.371 2.625 8.75 C2.7 9.549 2.775 10.348 2.852 11.172 C2.925 12.077 2.925 12.077 3 13 C0.734 10.734 0.055 9.158 -0.098 5.957 C-0.065 3.971 -0.033 1.986 0 0 Z " fill="#A92A33" transform="translate(143,287)"/>
<path d="M0 0 C1.305 3.916 0.322 5.039 -1.438 8.688 C-1.911 9.681 -2.384 10.675 -2.871 11.699 C-3.43 12.838 -3.43 12.838 -4 14 C-4.911 11.479 -5.085 10.267 -4.258 7.676 C-3.884 6.896 -3.51 6.116 -3.125 5.312 C-2.756 4.525 -2.388 3.737 -2.008 2.926 C-1 1 -1 1 0 0 Z " fill="#2F0506" transform="translate(148,218)"/>
<path d="M0 0 C-3.795 2.214 -7.756 3.01 -12 4 C-12 3.34 -12 2.68 -12 2 C-8.1 -0.6 -4.526 -0.151 0 0 Z " fill="#A22931" transform="translate(246,223)"/>
<path d="M0 0 C0.66 0.33 1.32 0.66 2 1 C0.763 2.036 -0.49 3.053 -1.75 4.062 C-2.794 4.915 -2.794 4.915 -3.859 5.785 C-6 7 -6 7 -8.266 6.684 C-8.838 6.458 -9.41 6.232 -10 6 C-8.381 4.97 -6.755 3.951 -5.125 2.938 C-4.22 2.369 -3.315 1.801 -2.383 1.215 C-1.203 0.613 -1.203 0.613 0 0 Z " fill="#340607" transform="translate(197,163)"/>
<path d="M0 0 C0.33 0.66 0.66 1.32 1 2 C-0.25 5.562 -0.25 5.562 -2 9 C-2.99 9.33 -3.98 9.66 -5 10 C-3.844 6.088 -2.645 3.125 0 0 Z " fill="#C1313C" transform="translate(169,215)"/>
<path d="M0 0 C0.66 0.33 1.32 0.66 2 1 C-4.286 5.429 -4.286 5.429 -8 6 C-8 5.34 -8 4.68 -8 4 C-6.713 3.303 -5.421 2.618 -4.125 1.938 C-3.406 1.555 -2.686 1.172 -1.945 0.777 C-1.303 0.521 -0.661 0.264 0 0 Z " fill="#A72A33" transform="translate(200,122)"/>
<path d="M0 0 C0.33 0 0.66 0 1 0 C1.375 2.25 1.375 2.25 1 5 C-2 7.312 -2 7.312 -5 9 C-3.502 5.888 -1.86 2.912 0 0 Z " fill="#320607" transform="translate(362,327)"/>
<path d="M0 0 C0.99 0.33 1.98 0.66 3 1 C4.188 4.062 4.188 4.062 5 7 C4.34 7.66 3.68 8.32 3 9 C2.01 6.03 1.02 3.06 0 0 Z " fill="#AE2C36" transform="translate(163,294)"/>
<path d="M0 0 C0.66 0.33 1.32 0.66 2 1 C1.01 2.485 1.01 2.485 0 4 C-0.66 4 -1.32 4 -2 4 C-2.66 5.32 -3.32 6.64 -4 8 C-4.66 8 -5.32 8 -6 8 C-4.557 4.634 -2.667 2.49 0 0 Z " fill="#280303" transform="translate(225,233)"/>
<path d="M0 0 C3.112 1.498 6.053 3.199 9 5 C8.67 5.66 8.34 6.32 8 7 C6.661 6.217 5.329 5.423 4 4.625 C3.257 4.184 2.515 3.743 1.75 3.289 C1.173 2.864 0.595 2.438 0 2 C0 1.34 0 0.68 0 0 Z " fill="#2B0405" transform="translate(171,362)"/>
<path d="M0 0 C2.686 2.686 3.06 5.376 4 9 C3.34 9 2.68 9 2 9 C0.933 6.696 -0.064 4.36 -1 2 C-0.67 1.34 -0.34 0.68 0 0 Z " fill="#370809" transform="translate(122,299)"/>
<path d="M0 0 C0.33 0.99 0.66 1.98 1 3 C0.004 4.824 0.004 4.824 -1.438 6.688 C-1.911 7.31 -2.384 7.933 -2.871 8.574 C-3.244 9.045 -3.616 9.515 -4 10 C-4.33 9.34 -4.66 8.68 -5 8 C-4.258 6.309 -4.258 6.309 -3.125 4.438 C-2.756 3.817 -2.388 3.197 -2.008 2.559 C-1 1 -1 1 0 0 Z " fill="#B9303A" transform="translate(323,283)"/>
<path d="M0 0 C0.33 0 0.66 0 1 0 C1.66 3.96 2.32 7.92 3 12 C2.01 11.34 1.02 10.68 0 10 C-0.293 7.617 -0.293 7.617 -0.188 4.875 C-0.16 3.965 -0.133 3.055 -0.105 2.117 C-0.071 1.419 -0.036 0.72 0 0 Z " fill="#A52C35" transform="translate(140,274)"/>
<path d="M0 0 C0.99 0.33 1.98 0.66 3 1 C0.472 3.799 -1.204 5.458 -5 6 C-3.865 2.596 -3.032 1.783 0 0 Z " fill="#B22E37" transform="translate(196,184)"/>
<path d="M0 0 C1 3 1 3 0.223 4.824 C-1.389 7.412 -1.389 7.412 -3 10 C-3.33 9.34 -3.66 8.68 -4 8 C-2.984 4.953 -1.792 2.689 0 0 Z " fill="#B9303A" transform="translate(370,311)"/>
<path d="M0 0 C3.375 0.547 5.082 1.055 8 3 C3.446 3.369 3.446 3.369 1.188 1.5 C0.6 0.757 0.6 0.757 0 0 Z M8 3 C9.65 3 11.3 3 13 3 C13 3.33 13 3.66 13 4 C11.35 4 9.7 4 8 4 C8 3.67 8 3.34 8 3 Z " fill="#280304" transform="translate(248,310)"/>
<path d="M0 0 C0.66 0 1.32 0 2 0 C0.814 3.375 -0.276 5.647 -3 8 C-2.453 4.625 -1.945 2.918 0 0 Z " fill="#C1303B" transform="translate(137,173)"/>
<path d="M0 0 C2 1 2 1 2 1 Z M4 0 C5.5 1.375 5.5 1.375 7 3 C7 3.66 7 4.32 7 5 C3.125 3.25 3.125 3.25 2 1 C2.66 0.67 3.32 0.34 4 0 Z " fill="#9E2830" transform="translate(216,365)"/>
<path d="M0 0 C2.5 2.312 2.5 2.312 5 5 C5 5.99 5 6.98 5 8 C2.5 5.688 2.5 5.688 0 3 C0 2.01 0 1.02 0 0 Z " fill="#B52E38" transform="translate(135,322)"/>
<path d="M0 0 C3.366 1.443 5.51 3.333 8 6 C5.028 4.875 2.666 3.777 0 2 C0 1.34 0 0.68 0 0 Z " fill="#300506" transform="translate(240,304)"/>
<path d="M0 0 C0.66 0.33 1.32 0.66 2 1 C0.02 2.32 -1.96 3.64 -4 5 C-4.66 4.34 -5.32 3.68 -6 3 C-4.035 1.932 -2.031 0.934 0 0 Z " fill="#9E2931" transform="translate(212,175)"/>
<path d="M0 0 C2.97 0.495 2.97 0.495 6 1 C4.188 2.562 4.188 2.562 2 4 C1.01 3.67 0.02 3.34 -1 3 C-0.67 2.01 -0.34 1.02 0 0 Z " fill="#300506" transform="translate(188,124)"/>
<path d="M0 0 C2.64 0.33 5.28 0.66 8 1 C8.33 1.99 8.66 2.98 9 4 C6.03 3.01 3.06 2.02 0 1 C0 0.67 0 0.34 0 0 Z " fill="#460C0E" transform="translate(296,121)"/>
<path d="M0 0 C-2.901 1.934 -3.897 2.301 -7.188 2.625 C-8.446 2.749 -9.704 2.873 -11 3 C-7.684 -0.316 -4.508 -1.67 0 0 Z " fill="#A42C35" transform="translate(215,119)"/>
<path d="M0 0 C0.688 1.812 0.688 1.812 1 4 C-0.438 5.75 -0.438 5.75 -2 7 C-2.99 6.67 -3.98 6.34 -5 6 C-4 4 -4 4 -1 3 C-0.67 2.01 -0.34 1.02 0 0 Z " fill="#230303" transform="translate(293,240)"/>
<path d="M0 0 C3.465 1.485 3.465 1.485 7 3 C5.188 3.625 5.188 3.625 3 4 C2.01 3.34 1.02 2.68 0 2 C0 1.34 0 0.68 0 0 Z M7 4 C9 5 9 5 9 5 Z " fill="#440B0D" transform="translate(281,227)"/>
<path d="M0 0 C2.31 0.66 4.62 1.32 7 2 C6.34 2.66 5.68 3.32 5 4 C2.375 3.625 2.375 3.625 0 3 C0 2.01 0 1.02 0 0 Z " fill="#3D0A0B" transform="translate(273,224)"/>
<path d="M0 0 C3.465 1.98 3.465 1.98 7 4 C6.01 4.495 6.01 4.495 5 5 C2.375 4.062 2.375 4.062 0 3 C0 2.01 0 1.02 0 0 Z " fill="#330708" transform="translate(240,322)"/>
<path d="M0 0 C0.688 1.812 0.688 1.812 1 4 C-0.438 5.75 -0.438 5.75 -2 7 C-1.125 1.125 -1.125 1.125 0 0 Z " fill="#C2303B" transform="translate(126,193)"/>
<path d="M0 0 C3.653 1.25 4.781 1.671 7 5 C4.062 4.188 4.062 4.188 1 3 C0.67 2.01 0.34 1.02 0 0 Z " fill="#330607" transform="translate(305,123)"/>
<path d="M0 0 C0 0.99 0 1.98 0 3 C-2.5 4.688 -2.5 4.688 -5 6 C-3.63 2.839 -3.011 2.007 0 0 Z " fill="#C0303B" transform="translate(327,360)"/>
<path d="M0 0 C0.66 0.66 1.32 1.32 2 2 C-0.174 4.5 -1.73 5.436 -5 6 C-5 5.34 -5 4.68 -5 4 C-4.01 3.67 -3.02 3.34 -2 3 C-1.34 2.01 -0.68 1.02 0 0 Z " fill="#2C0506" transform="translate(321,311)"/>
<path d="M0 0 C0 0.99 0 1.98 0 3 C-1.65 3.66 -3.3 4.32 -5 5 C-3.35 3.35 -1.7 1.7 0 0 Z " fill="#A42A32" transform="translate(203,158)"/>
<path d="M0 0 C1.875 0.25 1.875 0.25 4 1 C5.25 3.062 5.25 3.062 6 5 C3.981 3.696 1.981 2.362 0 1 C0 0.67 0 0.34 0 0 Z " fill="#320506" transform="translate(332,140)"/>
<path d="M0 0 C2.97 1.98 2.97 1.98 6 4 C5.01 4.33 4.02 4.66 3 5 C1.5 3.625 1.5 3.625 0 2 C0 1.34 0 0.68 0 0 Z " fill="#BD303A" transform="translate(223,368)"/>
<path d="M0 0 C1.98 0.495 1.98 0.495 4 1 C2.02 1.99 2.02 1.99 0 3 C0 2.01 0 1.02 0 0 Z M-3 2 C-1 3 -1 3 -1 3 Z " fill="#1C0303" transform="translate(203,160)"/>
<path d="M0 0 C0.99 0.33 1.98 0.66 3 1 C0.525 2.485 0.525 2.485 -2 4 C-1.34 2.68 -0.68 1.36 0 0 Z " fill="#36080A" transform="translate(317,368)"/>
<path d="M0 0 C1.32 0.99 2.64 1.98 4 3 C3.67 3.66 3.34 4.32 3 5 C2.01 4.34 1.02 3.68 0 3 C0 2.01 0 1.02 0 0 Z " fill="#BF2F39" transform="translate(176,319)"/>
<path d="M0 0 C2.139 2.139 2.427 3.133 3 6 C2.34 6 1.68 6 1 6 C-0.062 4.125 -0.062 4.125 -1 2 C-0.67 1.34 -0.34 0.68 0 0 Z " fill="#320607" transform="translate(126,308)"/>
<path d="M0 0 C0.33 0.99 0.66 1.98 1 3 C0.01 3.33 -0.98 3.66 -2 4 C-1.34 2.68 -0.68 1.36 0 0 Z " fill="#BD2F39" transform="translate(157,197)"/>
<path d="M0 0 C1.98 0.99 1.98 0.99 4 2 C4 2.66 4 3.32 4 4 C2.68 3.67 1.36 3.34 0 3 C0 2.01 0 1.02 0 0 Z " fill="#440C0E" transform="translate(284,176)"/>
<path d="M0 0 C-0.33 0.99 -0.66 1.98 -1 3 C-2.32 2.67 -3.64 2.34 -5 2 C-2 0 -2 0 0 0 Z " fill="#AE2D37" transform="translate(309,322)"/>
<path d="M0 0 C1.98 0.99 1.98 0.99 4 2 C4 2.66 4 3.32 4 4 C2.68 3.34 1.36 2.68 0 2 C0 1.34 0 0.68 0 0 Z " fill="#290405" transform="translate(236,320)"/>
<path d="M0 0 C0.66 0.33 1.32 0.66 2 1 C1.01 2.485 1.01 2.485 0 4 C-0.66 4 -1.32 4 -2 4 C-1.34 2.68 -0.68 1.36 0 0 Z " fill="#210303" transform="translate(333,299)"/>
<path d="M0 0 C0.66 0 1.32 0 2 0 C1.67 1.65 1.34 3.3 1 5 C0.34 3.68 -0.32 2.36 -1 1 C-0.67 0.67 -0.34 0.34 0 0 Z " fill="#9D262E" transform="translate(144,222)"/>
<path d="M0 0 C0.66 0 1.32 0 2 0 C1.67 0.99 1.34 1.98 1 3 C0.01 2.67 -0.98 2.34 -2 2 C-1.34 1.34 -0.68 0.68 0 0 Z " fill="#98252D" transform="translate(317,316)"/>
<path d="M0 0 C0.66 0.33 1.32 0.66 2 1 C1.34 2.32 0.68 3.64 0 5 C-0.33 4.01 -0.66 3.02 -1 2 C-0.67 1.34 -0.34 0.68 0 0 Z " fill="#A52931" transform="translate(376,297)"/>
<path d="M0 0 C1.98 0.99 1.98 0.99 4 2 C3.34 2.66 2.68 3.32 2 4 C1.34 2.68 0.68 1.36 0 0 Z " fill="#460C0E" transform="translate(320,207)"/>
<path d="M0 0 C0.66 0.33 1.32 0.66 2 1 C1.01 1.99 0.02 2.98 -1 4 C-1 1 -1 1 0 0 Z " fill="#460C0E" transform="translate(134,175)"/>
<path d="M0 0 C0.99 0.33 1.98 0.66 3 1 C3 1.66 3 2.32 3 3 C2.01 2.67 1.02 2.34 0 2 C0 1.34 0 0.68 0 0 Z " fill="#A62831" transform="translate(151,313)"/>
<path d="M0 0 C0.99 0.33 1.98 0.66 3 1 C2.01 2.485 2.01 2.485 1 4 C0.67 2.68 0.34 1.36 0 0 Z " fill="#9F2830" transform="translate(165,299)"/>
<path d="M0 0 C0.66 0 1.32 0 2 0 C1.34 1.32 0.68 2.64 0 4 C-0.33 3.01 -0.66 2.02 -1 1 C-0.67 0.67 -0.34 0.34 0 0 Z " fill="#9F2830" transform="translate(212,249)"/>
<path d="M0 0 C0.66 0.66 1.32 1.32 2 2 C1.01 2.33 0.02 2.66 -1 3 C-0.67 2.01 -0.34 1.02 0 0 Z " fill="#330708" transform="translate(220,238)"/>
<path d="M0 0 C0.33 0.99 0.66 1.98 1 3 C0.01 3 -0.98 3 -2 3 C-1.34 2.01 -0.68 1.02 0 0 Z " fill="#420B0D" transform="translate(167,215)"/>
<path d="M0 0 C0.99 0.33 1.98 0.66 3 1 C2.34 1.66 1.68 2.32 1 3 C0.67 2.01 0.34 1.02 0 0 Z " fill="#490D0F" transform="translate(237,379)"/>
<path d="M0 0 C0.99 0.33 1.98 0.66 3 1 C2.34 1.66 1.68 2.32 1 3 C0.67 2.01 0.34 1.02 0 0 Z " fill="#370809" transform="translate(163,356)"/>
</svg>