
<!-- Generator: visioncortex VTracer 0.6.4 -->
<svg version="1.1" xmlns="http://www.w3.org/2000/svg" viewBox="0 0 225 152" preserveAspectRatio="xMidYMid meet">
<path d="M0 0 C13.9 10.307 23.001 24.532 26.492 41.488 C29.24 60.489 24.379 78.276 12.996 93.719 C11.401 95.61 9.889 97.402 8 99 C7.34 99 6.68 99 6 99 C6 99.66 6 100.32 6 101 C3.926 102.568 1.878 103.985 -0.312 105.375 C-0.949 105.78 -1.585 106.185 -2.241 106.602 C-7.595 109.915 -12.915 112.321 -19 114 C-19.784 114.223 -20.567 114.446 -21.375 114.676 C-38.403 118.793 -55.567 115.188 -70.75 107.027 C-84.098 98.701 -93.639 85.63 -98.188 70.594 C-99.463 64.569 -99.502 58.449 -99.562 52.312 C-99.577 51.184 -99.592 50.056 -99.608 48.894 C-99.425 34.12 -93.289 18.816 -83 8 C-82.34 8 -81.68 8 -81 8 C-81 7.34 -81 6.68 -81 6 C-79.116 4.453 -77.256 3.061 -75.25 1.688 C-74.369 1.083 -74.369 1.083 -73.469 0.466 C-67.948 -3.21 -62.273 -5.833 -56 -8 C-54.697 -8.478 -54.697 -8.478 -53.367 -8.965 C-35.3 -14.816 -15.712 -9.866 0 0 Z M-77 14 C-85.533 24.535 -89.946 34.647 -92 48 C-88.37 48 -84.74 48 -81 48 C-80.629 46.742 -80.257 45.484 -79.875 44.188 C-76.017 32.739 -69.928 23.27 -59.34 17.133 C-48.17 11.725 -35.869 9.917 -23.75 13.125 C-11.021 17.657 -2.447 24.2 3.777 36.199 C5.483 40.106 6.311 43.799 7 48 C10.63 48 14.26 48 18 48 C19.13 35.568 12.198 25.027 5.102 15.434 C-2.977 6.078 -16.044 -1.083 -28.401 -2.221 C-47.801 -3.106 -62.274 0.802 -77 14 Z M-52 23 C-52 31.25 -52 39.5 -52 48 C-42.1 48 -32.2 48 -22 48 C-22 39.75 -22 31.5 -22 23 C-29.631 20.267 -29.631 20.267 -37 19.625 C-38.392 19.613 -38.392 19.613 -39.812 19.602 C-44.061 20.027 -44.061 20.027 -52 23 Z M-13 28 C-13 34.93 -13 41.86 -13 49 C-9.37 49 -5.74 49 -2 49 C-2.36 42.402 -4.021 37.346 -8 32 C-9.65 30.68 -11.3 29.36 -13 28 Z M-62 29 C-67.502 34.841 -70.142 40.241 -72 48 C-68.37 48 -64.74 48 -61 48 C-61 41.73 -61 35.46 -61 29 C-61.33 29 -61.66 29 -62 29 Z M-92 57 C-90.339 67.671 -90.339 67.671 -86.438 77.125 C-85.912 78.139 -85.912 78.139 -85.377 79.173 C-78.351 92.199 -67.055 101.354 -53 106 C-49.04 106.66 -45.08 107.32 -41 108 C-41 91.17 -41 74.34 -41 57 C-57.83 57 -74.66 57 -92 57 Z M-32 57 C-32 73.83 -32 90.66 -32 108 C-21.329 106.34 -21.329 106.34 -11.875 102.438 C-11.198 102.085 -10.52 101.732 -9.822 101.368 C4.251 93.742 12.474 81.947 17.406 66.852 C18.238 63.343 18.238 63.343 18 57 C1.5 57 -15 57 -32 57 Z " fill="#FBFCFB" transform="translate(145,23)"/>
</svg>