
<!-- Generator: visioncortex VTracer 0.6.4 -->
<svg version="1.1" xmlns="http://www.w3.org/2000/svg" viewBox="0 0 512 512" preserveAspectRatio="xMidYMid meet">
<path d="M0 0 C9.496 0.179 16.599 5.389 23.188 11.938 C24.136 12.948 25.078 13.965 26 15 C26.594 14.783 27.189 14.567 27.801 14.344 C38.568 10.727 47.721 10.947 58 16 C64.691 20.081 70.091 25.748 75.285 31.555 C78.386 34.348 80.794 35.276 84.75 36.562 C125.31 50.736 163.587 78.021 190 112 C190.788 112.982 191.575 113.965 192.387 114.977 C209.739 136.782 223.161 161.58 232 188 C232.279 188.833 232.558 189.667 232.846 190.525 C235.841 199.629 238.328 208.798 240.25 218.188 C240.401 218.922 240.552 219.656 240.708 220.412 C243.658 235.792 244.375 251.002 244.312 266.625 C244.31 267.596 244.308 268.566 244.306 269.566 C244.255 283.894 243.908 297.922 241 312 C240.801 312.983 240.603 313.966 240.398 314.979 C231.304 358.706 211.513 399.235 181 432 C179.829 433.35 178.662 434.704 177.5 436.062 C170.829 443.682 163.616 450.446 155.652 456.699 C154.487 457.616 153.328 458.54 152.172 459.469 C108.566 494.492 55.033 512.53 -0.688 512.312 C-1.659 512.311 -2.63 512.309 -3.63 512.307 C-17.633 512.263 -31.249 511.849 -45 509 C-45.849 508.839 -46.698 508.678 -47.573 508.512 C-78.935 502.532 -110.894 490.726 -137 472 C-138.181 471.181 -139.364 470.363 -140.547 469.547 C-152.878 460.968 -164.101 451.313 -175 441 C-175.681 440.362 -176.361 439.724 -177.062 439.066 C-181.306 434.97 -184.993 430.471 -188.684 425.875 C-190.175 424.024 -191.687 422.189 -193.223 420.375 C-203.929 407.686 -212.307 393.668 -220 379 C-220.38 378.285 -220.76 377.569 -221.152 376.832 C-238.887 343.039 -246.464 305.291 -246.312 267.375 C-246.31 266.404 -246.308 265.434 -246.306 264.434 C-246.255 250.106 -245.908 236.078 -243 222 C-242.801 221.017 -242.603 220.034 -242.398 219.021 C-230.891 163.694 -200.988 110.969 -156 76 C-155.018 75.212 -154.035 74.425 -153.023 73.613 C-128.456 54.063 -99.993 39.238 -69.688 30.938 C-64.142 29.333 -60.331 26.556 -55.816 23.027 C-46.103 16.035 -33.889 11.944 -22 11 C-21.008 10.921 -21.008 10.921 -19.996 10.84 C-11.886 10.496 -3.662 12.446 4 15 C3.567 13.753 3.567 13.753 3.125 12.48 C2.754 11.394 2.382 10.307 2 9.188 C1.629 8.109 1.257 7.03 0.875 5.918 C0 3 0 3 0 0 Z " fill="#64BFF3" transform="translate(257,0)"/>
<path d="M0 0 C-1.47 4.166 -3.132 7.617 -6 11 C-8.051 11.625 -8.051 11.625 -10.375 12.125 C-13.814 13.05 -14.809 13.725 -16.883 16.707 C-24.139 31.203 -23.403 45.87 -18.742 61.148 C-14.306 74.223 -7.267 85.826 2 96 C2.571 96.7 3.142 97.4 3.73 98.121 C14.398 111.12 29.498 120.312 44.235 128.052 C45.673 128.824 47.075 129.663 48.465 130.52 C50.93 131.783 52.216 132.173 55 132 C59.965 130.148 64.476 127.779 69.055 125.125 C70.789 124.122 72.549 123.165 74.312 122.215 C81.558 118.224 87.767 113.414 94 108 C94.833 107.313 95.665 106.626 96.523 105.918 C110.987 93.622 120.759 77.798 127 60 C127.273 59.232 127.546 58.463 127.827 57.672 C129.847 51.553 130.51 45.99 130.438 39.562 C130.432 38.647 130.427 37.731 130.421 36.787 C130.232 28.389 128.829 20.415 123 14 C120.943 13.212 120.943 13.212 118.688 12.812 C113.485 11.316 111.665 8.398 108.996 3.863 C108.667 3.248 108.339 2.634 108 2 C112.22 -2.972 118.946 -3.637 125.161 -4.193 C134.325 -4.735 142.894 -4.836 151 0 C151.984 0.584 151.984 0.584 152.988 1.18 C156.874 3.811 159.819 6.891 162.866 10.453 C167.85 16.25 171.847 19.34 179.215 21.945 C186.969 24.882 193.245 31.348 198 38 C199 41.562 199 41.562 199 44 C199.594 44.167 200.189 44.335 200.801 44.507 C222.785 50.875 241.405 58.676 252.948 79.305 C258.905 90.21 264.26 101.413 269.457 112.695 C270.464 114.851 271.543 116.975 272.699 119.055 C274.213 122.483 274.518 124.288 274 128 C272.897 130.843 271.485 133.465 270 136.125 C269.589 136.877 269.178 137.629 268.755 138.404 C259.811 154.554 248.568 169.504 236 183 C234.829 184.35 233.662 185.704 232.5 187.062 C225.829 194.682 218.616 201.446 210.652 207.699 C209.487 208.616 208.328 209.54 207.172 210.469 C163.566 245.492 110.033 263.53 54.312 263.312 C53.341 263.311 52.37 263.309 51.37 263.307 C37.367 263.263 23.751 262.849 10 260 C9.151 259.839 8.302 259.678 7.427 259.512 C-23.935 253.532 -55.894 241.726 -82 223 C-83.181 222.181 -84.364 221.363 -85.547 220.547 C-97.878 211.968 -109.101 202.313 -120 192 C-120.681 191.362 -121.361 190.724 -122.062 190.066 C-126.306 185.97 -129.993 181.471 -133.684 176.875 C-135.175 175.024 -136.687 173.189 -138.223 171.375 C-148.839 158.792 -157.667 144.736 -165 130 C-165.409 129.196 -165.818 128.391 -166.239 127.562 C-167.209 124.295 -166.665 123.148 -165.211 120.105 C-164.77 119.161 -164.329 118.217 -163.874 117.245 C-163.379 116.236 -162.885 115.227 -162.375 114.188 C-161.875 113.137 -161.375 112.087 -160.86 111.005 C-159.259 107.661 -157.631 104.33 -156 101 C-154.945 98.811 -153.891 96.622 -152.836 94.434 C-151.81 92.33 -150.781 90.227 -149.75 88.125 C-149.28 87.158 -148.81 86.192 -148.326 85.196 C-136.833 62.164 -121.166 54.559 -98.105 45.469 C-97.385 45.185 -96.665 44.9 -95.923 44.607 C-94 44 -94 44 -91 44 C-90.888 43.267 -90.776 42.533 -90.66 41.777 C-88.745 33.722 -82.744 28.285 -76 24 C-75.411 23.621 -74.822 23.242 -74.215 22.852 C-71.213 21.032 -68.595 19.894 -65.188 19 C-60.333 17.32 -57.99 13.567 -54.925 9.627 C-40.515 -8.413 -19.944 -6.94 0 0 Z " fill="#404051" transform="translate(202,249)"/>
<path d="M0 0 C1.98 0.495 1.98 0.495 4 1 C4.147 1.944 4.294 2.887 4.445 3.859 C7.311 20.263 14.107 31.3 26.812 42.188 C34.369 48.809 35.939 55.117 37 65 C37.302 71.245 37.191 77.5 37.125 83.75 C37.115 85.43 37.106 87.109 37.098 88.789 C37.076 92.86 37.041 96.93 37 101 C37.66 101 38.32 101 39 101 C41.723 91.246 44.153 81.425 46.57 71.592 C46.869 70.385 47.168 69.177 47.477 67.934 C47.745 66.841 48.014 65.748 48.292 64.623 C49 62 49 62 50 60 C53.015 60.896 54.718 61.679 56.812 64.062 C59.633 71.039 57.845 77.701 55.188 84.438 C54.628 85.92 54.071 87.403 53.516 88.887 C53.249 89.592 52.983 90.298 52.709 91.025 C51.798 93.563 51.111 96.14 50.438 98.75 C49.177 102.987 47.728 105.406 44 108 C41.75 108.633 41.75 108.633 39.32 109.125 C38.511 109.293 37.702 109.46 36.868 109.633 C36.251 109.754 35.635 109.875 35 110 C34.648 111.258 34.296 112.516 33.934 113.812 C30.094 127.246 26.058 140.371 18 151.938 C15.199 156.23 15.199 156.23 14.562 161.188 C15.562 165.799 17.641 170.113 19.625 174.375 C20.102 175.429 20.102 175.429 20.588 176.505 C22.409 180.132 23.814 182.272 27.609 183.91 C28.728 184.27 29.847 184.629 31 185 C36.201 187.105 37.675 190.682 39.984 195.527 C45.267 208.389 42.677 224.315 37.766 236.848 C37.185 238.235 36.597 239.619 36 241 C35.727 241.641 35.455 242.281 35.174 242.941 C24.095 268.346 2.816 286.98 -21.092 299.962 C-22.809 300.896 -24.507 301.864 -26.203 302.836 C-30.321 305.01 -33.555 306.635 -38.188 305.375 C-39.822 304.648 -41.422 303.843 -43 303 C-43.568 302.708 -44.137 302.415 -44.723 302.114 C-73.053 287.447 -98.207 265.334 -108.664 234.301 C-112.956 220.274 -114.782 205.541 -108 192 C-107.443 190.845 -106.886 189.69 -106.312 188.5 C-103.801 185.785 -103.054 185.622 -99.625 184.812 C-96.484 183.936 -95.257 183.329 -93.223 180.727 C-91.65 177.869 -90.293 174.994 -89 172 C-88.575 171.098 -88.149 170.195 -87.711 169.266 C-85.503 164.309 -84.565 161.402 -86 156 C-87.596 152.871 -87.596 152.871 -89.625 149.688 C-96.299 138.515 -105 122.239 -105 109 C-106.031 109.082 -107.062 109.165 -108.125 109.25 C-112.749 108.952 -114.55 108.058 -118 105 C-119.347 102.565 -120.172 100.616 -121 98 C-121.317 97.001 -121.634 96.002 -121.961 94.973 C-122.659 92.723 -123.344 90.469 -124.016 88.211 C-124.843 85.513 -125.767 82.893 -126.75 80.25 C-128.391 75.308 -129.412 69.971 -127.098 65.102 C-126 63.438 -126 63.438 -124 61 C-115.019 72.219 -109.121 86.712 -108 101 C-107.34 101 -106.68 101 -106 101 C-105.95 99.805 -105.9 98.61 -105.848 97.379 C-105.659 92.911 -105.459 88.444 -105.255 83.977 C-105.169 82.05 -105.086 80.123 -105.005 78.196 C-104.889 75.413 -104.762 72.63 -104.633 69.848 C-104.583 68.572 -104.583 68.572 -104.532 67.271 C-103.877 53.805 -99.848 45.157 -90.102 35.73 C-86.957 33.141 -83.736 31.601 -80 30 C-79.403 32.763 -79 35.16 -79 38 C-52.676 34.574 -19.998 25.849 -2.875 4 C-1.904 2.676 -0.941 1.346 0 0 Z " fill="#FEA97B" transform="translate(291,76)"/>
<path d="M0 0 C21.55 4.3 44.348 17.225 62 30 C62.604 30.435 63.208 30.871 63.83 31.319 C82.51 44.857 99.795 59.725 114 78 C114.788 78.982 115.575 79.965 116.387 80.977 C133.739 102.782 147.161 127.58 156 154 C156.279 154.833 156.558 155.667 156.846 156.525 C159.841 165.629 162.328 174.798 164.25 184.188 C164.401 184.922 164.552 185.656 164.708 186.412 C167.658 201.792 168.375 217.002 168.312 232.625 C168.309 234.081 168.309 234.081 168.306 235.566 C168.255 249.894 167.908 263.922 165 278 C164.801 278.983 164.603 279.966 164.398 280.979 C160.064 301.818 153.614 321.983 144 341 C143.746 340.49 143.492 339.979 143.23 339.453 C142.262 337.522 141.283 335.596 140.301 333.672 C137.194 327.556 134.141 321.457 131.497 315.124 C123.089 295.009 113.372 277.248 92.449 268.519 C88.159 266.913 83.861 265.335 79.53 263.843 C68.918 260.157 68.918 260.157 66.631 257.273 C65.898 255.469 65.898 255.469 65 252 C59.766 244.236 53.544 240.23 45.234 236.473 C39.143 233.699 35.552 230.618 31.25 225.625 C26.706 220.53 22.47 216.524 16 214 C14.654 213.459 14.654 213.459 13.281 212.906 C9.229 211.787 5.558 211.659 1.375 211.688 C0.585 211.69 -0.204 211.692 -1.018 211.694 C-8.769 211.825 -15.677 213.559 -23 216 C-29.046 205.274 -29.046 205.274 -28 199 C-26.636 196.404 -25.11 193.997 -23.469 191.569 C-16.158 180.522 -11.999 167.198 -8.691 154.457 C-8 152 -8 152 -7 151 C-5.567 150.706 -4.128 150.44 -2.688 150.188 C1.39 149.276 3.635 148.639 6 145 C6.82 142.751 7.46 140.494 8.074 138.18 C8.801 135.683 9.604 133.311 10.52 130.883 C10.793 130.151 11.066 129.419 11.348 128.665 C11.894 127.216 12.451 125.77 13.019 124.329 C15.255 118.31 16.379 112.172 13.75 106.125 C11.999 103.999 10.22 102.606 8 101 C11.401 93.164 15.455 86.828 20.805 80.239 C29.149 70.979 29.149 70.979 33 60 C32.092 59.567 31.185 59.134 30.25 58.688 C25.087 56.007 25.087 56.007 23 54 C23 52.68 23 51.36 23 50 C23.855 49.602 24.709 49.203 25.59 48.793 C26.695 48.263 27.799 47.733 28.938 47.188 C30.04 46.665 31.142 46.143 32.277 45.605 C35.287 44.232 35.287 44.232 36 41 C35.383 40.599 34.765 40.198 34.129 39.785 C25.636 34.084 18.409 27.766 13 19 C10.439 15.454 7.781 11.982 5.059 8.559 C4.421 7.756 3.782 6.952 3.125 6.125 C2.529 5.385 1.934 4.645 1.32 3.883 C0 2 0 2 0 0 Z " fill="#64BFF3" transform="translate(333,34)"/>
<path d="M0 0 C-1.47 4.166 -3.132 7.617 -6 11 C-8.051 11.625 -8.051 11.625 -10.375 12.125 C-13.814 13.05 -14.809 13.725 -16.883 16.707 C-20.607 24.146 -22.176 29.776 -22.125 38.062 C-22.123 38.815 -22.121 39.567 -22.119 40.342 C-22.074 46.265 -21.712 52.117 -21 58 C-22.011 57.918 -23.021 57.835 -24.062 57.75 C-28.61 58.039 -31.553 59.112 -35 62 C-36.871 64.188 -38.573 66.426 -40.227 68.781 C-43.967 73.461 -47.887 75.543 -53.5 77.438 C-59.662 79.707 -62.78 81.512 -66.312 87.062 C-67.223 89.286 -67.223 89.286 -67 93 C-63.722 96.435 -59.807 99.173 -56 102 C-54.978 102.761 -53.956 103.521 -52.902 104.305 C-44.839 110.08 -36.897 114.255 -28 119 C-28 146.39 -28 173.78 -28 202 C-33.28 202.33 -38.56 202.66 -44 203 C-48.814 206.278 -48.814 206.278 -50 209 C-50.155 211.323 -50.25 213.65 -50.316 215.977 C-50.348 217.004 -50.348 217.004 -50.379 218.053 C-50.445 220.244 -50.504 222.434 -50.562 224.625 C-50.606 226.109 -50.649 227.594 -50.693 229.078 C-50.8 232.719 -50.902 236.359 -51 240 C-61.961 235.13 -72.14 229.833 -82 223 C-82.589 222.595 -83.178 222.19 -83.785 221.772 C-96.745 212.823 -108.569 202.816 -120 192 C-120.681 191.362 -121.361 190.724 -122.062 190.066 C-126.306 185.97 -129.993 181.471 -133.684 176.875 C-135.175 175.024 -136.687 173.189 -138.223 171.375 C-148.839 158.792 -157.667 144.736 -165 130 C-165.409 129.196 -165.818 128.391 -166.239 127.562 C-167.209 124.295 -166.665 123.148 -165.211 120.105 C-164.77 119.161 -164.329 118.217 -163.874 117.245 C-163.379 116.236 -162.885 115.227 -162.375 114.188 C-161.875 113.137 -161.375 112.087 -160.86 111.005 C-159.259 107.661 -157.631 104.33 -156 101 C-154.945 98.811 -153.891 96.622 -152.836 94.434 C-151.81 92.33 -150.781 90.227 -149.75 88.125 C-149.28 87.158 -148.81 86.192 -148.326 85.196 C-136.833 62.164 -121.166 54.559 -98.105 45.469 C-97.385 45.185 -96.665 44.9 -95.923 44.607 C-94 44 -94 44 -91 44 C-90.888 43.267 -90.776 42.533 -90.66 41.777 C-88.745 33.722 -82.744 28.285 -76 24 C-75.411 23.621 -74.822 23.242 -74.215 22.852 C-71.213 21.032 -68.595 19.894 -65.188 19 C-60.333 17.32 -57.99 13.567 -54.925 9.627 C-40.515 -8.413 -19.944 -6.94 0 0 Z " fill="#2C2C42" transform="translate(202,249)"/>
<path d="M0 0 C9.496 0.179 16.599 5.389 23.188 11.938 C24.136 12.948 25.078 13.965 26 15 C26.594 14.783 27.189 14.567 27.801 14.344 C38.568 10.727 47.721 10.947 58 16 C60.903 17.77 63.453 19.752 66 22 C66.594 22.513 67.189 23.026 67.801 23.555 C72.196 27.628 75.249 32.228 78.324 37.352 C80.049 40.078 81.951 42.511 84 45 C85.128 46.435 86.253 47.872 87.375 49.312 C88.284 50.478 88.284 50.478 89.211 51.668 C90.844 53.796 92.424 55.955 94 58.125 C99.365 65.26 105.424 70.31 113 75 C111.568 78.624 109.973 79.936 106.562 81.75 C105.78 82.178 104.998 82.606 104.191 83.047 C102 84 102 84 99 84 C99.048 85.879 99.048 85.879 100 88 C103.158 90.386 106.407 92.342 110 94 C109.097 98.321 106.888 101.521 104.438 105.125 C103.989 105.794 103.54 106.464 103.077 107.154 C100.47 110.994 97.739 114.632 94.75 118.188 C86.364 128.487 83.309 140.177 80.312 152.812 C79.747 155.158 79.177 157.502 78.6 159.844 C78.246 161.287 77.898 162.732 77.558 164.178 C76.455 168.721 74.933 172.766 73 177 C72.34 177 71.68 177 71 177 C70.98 175.972 70.96 174.945 70.94 173.886 C70.863 170.016 70.774 166.147 70.683 162.278 C70.645 160.614 70.61 158.95 70.578 157.286 C70.783 136.17 70.783 136.17 60.545 118.594 C58.306 116.52 56.037 114.48 53.761 112.446 C42.994 102.712 38.852 91.18 37 77 C36.01 77 35.02 77 34 77 C32.588 78.534 32.588 78.534 31.312 80.562 C17.261 100.015 -10.808 108.511 -33.188 113.375 C-34.002 113.555 -34.816 113.735 -35.655 113.92 C-36.422 114.078 -37.19 114.236 -37.98 114.398 C-38.66 114.539 -39.34 114.68 -40.04 114.826 C-42.248 115.022 -43.893 114.648 -46 114 C-46 111.69 -46 109.38 -46 107 C-55.907 111.143 -62.506 117.871 -67.125 127.543 C-69.14 133.2 -69.242 139.107 -69.5 145.047 C-69.583 146.796 -69.667 148.544 -69.75 150.293 C-69.876 153.034 -70.001 155.775 -70.125 158.516 C-70.246 161.172 -70.373 163.828 -70.5 166.484 C-70.535 167.308 -70.571 168.132 -70.607 168.981 C-70.887 174.774 -70.887 174.774 -72 177 C-72.66 177 -73.32 177 -74 177 C-74.202 176.179 -74.202 176.179 -74.408 175.342 C-76.874 165.54 -79.439 156.211 -84.438 147.375 C-92.113 133.7 -96.402 119.134 -100.5 104.062 C-100.684 103.394 -100.868 102.726 -101.058 102.037 C-101.581 100.123 -102.088 98.204 -102.594 96.285 C-103.038 94.613 -103.038 94.613 -103.49 92.906 C-103.986 90.078 -104.16 88.602 -103 86 C-99.937 83.75 -99.937 83.75 -97 82 C-98.109 78.672 -98.501 78.439 -101.312 76.688 C-104.849 74.264 -106.992 71.856 -109 68 C-109.098 65.312 -109.098 65.312 -109 63 C-108.322 62.853 -107.644 62.706 -106.945 62.555 C-89.008 58.232 -75.395 44.268 -64.625 29.812 C-54.27 18.718 -36.945 12.186 -22 11 C-21.008 10.921 -21.008 10.921 -19.996 10.84 C-11.886 10.496 -3.662 12.446 4 15 C3.711 14.169 3.423 13.337 3.125 12.48 C2.754 11.394 2.382 10.307 2 9.188 C1.629 8.109 1.257 7.03 0.875 5.918 C0 3 0 3 0 0 Z " fill="#404051" transform="translate(257,0)"/>
<path d="M0 0 C21.533 6.06 41.231 13.474 52.938 33.5 C59.341 44.944 64.973 56.79 70.457 68.695 C71.464 70.851 72.543 72.975 73.699 75.055 C75.213 78.483 75.518 80.288 75 84 C73.897 86.843 72.485 89.465 71 92.125 C70.589 92.877 70.178 93.629 69.755 94.404 C60.811 110.554 49.568 125.504 37 139 C35.829 140.35 34.662 141.704 33.5 143.062 C26.829 150.682 19.616 157.446 11.652 163.699 C10.487 164.616 9.328 165.54 8.172 166.469 C-27.351 195 -27.351 195 -39 195 C-39.015 194.183 -39.029 193.366 -39.044 192.525 C-39.119 188.808 -39.215 185.092 -39.312 181.375 C-39.335 180.09 -39.358 178.805 -39.381 177.48 C-39.434 175.615 -39.434 175.615 -39.488 173.711 C-39.514 172.569 -39.541 171.428 -39.568 170.251 C-40.063 166.528 -40.935 164.138 -43 161 C-49.431 158.129 -49.431 158.129 -63 158 C-63 130.61 -63 103.22 -63 75 C-58.05 72.36 -53.1 69.72 -48 67 C-28.823 55.138 -7.961 37.77 -1.453 15.199 C-0.417 10.172 0 5.126 0 0 Z " fill="#2C2C42" transform="translate(401,293)"/>
<path d="M0 0 C1.32 0.33 2.64 0.66 4 1 C4.147 1.944 4.294 2.887 4.445 3.859 C7.311 20.263 14.107 31.3 26.812 42.188 C34.369 48.809 35.939 55.117 37 65 C37.302 71.245 37.191 77.5 37.125 83.75 C37.115 85.43 37.106 87.109 37.098 88.789 C37.076 92.86 37.041 96.93 37 101 C37.66 101 38.32 101 39 101 C41.723 91.246 44.153 81.425 46.57 71.592 C46.869 70.385 47.168 69.177 47.477 67.934 C47.745 66.841 48.014 65.748 48.292 64.623 C49 62 49 62 50 60 C53.015 60.896 54.718 61.679 56.812 64.062 C59.633 71.039 57.845 77.701 55.188 84.438 C54.628 85.92 54.071 87.403 53.516 88.887 C53.116 89.945 53.116 89.945 52.709 91.025 C51.798 93.563 51.111 96.14 50.438 98.75 C49.177 102.987 47.728 105.406 44 108 C41.75 108.633 41.75 108.633 39.32 109.125 C38.511 109.293 37.702 109.46 36.868 109.633 C36.251 109.754 35.635 109.875 35 110 C34.648 111.258 34.296 112.516 33.934 113.812 C29.759 128.419 25.095 142.186 16.383 154.766 C15.049 156.921 14.573 158.568 14 161 C12.881 162.186 11.749 163.363 10.555 164.473 C8.745 166.251 7.184 168.173 5.562 170.125 C1.986 174.179 -1.907 177.582 -6.125 180.938 C-6.711 181.41 -7.297 181.883 -7.9 182.37 C-11.453 185.128 -14.585 186.826 -19 188 C-45.691 164.504 -51.677 123.213 -54.75 89.75 C-54.815 89.04 -54.881 88.331 -54.948 87.599 C-56.316 72.424 -56.432 59.012 -51.645 44.391 C-50.794 41.235 -50.637 38.169 -50.602 34.91 C-50 33 -50 33 -47.898 31.418 C-44.654 29.831 -41.379 28.524 -38 27.25 C-22.65 21.256 -9.579 13.702 0 0 Z " fill="#FEBA98" transform="translate(291,76)"/>
<path d="M0 0 C0.762 -0.017 1.524 -0.034 2.309 -0.051 C4.562 0.312 4.562 0.312 6.362 1.811 C9.116 3.69 10.714 3.69 14.028 3.693 C15.138 3.702 16.249 3.71 17.393 3.719 C18.606 3.713 19.82 3.707 21.07 3.701 C22.352 3.706 23.634 3.711 24.954 3.717 C28.466 3.73 31.979 3.725 35.491 3.715 C39.167 3.708 42.844 3.715 46.52 3.72 C52.694 3.725 58.867 3.718 65.041 3.704 C72.178 3.687 79.315 3.693 86.451 3.709 C92.58 3.723 98.708 3.725 104.836 3.717 C108.496 3.712 112.156 3.711 115.816 3.721 C119.896 3.732 123.975 3.717 128.055 3.701 C129.268 3.707 130.482 3.713 131.732 3.719 C132.843 3.711 133.953 3.702 135.097 3.693 C136.062 3.692 137.026 3.691 138.02 3.69 C140.993 3.249 142.285 2.21 144.562 0.312 C146.816 -0.051 146.816 -0.051 149.125 0 C149.889 0.004 150.654 0.008 151.441 0.012 C153.562 0.312 153.562 0.312 156.562 2.312 C156.562 2.973 156.562 3.632 156.562 4.312 C157.576 4.278 158.589 4.243 159.633 4.207 C160.984 4.179 162.336 4.152 163.688 4.125 C164.353 4.1 165.018 4.075 165.703 4.049 C170.44 3.979 173.652 4.609 177.562 7.312 C180.297 11.759 180.924 15.061 180.855 20.242 C180.846 21.531 180.836 22.82 180.826 24.148 C180.801 25.495 180.776 26.841 180.75 28.188 C180.735 29.557 180.721 30.927 180.709 32.297 C180.674 35.636 180.624 38.974 180.562 42.312 C146.627 57.973 112.156 65.77 74.875 65.625 C73.418 65.622 73.418 65.622 71.932 65.619 C57.93 65.575 44.314 65.161 30.562 62.312 C29.713 62.152 28.864 61.991 27.99 61.825 C16.551 59.643 5.498 56.504 -5.562 52.875 C-6.664 52.516 -7.766 52.157 -8.901 51.787 C-16.427 49.236 -23.42 46.034 -30.438 42.312 C-30.562 38.008 -30.652 33.704 -30.712 29.397 C-30.737 27.935 -30.771 26.472 -30.815 25.01 C-30.876 22.899 -30.904 20.791 -30.926 18.68 C-30.952 17.412 -30.978 16.145 -31.005 14.839 C-30.256 10.185 -28.734 8.619 -25.438 5.312 C-22.249 3.718 -18.809 4.211 -15.312 4.25 C-14.558 4.255 -13.804 4.259 -13.027 4.264 C-11.164 4.275 -9.301 4.293 -7.438 4.312 C-7.438 3.652 -7.438 2.993 -7.438 2.312 C-4.352 0.256 -3.525 0.018 0 0 Z " fill="#FACB68" transform="translate(181.4375,446.6875)"/>
<path d="M0 0 C4.697 1.02 9.374 2.041 13.996 3.367 C53.357 14.348 90.379 14.584 129.151 0.551 C131 0 131 0 134 0 C134.023 9.614 134.041 19.228 134.052 28.842 C134.057 33.305 134.064 37.769 134.075 42.233 C134.086 46.538 134.092 50.843 134.095 55.149 C134.097 56.794 134.1 58.439 134.106 60.084 C134.113 62.383 134.114 64.681 134.114 66.98 C134.116 68.29 134.118 69.6 134.12 70.95 C134 74 134 74 133 76 C89.44 76 45.88 76 1 76 C-0.493 73.014 -0.119 70.31 -0.114 66.98 C-0.114 66.258 -0.114 65.536 -0.114 64.792 C-0.113 62.4 -0.105 60.009 -0.098 57.617 C-0.096 55.961 -0.094 54.305 -0.093 52.648 C-0.09 48.285 -0.08 43.922 -0.069 39.559 C-0.058 35.108 -0.054 30.658 -0.049 26.207 C-0.038 17.471 -0.021 8.736 0 0 Z " fill="#2C2C42" transform="translate(189,375)"/>
<path d="M0 0 C-0.516 0.351 -1.031 0.701 -1.562 1.062 C-3.341 3.024 -3.341 3.024 -2.801 6.172 C-1.953 10.225 -0.583 13.579 1.375 17.188 C1.725 17.835 2.075 18.482 2.436 19.148 C11.417 35.001 25.796 45.401 43.133 50.617 C48.956 52.159 54.437 52.463 60.438 52.375 C61.952 52.359 61.952 52.359 63.498 52.342 C81.806 51.951 96.679 44.759 109.887 32.207 C117.506 24.177 123.072 13.616 126 3 C125.34 3 124.68 3 124 3 C123.67 2.01 123.34 1.02 123 0 C129.254 0.361 129.254 0.361 132.188 2.875 C139.244 15.042 140.399 29.235 136.895 42.867 C135.547 47.366 133.862 51.692 132 56 C131.727 56.641 131.455 57.281 131.174 57.941 C120.095 83.346 98.816 101.98 74.908 114.962 C73.191 115.896 71.493 116.864 69.797 117.836 C65.679 120.01 62.445 121.635 57.812 120.375 C56.178 119.648 54.578 118.843 53 118 C52.432 117.708 51.863 117.415 51.277 117.114 C22.947 102.447 -2.207 80.334 -12.664 49.301 C-16.945 35.31 -18.819 20.498 -12 7 C-11.688 6.363 -11.376 5.726 -11.055 5.07 C-9.364 2.101 -7.994 0.997 -4.875 -0.438 C-2 -1 -2 -1 0 0 Z " fill="#C2D3E5" transform="translate(195,261)"/>
<path d="M0 0 C7.203 -0.305 14.03 1.496 20.996 3.16 C20.996 4.15 20.996 5.14 20.996 6.16 C20.223 6.451 19.449 6.743 18.652 7.043 C9.928 10.477 1.192 14.221 -3.004 23.16 C-3.004 28.648 -1.429 31.944 1.996 36.16 C3.331 37.369 4.687 38.555 6.059 39.723 C12.66 45.378 12.66 45.378 13.25 50.263 C13.495 57.22 11.777 61.941 8.559 68.035 C7.724 69.677 6.892 71.32 6.062 72.965 C5.691 73.676 5.319 74.388 4.936 75.121 C3.084 79.141 2.86 82.696 2.871 87.098 C2.869 88.117 2.866 89.137 2.863 90.188 C2.987 92.962 3.421 95.452 3.996 98.16 C0.665 98.98 -2.669 99.79 -6.004 100.598 C-6.938 100.828 -7.873 101.058 -8.836 101.295 C-14.225 102.595 -19.488 103.594 -25.004 104.16 C-25.671 101.493 -26.337 98.827 -27.004 96.16 C-36.727 102.179 -43.902 108.193 -48.004 119.16 C-49.023 124.166 -49.283 129.119 -49.504 134.207 C-49.587 135.956 -49.671 137.704 -49.754 139.453 C-49.88 142.194 -50.005 144.935 -50.129 147.676 C-50.25 150.333 -50.377 152.989 -50.504 155.645 C-50.539 156.468 -50.575 157.292 -50.611 158.141 C-50.891 163.934 -50.891 163.934 -52.004 166.16 C-52.664 166.16 -53.324 166.16 -54.004 166.16 C-54.206 165.339 -54.206 165.339 -54.412 164.502 C-56.877 154.7 -59.443 145.371 -64.441 136.535 C-72.117 122.86 -76.406 108.294 -80.504 93.223 C-80.688 92.554 -80.872 91.886 -81.062 91.197 C-81.585 89.283 -82.092 87.364 -82.598 85.445 C-83.041 83.773 -83.041 83.773 -83.494 82.067 C-83.99 79.238 -84.164 77.762 -83.004 75.16 C-79.941 72.91 -79.941 72.91 -77.004 71.16 C-78.113 67.832 -78.505 67.599 -81.316 65.848 C-84.853 63.424 -86.996 61.016 -89.004 57.16 C-89.102 54.473 -89.102 54.473 -89.004 52.16 C-88.326 52.013 -87.648 51.866 -86.949 51.715 C-69.012 47.392 -55.399 33.428 -44.629 18.973 C-33.589 7.144 -15.762 1.26 0 0 Z " fill="#2C2C42" transform="translate(237.00390625,10.83984375)"/>
<path d="M0 0 C0.052 0.825 0.103 1.65 0.156 2.5 C1.749 18.718 9.859 30.679 20 43 C21.008 44.327 22.012 45.658 23 47 C22.322 47.401 21.644 47.802 20.945 48.215 C3.768 58.707 -6.016 71.457 -10.831 91.01 C-11.453 93.664 -12.066 96.319 -12.672 98.977 C-13.002 100.397 -13.332 101.818 -13.664 103.238 C-14.525 106.942 -15.378 110.648 -16.228 114.355 C-17.101 118.151 -17.982 121.944 -18.863 125.738 C-20.584 133.157 -22.295 140.578 -24 148 C-31.602 144.278 -36.463 138.473 -41.684 131.91 C-43.17 130.042 -44.681 128.194 -46.223 126.371 C-56.846 113.799 -65.669 99.732 -73 85 C-73.409 84.196 -73.818 83.391 -74.239 82.562 C-75.209 79.295 -74.665 78.148 -73.211 75.105 C-72.77 74.161 -72.329 73.217 -71.874 72.245 C-71.379 71.236 -70.885 70.227 -70.375 69.188 C-69.875 68.137 -69.375 67.087 -68.86 66.005 C-67.259 62.661 -65.631 59.33 -64 56 C-62.945 53.811 -61.891 51.622 -60.836 49.434 C-59.81 47.33 -58.781 45.227 -57.75 43.125 C-57.28 42.158 -56.81 41.192 -56.326 40.196 C-46.031 19.566 -33.096 11.252 -12.25 3 C-11.107 2.546 -11.107 2.546 -9.94 2.082 C-6.387 0.722 -3.85 0 0 0 Z " fill="#212135" transform="translate(110,294)"/>
<path d="M0 0 C0.762 -0.017 1.524 -0.034 2.309 -0.051 C4.562 0.312 4.562 0.312 6.296 1.808 C9.334 3.824 11.445 3.71 15.075 3.745 C16.042 3.76 16.042 3.76 17.028 3.776 C19.149 3.806 21.269 3.815 23.391 3.824 C24.865 3.841 26.339 3.859 27.813 3.879 C31.686 3.926 35.559 3.956 39.432 3.982 C43.387 4.012 47.342 4.058 51.297 4.104 C59.052 4.19 66.807 4.257 74.562 4.312 C72.954 5.385 71.339 6.451 69.695 7.469 C63.796 11.417 60.567 15.461 58.562 22.312 C57.619 29.636 57.77 37.066 57.75 44.438 C57.727 46.464 57.701 48.49 57.674 50.516 C57.611 55.448 57.579 60.38 57.562 65.312 C49.073 64.812 40.746 64.071 32.375 62.562 C30.901 62.299 30.901 62.299 29.397 62.031 C16.328 59.618 3.696 56.175 -8.875 51.875 C-10.045 51.479 -10.045 51.479 -11.239 51.075 C-17.919 48.71 -24.153 45.572 -30.438 42.312 C-30.562 38.008 -30.652 33.704 -30.712 29.397 C-30.737 27.935 -30.771 26.472 -30.815 25.01 C-30.876 22.899 -30.904 20.791 -30.926 18.68 C-30.952 17.412 -30.978 16.145 -31.005 14.839 C-30.256 10.185 -28.734 8.619 -25.438 5.312 C-22.249 3.718 -18.809 4.211 -15.312 4.25 C-14.558 4.255 -13.804 4.259 -13.027 4.264 C-11.164 4.275 -9.301 4.293 -7.438 4.312 C-7.438 3.652 -7.438 2.993 -7.438 2.312 C-4.352 0.256 -3.525 0.018 0 0 Z " fill="#EFAA42" transform="translate(181.4375,446.6875)"/>
<path d="M0 0 C0.33 0 0.66 0 1 0 C2.721 17.783 -7.935 37.571 -18.57 51.07 C-33.726 69.345 -52.462 84.653 -75 93 C-75.66 93 -76.32 93 -77 93 C-78.685 91.121 -80.225 89.253 -81.75 87.25 C-82.197 86.665 -82.643 86.08 -83.104 85.478 C-91.629 74.019 -97.283 60.815 -95.562 46.312 C-95.377 45.549 -95.191 44.786 -95 44 C-94.296 44.072 -93.592 44.144 -92.867 44.219 C-68.349 46.523 -43.355 43.707 -23.433 27.744 C-14.508 20.179 -6.924 12.133 -1.164 1.906 C-0.588 0.963 -0.588 0.963 0 0 Z " fill="#EAEFF1" transform="translate(332,289)"/>
<path d="M0 0 C3.546 3.476 6.847 7.079 10.125 10.812 C20.691 22.48 35.053 32.199 51 34 C49.688 43.089 47.98 51.84 45.062 60.562 C44.822 61.287 44.581 62.011 44.333 62.757 C42.608 67.733 40.432 72.329 38 77 C22.457 76.223 8.839 67.724 -1.715 56.668 C-7.729 49.647 -13.333 40.918 -16 32 C-15.712 28.346 -14.897 26.482 -12.312 23.938 C-6.247 17.26 -2.919 8.432 0 0 Z " fill="#F7996B" transform="translate(207,236)"/>
<path d="M0 0 C-0.516 0.351 -1.031 0.701 -1.562 1.062 C-3.341 3.024 -3.341 3.024 -2.801 6.172 C-1.953 10.225 -0.583 13.579 1.375 17.188 C1.725 17.835 2.075 18.482 2.436 19.148 C10.968 34.207 24.619 44.856 41.141 49.973 C43.752 50.692 46.365 51.373 49 52 C48.724 52.664 48.448 53.328 48.164 54.012 C46.777 57.573 45.569 61.184 44.375 64.812 C44.146 65.505 43.916 66.198 43.68 66.912 C43.118 68.608 42.559 70.304 42 72 C27.498 68.225 14.111 62.222 3 52 C2.171 51.263 1.342 50.525 0.488 49.766 C-6.647 43.078 -16.334 33.186 -16.812 22.812 C-16.017 15.148 -13.094 6.843 -8 1 C-2.792 -1.396 -2.792 -1.396 0 0 Z " fill="#99B7D7" transform="translate(195,261)"/>
<path d="M0 0 C3.375 1.188 3.375 1.188 5.065 3.703 C6.688 8.02 6.776 11.564 6.716 16.13 C6.716 17.009 6.716 17.888 6.717 18.793 C6.715 21.683 6.692 24.572 6.668 27.461 C6.662 29.47 6.658 31.479 6.655 33.489 C6.644 38.766 6.614 44.043 6.581 49.32 C6.55 54.709 6.537 60.099 6.521 65.488 C6.489 76.055 6.438 86.621 6.375 97.188 C5.385 96.858 4.395 96.528 3.375 96.188 C1.877 96.095 0.376 96.057 -1.125 96.062 C-1.898 96.06 -2.672 96.057 -3.469 96.055 C-5.809 96.106 -5.809 96.106 -8.625 97.188 C-8.741 85.279 -8.83 73.37 -8.884 61.461 C-8.91 55.931 -8.946 50.401 -9.002 44.871 C-9.057 39.535 -9.086 34.199 -9.099 28.863 C-9.109 26.826 -9.127 24.79 -9.154 22.754 C-9.19 19.902 -9.195 17.052 -9.193 14.2 C-9.211 13.358 -9.229 12.516 -9.247 11.648 C-9.209 7.358 -8.989 5.669 -6.316 2.136 C-3.625 0.188 -3.625 0.188 0 0 Z " fill="#535461" transform="translate(331.625,351.8125)"/>
<path d="M0 0 C2.875 2.526 3.011 4.118 3.361 7.974 C3.369 9.616 3.362 11.258 3.341 12.899 C3.341 13.797 3.341 14.695 3.342 15.62 C3.34 18.586 3.316 21.55 3.293 24.516 C3.287 26.573 3.283 28.63 3.28 30.686 C3.269 36.099 3.239 41.51 3.206 46.922 C3.175 52.446 3.162 57.969 3.146 63.492 C3.114 74.328 3.063 85.164 3 96 C2.01 95.67 1.02 95.34 0 95 C-1.498 94.908 -2.999 94.87 -4.5 94.875 C-5.273 94.872 -6.047 94.87 -6.844 94.867 C-9.184 94.919 -9.184 94.919 -12 96 C-12.07 84.369 -12.123 72.738 -12.155 61.107 C-12.171 55.706 -12.192 50.306 -12.226 44.905 C-12.259 39.692 -12.277 34.479 -12.285 29.266 C-12.29 27.278 -12.301 25.29 -12.317 23.302 C-12.339 20.515 -12.342 17.729 -12.341 14.943 C-12.351 14.123 -12.362 13.303 -12.373 12.458 C-12.347 7.578 -11.709 4.228 -9 0 C-5.817 -1.592 -3.387 -0.772 0 0 Z " fill="#535461" transform="translate(186,353)"/>
<path d="M0 0 C3.778 1.189 4.494 1.694 6.375 5.062 C6.736 8.087 6.736 8.087 6.716 11.667 C6.716 12.321 6.716 12.975 6.717 13.649 C6.715 15.803 6.692 17.956 6.668 20.109 C6.662 21.606 6.658 23.102 6.655 24.599 C6.644 28.531 6.614 32.463 6.581 36.396 C6.55 40.411 6.537 44.426 6.521 48.441 C6.489 56.315 6.438 64.189 6.375 72.062 C4.705 71.404 3.039 70.735 1.375 70.062 C0.505 69.719 -0.364 69.376 -1.26 69.023 C-4.166 67.625 -6.316 66.326 -8.625 64.062 C-10.072 59.629 -9.911 55.375 -9.777 50.746 C-9.775 49.457 -9.773 48.168 -9.77 46.839 C-9.763 44.117 -9.721 41.398 -9.654 38.677 C-9.569 35.197 -9.55 31.721 -9.554 28.24 C-9.552 24.908 -9.508 21.578 -9.465 18.246 C-9.459 17 -9.454 15.754 -9.448 14.471 C-9.185 4.88 -9.185 4.88 -6.299 1.742 C-3.625 0.062 -3.625 0.062 0 0 Z " fill="#202034" transform="translate(129.625,408.9375)"/>
<path d="M0 0 C2.893 0.944 4.104 1.514 5.875 3.938 C8.604 12.125 7.56 22.037 7.719 30.595 C7.781 33.23 7.87 35.865 7.986 38.498 C8.911 59.889 8.911 59.889 5.469 65.043 C2.104 68.278 -3.251 71.938 -8.125 71.938 C-8.241 63.141 -8.33 54.344 -8.384 45.546 C-8.41 41.461 -8.446 37.377 -8.502 33.292 C-8.557 29.35 -8.586 25.408 -8.599 21.465 C-8.609 19.961 -8.627 18.457 -8.654 16.954 C-8.69 14.846 -8.695 12.741 -8.693 10.634 C-8.704 9.435 -8.715 8.236 -8.726 7 C-8.125 3.938 -8.125 3.938 -5.785 1.515 C-3.125 -0.062 -3.125 -0.062 0 0 Z " fill="#202034" transform="translate(385.125,409.0625)"/>
<path d="M0 0 C3.252 2.304 4.71 3.74 5.609 7.645 C6.074 11.634 6.222 15.55 6.25 19.562 C6.271 20.304 6.291 21.046 6.312 21.811 C6.352 27.394 5.194 30.643 1.312 34.812 C-2.092 36.561 -5.311 36.805 -9 36 C-11.691 33.824 -13.455 32.089 -15 29 C-15.294 25.423 -15.278 21.837 -15.312 18.25 C-15.342 17.26 -15.371 16.27 -15.4 15.25 C-15.453 9.177 -15.102 5.597 -11 1 C-7.517 -0.742 -3.801 -0.578 0 0 Z " fill="#C3D4E6" transform="translate(335,447)"/>
<path d="M0 0 C2.756 2.182 4.436 3.872 6 7 C6.294 10.577 6.278 14.163 6.312 17.75 C6.342 18.74 6.371 19.73 6.4 20.75 C6.453 26.823 6.102 30.403 2 35 C-1.233 36.617 -4.505 36.584 -8 36 C-10.931 34.431 -13.438 32.491 -14.648 29.281 C-16.016 20.409 -16.319 9.31 -11.438 1.5 C-7.716 -0.79 -4.244 -0.9 0 0 Z " fill="#C3D4E6" transform="translate(186,447)"/>
<path d="M0 0 C7.443 9.298 12.083 20.564 15 32 C15.271 33.049 15.271 33.049 15.547 34.12 C16.735 38.738 17.881 43.365 19 48 C13.255 48.17 10.41 47.909 6 44 C4.653 41.565 3.828 39.616 3 37 C2.683 36.001 2.366 35.002 2.039 33.973 C1.341 31.723 0.656 29.469 -0.016 27.211 C-0.843 24.513 -1.767 21.893 -2.75 19.25 C-4.391 14.308 -5.412 8.971 -3.098 4.102 C-2 2.438 -2 2.438 0 0 Z " fill="#F4986B" transform="translate(167,137)"/>
<path d="M0 0 C3.015 0.896 4.718 1.679 6.812 4.062 C9.633 11.039 7.845 17.701 5.188 24.438 C4.628 25.92 4.071 27.403 3.516 28.887 C3.249 29.592 2.983 30.298 2.709 31.025 C1.798 33.563 1.111 36.14 0.438 38.75 C-0.755 42.917 -2.555 45.262 -6 48 C-8 49 -8 49 -15 49 C-14.505 40.09 -14.505 40.09 -14 31 C-13.67 31 -13.34 31 -13 31 C-13 34.3 -13 37.6 -13 41 C-12.34 41 -11.68 41 -11 41 C-8.277 31.246 -5.847 21.425 -3.43 11.592 C-3.131 10.385 -2.832 9.177 -2.523 7.934 C-2.255 6.841 -1.986 5.748 -1.708 4.623 C-1 2 -1 2 0 0 Z " fill="#FAA87B" transform="translate(341,136)"/>
<path d="M0 0 C3.302 3.31 4.565 6.031 4.777 10.719 C4.487 15.465 3.308 18.129 0.152 21.656 C-0.508 21.656 -1.168 21.656 -1.848 21.656 C-1.873 20.981 -1.899 20.305 -1.926 19.609 C-2.264 14.02 -2.264 14.02 -4.473 8.969 C-7.855 7.1 -10.176 7.809 -13.848 8.656 C-15.879 12.99 -16.368 16.942 -16.848 21.656 C-22.743 15.912 -22.743 15.912 -23.16 10.906 C-23.104 6.501 -21.697 4.059 -18.848 0.656 C-13.336 -4.5 -6.05 -4.4 0 0 Z " fill="#2C2C42" transform="translate(190.84765625,345.34375)"/>
<path d="M0 0 C4.053 3.363 5.82 7.094 6.312 12.312 C5.944 16.655 4.715 18.646 2 22 C1.34 22.33 0.68 22.66 0 23 C-0.11 22.241 -0.219 21.481 -0.332 20.699 C-0.491 19.705 -0.649 18.711 -0.812 17.688 C-0.963 16.701 -1.114 15.715 -1.27 14.699 C-2.044 11.837 -2.574 10.673 -5 9 C-8.578 8.999 -8.578 8.999 -12 10 C-14.108 13.162 -14.338 14.507 -14.625 18.188 C-14.7 19.089 -14.775 19.99 -14.852 20.918 C-14.901 21.605 -14.95 22.292 -15 23 C-17.416 22.034 -18.755 21.366 -20.219 19.176 C-21.678 15.113 -21.742 11.235 -21 7 C-18.869 2.981 -16.129 0.627 -12.188 -1.562 C-7.767 -2.169 -4.121 -1.753 0 0 Z " fill="#2C2C42" transform="translate(338,344)"/>
<path d="M0 0 C3.663 2.518 4.754 4.203 6.062 8.438 C5.985 12.859 4.808 14.646 2 18 C-1.669 20.446 -4.736 20.839 -9 20 C-12.609 17.082 -14.784 14.903 -15.312 10.25 C-14.922 6.191 -13.504 4.167 -11 1 C-7.514 -0.743 -3.804 -0.572 0 0 Z " fill="#EAEFF1" transform="translate(335,447)"/>
<path d="M0 0 C2.756 2.182 4.436 3.872 6 7 C6.414 11.654 5.811 14.252 3 18 C-0.685 20.457 -3.72 20.701 -8 20 C-10.81 18.206 -12.509 16.981 -14 14 C-14.42 5.312 -14.42 5.312 -12 2 C-7.997 -0.668 -4.707 -0.834 0 0 Z " fill="#EAEFF1" transform="translate(186,447)"/>
<path d="M0 0 C5.345 1.503 9.135 5.171 13 9 C13.33 9.66 13.66 10.32 14 11 C6.236 10.171 6.236 10.171 3.289 7.379 C0 2.807 0 2.807 0 0 Z " fill="#313145" transform="translate(311,251)"/>
<path d="M0 0 C0.66 0.33 1.32 0.66 2 1 C0.625 2.5 0.625 2.5 -1 4 C-1.66 4 -2.32 4 -3 4 C-3 3.01 -3 2.02 -3 1 C-2.01 0.67 -1.02 0.34 0 0 Z " fill="#BFD1E4" transform="translate(193,260)"/>
</svg>